<?xml version="1.0" encoding="iso-8859-1"?>
<!-- Generator: Adobe Illustrator 19.0.0, SVG Export Plug-In . SVG Version: 6.00 Build 0)  -->
<svg version="1.1" id="Layer_1" xmlns="http://www.w3.org/2000/svg" xmlns:xlink="http://www.w3.org/1999/xlink" x="0px" y="0px"
	 viewBox="0 0 512 512" style="enable-background:new 0 0 512 512;" xml:space="preserve">
<circle style="fill:#C2D5D8;" cx="256" cy="256" r="256"/>
<path style="fill:#B7C9CC;" d="M492.78,353.364c-0.284-0.736-0.58-1.472-0.884-2.176c-0.32-0.824-0.64-1.652-0.984-2.444
	c-0.328-0.828-0.648-1.664-1-2.468c-0.32-0.828-0.64-1.644-0.984-2.436c-0.328-0.832-0.648-1.668-1-2.468
	c-0.32-0.824-0.64-1.648-0.984-2.436c-0.328-0.836-0.648-1.672-1-2.468c-0.32-0.828-0.64-1.652-0.984-2.444
	c-0.324-0.832-0.648-1.668-0.996-2.468c-0.324-0.82-0.644-1.648-0.988-2.444c-0.324-0.828-0.648-1.656-0.992-2.448
	c-0.324-0.832-0.648-1.668-0.996-2.468c-0.324-0.828-0.644-1.652-0.988-2.44c-0.324-0.828-0.648-1.664-0.996-2.468
	c-0.324-0.82-0.644-1.648-0.988-2.44c-0.324-0.832-0.648-1.668-0.996-2.468c-0.324-0.828-0.644-1.652-0.988-2.44
	c-0.32-0.836-0.648-1.672-0.992-2.464c-0.328-0.828-0.648-1.652-0.992-2.444c-0.32-0.832-0.648-1.668-0.992-2.464
	c-0.328-0.828-0.648-1.656-0.992-2.444c-0.328-0.852-0.664-1.696-1.024-2.516c-0.312-0.812-0.624-1.616-0.96-2.4
	c-0.328-0.832-0.648-1.668-1-2.468c-0.32-0.828-0.64-1.648-0.984-2.436c-0.32-0.836-0.648-1.672-1-2.468
	c-0.32-0.824-0.64-1.652-0.984-2.444c-0.32-0.828-0.644-1.656-0.992-2.452c-0.32-0.836-0.644-1.672-0.992-2.464
	c-0.324-0.828-0.644-1.656-0.988-2.444c-0.324-0.832-0.648-1.668-0.996-2.468c-0.324-0.824-0.644-1.652-0.988-2.44
	c-0.324-0.828-0.648-1.664-0.996-2.468c-0.324-0.828-0.644-1.648-0.988-2.44c-0.324-0.832-0.648-1.668-0.996-2.464
	c-0.324-0.828-0.644-1.656-0.988-2.444c-0.32-0.836-0.648-1.672-0.992-2.464c-0.328-0.828-0.648-1.652-0.992-2.444
	c-0.32-0.832-0.644-1.668-0.992-2.468c-0.328-0.824-0.644-1.652-0.988-2.444c-0.32-0.832-0.648-1.668-0.992-2.468
	c-0.328-0.828-0.648-1.652-0.992-2.444c-0.32-0.828-0.648-1.66-0.992-2.456c-0.32-0.832-0.648-1.668-0.992-2.468
	c-0.328-0.824-0.648-1.652-0.992-2.444c-0.32-0.832-0.648-1.668-0.992-2.468c-0.336-0.844-0.664-1.684-1.016-2.5
	c-0.32-0.816-0.632-1.628-0.976-2.416c-0.32-0.824-0.64-1.652-0.984-2.444c-0.328-0.832-0.648-1.668-1-2.468
	c-0.32-0.828-0.64-1.652-0.984-2.444c-0.324-0.832-0.648-1.668-0.996-2.468c-0.324-0.824-0.644-1.652-0.988-2.444
	c-0.324-0.832-0.648-1.668-0.996-2.468c-0.324-0.828-0.644-1.652-0.988-2.444c-0.32-0.832-0.648-1.668-0.996-2.468
	c-0.324-0.824-0.644-1.652-0.988-2.444c-0.32-0.832-0.648-1.668-0.992-2.468c-0.328-0.828-0.648-1.652-0.992-2.444
	c-0.32-0.828-0.648-1.66-0.992-2.456c-0.32-0.832-0.648-1.668-0.992-2.468c-0.328-0.824-0.648-1.652-0.992-2.444
	c-0.32-0.832-0.648-1.668-0.992-2.468c-0.328-0.828-0.648-1.652-0.992-2.444c-0.32-0.832-0.64-1.668-0.992-2.468
	c-0.328-0.824-0.64-1.652-0.984-2.444c-0.328-0.832-0.648-1.668-1-2.468c-0.32-0.828-0.64-1.652-0.984-2.444
	c-0.328-0.832-0.648-1.668-1-2.468c-0.32-0.824-0.64-1.652-0.984-2.444c-0.324-0.832-0.648-1.668-1-2.468
	c-0.328-0.844-0.656-1.684-1.008-2.5c-0.32-0.816-0.636-1.628-0.976-2.416c-0.324-0.824-0.644-1.652-0.988-2.444
	c-0.324-0.832-0.648-1.668-0.996-2.468c-0.324-0.828-0.644-1.652-0.988-2.444c-0.324-0.828-0.648-1.66-0.992-2.456
	c-0.32-0.832-0.648-1.668-0.992-2.468c-0.328-0.824-0.648-1.652-0.992-2.444c-0.32-0.832-0.648-1.668-0.992-2.468
	c-0.328-0.828-0.648-1.652-0.992-2.444c-0.316-0.832-0.644-1.668-0.992-2.468c-0.352-0.896-0.708-1.784-1.084-2.644
	c-0.756-1.94-1.564-3.832-2.436-5.6c-0.084-0.156-0.164-0.2-0.256-0.184c-0.032,0.004-0.072,0.048-0.096,0.068
	c-0.068,0.044-0.14,0.112-0.224,0.232c-0.056,0.072-0.104,0.168-0.164,0.268c-0.08,0.128-0.148,0.276-0.236,0.448
	c-0.084,0.176-0.18,0.376-0.272,0.596c-0.024,0.04-0.04,0.088-0.064,0.132c-0.888,2.04-2.256,5.72-4.608,10.484l0,0
	c-9.244,18.684-33.408,53.3-100.36,64.388c-0.024-0.056-0.048-0.108-0.072-0.164c0.064-0.752,0.072-1.456,0.18-2.236
	c-0.356,0-0.692,0.064-1.04,0.088c-0.048-0.104-0.084-0.208-0.132-0.312c0.064-0.748,0.072-1.46,0.18-2.236
	c-0.356,0-0.692,0.064-1.04,0.088c-0.048-0.104-0.084-0.208-0.132-0.312c0.064-0.748,0.072-1.456,0.18-2.236
	c-0.352,0-0.692,0.064-1.04,0.088c-0.048-0.104-0.084-0.208-0.132-0.312c0.064-0.748,0.072-1.46,0.18-2.236
	c-0.352,0-0.688,0.064-1.04,0.088c-0.048-0.104-0.084-0.208-0.132-0.312c0.072-0.748,0.072-1.456,0.18-2.236
	c-0.352,0-0.688,0.064-1.04,0.088c-0.044-0.104-0.084-0.208-0.132-0.312c0.072-0.748,0.072-1.46,0.18-2.236
	c-0.412,0-0.796,0.072-1.196,0.104c0.064-0.848,0.08-1.668,0.204-2.56c-0.412,0-0.796,0.072-1.196,0.104
	c0.064-0.852,0.08-1.672,0.204-2.56c-0.412,0-0.796,0.072-1.196,0.104c0.064-0.848,0.08-1.668,0.204-2.56
	c-0.412,0-0.796,0.072-1.196,0.104c0.064-0.852,0.08-1.668,0.204-2.56c-0.412,0-0.796,0.072-1.196,0.104
	c0.064-0.848,0.084-1.668,0.212-2.56c-0.416,0-0.8,0.072-1.212,0.104c0.072-0.852,0.084-1.672,0.212-2.56
	c-0.416,0-0.796,0.072-1.204,0.104c0.072-0.848,0.084-1.668,0.212-2.56c-0.416,0-0.796,0.072-1.204,0.104
	c0.072-0.852,0.084-1.668,0.212-2.56c-0.416,0-0.796,0.072-1.204,0.104c0.072-0.848,0.084-1.668,0.212-2.56
	c-0.416,0-0.796,0.072-1.204,0.104c0.072-0.852,0.084-1.672,0.216-2.56c-0.416,0-0.8,0.072-1.2,0.104
	c0.064-0.852,0.08-1.672,0.208-2.56c-0.416,0-0.8,0.072-1.2,0.104c0.064-0.848,0.084-1.668,0.208-2.56
	c-0.416,0-0.796,0.072-1.2,0.104c0.064-0.852,0.084-1.668,0.208-2.56c-0.416,0-0.796,0.072-1.2,0.104
	c0.068-0.848,0.084-1.668,0.208-2.56c-0.416,0-0.796,0.072-1.2,0.104c0.068-0.852,0.084-1.672,0.208-2.56
	c-0.416,0-0.796,0.072-1.2,0.104c0.068-0.848,0.084-1.668,0.208-2.56c-0.412,0-0.792,0.072-1.2,0.104
	c0.072-0.852,0.084-1.668,0.208-2.56c-0.924,0-1.828,0.096-2.712,0.232c-0.232,0.036-0.436,0.08-0.664,0.124
	c-0.748,0.144-1.46,0.328-2.168,0.56c-0.12,0.04-0.252,0.072-0.368,0.112c-8.752,3.052-14.788,12.34-18.088,18.824
	c-0.272-0.544-0.58-1.112-0.896-1.692C247.408,167.74,239.728,164,232,164c3.84,26.876-21.712,35.364-16.704,57.224
	c-92.312-16.684-108.224-77.496-111.06-77.424c-0.084,0-0.164,0.06-0.236,0.2c-0.828,1.656-1.58,3.412-2.296,5.22
	c-0.156,0.392-0.308,0.788-0.456,1.184c-11.076,29.308-8.236,76.728,8.196,116.624c0.328,0.828,0.664,1.656,1,2.476
	c0.324,0.816,0.652,1.628,0.984,2.432c0.328,0.836,0.664,1.656,1,2.476c0.392,0.992,0.796,1.976,1.2,2.948
	c0.204,0.508,0.412,1.02,0.616,1.536c0.376,0.952,0.76,1.916,1.152,2.868c0.324,0.82,0.656,1.64,0.992,2.452
	c0.328,0.836,0.664,1.652,1,2.472c0.324,0.816,0.652,1.628,0.984,2.436c0.328,0.828,0.664,1.656,1,2.472
	c0.324,0.812,0.652,1.624,0.984,2.432c0.328,0.832,0.664,1.656,1,2.476c0.324,0.816,0.652,1.628,0.984,2.436
	c0.328,0.824,0.664,1.652,1,2.472c0.324,0.82,0.652,1.632,0.984,2.432c0.328,0.832,0.664,1.656,1,2.476
	c0.392,0.992,0.796,1.972,1.2,2.952c0.268,0.668,0.544,1.332,0.82,2c0.256,0.652,0.516,1.308,0.784,1.956
	c0.384,0.976,0.768,1.94,1.168,2.916c0.324,0.816,0.652,1.628,0.984,2.428c0.328,0.828,0.664,1.656,1,2.476
	c0.324,0.82,0.652,1.628,0.984,2.436c0.324,0.824,0.656,1.64,0.992,2.456c0.328,0.832,0.664,1.652,1,2.472
	c0.324,0.82,0.652,1.632,0.984,2.432c0.328,0.828,0.664,1.656,1,2.476c0.324,0.816,0.652,1.628,0.984,2.432
	c0.328,0.836,0.664,1.656,1,2.476c0.392,0.992,0.796,1.968,1.2,2.952c0.268,0.664,0.544,1.328,0.82,2
	c0.256,0.652,0.516,1.308,0.784,1.956c0.384,0.976,0.768,1.94,1.168,2.912c0.324,0.82,0.652,1.632,0.984,2.436
	c0.328,0.828,0.664,1.656,1,2.476c0.324,0.816,0.652,1.624,0.984,2.436c0.328,0.828,0.664,1.656,1,2.476
	c0.324,0.812,0.652,1.62,0.984,2.428c0.328,0.828,0.664,1.656,1,2.476c0.324,0.816,0.652,1.624,0.984,2.428
	c0.324,0.828,0.656,1.64,0.992,2.46c0.396,1,0.804,2,1.22,2.988c0.26,0.656,0.532,1.308,0.8,1.96c0.328,0.832,0.66,1.656,1,2.476
	c0.324,0.816,0.652,1.628,0.984,2.432c0.264,0.672,0.528,1.336,0.8,2c0.376,0.956,0.756,1.916,1.152,2.876
	c0.328,0.828,0.664,1.656,1,2.476c0.324,0.812,0.652,1.62,0.984,2.428c0.328,0.832,0.664,1.656,1,2.476
	c0.324,0.816,0.652,1.624,0.984,2.428c0.328,0.828,0.664,1.656,1,2.476c0.324,0.82,0.652,1.632,0.984,2.436
	c0.328,0.832,0.664,1.656,1,2.476c0.392,0.992,0.796,1.968,1.2,2.952c0.264,0.664,0.54,1.32,0.808,1.976
	c0.328,0.828,0.66,1.648,0.996,2.456c0.324,0.828,0.656,1.64,0.992,2.456c0.328,0.828,0.664,1.656,1,2.476
	c0.26,0.656,0.52,1.312,0.784,1.96c0.388,0.984,0.776,1.96,1.18,2.936c0.32,0.804,0.644,1.6,0.972,2.408
	c0.328,0.828,0.664,1.656,1,2.468c0.324,0.82,0.652,1.632,0.984,2.436c0.328,0.828,0.664,1.656,1,2.476
	c0.324,0.816,0.652,1.624,0.984,2.436c0.396,0.992,0.8,1.984,1.212,2.968c0.264,0.664,0.536,1.316,0.808,1.98
	c0.328,0.828,0.66,1.656,1,2.476c0.324,0.812,0.652,1.624,0.984,2.432c0.328,0.828,0.66,1.656,1,2.476
	c0.324,0.82,0.652,1.624,0.984,2.428c0.26,0.664,0.524,1.328,0.792,1.984c0.384,0.976,0.768,1.944,1.168,2.916
	c0.324,0.812,0.652,1.624,0.984,2.436c0.328,0.828,0.664,1.656,1,2.472c0.324,0.816,0.652,1.628,0.984,2.432
	c0.328,0.828,0.664,1.656,1,2.476c0.324,0.82,0.652,1.628,0.984,2.432c0.392,1,0.8,1.992,1.208,2.972
	c0.264,0.664,0.54,1.32,0.808,1.98c0.328,0.832,0.664,1.652,1,2.472c0.324,0.82,0.652,1.624,0.984,2.436
	c0.328,0.828,0.664,1.656,1,2.476c0.324,0.812,0.652,1.624,0.984,2.428c0.332,0.844,0.672,1.684,1.016,2.52
	c0.252,0.636,0.508,1.276,0.768,1.916c0.384,0.972,0.764,1.94,1.164,2.916c0.328,0.812,0.656,1.624,0.984,2.436
	c0.328,0.828,0.664,1.656,1,2.472c0.328,0.812,0.656,1.624,0.984,2.432c0.328,0.824,0.656,1.64,0.992,2.452
	c0.4,1,0.8,1.984,1.212,2.976c0.26,0.664,0.54,1.312,0.812,1.976c0.328,0.828,0.656,1.656,1,2.476
	c0.32,0.812,0.648,1.624,0.984,2.432c0.328,0.832,0.656,1.652,1,2.48c0.244,0.616,0.492,1.228,0.744,1.836
	c16.036,3.292,32.58,4.98,49.524,4.98C362.908,512,454.46,446.444,492.78,353.364z"/>
<path style="fill:#333333;" d="M408,144c-2.208-4.412-10.116,62.724-111.296,77.224C301.712,199.364,276.16,190.876,280,164
	c-12,0-20,12-24,19.852C252,176,244,164,232,164c3.84,26.876-21.712,35.364-16.704,57.224C114.116,206.724,106.208,139.588,104,144
	c-20,40-8,126.14,34.928,169.072c3.908,3.916,10.236,3.916,14.14,0c5.008-5,10.78-7.54,17.168-7.54
	c9.764,0,19.824,6.064,25.648,15.46c3.392,5.5,8.056,16.764,1.172,30.536c-2.192,4.396-0.884,9.716,3.1,12.584
	c3.952,2.876,9.452,2.428,12.916-1.04c4.428-4.424,9.376-6.876,13.908-6.876C238.352,356.196,252,388,256,408
	c4-20,17.648-51.804,29.024-51.804c4.532,0,9.472,2.44,13.908,6.876c3.46,3.468,8.952,3.916,12.916,1.04
	c3.984-2.86,5.292-8.188,3.096-12.584c-6.884-13.768-2.22-25.04,1.172-30.536c5.82-9.4,15.888-15.46,25.648-15.46
	c6.392,0,12.156,2.54,17.164,7.54c3.916,3.916,10.244,3.916,14.14,0C416,270.14,428,184,408,144z"/>
<g>
	<path style="fill:#242424;" d="M245.408,183.852c2.592,4.148,8.4,2.924,10.592,0C248,168,240.028,164,232,164
		c0.176,1.244,0.236,2.408,0.288,3.576C238.392,171.732,242.772,178.68,245.408,183.852z"/>
	<path style="fill:#242424;" d="M159.648,305.532c-6.388,0-12.16,2.54-17.168,7.54c-0.544,0.552-1.148,1-1.776,1.4
		c3.864,2.416,9.008,1.96,12.368-1.4c3.58-3.576,7.556-5.868,11.864-6.9C163.176,305.792,161.412,305.532,159.648,305.532z"/>
	<path style="fill:#242424;" d="M269.116,167.576c-1.188,24.076,21.764,32.8,16.992,53.648c3.756-0.54,7.36-1.172,10.876-1.852
		C300.156,198.888,276.272,190.088,280,164C275.908,164,272.28,165.416,269.116,167.576z"/>
	<path style="fill:#242424;" d="M215.296,221.224C120,204,106.124,139.752,104,144c-1.824,3.648-3.376,7.692-4.668,12.04
		C108.796,175.184,144,216,215.296,221.224z"/>
	<path style="fill:#242424;" d="M331.172,305.532c-9.764,0-19.828,6.064-25.648,15.46c-3.392,5.5-8.056,16.764-1.172,30.536
		c2.188,4.396,0.884,9.716-3.1,12.584c-0.18,0.132-0.376,0.224-0.564,0.328c3.384,2.132,7.808,2.092,11.152-0.328
		c3.984-2.86,5.292-8.188,3.104-12.584c-6.884-13.768-2.22-25.04,1.172-30.536c4.764-7.696,12.392-13.092,20.356-14.82
		C334.756,305.756,332.992,305.532,331.172,305.532z"/>
	<path style="fill:#242424;" d="M408,144c-0.664-1.324-1.864,3.828-5.92,12.044c12.876,43.324-0.584,118.02-39.592,157.028
		c-0.556,0.552-1.148,1-1.772,1.396c3.868,2.416,9.016,1.964,12.376-1.396C416,270.14,428,184,408,144z"/>
	<path style="fill:#242424;" d="M274.428,356.196c-8.24,0-17.632,16.652-23.736,33.428c2.328,6.416,4.192,12.844,5.296,18.376
		c3.496-17.48,14.36-43.968,24.636-50.372C278.54,356.704,276.444,356.196,274.428,356.196z"/>
	<path style="fill:#242424;" d="M216.384,356.196c-4.532,0-9.468,2.44-13.908,6.876c-0.54,0.54-1.132,0.976-1.756,1.368
		c3.912,2.46,9.056,1.944,12.352-1.368c2.46-2.46,5.084-4.276,7.704-5.432C219.288,356.704,217.816,356.196,216.384,356.196z"/>
</g>
<circle style="fill:#F5F5F5;" cx="240" cy="208" r="12"/>
<circle style="fill:#242424;" cx="240" cy="208" r="8"/>
<circle style="fill:#F5F5F5;" cx="272" cy="208" r="12"/>
<circle style="fill:#242424;" cx="272" cy="208" r="8"/>
<g>
	<path style="fill:#CC584C;" d="M245.148,235.444L248,244l2.72-8.144C248.808,235.76,246.936,235.632,245.148,235.444z"/>
	<path style="fill:#CC584C;" d="M261.28,235.856L264,244l2.852-8.556C265.064,235.632,263.192,235.76,261.28,235.856z"/>
</g>
<g>
</g>
<g>
</g>
<g>
</g>
<g>
</g>
<g>
</g>
<g>
</g>
<g>
</g>
<g>
</g>
<g>
</g>
<g>
</g>
<g>
</g>
<g>
</g>
<g>
</g>
<g>
</g>
<g>
</g>
</svg>
