<?xml version="1.0" encoding="iso-8859-1"?>
<!-- Generator: Adobe Illustrator 19.0.0, SVG Export Plug-In . SVG Version: 6.00 Build 0)  -->
<svg version="1.1" id="Layer_1" xmlns="http://www.w3.org/2000/svg" xmlns:xlink="http://www.w3.org/1999/xlink" x="0px" y="0px"
	 viewBox="0 0 512 512" style="enable-background:new 0 0 512 512;" xml:space="preserve">
<circle style="fill:#88C5CC;" cx="256" cy="256" r="256"/>
<path style="fill:#CC803D;" d="M256,276c-92.78,0-168,44.772-168,100v73.072c14.856,12.936,31.2,24.196,48.772,33.464v-87.568
	C136.772,355.772,190.156,324,256,324s119.228,31.772,119.228,70.968v87.568c17.572-9.268,33.916-20.524,48.772-33.464V376
	C424,320.772,348.78,276,256,276z"/>
<path style="fill:#FFC066;" d="M375.228,482.536v-87.568C375.228,355.772,321.844,324,256,324s-119.228,31.772-119.228,70.968
	v87.568C172.388,501.316,212.936,512,256,512S339.612,501.316,375.228,482.536z"/>
<path style="fill:#B37035;" d="M379.544,308.256C348.844,288.428,304.868,276,256,276c-45.484,0-86.728,10.772-116.972,28.256
	C155.892,354.6,201.672,388,260,388C316.764,388,361.636,356.36,379.544,308.256z"/>
<path style="fill:#E6AD5C;" d="M165.48,348.808C188.344,373.304,221.392,388,260,388c36.764,0,68.492-13.332,91.184-35.756
	C329.42,335.084,294.892,324,256,324C219.772,324,187.348,333.628,165.48,348.808z"/>
<path style="fill:#CC803D;" d="M256,380c-74.108,0-128-53.892-128-128v-32c-19.2-3.436-32-18.124-32-40c0-25.42,14.58-40,40-40
	c9.148,0,23.192,7.076,32,16c21.308-15.548,53.592-24,88-24s66.692,8.452,88,24c8.808-8.924,22.852-16,32-16c25.42,0,40,14.58,40,40
	c0,21.876-12.8,36.564-32,40v32C384,326.108,330.108,380,256,380z"/>
<g>
	<path style="fill:#BF7839;" d="M160,160c2.164-1.58,5.616-2.568,8-4c-8-8-20-16-32-16c-2.648,0-5.148,0.196-7.564,0.508
		C137.272,142.212,152.516,152.416,160,160z"/>
	<path style="fill:#BF7839;" d="M340,160c1.564-1.58,2.172-2.568,4-4c-20-16-56-24-88-24c-2.008,0-4.008,0.036-6,0.092
		C282.136,133.016,319.928,145.36,340,160z"/>
	<path style="fill:#BF7839;" d="M376,140c-1.376,0-2.884,0.208-4.436,0.508C392.272,143.192,408,157.228,408,180
		c0,21.876-16.8,36.564-36,40v32c0,72.092-51.004,125.032-122,127.864c1.988,0.08,3.984,0.136,6,0.136c74.108,0,128-53.892,128-128
		v-32c19.2-3.436,32-18.124,32-40C416,154.58,401.42,140,376,140z"/>
</g>
<g>
	<circle style="fill:#F5F5F5;" cx="304" cy="220" r="20"/>
	<circle style="fill:#F5F5F5;" cx="208" cy="220" r="20"/>
</g>
<g>
	<circle style="fill:#242424;" cx="208" cy="220" r="8"/>
	<circle style="fill:#242424;" cx="304" cy="220" r="8"/>
</g>
<ellipse style="fill:#E69750;" cx="256" cy="316" rx="84" ry="64"/>
<ellipse style="fill:#242424;" cx="256" cy="292" rx="36" ry="24"/>
<g>
	<path style="fill:#99602D;" d="M166.472,170.648l-7.016-6.216C152.436,157.316,141.28,152,136,152c-18.84,0-28,9.16-28,28
		c0,15.396,8.064,25.672,22.108,28.188l8.532,1.524C143.064,194.632,152.848,181.292,166.472,170.648z"/>
	<path style="fill:#99602D;" d="M345.528,170.648l7.016-6.216c7.02-7.116,18.176-12.428,23.456-12.428c18.84,0,28,9.16,28,28
		c0,15.396-8.064,25.672-22.108,28.188l-8.532,1.524C368.936,194.632,359.152,181.292,345.528,170.648z"/>
</g>
<g>
</g>
<g>
</g>
<g>
</g>
<g>
</g>
<g>
</g>
<g>
</g>
<g>
</g>
<g>
</g>
<g>
</g>
<g>
</g>
<g>
</g>
<g>
</g>
<g>
</g>
<g>
</g>
<g>
</g>
</svg>
