<?xml version="1.0" encoding="iso-8859-1"?>
<!-- Generator: Adobe Illustrator 19.0.0, SVG Export Plug-In . SVG Version: 6.00 Build 0)  -->
<svg version="1.1" id="Layer_1" xmlns="http://www.w3.org/2000/svg" xmlns:xlink="http://www.w3.org/1999/xlink" x="0px" y="0px"
	 viewBox="0 0 512 512" style="enable-background:new 0 0 512 512;" xml:space="preserve">
<circle style="fill:#4AB8A1;" cx="256" cy="256" r="256"/>
<path style="fill:#43A691;" d="M494.472,349.08c-0.14-0.34-0.264-0.688-0.416-1.024c-0.304-0.828-0.632-1.648-0.992-2.456
	c-0.304-0.836-0.64-1.664-1-2.484c-0.304-0.812-0.632-1.62-0.984-2.42c-0.304-0.828-0.632-1.648-0.992-2.456
	c-0.304-0.828-0.632-1.648-0.992-2.456c-0.304-0.836-0.64-1.664-1-2.48c-0.304-0.816-0.628-1.624-0.984-2.424
	c-0.304-0.828-0.632-1.648-0.992-2.456c-0.304-0.828-0.632-1.644-0.988-2.452c-0.308-0.836-0.644-1.664-1-2.484
	c-0.308-0.816-0.632-1.624-0.984-2.424c-0.316-0.852-0.656-1.696-1.02-2.528c-0.3-0.804-0.624-1.596-0.968-2.388
	c-0.308-0.828-0.636-1.648-0.992-2.456c-0.312-0.836-0.644-1.664-1-2.484c-0.308-0.816-0.632-1.624-0.984-2.42
	c-0.308-0.828-0.636-1.648-0.992-2.456c-0.308-0.828-0.632-1.648-0.992-2.456c-0.312-0.836-0.64-1.664-1-2.484
	c-0.304-0.816-0.632-1.62-0.984-2.42c-0.304-0.828-0.632-1.648-0.992-2.456c-0.304-0.828-0.632-1.648-0.992-2.456
	c-0.312-0.836-0.64-1.664-1-2.484c-0.304-0.816-0.632-1.62-0.984-2.42c-0.304-0.828-0.632-1.648-0.992-2.456
	c-0.304-0.828-0.632-1.648-0.992-2.456c-0.304-0.828-0.632-1.644-0.992-2.452c-0.312-0.836-0.64-1.664-1-2.484
	c-0.304-0.816-0.628-1.624-0.984-2.424c-0.304-0.828-0.632-1.648-0.992-2.452c-0.304-0.828-0.632-1.648-0.988-2.456
	c-0.312-0.836-0.644-1.664-1-2.484c-0.308-0.816-0.632-1.624-0.984-2.424c-0.308-0.828-0.636-1.648-0.992-2.452
	c-0.308-0.828-0.636-1.648-0.992-2.456c-0.312-0.836-0.644-1.664-1-2.484c-0.316-0.84-0.652-1.672-1.012-2.496
	c-0.3-0.804-0.62-1.6-0.968-2.388c-0.308-0.828-0.636-1.648-0.992-2.456c-0.308-0.828-0.632-1.648-0.992-2.456
	c-0.304-0.836-0.64-1.664-1-2.484c-0.304-0.816-0.632-1.62-0.984-2.42c-0.304-0.828-0.632-1.648-0.992-2.456
	c-0.304-0.828-0.632-1.648-0.992-2.456c-0.304-0.836-0.64-1.664-1-2.484c-0.304-0.816-0.632-1.62-0.984-2.42
	c-0.304-0.828-0.632-1.648-0.992-2.456c-0.304-0.828-0.632-1.648-0.992-2.456c-0.304-0.836-0.64-1.664-1-2.48
	c-0.304-0.816-0.632-1.624-0.984-2.424c-0.304-0.828-0.632-1.648-0.992-2.456c-0.304-0.828-0.632-1.648-0.992-2.452
	c-0.304-0.828-0.632-1.648-0.988-2.456c-0.308-0.836-0.644-1.664-1-2.484c-0.308-0.816-0.632-1.624-0.984-2.424
	c-0.308-0.828-0.636-1.648-0.992-2.452c-0.308-0.828-0.636-1.648-0.992-2.456c-0.308-0.836-0.644-1.664-1-2.484
	c-0.308-0.816-0.632-1.624-0.984-2.424c-0.308-0.828-0.636-1.644-0.992-2.452c-0.308-0.828-0.636-1.648-0.992-2.456
	c-0.32-0.86-0.66-1.712-1.032-2.556c-0.296-0.792-0.616-1.584-0.956-2.356c-0.304-0.828-0.632-1.648-0.992-2.456
	c-0.304-0.828-0.632-1.648-0.992-2.456c-0.312-0.836-0.64-1.664-1-2.484c-0.304-0.816-0.632-1.624-0.984-2.42
	c-0.304-0.828-0.632-1.648-0.992-2.456c-0.304-0.828-0.632-1.648-0.992-2.456c-0.304-0.828-0.632-1.648-0.992-2.456
	c-0.312-0.836-0.64-1.664-1-2.48c-0.304-0.816-0.632-1.624-0.984-2.424c-0.304-0.828-0.632-1.648-0.992-2.456
	c-4.58-12.26-13.932-22.98-33.132-22.98c-7.316,0-15.696,1.584-25.612,4.872c-10.284,3.392-21.728,9.364-33.204,17.088
	c-0.128-0.224-0.288-0.412-0.448-0.596c-0.012-0.552-0.116-1.092-0.372-1.62c-0.156-0.328-0.404-0.58-0.62-0.836
	c-0.012-0.552-0.116-1.096-0.372-1.62c-0.156-0.328-0.404-0.572-0.62-0.836c-0.008-0.548-0.116-1.092-0.372-1.62
	c-0.156-0.328-0.404-0.576-0.62-0.84c-0.016-0.544-0.124-1.084-0.376-1.608c-0.156-0.328-0.4-0.58-0.616-0.836
	c-0.016-0.552-0.124-1.096-0.376-1.62c-0.156-0.328-0.4-0.576-0.616-0.836c-0.016-0.548-0.12-1.092-0.376-1.62
	c-0.156-0.328-0.4-0.576-0.616-0.836c-0.016-0.548-0.12-1.092-0.376-1.62c-0.156-0.328-0.4-0.572-0.616-0.836
	c-0.016-0.544-0.12-1.088-0.376-1.612c-0.156-0.328-0.4-0.576-0.616-0.836c-0.016-0.552-0.12-1.092-0.376-1.62
	c-0.156-0.328-0.4-0.58-0.616-0.836c-0.016-0.548-0.12-1.096-0.376-1.62c-0.156-0.328-0.4-0.572-0.616-0.836
	c-0.016-0.548-0.12-1.088-0.376-1.62c-0.156-0.328-0.4-0.576-0.616-0.836c-0.016-0.548-0.12-1.092-0.376-1.616
	c-0.156-0.328-0.4-0.576-0.616-0.836c-0.016-0.548-0.12-1.092-0.376-1.616c-0.156-0.328-0.4-0.576-0.616-0.836
	c-0.012-0.548-0.12-1.092-0.376-1.62c-0.156-0.328-0.4-0.576-0.616-0.836c-0.012-0.548-0.12-1.092-0.376-1.62
	c-0.94-2-3.328-2.852-5.328-1.908c-17.9,8.48-32.468,28.088-36.48,47.588c-4.88-3.348-10.772-5.312-17.136-5.312
	c-1.356,0-2.684,0.12-3.992,0.292c-0.004,0-0.004,0-0.008,0c-4.484,0.588-8.636,2.176-12.28,4.504c-0.24-0.604-0.5-1.22-0.752-1.824
	c-0.316-0.828-0.648-1.656-1-2.476c-0.312-0.816-0.64-1.62-0.984-2.428c-0.312-0.82-0.644-1.64-0.992-2.456
	c-6.108-16.02-18.688-30.82-33.604-37.888c-2-0.944-4.384-0.092-5.328,1.908c-0.716,1.512-0.396,3.244,0.672,4.404
	c0.056,0.912,0.376,1.776,0.992,2.456c0.056,0.912,0.376,1.78,0.992,2.456c0.064,0.908,0.376,1.776,0.992,2.452
	c0.056,0.908,0.376,1.772,0.992,2.452c0.056,0.912,0.376,1.78,0.992,2.456c0.056,0.912,0.376,1.776,0.992,2.456
	c0.056,0.908,0.376,1.78,0.992,2.456c0.064,0.908,0.376,1.772,0.992,2.448c0.056,0.912,0.372,1.776,0.992,2.456
	c0.056,0.912,0.372,1.78,0.992,2.456c0.06,0.916,0.376,1.78,0.996,2.46c0.06,0.904,0.376,1.768,0.992,2.444
	c0.056,0.912,0.372,1.78,0.988,2.456c0.06,0.912,0.376,1.776,0.992,2.456c0.06,0.908,0.376,1.78,0.992,2.456
	c0.064,0.908,0.38,1.772,0.992,2.448c0.06,0.912,0.376,1.776,0.992,2.456c0.06,0.912,0.376,1.78,0.992,2.456
	c0.06,0.908,0.376,1.78,0.992,2.456c0.064,0.908,0.376,1.772,0.992,2.448c0.06,0.912,0.376,1.78,0.992,2.456
	c0.056,0.912,0.376,1.776,0.992,2.456c0.056,0.908,0.376,1.78,0.992,2.456c0.056,0.908,0.376,1.776,0.992,2.456
	c0.064,0.908,0.376,1.772,0.992,2.448c0.056,0.912,0.376,1.78,0.992,2.456c0.056,0.908,0.376,1.776,0.992,2.456
	c0.056,0.908,0.376,1.776,0.992,2.456c0.028,0.404,0.072,0.792,0.212,1.164c0,0.2,0.008,0.376,0.008,0.576
	c-2.476-2.836-5.072-5.616-7.724-8.348c-0.008-0.004-0.012-0.012-0.02-0.02c-21.336-21.948-47.552-40.02-68.852-47.036
	c-9.92-3.276-18.296-4.868-25.612-4.868c-37.52,0-37.52,40.916-37.52,54.36c0,17.94,2.788,32.048,7.444,43.164
	c0.32,0.844,0.656,1.648,0.992,2.456c0.32,0.848,0.66,1.66,1,2.472c0.316,0.832,0.652,1.636,0.988,2.436
	c0.32,0.848,0.66,1.664,1,2.472c0.316,0.836,0.648,1.636,0.984,2.436c0.32,0.844,0.656,1.648,0.992,2.456
	c0.32,0.848,0.66,1.66,1,2.472c0.316,0.832,0.652,1.636,0.988,2.432c0.32,0.844,0.656,1.648,0.992,2.456
	c0.32,0.84,0.656,1.652,0.992,2.456c0.32,0.844,0.66,1.66,1,2.472c0.316,0.832,0.652,1.636,0.988,2.432
	c0.32,0.84,0.656,1.652,0.992,2.456c0.32,0.844,0.656,1.648,0.992,2.456c0.32,0.848,0.66,1.66,1,2.472
	c0.316,0.832,0.652,1.636,0.988,2.432c0.32,0.848,0.66,1.664,1,2.476c0.316,0.836,0.652,1.636,0.988,2.436
	c0.32,0.844,0.66,1.66,1,2.472c0.316,0.832,0.652,1.636,0.988,2.432c0.32,0.84,0.656,1.652,0.992,2.456
	c0.32,0.844,0.656,1.648,0.992,2.456c0.32,0.84,0.656,1.652,0.992,2.452c0.32,0.848,0.66,1.664,1,2.472
	c0.316,0.832,0.652,1.636,0.988,2.436c0.32,0.84,0.656,1.652,0.992,2.456c0.32,0.844,0.656,1.648,0.992,2.452
	c0.32,0.852,0.66,1.664,1,2.472c0.044,0.116,0.084,0.252,0.128,0.372c-1.424,9.12-0.072,18.584,3.988,28.276
	c0.304,0.816,0.648,1.636,0.992,2.456c0.308,0.82,0.652,1.644,1,2.468c0.3,0.812,0.644,1.624,0.988,2.436
	c0.308,0.82,0.656,1.648,1,2.476c0.304,0.808,0.644,1.62,0.988,2.436c0.304,0.816,0.648,1.636,0.992,2.456
	c0.304,0.816,0.652,1.644,1,2.464c0.304,0.812,0.644,1.624,0.988,2.44c0.304,0.816,0.648,1.636,0.992,2.456
	c0.304,0.816,0.648,1.636,0.992,2.452c0.304,0.82,0.652,1.644,1,2.468c0.304,0.812,0.644,1.624,0.988,2.44
	c0.304,0.816,0.648,1.636,0.992,2.456c0.304,0.812,0.648,1.632,0.992,2.452c0.304,0.82,0.652,1.644,1,2.468
	c0.304,0.812,0.644,1.624,0.988,2.44c0.308,0.82,0.656,1.648,1,2.476c0.304,0.808,0.644,1.616,0.988,2.432
	c0.308,0.82,0.652,1.644,1,2.468c0.3,0.812,0.644,1.624,0.988,2.44c0.304,0.816,0.648,1.636,0.992,2.452
	c0.304,0.816,0.648,1.636,0.992,2.456c0.304,0.816,0.648,1.636,0.992,2.456c0.308,0.82,0.652,1.644,1,2.468
	c0.3,0.808,0.644,1.62,0.988,2.436c0.304,0.816,0.648,1.636,0.992,2.456c0.304,0.816,0.648,1.636,0.992,2.456
	c0.308,0.82,0.652,1.644,1,2.464c0.3,0.812,0.644,1.624,0.988,2.44c0.308,0.82,0.656,1.648,1,2.476
	c0.304,0.808,0.644,1.62,0.988,2.436c0.304,0.816,0.652,1.644,1,2.464c0.304,0.812,0.644,1.624,0.988,2.44
	c0.304,0.816,0.648,1.636,0.992,2.456c0.304,0.816,0.648,1.636,0.992,2.452c0.304,0.816,0.648,1.636,0.992,2.456
	c0.304,0.82,0.652,1.644,1,2.468c0.304,0.812,0.644,1.624,0.988,2.44c0.304,0.812,0.648,1.632,0.992,2.452
	c0.304,0.816,0.648,1.636,0.992,2.456c0.304,0.82,0.652,1.644,1,2.468c0.304,0.816,0.652,1.636,0.996,2.456
	c0.304,0.812,0.644,1.62,0.988,2.436c0.304,0.816,0.648,1.636,0.992,2.456c0.308,0.82,0.652,1.644,1,2.468
	c0.3,0.812,0.644,1.62,0.988,2.436c0.304,0.816,0.648,1.636,0.992,2.456c0.304,0.816,0.648,1.636,0.992,2.456
	c0.304,0.816,0.648,1.636,0.992,2.456c0.308,0.82,0.652,1.64,1,2.464c0.3,0.812,0.644,1.624,0.988,2.44
	c0.304,0.816,0.648,1.636,0.992,2.456c0.304,0.816,0.648,1.636,0.992,2.456c0.308,0.816,0.652,1.64,1,2.464
	c0.304,0.816,0.652,1.636,0.996,2.456c0.304,0.812,0.644,1.624,0.988,2.44c0.304,0.816,0.648,1.636,0.992,2.452
	c0.304,0.82,0.652,1.644,1,2.468c0.304,0.812,0.644,1.624,0.988,2.44c0.304,0.816,0.648,1.636,0.992,2.452
	c0.304,0.816,0.648,1.636,0.992,2.456c0.304,0.816,0.648,1.636,0.992,2.456c0.304,0.82,0.652,1.644,1,2.468
	c0.304,0.812,0.644,1.624,0.988,2.436c0.304,0.816,0.648,1.636,0.992,2.456c0.304,0.816,0.648,1.636,0.992,2.456
	c0.108,0.284,0.236,0.576,0.348,0.86c20.704,5.404,42.416,8.296,64.808,8.296C364.532,512,457.228,444.42,494.472,349.08z"/>
<g>
	<path style="fill:#FFD464;" d="M426,200.136c0-13.444,0-54.36-37.52-54.36c-7.316,0-15.692,1.584-25.612,4.868
		C330.452,161.324,286.58,197.52,266,234.2v106.444c21.756,34.688,45.072,42.516,61.688,42.516
		c26.484,0,47.868-19.392,57.296-38.632c7.052-14.4,8.132-28.344,3.204-41.444c-3.124-8.292-8.664-15.992-16.42-22.924
		C399.392,275.192,426,255.916,426,200.136z"/>
	<path style="fill:#FFD464;" d="M86,200.136c0-13.444,0-54.36,37.52-54.36c7.316,0,15.692,1.584,25.612,4.868
		C181.548,161.324,225.42,197.52,246,234.2v106.444c-21.756,34.688-45.072,42.516-61.688,42.516
		c-26.484,0-47.864-19.392-57.296-38.632c-7.052-14.4-8.132-28.344-3.204-41.444c3.124-8.292,8.664-15.992,16.424-22.924
		C112.608,275.192,86,255.916,86,200.136z"/>
</g>
<g>
	<path style="fill:#F2C95F;" d="M217.664,201.84c0,24.336,8.696,144.992,11.184,160c0,0.228,0.06,0.436,0.068,0.664
		c5.704-5.716,11.444-12.868,17.084-21.86V234.2c-7.056-12.58-16.884-25.072-28.016-36.524
		C217.796,199.04,217.664,200.42,217.664,201.84z"/>
	<path style="fill:#F2C95F;" d="M426,200.136c0-13.444,0-54.36-37.52-54.36c-1.984,0-4.06,0.136-6.208,0.376
		C413.98,150.18,414,187.42,414,200.136c0,55.776-26.608,75.056-54.244,80.016c7.76,6.932,13.304,14.632,16.424,22.924
		c4.924,13.1,3.848,27.052-3.204,41.444c-8.724,17.78-27.644,35.656-51.372,38.268c2.1,0.244,4.14,0.364,6.076,0.364
		c26.484,0,47.864-19.396,57.296-38.632c7.052-14.4,8.128-28.344,3.204-41.444c-3.12-8.292-8.664-15.992-16.424-22.924
		C399.392,275.192,426,255.916,426,200.136z"/>
</g>
<path style="fill:#C23527;" d="M388.188,303.084c-3.124-8.296-8.664-15.992-16.42-22.924c0.444-0.084,0.888-0.2,1.328-0.28
	c-28.376-18.428-65.844-29.736-107.088-29.736v90.508c21.752,34.688,45.076,42.516,61.688,42.516
	c26.484,0,47.864-19.396,57.296-38.632C392.036,330.128,393.116,316.184,388.188,303.084z"/>
<path style="fill:#B33124;" d="M371.756,280.152c0.44-0.084,0.888-0.196,1.328-0.28c-1.14-0.744-2.32-1.452-3.492-2.172
	c-3.236,1.048-6.524,1.86-9.836,2.452c7.76,6.936,13.304,14.632,16.424,22.928c4.924,13.096,3.848,27.048-3.204,41.44
	c-8.724,17.78-27.644,35.656-51.372,38.268c2.1,0.244,4.14,0.364,6.076,0.364c26.484,0,47.864-19.396,57.296-38.632
	c7.052-14.4,8.128-28.344,3.204-41.44C385.064,294.784,379.524,287.088,371.756,280.152z"/>
<path style="fill:#C23527;" d="M123.812,303.084c3.124-8.296,8.664-15.992,16.424-22.924c-0.448-0.084-0.888-0.2-1.328-0.28
	c28.372-18.428,65.84-29.736,107.088-29.736v90.508c-21.752,34.688-45.076,42.516-61.688,42.516
	c-26.484,0-47.864-19.396-57.296-38.632C119.964,330.128,118.884,316.184,123.812,303.084z"/>
<path style="fill:#B33124;" d="M228.848,361.84c0,0.228,0.06,0.436,0.068,0.664c0.008-0.008,0.016-0.012,0.024-0.02
	c1.412-1.416,2.82-2.916,4.24-4.516c0.008-0.012,0.02-0.02,0.028-0.036c1.344-1.512,2.68-3.124,4.016-4.812
	c0.096-0.12,0.196-0.24,0.296-0.364c1.236-1.568,2.456-3.244,3.684-4.956c0.2-0.28,0.404-0.532,0.596-0.808
	c1.408-2.008,2.804-4.12,4.208-6.348v-90.508c-8.84,0-17.492,0.548-25.932,1.548C222.832,295.632,227.2,351.904,228.848,361.84z"/>
<g>
	<circle style="fill:#F5F5F5;" cx="326" cy="320.12" r="20"/>
	<circle style="fill:#F5F5F5;" cx="176" cy="320.12" r="20"/>
</g>
<g>
	<circle style="fill:#C23527;" cx="136" cy="210.12" r="30"/>
	<circle style="fill:#C23527;" cx="376" cy="210.12" r="30"/>
</g>
<path style="fill:#406A80;" d="M256,171.504c-16.752,0-30.336,13.58-30.336,30.336c0,24.336,8.696,144.992,11.184,160
	c0,10.58,8.576,19.148,19.152,19.148s19.152-8.576,19.152-19.148c2.488-15.008,11.184-135.664,11.184-160
	C286.336,185.084,272.752,171.504,256,171.504z"/>
<path style="fill:#395F73;" d="M256,171.504c-1.36,0-2.688,0.12-4,0.292c14.86,1.96,26.336,14.644,26.336,30.044
	c0,24.336-8.696,144.992-11.184,160c0,9.204-6.496,16.876-15.152,18.716c1.292,0.276,2.624,0.432,4,0.432
	c10.58,0,19.152-8.576,19.152-19.148c2.488-15.008,11.184-135.664,11.184-160C286.336,185.084,272.752,171.504,256,171.504z"/>
<g>
	<path style="fill:#242424;" d="M236,191.176c-2.212,0-4-1.788-4-4c0-19.336-14.824-42.092-33.048-50.728
		c-2-0.944-2.852-3.328-1.908-5.32c0.944-2,3.328-2.852,5.328-1.912c21.092,9.992,37.62,35.444,37.62,57.952
		C240,189.388,238.212,191.176,236,191.176z"/>
	<path style="fill:#242424;" d="M276,191.176c2.212,0,4-1.788,4-4c0-19.336,14.824-42.092,33.048-50.728
		c2-0.944,2.852-3.328,1.908-5.32c-0.944-2-3.328-2.852-5.328-1.912c-21.092,9.992-37.62,35.444-37.62,57.952
		C272,189.388,273.788,191.176,276,191.176z"/>
</g>
<g>
	<path style="fill:#70CCBD;" d="M256,336.06c-8.4,0-15.82-1.024-21.996-2.68c0.12,1.452,0.248,2.844,0.36,4.22
		c6.396,1.576,13.748,2.46,21.636,2.46s15.252-0.892,21.636-2.46c0.112-1.376,0.24-2.76,0.36-4.22
		C271.82,335.036,264.4,336.06,256,336.06z"/>
	<path style="fill:#70CCBD;" d="M276.648,348.536c0.124-1.336,0.256-2.744,0.392-4.22c-5.892,1.584-12.992,2.58-21.04,2.58
		s-15.148-0.992-21.04-2.58c0.132,1.476,0.256,2.884,0.392,4.22c6.092,1.508,13.116,2.36,20.648,2.36
		S270.556,350.044,276.648,348.536z"/>
	<path style="fill:#70CCBD;" d="M256,260.184c-9.968,0-19.392-1.172-27.592-3.156c0.088,1.408,0.188,2.82,0.276,4.244
		c8.148,1.864,17.404,2.916,27.316,2.916s19.168-1.056,27.316-2.916c0.088-1.416,0.188-2.836,0.276-4.244
		C275.392,259.012,265.968,260.184,256,260.184z"/>
	<path style="fill:#70CCBD;" d="M256,325.216c-8.72,0-16.436-1.056-22.892-2.752c0.116,1.432,0.228,2.828,0.336,4.212
		c6.672,1.632,14.336,2.548,22.556,2.548s15.884-0.916,22.556-2.548c0.108-1.384,0.22-2.772,0.336-4.212
		C272.436,324.16,264.72,325.216,256,325.216z"/>
	<path style="fill:#70CCBD;" d="M256,249.348c-10.2,0-19.852-1.18-28.272-3.188c0.084,1.392,0.172,2.812,0.26,4.236
		c8.368,1.884,17.856,2.952,28.012,2.952c10.16,0,19.644-1.072,28.012-2.952c0.088-1.416,0.18-2.844,0.26-4.236
		C275.852,248.168,266.2,249.348,256,249.348z"/>
	<path style="fill:#70CCBD;" d="M229.116,267.912c0.1,1.416,0.196,2.828,0.288,4.252c7.916,1.828,16.928,2.86,26.588,2.86
		c9.66,0,18.676-1.032,26.588-2.86c0.092-1.42,0.188-2.836,0.284-4.252c-7.964,1.96-17.152,3.108-26.88,3.108
		S237.084,269.872,229.116,267.912z"/>
	<path style="fill:#70CCBD;" d="M256,303.536c-8.928,0-17.344-1.092-24.572-2.936c0.1,1.42,0.212,2.844,0.312,4.252
		c7.196,1.712,15.42,2.688,24.252,2.688c8.832,0,17.068-0.976,24.252-2.688c0.1-1.412,0.212-2.828,0.312-4.252
		C273.344,302.44,264.928,303.536,256,303.536z"/>
	<path style="fill:#70CCBD;" d="M256,314.38c-8.64,0-16.78-1.072-23.752-2.868c0.108,1.428,0.224,2.836,0.328,4.244
		c6.928,1.672,14.892,2.624,23.416,2.624c8.524,0,16.488-0.952,23.416-2.624c0.104-1.408,0.22-2.812,0.328-4.244
		C272.78,313.308,264.64,314.38,256,314.38z"/>
	<path style="fill:#70CCBD;" d="M275.48,359.52c0.148-1.18,0.312-2.584,0.492-4.236c-5.588,1.508-12.332,2.44-19.972,2.44
		s-14.384-0.932-19.972-2.44c0.18,1.652,0.344,3.056,0.492,4.236c5.76,1.416,12.38,2.212,19.48,2.212
		C263.1,361.732,269.72,360.932,275.48,359.52z"/>
	<path style="fill:#70CCBD;" d="M256,238.504c-10.408,0-20.272-1.172-28.92-3.196c0.084,1.376,0.164,2.788,0.252,4.212
		c8.584,1.908,18.288,2.984,28.676,2.984s20.088-1.084,28.676-2.984c0.084-1.42,0.164-2.836,0.252-4.212
		C276.272,237.332,266.408,238.504,256,238.504z"/>
	<path style="fill:#70CCBD;" d="M256,292.7c-9.204,0-17.892-1.108-25.364-3c0.096,1.42,0.204,2.836,0.3,4.244
		C238.38,295.7,246.88,296.7,256,296.7s17.616-1,25.064-2.756c0.096-1.408,0.204-2.816,0.304-4.244
		C273.892,291.584,265.204,292.7,256,292.7z"/>
	<path style="fill:#70CCBD;" d="M256,281.864c-9.468,0-18.408-1.14-26.136-3.056c0.096,1.416,0.2,2.828,0.3,4.236
		c7.684,1.796,16.444,2.82,25.836,2.82s18.152-1.024,25.836-2.82c0.1-1.416,0.204-2.82,0.3-4.244
		C274.408,280.724,265.468,281.864,256,281.864z"/>
</g>
<g>
</g>
<g>
</g>
<g>
</g>
<g>
</g>
<g>
</g>
<g>
</g>
<g>
</g>
<g>
</g>
<g>
</g>
<g>
</g>
<g>
</g>
<g>
</g>
<g>
</g>
<g>
</g>
<g>
</g>
</svg>
