<?xml version="1.0" encoding="iso-8859-1"?>
<!-- Generator: Adobe Illustrator 19.0.0, SVG Export Plug-In . SVG Version: 6.00 Build 0)  -->
<svg version="1.1" id="Layer_1" xmlns="http://www.w3.org/2000/svg" xmlns:xlink="http://www.w3.org/1999/xlink" x="0px" y="0px"
	 viewBox="0 0 512 512" style="enable-background:new 0 0 512 512;" xml:space="preserve">
<circle style="fill:#4AB8A1;" cx="256" cy="256" r="256"/>
<path style="fill:#43A691;" d="M506.572,308.584c-0.016-0.032-0.024-0.076-0.04-0.096c-0.296-0.912-0.624-1.74-0.984-2.444
	c-0.304-0.916-0.632-1.748-0.992-2.456c-0.304-0.916-0.632-1.748-0.992-2.452c-0.304-0.92-0.632-1.752-1-2.464
	c-0.296-0.912-0.624-1.74-0.984-2.44c-0.304-0.916-0.632-1.752-0.992-2.46c-0.304-0.916-0.632-1.748-0.992-2.452
	c-0.304-0.92-0.628-1.752-1-2.464c-0.292-0.912-0.62-1.74-0.984-2.44c-0.3-0.916-0.628-1.752-0.992-2.46
	c-0.3-0.916-0.632-1.752-1-2.464c-0.296-0.912-0.624-1.74-0.988-2.444c-0.3-0.916-0.628-1.752-0.996-2.464
	c-0.296-0.912-0.624-1.74-0.988-2.44c-0.3-0.916-0.628-1.748-0.992-2.456c-0.3-0.916-0.628-1.752-0.992-2.452
	c-0.3-0.92-0.628-1.752-0.996-2.468c-0.296-0.912-0.624-1.74-0.988-2.44c-0.3-0.916-0.628-1.748-0.992-2.456
	c-0.3-0.916-0.628-1.752-0.992-2.452c-0.3-0.92-0.628-1.752-0.996-2.468c-0.296-0.912-0.624-1.74-0.988-2.44
	c-0.3-0.916-0.628-1.748-0.988-2.456c-0.304-0.92-0.632-1.752-1-2.468c-0.296-0.912-0.624-1.74-0.992-2.44
	c-0.296-0.92-0.624-1.752-0.992-2.464c-0.296-0.916-0.624-1.744-0.992-2.444c-0.296-0.916-0.624-1.748-0.992-2.452
	c-0.296-0.916-0.624-1.752-0.992-2.456c-0.296-0.916-0.624-1.752-0.992-2.464c-0.296-0.916-0.624-1.744-0.992-2.444
	c-0.296-0.916-0.624-1.748-0.992-2.452c-0.296-0.916-0.624-1.752-0.992-2.456c-0.296-0.916-0.624-1.752-0.992-2.464
	c-0.296-0.916-0.624-1.744-0.988-2.444c-0.3-0.916-0.628-1.748-0.992-2.452c-0.3-0.916-0.628-1.752-0.992-2.456
	c-0.3-0.916-0.632-1.752-1-2.464c-0.296-0.916-0.624-1.748-0.992-2.452c-0.296-0.916-0.624-1.744-0.988-2.444
	c-0.3-0.916-0.628-1.752-0.992-2.456c-0.296-0.916-0.624-1.748-0.992-2.456c-0.296-0.916-0.624-1.752-0.996-2.46
	c-0.292-0.916-0.62-1.744-0.992-2.448c-0.3-0.916-0.62-1.748-0.992-2.456c-0.3-0.916-0.628-1.748-0.996-2.46
	c-0.296-0.916-0.624-1.744-0.992-2.452c-0.296-0.916-0.624-1.748-0.992-2.46c-0.304-0.916-0.624-1.744-0.992-2.452
	c-0.304-0.916-0.632-1.748-1-2.46c-0.296-0.916-0.624-1.744-0.992-2.452c-0.296-0.92-0.624-1.752-1-2.464
	c-0.296-0.916-0.624-1.74-0.992-2.452c-0.296-0.916-0.624-1.744-0.992-2.452c-0.296-0.916-0.624-1.748-0.992-2.46
	c-0.3-0.916-0.624-1.744-0.992-2.452c-0.296-0.916-0.624-1.748-0.992-2.46c-0.3-0.916-0.624-1.744-0.992-2.452
	c-0.3-0.916-0.628-1.748-1-2.46c-0.296-0.916-0.62-1.744-0.988-2.452c-0.296-0.916-0.624-1.748-0.992-2.46
	c-0.3-0.916-0.624-1.744-0.992-2.452c-0.3-0.916-0.628-1.748-0.996-2.46c-0.3-0.916-0.624-1.744-0.992-2.452
	c-0.3-0.92-0.632-1.752-1-2.464c-0.296-0.916-0.624-1.74-0.992-2.452c-0.3-0.916-0.624-1.744-0.992-2.452
	c-0.3-0.916-0.624-1.748-0.996-2.46c-0.3-0.916-0.62-1.744-0.992-2.452c-0.3-0.916-0.628-1.748-0.996-2.46
	c-0.296-0.916-0.624-1.748-0.992-2.452c-0.296-0.916-0.624-1.748-0.996-2.46c-0.3-0.916-0.62-1.744-0.988-2.452
	c-0.304-0.916-0.632-1.748-1-2.46c-0.296-0.916-0.624-1.744-0.992-2.452c-0.296-0.916-0.624-1.748-0.992-2.46
	c-0.304-0.916-0.624-1.744-0.992-2.452c-0.304-0.916-0.632-1.744-0.992-2.456c-0.304-0.92-0.632-1.752-1-2.468
	c-0.296-0.912-0.624-1.736-0.992-2.444c-0.296-0.916-0.624-1.748-0.992-2.46c-0.3-0.916-0.624-1.744-0.992-2.452
	c-0.3-0.916-0.628-1.748-1-2.46c-0.296-0.916-0.62-1.744-0.992-2.452c-0.808-2.484-1.852-4.292-3.172-5.128c-9.5-6-22,7-35,18
	c-9.592,8.12-21.992,15.152-29.172,22.5c-19.412-4.732-47.292-32.964-99.832-32c-54.032-0.992-82.004,28.944-101.484,32.38
	c-7.328-6.772-18.628-13.36-27.516-20.88c-13-11-25.5-24-35-18c-9.228,5.828-5.248,57.416,2.324,74.108
	c0.324,0.884,0.656,1.712,0.996,2.464c0.324,0.876,0.652,1.704,0.992,2.448c0.324,0.884,0.656,1.712,0.996,2.464
	c0.324,0.876,0.652,1.704,0.992,2.448c0.328,0.888,0.66,1.724,1,2.48c0.32,0.872,0.648,1.692,0.984,2.432
	c0.324,0.88,0.656,1.708,0.992,2.456c0.328,0.884,0.656,1.712,0.996,2.464c0.324,0.876,0.652,1.704,0.988,2.448
	c0.324,0.88,0.656,1.712,0.996,2.46c0.324,0.884,0.656,1.716,0.996,2.464c0.324,0.88,0.652,1.704,0.988,2.44
	c0.324,0.88,0.652,1.716,0.992,2.456c0.324,0.884,0.656,1.712,0.996,2.452c0.324,0.892,0.656,1.72,0.996,2.468
	c0.324,0.876,0.652,1.704,0.988,2.44c0.324,0.888,0.652,1.716,0.992,2.456c0.324,0.88,0.656,1.712,0.992,2.452
	c0.328,0.896,0.664,1.732,1.004,2.484c0.32,0.868,0.648,1.688,0.984,2.424c0.324,0.88,0.652,1.712,0.992,2.456
	c0.324,0.88,0.652,1.712,0.992,2.452c0.324,0.884,0.652,1.716,0.992,2.456c0.324,0.888,0.656,1.724,0.996,2.468
	c0.324,0.876,0.652,1.7,0.988,2.44c0.324,0.88,0.652,1.712,0.992,2.452c0.324,0.884,0.652,1.712,0.992,2.456
	c0.324,0.888,0.656,1.724,0.996,2.468c0.324,0.876,0.652,1.7,0.988,2.44c0.324,0.88,0.652,1.712,0.992,2.452
	c0.324,0.884,0.652,1.712,0.992,2.456c0.328,0.896,0.66,1.732,1.004,2.484c0.32,0.868,0.648,1.688,0.98,2.424
	c0.324,0.88,0.656,1.712,0.992,2.452c0.324,0.884,0.656,1.712,0.992,2.456c0.324,0.88,0.656,1.712,0.992,2.456
	c0.328,0.888,0.66,1.72,1,2.468c0.324,0.876,0.652,1.696,0.988,2.436c0.324,0.884,0.656,1.712,0.992,2.456
	c0.324,0.88,0.656,1.712,0.992,2.456c0.328,0.888,0.66,1.72,1,2.468c0.324,0.876,0.652,1.696,0.988,2.436
	c0.324,0.884,0.656,1.712,0.992,2.456c0.324,0.88,0.656,1.712,0.992,2.456c0.328,0.888,0.66,1.72,1,2.468
	c0.324,0.876,0.656,1.712,0.996,2.452c0.324,0.876,0.652,1.7,0.988,2.436c0.324,0.884,0.652,1.716,0.992,2.46
	c0.324,0.876,0.652,1.712,0.992,2.452c0.324,0.892,0.656,1.72,0.996,2.468c0.324,0.876,0.652,1.7,0.988,2.436
	c0.296,0.804,0.592,1.58,0.904,2.264c1.98,14.456,5.136,29.1,10.04,40.972c0.32,0.836,0.656,1.644,0.992,2.456
	c0.324,0.844,0.664,1.656,1.004,2.476c0.316,0.828,0.648,1.624,0.98,2.428c0.32,0.836,0.656,1.644,0.992,2.456
	c0.324,0.848,0.668,1.668,1.008,2.492c0.316,0.824,0.648,1.62,0.98,2.416c0.324,0.844,0.664,1.664,1.004,2.484
	c0.316,0.828,0.648,1.62,0.98,2.424c0.32,0.836,0.656,1.644,0.992,2.456c0.32,0.836,0.656,1.64,0.992,2.452
	c0.324,0.844,0.664,1.664,1.004,2.48c0.316,0.828,0.648,1.624,0.98,2.428c0.32,0.836,0.656,1.644,0.992,2.456
	c0.32,0.836,0.656,1.64,0.992,2.452c0.324,0.844,0.664,1.66,1.004,2.48c0.316,0.828,0.648,1.624,0.98,2.424
	c0.32,0.84,0.656,1.648,0.992,2.46c0.32,0.836,0.656,1.64,0.992,2.452c0.328,0.86,0.672,1.688,1.02,2.524
	c0.312,0.808,0.64,1.592,0.968,2.392c0.32,0.836,0.656,1.64,0.992,2.452c0.32,0.836,0.656,1.644,0.992,2.456
	c0.32,0.836,0.656,1.644,0.992,2.456c0.324,0.844,0.664,1.66,1.004,2.48c0.316,0.824,0.648,1.62,0.98,2.424
	c0.32,0.836,0.656,1.644,0.992,2.456c0.32,0.836,0.656,1.644,0.992,2.456c0.324,0.844,0.664,1.66,1.004,2.476
	c0.316,0.828,0.648,1.624,0.98,2.428c0.32,0.836,0.656,1.644,0.992,2.456c0.32,0.836,0.656,1.644,0.992,2.456
	c0.328,0.86,0.672,1.688,1.016,2.52c0.312,0.808,0.644,1.596,0.968,2.392c0.32,0.836,0.656,1.644,0.992,2.456
	c0.32,0.836,0.656,1.644,0.992,2.452c0.32,0.836,0.656,1.648,0.992,2.46c0.324,0.844,0.664,1.656,1.004,2.476
	c0.316,0.828,0.648,1.624,0.98,2.428c0.32,0.836,0.656,1.64,0.992,2.452c0.32,0.836,0.656,1.648,0.992,2.46
	c0.324,0.844,0.664,1.656,1.004,2.476c0.316,0.828,0.648,1.624,0.98,2.428c0.32,0.836,0.656,1.64,0.992,2.452
	c0.32,0.836,0.656,1.648,0.992,2.456c0.324,0.848,0.664,1.66,1.004,2.48c0.32,0.84,0.66,1.652,0.996,2.464
	c0.316,0.824,0.648,1.62,0.98,2.416c0.32,0.836,0.656,1.644,0.992,2.456c0.32,0.836,0.656,1.644,0.992,2.456
	c0.324,0.844,0.664,1.66,1.004,2.48c0.316,0.824,0.648,1.62,0.98,2.424c0.32,0.836,0.656,1.644,0.992,2.456
	c0.32,0.836,0.656,1.644,0.992,2.456c0.324,0.844,0.664,1.66,1.004,2.476c0.316,0.828,0.648,1.624,0.98,2.428
	c0.32,0.836,0.656,1.644,0.992,2.456c0.32,0.836,0.656,1.644,0.992,2.456c0.324,0.844,0.664,1.656,1.004,2.476
	c0.316,0.828,0.648,1.624,0.98,2.428c0.324,0.848,0.668,1.668,1.008,2.492c0.316,0.824,0.648,1.62,0.98,2.42
	c0.32,0.836,0.656,1.64,0.992,2.452c0.324,0.844,0.664,1.664,1.004,2.48c0.316,0.828,0.648,1.624,0.98,2.428
	c0.32,0.836,0.656,1.644,0.992,2.456c0.32,0.836,0.656,1.64,0.992,2.452c0.324,0.844,0.664,1.66,1.004,2.48
	c0.316,0.828,0.648,1.624,0.98,2.424c0.16,0.42,0.332,0.828,0.5,1.244c10.536,1.324,21.252,2.084,32.144,2.084
	C379.356,512,482.312,424.744,506.572,308.584z"/>
<ellipse style="fill:#F2C179;" cx="256" cy="364.56" rx="46.332" ry="49.908"/>
<path style="fill:#E6B773;" d="M256,314.648c-25.588,0-46.332,22.348-46.332,49.908c0,9.944,2.732,19.188,7.388,26.968
	c14.3,3.668,27.36,3.032,38.948-5.468c11.588,8.5,24.648,9.136,38.948,5.468c4.656-7.78,7.388-17.024,7.388-26.968
	C302.332,336.996,281.584,314.648,256,314.648z"/>
<path style="fill:#F2C179;" d="M161.5,147.556c-3.332-10.496-21.5-19.5-34.5-30.5s-25.5-24-35-18s-5,60.5,3,75.5s33.5,30.5,53.5,20
	S161.5,147.556,161.5,147.556z"/>
<path style="fill:#E6B773;" d="M134.2,181.996c-9.788,0-21.316-7.904-25.084-14.972c-4.168-7.816-7.184-34.628-6.392-49.572
	c3.004,2.34,6.32,5.228,8.752,7.348c1.716,1.492,3.444,3,5.184,4.468c4.696,3.976,9.696,7.508,14.532,10.924
	c5.16,3.648,12.808,9.052,14.86,12c1.548,10.384,0.496,25.312-4.996,28.196C139,181.472,136.756,181.996,134.2,181.996
	L134.2,181.996z"/>
<path style="fill:#F2C179;" d="M350.5,145.556c3.332-10.496,21.5-19.5,34.5-30.5s25.5-24,35-18s5,60.5-3,75.5s-33.5,30.5-53.5,20
	S350.5,145.556,350.5,145.556z"/>
<path style="fill:#E6B773;" d="M377.8,179.996c-2.56,0-4.8-0.524-6.864-1.608c-5.508-2.892-6.548-17.916-4.968-28.348
	c1.832-2.652,9.608-8.152,14.836-11.844c4.832-3.416,9.832-6.952,14.532-10.924c1.744-1.472,3.468-2.976,5.184-4.468
	c2.432-2.12,5.752-5.004,8.752-7.348c0.788,14.944-2.228,41.752-6.392,49.572C399.108,172.092,387.584,179.996,377.8,179.996z"/>
<path style="fill:#F2CB91;" d="M358,138.056c-19.5-3-47.5-33.5-102-32.5c-54.5-1-82.5,29.5-102,32.5s-45.5,25-42,51.5s32,40.5,31,52
	s-1.5,106,30.5,123s60,30,82.5,13.5c22.5,16.5,50.5,3.5,82.5-13.5s31.5-111.5,30.5-123s27.5-25.5,31-52S377.5,141.056,358,138.056z"
	/>
<path style="fill:#F5F5F5;" d="M121,215.556c0-9.036,4.812-16.92,11.996-21.32c18.26,4.924,28.78,14.928,37.236,15.26l0,0
	c-9.664-0.38-2.152,23.248-17.692,30.164c-2.088,0.568-4.272,0.896-6.536,0.896C132.192,240.556,121,229.364,121,215.556z"/>
<circle style="fill:#242424;" cx="146" cy="215.556" r="8"/>
<path style="fill:#CC803D;" d="M121,211.12c14.832-29.124,37.5-1.952,49.232-1.624c10.104,4.504,37.1,6.276,43.768,0.56
	c6.668-4.388,12-2.072,11-4.896c-43.832,8.496-81.08-19.192-92-17.828c-12,1.5-15.832,16.332-21.32,23.332
	C108.588,214.608,121,211.12,121,211.12z"/>
<g>
	<path style="fill:#E6C18A;" d="M250.124,374.264c-5.564,4.084-17.592,10.132-23.808,10.992c8.744,1.18,19.996,0.124,29.808-7.416
		C254.088,376.836,252.08,375.704,250.124,374.264z"/>
	<path style="fill:#E6C18A;" d="M358,138.056c-19.5-3-47.5-33.5-102-32.5c-2.064-0.036-4.012,0.052-6,0.1
		c50.532,1.252,77.244,29.512,96,32.4c19.5,3,45.5,25,42,51.5s-32,40.5-31,52s1.5,106-30.5,123
		c-19.152,10.172-36.856,18.86-52.82,20.704c18.916,2.608,40.736-7.908,64.82-20.704c32-17,31.5-111.5,30.5-123s27.5-25.5,31-52
		S377.5,141.056,358,138.056z"/>
</g>
<path style="fill:#F5F5F5;" d="M391,215.556c0-9.036-4.812-16.92-11.996-21.32c-18.26,4.924-28.776,14.928-37.24,15.26l0,0
	c9.664-0.38,2.156,23.248,17.696,30.164c2.084,0.568,4.272,0.896,6.536,0.896C379.808,240.556,391,229.364,391,215.556z"/>
<circle style="fill:#242424;" cx="366" cy="215.556" r="8"/>
<path style="fill:#CC803D;" d="M391,211.12c-14.832-29.124-37.5-1.952-49.236-1.624c-10.1,4.504-37.096,6.276-43.764,0.56
	c-6.668-4.388-12-2.072-11-4.896c43.832,8.496,81.08-19.192,92-17.828c12,1.5,15.832,16.332,21.32,23.332
	C403.416,214.608,391,211.12,391,211.12z"/>
<path style="fill:#F2C179;" d="M298,210.056c0-58-33-89-42-89s-42,31-42,89c-10.5,10.5-20.5,19-16.5,30.5s7.5,17.5,5.5,30
	s-20.5,119,53,105.5c73.5,13.5,55-93,53-105.5s1.5-18.5,5.5-30S308.5,220.556,298,210.056z"/>
<path style="fill:#E6B773;" d="M298,210.056c0-58-33-89-42-89c-1.444,0-3.552,0.888-6,2.468c12.792,8.272,36,37.844,36,86.532
	c10.5,10.5,20.5,19,16.5,30.5s-7.5,17.5-5.5,30c1.816,11.352,17.228,100.22-35.012,106.336
	c66.456,6.696,48.956-94.188,47.012-106.336c-2-12.5,1.5-18.5,5.5-30S308.5,220.556,298,210.056z"/>
<path style="fill:#242424;" d="M307.9,233.208c-1.296-4.224-5.756-6.584-10-5.3L256,240.772l-41.9-12.868
	c-4.232-1.288-8.696,1.08-10,5.296c-1.296,4.228,1.076,8.704,5.3,9.996l38.6,11.86v84.752c0,4.416,3.584,8,8,8c4.416,0,8-3.584,8-8
	v-84.752l38.6-11.852C306.824,241.908,309.196,237.428,307.9,233.208z"/>
<g>
</g>
<g>
</g>
<g>
</g>
<g>
</g>
<g>
</g>
<g>
</g>
<g>
</g>
<g>
</g>
<g>
</g>
<g>
</g>
<g>
</g>
<g>
</g>
<g>
</g>
<g>
</g>
<g>
</g>
</svg>
