<?xml version="1.0" encoding="iso-8859-1"?>
<!-- Generator: Adobe Illustrator 19.0.0, SVG Export Plug-In . SVG Version: 6.00 Build 0)  -->
<svg version="1.1" id="Layer_1" xmlns="http://www.w3.org/2000/svg" xmlns:xlink="http://www.w3.org/1999/xlink" x="0px" y="0px"
	 viewBox="0 0 512 512" style="enable-background:new 0 0 512 512;" xml:space="preserve">
<circle style="fill:#4AB8A1;" cx="256" cy="256" r="256"/>
<path style="fill:#43A691;" d="M502.4,325.404c-0.02-0.044-0.032-0.088-0.052-0.132c-0.072-0.16-0.164-0.296-0.24-0.452
	c-0.24-0.68-0.468-1.36-0.752-2.004c-0.076-0.168-0.176-0.312-0.252-0.48c-0.236-0.672-0.464-1.34-0.752-1.976
	c-0.072-0.16-0.164-0.296-0.24-0.448c-0.236-0.684-0.468-1.364-0.752-2.008c-0.072-0.164-0.168-0.3-0.244-0.46
	c-0.24-0.672-0.468-1.348-0.752-1.988c-0.072-0.16-0.164-0.296-0.24-0.452c-0.236-0.68-0.468-1.36-0.752-2.004
	c-0.072-0.16-0.164-0.296-0.24-0.452c-0.232-0.68-0.468-1.36-0.752-2.004c-0.072-0.16-0.164-0.292-0.24-0.448
	c-0.232-0.68-0.468-1.36-0.752-2.004c-0.072-0.164-0.168-0.304-0.244-0.464c-0.236-0.676-0.468-1.348-0.752-1.988
	c-0.076-0.16-0.164-0.296-0.244-0.452c-0.232-0.68-0.468-1.36-0.752-2.004c-0.076-0.16-0.164-0.296-0.244-0.448
	c-0.232-0.684-0.468-1.364-0.752-2.004c-0.076-0.16-0.164-0.296-0.244-0.452c-0.232-0.68-0.468-1.36-0.752-2.004
	c-0.076-0.164-0.168-0.304-0.248-0.464c-0.236-0.672-0.468-1.348-0.752-1.988c-0.076-0.16-0.164-0.296-0.244-0.452
	c-0.232-0.68-0.464-1.36-0.752-2.004c-0.076-0.156-0.164-0.292-0.244-0.448c-0.232-0.68-0.464-1.36-0.752-2.004
	c-0.076-0.16-0.164-0.296-0.244-0.452c-0.232-0.68-0.464-1.36-0.752-2.004c-0.076-0.16-0.164-0.296-0.24-0.452
	c-0.236-0.68-0.468-1.36-0.752-2.004c-0.072-0.164-0.168-0.3-0.244-0.46c-0.24-0.672-0.468-1.352-0.752-1.988
	c-0.072-0.16-0.164-0.296-0.24-0.452c-0.236-0.68-0.468-1.36-0.752-2.004c-0.072-0.16-0.164-0.296-0.24-0.452
	c-0.236-0.68-0.468-1.36-0.752-2.004c-0.072-0.16-0.164-0.292-0.24-0.448c-0.236-0.68-0.468-1.364-0.752-2.004
	c-0.072-0.164-0.168-0.304-0.244-0.464c-0.24-0.676-0.468-1.348-0.752-1.988c-0.072-0.16-0.164-0.296-0.24-0.452
	c-0.236-0.68-0.468-1.36-0.752-2.004c-0.072-0.16-0.164-0.296-0.24-0.452c-0.232-0.68-0.468-1.36-0.752-2.004
	c-0.072-0.16-0.164-0.292-0.24-0.448c-0.232-0.68-0.468-1.36-0.752-2.004c-0.076-0.164-0.172-0.304-0.248-0.464
	c-0.236-0.672-0.468-1.348-0.752-1.988c-0.076-0.16-0.164-0.296-0.244-0.452c-0.232-0.68-0.468-1.36-0.752-2.004
	c-0.08-0.168-0.172-0.312-0.252-0.48c-0.236-0.672-0.464-1.34-0.748-1.972c-0.076-0.16-0.164-0.296-0.244-0.452
	c-0.236-0.68-0.468-1.36-0.752-2.004c-0.076-0.16-0.164-0.296-0.244-0.452c-0.236-0.68-0.468-1.36-0.752-2.004
	c-0.08-0.164-0.168-0.304-0.248-0.464c-0.232-0.672-0.468-1.348-0.752-1.988c-0.076-0.156-0.164-0.292-0.244-0.448
	c-0.236-0.68-0.464-1.36-0.752-2.004c-0.076-0.16-0.164-0.296-0.244-0.452c-0.236-0.68-0.464-1.36-0.752-2.004
	c-0.072-0.16-0.164-0.296-0.244-0.452c-0.236-0.68-0.464-1.36-0.752-2.004c-0.076-0.164-0.168-0.3-0.244-0.46
	c-0.236-0.68-0.468-1.352-0.752-1.988c-0.072-0.16-0.164-0.296-0.24-0.452c-0.24-0.68-0.468-1.36-0.752-2.004
	c-0.072-0.16-0.164-0.296-0.24-0.452c-0.24-0.68-0.468-1.36-0.752-2.004c-0.072-0.16-0.164-0.292-0.24-0.448
	c-0.24-0.68-0.468-1.364-0.752-2.004c-0.076-0.164-0.168-0.304-0.244-0.464c-0.236-0.672-0.468-1.348-0.752-1.988
	c-0.072-0.16-0.164-0.296-0.24-0.452c-0.24-0.68-0.468-1.36-0.752-2.004c-0.072-0.16-0.164-0.296-0.24-0.452
	c-0.24-0.68-0.468-1.36-0.752-2.004c-0.072-0.16-0.164-0.292-0.24-0.448c-0.236-0.68-0.468-1.36-0.752-2.004
	c-0.072-0.16-0.164-0.296-0.24-0.452c-0.236-0.68-0.468-1.36-0.752-2.004c-0.08-0.164-0.168-0.304-0.248-0.464
	c-0.232-0.672-0.468-1.348-0.752-1.988c-0.076-0.16-0.164-0.292-0.244-0.448c-0.236-0.68-0.468-1.364-0.752-2.004
	c-0.076-0.16-0.164-0.296-0.244-0.452c-0.236-0.68-0.468-1.36-0.752-2.004c-0.076-0.16-0.164-0.296-0.244-0.452
	c-0.236-0.68-0.468-1.36-0.752-2.004c-0.08-0.164-0.168-0.304-0.248-0.464c-0.232-0.676-0.464-1.348-0.752-1.988
	c-0.076-0.156-0.164-0.292-0.244-0.448c-0.236-0.68-0.464-1.36-0.752-2.004c-0.076-0.16-0.164-0.296-0.24-0.452
	c-0.24-0.68-0.468-1.36-0.752-2.004c-0.072-0.16-0.164-0.296-0.24-0.452c-0.24-0.68-0.468-1.36-0.752-2.004
	c-0.076-0.164-0.168-0.3-0.244-0.46c-0.236-0.672-0.468-1.348-0.752-1.988c-0.076-0.168-0.176-0.312-0.252-0.48
	c-0.236-0.672-0.464-1.34-0.752-1.976c-0.072-0.16-0.164-0.296-0.24-0.452c-0.236-0.68-0.468-1.36-0.752-2.004
	c-0.072-0.16-0.164-0.292-0.24-0.448c-0.236-0.68-0.468-1.364-0.752-2.004c-0.072-0.16-0.164-0.296-0.24-0.452
	c-0.236-0.68-0.468-1.36-0.752-2.004c-0.072-0.164-0.168-0.304-0.244-0.464c-0.24-0.672-0.468-1.348-0.752-1.988
	c-0.072-0.16-0.164-0.296-0.24-0.452c-0.232-0.68-0.468-1.36-0.752-2.004c-0.072-0.16-0.164-0.292-0.24-0.448
	c-0.232-0.68-0.468-1.36-0.752-2.004c-0.076-0.16-0.164-0.296-0.244-0.452c-0.232-0.68-0.468-1.36-0.752-2.004
	c-0.076-0.164-0.168-0.304-0.248-0.464c-0.236-0.676-0.468-1.348-0.752-1.988c-0.076-0.16-0.164-0.292-0.244-0.448
	c-0.232-0.68-0.468-1.364-0.752-2.004c-0.076-0.16-0.164-0.296-0.244-0.452c-0.232-0.68-0.468-1.36-0.752-2.004
	c-0.076-0.16-0.164-0.296-0.244-0.452c-0.232-0.68-0.464-1.36-0.752-2.004c-0.076-0.164-0.168-0.304-0.248-0.464
	c-0.236-0.672-0.464-1.348-0.752-1.988c-0.076-0.156-0.164-0.292-0.244-0.448c-0.232-0.68-0.464-1.36-0.752-2.004
	c-0.072-0.16-0.164-0.296-0.244-0.452c-0.232-0.68-0.464-1.36-0.752-2.004c-0.072-0.16-0.164-0.296-0.24-0.452
	c-0.236-0.68-0.468-1.36-0.752-2.004c-0.072-0.156-0.164-0.292-0.24-0.448c-0.236-0.68-0.468-1.36-0.752-2.004
	c-0.072-0.164-0.168-0.304-0.244-0.464c-0.24-0.672-0.468-1.348-0.752-1.988c-0.072-0.16-0.164-0.296-0.24-0.452
	c-0.236-0.68-0.468-1.36-0.752-2.004c-0.072-0.16-0.164-0.292-0.24-0.448c-0.236-0.68-0.468-1.364-0.752-2.004
	c-0.072-0.16-0.164-0.296-0.24-0.452c-0.236-0.68-0.468-1.36-0.752-2.004c-0.072-0.164-0.168-0.304-0.244-0.464
	c-0.24-0.676-0.468-1.348-0.752-1.988c-0.072-0.16-0.164-0.296-0.24-0.452c-0.232-0.68-0.468-1.36-0.752-2
	c-0.072-0.16-0.164-0.296-0.24-0.452c-0.232-0.68-0.468-1.36-0.752-2.004c-0.076-0.16-0.164-0.296-0.244-0.452
	c-0.232-0.68-0.468-1.36-0.752-2.004c-0.084-0.172-0.18-0.32-0.256-0.492c-0.228-0.664-0.46-1.328-0.74-1.96
	c-0.076-0.156-0.164-0.292-0.244-0.448c-0.236-0.68-0.468-1.36-0.752-2.004c-0.076-0.16-0.164-0.296-0.244-0.452
	c-0.236-0.68-0.468-1.36-0.752-2.004c-0.076-0.16-0.164-0.296-0.244-0.452c-0.236-0.68-0.468-1.36-0.752-2.004
	c-0.08-0.164-0.168-0.3-0.248-0.46c-0.232-0.68-0.464-1.352-0.752-1.988c-0.076-0.16-0.164-0.296-0.244-0.452
	c-0.236-0.68-0.464-1.36-0.752-2.004c-0.076-0.16-0.164-0.296-0.24-0.452c-0.24-0.68-0.468-1.36-0.752-2.004
	c-0.072-0.16-0.164-0.292-0.24-0.448c-0.24-0.68-0.468-1.364-0.752-2.004c-0.072-0.16-0.164-0.296-0.24-0.452
	c-0.24-0.68-0.468-1.36-0.752-2.004c-0.076-0.164-0.168-0.304-0.244-0.464c-0.236-0.676-0.468-1.348-0.752-1.988
	c-0.072-0.16-0.164-0.296-0.24-0.452c-0.24-0.68-0.468-1.36-0.752-2.004c-0.072-0.16-0.164-0.292-0.24-0.448
	c-0.24-0.68-0.468-1.36-0.752-2.004c-3.668-8.332-11.084-13.124-20.356-13.124c-21.156,0-42.32,7.436-55.596,19.044
	c-2.208-1.032-4.524-2.06-6.9-3.076c-0.8-0.348-1.624-0.684-2.444-1.024c-1.664-0.7-3.38-1.38-5.124-2.056
	c-0.98-0.38-1.944-0.752-2.952-1.12c-2.532-0.928-5.124-1.844-7.824-2.716c-0.012-0.004-0.024-0.008-0.036-0.012
	c-1.18-0.38-2.444-0.716-3.656-1.08c-1.184-0.336-2.336-0.688-3.532-1.02c-0.02-0.004-0.04-0.012-0.056-0.016
	c-2.156-0.596-4.376-1.16-6.632-1.704c-0.632-0.136-1.252-0.28-1.888-0.424c-0.02-0.004-0.04-0.008-0.064-0.012
	c-2.344-0.536-4.704-1.056-7.156-1.512c-0.008,0-0.016-0.004-0.028-0.004c-0.908-0.168-1.852-0.3-2.768-0.456
	c-0.012,0-0.02-0.004-0.032-0.004c-3.852-0.66-7.84-1.204-11.964-1.636c-0.092-0.012-0.196-0.02-0.288-0.032
	c-0.012,0-0.016,0-0.024,0c-2.484-0.26-4.94-0.54-7.536-0.708h-0.008c-3.952-0.252-8-0.424-12.2-0.44
	c-35.968,0.144-62.908,9.644-83.02,19.044c-3.648-3.188-7.928-6.02-12.6-8.512c-0.392-0.208-0.8-0.396-1.2-0.592
	c-0.016-0.008-0.028-0.012-0.044-0.02c-3.58-1.828-7.328-3.476-11.304-4.836c-0.008,0-0.012-0.004-0.012-0.004
	c-2.296-0.78-4.64-1.492-7.032-2.1h-0.004c-1.048-0.268-2.124-0.444-3.188-0.68c-1.448-0.316-2.892-0.672-4.364-0.924
	c-0.012,0-0.024-0.004-0.036-0.008c-5.196-0.888-10.512-1.36-15.828-1.36c-9.264,0-16.688,4.792-20.356,13.124
	c-3.896,8.868-2.936,21.08,1.752,32.112c0.3,0.824,0.644,1.64,0.992,2.452c0.304,0.832,0.652,1.656,1,2.476
	c0.3,0.816,0.64,1.624,0.98,2.432c0.304,0.828,0.648,1.644,0.992,2.452c0.304,0.828,0.648,1.644,0.992,2.456
	c0.304,0.828,0.648,1.644,0.992,2.456c0.308,0.832,0.652,1.656,1,2.476c0.304,0.816,0.644,1.624,0.984,2.428
	c0.304,0.828,0.648,1.644,0.992,2.456c0.304,0.828,0.648,1.644,0.992,2.456c0.316,0.852,0.668,1.696,1.024,2.536
	c0.296,0.796,0.632,1.584,0.968,2.376c0.304,0.828,0.644,1.644,0.992,2.456c0.304,0.828,0.644,1.644,0.992,2.456
	c0.304,0.832,0.648,1.656,1,2.476c0.3,0.816,0.64,1.62,0.984,2.428c0.304,0.828,0.644,1.644,0.992,2.456
	c0.3,0.828,0.64,1.644,0.992,2.456c0.3,0.832,0.644,1.656,1,2.476c0.296,0.812,0.636,1.62,0.98,2.428
	c0.304,0.828,0.644,1.644,0.992,2.456c0.304,0.828,0.644,1.644,0.992,2.456c0.304,0.828,0.644,1.644,0.992,2.452
	c0.304,0.832,0.648,1.656,1,2.476c0.3,0.816,0.64,1.624,0.984,2.432c0.304,0.828,0.644,1.644,0.992,2.456
	c0.304,0.828,0.644,1.64,0.992,2.452c0.304,0.832,0.648,1.656,1,2.476c0.3,0.816,0.64,1.624,0.984,2.432
	c0.304,0.828,0.644,1.644,0.992,2.456c0.304,0.828,0.644,1.64,0.992,2.452c0.304,0.832,0.648,1.656,1,2.476
	c0.3,0.816,0.64,1.624,0.984,2.432c0.176,0.476,0.38,0.944,0.572,1.416c-1.22,37.516,4.592,73.828,16.752,104.696
	c0.312,0.832,0.668,1.632,0.992,2.456c0.316,0.84,0.676,1.648,1,2.48c0.312,0.824,0.66,1.612,0.98,2.428
	c0.316,0.832,0.668,1.628,0.992,2.452c0.316,0.832,0.668,1.632,0.992,2.456c0.316,0.832,0.668,1.632,0.992,2.456
	c0.32,0.84,0.676,1.648,1.004,2.48c0.312,0.824,0.66,1.608,0.98,2.424c0.316,0.832,0.668,1.632,0.992,2.456
	c0.316,0.832,0.668,1.632,0.992,2.456c0.328,0.86,0.696,1.688,1.032,2.544c0.304,0.8,0.644,1.576,0.96,2.368
	c0.312,0.832,0.664,1.632,0.992,2.456c0.312,0.832,0.664,1.632,0.992,2.456c0.316,0.84,0.672,1.648,1,2.48
	c0.312,0.824,0.66,1.608,0.984,2.424c0.308,0.832,0.664,1.632,0.992,2.456c0.308,0.832,0.664,1.632,0.988,2.456
	c0.316,0.84,0.676,1.648,1,2.48c0.312,0.82,0.66,1.608,0.984,2.424c0.312,0.832,0.664,1.632,0.992,2.456
	c0.312,0.832,0.664,1.632,0.992,2.456c0.312,0.832,0.664,1.628,0.992,2.452c0.316,0.84,0.672,1.648,1,2.48
	c0.312,0.824,0.66,1.612,0.984,2.428c0.312,0.832,0.664,1.632,0.992,2.456c0.312,0.832,0.664,1.628,0.992,2.452
	c0.316,0.84,0.672,1.648,1,2.48c0.312,0.824,0.66,1.612,0.984,2.428c0.312,0.832,0.664,1.632,0.992,2.452
	c0.312,0.836,0.664,1.632,0.992,2.456c0.316,0.84,0.672,1.648,1,2.48c0.312,0.824,0.66,1.612,0.984,2.428
	c0.308,0.832,0.664,1.632,0.992,2.452c0.308,0.832,0.664,1.632,0.988,2.456c0.32,0.856,0.688,1.676,1.02,2.52
	c0.308,0.82,0.656,1.604,0.976,2.416c0.312,0.824,0.66,1.612,0.98,2.424c0.316,0.832,0.668,1.632,0.992,2.456
	c0.316,0.832,0.668,1.632,0.992,2.456c0.32,0.84,0.676,1.648,1.004,2.48c0.312,0.824,0.66,1.608,0.98,2.424
	c0.316,0.832,0.668,1.632,0.992,2.456c0.316,0.832,0.668,1.632,0.992,2.456c0.32,0.84,0.676,1.648,1.004,2.48
	c0.312,0.824,0.66,1.608,0.98,2.424c0.316,0.832,0.668,1.632,0.992,2.456c0.316,0.832,0.668,1.632,0.992,2.456
	c0.316,0.832,0.668,1.632,0.992,2.452c0.32,0.844,0.676,1.648,1.004,2.48c0.312,0.824,0.66,1.612,0.976,2.428
	c0.316,0.832,0.672,1.632,0.992,2.456c0.316,0.832,0.668,1.632,0.992,2.452c0.32,0.844,0.676,1.648,1.004,2.48
	c0.312,0.824,0.66,1.612,0.98,2.428c0.316,0.832,0.668,1.632,0.992,2.456c0.316,0.832,0.668,1.628,0.992,2.452
	c0.32,0.84,0.676,1.648,1.004,2.48c0.312,0.824,0.66,1.612,0.98,2.428c0.316,0.832,0.668,1.632,0.992,2.456
	c0.328,0.856,0.688,1.676,1.02,2.52c0.308,0.812,0.652,1.584,0.972,2.396c0.316,0.84,0.672,1.648,1,2.48
	c0.312,0.824,0.66,1.612,0.984,2.424c0.312,0.836,0.664,1.632,0.992,2.456c0.312,0.832,0.664,1.632,0.992,2.456
	c0.312,0.84,0.672,1.648,1,2.48c0.312,0.824,0.66,1.612,0.984,2.424c0.308,0.832,0.664,1.632,0.988,2.456
	c0.312,0.832,0.664,1.632,0.992,2.456c0.316,0.84,0.672,1.648,1,2.48c0.312,0.824,0.66,1.612,0.984,2.424
	c0.312,0.832,0.664,1.632,0.992,2.456c0.252,0.672,0.532,1.324,0.8,1.984C233.16,511.164,244.48,512,256,512
	C373.32,512,472.132,433.052,502.4,325.404z"/>
<path style="fill:#B39547;" d="M256,416c-31.148,0-59.324-14.576-81.48-42.144c-36.948-45.992-51.332-121.948-37.576-195.792
	c-9.412-4-18.924-11.288-28.852-22.084c-12.028-13.104-16.912-33.68-11.116-46.856C100.644,100.792,108.06,96,117.332,96
	c21.156,0,42.324,7.436,55.604,19.044c20.108-9.4,47.052-18.9,83.02-19.044c36.044,0.144,62.988,9.644,83.1,19.044
	C352.336,103.444,373.5,96,394.656,96c9.272,0,16.688,4.792,20.356,13.124c5.792,13.176,0.912,33.752-11.112,46.856
	c-9.924,10.788-19.444,18.084-28.856,22.084c13.76,73.844-0.62,149.8-37.576,195.792C315.32,401.424,287.144,416,256,416z"/>
<g>
	<path style="fill:#A68A42;" d="M334.084,119.252c1.36-1.192,3.456-3.108,4.976-4.212c-7.432-3.476-15.828-6.952-25.248-9.984
		c-0.188-0.06-0.368-0.116-0.552-0.18c-2.144-0.684-4.416-1.296-6.672-1.924c-1.524-0.416-3.028-0.848-4.58-1.236
		c-1.296-0.328-2.664-0.604-3.996-0.916c-2.396-0.54-4.792-1.076-7.248-1.528c-0.908-0.168-1.856-0.3-2.768-0.456
		c-2.772-0.472-5.564-0.92-8.412-1.276c-1.256-0.16-2.584-0.252-3.884-0.396c-2.504-0.264-5.008-0.536-7.564-0.708
		c-3.952-0.252-8-0.424-12.2-0.44c-2.068,0.008-3.992,0.148-5.996,0.22C282.96,97.336,316.584,109.672,334.084,119.252z"/>
	<path style="fill:#A68A42;" d="M415.02,109.124C411.352,100.792,403.936,96,394.664,96c-2.668,0-5.336,0.12-7.988,0.352
		c7.38,1.196,13.224,5.688,16.344,12.772c5.792,13.176,0.912,33.752-11.112,46.856c-9.924,10.788-19.444,18.084-28.856,22.084
		c13.76,73.844-0.62,149.8-37.576,195.792c-20.728,25.788-46.716,40.2-75.476,41.956c1.988,0.12,3.988,0.188,6,0.188
		c31.144,0,59.32-14.576,81.476-42.144c36.948-45.992,51.336-121.948,37.576-195.792c9.412-4,18.924-11.288,28.856-22.084
		C415.924,142.876,420.812,122.3,415.02,109.124z"/>
	<path style="fill:#A68A42;" d="M166.668,119.752c1.804-1.812,4.156-3.624,6.268-4.708c-3.952-3.292-8.188-6.112-12.6-8.512
		c-0.392-0.208-0.8-0.396-1.2-0.592c-1.612-0.84-3.252-1.624-4.916-2.352c-1.612-0.704-3.268-1.348-4.956-1.948
		c-0.5-0.184-0.992-0.388-1.492-0.564c-2.292-0.776-4.636-1.488-7.032-2.096c-0.012-0.004-0.02-0.008-0.032-0.008
		c-2.468-0.628-4.98-1.16-7.52-1.596c-0.052-0.008-0.096-0.02-0.152-0.028c-2.32-0.396-4.672-0.676-7.028-0.9
		c-0.308-0.032-0.616-0.084-0.916-0.104c-2.584-0.22-5.172-0.336-7.76-0.336c-1.388,0-2.716,0.14-4.012,0.352
		C131.704,97.944,155.064,109.608,166.668,119.752z"/>
</g>
<path style="fill:#D9B456;" d="M256,295.5c-45.524,0-83.612,21.464-93.484,60.992c3.696,6.152,7.68,11.98,12.004,17.364
	C196.676,401.424,224.852,416,256,416c31.144,0,59.32-14.576,81.476-42.144c4.324-5.384,8.312-11.212,12.008-17.368
	C339.612,316.96,301.52,295.5,256,295.5z"/>
<path style="fill:#CCA951;" d="M349.484,356.488c-1.18-4.728-2.788-9.18-4.748-13.384c-5.516,11.252-11.92,21.608-19.26,30.752
	c-20.728,25.788-46.716,40.2-75.476,41.956c0.004,0,0.004,0,0.004,0c1.988,0.12,3.988,0.188,5.996,0.188
	c31.144,0,59.32-14.576,81.476-42.144c2.172-2.704,4.252-5.528,6.256-8.424C345.732,362.54,347.644,359.556,349.484,356.488z"/>
<g>
	<path style="fill:#806A33;" d="M181.336,180h-10.672c-5.892,0-10.664-4.1-10.664-10s4.772-10,10.664-10h10.672
		c5.892,0,10.664,4.1,10.664,10S187.228,180,181.336,180z"/>
	<path style="fill:#806A33;" d="M220,160h-10.664c-5.9,0-10.672-4.1-10.672-10s4.772-10,10.672-10H220c5.9,0,10.664,4.1,10.664,10
		S225.9,160,220,160z"/>
	<path style="fill:#806A33;" d="M266.664,180h-21.328c-5.9,0-10.672-4.1-10.672-10s4.772-10,10.672-10h21.328
		c5.9,0,10.672,4.1,10.672,10S272.564,180,266.664,180z"/>
	<path style="fill:#806A33;" d="M330.664,180h10.672c5.892,0,10.664-4.1,10.664-10s-4.772-10-10.664-10h-10.672
		c-5.892,0-10.664,4.1-10.664,10S324.772,180,330.664,180z"/>
	<path style="fill:#806A33;" d="M292,160h10.664c5.9,0,10.672-4.1,10.672-10s-4.772-10-10.672-10H292c-5.9,0-10.664,4.1-10.664,10
		S286.1,160,292,160z"/>
</g>
<circle style="fill:#F5F5F5;" cx="202" cy="244" r="16"/>
<circle style="fill:#242424;" cx="202" cy="244" r="8"/>
<circle style="fill:#F5F5F5;" cx="310" cy="244" r="16"/>
<circle style="fill:#242424;" cx="310" cy="244" r="8"/>
<g>
	<path style="fill:#7A6631;" d="M161.296,126.236C150.704,117.572,133.672,112,117.332,112c-2.94,0-4.592,1.036-5.708,3.564
		c-2.896,6.58,0.028,20.632,8.244,29.584c7.768,8.436,15.148,14.312,21.968,17.544C146.584,149.844,153.488,136.12,161.296,126.236z
		"/>
	<path style="fill:#7A6631;" d="M349.296,126.236C359.888,117.572,376.92,112,393.26,112c2.936,0,4.588,1.036,5.708,3.564
		c2.892,6.58-0.028,20.632-8.248,29.584c-7.764,8.436-15.144,14.312-21.964,17.544C364.012,149.844,357.104,136.12,349.296,126.236z
		"/>
</g>
<g>
	<path style="fill:#242424;" d="M256,349c-2.212,0-4-1.788-4-4v-19.252c0-2.216,1.788-4,4-4s4,1.784,4,4V345
		C260,347.212,258.212,349,256,349z"/>
	<path style="fill:#242424;" d="M296.844,364.832c-1.252,0-2.488-0.584-3.264-1.688c-6-8.46-21.1-14.144-37.58-14.144
		s-31.576,5.684-37.58,14.144c-1.276,1.804-3.78,2.232-5.58,0.948c-1.804-1.276-2.228-3.772-0.948-5.58
		c7.552-10.644,24.864-17.52,44.1-17.52s36.556,6.876,44.1,17.52c1.272,1.8,0.856,4.296-0.948,5.58
		C298.452,364.592,297.644,364.832,296.844,364.832z"/>
	<path style="fill:#242424;" d="M294.752,287.876c-3.588-4.096-9.688-4.544-14.084-4.544H256h-24.664
		c-4.4,0-10.492,0.44-14.084,4.544c-2.104,2.412-2.188,6.56-0.088,8.968c12.688,14.644,20.704,22.6,20.704,22.6
		c3.124,3.096,8.416,7.968,11.764,10.828l0.284,0.252c1.676,1.428,3.884,2.14,6.084,2.14s4.416-0.712,6.084-2.14l0.284-0.252
		c3.348-2.86,8.64-7.732,11.764-10.828c0,0,8.016-7.956,20.704-22.6C296.936,294.428,296.86,290.28,294.752,287.876z"/>
</g>
<g>
</g>
<g>
</g>
<g>
</g>
<g>
</g>
<g>
</g>
<g>
</g>
<g>
</g>
<g>
</g>
<g>
</g>
<g>
</g>
<g>
</g>
<g>
</g>
<g>
</g>
<g>
</g>
<g>
</g>
</svg>
