<?xml version="1.0" encoding="iso-8859-1"?>
<!-- Generator: Adobe Illustrator 19.0.0, SVG Export Plug-In . SVG Version: 6.00 Build 0)  -->
<svg version="1.1" id="Layer_1" xmlns="http://www.w3.org/2000/svg" xmlns:xlink="http://www.w3.org/1999/xlink" x="0px" y="0px"
	 viewBox="0 0 512 512" style="enable-background:new 0 0 512 512;" xml:space="preserve">
<circle style="fill:#C2D5D8;" cx="256" cy="255.631" r="255.631"/>
<path style="fill:#45998B;" d="M327.305,379c5.117-30.656,79.996-46.245,79.996-139.259c0-93.034-103.091-140.832-151.293-140.832
	c-48.206,0-151.293,47.811-151.293,140.832c0,93.014,74.88,108.603,80.004,139.259"/>
<g>
	<path style="fill:#3F8C7F;" d="M327.305,378.984c5.117-30.656,79.996-46.241,79.996-139.263
		c0-93.014-103.091-140.813-151.293-140.813c-1.909,0-3.918,0.1-5.991,0.252c50.235,3.627,145.302,51.234,145.302,140.573
		c0,93.022-74.88,108.607-79.996,139.263"/>
	<path style="fill:#3F8C7F;" d="M263.996,102.903c-32.825,0-94.368,16.632-94.368,77.951c0,61.327,49.748,77.432,56.93,81.59
		c7.178,4.158,31.283,0,37.438,0c6.151,0,30.26,4.158,37.438,0c7.182-4.158,56.93-20.263,56.93-81.59
		C358.364,119.535,296.821,102.903,263.996,102.903z"/>
</g>
<g>
	<path style="fill:#3A8074;" d="M318.729,503.48c-10.401,2.624-21.07,4.565-31.934,5.868c-10.521,1.757-21.149,2.652-30.784,2.652
		c-9.634,0-20.267-0.899-30.787-2.652c-15.322-1.841-30.248-4.977-44.612-9.406"/>
	<path style="fill:#3A8074;" d="M179.662,494.114c0.292,1.953,0.603,3.898,0.947,5.828c14.367,4.43,29.29,7.565,44.612,9.406
		C208.165,506.504,191.405,501.391,179.662,494.114z"/>
	<path style="fill:#3A8074;" d="M286.792,509.352c10.864-1.306,21.533-3.243,31.934-5.868c0.188-0.963,0.371-1.929,0.547-2.9
		C309.523,504.503,298.231,507.443,286.792,509.352z"/>
	<path style="fill:#3A8074;" d="M309.958,348.372c-0.807-6.63-1.526-13.676-2.153-20.914c-16.96,3.163-35.449,4.537-51.797,4.541
		c-20.219,0-43.757-2.053-63.56-7.07c-0.583,7.034-1.254,13.924-2.009,20.45c19.164,5.868,44.064,8.616,65.565,8.616
		C273.395,353.996,292.959,352.171,309.958,348.372z M314.719,376.624c-1.382-5.66-2.62-12.574-3.715-20.295
		c-18.13,3.978-38.269,5.66-54.996,5.664c-20.383,0-45.886-2.448-66.568-8.572c-0.979,7.317-2.081,13.984-3.307,19.668
		c19.604,7.441,47.419,10.92,69.875,10.92C274.489,384.009,296.537,381.608,314.719,376.624z M322.62,432.471
		c-0.395-7.066-0.975-13.764-1.658-19.991c-19.468,6.483-43.992,9.518-64.954,9.522c-25.339,0-55.907-4.426-76.422-14.024
		c-0.703,5.724-1.322,11.951-1.797,18.537c17.467,11.487,51.354,17.495,78.215,17.495
		C277.761,444.006,304.107,440.064,322.62,432.471z M319.988,404.388c-1.062-7.972-2.257-14.767-3.399-20.015
		c-18.777,5.153-41.117,7.625-60.58,7.625c-23.494,0-51.246-3.535-71.76-11.132c-1.138,4.617-2.389,11.048-3.535,18.781
		c19.14,9.802,50.607,14.367,75.295,14.367C276.299,414.014,301.147,410.926,319.988,404.388z M305.377,290.053
		c-1.13-24.908-1.206-47-0.312-56.031h-49.057h-61.032c0.867,8.751,0.819,29.777-0.212,53.73
		c19.332,4.434,42.351,6.243,61.243,6.243C271.162,293.995,288.944,292.805,305.377,290.053z M307.154,319.446
		c-0.543-7.098-0.999-14.267-1.378-21.317c-16.412,2.688-34.039,3.858-49.768,3.858c-19.6,0-42.175-1.769-61.623-6.103
		c-0.355,6.91-0.791,13.972-1.302,20.978c19.548,5.105,43.517,7.142,62.925,7.142C271.669,324,290.266,322.642,307.154,319.446z
		 M320.758,491.238c0.947-6.978,1.586-14.04,1.969-21.07c-19.628,8.056-45.826,11.827-66.72,11.827
		c-25.659,0-59.306-5.688-78.994-18.014c0.216,6.395,0.627,12.853,1.286,19.28c15.569,13.465,51.334,20.754,77.708,20.754
		C276.57,504.016,302.804,499.574,320.758,491.238z M323.079,461.269c0.176-6.93,0.136-13.764-0.088-20.383
		c-19.851,7.549-45.954,11.108-66.987,11.108c-25.531,0-58.547-5.228-78.758-16.488c-0.288,5.995-0.447,12.202-0.423,18.533
		c16.133,13.097,51.573,19.967,79.182,19.967C277.972,474.007,304.865,469.645,323.079,461.269z"/>
</g>
<path style="fill:#70CCBD;" d="M322.728,470.168c0.164-2.98,0.28-5.943,0.355-8.899c-18.214,8.376-45.107,12.738-67.071,12.738
	c-27.604,0-63.045-6.87-79.182-19.967c0,0.156,0.004,0.312,0.004,0.467c0.016,3.02,0.08,6.063,0.172,9.127
	c0.004,0.116,0.008,0.232,0.012,0.347c19.684,12.326,53.331,18.014,78.994,18.014C276.902,481.995,303.1,478.225,322.728,470.168z
	 M311.005,356.329c-0.363-2.572-0.715-5.224-1.046-7.956c-16.999,3.798-36.563,5.624-53.95,5.624
	c-21.505,0-46.401-2.748-65.565-8.616c-0.32,2.752-0.655,5.432-1.003,8.04c20.682,6.123,46.185,8.572,66.568,8.572
	C272.736,361.989,292.875,360.307,311.005,356.329z M305.776,298.125c-0.144-2.712-0.28-5.408-0.399-8.072
	c-16.432,2.748-34.215,3.942-49.369,3.942c-18.893,0-41.911-1.809-61.243-6.243c-0.116,2.68-0.24,5.388-0.379,8.128
	c19.448,4.334,42.023,6.103,61.623,6.103C271.737,301.984,289.368,300.817,305.776,298.125z M320.962,412.48
	c-0.308-2.804-0.631-5.512-0.975-8.092c-18.837,6.539-43.685,9.626-63.98,9.626c-24.688,0-56.155-4.565-75.295-14.367
	c-0.296,2.001-0.587,4.086-0.863,6.251c-0.056,0.451-0.116,0.899-0.176,1.358c-0.028,0.236-0.06,0.483-0.088,0.723
	c20.514,9.602,51.082,14.024,76.422,14.024C276.97,421.998,301.494,418.962,320.962,412.48z M316.588,384.372
	c-0.435-2.005-0.867-3.858-1.274-5.372c-0.204-0.755-0.399-1.57-0.595-2.377c-18.182,4.981-40.23,7.385-58.711,7.385
	c-22.456,0-50.271-3.479-69.875-10.92c-0.228,1.05-0.455,2.077-0.691,3.06c-0.004,0.016-0.008,0.028-0.012,0.044
	c-0.232,0.967-0.463,1.917-0.703,2.808c-0.156,0.583-0.316,1.21-0.479,1.865c20.514,7.597,48.266,11.132,71.76,11.132
	C275.472,391.997,297.812,389.525,316.588,384.372z M307.805,327.459c-0.228-2.652-0.447-5.324-0.651-8.012
	C290.27,322.642,271.669,324,256.008,324c-19.412,0-43.377-2.037-62.925-7.142c-0.2,2.704-0.407,5.396-0.631,8.072
	c19.803,5.017,43.341,7.07,63.56,7.07C272.36,331.992,290.85,330.618,307.805,327.459z M322.995,440.887
	c-0.096-2.852-0.22-5.66-0.375-8.416c-18.513,7.597-44.859,11.535-66.612,11.535c-26.865,0-60.748-6.007-78.215-17.495
	c-0.008,0.092-0.012,0.184-0.02,0.276c-0.196,2.68-0.359,5.424-0.495,8.224c-0.008,0.164-0.016,0.328-0.024,0.495
	c20.211,11.26,53.227,16.488,78.758,16.488C277.038,451.995,303.144,448.44,322.995,440.887z M320.758,491.238
	c-17.954,8.336-44.188,12.778-64.75,12.778c-26.37,0-62.138-7.289-77.708-20.754c0.004,0.052,0.008,0.104,0.016,0.152
	c0.359,3.495,0.799,6.974,1.306,10.433c0.012,0.088,0.028,0.18,0.04,0.268c11.743,7.277,28.503,12.39,45.558,15.238
	c10.101,1.214,20.359,1.909,30.788,1.909c10.425,0,20.686-0.699,30.784-1.909c11.439-1.909,22.731-4.849,32.481-8.767
	C319.832,497.493,320.331,494.378,320.758,491.238z"/>
<path style="fill:#347368;" d="M322.62,432.471c4.354-1.785,8.28-3.771,11.607-5.959c0.224,2.904,0.399,5.895,0.539,8.947
	c-0.479-9.914-1.322-19.22-2.333-27.484c-3.547,1.658-7.405,3.151-11.471,4.505C321.645,418.707,322.224,425.405,322.62,432.471z
	 M319.277,500.581c-0.176,0.971-0.359,1.937-0.547,2.9c4.27-1.078,8.504-2.253,12.686-3.539c0.344-1.933,0.655-3.878,0.947-5.832
	C328.491,496.506,324.062,498.659,319.277,500.581z M305.377,290.053c4.054-0.679,8.052-1.426,11.879-2.301
	c0.004,0.056,0.004,0.112,0.008,0.168c-1.039-24.025-1.086-45.123-0.216-53.898h-11.983
	C304.17,243.053,304.246,265.149,305.377,290.053z M316.588,384.372c1.142,5.248,2.337,12.047,3.399,20.015
	c4.09-1.418,7.909-2.996,11.324-4.745c-0.707-4.777-1.458-9.071-2.193-12.734c-0.527-2.62-1.046-4.901-1.542-6.842
	c0.068,0.268,0.132,0.515,0.2,0.795C324.257,382.168,320.471,383.306,316.588,384.372z M323.079,461.269
	c4.681-2.153,8.815-4.553,12.114-7.234c0.024-6.331-0.136-12.538-0.423-18.533c-3.559,1.985-7.533,3.771-11.775,5.384
	C323.215,447.505,323.259,454.335,323.079,461.269z M322.728,470.168c-0.383,7.034-1.019,14.092-1.969,21.07
	c5.077-2.357,9.53-5.009,12.961-7.98c0.999-9.754,1.438-19.588,1.474-29.158c-0.012,3.267-0.084,6.559-0.192,9.878
	C331.347,466.27,327.205,468.327,322.728,470.168z M311.005,356.329c1.094,7.721,2.333,14.635,3.715,20.295
	c3.91-1.07,7.701-2.221,11.172-3.535c-1.226-5.688-2.329-12.366-3.311-19.692c0,0.008,0,0.012,0.004,0.02
	C318.869,354.52,314.967,355.458,311.005,356.329z M307.805,327.459c0.627,7.238,1.342,14.283,2.153,20.914
	c4.026-0.899,7.948-1.873,11.619-3.004c-0.759-6.555-1.43-13.477-2.017-20.538c0.004,0.032,0.004,0.068,0.008,0.1
	C315.778,325.889,311.819,326.708,307.805,327.459z M307.154,319.446c4.038-0.763,8.008-1.602,11.783-2.588c0,0.004,0,0.008,0,0.016
	c-0.515-7.01-0.951-14.076-1.302-20.99c-3.838,0.855-7.821,1.582-11.859,2.245C306.156,305.175,306.611,312.349,307.154,319.446z
	 M319.277,500.581c4.785-1.925,9.215-4.074,13.085-6.471c0.008-0.044,0.012-0.088,0.02-0.128c0.523-3.555,0.971-7.118,1.338-10.701
	c0-0.008,0-0.016,0.004-0.024c-3.431,2.972-7.885,5.624-12.961,7.98C320.331,494.378,319.832,497.493,319.277,500.581z
	 M305.377,290.053c0.12,2.66,0.256,5.356,0.399,8.072c4.034-0.663,8.02-1.39,11.859-2.245c-0.136-2.684-0.26-5.336-0.371-7.96
	c-0.004-0.056-0.004-0.112-0.008-0.168C313.429,288.631,309.431,289.378,305.377,290.053z M322.728,470.168
	c4.482-1.837,8.624-3.898,12.274-6.191c0.108-3.319,0.176-6.61,0.192-9.878c0-0.02,0-0.044,0-0.064
	c-3.299,2.676-7.433,5.081-12.114,7.234C323.003,464.225,322.887,467.189,322.728,470.168z M307.154,319.446
	c0.204,2.688,0.423,5.36,0.651,8.012c4.014-0.751,7.972-1.566,11.763-2.528c-0.004-0.032-0.004-0.068-0.008-0.1
	c-0.22-2.636-0.427-5.292-0.623-7.956c0-0.004,0-0.008,0-0.016C315.163,317.845,311.192,318.679,307.154,319.446z M322.62,432.471
	c0.156,2.756,0.28,5.568,0.375,8.416c4.242-1.614,8.216-3.399,11.775-5.384c0-0.016,0-0.032-0.004-0.044
	c-0.14-3.052-0.32-6.039-0.539-8.947C330.9,428.7,326.973,430.686,322.62,432.471z M319.988,404.388
	c0.343,2.58,0.667,5.292,0.975,8.092c4.066-1.354,7.929-2.848,11.471-4.505v-0.004c-0.332-2.68-0.675-5.244-1.031-7.689
	c-0.032-0.216-0.064-0.419-0.096-0.635C327.896,401.396,324.078,402.97,319.988,404.388z M315.314,379
	c0.407,1.514,0.839,3.367,1.274,5.372c3.882-1.066,7.669-2.205,11.184-3.507c-0.068-0.28-0.132-0.531-0.2-0.795
	c-0.092-0.359-0.184-0.731-0.276-1.07c-0.487-1.809-0.955-3.807-1.41-5.911c-3.471,1.318-7.262,2.464-11.172,3.535
	C314.915,377.431,315.111,378.245,315.314,379z M311.005,356.329c3.962-0.871,7.865-1.813,11.575-2.912c0-0.008,0-0.012-0.004-0.02
	c-0.348-2.604-0.683-5.28-1.003-8.028c-3.667,1.126-7.593,2.101-11.619,3.004C310.29,351.105,310.645,353.757,311.005,356.329z"/>
<path style="fill:#69BFB1;" d="M309.954,348.38c0.336,2.74,0.683,5.384,1.054,7.948c3.962-0.871,7.865-1.809,11.571-2.912
	c-0.008-0.076-0.016-0.14-0.028-0.212c-0.328-2.48-0.647-5.025-0.947-7.629c-0.008-0.072-0.02-0.132-0.028-0.208
	C317.907,346.507,313.988,347.482,309.954,348.38z M307.154,319.446c0.212,2.692,0.415,5.368,0.647,8.02
	c4.026-0.751,7.976-1.578,11.767-2.536c-0.004-0.048-0.008-0.084-0.008-0.124c-0.224-2.58-0.415-5.173-0.611-7.777
	c-0.004-0.064-0.008-0.108-0.012-0.164C315.167,317.841,311.184,318.679,307.154,319.446z M305.772,298.133
	c4.042-0.663,8.024-1.398,11.867-2.249c-0.016-0.24-0.024-0.455-0.036-0.691c-0.12-2.496-0.248-4.969-0.348-7.413
	c0-0.008,0-0.016,0-0.024c-3.826,0.879-7.825,1.626-11.891,2.305C305.5,292.717,305.628,295.413,305.772,298.133z M323.079,461.269
	c-0.084,2.948-0.192,5.911-0.355,8.899c4.482-1.837,8.62-3.898,12.278-6.191c0-0.048,0-0.092,0.008-0.14
	c0.1-3.251,0.164-6.483,0.184-9.69c0-0.04,0-0.08,0-0.112C331.894,456.716,327.76,459.116,323.079,461.269z M319.988,404.384
	c0.343,2.58,0.671,5.288,0.967,8.088c4.074-1.358,7.929-2.848,11.475-4.509c0-0.016-0.004-0.028-0.004-0.04
	c-0.352-2.836-0.715-5.552-1.086-8.112c-0.008-0.064-0.016-0.116-0.024-0.18C327.892,401.392,324.074,402.966,319.988,404.384z
	 M325.887,373.077c-3.471,1.318-7.262,2.464-11.172,3.543c0.196,0.807,0.395,1.622,0.587,2.381c0.415,1.514,0.843,3.371,1.27,5.376
	c3.886-1.074,7.673-2.209,11.188-3.511c-0.16-0.655-0.32-1.274-0.475-1.865c-0.248-0.915-0.483-1.885-0.727-2.888
	C326.334,375.138,326.111,374.119,325.887,373.077z M334.227,426.512c-3.327,2.189-7.25,4.174-11.607,5.955
	c0.156,2.752,0.276,5.572,0.379,8.412c4.246-1.61,8.22-3.407,11.771-5.388C334.622,432.447,334.443,429.443,334.227,426.512z
	 M333.724,483.246c-3.427,2.972-7.885,5.616-12.961,7.98c-0.419,3.135-0.919,6.243-1.482,9.346
	c4.785-1.925,9.223-4.078,13.085-6.475c0-0.02,0.004-0.04,0.008-0.064C332.897,490.463,333.348,486.868,333.724,483.246z"/>
<path style="fill:#347368;" d="M317.036,234.022h-61.028h-61.032c0.415,4.134,0.611,11.032,0.603,19.656
	c10.529,7.541,20.131,11.1,22.991,12.754c7.178,4.158,31.283,0,37.438,0c6.151,0,30.26,4.158,37.438,0
	c2.86-1.654,12.462-5.216,22.991-12.754C316.429,245.054,316.636,238.156,317.036,234.022z"/>
<g>
	<path style="fill:#242424;" d="M256.008,278.597c-2.209,0-3.994-1.785-3.994-3.994v-22.3c0-2.209,1.785-3.994,3.994-3.994
		c2.209,0,3.994,1.785,3.994,3.994v22.3C260.002,276.812,258.221,278.597,256.008,278.597z"/>
	<path style="fill:#242424;" d="M272.181,291.247c-0.919,0-1.857-0.32-2.604-0.971l-13.568-11.723l-13.56,11.723
		c-1.674,1.434-4.194,1.258-5.636-0.415c-1.442-1.67-1.258-4.198,0.411-5.632l18.785-16.237l18.785,16.237
		c1.67,1.434,1.853,3.962,0.415,5.632C274.409,290.78,273.299,291.247,272.181,291.247z"/>
</g>
<path style="fill:#3A8074;" d="M256.008,98.909c-32.825,0-94.368,16.632-94.368,77.951c0,61.327,49.748,77.432,56.93,81.59
	c7.178,4.158,31.283,0,37.438,0c6.151,0,30.26,4.158,37.438,0c7.182-4.158,56.93-20.263,56.93-81.59
	C350.376,115.541,288.833,98.909,256.008,98.909z"/>
<path style="fill:#347368;" d="M256.008,98.909c-1.905,0-3.91,0.068-5.991,0.18c33.771,1.913,88.376,20.015,88.376,77.772
	c0,61.327-49.748,77.432-56.93,81.59c-1.478,0.859-3.699,1.346-6.311,1.602c7.425,0.459,14.831,0.403,18.294-1.602
	c7.182-4.158,56.93-20.263,56.93-81.59C350.376,115.541,288.833,98.909,256.008,98.909z"/>
<path style="fill:#F5F5F5;" d="M204.51,189.39c3.179,10.026,0.715,19.751-5.504,21.725c-6.219,1.973-13.84-4.553-17.019-14.579
	c-3.179-10.025-0.715-19.751,5.504-21.725C193.706,172.834,201.327,179.365,204.51,189.39z"/>
<path style="fill:#242424;" d="M197.848,191.208c2.233,7.038,1.985,13.397-0.555,14.203c-2.54,0.807-6.411-4.246-8.644-11.284
	c-2.233-7.038-1.985-13.397,0.555-14.203C191.745,179.121,195.615,184.17,197.848,191.208z"/>
<path style="fill:#F5F5F5;" d="M307.741,189.274c3.179-10.025,10.8-16.552,17.019-14.579c6.219,1.973,8.683,11.699,5.504,21.725
	c-3.179,10.026-10.8,16.552-17.019,14.579C307.026,209.026,304.562,199.3,307.741,189.274z"/>
<path style="fill:#242424;" d="M314.651,191.511c2.233-7.038,6.103-12.087,8.644-11.28c2.54,0.807,2.788,7.166,0.555,14.203
	c-2.233,7.038-6.103,12.087-8.644,11.28S312.418,198.549,314.651,191.511z"/>
<g>
	<path style="fill:#45998B;" d="M221.262,146.784c7.905-4.026,11.603-5.891,18.493-6.862l-7.122-21.988
		c-6.962,1.582-14.727,4.018-22.164,7.697L221.262,146.784z"/>
	<path style="fill:#45998B;" d="M205.329,161.423c1.682-3.111,3.874-5.78,6.383-8.092l-11.128-21.808
		c-6.443,4.581-12.142,10.449-16.257,17.906L205.329,161.423z"/>
</g>
<g>
</g>
<g>
</g>
<g>
</g>
<g>
</g>
<g>
</g>
<g>
</g>
<g>
</g>
<g>
</g>
<g>
</g>
<g>
</g>
<g>
</g>
<g>
</g>
<g>
</g>
<g>
</g>
<g>
</g>
</svg>
