<?xml version="1.0" encoding="iso-8859-1"?>
<!-- Generator: Adobe Illustrator 19.0.0, SVG Export Plug-In . SVG Version: 6.00 Build 0)  -->
<svg version="1.1" id="Layer_1" xmlns="http://www.w3.org/2000/svg" xmlns:xlink="http://www.w3.org/1999/xlink" x="0px" y="0px"
	 viewBox="0 0 512.432 512.432" style="enable-background:new 0 0 512.432 512.432;" xml:space="preserve">
<circle style="fill:#88C5CC;" cx="256.216" cy="256" r="256"/>
<path style="fill:#80B9BF;" d="M496.544,344.364c-0.016-0.064-0.028-0.116-0.052-0.18c-0.192-0.488-0.448-0.972-0.652-1.46
	c-0.072-0.196-0.096-0.396-0.176-0.584c-0.192-0.488-0.448-0.976-0.656-1.464c-0.068-0.196-0.096-0.392-0.172-0.584
	c-0.192-0.488-0.448-0.972-0.652-1.456c-0.072-0.2-0.096-0.404-0.176-0.592c-0.192-0.492-0.448-0.972-0.656-1.46
	c-0.068-0.2-0.096-0.396-0.172-0.584c-0.192-0.488-0.448-0.972-0.652-1.46c-0.072-0.196-0.096-0.396-0.176-0.584
	c-0.192-0.488-0.448-0.976-0.656-1.464c-0.068-0.196-0.096-0.392-0.172-0.584c-0.192-0.488-0.448-0.972-0.652-1.456
	c-0.072-0.2-0.096-0.4-0.176-0.592c-0.192-0.484-0.448-0.968-0.652-1.456c-0.072-0.2-0.096-0.4-0.176-0.588
	c-0.192-0.488-0.448-0.976-0.656-1.464c-0.068-0.196-0.096-0.392-0.172-0.584c-0.192-0.488-0.448-0.972-0.652-1.456
	c-0.072-0.2-0.096-0.4-0.176-0.588c-0.192-0.492-0.448-0.976-0.656-1.464c-0.068-0.196-0.096-0.396-0.172-0.584
	c-0.192-0.488-0.448-0.972-0.652-1.456c-0.072-0.196-0.096-0.4-0.176-0.588c-0.192-0.488-0.448-0.976-0.656-1.464
	c-0.068-0.196-0.096-0.392-0.172-0.584c-0.192-0.488-0.448-0.972-0.652-1.456c-0.072-0.2-0.096-0.4-0.176-0.588
	c-0.192-0.492-0.448-0.976-0.656-1.464c-0.068-0.196-0.096-0.392-0.172-0.584c-0.192-0.476-0.44-0.948-0.64-1.428
	c-0.072-0.212-0.104-0.416-0.184-0.616c-0.192-0.488-0.448-0.972-0.652-1.456c-0.072-0.2-0.096-0.4-0.176-0.588
	c-0.192-0.492-0.448-0.976-0.656-1.464c-0.068-0.196-0.096-0.392-0.172-0.584c-0.192-0.488-0.448-0.972-0.652-1.46
	c-0.072-0.196-0.096-0.4-0.176-0.588c-0.192-0.488-0.448-0.976-0.656-1.464c-0.068-0.196-0.096-0.392-0.172-0.584
	c-0.192-0.488-0.448-0.972-0.652-1.456c-0.072-0.2-0.096-0.4-0.176-0.588c-0.192-0.492-0.448-0.976-0.656-1.464
	c-0.068-0.196-0.096-0.392-0.172-0.584c-0.192-0.484-0.448-0.968-0.652-1.456c-0.072-0.196-0.096-0.4-0.176-0.588
	c-0.192-0.488-0.448-0.976-0.656-1.46c-0.068-0.2-0.096-0.396-0.172-0.584c-0.192-0.488-0.448-0.972-0.652-1.456
	c-0.072-0.2-0.096-0.4-0.176-0.588c-0.192-0.492-0.448-0.976-0.656-1.464c-0.068-0.196-0.096-0.392-0.172-0.584
	c-0.192-0.488-0.448-0.972-0.652-1.46c-0.072-0.196-0.096-0.4-0.176-0.588c-0.192-0.488-0.448-0.972-0.652-1.456
	c-0.072-0.2-0.096-0.4-0.176-0.588c-0.192-0.492-0.448-0.976-0.656-1.464c-0.068-0.196-0.096-0.392-0.172-0.584
	c-0.192-0.488-0.448-0.972-0.652-1.46c-0.072-0.196-0.096-0.396-0.176-0.588c-0.188-0.476-0.444-0.956-0.644-1.436
	c-0.072-0.2-0.1-0.412-0.18-0.604c-0.192-0.488-0.448-0.972-0.652-1.456c-0.072-0.2-0.096-0.4-0.176-0.588
	c-0.192-0.492-0.448-0.976-0.656-1.464c-0.068-0.196-0.096-0.392-0.172-0.584c-0.192-0.488-0.448-0.972-0.652-1.46
	c-0.072-0.196-0.096-0.396-0.176-0.588c-0.192-0.484-0.448-0.972-0.656-1.46c-0.068-0.196-0.096-0.396-0.172-0.584
	c-0.192-0.488-0.448-0.972-0.652-1.452c-0.072-0.204-0.096-0.404-0.176-0.592c-0.192-0.488-0.448-0.972-0.652-1.46
	c-0.072-0.196-0.096-0.396-0.176-0.584c-0.192-0.488-0.448-0.976-0.656-1.464c-0.068-0.196-0.096-0.392-0.172-0.584
	c-0.192-0.488-0.448-0.972-0.652-1.456c-0.072-0.2-0.096-0.404-0.176-0.592c-0.192-0.492-0.448-0.976-0.656-1.464
	c-0.068-0.196-0.096-0.392-0.172-0.584c-0.192-0.488-0.448-0.972-0.652-1.46c-0.072-0.196-0.096-0.396-0.176-0.584
	c-0.192-0.488-0.448-0.976-0.656-1.464c-0.068-0.196-0.096-0.392-0.172-0.584c-0.192-0.484-0.448-0.968-0.652-1.452
	c-0.072-0.204-0.096-0.404-0.176-0.592c-0.192-0.492-0.448-0.976-0.656-1.46c-0.068-0.2-0.096-0.396-0.172-0.584
	c-0.192-0.488-0.448-0.972-0.652-1.46c-0.072-0.196-0.096-0.396-0.176-0.584c-0.188-0.48-0.44-0.952-0.64-1.432
	c-0.068-0.204-0.104-0.416-0.184-0.616c-0.192-0.492-0.448-0.972-0.656-1.46c-0.064-0.2-0.096-0.396-0.172-0.584
	c-0.192-0.488-0.448-0.972-0.652-1.46c-0.072-0.196-0.096-0.396-0.176-0.584c-0.192-0.488-0.448-0.976-0.656-1.464
	c-0.064-0.196-0.096-0.392-0.172-0.584c-0.192-0.488-0.448-0.972-0.652-1.456c-0.072-0.2-0.096-0.4-0.176-0.592
	c-0.192-0.492-0.448-0.976-0.656-1.46c-0.064-0.196-0.096-0.396-0.172-0.584c-0.192-0.488-0.448-0.972-0.652-1.46
	c-0.072-0.196-0.096-0.396-0.176-0.584c-0.192-0.488-0.448-0.976-0.656-1.464c-0.064-0.196-0.096-0.392-0.172-0.584
	c-0.192-0.488-0.448-0.972-0.652-1.456c-0.072-0.2-0.096-0.404-0.176-0.592c-0.192-0.488-0.448-0.972-0.652-1.456
	c-0.072-0.196-0.096-0.4-0.176-0.588c-0.192-0.488-0.448-0.976-0.656-1.464c-0.064-0.196-0.096-0.392-0.172-0.584
	c-0.192-0.488-0.448-0.972-0.652-1.456c-0.072-0.2-0.096-0.4-0.176-0.588c-0.192-0.492-0.448-0.976-0.656-1.464
	c-0.064-0.196-0.096-0.392-0.172-0.584c-0.192-0.484-0.448-0.968-0.652-1.456c-0.072-0.2-0.096-0.4-0.176-0.588
	c-0.192-0.488-0.448-0.976-0.656-1.464c-0.064-0.196-0.096-0.392-0.172-0.584c-0.188-0.48-0.44-0.952-0.64-1.432
	c-0.068-0.204-0.1-0.416-0.184-0.612c-0.192-0.492-0.448-0.976-0.656-1.464c-0.064-0.196-0.096-0.396-0.172-0.584
	c-0.192-0.488-0.448-0.972-0.652-1.456c-0.072-0.2-0.096-0.4-0.176-0.588c-0.192-0.488-0.448-0.976-0.656-1.464
	c-0.064-0.196-0.096-0.392-0.172-0.584c-0.192-0.488-0.448-0.972-0.652-1.456c-0.072-0.2-0.096-0.4-0.176-0.592
	c-0.192-0.484-0.448-0.968-0.652-1.456c-0.072-0.196-0.096-0.4-0.176-0.588c-0.192-0.488-0.448-0.976-0.656-1.46
	c-0.064-0.2-0.096-0.396-0.172-0.584c-0.772-1.976-1.664-3.948-2.648-5.916c-0.324-0.648-0.724-1.288-1.072-1.936
	c-0.704-1.3-1.4-2.604-2.188-3.892c-0.516-0.844-1.1-1.664-1.66-2.492c-0.712-1.076-1.404-2.144-2.18-3.204
	c-0.7-0.952-1.476-1.888-2.232-2.828c-0.72-0.896-1.412-1.788-2.168-2.672c-0.896-1.036-1.864-2.036-2.82-3.044
	c-0.708-0.748-1.392-1.496-2.128-2.232c-1.088-1.084-2.252-2.12-3.42-3.164c-0.68-0.612-1.344-1.236-2.052-1.828
	c-1.3-1.1-2.672-2.156-4.056-3.216c-0.644-0.488-1.272-0.98-1.936-1.456c-1.516-1.092-3.084-2.14-4.696-3.168
	c-0.592-0.388-1.188-0.768-1.792-1.144c-1.732-1.064-3.512-2.068-5.34-3.048c-0.548-0.284-1.084-0.584-1.636-0.868
	c-1.94-0.996-3.944-1.932-5.992-2.832c-0.484-0.212-0.964-0.416-1.452-0.628c-2.16-0.912-4.38-1.752-6.648-2.544
	c-0.416-0.148-0.84-0.284-1.26-0.424c-1.092-0.372-2.252-0.664-3.364-1.004c-0.14-0.592-0.38-1.128-0.728-1.608
	c-0.1-0.768-0.4-1.452-0.828-2.056c-0.1-0.764-0.4-1.444-0.828-2.048c-0.1-0.768-0.4-1.448-0.828-2.056
	c-0.1-0.764-0.4-1.444-0.828-2.044c-0.1-0.768-0.4-1.448-0.824-2.056c-0.104-0.768-0.404-1.448-0.828-2.056
	c-0.104-0.764-0.404-1.444-0.828-2.044c-0.104-0.768-0.404-1.452-0.828-2.06c-0.104-0.76-0.404-1.44-0.828-2.044
	c-0.104-0.768-0.404-1.448-0.828-2.056c-0.104-0.764-0.404-1.444-0.828-2.044c-0.104-0.768-0.4-1.452-0.828-2.06
	c-0.104-0.76-0.4-1.44-0.828-2.044c-0.104-0.764-0.396-1.444-0.824-2.044c-0.1-0.772-0.4-1.456-0.828-2.068
	c-0.104-0.76-0.4-1.44-0.828-2.044c-0.1-0.768-0.4-1.452-0.828-2.056c-0.1-0.764-0.4-1.444-0.828-2.044
	c-0.1-0.768-0.4-1.452-0.828-2.06c-0.1-0.76-0.4-1.44-0.828-2.044c-0.1-0.772-0.4-1.452-0.824-2.056
	c-0.104-0.764-0.404-1.444-0.828-2.048c-0.104-0.764-0.404-1.444-0.828-2.052c-0.104-0.772-0.404-1.452-0.828-2.056
	c-0.104-0.764-0.404-1.444-0.828-2.048c-0.104-0.764-0.404-1.448-0.828-2.056c-0.104-0.764-0.404-1.444-0.828-2.044
	c-0.104-0.772-0.4-1.452-0.828-2.06c-0.104-0.756-0.396-1.432-0.824-2.036c-0.1-0.772-0.396-1.456-0.828-2.064
	c-0.104-0.764-0.4-1.444-0.828-2.048c-0.104-0.768-0.4-1.448-0.828-2.056c-0.1-0.764-0.4-1.444-0.828-2.044
	c-0.1-0.768-0.4-1.448-0.828-2.052c-0.1-0.772-0.4-1.452-0.828-2.06c-0.316-2.32-2.272-4.104-4.68-4.036
	c-2.276,0.08-4.136,1.792-4.436,3.988l-0.068,0.26c-0.752,5.324-3.252,11.352-6.008,16.712c-2.836,5.424-6.236,10.52-10.104,14.892
	c-3.876,4.368-8.248,8-12.752,10.192c-4.328,2.144-8.592,2.836-12.716,2.388c-11.752-3.268-25.508-5.064-41.608-5.064
	c-2.372,0-4.688,0.048-6.952,0.112c0.008,0,0.012,0,0.02,0c-13.164,0.436-24.644,2.156-34.672,4.944
	c-4.112,0.448-8.396-0.248-12.728-2.388c-4.512-2.196-8.888-5.824-12.752-10.188c-2.632-2.976-5.036-6.304-7.208-9.828
	c-0.128-0.56-0.36-1.06-0.672-1.516l-0.02-0.108c-0.092-0.728-0.416-1.36-0.812-1.94l-0.016-0.104
	c-0.092-0.724-0.416-1.36-0.808-1.932l-0.02-0.112c-0.092-0.728-0.416-1.36-0.812-1.932l-0.016-0.108
	c-0.092-0.724-0.412-1.356-0.804-1.932l-0.02-0.112c-0.092-0.728-0.416-1.364-0.812-1.94l-0.016-0.104
	c-0.092-0.724-0.416-1.36-0.808-1.932l-0.02-0.112c-0.092-0.728-0.416-1.36-0.812-1.932l-0.016-0.108
	c-0.092-0.728-0.416-1.36-0.808-1.936l-0.02-0.108c-0.092-0.728-0.416-1.36-0.808-1.936l-0.02-0.112
	c-0.092-0.728-0.416-1.36-0.812-1.932l-0.016-0.108c-0.296-2.196-2.148-3.916-4.436-3.988c-2.568-0.08-4.704,1.932-4.776,4.488
	c-0.248,7.848,1.448,14.532,3.468,21.352c0.692,2.204,1.492,4.376,2.348,6.54c0.3,0.828,0.64,1.648,0.968,2.468
	c0.252,0.692,0.556,1.368,0.828,2.056c0.252,0.696,0.56,1.38,0.836,2.072c0.252,0.684,0.552,1.352,0.82,2.028
	c0.252,0.696,0.56,1.38,0.836,2.072c0.248,0.664,0.536,1.312,0.792,1.972c0.264,0.72,0.58,1.416,0.856,2.124
	c0.252,0.684,0.556,1.352,0.82,2.028c0.256,0.696,0.564,1.38,0.836,2.076c0.252,0.68,0.556,1.352,0.82,2.028
	c0.256,0.696,0.564,1.38,0.836,2.072c0.252,0.684,0.556,1.352,0.82,2.028c0.256,0.692,0.56,1.368,0.828,2.052
	c0.256,0.7,0.564,1.384,0.836,2.076c0.252,0.684,0.556,1.352,0.82,2.028c0.14,0.384,0.308,0.752,0.452,1.132
	c-2.82,2.352-5.428,4.848-7.78,7.524c-54.428-1.796-91.428,28.252-103.388,58.708c-1.148,2.92-0.868,6.092,0.552,8.7
	c0.212,0.708,0.476,1.4,0.828,2.052c0.208,0.708,0.472,1.4,0.828,2.048c0.208,0.712,0.476,1.404,0.828,2.056
	c0.212,0.708,0.476,1.4,0.828,2.048c0.208,0.712,0.476,1.404,0.828,2.056c0.208,0.704,0.472,1.388,0.82,2.036
	c0.212,0.716,0.476,1.408,0.836,2.064c0.204,0.708,0.472,1.4,0.824,2.052c0.208,0.708,0.472,1.4,0.832,2.052
	c0.204,0.708,0.472,1.396,0.824,2.044c0.208,0.712,0.472,1.404,0.832,2.056c0.204,0.712,0.468,1.4,0.824,2.052
	c0.208,0.708,0.468,1.4,0.828,2.048c0.208,0.712,0.468,1.404,0.832,2.056c0.204,0.708,0.468,1.4,0.82,2.052
	c0.212,0.708,0.472,1.4,0.836,2.052c0.204,0.708,0.468,1.396,0.82,2.044c0.212,0.712,0.472,1.404,0.832,2.056
	c0.208,0.712,0.472,1.4,0.824,2.052c0.212,0.708,0.472,1.4,0.832,2.052c0.208,0.704,0.468,1.388,0.82,2.036
	c0.212,0.712,0.472,1.412,0.828,2.068c0.208,0.708,0.476,1.4,0.828,2.052c0.212,0.708,0.476,1.396,0.828,2.044
	c0.208,0.712,0.476,1.404,0.828,2.056c0.212,0.712,0.476,1.4,0.828,2.052c0.208,0.708,0.476,1.4,0.828,2.052
	c0.212,0.708,0.476,1.396,0.828,2.044c0.208,0.712,0.476,1.404,0.828,2.06c0.212,0.708,0.476,1.396,0.828,2.048
	c0.208,0.708,0.472,1.4,0.828,2.048c0.208,0.712,0.476,1.404,0.828,2.056c0.212,0.712,0.472,1.4,0.828,2.052
	c0.208,0.708,0.472,1.4,0.824,2.052c0.216,0.708,0.476,1.396,0.828,2.044c0.212,0.712,0.472,1.396,0.824,2.048
	c0.212,0.716,0.472,1.404,0.828,2.06c0.212,0.708,0.472,1.4,0.832,2.052c0.208,0.708,0.472,1.396,0.824,2.044
	c0.208,0.712,0.472,1.408,0.828,2.06c0.208,0.708,0.472,1.4,0.832,2.052c0.204,0.708,0.472,1.396,0.824,2.044
	c0.208,0.712,0.472,1.404,0.832,2.06c0.204,0.708,0.472,1.396,0.824,2.048c0.208,0.708,0.472,1.4,0.832,2.052
	c0.204,0.708,0.472,1.396,0.824,2.044c0.208,0.712,0.472,1.408,0.832,2.06c0.204,0.708,0.472,1.396,0.824,2.048
	c0.208,0.708,0.472,1.4,0.832,2.052c0.204,0.708,0.472,1.4,0.824,2.044c0.208,0.712,0.468,1.4,0.824,2.048
	c0.208,0.716,0.472,1.408,0.828,2.064c0.212,0.708,0.476,1.396,0.828,2.044c0.208,0.712,0.476,1.408,0.828,2.06
	c0.212,0.708,0.476,1.396,0.828,2.048c0.208,0.708,0.472,1.4,0.828,2.052c0.212,0.708,0.472,1.4,0.824,2.044
	c0.212,0.716,0.476,1.408,0.828,2.06c0.216,0.708,0.476,1.396,0.828,2.048c0.212,0.708,0.472,1.4,0.828,2.048
	c0.208,0.712,0.476,1.408,0.828,2.06c0.212,0.708,0.476,1.396,0.828,2.048c0.208,0.708,0.476,1.4,0.828,2.052
	c0.212,0.708,0.476,1.4,0.828,2.044c0.208,0.716,0.476,1.408,0.828,2.06c0.212,0.708,0.476,1.396,0.828,2.048
	c0.208,0.704,0.472,1.392,0.824,2.04c0.208,0.712,0.472,1.412,0.828,2.06c0.208,0.712,0.472,1.404,0.828,2.056
	c0.208,0.708,0.468,1.4,0.832,2.052c0.204,0.712,0.472,1.4,0.824,2.048c0.208,0.712,0.468,1.404,0.832,2.056
	c0.204,0.708,0.468,1.396,0.824,2.048c0.208,0.708,0.468,1.4,0.832,2.052c0.204,0.712,0.468,1.4,0.824,2.048
	c0.208,0.712,0.468,1.404,0.828,2.056c0.208,0.708,0.472,1.396,0.824,2.048c0.212,0.708,0.472,1.404,0.828,2.052
	c0.212,0.712,0.472,1.404,0.832,2.056c0.208,0.708,0.472,1.396,0.824,2.048c0.212,0.708,0.472,1.4,0.832,2.052
	c0.208,0.708,0.468,1.392,0.82,2.04c0.212,0.716,0.472,1.408,0.828,2.064c0.212,0.708,0.476,1.396,0.828,2.048
	c0.208,0.708,0.476,1.404,0.828,2.052c0.212,0.712,0.476,1.4,0.828,2.048c0.208,0.712,0.472,1.404,0.828,2.056
	c0.208,0.708,0.476,1.4,0.828,2.052c0.212,0.712,0.476,1.4,0.828,2.048c0.208,0.712,0.476,1.404,0.828,2.056
	c0.212,0.708,0.476,1.396,0.828,2.048c0.208,0.708,0.476,1.404,0.828,2.052c0.212,0.712,0.476,1.4,0.828,2.048
	c0.208,0.712,0.472,1.404,0.828,2.056c0.212,0.708,0.472,1.4,0.824,2.048c0.212,0.712,0.476,1.404,0.828,2.056
	c0.212,0.704,0.472,1.388,0.82,2.036c0.216,0.712,0.476,1.408,0.832,2.064c0.212,0.708,0.472,1.404,0.832,2.052
	c0.208,0.712,0.472,1.4,0.824,2.048c0.212,0.712,0.472,1.404,0.832,2.056c0.208,0.708,0.472,1.4,0.824,2.048
	c0.208,0.712,0.472,1.404,0.832,2.056c0.204,0.708,0.472,1.396,0.824,2.044c0.208,0.712,0.472,1.404,0.832,2.056
	c0.204,0.708,0.472,1.4,0.824,2.052c0.208,0.708,0.472,1.4,0.828,2.048c0.208,0.712,0.472,1.404,0.832,2.056
	c0.204,0.708,0.472,1.4,0.824,2.048c0.208,0.712,0.472,1.404,0.832,2.056c0.204,0.708,0.472,1.396,0.824,2.044
	c0.208,0.712,0.472,1.396,0.824,2.048c0.208,0.712,0.472,1.404,0.828,2.06c0.208,0.708,0.476,1.4,0.828,2.052
	c0.212,0.708,0.476,1.396,0.828,2.044c0.208,0.712,0.468,1.404,0.828,2.056c0.208,0.712,0.472,1.404,0.824,2.056
	c0.216,0.708,0.476,1.396,0.828,2.044c0.212,0.712,0.476,1.404,0.828,2.056c0.216,0.708,0.476,1.4,0.828,2.052
	c0.212,0.708,0.476,1.4,0.828,2.052c0.212,0.708,0.476,1.396,0.828,2.044c0.208,0.712,0.476,1.404,0.828,2.056
	c0.212,0.712,0.476,1.4,0.828,2.052c0.208,0.708,0.472,1.4,0.828,2.048c0.208,0.712,0.476,1.404,0.828,2.056
	c0.208,0.708,0.472,1.396,0.82,2.036c0.212,0.72,0.476,1.412,0.836,2.068c0.204,0.708,0.472,1.396,0.824,2.044
	c0.208,0.712,0.472,1.408,0.832,2.056c0.204,0.712,0.472,1.4,0.824,2.052c0.208,0.708,0.472,1.4,0.832,2.052
	c0.204,0.708,0.472,1.396,0.824,2.044c0.208,0.716,0.472,1.408,0.828,2.06c0.208,0.708,0.468,1.4,0.832,2.052
	c0.204,0.708,0.468,1.396,0.824,2.044c0.208,0.712,0.468,1.408,0.832,2.056c0.204,0.712,0.468,1.4,0.82,2.052
	c0.212,0.708,0.472,1.4,0.836,2.052c0.204,0.708,0.468,1.396,0.82,2.044c0.032,0.092,0.084,0.172,0.104,0.264
	c21.748,6,44.608,9.268,68.256,9.268C366.54,512,460.56,442.2,496.544,344.364z"/>
<g>
	<path style="fill:#CC803D;" d="M173.012,80.332c0.752,5.324,3.252,11.352,6.012,16.712c2.828,5.424,6.24,10.52,10.1,14.896
		c3.872,4.364,8.248,7.996,12.752,10.188c4.516,2.24,8.976,2.924,13.252,2.356c6.404-0.864,12.276,3.628,13.136,10.02
		c0.868,6.4-3.628,12.276-10.02,13.136c-0.74,0.096-1.464,0.124-2.184,0.088l-0.932-0.064c-8.888-0.524-17.44-4.016-23.92-8.96
		c-6.576-4.928-11.408-11.004-15.244-17.252c-3.804-6.3-6.644-12.864-8.76-19.604c-2.02-6.82-3.716-13.504-3.468-21.352
		c0.084-2.556,2.216-4.568,4.776-4.488c2.288,0.08,4.14,1.792,4.436,3.988L173.012,80.332z"/>
	<path style="fill:#CC803D;" d="M339.408,80.332c-0.752,5.324-3.252,11.352-6.008,16.712c-2.836,5.424-6.236,10.52-10.108,14.896
		c-3.872,4.364-8.244,7.996-12.752,10.188c-4.516,2.24-8.972,2.924-13.252,2.356c-6.4-0.864-12.272,3.628-13.132,10.02
		c-0.868,6.4,3.616,12.276,10.02,13.136c0.736,0.096,1.464,0.124,2.184,0.088l0.928-0.064c8.892-0.524,17.448-4.016,23.924-8.96
		c6.564-4.928,11.404-11.004,15.232-17.252c3.816-6.3,6.652-12.864,8.768-19.604c2.024-6.82,3.716-13.504,3.472-21.352
		c-0.084-2.556-2.228-4.568-4.784-4.488c-2.28,0.08-4.14,1.792-4.44,3.988L339.408,80.332z"/>
</g>
<path style="fill:#99602E;" d="M373.996,235.56c-10.52,0-20.608-1.504-29.056-5.1c-5.248-2.244-7.684-8.28-5.448-13.528
	c1.672-3.916-10.776-47.5-11.132-47.5c-5.412-0.028-9.692-3.916-10.252-9.236c-0.584-5.656,3.52-10.732,9.176-11.316
	c60.096-6.252,101.044,25.672,113.74,58.024c1.824,4.616,0.08,9.888-4.132,12.508C423.092,228.02,397.512,235.56,373.996,235.56z"/>
<path style="fill:#4D3017;" d="M373.996,217.016c-6.068,0-11.584-0.608-16.244-1.792c-0.332-14.164-7.104-36.788-11.092-48.492
	c37.064,1.376,62.776,20.08,73.968,40.324C409.016,212.336,390.98,217.016,373.996,217.016z"/>
<path style="fill:#8C582A;" d="M441.024,206.9c-12.084-30.8-49.824-61.136-105.272-58.58c47.848,2.62,80.308,30.42,91.36,58.58
	c1.824,4.62,0.084,9.892-4.128,12.508c-12.396,7.736-34.264,14.584-55.624,15.912c2.192,0.14,4.404,0.248,6.644,0.248
	c23.516,0,49.088-7.544,62.896-16.152C441.104,216.788,442.848,211.524,441.024,206.9z"/>
<path style="fill:#99602E;" d="M138.428,235.56c10.52,0,20.616-1.504,29.064-5.1c5.248-2.244,7.684-8.28,5.44-13.528
	c-1.668-3.916,10.784-47.5,11.132-47.5c5.412-0.028,9.692-3.916,10.252-9.236c0.588-5.656-3.512-10.732-9.172-11.316
	c-60.1-6.248-101.048,25.672-113.744,58.024c-1.816,4.616-0.076,9.888,4.14,12.508C89.336,228.02,114.912,235.56,138.428,235.56z"/>
<path style="fill:#8C582A;" d="M185.14,148.88c-6.816-0.712-13.36-0.868-19.66-0.644c-15.156,17.268-20.86,40.988-20.86,67.548
	c0,5.828,0.644,12.416,1.776,19.464c7.608-0.6,14.804-2.112,21.084-4.788c5.248-2.244,7.684-8.28,5.44-13.532
	c-1.668-3.916,10.784-47.5,11.132-47.5c5.412-0.028,9.692-3.916,10.252-9.232C194.908,154.54,190.8,149.468,185.14,148.88z"/>
<path style="fill:#4D3017;" d="M138.428,217.016c6.076,0,11.584-0.608,16.244-1.792c0.34-14.164,7.112-36.788,11.092-48.492
	c-37.056,1.376-62.768,20.08-73.964,40.324C103.408,212.336,121.452,217.016,138.428,217.016z"/>
<path style="fill:#FFEACC;" d="M194.38,324.044c-3.612,0-7.112-1.892-9-5.276c-18.24-32.552-31.48-75.864-31.48-102.984
	c0-53.976,23.464-96.336,102.316-96.336s102.304,42.36,102.304,96.336c0,27.152-13.24,70.476-31.468,103
	c-2.796,4.972-9.064,6.724-14.036,3.932c-4.964-2.776-108.636-2.768-113.6,0.016C197.816,323.62,196.088,324.044,194.38,324.044z"/>
<g>
	<path style="fill:#F2DEC2;" d="M188.516,322.12c1.732,1.212,3.756,1.92,5.864,1.92c1.708,0,3.436-0.42,5.036-1.312
		c2.268-1.272,25.264-1.964,49.988-2.08C224.36,320.54,197.524,321.032,188.516,322.12z"/>
	<path style="fill:#F2DEC2;" d="M256.216,119.444c-2.372,0-4.688,0.048-6.956,0.112c73.268,2.444,95.348,43.872,95.348,96.224
		c0,27.152-13.236,70.476-31.476,103c-0.768,1.384-1.836,2.48-3.052,3.34c1.5,0.188,2.544,0.388,2.936,0.592
		c4.972,2.784,11.24,1.04,14.036-3.932c18.236-32.524,31.468-75.848,31.468-103C358.52,161.804,335.068,119.444,256.216,119.444z"/>
</g>
<path style="fill:#F5F5F5;" d="M225.288,241.584c-11.372,0-20.608-9.252-20.608-20.616c0-11.376,9.244-20.608,20.608-20.608
	c11.372,0,20.616,9.244,20.616,20.608S236.656,241.584,225.288,241.584z"/>
<path style="fill:#242424;" d="M225.296,231.28c-5.688,0-10.304-4.632-10.304-10.312c0-5.684,4.616-10.304,10.304-10.304
	c5.68,0,10.304,4.62,10.304,10.304C235.6,226.648,230.968,231.28,225.296,231.28z"/>
<path style="fill:#F5F5F5;" d="M287.132,241.584c-11.368,0-20.604-9.252-20.604-20.616c0-11.376,9.244-20.608,20.604-20.608
	c11.372,0,20.62,9.244,20.62,20.608C307.752,232.332,298.496,241.584,287.132,241.584z"/>
<path style="fill:#242424;" d="M287.136,231.28c-5.696,0-10.312-4.632-10.312-10.312c0-5.684,4.616-10.304,10.312-10.304
	c5.672,0,10.304,4.62,10.304,10.304C297.448,226.648,292.808,231.28,287.136,231.28z"/>
<path style="fill:#FFE1D9;" d="M256.216,436.004c-17.064,0-34.292-4.296-51.228-12.752c-0.756-0.392-1.68-0.888-2.28-1.484
	c-9.256-9.264-10.492-13.876-10.492-21.508v-23.84c0-12.252,12.028-24.416,24.272-24.416h79.448
	c12.252,0,24.276,12.164,24.276,24.416v23.84c0,7.632-1.24,12.244-10.492,21.508c-0.6,0.596-1.416,1.092-2.176,1.484
	C290.62,431.704,273.28,436.004,256.216,436.004z"/>
<g>
	<path style="fill:#F2D6CE;" d="M295.94,351.36h-13.912c12.244,0,25.212,12.804,25.212,25.056v23.844
		c0,7.632-1.708,12.244-10.964,21.508c-0.596,0.596-1.644,1.092-2.408,1.48c-14.636,7.316-29.752,11.5-44.6,12.504
		c2.316,0.152,4.632,0.252,6.948,0.252c17.064,0,34.636-4.296,51.568-12.756c0.76-0.388,1.804-0.884,2.412-1.48
		c9.252-9.264,10.964-13.876,10.964-21.508v-23.844C321.152,364.164,308.184,351.36,295.94,351.36z"/>
	<path style="fill:#F2D6CE;" d="M295.94,351.36h-79.448c-12.252,0-25.216,12.804-25.216,25.056v23.844
		c0,1.804,0.108,3.436,0.38,5.012c21.356,10.368,43.06,15.652,64.564,15.652c21.416,0,43.252-5.252,64.536-15.532
		c0.288-1.604,0.408-3.276,0.408-5.136v-23.84C321.152,364.164,308.184,351.36,295.94,351.36z"/>
</g>
<path style="fill:#FFE1D9;" d="M256.216,411.648c-22.136,0-44.488-5.564-66.452-16.544c-0.984-0.504-0.664-1.144-1.444-1.928
	c-12.008-12.016-12.096-18-12.096-27.904v-30.92c0-15.9,12.576-34.352,28.46-34.352h103.08c15.892,0,28.46,18.452,28.46,34.352
	v30.92c0,9.904-0.084,15.888-12.096,27.904c-0.776,0.784-1.076,1.424-2.068,1.928C300.092,406.084,278.352,411.648,256.216,411.648z
	"/>
<path style="fill:#F2D6CE;" d="M307.752,300.34h-13.916c15.892,0,31.944,18.112,31.944,34.012v30.92
	c0,9.904-1.832,15.888-13.84,27.904c-0.784,0.784-1.94,1.424-2.932,1.928c-19.668,9.828-39.852,15.28-59.752,16.324
	c2.324,0.12,4.64,0.22,6.956,0.22c22.136,0,44.744-5.564,66.708-16.544c0.992-0.504,2.156-1.144,2.932-1.928
	c12.012-12.016,13.844-18,13.844-27.904v-30.92C339.7,318.452,323.64,300.34,307.752,300.34z"/>
<path style="fill:#B3746F;" d="M228.216,375.576c-5.7,0-12-4.604-12-10.3V344.66c0-5.7,6.3-10.304,12-10.304s12,4.604,12,10.304
	v20.616C240.216,370.968,233.916,375.576,228.216,375.576z"/>
<path style="fill:#99635F;" d="M284.216,375.576c-5.7,0-12-4.604-12-10.3V344.66c0-5.7,6.3-10.304,12-10.304s12,4.604,12,10.304
	v20.616C296.216,370.968,289.916,375.576,284.216,375.576z"/>
<g>
</g>
<g>
</g>
<g>
</g>
<g>
</g>
<g>
</g>
<g>
</g>
<g>
</g>
<g>
</g>
<g>
</g>
<g>
</g>
<g>
</g>
<g>
</g>
<g>
</g>
<g>
</g>
<g>
</g>
</svg>
