<?xml version="1.0" encoding="iso-8859-1"?>
<!-- Generator: Adobe Illustrator 19.0.0, SVG Export Plug-In . SVG Version: 6.00 Build 0)  -->
<svg version="1.1" id="Layer_1" xmlns="http://www.w3.org/2000/svg" xmlns:xlink="http://www.w3.org/1999/xlink" x="0px" y="0px"
	 viewBox="0 0 512 512" style="enable-background:new 0 0 512 512;" xml:space="preserve">
<circle style="fill:#2D4452;" cx="256" cy="256" r="256"/>
<path style="fill:#233540;" d="M482.064,376.156c-0.084-0.168-0.124-0.384-0.22-0.54c-0.256-0.908-0.58-1.74-0.992-2.452
	c-0.256-0.908-0.58-1.744-0.992-2.46c-0.256-0.904-0.58-1.736-0.992-2.452c-0.256-0.908-0.576-1.74-0.992-2.456
	c-0.256-0.904-0.576-1.74-0.992-2.452c-0.252-0.912-0.576-1.74-0.992-2.46c-0.252-0.908-0.576-1.744-0.992-2.464
	c-0.256-0.904-0.58-1.736-0.992-2.444c-0.256-0.908-0.58-1.736-0.992-2.452c-0.256-0.908-0.58-1.744-0.992-2.46
	c-0.256-0.904-0.58-1.736-0.992-2.452c-0.256-0.908-0.58-1.74-0.992-2.452c-0.256-0.908-0.58-1.744-0.992-2.46
	c-0.256-0.908-0.58-1.736-0.992-2.452c-0.256-0.908-0.58-1.74-0.992-2.46c-0.256-0.904-0.58-1.736-0.992-2.448
	c-0.256-0.912-0.58-1.74-0.992-2.46c-0.256-0.904-0.58-1.74-0.992-2.448c-0.256-0.912-0.58-1.744-0.992-2.46
	c-0.256-0.908-0.58-1.74-0.992-2.452c-0.256-0.916-0.58-1.752-0.996-2.468c-0.252-0.9-0.576-1.728-0.992-2.444
	c-0.252-0.908-0.576-1.74-0.992-2.46c-0.252-0.904-0.576-1.736-0.992-2.448c-0.252-0.912-0.576-1.74-0.992-2.46
	c-0.252-0.904-0.576-1.736-0.992-2.448c-0.252-0.912-0.576-1.744-0.988-2.456c-0.256-0.912-0.58-1.74-0.992-2.46
	c-0.256-0.904-0.58-1.74-0.992-2.452c-0.256-0.908-0.58-1.74-0.992-2.456c-0.256-0.908-0.58-1.74-0.992-2.452
	c-0.256-0.908-0.58-1.744-0.992-2.46c-0.256-0.908-0.58-1.736-0.992-2.452c-0.256-0.908-0.58-1.74-0.992-2.46
	c-0.256-0.908-0.58-1.744-1-2.46c-0.252-0.908-0.576-1.736-0.992-2.448c-0.252-0.904-0.576-1.74-0.992-2.448
	c-0.252-0.912-0.572-1.744-0.988-2.46c-0.256-0.908-0.576-1.74-0.992-2.452c-0.252-0.908-0.576-1.744-0.992-2.46
	c-0.252-0.908-0.576-1.736-0.992-2.452c-0.252-0.908-0.576-1.74-0.992-2.46c-0.252-0.904-0.576-1.736-0.992-2.448
	c-0.252-0.912-0.576-1.74-0.992-2.456c-0.252-0.908-0.576-1.744-0.992-2.46c-0.252-0.904-0.576-1.736-0.992-2.452
	c-0.252-0.908-0.576-1.74-0.992-2.456c-0.252-0.912-0.584-1.748-0.996-2.464c-0.256-0.904-0.576-1.732-0.992-2.448
	c-0.252-0.904-0.576-1.736-0.992-2.452c-0.252-0.908-0.576-1.74-0.992-2.46c-0.252-0.904-0.576-1.736-0.992-2.452
	c-0.252-0.908-0.576-1.74-0.992-2.46c-0.252-0.904-0.576-1.736-0.992-2.452c-0.252-0.912-0.576-1.74-0.992-2.46
	c-0.252-0.904-0.576-1.736-0.992-2.452c-0.252-0.908-0.576-1.74-0.992-2.46c-0.252-0.904-0.576-1.736-0.992-2.452
	c-0.252-0.908-0.576-1.74-0.988-2.46c-0.256-0.904-0.576-1.736-0.992-2.452c-0.252-0.908-0.576-1.74-0.992-2.456
	c-0.252-0.912-0.576-1.748-0.996-2.468c-0.256-0.9-0.58-1.728-0.992-2.444c-0.256-0.908-0.58-1.74-0.992-2.46
	c-0.256-0.904-0.58-1.736-0.992-2.452c-0.256-0.908-0.58-1.74-0.992-2.46c-0.256-0.904-0.58-1.736-0.992-2.452
	c-1.264-4.476-4.516-6.6-9.704-6.964c-0.256-0.736-0.564-1.464-0.908-2.192c-0.276-0.824-0.604-1.648-0.992-2.464
	c-0.28-0.82-0.608-1.636-0.992-2.448c-2.908-8.488-11.18-16.992-26.764-16.992c-20,0-28,12-28,24H195.14
	c-0.116-0.284-0.26-0.548-0.384-0.828c-0.296-0.836-0.632-1.644-0.984-2.436c-0.3-0.844-0.64-1.66-0.996-2.46
	c-0.3-0.84-0.636-1.652-0.992-2.452c-0.3-0.844-0.64-1.66-0.996-2.46c-0.3-0.84-0.636-1.652-0.992-2.452
	C183.168,172.24,162.46,164,144,164c-32,0-48,20.416-48,40c0,0,0,126.812,0,132c0,2.204,0.652,4.392,1.7,6.428
	c0.264,0.836,0.584,1.656,0.996,2.46c0.264,0.836,0.58,1.652,0.992,2.448c0.264,0.84,0.584,1.664,0.996,2.46
	c0.264,0.836,0.58,1.656,0.992,2.448c0.264,0.844,0.584,1.672,1,2.468c0.264,0.836,0.58,1.652,0.988,2.444
	c0.264,0.836,0.584,1.66,0.992,2.456c0.264,0.84,0.584,1.664,0.996,2.456c0.264,0.836,0.58,1.656,0.992,2.452
	c0.264,0.84,0.584,1.66,0.996,2.46c0.264,0.836,0.58,1.656,0.992,2.452c0.264,0.84,0.584,1.664,0.996,2.46
	c0.264,0.836,0.58,1.656,0.992,2.448c0.264,0.84,0.584,1.66,0.996,2.46c0.264,0.836,0.58,1.656,0.992,2.448
	c0.264,0.844,0.584,1.664,0.996,2.46c0.264,0.836,0.58,1.656,0.992,2.452c0.264,0.84,0.584,1.66,0.996,2.46
	c0.264,0.84,0.584,1.664,0.996,2.46c0.264,0.836,0.584,1.656,0.992,2.452c0.264,0.836,0.58,1.656,0.992,2.448
	c0.264,0.84,0.584,1.66,0.996,2.46c0.264,0.836,0.58,1.656,0.992,2.448c0.264,0.836,0.584,1.664,0.992,2.456
	c0.264,0.84,0.584,1.664,0.996,2.46c0.264,0.836,0.58,1.656,0.992,2.452c0.264,0.84,0.584,1.66,0.996,2.456
	c0.264,0.836,0.58,1.656,0.992,2.452c0.264,0.84,0.584,1.664,0.996,2.46c0.264,0.836,0.58,1.656,0.992,2.452
	c0.264,0.84,0.584,1.656,0.996,2.46c0.264,0.836,0.584,1.664,0.996,2.456c0.264,0.836,0.584,1.656,0.992,2.452
	c0.264,0.836,0.58,1.656,0.992,2.448c0.264,0.844,0.584,1.664,0.996,2.46c0.264,0.836,0.58,1.656,0.992,2.452
	c0.264,0.84,0.584,1.664,0.996,2.46c0.264,0.836,0.58,1.656,0.992,2.452c0.264,0.836,0.584,1.656,0.996,2.46
	c0.264,0.836,0.58,1.652,0.992,2.448c0.264,0.836,0.584,1.66,0.992,2.456c0.264,0.84,0.584,1.664,0.996,2.46
	c0.264,0.836,0.58,1.656,0.992,2.448c0.264,0.84,0.584,1.66,0.996,2.46c0.264,0.836,0.58,1.656,0.992,2.448
	c0.264,0.844,0.584,1.672,1,2.468c0.264,0.836,0.58,1.656,0.988,2.444c0.264,0.84,0.584,1.66,0.996,2.46
	c0.264,0.836,0.58,1.656,0.992,2.452c0.264,0.836,0.584,1.664,0.996,2.46c0.264,0.836,0.58,1.656,0.992,2.448
	c0.264,0.84,0.584,1.66,0.996,2.46c0.264,0.836,0.58,1.656,0.992,2.448c0.264,0.844,0.584,1.664,0.996,2.46
	c0.264,0.836,0.58,1.656,0.992,2.452c0.264,0.836,0.584,1.66,0.992,2.456c0.264,0.84,0.584,1.66,0.996,2.456
	c0.264,0.836,0.58,1.656,0.992,2.452c0.264,0.844,0.584,1.664,0.996,2.46c0.264,0.84,0.584,1.664,0.996,2.46
	c0.264,0.836,0.584,1.656,0.992,2.452c0.048,0.148,0.128,0.284,0.176,0.432C188.492,505.108,221.436,512,256,512
	C353.944,512,439.016,456.968,482.064,376.156z"/>
<g>
	<path style="fill:#E6E6E6;" d="M366,281c-5.528,0-10-4.472-10-10v-20c0-5.528,4.472-10,10-10s10,4.472,10,10v20
		C376,276.528,371.528,281,366,281z"/>
	<path style="fill:#E6E6E6;" d="M334,311c-5.528,0-10-4.472-10-10v-20c0-5.528,4.472-10,10-10s10,4.472,10,10v20
		C344,306.528,339.528,311,334,311z"/>
</g>
<path style="fill:#48B3A0;" d="M96,204c0-19.584,16-40,48-40c22.324,0,48,12,48,40h156c0-12,8-24,28-24s28,14,28,24
	c8,0,12,3.48,12,12.128c0,30-20.832,47.872-48,47.872H244l-28,28h130c25.704,0,50,24.296,50,50c0,5.528-4.472,10-10,10H112
	c-8,0-16-8-16-16C96,330.812,96,204,96,204z"/>
<g>
	<path style="fill:#3E9989;" d="M180,204h12c0-28-25.676-40-48-40c-2.172,0-4.256,0.112-6.28,0.292
		C158.484,166.176,180,178.368,180,204z"/>
	<polygon style="fill:#3E9989;" points="204,292 216,292 244,264 232,264 	"/>
	<path style="fill:#3E9989;" d="M404,204c0-10-8-24-28-24c-2.244,0-4.308,0.172-6.252,0.456C385.524,182.864,392,195.028,392,204
		c8,0,12,3.48,12,12.128c0,30-20.832,47.872-48,47.872h12c27.168,0,48-17.872,48-47.872C416,207.48,412,204,404,204z"/>
	<path style="fill:#3E9989;" d="M346,292h-12c25.704,0,50,24.296,50,50c0,5.528-4.472,10-10,10h12c5.528,0,10-4.472,10-10
		C396,316.296,371.704,292,346,292z"/>
</g>
<circle style="fill:#E6E6E6;" cx="144" cy="212" r="20"/>
<circle style="fill:#263740;" cx="144" cy="212" r="12"/>
<circle style="fill:#3E9989;" cx="376" cy="212" r="12"/>
<g>
</g>
<g>
</g>
<g>
</g>
<g>
</g>
<g>
</g>
<g>
</g>
<g>
</g>
<g>
</g>
<g>
</g>
<g>
</g>
<g>
</g>
<g>
</g>
<g>
</g>
<g>
</g>
<g>
</g>
</svg>
