<?xml version="1.0" encoding="iso-8859-1"?>
<!-- Generator: Adobe Illustrator 19.0.0, SVG Export Plug-In . SVG Version: 6.00 Build 0)  -->
<svg version="1.1" id="Layer_1" xmlns="http://www.w3.org/2000/svg" xmlns:xlink="http://www.w3.org/1999/xlink" x="0px" y="0px"
	 viewBox="0 0 512 512" style="enable-background:new 0 0 512 512;" xml:space="preserve">
<circle style="fill:#B2E3FF;" cx="256" cy="256" r="256"/>
<path style="fill:#A9D7F2;" d="M189.068,503.1c21.348,5.768,43.764,8.9,66.932,8.9c95.328,0,178.428-52.148,222.492-129.436
	c-0.048-0.096-0.084-0.212-0.128-0.312c-0.328-0.828-0.66-1.648-1-2.476c-0.316-0.812-0.644-1.62-0.98-2.428
	c-0.328-0.824-0.656-1.64-0.992-2.452c-0.328-0.828-0.656-1.64-0.992-2.452c-0.328-0.828-0.664-1.656-1-2.476
	c-0.32-0.816-0.648-1.624-0.984-2.432c-0.328-0.824-0.656-1.636-0.992-2.456c-0.328-0.82-0.656-1.64-0.992-2.448
	c-0.328-0.828-0.664-1.652-1-2.476c-0.32-0.816-0.648-1.624-0.984-2.432c-0.328-0.82-0.648-1.64-0.992-2.452
	c-0.32-0.828-0.648-1.636-0.988-2.452c-0.328-0.828-0.66-1.652-1-2.476c-0.32-0.816-0.648-1.624-0.984-2.428
	c-0.324-0.828-0.652-1.64-0.992-2.46c-0.332-0.836-0.668-1.672-1.016-2.508c-0.316-0.796-0.64-1.596-0.972-2.408
	c-0.328-0.828-0.66-1.652-1-2.476c-0.32-0.812-0.648-1.624-0.984-2.428c-0.324-0.82-0.656-1.636-0.992-2.452
	c-0.324-0.824-0.656-1.64-0.992-2.456c-0.328-0.828-0.66-1.652-1-2.472c-0.32-0.82-0.64-1.624-0.984-2.428
	c-0.32-0.824-0.648-1.64-0.984-2.456c-0.328-0.824-0.656-1.64-0.992-2.456c-0.328-0.828-0.664-1.648-1-2.476
	c-0.32-0.812-0.648-1.62-0.984-2.424c-0.328-0.824-0.656-1.64-0.992-2.456c-0.328-0.824-0.656-1.64-0.992-2.452
	c-0.328-0.828-0.656-1.64-0.992-2.46c-0.328-0.824-0.664-1.648-1-2.468c-0.32-0.816-0.648-1.624-0.984-2.428
	c-0.328-0.828-0.656-1.64-0.992-2.46c-0.324-0.82-0.656-1.64-0.992-2.452c-0.328-0.824-0.66-1.648-1-2.472
	c-0.32-0.816-0.648-1.624-0.984-2.432c-0.324-0.82-0.656-1.64-0.992-2.452c-0.324-0.824-0.656-1.64-0.992-2.452
	c-0.328-0.828-0.66-1.652-1-2.476c-0.32-0.816-0.648-1.624-0.984-2.428c-0.332-0.844-0.668-1.68-1.016-2.508
	c-0.316-0.804-0.64-1.604-0.972-2.412c-0.324-0.824-0.652-1.64-0.992-2.456c-0.328-0.828-0.66-1.648-1-2.476
	c-0.316-0.812-0.644-1.624-0.98-2.428c-0.328-0.824-0.656-1.636-0.992-2.452c-0.328-0.824-0.656-1.64-0.992-2.452
	c-0.328-0.828-0.664-1.656-1-2.476c-0.32-0.82-0.648-1.624-0.984-2.432c-0.328-0.82-0.656-1.636-0.992-2.452
	c-0.328-0.824-0.656-1.64-0.992-2.456c-0.328-0.828-0.664-1.652-1-2.476c-0.32-0.816-0.648-1.624-0.984-2.428
	c-0.328-0.824-0.652-1.64-0.988-2.456c-0.328-0.824-0.652-1.64-0.992-2.456c-0.324-0.824-0.652-1.64-0.992-2.456
	c-0.328-0.828-0.66-1.652-1-2.476c-0.32-0.812-0.648-1.62-0.984-2.428c-0.324-0.824-0.652-1.64-0.992-2.456
	c-0.324-0.824-0.652-1.64-0.992-2.456c-0.328-0.828-0.66-1.652-1-2.472c-0.32-0.816-0.648-1.624-0.984-2.432
	c-0.324-0.824-0.652-1.64-0.992-2.456c-0.324-0.824-0.652-1.64-0.992-2.456c-0.324-0.828-0.66-1.652-1-2.472
	c-0.324-0.832-0.664-1.66-1.008-2.484c-0.316-0.804-0.636-1.604-0.964-2.412c-0.328-0.824-0.656-1.64-0.992-2.456
	c-0.328-0.82-0.656-1.636-0.992-2.452c-0.328-0.828-0.664-1.652-1-2.476c-0.32-0.816-0.648-1.624-0.984-2.432
	c-0.328-0.824-0.656-1.64-0.992-2.452c-0.328-0.824-0.656-1.64-0.992-2.456c-0.328-0.828-0.664-1.652-1-2.476
	c-0.32-0.816-0.648-1.624-0.984-2.432c-0.328-0.824-0.656-1.636-0.992-2.452c-0.324-0.824-0.656-1.64-0.992-2.456
	c-0.328-0.828-0.66-1.652-1-2.476c-0.32-0.816-0.648-1.624-0.984-2.432c-0.324-0.824-0.656-1.636-0.992-2.452
	c-0.324-0.824-0.656-1.64-0.992-2.456c-0.324-0.824-0.656-1.64-0.992-2.456c-0.328-0.828-0.66-1.652-1-2.476
	c-0.32-0.816-0.648-1.62-0.984-2.428c-0.324-0.824-0.656-1.64-0.992-2.456c-0.32-0.824-0.656-1.64-0.992-2.456
	c-0.328-0.828-0.656-1.652-1-2.476c-0.32-0.816-0.648-1.62-0.984-2.428c-0.32-0.824-0.656-1.64-0.992-2.456
	c-0.32-0.824-0.656-1.64-0.992-2.456c-0.328-0.848-0.672-1.688-1.024-2.528c-0.312-0.796-0.632-1.584-0.96-2.384
	c-0.328-0.824-0.656-1.64-0.992-2.456c-0.328-0.824-0.656-1.64-0.992-2.456c-0.328-0.828-0.664-1.652-1-2.476
	c-0.32-0.812-0.644-1.62-0.984-2.428c-0.324-0.824-0.652-1.64-0.988-2.456c-0.328-0.824-0.652-1.64-0.992-2.456
	c-0.324-0.824-0.652-1.64-0.992-2.452c-0.328-0.828-0.66-1.656-1-2.476c-0.32-0.816-0.648-1.624-0.984-2.432
	c-0.324-0.824-0.652-1.636-0.992-2.456c-1.348-3.424-2.784-6.804-4.396-10.092c-1.572-3.244-4.764-5.392-8.392-5.604
	c-0.772-0.072-1.532,0-2.264,0.124c-0.296,0.052-0.588,0.112-0.892,0.196c-0.356,0.096-0.692,0.224-1.028,0.364
	c-1.932,0.752-3.644,2.056-4.816,3.86c-21.416,32.852-41.832,53.64-67.68,79.956l-3.484,3.572c-0.24-0.604-0.484-1.176-0.728-1.764
	c-0.32-0.844-0.66-1.64-0.992-2.456c-0.324-0.856-0.668-1.66-1.004-2.488c-0.316-0.832-0.652-1.612-0.98-2.416
	c-0.32-0.844-0.656-1.64-0.992-2.456c-0.32-0.844-0.656-1.64-0.992-2.456c-0.32-0.856-0.664-1.66-1-2.488
	c-0.32-0.832-0.656-1.612-0.984-2.416c-0.32-0.844-0.656-1.64-0.992-2.456c-0.32-0.844-0.656-1.64-0.992-2.456
	c-0.32-0.844-0.656-1.64-0.992-2.452c-0.32-0.86-0.664-1.66-1-2.488c-0.32-0.832-0.656-1.616-0.984-2.416
	c-0.316-0.844-0.652-1.64-0.988-2.456c-0.316-0.844-0.656-1.64-0.992-2.452c-0.32-0.86-0.664-1.66-1-2.488
	c-0.316-0.832-0.652-1.616-0.98-2.42c-0.32-0.844-0.66-1.64-0.992-2.456c-0.32-0.844-0.66-1.64-0.992-2.452
	c-0.336-0.892-0.692-1.724-1.048-2.58c-0.3-0.804-0.624-1.56-0.94-2.336c-0.32-0.844-0.66-1.64-0.992-2.456
	c-0.32-0.844-0.66-1.636-0.992-2.452c-0.324-0.86-0.668-1.66-1.004-2.488c-0.32-0.832-0.652-1.616-0.976-2.42
	c-0.32-0.844-0.664-1.64-0.992-2.456c-0.32-0.844-0.664-1.636-0.996-2.456c-0.32-0.844-0.656-1.636-0.992-2.452
	c-0.32-0.856-0.664-1.66-1-2.488c-0.32-0.832-0.656-1.616-0.984-2.416c-0.32-0.844-0.656-1.64-0.992-2.46
	c-1.296-3.4-2.664-6.584-4.092-9.5c-7.556-15.448-16.264-23.28-25.876-23.28c-0.884,0-1.72,0.148-2.524,0.36
	c-0.124,0.04-0.252,0.08-0.368,0.112c-4.108,1.248-7.108,5.012-7.108,9.528c0,0.444-2.032,46.6-47.168,93.028
	c-19.18,19.72-20.52,41.672-14.7,59.348c-12.8,1.54-22.728,12.416-22.728,25.628c0,1.724,0.176,3.396,0.496,5.02
	c0,0-0.004,0-0.008,0l-22.908,20.164L189.068,503.1z"/>
<path style="fill:#E6E6E6;" d="M173.764,286c-2.596,0-5.208-1.016-7.168-3.028c-16.416-16.88-29.96-53.144,0-83.944
	c45.14-46.424,47.168-92.584,47.168-93.028c0-5.528,4.468-10,10-10c9.604,0,18.32,7.832,25.876,23.28
	c17.264,35.312,26.664,108.3-7.984,152.852c-3.4,4.356-9.688,5.132-14.024,1.752c-4.368-3.392-42.932,5.428-46.896,9.276
	C178.792,285.064,176.284,286,173.764,286z"/>
<g>
	<path style="fill:#D9D9D9;" d="M168.736,283.168c-0.304,0.296-0.644,0.528-0.976,0.776c1.776,1.344,3.884,2.056,6,2.056
		c2.52,0,5.028-0.936,6.972-2.832c2.712-2.632,21.6-7.584,34.668-9.372C210.304,270.728,172.656,279.368,168.736,283.168z"/>
	<path style="fill:#D9D9D9;" d="M249.64,119.28C242.084,103.832,233.376,96,223.764,96c-1.868,0-3.588,0.544-5.084,1.428
		c6.908,2.896,13.256,10.2,18.956,21.852c17.26,35.312,26.664,108.296-7.984,152.852c-0.568,0.72-1.224,1.304-1.916,1.824
		c4.336,3.284,10.548,2.496,13.916-1.824C276.304,227.584,266.908,154.592,249.64,119.28z"/>
	<path style="fill:#D9D9D9;" d="M241.656,272.132c12.192-15.676,18.916-34.872,21.772-54.708
		C243.464,237.336,210.464,268,193.764,268c-3.156,0-6.876-3.256-10.812-6.728c-5.436-4.776-14.616-11.1-27.952-11.1
		c-1.748,0-3.452,0.18-5.1,0.508c2.52,13.18,9.312,24.704,16.696,32.292c1.96,2.012,4.572,3.028,7.168,3.028
		c2.52,0,5.028-0.936,6.972-2.832c3.964-3.848,42.528-12.668,46.896-9.276C231.968,277.264,238.256,276.488,241.656,272.132z"/>
</g>
<path style="fill:#EDEDED;" d="M367.564,270.708c25.5-41.64,27.624-102.936,5.196-149.084c-1.572-3.248-4.764-5.392-8.392-5.604
	c-3.648-0.324-7.04,1.512-9,4.544c-21.384,32.996-41.796,53.788-67.648,80.104l-12.664,12.948
	c-15,15.432-60.628,62.384-81.292,62.384c-3.156,0-6.876-3.256-10.812-6.728c-5.436-4.776-14.616-11.1-27.952-11.1
	c-14.264,0-25.832,11.572-25.832,25.832s11.568,25.832,25.832,25.832c2.316,0,4.548-0.332,6.684-0.908
	c3.76,5.716,4.68,13.46,7.88,20.984c6.092,14.32,14.316,33.616,47.6,35.868c0.508,1.236,0.992,2.484,1.484,3.736
	C228.728,394.944,242.084,416,303.764,416c16.1,0,28.788-2.844,37.672-8.456c9.084-5.732,14.092-14.276,14.092-24.084
	c0-19.608-19.916-37.46-41.764-37.46c-19.82,0-33.916-7.832-38.436-20.6C326.28,320.928,353.508,293.656,367.564,270.708z"/>
<g>
	<path style="fill:#D9D9D9;" d="M149.916,309.328c-0.084-0.128-0.148-0.264-0.232-0.4c-0.252,0.068-0.512,0.088-0.764,0.156
		C149.252,309.168,149.576,309.256,149.916,309.328z"/>
	<path style="fill:#D9D9D9;" d="M170.952,269.272c9.048,9.48,20.032,7.748,22.812,6.728c-5.096-0.996-8.58-4.756-10.812-6.728
		c-5.436-4.776-14.616-11.1-27.952-11.1c-1.872,0-3.696,0.212-5.452,0.584C159.372,260.384,166.824,264.944,170.952,269.272z"/>
	<path style="fill:#D9D9D9;" d="M367.564,270.708c25.5-41.64,27.624-102.936,5.196-149.084c-1.572-3.248-4.764-5.392-8.392-5.604
		c-2.452-0.22-4.752,0.596-6.608,2.044c1.248,0.936,2.304,2.116,3,3.568c22.428,46.14,20.304,107.436-5.196,149.084
		c-14.056,22.944-41.28,50.228-92.236,54.688c4.532,12.768,18.616,20.6,38.436,20.6c21.852,0,41.764,17.852,41.764,37.46
		c0,9.796-5.008,18.352-14.092,24.084c-7.956,5.024-18.992,7.812-32.776,8.344c2.3,0.072,4.652,0.108,7.104,0.108
		c16.1,0,28.788-2.844,37.672-8.452c9.084-5.736,14.092-14.28,14.092-24.084c0-19.608-19.916-37.46-41.764-37.46
		c-19.82,0-33.916-7.832-38.436-20.6C326.28,320.928,353.508,293.656,367.564,270.708z"/>
</g>
<path style="fill:#E78244;" d="M129.656,289.024l-22.908,20.164c0,0,25.24-6.984,28.74-7.86
	C139.812,296.252,134.376,289.024,129.656,289.024z"/>
<circle style="fill:#2D4452;" cx="147" cy="280.24" r="4"/>
<g>
</g>
<g>
</g>
<g>
</g>
<g>
</g>
<g>
</g>
<g>
</g>
<g>
</g>
<g>
</g>
<g>
</g>
<g>
</g>
<g>
</g>
<g>
</g>
<g>
</g>
<g>
</g>
<g>
</g>
</svg>
