<?xml version="1.0" encoding="iso-8859-1"?>
<!-- Generator: Adobe Illustrator 19.0.0, SVG Export Plug-In . SVG Version: 6.00 Build 0)  -->
<svg version="1.1" id="Layer_1" xmlns="http://www.w3.org/2000/svg" xmlns:xlink="http://www.w3.org/1999/xlink" x="0px" y="0px"
	 viewBox="0 0 512.024 512.024" style="enable-background:new 0 0 512.024 512.024;" xml:space="preserve">
<circle style="fill:#2D4452;" cx="256.012" cy="256" r="256"/>
<path style="fill:#233540;" d="M491.316,356.924c-0.256-0.664-0.54-1.312-0.796-1.976c-0.296-0.844-0.668-1.628-0.992-2.448
	c-0.296-0.852-0.672-1.64-0.996-2.468c-0.292-0.844-0.668-1.624-0.988-2.44c-0.296-0.844-0.668-1.624-0.992-2.452
	c-0.296-0.844-0.668-1.632-0.992-2.452c-0.296-0.852-0.672-1.64-0.992-2.468c-0.296-0.844-0.672-1.624-0.992-2.436
	c-0.288-0.852-0.664-1.628-0.992-2.456c-0.288-0.848-0.664-1.632-0.992-2.452c-0.288-0.844-0.664-1.632-0.984-2.456
	c-0.304-0.848-0.68-1.64-1-2.468c-0.292-0.836-0.664-1.616-0.984-2.436c-0.296-0.844-0.672-1.632-0.992-2.452
	c-0.296-0.844-0.672-1.632-0.992-2.46c-0.3-0.844-0.672-1.632-0.996-2.46c-0.296-0.844-0.668-1.62-0.988-2.44
	c-0.296-0.844-0.668-1.632-0.992-2.452c-0.296-0.844-0.668-1.628-0.992-2.456c-0.3-0.844-0.672-1.632-0.996-2.46
	c-0.296-0.844-0.668-1.624-0.988-2.444c-0.304-0.852-0.68-1.656-1.008-2.5c-0.292-0.828-0.66-1.6-0.98-2.416
	c-0.292-0.844-0.668-1.632-0.992-2.452c-0.3-0.852-0.672-1.64-0.996-2.468c-0.296-0.844-0.668-1.624-0.988-2.444
	c-0.292-0.844-0.668-1.624-0.988-2.452c-0.296-0.844-0.672-1.628-0.992-2.448c-0.296-0.852-0.672-1.64-1-2.468
	c-0.288-0.844-0.664-1.62-0.984-2.44c-0.296-0.844-0.672-1.624-0.992-2.452c-0.296-0.844-0.672-1.632-0.992-2.452
	c-0.296-0.852-0.672-1.64-0.992-2.468c-0.296-0.844-0.672-1.624-0.992-2.444c-0.292-0.844-0.664-1.62-0.992-2.448
	c-0.292-0.844-0.664-1.632-0.992-2.452c-0.292-0.844-0.664-1.628-0.988-2.456c-0.3-0.844-0.676-1.64-0.996-2.468
	c-0.296-0.836-0.668-1.616-0.988-2.436c-0.296-0.844-0.668-1.632-0.992-2.452c-0.296-0.844-0.668-1.636-0.992-2.46
	c-0.3-0.848-0.672-1.64-0.996-2.468c-0.296-0.84-0.668-1.616-0.988-2.436c-0.292-0.844-0.668-1.632-0.992-2.456
	c-0.292-0.844-0.668-1.632-0.992-2.456c-0.3-0.848-0.672-1.64-0.996-2.468c-0.304-0.852-0.676-1.644-1.004-2.48
	c-0.292-0.828-0.66-1.6-0.98-2.416c-0.296-0.844-0.668-1.632-0.992-2.456c-0.288-0.844-0.664-1.628-0.992-2.452
	c-0.296-0.848-0.672-1.64-0.992-2.468c-0.296-0.84-0.672-1.62-0.992-2.44c-0.288-0.844-0.664-1.632-0.992-2.456
	c-0.288-0.844-0.664-1.628-0.984-2.452c-0.3-0.848-0.68-1.64-1-2.468c-0.292-0.84-0.664-1.62-0.984-2.44
	c-0.296-0.844-0.672-1.632-0.992-2.456c-0.296-0.844-0.672-1.628-0.992-2.452c-0.3-0.848-0.672-1.64-0.996-2.468
	c-0.296-0.84-0.668-1.62-0.988-2.44c-0.296-0.844-0.668-1.632-0.992-2.452c-0.296-0.848-0.668-1.632-0.992-2.456
	c-0.296-0.844-0.668-1.632-0.992-2.456c-0.3-0.848-0.672-1.64-0.996-2.468c-0.296-0.84-0.668-1.616-0.988-2.436
	c-0.296-0.844-0.668-1.632-0.992-2.456c-0.296-0.844-0.668-1.632-0.992-2.456c-0.296-0.848-0.672-1.64-0.996-2.468
	c-0.292-0.84-0.668-1.616-0.988-2.436c-0.288-0.844-0.668-1.632-0.992-2.456c-0.288-0.844-0.664-1.632-0.992-2.456
	c-0.588-1.692-1.296-3.304-1.992-4.92c-0.288-0.836-0.664-1.62-0.984-2.44c-0.296-0.844-0.664-1.632-0.992-2.456
	c-0.296-0.848-0.672-1.64-0.992-2.468c-0.296-0.84-0.672-1.616-0.992-2.436c-0.292-0.844-0.664-1.632-0.992-2.456
	c-0.292-0.844-0.664-1.632-0.992-2.456c-0.292-0.844-0.664-1.628-0.988-2.452c-0.3-0.852-0.676-1.64-0.996-2.468
	c-0.296-0.84-0.668-1.62-0.988-2.44c-0.296-0.844-0.668-1.632-0.992-2.456c-2.536-7.128-5.88-13.656-10.024-19.568
	c-1.044-1.48-2.136-2.916-3.276-4.312c-0.5-0.604-1.04-1.188-1.556-1.776c-0.652-0.752-1.296-1.508-1.98-2.236
	c-0.732-0.772-1.496-1.508-2.252-2.252c-0.5-0.492-0.984-0.984-1.5-1.456c-0.936-0.872-1.916-1.708-2.916-2.536
	c-0.348-0.284-0.684-0.584-1.04-0.868c-1.18-0.952-2.4-1.868-3.632-2.752c-0.152-0.108-0.304-0.224-0.46-0.332
	C362.52,102.88,337.824,96.2,307.644,96.2H157.612c-35.324,0-61.584,24.668-61.584,60v130.144c-0.012,0-0.024,0-0.036,0l-0.764,0.04
	v89.548c0,0.092,0.084,6.42,3.488,14.212c0.292,0.796,0.624,1.616,0.992,2.452c0.296,0.804,0.632,1.632,1,2.484
	c0.292,0.788,0.62,1.592,0.984,2.42c0.292,0.804,0.624,1.616,0.992,2.46c0.292,0.792,0.624,1.612,0.992,2.448
	c0.292,0.804,0.624,1.616,0.992,2.46c0.296,0.792,0.632,1.62,1,2.472c0.292,0.788,0.62,1.6,0.984,2.428
	c0.292,0.796,0.624,1.616,0.992,2.452c0.292,0.804,0.624,1.616,0.992,2.46c0.3,0.82,0.648,1.672,1.028,2.54
	c0.284,0.764,0.604,1.564,0.96,2.368c0.288,0.804,0.62,1.616,0.992,2.46c0.288,0.796,0.62,1.608,0.992,2.452
	c0.292,0.804,0.624,1.632,1,2.476c0.288,0.784,0.616,1.596,0.98,2.424c0.292,0.804,0.624,1.616,0.992,2.46
	c0.292,0.792,0.624,1.604,0.992,2.448c0.296,0.804,0.628,1.632,1,2.476c0.292,0.788,0.62,1.6,0.984,2.428
	c0.292,0.804,0.624,1.616,0.992,2.46c0.292,0.796,0.624,1.608,0.992,2.452c0.292,0.792,0.624,1.612,0.992,2.448
	c0.296,0.804,0.628,1.632,1,2.484c0.292,0.788,0.62,1.596,0.984,2.424c0.292,0.796,0.624,1.608,0.992,2.452
	c0.292,0.796,0.624,1.616,0.992,2.452c0.296,0.804,0.624,1.632,1,2.484c0.288,0.788,0.616,1.6,0.984,2.428
	c0.288,0.796,0.62,1.604,0.992,2.448c0.288,0.796,0.62,1.616,0.992,2.452c0.292,0.804,0.624,1.632,1,2.484
	c0.288,0.784,0.616,1.588,0.98,2.416c0.292,0.804,0.624,1.616,0.992,2.46c0.292,0.796,0.624,1.616,0.992,2.452
	c0.3,0.82,0.64,1.664,1.02,2.524c0.288,0.78,0.616,1.592,0.976,2.416c0.14,0.38,0.312,0.764,0.468,1.156
	c35.824,19.084,76.7,29.92,120.116,29.92C361.552,512,452.152,448.116,491.316,356.924z"/>
<path style="fill:#FFEACC;" d="M347.596,416h-200c-16.88,0-30.748-4.608-39.676-13.688c-11.068-11.288-11.908-24.976-11.908-26.5
	V156.004c0-35.332,26.256-60,61.584-60h150c42.424,0,74.084,13.132,91.532,37.976c22.076,31.444,21.364,80.376-2.124,145.416
	c-1.504,4.156-5.592,6.916-10,6.584c-4.42-0.264-8.152-3.416-9.148-7.744c-8.092-35.06-22.344-67.668-69.744-71.796
	c3.82,40.252,27.852,94.164,46.304,132.476c25.196,52.3,0.68,73.836-0.38,74.72C352.248,415.164,349.956,416,347.596,416z"/>
<path style="fill:#F2DEC2;" d="M308.348,208.384c-3.84-0.848-7.852-1.552-12.244-1.928c3.824,40.252,27.852,94.16,46.308,132.472
	c25.196,52.296,0.68,73.836-0.38,74.712c-1.792,1.528-4.084,2.372-6.44,2.372h12c2.368,0,4.648-0.844,6.44-2.372
	c1.06-0.876,25.576-22.416,0.38-74.712C336.256,301.212,312.732,248.416,308.348,208.384z"/>
<path style="fill:#242424;" d="M217.592,185.044c-16.016,0-29.044-13.028-29.044-29.048c0-16.016,13.028-29.044,29.044-29.044
	c16.024,0,29.052,13.028,29.052,29.044C246.636,172.02,233.608,185.044,217.592,185.044z"/>
<path style="fill:#FFD464;" d="M217.596,180.004c-13.252,0-24-10.76-24-24c0-13.232,10.752-24,24-24s24,10.768,24,24
	C241.596,169.24,230.84,180.004,217.596,180.004z"/>
<path style="fill:#242424;" d="M217.596,168.004c-6.624,0-12-5.392-12-12s5.376-12,12-12c6.612,0,12,5.392,12,12
	S224.212,168.004,217.596,168.004z"/>
<path style="fill:#FFC066;" d="M317.848,96.416c-19.764,44.512-10.664,99.616-9.744,110.04c47.4,4.124,61.64,36.74,69.744,71.796
	c0.996,4.32,4.728,7.468,9.148,7.74c4.408,0.336,8.496-2.42,10-6.584c23.488-65.044,24.2-113.972,2.124-145.416
	C383.128,111.204,355.084,98.408,317.848,96.416z"/>
<path style="fill:#FFD599;" d="M399.128,201.668c-0.064,0-0.112,0-0.172-0.004c-2.212-0.088-3.916-1.952-3.828-4.16
	c0.888-21.564-3.276-39.068-12.376-52.032c-10.752-15.3-29.196-24.752-54.812-28.08c-2.196-0.28-3.744-2.288-3.448-4.476
	c0.284-2.196,2.268-3.76,4.48-3.448c27.552,3.576,48.416,14.432,60.332,31.408c10.128,14.436,14.768,33.6,13.816,56.956
	C403.032,199.984,401.264,201.668,399.128,201.668z"/>
<path style="fill:#F2B661;" d="M399.12,133.98c-15.992-22.772-44.044-35.58-81.272-37.572c-0.152,0.344-0.28,0.688-0.428,1.032
	c31.484,3.828,55.416,16.192,69.712,36.54c22.076,31.444,21.364,80.376-2.124,145.416c-0.676,1.868-1.892,3.42-3.4,4.572
	c1.536,1.156,3.388,1.896,5.4,2.02c4.408,0.328,8.496-2.42,10-6.584C420.484,214.356,421.196,165.424,399.12,133.98z"/>
<path style="fill:#99602E;" d="M147.596,416.804c-17.372,0-31.28-4.82-40.248-13.928c-12-12.244-12.14-26.916-12.14-27.064v-89.548
	l0.764-0.04c1-0.04,2.008-0.064,3.016-0.064c5.916,0,11.18,0.704,14.084,1.884c10.812,3.584,18.108,13.772,18.108,25.336
	c0,2.416,1.836,4.376,4.092,4.376c2.248,0,4.076-1.96,4.076-4.376c0-14.688,11.8-26.64,26.3-26.64
	c14.488,0,26.272,11.952,26.272,26.64c0,2.416,1.836,4.376,4.092,4.376c2.252,0,4.08-1.96,4.08-4.376
	c0-14.688,11.788-26.64,26.284-26.64c14.492,0,26.284,11.952,26.284,26.64c0,2.416,1.836,4.376,4.084,4.376
	c2.252,0,4.084-1.96,4.084-4.376c0-14.688,11.792-26.64,26.284-26.64s26.268,11.952,26.268,26.64c0,2.416,1.836,4.376,4.096,4.376
	c1.416,0,2.384-0.76,2.832-1.228c0.808-0.844,1.252-1.96,1.252-3.148c0-3.288,1.492-6.328,4.196-8.54
	c1.924-2.444,5.188-3.584,9.752-3.584c0.656,0,1.324,0.024,2.004,0.076l0.488,0.032l0.196,0.44
	c4.908,11.288,10.428,23.312,16.916,36.764c25.548,53.056,0.492,74.78-0.584,75.68c-1.928,1.64-4.416,2.556-6.952,2.556H147.596
	L147.596,416.804z"/>
<path style="fill:#8C582A;" d="M355.14,338.58c-1.404-2.908-2.848-5.944-4.316-9.048c-0.264-0.58-0.54-1.148-0.808-1.728
	c-1.232-2.608-2.472-5.28-3.732-8.008c-0.1-0.22-0.212-0.436-0.304-0.656c-2.636-5.74-5.308-11.672-7.956-17.78l-0.484-0.032
	c-0.68-0.048-1.348-0.072-2.004-0.072c-4.556,0-7.804,1.136-9.736,3.58c5.408,12.344,10.896,24.056,15.896,34.436
	c25.012,51.924,0.872,72.884-0.172,73.752c-1.656,1.408-3.76,2.172-5.924,2.172v1.6h12c2.552,0,5.024-0.912,6.952-2.556
	C355.628,413.352,380.684,391.624,355.14,338.58z"/>
<g>
</g>
<g>
</g>
<g>
</g>
<g>
</g>
<g>
</g>
<g>
</g>
<g>
</g>
<g>
</g>
<g>
</g>
<g>
</g>
<g>
</g>
<g>
</g>
<g>
</g>
<g>
</g>
<g>
</g>
</svg>
