<?xml version="1.0" encoding="iso-8859-1"?>
<!-- Generator: Adobe Illustrator 19.0.0, SVG Export Plug-In . SVG Version: 6.00 Build 0)  -->
<svg version="1.1" id="Layer_1" xmlns="http://www.w3.org/2000/svg" xmlns:xlink="http://www.w3.org/1999/xlink" x="0px" y="0px"
	 viewBox="0 0 512 512" style="enable-background:new 0 0 512 512;" xml:space="preserve">
<circle style="fill:#2D4452;" cx="256" cy="256" r="256"/>
<path style="fill:#233540;" d="M459.28,411.532c-0.104-0.08-0.196-0.184-0.312-0.244c0.124-0.352,0.192-0.728,0.108-1.104
	c-0.132-0.628-0.568-1.088-1.1-1.352c0.124-0.348,0.192-0.724,0.108-1.104c-0.132-0.624-0.568-1.084-1.1-1.352
	c0.124-0.344,0.192-0.716,0.108-1.092c-0.132-0.628-0.568-1.092-1.1-1.36c0.124-0.344,0.192-0.72,0.108-1.096
	c-0.132-0.628-0.568-1.088-1.1-1.352c0.128-0.348,0.192-0.724,0.108-1.104c-0.132-0.624-0.564-1.084-1.1-1.352
	c0.128-0.348,0.192-0.72,0.108-1.1c-0.132-0.624-0.564-1.088-1.1-1.352c0.128-0.352,0.192-0.724,0.112-1.1
	c-0.136-0.628-0.568-1.092-1.104-1.352c0.128-0.352,0.196-0.728,0.112-1.1c-0.136-0.624-0.568-1.092-1.104-1.352
	c0.132-0.348,0.196-0.728,0.112-1.1c-0.136-0.632-0.568-1.088-1.104-1.356c0.132-0.348,0.196-0.72,0.112-1.104
	c-0.136-0.62-0.568-1.084-1.104-1.352c0.132-0.344,0.196-0.72,0.112-1.096c-0.136-0.628-0.568-1.088-1.104-1.352
	c0.128-0.348,0.196-0.724,0.112-1.1c-0.136-0.628-0.568-1.088-1.104-1.352c0.132-0.348,0.196-0.724,0.112-1.104
	c-0.136-0.624-0.568-1.084-1.104-1.352c0.132-0.348,0.196-0.72,0.112-1.1c-0.136-0.624-0.568-1.088-1.104-1.352
	c0.132-0.352,0.196-0.72,0.112-1.1c-0.136-0.628-0.564-1.092-1.104-1.352c0.132-0.348,0.196-0.72,0.112-1.1
	c-0.136-0.624-0.568-1.088-1.104-1.352c0.132-0.348,0.196-0.724,0.112-1.1c-0.136-0.628-0.568-1.088-1.104-1.352
	c0.132-0.352,0.204-0.724,0.116-1.104c-0.14-0.624-0.572-1.088-1.108-1.356c0.132-0.344,0.204-0.72,0.116-1.096
	c-0.14-0.628-0.572-1.088-1.108-1.352c0.132-0.352,0.204-0.724,0.116-1.104c-0.14-0.624-0.572-1.088-1.1-1.352
	c0.124-0.348,0.192-0.724,0.108-1.1c-0.14-0.624-0.568-1.084-1.1-1.352c0.124-0.344,0.192-0.72,0.108-1.1
	c-0.14-0.624-0.568-1.084-1.1-1.352c0.124-0.348,0.192-0.72,0.108-1.1c-0.14-0.624-0.568-1.092-1.1-1.352
	c0.124-0.352,0.192-0.724,0.108-1.1c-0.132-0.632-0.568-1.092-1.1-1.352c0.124-0.344,0.192-0.724,0.108-1.1
	c-0.132-0.628-0.568-1.088-1.1-1.352c0.128-0.352,0.192-0.72,0.108-1.104c-0.132-0.62-0.564-1.088-1.1-1.352
	c0.128-0.348,0.192-0.724,0.108-1.096c-0.132-0.632-0.564-1.092-1.1-1.356c0.128-0.352,0.192-0.724,0.112-1.104
	c-0.136-0.624-0.568-1.088-1.104-1.352c0.128-0.344,0.196-0.72,0.112-1.096c-0.136-0.628-0.568-1.088-1.104-1.352
	c0.128-0.348,0.196-0.724,0.112-1.104c-0.136-0.624-0.568-1.084-1.104-1.352c0.128-0.348,0.196-0.72,0.112-1.1
	c-0.136-0.624-0.568-1.088-1.096-1.352c0.12-0.352,0.188-0.724,0.104-1.1c-0.136-0.628-0.568-1.092-1.096-1.352
	c0.12-0.344,0.188-0.724,0.104-1.1c-0.136-0.628-0.568-1.084-1.096-1.352c0.12-0.348,0.188-0.72,0.104-1.104
	c-0.136-0.62-0.576-1.084-1.096-1.352c0.12-0.348,0.188-0.72,0.104-1.096c-0.128-0.628-0.576-1.092-1.096-1.352
	c0.124-0.352,0.196-0.728,0.104-1.104c-0.128-0.628-0.576-1.092-1.096-1.356c0.132-0.344,0.196-0.72,0.104-1.1
	c-0.128-0.624-0.564-1.084-1.096-1.352c0.124-0.344,0.188-0.72,0.104-1.1c-0.128-0.624-0.568-1.084-1.096-1.352
	c0.132-0.348,0.196-0.72,0.108-1.1c-0.132-0.624-0.572-1.088-1.1-1.352c0.132-0.352,0.196-0.724,0.108-1.1
	c-0.236-1.084-1.296-1.764-2.384-1.54l-0.02,0.008c-0.488,0.1-0.98,0.176-1.468,0.264c-0.284-0.72-0.584-1.42-0.872-2.14
	c-0.336-0.844-0.676-1.672-1.016-2.508c-0.32-0.804-0.644-1.596-0.968-2.408c-0.328-0.824-0.66-1.636-0.992-2.456
	c-0.328-0.824-0.66-1.636-0.992-2.456c-0.336-0.836-0.676-1.672-1.016-2.508c-0.32-0.804-0.644-1.592-0.968-2.404
	c-0.328-0.824-0.66-1.636-0.992-2.456c-0.328-0.82-0.656-1.632-0.992-2.452c-0.32-0.828-0.656-1.632-0.984-2.452
	c-0.352-0.868-0.704-1.728-1.052-2.584c-0.312-0.78-0.628-1.556-0.94-2.328c-0.328-0.828-0.656-1.64-0.992-2.46
	c-0.328-0.816-0.656-1.628-0.992-2.448c-0.336-0.84-0.672-1.672-1.016-2.508c-0.32-0.804-0.64-1.6-0.968-2.412
	c-0.328-0.82-0.656-1.632-0.992-2.452c-0.328-0.824-0.656-1.632-0.992-2.452c-0.336-0.84-0.672-1.676-1.016-2.508
	c-0.32-0.808-0.64-1.6-0.968-2.408c-0.324-0.828-0.656-1.64-0.988-2.456c-0.328-0.82-0.66-1.632-0.992-2.452
	c-0.328-0.824-0.66-1.636-0.992-2.456c-0.344-0.864-0.7-1.72-1.044-2.584c-0.312-0.776-0.628-1.556-0.944-2.332
	c-0.328-0.824-0.66-1.632-0.992-2.452c-0.328-0.824-0.66-1.636-0.992-2.456c-0.336-0.84-0.676-1.672-1.016-2.508
	c-0.32-0.804-0.644-1.6-0.968-2.408c-0.328-0.82-0.656-1.632-0.992-2.452c-0.328-0.824-0.656-1.636-0.992-2.456
	c-0.336-0.84-0.672-1.676-1.016-2.508c-0.32-0.808-0.64-1.6-0.968-2.408c-0.328-0.824-0.656-1.632-0.992-2.452
	c-0.328-0.824-0.656-1.636-0.992-2.456c-0.336-0.84-0.672-1.672-1.016-2.508c-0.32-0.804-0.64-1.6-0.968-2.408
	c-0.336-0.848-0.68-1.684-1.016-2.524c-0.32-0.796-0.648-1.588-0.968-2.392c-0.328-0.824-0.652-1.636-0.988-2.456
	c-0.34-0.84-0.676-1.672-1.02-2.508c-0.32-0.804-0.636-1.596-0.96-2.404c-0.328-0.824-0.66-1.636-0.992-2.456
	c-20.96-52.804-50.96-91.164-87.524-106.664c-1.792-0.5-3.612-0.916-5.44-1.292c-0.404-0.084-0.804-0.16-1.208-0.24
	c-10.104-1.924-20.62-1.772-30.708,2.264c-0.032,0-0.064-0.004-0.096-0.004c-56.664,0-103.884,51.572-130.44,135.252
	c-6.028,0.668-12.344,2.628-17.472,6.644c-5.752,4.38-9.26,11.584-9.452,18.508c-0.244,3.392,0.384,7.036,0.948,9.904
	c0.544,3.016,1.048,6.044,1.44,9.044c0.708,5.936,1.388,12.164-1.076,16.94c-0.472,0.924-0.164,2.088,0.74,2.636
	c0.06,0.036,0.124,0.036,0.184,0.072c-0.316,0.884-0.016,1.892,0.808,2.392c0.06,0.04,0.124,0.044,0.184,0.072
	c-0.316,0.884-0.016,1.9,0.808,2.4c0.056,0.032,0.124,0.032,0.18,0.068c-0.312,0.876-0.012,1.892,0.812,2.392
	c0.06,0.036,0.124,0.036,0.184,0.068c-0.316,0.884-0.016,1.896,0.808,2.396c0.06,0.036,0.124,0.044,0.184,0.076
	c-0.316,0.876-0.016,1.892,0.808,2.392c0.06,0.036,0.124,0.04,0.184,0.072c-0.312,0.884-0.016,1.892,0.812,2.392
	c0.056,0.04,0.124,0.04,0.18,0.072c-0.312,0.884-0.016,1.896,0.812,2.396c0.056,0.036,0.124,0.036,0.18,0.068
	c-0.12,0.336-0.152,0.688-0.088,1.028c-3.504,26.424-5.364,54.668-5.364,84.392c0,1.732,0.496,3.336,1.292,4.752
	c0.212,0.876,0.56,1.692,0.992,2.452c0.212,0.884,0.564,1.696,0.996,2.464c0.212,0.872,0.56,1.68,0.988,2.44
	c0.212,0.88,0.56,1.692,0.992,2.452c0.216,0.884,0.564,1.696,1,2.468c0.212,0.868,0.56,1.68,0.988,2.444
	c0.216,0.884,0.564,1.696,0.996,2.46c0.212,0.872,0.56,1.68,0.988,2.444c0.212,0.876,0.56,1.688,0.992,2.452
	c0.212,0.876,0.56,1.696,0.992,2.456c0.216,0.88,0.564,1.696,0.996,2.456c0.212,0.88,0.56,1.68,0.988,2.444
	c0.212,0.876,0.56,1.696,0.992,2.456c0.212,0.88,0.56,1.692,0.992,2.456c0.216,0.88,0.564,1.696,0.996,2.46
	c0.212,0.872,0.56,1.68,0.988,2.44c0.212,0.88,0.56,1.692,0.992,2.456c0.212,0.876,0.56,1.692,0.992,2.452
	c0.216,0.884,0.564,1.704,1,2.468c0.212,0.876,0.56,1.68,0.988,2.436c0.212,0.876,0.56,1.692,0.992,2.456
	c0.212,0.876,0.56,1.692,0.992,2.456c0.212,0.876,0.56,1.688,0.992,2.452c0.212,0.884,0.564,1.696,0.996,2.46
	c0.212,0.876,0.56,1.68,0.988,2.444c0.212,0.876,0.56,1.692,0.992,2.452c0.212,0.876,0.56,1.696,0.992,2.452
	c0.048,0.204,0.164,0.368,0.224,0.564C162.284,498.544,207.568,512,256,512C338.868,512,412.5,472.584,459.28,411.532z"/>
<path style="fill:#6B7777;" d="M256,253.552L256,253.552L256,253.552L256,253.552L256,253.552L256,253.552L256,253.552L256,253.552
	L256,253.552L256,253.552L256,253.552L256,253.552L256,253.552L256,253.552L256,253.552L256,253.552L256,253.552L256,253.552z"/>
<path style="fill:#B3B3B3;" d="M332.4,142c-24.584-25.592-53.116-40.052-83.404-40.052c-56.664,0-103.884,51.572-130.44,135.252
	c-6.028,0.668-12.344,2.628-17.472,6.644c-5.752,4.38-9.26,11.584-9.452,18.512c-0.244,3.388,0.384,7.036,0.948,9.904
	c0.544,3.016,1.048,6.04,1.44,9.04c0.708,5.936,1.388,12.164-1.076,16.944c-0.472,0.92-0.164,2.084,0.74,2.632
	c0.944,0.58,2.176,0.268,2.752-0.676c1.832-3.028,2.54-6.54,2.776-9.784c0.244-3.276,0.104-6.468-0.108-9.624
	c-0.228-3.152-0.556-6.264-0.928-9.376c-0.432-3.232-0.688-5.764-0.352-8.572c0.54-5.452,3.328-10.196,7.636-13.132
	c3.04-2.076,6.62-3.28,10.448-3.86c-13.14,44.892-20.548,98.344-20.548,157.696c0,5.532,4.612,10,10.316,10h50.016h6.8
	c1.388-24,19.124-43,40.868-43c21.74,0,39.48,19,40.864,43h17.136h40.32c5.704,0,10.316-4.468,10.316-10
	c0-74.084,8.976-102.772,21.68-123.4L332.4,142z"/>
<g>
	<path style="fill:#A6A6A6;" d="M189.04,370.556c-21.74,0-39.48,19-40.864,43h7.516h6.8c1.232-21.304,15.352-38.624,33.708-42.26
		C193.872,370.824,191.488,370.556,189.04,370.556z"/>
	<path style="fill:#A6A6A6;" d="M332.4,142c-24.584-25.592-53.116-40.052-83.404-40.052c-2.392,0-4.756,0.12-7.112,0.308
		c27.596,2.096,53.568,16.192,76.192,39.744l1.276,138.152c-12.708,20.62-21.68,49.316-21.68,123.404c0,5.524-4.612,10-10.316,10
		h14.316c5.708,0,10.316-4.476,10.316-10c0-74.084,8.976-102.772,21.68-123.404L332.4,142z"/>
	<path style="fill:#A6A6A6;" d="M278.444,109.22c-22.34-6.212-47.752-4-66.42,28c-15.384,26.38-33.516,103.4-4.332,138.332
		c23.668,28.328,65.332,32,117.984,12.596c0.7,0.904,1.424,1.856,2.148,2.812c1.84-3.916,3.792-7.476,5.852-10.812l-1.168-125.868
		C316.752,133.276,298.6,117.76,278.444,109.22z"/>
</g>
<path style="fill:#B3B3B3;" d="M381.9,413.556h14.94c0.068,0,0.14-0.012,0.208,0c5.704,0,10.312-4.476,10.312-10
	c0-0.688-0.072-1.372-0.204-2.016c-0.492-146.588-47.46-269.268-120.712-300.32c-22.344-6.212-47.752-4-66.42,28
	c-15.384,26.38-33.516,103.4-4.332,138.332c23.668,28.328,65.332,32,117.984,12.596c15.304,19.68,37.904,53.144,37.904,123.404
	C371.58,409.08,376.192,413.556,381.9,413.556z"/>
<path style="fill:#A6A6A6;" d="M407.156,401.54c-0.492-146.588-47.46-269.268-120.712-300.32c-7.94-2.212-16.276-3.312-24.564-2.424
	c4.252,0.436,8.452,1.284,12.564,2.424c73.252,31.052,120.22,153.732,120.712,300.32c0.132,0.644,0.204,1.328,0.204,2.016
	c0,5.524-4.608,10-10.312,10h11.792c0.068,0,0.14-0.012,0.208,0c5.704,0,10.312-4.476,10.312-10
	C407.36,402.868,407.288,402.184,407.156,401.54z"/>
<circle style="fill:#F5F5F5;" cx="291.86" cy="187.052" r="8"/>
<circle style="fill:#242424;" cx="291.86" cy="187.052" r="4"/>
<path style="fill:#F5F5F5;" d="M307.208,265.66c3.2,9.02,9.988,16.852,18.224,23.448c8.252,6.572,17.868,11.844,27.968,15.932
	c10.124,4.08,20.82,6.996,31.736,8.512c10.892,1.48,22.084,1.624,32.856-0.7l0.02-0.004c1.084-0.232,2.148,0.456,2.384,1.54
	c0.22,1.016-0.392,2.032-1.368,2.336c-11.152,3.456-22.92,4.352-34.536,3.812c-11.624-0.576-23.176-2.648-34.412-6.04
	c-11.22-3.428-22.164-8.168-32.28-14.836c-5.056-3.348-9.892-7.2-14.256-11.752c-4.336-4.468-8.312-10.008-11.02-15.812
	l-0.176-0.376c-1.872-4.028-0.124-8.804,3.908-10.684c4.024-1.876,8.804-0.12,10.68,3.904
	C307.024,265.18,307.124,265.42,307.208,265.66z"/>
<g>
</g>
<g>
</g>
<g>
</g>
<g>
</g>
<g>
</g>
<g>
</g>
<g>
</g>
<g>
</g>
<g>
</g>
<g>
</g>
<g>
</g>
<g>
</g>
<g>
</g>
<g>
</g>
<g>
</g>
</svg>
