<?xml version="1.0" encoding="iso-8859-1"?>
<!-- Generator: Adobe Illustrator 19.0.0, SVG Export Plug-In . SVG Version: 6.00 Build 0)  -->
<svg version="1.1" id="Layer_1" xmlns="http://www.w3.org/2000/svg" xmlns:xlink="http://www.w3.org/1999/xlink" x="0px" y="0px"
	 viewBox="0 0 512 512" style="enable-background:new 0 0 512 512;" xml:space="preserve">
<circle style="fill:#F2CF61;" cx="256" cy="256" r="256"/>
<path style="fill:#E6C45C;" d="M472.048,393.256c-0.212-0.688-0.436-1.368-0.804-1.984c-0.216-0.868-0.544-1.688-0.992-2.456
	c-0.22-0.86-0.544-1.684-0.992-2.46c-0.22-0.856-0.54-1.676-0.992-2.448c-0.212-0.86-0.54-1.68-0.992-2.448
	c-0.212-0.864-0.54-1.684-0.992-2.456c-0.22-0.86-0.54-1.688-0.988-2.46c-0.224-0.856-0.544-1.676-0.992-2.444
	c-0.216-0.86-0.544-1.688-0.992-2.452c-0.216-0.86-0.544-1.684-0.992-2.456c-0.216-0.86-0.544-1.684-0.992-2.456
	c-0.224-0.86-0.544-1.688-0.992-2.46c-0.224-0.852-0.544-1.672-0.992-2.44c-0.212-0.86-0.54-1.684-0.992-2.456
	c-0.212-0.86-0.54-1.684-0.992-2.452c-0.216-0.86-0.54-1.688-0.992-2.456c-0.216-0.864-0.54-1.676-0.992-2.448
	c-0.212-0.86-0.54-1.684-0.988-2.452c-0.216-0.864-0.544-1.688-0.992-2.46c-0.22-0.86-0.544-1.688-0.992-2.452
	c-0.22-0.868-0.548-1.692-1-2.464c-0.22-0.852-0.544-1.672-0.984-2.44c-0.22-0.86-0.548-1.68-0.992-2.452
	c-0.22-0.86-0.548-1.688-0.992-2.452c-0.224-0.86-0.548-1.688-0.992-2.46c-0.22-0.856-0.54-1.676-0.992-2.444
	c-0.212-0.86-0.54-1.688-0.992-2.456c-0.212-0.864-0.54-1.684-0.992-2.452c-0.22-0.86-0.54-1.684-0.992-2.456
	c-0.22-0.86-0.54-1.68-0.992-2.452c-0.212-0.86-0.54-1.68-0.992-2.448c-0.212-0.864-0.54-1.688-0.992-2.456
	c-0.22-0.86-0.54-1.688-0.992-2.46c-0.22-0.852-0.54-1.672-0.992-2.444c-0.212-0.86-0.54-1.688-0.992-2.452
	c-0.212-0.864-0.54-1.684-0.992-2.452c-0.212-0.864-0.54-1.688-0.992-2.46c-0.216-0.86-0.54-1.688-0.992-2.456
	c-0.216-0.856-0.54-1.676-0.992-2.444c-0.212-0.864-0.54-1.684-0.992-2.456c-0.212-0.86-0.54-1.68-0.992-2.452
	c-0.216-0.86-0.54-1.688-0.992-2.46c-0.216-0.856-0.54-1.676-0.992-2.444c-0.212-0.86-0.54-1.684-0.992-2.452
	c-0.212-0.86-0.54-1.688-0.992-2.456c-0.216-0.872-0.54-1.7-1-2.476c-0.216-0.852-0.54-1.668-0.984-2.424
	c-0.212-0.864-0.54-1.688-0.992-2.46c-0.212-0.86-0.54-1.68-0.992-2.452c-0.22-0.86-0.54-1.684-0.988-2.456
	c-0.224-0.86-0.544-1.68-0.992-2.448c-0.216-0.86-0.544-1.68-0.992-2.452c-0.216-0.86-0.544-1.688-0.992-2.456
	c-0.216-0.86-0.544-1.684-0.992-2.448c-0.224-0.868-0.544-1.688-0.992-2.46c-0.224-0.856-0.54-1.676-0.992-2.448
	c-0.212-0.86-0.54-1.684-0.992-2.456c-0.252-1.032-0.64-2.032-1.248-2.928c-2.096-3.176-4.272-6.248-6.492-9.244
	c-0.688-0.924-1.392-1.812-2.084-2.728c-1.584-2.08-3.188-4.108-4.824-6.084c-0.788-0.96-1.592-1.916-2.412-2.856
	c-1.676-1.944-3.388-3.84-5.104-5.688c-0.736-0.776-1.444-1.58-2.188-2.344c-2.452-2.536-4.936-4.992-7.492-7.32
	c-0.008-0.004-0.012-0.008-0.016-0.012c-2.6-2.38-5.264-4.612-7.976-6.76c-0.68-0.544-1.372-1.044-2.064-1.572
	c-2.04-1.564-4.088-3.068-6.188-4.496c-0.844-0.58-1.688-1.136-2.54-1.692c-2.08-1.356-4.18-2.636-6.312-3.86
	c-0.756-0.436-1.524-0.9-2.304-1.324c-2.836-1.552-5.712-3.012-8.62-4.32c-0.044-0.016-0.076-0.036-0.104-0.052
	c-15.608-6.976-32.396-10.432-50.1-9.692c-0.148,0.008-0.292,0.02-0.444,0.028c-0.72-0.8-1.444-1.588-2.172-2.376
	c-0.092-0.1-0.188-0.208-0.28-0.304c-0.648-0.7-1.296-1.384-1.952-2.064c-0.136-0.152-0.28-0.3-0.424-0.448
	c-0.636-0.656-1.284-1.296-1.924-1.928c-0.164-0.16-0.32-0.32-0.484-0.48c-0.648-0.616-1.296-1.228-1.952-1.82
	c-0.164-0.148-0.328-0.304-0.5-0.448c-0.652-0.584-1.32-1.148-1.988-1.704c-0.176-0.132-0.34-0.276-0.512-0.416
	c-0.68-0.544-1.36-1.06-2.048-1.56c-0.172-0.12-0.344-0.252-0.516-0.376c-0.704-0.488-1.412-0.948-2.116-1.396
	c-0.172-0.104-0.344-0.212-0.516-0.316c-0.728-0.428-1.452-0.832-2.196-1.208c-0.172-0.088-0.344-0.172-0.516-0.252
	c-0.752-0.368-1.516-0.7-2.28-1.004c-0.172-0.064-0.344-0.12-0.508-0.188c-0.788-0.288-1.584-0.548-2.4-0.76
	c-0.164-0.048-0.328-0.084-0.492-0.12c-0.828-0.204-1.672-0.38-2.528-0.5c-0.144-0.024-0.292-0.036-0.448-0.056
	c-0.884-0.112-1.764-0.192-2.68-0.216c-0.124,0-0.256,0.008-0.4,0.008c-0.936-0.008-1.9,0.024-2.872,0.124
	c-0.088,0.008-0.192,0.028-0.272,0.036c-1.024,0.112-2.076,0.276-3.128,0.516c-0.008,0-0.008,0-0.008,0
	c-0.992,0.228-1.988,0.46-3.024,0.796c-20,6.5-56.332,28.652-57.664,34.332c-0.104,4.984-0.22,8.912-0.712,14.056
	c-11.988,7.428-23.916,16.248-31.964,21.796c-5.204-9.388-26.9-46.772-58.072-41.668c-0.024,0.004-0.044,0.004-0.068,0.008h0.004
	c-0.288,0.052-0.572,0.08-0.86,0.128c-17.336,3.296-18.088,11.116-14.236,19.524c0.28,0.812,0.616,1.632,0.992,2.456
	c0.28,0.816,0.616,1.636,0.996,2.468c0.276,0.804,0.612,1.62,0.988,2.436c0.28,0.816,0.62,1.64,1,2.472
	c0.276,0.804,0.612,1.62,0.988,2.44c0.276,0.812,0.612,1.632,0.992,2.456c0.28,0.812,0.616,1.632,0.996,2.464
	c0.276,0.804,0.612,1.62,0.988,2.44c0.276,0.812,0.612,1.632,0.992,2.456c0.276,0.812,0.612,1.632,0.992,2.456
	c0.28,0.808,0.616,1.632,0.996,2.464c0.276,0.804,0.612,1.62,0.988,2.44c0.276,0.812,0.612,1.632,0.992,2.456
	c0.276,0.812,0.612,1.632,0.992,2.456c0.28,0.812,0.616,1.632,0.996,2.464c0.276,0.804,0.612,1.62,0.988,2.44
	c0.28,0.816,0.616,1.64,1,2.472c0.276,0.804,0.612,1.62,0.988,2.436c0.28,0.812,0.616,1.636,0.996,2.468
	c0.196,0.576,0.412,1.144,0.66,1.724c1.636,19.74-2.1,39.876-6.292,51.528c-2.484,6.9-2.484,10.072-1.02,11.168
	c0.04,1.248,0.404,2.024,0.996,2.476c0.044,1.24,0.408,2.008,0.992,2.448c0.044,1.24,0.408,2.008,0.992,2.452
	c0.044,1.24,0.408,2.008,0.992,2.456c0.044,1.24,0.408,2.004,0.996,2.444c0.04,1.248,0.404,2.012,0.992,2.464
	c0.044,1.24,0.408,2.008,0.992,2.452c0.044,1.236,0.408,2.008,0.992,2.452c0.044,1.236,0.408,2.004,0.992,2.452
	c0.044,1.24,0.408,2.004,0.992,2.452c0.044,1.244,0.408,2.008,0.992,2.456c0.044,1.24,0.408,2.004,0.992,2.452
	c0.044,1.24,0.408,2.004,0.992,2.448c0.044,1.244,0.408,2.008,0.992,2.46c0.044,1.24,0.408,2.008,0.992,2.452
	c0.044,1.236,0.408,2.004,0.992,2.452c0.044,1.236,0.408,2.008,0.996,2.452c0.044,1.236,0.404,2,0.992,2.444
	c0.044,1.244,0.404,2.016,0.996,2.456c0.044,1.24,0.408,2.008,0.992,2.456c0.044,1.24,0.408,2.008,0.992,2.452
	c0.044,1.244,0.408,2.008,0.992,2.456c0.044,1.24,0.408,2.004,0.992,2.456c0.044,1.236,0.408,2.008,0.992,2.452
	c0.044,1.24,0.408,2,0.992,2.452c0.044,1.24,0.408,2,0.992,2.452c0.044,1.236,0.408,2.004,0.992,2.456
	c0.044,1.236,0.408,2.008,0.992,2.448c0.044,1.24,0.408,2.008,0.992,2.452c0.044,1.244,0.408,2.008,0.992,2.456
	c0.044,1.232,0.408,2,0.992,2.448c0.044,1.24,0.408,2.008,0.996,2.452c0.044,1.244,0.408,2.008,0.992,2.456
	c0.044,1.24,0.408,2.004,0.992,2.456c0.044,1.236,0.408,2.004,0.992,2.452c0.044,1.24,0.408,2.008,0.992,2.452
	c0.044,1.244,0.408,2.008,0.992,2.456c0.044,1.24,0.408,2.004,0.992,2.448c0.044,1.24,0.408,2.008,0.992,2.452
	c0.044,1.244,0.408,2.008,0.992,2.456c0.044,1.24,0.408,2.008,0.992,2.456c0.044,1.236,0.408,2.004,0.996,2.452
	c0.044,1.232,0.404,2,0.992,2.444c0.044,1.244,0.404,2.008,0.992,2.452c0.044,1.244,0.404,2.008,0.992,2.456
	c0.044,1.236,0.408,2.008,0.996,2.448c0.04,1.248,0.404,2.016,0.992,2.46c0.044,1.244,0.408,2.004,0.992,2.456
	c0.044,1.24,0.408,2.004,0.992,2.456c0.044,1.236,0.408,2.008,0.992,2.452c0.044,1.24,0.408,2.008,0.992,2.448
	c0.044,1.24,0.408,2.004,0.992,2.456c0.044,1.244,0.408,2.004,0.992,2.452c0.044,1.24,0.408,2.008,0.992,2.46
	c0.044,1.236,0.408,2,0.992,2.444c0.044,1.236,0.408,2,0.992,2.444c0.044,1.244,0.404,2.008,0.992,2.46
	c0.044,1.24,0.404,2.008,0.992,2.448c0.044,1.24,0.408,2.004,0.992,2.452c0.044,1.248,0.404,2.008,0.996,2.456
	c0.04,1.244,0.404,2.008,0.992,2.46c0.044,1.24,0.408,2.008,0.992,2.452c0.044,1.244,0.408,2.008,0.992,2.456
	c0.044,1.24,0.408,2.004,0.992,2.448c0.044,1.24,0.408,2.008,0.992,2.456c0.044,1.24,0.408,2.004,0.992,2.452
	c0.044,1.24,0.408,2.008,0.996,2.456c0.044,1.232,0.404,1.992,0.992,2.444c0.044,1.24,0.404,2.008,0.992,2.452
	c0.044,1.244,0.404,2.008,0.992,2.452c0.044,1.244,0.404,2.008,0.992,2.452c0.044,1.244,0.408,2.008,0.992,2.452
	c0.012,0.328,0.1,0.548,0.156,0.808C201.348,507.488,228.14,512,256,512C346.86,512,426.6,464.616,472.048,393.256z"/>
<path style="fill:#263740;" d="M301.668,185.832c-13-14.5-25.668-30-45.668-23.5s-56.332,28.652-57.664,34.332
	c-0.168,7.832-0.336,13-2.004,24.5C222.668,207.332,301.668,185.832,301.668,185.832z"/>
<path style="fill:#1E2C33;" d="M259.02,161.536c11.976,2.812,21.24,13.796,30.648,24.296c0,0-59.656,16.24-92.568,29.572
	c-0.22,1.756-0.46,3.62-0.768,5.76c26.336-13.832,105.336-35.332,105.336-35.332C289.336,172.08,277.292,157.46,259.02,161.536z"/>
<path style="fill:#263740;" d="M251.332,301.332C246.668,311.5,235,322.456,238.5,327.708c11.624,7,42.752,7.88,53,7.124
	c6.148-0.448,4.832-28.836,10.5-34.668C290.668,302.664,251.332,301.332,251.332,301.332z"/>
<path style="fill:#1E2C33;" d="M289.084,301.416c-4.62,7.788-3.792,33-9.584,33.416c-0.564,0.044-1.22,0.076-1.908,0.104
	c5.796,0.196,10.812,0.116,13.908-0.104c6.148-0.448,4.832-28.836,10.5-34.668C299.128,300.796,294.46,301.184,289.084,301.416z"/>
<path style="fill:#CC584C;" d="M165.664,232.516c9.336-6.436,23.892-17.28,37.7-25.248c22.136-12.768,60.804-25.104,94.24-26.508
	c46.904-1.968,87.252,25.424,116.828,70.036c1.492,2.244,1.944,5.02,1.252,7.624c-0.692,2.604-2.472,4.776-4.884,5.992l-1.984,0.992
	l1.984,0.996c2.86,1.436,4.792,4.228,5.144,7.412c0.352,3.18-0.944,6.088-3.424,8.096c-1.352,1.096-30.516,27.964-90.056,30.088
	c-17.044,0.604-50.084,1-68.224-0.76c-26.984-2.612-55.132-11.164-85.176-23.328L165.664,232.516z"/>
<path style="fill:#E67368;" d="M190.528,238.448c-1.28,0-2.54-0.612-3.316-1.752c-1.24-1.828-0.764-4.316,1.064-5.556
	c32.588-22.112,76.752-37.54,109.892-38.4c2.196-0.112,4.04,1.692,4.096,3.904c0.06,2.208-1.688,4.044-3.904,4.096
	c-31.736,0.816-74.172,15.696-105.6,37.016C192.084,238.228,191.3,238.448,190.528,238.448z"/>
<path style="fill:#BF5347;" d="M410.796,266.408l-1.984-0.992l1.984-0.992c2.412-1.216,4.192-3.388,4.884-5.992
	c0.696-2.604,0.244-5.392-1.252-7.624c-29.584-44.608-69.932-72.008-116.836-70.04c-0.524,0.024-1.076,0.072-1.596,0.092
	c42.464,2.18,79.068,28.668,106.432,69.936c1.484,2.244,1.936,5.02,1.252,7.624c-0.692,2.604-2.472,4.776-4.884,5.992l-1.984,0.992
	l1.984,0.992c2.86,1.432,4.796,4.22,5.148,7.408c0.348,3.18-0.948,6.092-3.428,8.1c-1.352,1.092-30.516,27.96-90.056,30.084
	c-6.392,0.228-15.024,0.42-24.276,0.492c13.516,0.092,27.176-0.168,36.276-0.492c59.54-2.124,88.704-28.992,90.056-30.084
	c2.48-2.008,3.776-4.92,3.428-8.1C415.592,270.62,413.656,267.84,410.796,266.408z"/>
<path style="fill:#263740;" d="M415.944,273.804c-0.352-3.184-2.288-5.964-5.148-7.408l-1.984-0.992l1.984-0.992
	c2.412-1.216,4.192-3.388,4.884-5.992c0.696-2.604,0.244-5.392-1.252-7.624c-18.416-27.756-40.992-48.844-66.736-60.344
	c-14.704,9.752-29.024,32.236-30.204,56.136c-1.212,24.384,1.34,46.404,23.392,63.84c47.104-6.18,70.42-27.552,71.624-28.532
	C414.996,279.908,416.292,276.984,415.944,273.804z"/>
<path style="fill:#1E2C33;" d="M410.796,266.408l-1.984-0.992l1.984-0.992c2.412-1.216,4.192-3.388,4.884-5.992
	c0.696-2.604,0.244-5.392-1.252-7.624c-18.416-27.756-40.992-48.844-66.736-60.344c-1.584,1.06-3.18,2.288-4.752,3.632
	c22.732,12.032,42.82,31.596,59.468,56.712c1.492,2.244,1.944,5.02,1.252,7.624s-2.472,4.776-4.888,5.992l-1.972,0.992l1.98,0.992
	c2.864,1.432,4.796,4.224,5.148,7.408c0.352,3.18-0.944,6.092-3.424,8.092c-1.112,0.916-21.224,19.256-61.56,26.9
	c0.64,0.544,1.248,1.092,1.916,1.632c47.112-6.18,70.428-27.548,71.632-28.532c2.48-2,3.768-4.916,3.424-8.092
	C415.592,270.62,413.656,267.84,410.796,266.408z"/>
<path style="fill:#EDEDED;" d="M375.532,237.176c0,8.836-7.156,16-16.004,16c-8.844,0-15.996-7.164-15.996-16s7.152-16,15.996-16
	C368.376,221.176,375.532,228.34,375.532,237.176z"/>
<circle style="fill:#242424;" cx="359.52" cy="237.16" r="8"/>
<path style="fill:#263740;" d="M165.664,232.516c-5.256-9.48-27.328-47.552-58.996-41.532s-8.032,27.132-2,39.352
	c12.668,25.664,7.312,62.528,0.988,80.092c-6.324,17.572,3.344,11.108,12.676,7.18c9.332-3.936,46.124-6.124,50.728-29.704
	C173.664,264.332,165.664,232.516,165.664,232.516z"/>
<path style="fill:#1E2C33;" d="M165.664,232.516c-5.208-9.396-26.932-46.836-58.14-41.66c25,4.152,42.716,33,46.14,41.66
	c5.1,12.912,8.004,31.82,3.4,55.4s-41.396,25.756-50.728,29.704c-0.892,0.376-1.784,0.764-2.668,1.176
	c-0.052,6.432,7.392,1.896,14.668-1.176c9.332-3.936,46.124-6.124,50.728-29.704S165.664,232.516,165.664,232.516z"/>
<g>
</g>
<g>
</g>
<g>
</g>
<g>
</g>
<g>
</g>
<g>
</g>
<g>
</g>
<g>
</g>
<g>
</g>
<g>
</g>
<g>
</g>
<g>
</g>
<g>
</g>
<g>
</g>
<g>
</g>
</svg>
