<?xml version="1.0" encoding="iso-8859-1"?>
<!-- Generator: Adobe Illustrator 19.0.0, SVG Export Plug-In . SVG Version: 6.00 Build 0)  -->
<svg version="1.1" id="Layer_1" xmlns="http://www.w3.org/2000/svg" xmlns:xlink="http://www.w3.org/1999/xlink" x="0px" y="0px"
	 viewBox="0 0 512 512" style="enable-background:new 0 0 512 512;" xml:space="preserve">
<circle style="fill:#C2D5D8;" cx="256" cy="256" r="256"/>
<g>
	<polygon style="fill:#F5F5F5;" points="251.028,445.928 246.672,446.804 252.784,454.708 	"/>
	<path style="fill:#F5F5F5;" d="M241.956,459.64l10.448,52.268c1.204,0.016,2.392,0.092,3.596,0.092c2.752,0,5.472-0.12,8.2-0.208
		l-6.312-31.552L241.956,459.64z"/>
	<path style="fill:#F5F5F5;" d="M257.892,480.24l23.588,30.492c4.488-0.444,8.944-0.988,13.364-1.664l-42.056-54.364L257.892,480.24
		z"/>
	<polygon style="fill:#F5F5F5;" points="246.672,446.804 244.136,443.528 234.976,450.616 241.956,459.64 239.672,448.212 	"/>
	<polygon style="fill:#F5F5F5;" points="252.784,454.708 246.672,446.804 239.672,448.212 241.956,459.64 257.892,480.24 	"/>
</g>
<path style="fill:#D9B455;" d="M171.736,160.848c-0.044,0.14-0.068,0.308-0.096,0.452c0.076-0.096,0.144-0.2,0.216-0.312
	c0.048-0.06,0.084-0.14,0.124-0.216C171.9,160.788,171.82,160.82,171.736,160.848z"/>
<path style="fill:#EE8E88;" d="M302.168,276.172c-25.052,0.064-46.336,14.968-65.112,28.12
	c-17.28,12.096-32.368,23.22-43.908,17.028c-1.656-0.884-4.376-2.676-5.016-4.416c-7.1-19.072,42.124-83.7,40.044-162.504
	l-33.152,0.112c0,64.208-103.152,136.14-103.152,197.448c0,11.82,2.764,22.864,9.476,32.78
	c25.352,44.252,59.292,49.908,87.112,50.624c12.396,11.924,43.064,20.392,79.028,20.392c35.852,0,66.44-8.416,78.904-20.276h57.188
	c8.008,0,14.484-6.476,14.484-14.48C418.064,349.264,359.628,276.172,302.168,276.172z"/>
<g>
	<path style="fill:#D9817C;" d="M170.752,316.908c0.648,1.748,3.36,3.54,5.024,4.416c4.968,2.672,10.608,2.104,16.788-0.348
		c-1.648-0.944-3.856-2.508-4.424-4.072c-7.1-19.072,42.12-83.7,40.044-162.504l-17.384,0.064
		C212.856,233.24,163.652,297.84,170.752,316.908z"/>
	<path style="fill:#D9817C;" d="M258.8,455.58c2.86,0.108,5.748,0.196,8.688,0.196c35.852,0,66.44-8.416,78.904-20.28h-17.38
		C317.572,446.384,290.836,454.348,258.8,455.58z"/>
	<path style="fill:#D9817C;" d="M302.168,276.172c-2.904,0.008-5.752,0.236-8.56,0.608c54.46,6.916,107.072,76.156,107.072,144.224
		c0,8.004-6.476,14.48-14.484,14.48h17.384c8.008,0,14.484-6.476,14.484-14.48C418.064,349.264,359.628,276.172,302.168,276.172z"/>
</g>
<path style="fill:#EE8E88;" d="M149.756,84.268C151.208,71.952,174.564,60,186.332,60c7.964,0,28.964,0,28.964,0
	c43.304,0,68.076,22.744,68.076,57.4c0,31.872-34.432,42.364-55.18,43.072l-51.512,0.244L149.756,84.268z"/>
<path style="fill:#D9817C;" d="M228.192,161.368c20.748-0.708,55.18-11.472,55.18-43.336c0-34.656-24.772-57.936-68.076-57.936
	c0,0-8.948,0-17.384,0c43.312,0,68.08,23.272,68.08,57.928c0,31.864-34.428,42.628-55.18,43.336L228.192,161.368z"/>
<path style="fill:#F5F5F5;" d="M149.756,83.732c-6.788,0-40.556,24.804-50.688,30.956c-10.14,6.156-10.5,32.948-10.864,52.14
	c-0.364,19.188,0.724,44.532,7.964,44.532s17.684-34.032,22.78-38.38c5.092-4.344,52.416-12.668,57.724-12.668
	s17.252-21.728,12.916-37.296C185.252,107.444,167.868,83.732,149.756,83.732z"/>
<path style="fill:#242424;" d="M126.476,130.144c-8.592,3.368-19.704,2.592-34.344-4.5c-3.424,11.204-3.68,27.992-3.92,41.184
	c-0.364,19.188,0.728,44.532,7.964,44.532c6.44,0,15.412-26.884,20.904-35.888C112.752,159.22,117.4,149.3,126.476,130.144z"/>
<circle style="fill:#F5F5F5;" cx="187.3" cy="87.656" r="11.584"/>
<circle style="fill:#242424;" cx="187.296" cy="87.656" r="5.792"/>
<g>
</g>
<g>
</g>
<g>
</g>
<g>
</g>
<g>
</g>
<g>
</g>
<g>
</g>
<g>
</g>
<g>
</g>
<g>
</g>
<g>
</g>
<g>
</g>
<g>
</g>
<g>
</g>
<g>
</g>
</svg>
