<?xml version="1.0" encoding="iso-8859-1"?>
<!-- Generator: Adobe Illustrator 19.0.0, SVG Export Plug-In . SVG Version: 6.00 Build 0)  -->
<svg version="1.1" id="Layer_1" xmlns="http://www.w3.org/2000/svg" xmlns:xlink="http://www.w3.org/1999/xlink" x="0px" y="0px"
	 viewBox="0 0 513.596 513.596" style="enable-background:new 0 0 513.596 513.596;" xml:space="preserve">
<circle style="fill:#C2D5D8;" cx="256.798" cy="256" r="256"/>
<path style="fill:#198058;" d="M376.798,255.992h-240c-2.812,0-5.5,1.192-7.392,3.28c-20.42,22.432-32.608,52.82-32.608,81.252
	v115.252c43.832,35.148,99.44,56.228,160,56.228c60.564,0,116.168-21.08,160-56.228v-115.26c0-28.408-12.188-58.78-32.592-81.244
	C382.306,257.188,379.618,255.992,376.798,255.992z"/>
<path style="fill:#109963;" d="M369.798,294.54v-16.384c0-39.112-51.752-12.156-113-12.156s-113-26.956-113,12.156l0.016,16.376
	c-9.36,4.236-14.728,12.468-14.728,27.468l0.096,157.384l0.204,0.344l0.496,0.416c38.584,21.9,82.468,33.452,126.916,33.452
	c44.444,0,88.468-11.64,127.512-33.788l0.2-0.108V322C384.51,307.008,379.15,298.772,369.798,294.54z"/>
<path style="fill:#1E9969;" d="M112.798,424c-2.212,0-4-1.788-4-4v-79.476c0-24.548,10.348-51.14,27.68-71.148
	c1.452-1.664,3.976-1.844,5.644-0.4c1.668,1.436,1.848,3.968,0.404,5.64c-16.108,18.588-25.728,43.228-25.728,65.908V420
	C116.798,422.212,115.01,424,112.798,424z"/>
<path style="fill:#146646;" d="M376.798,255.992h-12c2.82,0,5.508,1.192,7.408,3.288c20.408,22.452,32.592,52.828,32.592,81.244
	v124.288c4.084-2.908,8.092-5.916,12-9.04V340.516c0-28.408-12.188-58.78-32.592-81.244
	C382.306,257.188,379.618,255.992,376.798,255.992z"/>
<path style="fill:#198058;" d="M385.742,211.524c-10.492-20.976-57.612-65.532-128.944-65.532s-118.456,44.556-128.944,65.532
	c-4.296,7.52-11.056,23.42-11.056,34.468c0,48.796,64.108,90,140,90s140-41.212,140-90
	C396.798,234.944,390.042,219.044,385.742,211.524z"/>
<path style="fill:#13B374;" d="M256.798,336c47.4,0,90.2-16.08,115.656-40.04c-0.852-0.5-1.72-1-2.656-1.42v-16.384
	c0-39.112-51.752-12.156-113-12.156s-113-26.956-113,12.156l0.016,16.376c-0.936,0.42-1.812,0.92-2.676,1.428
	C166.594,319.92,209.398,336,256.798,336z"/>
<path style="fill:#146646;" d="M385.742,211.524c-10.492-20.976-57.612-65.532-128.944-65.532c-2.024,0-4.016,0.048-6,0.116
	c67.968,2.4,112.752,45.028,122.944,65.412c4.3,7.524,11.056,23.424,11.056,34.472c0,47.5-60.756,87.804-134,89.904
	c1.992,0.064,3.988,0.092,6,0.092c75.892,0,140-41.212,140-90C396.798,234.944,390.042,219.044,385.742,211.524z"/>
<path style="fill:#12A66B;" d="M372.454,295.96c-0.852-0.5-1.72-1-2.656-1.42v-8.752c-22.428,28.36-67.628,48.64-119,50.108
	c1.992,0.064,3.988,0.092,6,0.092C304.198,336,346.998,319.92,372.454,295.96z"/>
<path style="fill:#FFC066;" d="M166.798,215.992c-22.06,0-40-17.94-40-40s17.94-40,40-40s40,17.94,40,40
	S188.858,215.992,166.798,215.992z"/>
<g>
	<path style="fill:#FFD599;" d="M149.81,165.496l-8.044-9.384c-4.356,5.452-6.968,12.364-6.968,19.88
		c0,0.788,0.064,1.56,0.116,2.332h12.112c-0.084-0.772-0.232-1.532-0.232-2.332C146.798,172.132,147.902,168.544,149.81,165.496z"/>
	<path style="fill:#FFD599;" d="M157.758,158.256c2.156-1.084,4.532-1.8,7.04-2.06V144.1c-5.492,0.34-10.6,2.088-15.004,4.864
		L157.758,158.256z"/>
</g>
<path style="fill:#242424;" d="M166.798,161.552c-13.444,0-28.56,5.56-33.332,14.44c4.772,8.888,19.888,14.44,33.332,14.44
	c13.224,0,27.888-5.892,33.332-14.44C194.686,167.444,180.022,161.552,166.798,161.552z"/>
<path style="fill:#333333;" d="M134.89,173.856c-0.048,0.712-0.092,1.42-0.092,2.14c0,0.732,0.06,1.444,0.108,2.16
	c0.044,0.06,0.084,0.112,0.132,0.172h11.988c-0.084-0.772-0.232-1.532-0.232-2.332c0-3.86,1.104-7.452,3.012-10.496l-0.756-0.888
	C143.07,166.736,137.938,169.9,134.89,173.856z"/>
<path style="fill:#F5F5F5;" d="M166.798,215.992c-22.06,0-40-17.94-40-40s17.94-40,40-40s40,17.94,40,40
	S188.858,215.992,166.798,215.992z"/>
<path style="fill:#242424;" d="M166.798,161.552c-13.444,0-28.56,5.56-33.332,14.44c4.772,8.888,19.888,14.44,33.332,14.44
	c13.224,0,27.888-5.892,33.332-14.44C194.686,167.444,180.022,161.552,166.798,161.552z"/>
<path style="fill:#333333;" d="M134.89,173.856c-0.048,0.712-0.092,1.42-0.092,2.14c0,0.732,0.06,1.444,0.108,2.16
	c0.044,0.06,0.084,0.112,0.132,0.172h11.988c-0.084-0.772-0.232-1.532-0.232-2.332c0-3.86,1.104-7.452,3.012-10.496l-0.756-0.888
	C143.07,166.736,137.938,169.9,134.89,173.856z"/>
<path style="fill:#F5F5F5;" d="M346.798,215.992c-22.064,0-40-17.94-40-40s17.936-40,40-40s40,17.94,40,40
	S368.862,215.992,346.798,215.992z"/>
<path style="fill:#242424;" d="M346.798,161.552c-13.444,0-28.564,5.56-33.332,14.44c4.768,8.888,19.888,14.44,33.332,14.44
	c13.228,0,27.892-5.892,33.332-14.44C374.69,167.444,360.026,161.552,346.798,161.552z"/>
<path style="fill:#333333;" d="M314.89,173.856c-0.048,0.712-0.092,1.42-0.092,2.14c0,0.732,0.064,1.444,0.108,2.16
	c0.044,0.06,0.084,0.112,0.132,0.172h11.984c-0.084-0.772-0.232-1.532-0.232-2.332c0-3.86,1.104-7.452,3.012-10.496l-0.756-0.888
	C323.07,166.736,317.938,169.9,314.89,173.856z"/>
<path style="fill:#242424;" d="M359.934,255.1c-11.096-4.064-27.82-1.552-48.036,1.528c-16.564,2.52-35.32,5.372-55.1,5.372
	c-19.784,0-38.548-2.852-55.1-5.372c-20.216-3.08-36.932-5.584-48.036-1.528c-1.22,0.44-3.612,2.956-2.516,5.688
	c0.488,1.212,3.668,2.46,4.652,2.056c9.008-3.712,25.708-1.196,44.696,1.696c16.836,2.564,35.916,5.46,56.304,5.46
	c20.392,0,39.468-2.908,56.304-5.46c18.984-2.892,35.688-5.408,44.696-1.696c0.984,0.416,4.164-0.844,4.652-2.056
	C363.55,258.056,361.154,255.544,359.934,255.1z"/>
<g>
</g>
<g>
</g>
<g>
</g>
<g>
</g>
<g>
</g>
<g>
</g>
<g>
</g>
<g>
</g>
<g>
</g>
<g>
</g>
<g>
</g>
<g>
</g>
<g>
</g>
<g>
</g>
<g>
</g>
</svg>
