<?xml version="1.0" encoding="iso-8859-1"?>
<!-- Generator: Adobe Illustrator 19.0.0, SVG Export Plug-In . SVG Version: 6.00 Build 0)  -->
<svg version="1.1" id="Layer_1" xmlns="http://www.w3.org/2000/svg" xmlns:xlink="http://www.w3.org/1999/xlink" x="0px" y="0px"
	 viewBox="0 0 512 512" style="enable-background:new 0 0 512 512;" xml:space="preserve">
<circle style="fill:#2D4452;" cx="256" cy="256" r="256"/>
<path style="fill:#233540;" d="M499.384,335.416c-0.176-0.416-0.296-0.868-0.512-1.256c-0.216-0.884-0.572-1.692-0.996-2.464
	c-0.212-0.872-0.568-1.68-0.984-2.44c-0.216-0.876-0.576-1.688-0.992-2.452c-0.216-0.884-0.576-1.688-0.992-2.456
	c-0.22-0.88-0.576-1.692-1-2.456c-0.212-0.88-0.568-1.688-0.984-2.444c-0.216-0.884-0.576-1.688-0.992-2.456
	c-0.22-0.888-0.58-1.7-1.008-2.472c-0.212-0.872-0.564-1.676-0.976-2.436c-0.22-0.884-0.58-1.688-1-2.46
	c-0.212-0.876-0.572-1.68-0.984-2.444c-0.22-0.884-0.572-1.688-0.992-2.456c-0.22-0.876-0.572-1.688-0.992-2.448
	c-0.22-0.888-0.58-1.696-0.996-2.464c-0.216-0.872-0.576-1.684-0.988-2.444c-0.22-0.876-0.572-1.688-0.992-2.448
	c-0.22-0.888-0.572-1.696-0.992-2.46c-0.22-0.876-0.572-1.688-0.996-2.456c-0.212-0.88-0.568-1.684-0.988-2.448
	c-0.216-0.88-0.572-1.688-0.992-2.452c-0.216-0.88-0.568-1.688-0.992-2.452c-0.216-0.884-0.568-1.688-0.992-2.456
	c-0.216-0.88-0.572-1.692-0.992-2.46c-0.216-0.876-0.572-1.684-0.992-2.44c-0.216-0.884-0.568-1.696-0.992-2.456
	c-0.216-0.88-0.568-1.688-0.992-2.456c-0.216-0.88-0.572-1.692-0.992-2.46c-0.216-0.876-0.572-1.684-0.992-2.44
	c-0.216-0.88-0.568-1.692-0.992-2.456c-0.212-0.884-0.568-1.688-0.984-2.456c-0.22-0.88-0.58-1.692-1-2.456
	c-0.212-0.88-0.572-1.684-0.984-2.444c-0.22-0.888-0.58-1.704-1.008-2.472c-0.212-0.872-0.564-1.68-0.98-2.44
	c-0.216-0.88-0.576-1.688-0.992-2.456c-0.224-0.88-0.576-1.692-0.996-2.456c-0.212-0.88-0.572-1.688-0.988-2.448
	c-0.216-0.88-0.576-1.688-0.992-2.456c-0.216-0.876-0.576-1.688-0.992-2.456c-0.216-0.88-0.576-1.692-0.996-2.46
	c-0.212-0.876-0.572-1.684-0.988-2.444c-0.212-0.876-0.576-1.688-0.992-2.456c-0.212-0.88-0.572-1.688-0.992-2.452
	c-0.216-0.884-0.572-1.696-0.996-2.46c-0.212-0.876-0.568-1.684-0.984-2.448c-0.216-0.88-0.576-1.688-0.992-2.456
	c-0.216-0.876-0.576-1.688-0.992-2.452c-0.216-0.884-0.576-1.692-0.992-2.456c-0.22-0.88-0.576-1.692-1-2.46
	c-0.212-0.876-0.568-1.684-0.984-2.448c-0.212-0.88-0.576-1.688-0.992-2.452c-0.212-0.88-0.576-1.692-0.992-2.456
	c-0.22-0.88-0.576-1.692-0.992-2.464c-0.22-0.872-0.572-1.68-0.988-2.444c-0.216-0.876-0.576-1.688-0.992-2.452
	c-0.216-0.884-0.576-1.688-0.992-2.456c-0.216-0.88-0.576-1.692-0.996-2.46c-0.22-0.884-0.58-1.696-1-2.464
	c-0.212-0.872-0.572-1.676-0.984-2.436c-0.22-0.876-0.572-1.688-0.992-2.456c-0.216-0.88-0.572-1.688-0.992-2.456
	c-0.216-0.88-0.572-1.692-0.996-2.46c-0.212-0.876-0.568-1.684-0.988-2.444c-0.216-0.884-0.568-1.688-0.992-2.456
	c-0.216-0.876-0.568-1.688-0.992-2.456c-0.216-0.88-0.572-1.692-0.992-2.46c-0.216-0.876-0.572-1.684-0.992-2.444
	c-0.216-0.876-0.568-1.688-0.992-2.456c-0.216-0.88-0.568-1.688-0.992-2.456c-0.216-0.88-0.572-1.692-0.992-2.456
	c-0.216-0.88-0.572-1.684-0.992-2.448c-0.212-0.88-0.568-1.688-0.984-2.456c-0.22-0.876-0.576-1.688-0.992-2.456
	c-0.22-0.88-0.576-1.688-0.992-2.452c-0.22-0.884-0.58-1.696-0.996-2.46c-0.216-0.876-0.576-1.684-0.988-2.448
	c-0.22-0.88-0.572-1.688-0.992-2.456c-0.22-0.876-0.572-1.688-0.992-2.452c-0.22-0.884-0.58-1.696-0.996-2.464
	c-0.216-0.872-0.576-1.68-0.988-2.444c-0.22-0.876-0.572-1.688-0.992-2.456c-0.216-0.88-0.572-1.688-0.992-2.452
	c-0.216-0.892-0.58-1.704-1.004-2.48c-0.216-0.868-0.568-1.668-0.984-2.428c-0.212-0.88-0.576-1.688-0.992-2.456
	c-0.212-0.876-0.572-1.688-0.988-2.452c-0.22-0.884-0.576-1.692-1-2.464c-0.212-0.872-0.568-1.68-0.984-2.444
	c-0.216-0.876-0.576-1.688-0.992-2.452c-0.216-0.884-0.576-1.692-0.992-2.456c-0.216-0.876-0.576-1.688-0.992-2.456
	c-0.22-0.88-0.576-1.692-0.992-2.464c-0.22-0.872-0.576-1.68-0.992-2.44c-0.212-0.88-0.576-1.688-0.992-2.456
	c-1.064-4.4-5.016-7.652-9.72-7.652c-0.14,0-4.016,0.008-9.96,0.212h0.008c-17.508,0.596-53.136,2.88-65.732,11.56
	c-1.832,1.26-3.152,3.104-3.816,5.204c-0.1-0.228-0.18-0.464-0.288-0.688c-0.268-0.844-0.584-1.68-1.008-2.48
	c-0.26-0.828-0.58-1.644-0.984-2.428c-0.26-0.836-0.584-1.664-0.992-2.452c-0.26-0.836-0.584-1.664-0.988-2.456
	c-0.264-0.84-0.584-1.668-0.996-2.464c-0.264-0.832-0.58-1.656-0.988-2.44c-0.26-0.836-0.584-1.664-0.992-2.456
	c-0.26-0.836-0.584-1.664-0.992-2.456c-0.26-0.836-0.584-1.664-0.992-2.456c-0.26-0.84-0.584-1.668-0.996-2.464
	c-0.264-0.828-0.58-1.652-0.988-2.44c-0.26-0.836-0.584-1.664-0.992-2.456c-0.56-1.756-1.412-3.456-2.628-4.98
	c-5.32-6.612-14.992-7.668-21.6-2.352c-5.22,4.192-6.96,11.116-4.868,17.092c1.032,2.904,0.976,5.5,0.656,8.024
	c-0.368,2.508-0.696,5.028-1.14,7.512c-0.548,3.216-1.252,6.392-2.032,9.54c-5.416-1.064-10.992-1.644-16.676-1.644
	c-1.856,0-3.68,0.156-5.512,0.276c-0.176-0.456-0.372-0.908-0.584-1.34c-0.252-0.844-0.592-1.66-0.992-2.456
	c-0.256-0.856-0.604-1.68-1.008-2.484c-0.252-0.832-0.588-1.64-0.98-2.42c-0.256-0.844-0.592-1.66-0.992-2.456
	c-0.256-0.844-0.592-1.66-0.992-2.456c-0.256-0.848-0.596-1.668-1-2.46c-0.252-0.844-0.584-1.652-0.984-2.444
	c-0.252-0.844-0.588-1.66-0.992-2.456c-0.252-0.844-0.588-1.66-0.992-2.456c-0.252-0.844-0.588-1.66-0.992-2.452
	c-0.252-0.852-0.592-1.668-1-2.464c-0.252-0.84-0.584-1.652-0.984-2.444c-0.252-0.844-0.588-1.66-0.992-2.456
	c-0.864-2.868-2.548-5.516-5.052-7.532c-6.612-5.316-16.288-4.26-21.6,2.352c-3.88,4.82-4.328,11.252-1.748,16.452
	c0.252,0.848,0.592,1.664,0.992,2.46c0.252,0.844,0.592,1.66,0.992,2.46c0.252,0.84,0.592,1.648,0.992,2.44
	c0.252,0.848,0.592,1.664,0.992,2.46c0.252,0.844,0.588,1.66,0.992,2.452c0.252,0.848,0.588,1.664,0.992,2.456
	c0.252,0.848,0.588,1.664,0.992,2.46c0.252,0.84,0.588,1.652,0.992,2.444c0.252,0.848,0.588,1.664,0.992,2.46
	c0.252,0.844,0.588,1.66,0.992,2.448c0.252,0.856,0.596,1.684,1,2.48c0.244,0.812,0.584,1.592,0.952,2.364
	c-5.932,2.636-11.56,5.892-16.772,9.7c-0.064-0.104-0.092-0.224-0.156-0.328c-0.24-0.864-0.552-1.696-0.992-2.456
	c-0.24-0.86-0.552-1.688-0.992-2.448c-0.24-0.864-0.548-1.696-0.992-2.456c-0.24-0.864-0.548-1.692-0.992-2.456
	c-0.236-0.864-0.548-1.696-0.992-2.452c-0.236-0.864-0.548-1.696-0.992-2.46c-0.236-0.86-0.548-1.688-0.992-2.448
	c-0.236-0.864-0.548-1.696-0.992-2.456c-0.616-2.268-1.968-4.288-3.916-5.64c-16.872-11.628-75.096-11.764-75.684-11.764
	c-0.7,0-1.376,0.08-2.032,0.212h-0.004c-4.452,0.92-7.844,4.8-7.964,9.524l-0.076,2.492c-0.296,9.464-0.768,24.732,5.568,39.324
	c0.308,0.82,0.632,1.64,0.988,2.456c0.316,0.828,0.644,1.656,1.004,2.48c0.308,0.812,0.628,1.62,0.98,2.428
	c0.312,0.816,0.636,1.636,0.992,2.452c0.312,0.82,0.636,1.64,0.992,2.456c0.312,0.82,0.636,1.64,0.992,2.456
	c0.316,0.828,0.644,1.656,1.004,2.48c0.308,0.812,0.628,1.616,0.98,2.424c0.312,0.82,0.636,1.64,0.992,2.456
	c0.312,0.82,0.636,1.64,0.992,2.456c0.324,0.848,0.66,1.696,1.032,2.544c0.3,0.788,0.612,1.584,0.956,2.368
	c0.312,0.82,0.636,1.64,0.992,2.456c0.312,0.82,0.636,1.64,0.992,2.456c0.316,0.828,0.644,1.656,1,2.48
	c0.312,0.812,0.632,1.62,0.984,2.424c0.308,0.82,0.632,1.64,0.992,2.456c0.308,0.82,0.632,1.64,0.988,2.456
	c0.316,0.828,0.644,1.656,1,2.48c0.312,0.812,0.632,1.62,0.984,2.424c0.312,0.82,0.636,1.64,0.992,2.456
	c0.312,0.82,0.636,1.64,0.992,2.456c0.312,0.82,0.636,1.64,0.992,2.456c0.316,0.828,0.644,1.652,1,2.48
	c0.312,0.808,0.632,1.616,0.984,2.424c0.312,0.82,0.636,1.64,0.992,2.456c0.312,0.82,0.636,1.64,0.992,2.456
	c0.316,0.828,0.644,1.652,1,2.48c0.312,0.808,0.632,1.616,0.984,2.424c0.312,0.82,0.636,1.64,0.992,2.456
	c0.312,0.82,0.636,1.64,0.992,2.456c0.316,0.828,0.644,1.652,1,2.48c0.308,0.808,0.628,1.616,0.98,2.424
	c0.312,0.82,0.636,1.64,0.992,2.456c0.312,0.82,0.636,1.64,0.992,2.456c0.32,0.84,0.656,1.68,1.024,2.516
	c0.304,0.808,0.624,1.612,0.976,2.416c0.308,0.812,0.628,1.62,0.98,2.428c0.312,0.82,0.636,1.64,0.992,2.456
	c0.312,0.816,0.636,1.636,0.992,2.452c0.316,0.828,0.644,1.656,1.004,2.48c0.308,0.812,0.628,1.62,0.98,2.428
	c0.312,0.82,0.636,1.64,0.992,2.456c0.312,0.816,0.636,1.636,0.992,2.452c0.316,0.828,0.644,1.656,1.004,2.48
	c0.308,0.816,0.628,1.62,0.98,2.428c0.312,0.82,0.636,1.64,0.992,2.456c0.312,0.812,0.636,1.632,0.992,2.452
	c0.308,0.82,0.632,1.64,0.992,2.452c0.312,0.828,0.64,1.656,1.004,2.48c0.304,0.812,0.624,1.62,0.976,2.424
	c0.312,0.82,0.636,1.64,0.992,2.452c0.312,0.82,0.636,1.64,0.992,2.456c0.316,0.828,0.644,1.656,1.004,2.48
	c0.308,0.812,0.628,1.616,0.98,2.428c0.312,0.812,0.636,1.632,0.992,2.448c0.312,0.82,0.636,1.64,0.992,2.456
	c0.316,0.828,0.644,1.656,1.004,2.48c0.308,0.812,0.628,1.62,0.98,2.424c0.312,0.82,0.636,1.636,0.992,2.452
	c0.32,0.84,0.656,1.684,1.02,2.52c0.304,0.796,0.62,1.596,0.968,2.404c0.316,0.828,0.644,1.656,1,2.476
	c0.312,0.812,0.632,1.62,0.984,2.424c0.312,0.82,0.636,1.64,0.992,2.456c0.308,0.82,0.632,1.64,0.992,2.452
	c0.312,0.828,0.64,1.656,1,2.484c0.308,0.812,0.628,1.616,0.98,2.42c0.312,0.82,0.636,1.64,0.992,2.456
	c0.312,0.816,0.636,1.636,0.992,2.456c0.316,0.828,0.644,1.656,1,2.476c0.312,0.812,0.632,1.62,0.984,2.424
	c0.312,0.82,0.636,1.64,0.992,2.456c0.312,0.82,0.636,1.64,0.992,2.452c0.312,0.82,0.636,1.64,0.992,2.456
	c0.316,0.828,0.644,1.652,1,2.48c0.312,0.808,0.632,1.616,0.984,2.42c0.312,0.82,0.636,1.64,0.992,2.456
	c0.312,0.82,0.636,1.64,0.992,2.456c0.316,0.828,0.644,1.652,1,2.48c0.312,0.808,0.632,1.612,0.984,2.424
	c0.312,0.82,0.632,1.636,0.992,2.452c0.308,0.82,0.632,1.64,0.992,2.456c0.312,0.828,0.64,1.652,1,2.48
	c0.308,0.804,0.628,1.616,0.98,2.42c0.32,0.844,0.656,1.68,1.02,2.516c0.016,0.04,0.028,0.072,0.04,0.092
	c0.816,5.16,2.204,9.996,4.1,14.472c0.308,0.836,0.648,1.644,0.992,2.448c0.308,0.844,0.652,1.656,0.996,2.468
	c0.308,0.828,0.644,1.636,0.988,2.44c0.308,0.836,0.648,1.648,0.992,2.456c0.308,0.836,0.648,1.64,0.992,2.452
	c0.308,0.836,0.648,1.648,0.992,2.452c0.308,0.84,0.652,1.656,0.996,2.468c0.308,0.828,0.644,1.636,0.988,2.436
	c0.308,0.836,0.648,1.648,0.992,2.452c0.308,0.836,0.648,1.648,0.992,2.456c0.316,0.852,0.66,1.68,1.012,2.504
	c0.304,0.816,0.636,1.608,0.976,2.408c0.308,0.836,0.648,1.648,0.992,2.456c0.308,0.836,0.648,1.648,0.992,2.456
	c0.308,0.84,0.644,1.656,0.996,2.468c0.304,0.828,0.64,1.632,0.988,2.436c0.304,0.836,0.644,1.648,0.988,2.452
	c0.308,0.836,0.648,1.648,0.992,2.456c0.312,0.84,0.648,1.656,0.996,2.464c0.308,0.828,0.644,1.632,0.988,2.436
	c0.308,0.836,0.648,1.648,0.992,2.456c0.308,0.836,0.648,1.648,0.992,2.456c0.308,0.836,0.648,1.648,0.992,2.452
	c0.312,0.836,0.648,1.656,0.996,2.464c0.308,0.828,0.644,1.636,0.988,2.44c0.308,0.836,0.648,1.648,0.992,2.452
	c0.308,0.836,0.648,1.648,0.992,2.452c0.312,0.844,0.648,1.656,0.996,2.468c0.308,0.828,0.644,1.636,0.988,2.44
	c0.308,0.836,0.648,1.644,0.992,2.448c0.308,0.836,0.648,1.648,0.992,2.456c0.312,0.84,0.648,1.656,0.996,2.468
	c0.308,0.828,0.644,1.636,0.988,2.432c0.308,0.836,0.648,1.648,0.992,2.46c0.308,0.836,0.648,1.648,0.992,2.452
	c0.312,0.848,0.656,1.672,1.008,2.492c0.308,0.828,0.644,1.632,0.984,2.428c0.304,0.828,0.64,1.64,0.984,2.436
	c0.308,0.836,0.648,1.648,0.992,2.456c0.308,0.836,0.648,1.648,0.992,2.456c0.308,0.84,0.652,1.656,0.996,2.46
	c0.308,0.828,0.644,1.64,0.988,2.44c0.308,0.836,0.648,1.648,0.992,2.456c0.308,0.836,0.648,1.648,0.992,2.452
	c0.308,0.844,0.652,1.656,0.996,2.468c0.308,0.828,0.644,1.632,0.988,2.436c0.308,0.836,0.648,1.648,0.992,2.456
	c0.308,0.836,0.648,1.644,0.992,2.448c0.308,0.836,0.648,1.648,0.992,2.456c0.308,0.84,0.652,1.656,0.996,2.468
	c0.308,0.828,0.644,1.636,0.988,2.44c0.308,0.836,0.648,1.648,0.992,2.452c0.308,0.836,0.648,1.648,0.992,2.452
	c0.308,0.84,0.652,1.656,0.996,2.468c0.308,0.828,0.644,1.636,0.988,2.436c0.308,0.836,0.648,1.648,0.992,2.452
	c0.176,0.476,0.376,0.936,0.568,1.416C370.228,511.54,466.056,437.6,499.384,335.416z"/>
<path style="fill:#B37035;" d="M175.884,185.624c-0.392,0-0.776-0.02-1.18-0.072c-71.076-8.416-69.552-56.968-68.9-77.708
	l0.072-2.492c0.144-5.416,4.584-9.736,10-9.736c0.584,0,58.816,0.136,75.684,11.764c2.332,1.608,3.88,4.152,4.244,6.972
	c0.236,1.828,0.38,3.916,0.528,6.132c0.424,6.376,0.956,14.304,4.696,16.556c4.744,2.852,6.268,8.98,3.428,13.732
	c-2.844,4.728-18,20.54-18.644,26.016C185.2,181.884,180.884,185.624,175.884,185.624z"/>
<path style="fill:#A66831;" d="M201.02,137.048c-3.74-2.248-4.264-10.172-4.696-16.552c-0.148-2.22-0.292-4.308-0.528-6.128
	c-0.364-2.828-1.912-5.368-4.244-6.976c-16.868-11.628-75.092-11.764-75.684-11.764c-0.7,0-1.38,0.08-2.036,0.212
	c17.508,0.596,53.128,2.876,65.72,11.56c2.332,1.608,3.88,4.152,4.244,6.972c0.236,1.828,0.38,3.916,0.528,6.132
	c0.424,6.376,0.956,14.304,4.696,16.556c4.744,2.852,6.268,8.98,3.428,13.732c-2.844,4.728-18,20.54-18.644,26.016
	c-0.42,3.548-2.668,6.412-5.672,7.832c2.116,0.348,4.3,0.656,6.572,0.92c0.404,0.056,0.788,0.076,1.18,0.076
	c5,0,9.316-3.748,9.92-8.828c0.644-5.476,15.8-21.288,18.644-26.016C207.288,146.04,205.76,139.904,201.02,137.048z"/>
<path style="fill:#99602D;" d="M175.528,172.972c-45.348-7.056-50.224-31.748-49.812-57.276c22.728,0.46,48.768,3.396,58.492,7.648
	c0.056,0.724,0.1,1.46,0.152,2.228c0.496,7.356,1.196,17.72,7.284,24.856c-0.588,0.72-1.192,1.44-1.74,2.096
	C182.956,160.912,177.988,167.092,175.528,172.972z"/>
<path style="fill:#B37035;" d="M335.864,185.624c-5,0-9.316-3.748-9.916-8.828c-0.64-5.476-15.816-21.328-18.636-26.016
	c-2.844-4.752-1.308-10.88,3.416-13.736c3.752-2.248,4.268-10.172,4.704-16.552c0.14-2.22,0.288-4.308,0.532-6.128
	c0.36-2.828,1.904-5.368,4.24-6.976c16.864-11.628,75.096-11.764,75.684-11.764c5.416,0,9.852,4.316,10,9.736l0.072,2.492
	c0.656,20.74,2.184,69.288-68.9,77.708C336.656,185.604,336.252,185.624,335.864,185.624z"/>
<path style="fill:#A66831;" d="M405.936,107.852l-0.072-2.492c-0.148-5.416-4.584-9.736-10-9.736c-0.148,0-4.016,0.008-9.96,0.212
	c4.448,0.92,7.836,4.804,7.96,9.524l0.072,2.492c0.632,20.08,2.084,66.228-62.328,76.776c1.304,0.62,2.744,0.996,4.252,0.996
	c0.396,0,0.792-0.02,1.184-0.072C408.116,177.14,406.592,128.584,405.936,107.852z"/>
<path style="fill:#99602D;" d="M336.228,172.976c-2.46-5.884-7.436-12.084-14.416-20.5c-0.528-0.64-1.116-1.348-1.7-2.056
	c6.084-7.128,6.78-17.488,7.272-24.808c0.056-0.788,0.1-1.548,0.156-2.268c9.704-4.252,35.752-7.188,58.488-7.652
	C386.428,141.292,381.536,165.968,336.228,172.976z"/>
<path style="fill:#E6A973;" d="M211.496,380.356c0,30.324,19.08,50.544,44.38,50.544s44.38-20.22,44.38-50.544H211.496z"/>
<g>
	<path style="fill:#D99F6C;" d="M288.252,380.356c0,27.872-16.124,47.152-38.38,50.096c1.96,0.252,3.948,0.436,6,0.436
		c25.3,0,44.38-20.22,44.38-50.544L288.252,380.356L288.252,380.356z"/>
	<path style="fill:#D99F6C;" d="M214.748,400.624c10.584,9.54,24.888,15,41.128,15c16.248,0,30.544-5.46,41.128-15
		c2.088-6.064,3.252-12.86,3.252-20.268H211.5C211.496,387.764,212.652,394.572,214.748,400.624z"/>
</g>
<g>
	<path style="fill:#665744;" d="M236.68,92.196c-1.024,2.908-0.972,5.5-0.652,8.024c0.364,2.508,0.692,5.032,1.144,7.516
		c0.844,4.984,1.924,9.904,3.4,14.708c1.296,4.224-1.08,8.7-5.3,9.996c-4.232,1.292-8.704-1.084-10-5.304
		c-0.028-0.092-0.064-0.22-0.084-0.316c-1.276-4.86-2.944-9.604-4.852-14.292c-0.92-2.348-1.968-4.664-2.98-6.984
		c-1.056-2.312-2.38-4.552-4.776-6.476c-6.612-5.316-7.672-14.988-2.356-21.6c5.316-6.616,14.988-7.668,21.604-2.352
		C237.036,79.292,238.78,86.22,236.68,92.196z"/>
	<path style="fill:#665744;" d="M275.072,92.196c1.032,2.908,0.976,5.5,0.656,8.024c-0.368,2.508-0.696,5.032-1.148,7.516
		c-0.844,4.984-1.916,9.904-3.4,14.708c-1.296,4.224,1.084,8.7,5.304,9.996c4.228,1.292,8.7-1.084,9.996-5.304
		c0.028-0.092,0.068-0.22,0.084-0.316c1.276-4.86,2.944-9.604,4.852-14.292c0.92-2.348,1.968-4.664,2.984-6.984
		c1.056-2.312,2.384-4.552,4.772-6.476c6.616-5.316,7.672-14.988,2.356-21.6c-5.316-6.616-14.988-7.668-21.604-2.352
		C274.72,79.292,272.968,86.22,275.072,92.196z"/>
</g>
<path style="fill:#E6A973;" d="M255.876,115.624c-48.788,0-90,41.212-90,90v40c0,3.34,1.668,6.464,4.452,8.32
	c0,0,22.572,9.956,25.548,17.032c15,35.648,0,55.484,0,76.648c0,36,25.788,60,60,60c34.208,0,60-24,60-60c0-21.164-15-41,0-76.648
	c2.976-7.08,25.556-17.032,25.556-17.032c2.776-1.856,4.444-4.98,4.444-8.32v-40C345.876,156.836,304.664,115.624,255.876,115.624z"
	/>
<path style="fill:#D99F6C;" d="M255.876,115.624c-2.016,0-4.012,0.092-6,0.236c46.116,3.216,84,42.992,84,89.764v40
	c0,3.34-1.668,6.464-4.444,8.32c0,0-22.58,9.956-25.556,17.032c-15,35.648,0,55.484,0,76.648c0,33.86-22.82,57.092-54,59.736
	c1.968,0.168,3.968,0.264,6,0.264c34.208,0,60-24,60-60c0-21.164-15-41,0-76.648c2.976-7.08,25.556-17.032,25.556-17.032
	c2.776-1.856,4.444-4.98,4.444-8.32v-40C345.876,156.836,304.664,115.624,255.876,115.624z"/>
<g>
	<path style="fill:#805D35;" d="M235.876,369.844c-5.528,0-10-4.468-10-10v-20c0-5.516,4.472-10,10-10s10,4.484,10,10v20
		C245.876,365.376,241.404,369.844,235.876,369.844z"/>
	<path style="fill:#805D35;" d="M275.876,369.844c-5.528,0-10-4.468-10-10v-20c0-5.516,4.472-10,10-10c5.532,0,10,4.484,10,10v20
		C285.876,365.376,281.408,369.844,275.876,369.844z"/>
</g>
<path style="fill:#946C3D;" d="M226.752,221.876c-3.296,0-6.532-1.616-8.432-4.612c-6.172-9.66-20.496-13.02-31.336-7.276
	c-4.844,2.584-10.928,0.736-13.516-4.152c-2.588-4.872-0.728-10.92,4.16-13.524c20-10.568,45.804-4.22,57.548,14.2
	c2.968,4.66,1.6,10.84-3.048,13.808C230.456,221.368,228.588,221.876,226.752,221.876z"/>
<path style="fill:#805D35;" d="M284.996,221.876c-1.836,0-3.7-0.508-5.372-1.564c-4.648-2.968-6.024-9.148-3.056-13.808
	c11.748-18.432,37.584-24.772,57.56-14.2c4.884,2.596,6.748,8.652,4.16,13.524c-2.588,4.884-8.664,6.736-13.524,4.152
	c-10.836-5.748-25.164-2.396-31.336,7.276C291.532,220.252,288.296,221.876,284.996,221.876z"/>
<circle style="fill:#F5F5F5;" cx="199.876" cy="230.624" r="12"/>
<circle style="fill:#242424;" cx="199.876" cy="230.624" r="4"/>
<circle style="fill:#F5F5F5;" cx="311.876" cy="230.624" r="12"/>
<circle style="fill:#242424;" cx="311.876" cy="230.624" r="4"/>
<g>
</g>
<g>
</g>
<g>
</g>
<g>
</g>
<g>
</g>
<g>
</g>
<g>
</g>
<g>
</g>
<g>
</g>
<g>
</g>
<g>
</g>
<g>
</g>
<g>
</g>
<g>
</g>
<g>
</g>
</svg>
