<?xml version="1.0" encoding="iso-8859-1"?>
<!-- Generator: Adobe Illustrator 19.0.0, SVG Export Plug-In . SVG Version: 6.00 Build 0)  -->
<svg version="1.1" id="Layer_1" xmlns="http://www.w3.org/2000/svg" xmlns:xlink="http://www.w3.org/1999/xlink" x="0px" y="0px"
	 viewBox="0 0 512 512" style="enable-background:new 0 0 512 512;" xml:space="preserve">
<circle style="fill:#E16B5A;" cx="256" cy="256" r="256"/>
<path style="fill:#D16354;" d="M476.92,385.288c-0.252-0.672-0.508-1.336-0.792-1.968c-0.316-0.832-0.632-1.656-0.988-2.436
	c-0.316-0.84-0.636-1.672-0.992-2.452c-0.316-0.836-0.636-1.672-0.992-2.456c-0.32-0.84-0.64-1.676-1-2.468
	c-0.316-0.832-0.632-1.656-0.988-2.44c-0.316-0.836-0.636-1.664-0.992-2.452c-0.316-0.836-0.636-1.664-0.992-2.452
	c-0.32-0.84-0.636-1.676-1-2.468c-0.316-0.832-0.628-1.656-0.988-2.436c-0.312-0.836-0.632-1.672-0.992-2.452
	c-0.32-0.844-0.64-1.68-1-2.472c-0.312-0.832-0.632-1.656-0.984-2.44c-0.32-0.84-0.64-1.676-1-2.468
	c-0.32-0.828-0.632-1.648-0.992-2.432c-0.312-0.836-0.632-1.668-0.992-2.456c-0.312-0.836-0.632-1.668-0.992-2.452
	c-0.312-0.844-0.64-1.68-1-2.468c-0.312-0.836-0.632-1.656-0.984-2.436c-0.32-0.836-0.64-1.668-0.992-2.456
	c-0.32-0.836-0.632-1.668-0.992-2.456c-0.32-0.836-0.636-1.672-1-2.46c-0.32-0.832-0.628-1.656-0.992-2.44
	c-0.308-0.836-0.628-1.668-0.992-2.456c-0.312-0.844-0.636-1.68-1-2.468c-0.308-0.836-0.624-1.656-0.98-2.436
	c-0.32-0.84-0.64-1.676-1-2.468c-0.316-0.832-0.632-1.656-0.988-2.436c-0.316-0.836-0.636-1.672-0.992-2.452
	c-0.316-0.836-0.636-1.668-0.992-2.456c-0.32-0.84-0.64-1.676-1-2.468c-0.316-0.832-0.632-1.652-0.988-2.44
	c-0.316-0.836-0.636-1.664-0.992-2.448c-0.316-0.836-0.628-1.668-0.992-2.456c-0.32-0.84-0.636-1.676-1-2.468
	c-0.316-0.828-0.628-1.656-0.988-2.436c-0.312-0.836-0.632-1.672-0.984-2.452c-0.32-0.836-0.64-1.668-0.992-2.456
	c-0.32-0.844-0.648-1.68-1-2.472c-0.32-0.836-0.64-1.664-0.992-2.448c-0.32-0.832-0.632-1.656-0.992-2.436
	c-0.312-0.836-0.632-1.668-0.992-2.456c-0.312-0.836-0.632-1.664-0.992-2.452c-0.312-0.844-0.64-1.68-1-2.468
	c-0.312-0.828-0.632-1.652-0.984-2.436c-0.32-0.836-0.636-1.668-0.992-2.452c-0.316-0.836-0.636-1.672-0.992-2.456
	c-0.316-0.84-0.64-1.676-1-2.464c-0.316-0.832-0.632-1.656-0.988-2.436c-0.316-0.836-0.636-1.672-0.992-2.46
	c-0.316-0.836-0.636-1.664-0.992-2.452c-0.316-0.836-0.636-1.668-0.992-2.452c-0.32-0.848-0.648-1.688-1.008-2.488
	c-0.312-0.824-0.628-1.644-0.98-2.42c-0.316-0.836-0.636-1.668-0.992-2.456c-0.316-0.836-0.636-1.664-0.992-2.452
	c-0.32-0.84-0.64-1.676-1-2.468c-0.316-0.832-0.632-1.656-0.988-2.44c-0.316-0.836-0.636-1.668-0.992-2.452
	c-0.316-0.836-0.636-1.668-0.988-2.456c-0.32-0.84-0.64-1.676-1-2.468c-0.32-0.832-0.632-1.656-0.992-2.44
	c-0.312-0.836-0.632-1.668-0.992-2.452c-0.312-0.836-0.632-1.668-0.992-2.456c-0.312-0.836-0.632-1.668-0.992-2.456
	c-0.32-0.848-0.648-1.688-1.008-2.488c-0.312-0.824-0.624-1.644-0.976-2.416c-0.32-0.836-0.632-1.668-0.992-2.456
	c-0.32-0.836-0.632-1.668-0.992-2.456c-0.312-0.84-0.636-1.676-1-2.468c-0.312-0.832-0.628-1.656-0.992-2.436
	c-0.308-0.836-0.628-1.668-0.984-2.456c-0.316-0.836-0.636-1.668-0.992-2.456c-0.316-0.84-0.64-1.676-1-2.468
	c-0.316-0.832-0.632-1.652-0.988-2.436c-0.316-0.836-0.636-1.668-0.992-2.456c-0.316-0.836-0.636-1.668-0.992-2.456
	c-0.316-0.84-0.64-1.676-1-2.464c-0.316-0.836-0.632-1.656-0.988-2.44c-0.32-0.844-0.644-1.68-1-2.472
	c-0.316-0.832-0.624-1.656-0.988-2.44c-0.312-0.836-0.628-1.668-0.992-2.452c-0.32-0.84-0.636-1.676-1-2.468
	c-0.308-0.832-0.628-1.656-0.98-2.44c-0.32-0.836-0.64-1.668-0.992-2.452c-5.22-13.836-16.04-21.024-26.78-21.024
	c-1.244,0-2.392,0.084-3.492,0.224c-1.72,0.18-3.344,0.44-4.792,0.896c-0.172-0.304-0.356-0.584-0.528-0.884
	C324.9,100.652,272.392,96,256,96c-0.76,0-1.624,0.016-2.536,0.04c-0.12,0.004-0.232,0.008-0.352,0.012
	c-0.952,0.028-1.972,0.08-3.072,0.136c-0.012,0.004-0.024,0.004-0.04,0.004h0.004c-20.884,1.264-66.704,10.128-95.724,60.92
	c-2.392-0.744-5.156-1.112-8.28-1.112c-14.904,0-30,13.744-30,40c0,14.272,0.004,29.708,4.528,39.592
	c0.304,0.852,0.632,1.672,0.992,2.452c0.304,0.856,0.636,1.684,1,2.472c0.304,0.844,0.628,1.656,0.988,2.436
	c0.2,0.564,0.424,1.092,0.648,1.628c-4.956,30.084-1.548,59.92,9.632,86.404c0.332,0.82,0.648,1.644,0.992,2.452
	c0.332,0.828,0.656,1.664,1.004,2.476c0.324,0.812,0.64,1.624,0.98,2.428c0.332,0.82,0.648,1.644,0.992,2.456
	c0.332,0.832,0.66,1.664,1.004,2.488c0.328,0.804,0.64,1.624,0.98,2.416c0.332,0.828,0.656,1.66,1.004,2.48
	c0.324,0.812,0.64,1.624,0.98,2.428c0.332,0.82,0.648,1.64,0.992,2.452c0.332,0.82,0.648,1.64,0.992,2.452
	c0.332,0.828,0.656,1.66,1.004,2.48c0.324,0.812,0.64,1.624,0.98,2.424c0.332,0.82,0.648,1.648,0.992,2.452
	c0.332,0.82,0.648,1.644,0.992,2.456c0.332,0.828,0.656,1.66,1.004,2.48c0.324,0.812,0.64,1.624,0.98,2.428
	c0.332,0.82,0.648,1.64,0.992,2.448c0.332,0.82,0.648,1.644,0.992,2.456c0.336,0.84,0.668,1.68,1.016,2.512
	c0.32,0.8,0.636,1.604,0.968,2.404c0.332,0.82,0.648,1.64,0.992,2.452c0.332,0.82,0.648,1.644,0.992,2.456
	c0.332,0.82,0.648,1.644,0.992,2.456c0.332,0.828,0.656,1.656,1.004,2.476c0.324,0.812,0.64,1.62,0.98,2.424
	c0.332,0.82,0.648,1.644,0.992,2.456c0.332,0.82,0.648,1.64,0.992,2.452c0.332,0.828,0.656,1.664,1.004,2.484
	c0.324,0.804,0.64,1.616,0.98,2.42c0.332,0.82,0.648,1.644,0.992,2.452c0.332,0.82,0.648,1.648,0.992,2.46
	c0.336,0.836,0.668,1.68,1.016,2.508c0.32,0.804,0.632,1.6,0.968,2.404c0.332,0.82,0.648,1.644,0.992,2.456
	c0.332,0.82,0.648,1.64,0.992,2.452c0.332,0.82,0.648,1.644,0.992,2.452c0.332,0.828,0.656,1.66,1.004,2.48
	c0.324,0.812,0.64,1.62,0.98,2.424c0.332,0.82,0.648,1.648,0.992,2.456c0.332,0.816,0.648,1.64,0.992,2.452
	c0.332,0.828,0.656,1.66,1.004,2.48c0.324,0.812,0.64,1.624,0.98,2.428c0.332,0.82,0.648,1.64,0.992,2.448
	c0.332,0.82,0.648,1.644,0.992,2.456c0.332,0.828,0.656,1.66,1.004,2.48c0.328,0.824,0.652,1.644,0.996,2.456
	c0.328,0.812,0.644,1.624,0.98,2.42c0.332,0.82,0.648,1.644,0.992,2.456c0.332,0.816,0.648,1.644,0.992,2.456
	c0.332,0.828,0.656,1.656,1.004,2.476c0.324,0.812,0.64,1.624,0.98,2.424c0.332,0.82,0.648,1.644,0.992,2.456
	c0.332,0.82,0.648,1.64,0.992,2.452c0.332,0.828,0.656,1.664,1.004,2.484c0.324,0.808,0.64,1.616,0.98,2.42
	c0.332,0.82,0.648,1.64,0.992,2.452c0.332,0.82,0.648,1.648,0.992,2.46c0.332,0.824,0.656,1.656,1.004,2.476
	c0.324,0.812,0.64,1.62,0.98,2.42c0.332,0.836,0.66,1.664,1.004,2.492c0.328,0.804,0.64,1.624,0.98,2.42
	c0.332,0.82,0.648,1.644,0.992,2.452c0.332,0.828,0.656,1.66,1.004,2.48c0.324,0.808,0.64,1.62,0.98,2.424
	c0.332,0.82,0.648,1.644,0.992,2.456c0.332,0.82,0.648,1.644,0.992,2.452c0.332,0.828,0.656,1.66,1.004,2.48
	c0.324,0.812,0.64,1.624,0.98,2.424c0.332,0.82,0.648,1.644,0.992,2.456c0.332,0.82,0.648,1.64,0.992,2.452
	c0.332,0.828,0.656,1.656,1.004,2.476c0.196,0.492,0.396,0.984,0.596,1.476C221.376,510.236,238.48,512,256,512
	C350.208,512,432.476,461.08,476.92,385.288z"/>
<path style="fill:#242424;" d="M256,416c-39.1,0-76.368-18.672-102.228-51.236c-26.904-33.868-37.344-78.336-29.16-123.1
	C116,233.188,116,213.696,116,196c0-26.256,15.096-40,30-40c3.124,0,5.888,0.372,8.28,1.112C186.528,100.68,239.524,96,256,96
	s69.472,4.68,101.72,61.112c2.388-0.744,5.156-1.112,8.28-1.112c14.908,0,30,13.744,30,40c0,17.696,0,37.188-8.608,45.664
	c8.18,44.764-2.252,89.244-29.164,123.1C332.368,397.328,295.1,416,256,416z"/>
<path style="fill:#B3B3B3;" d="M256,382c-51.444,0-86-44.468-86-86c0-13.956,3.28-24.592,10.324-33.468l2.744-3.452l-3.704-2.396
	c-7.232-4.668-19.36-16.16-19.36-40.684c0-23.632,23.14-36,46-36h100c22.86,0,46,12.368,46,36c0,24.524-12.132,36.016-19.36,40.684
	l-3.708,2.396l2.748,3.452c7.044,8.876,10.324,19.512,10.324,33.468C342,337.532,307.444,382,256,382z"/>
<g>
	<path style="fill:#1A1A1A;" d="M345.72,157.112c2.388-0.744,5.156-1.112,8.28-1.112c1.064,0,2.128,0.084,3.188,0.232
		C324.9,100.652,272.392,96,256,96c-1.648,0-3.676,0.052-6,0.192C270.892,97.46,316.7,106.328,345.72,157.112z"/>
	<path style="fill:#1A1A1A;" d="M396,196c0-26.256-15.092-40-30-40c-2.32,0-4.372,0.272-6.292,0.684
		C372.524,159.74,384,173.108,384,196c0,17.696,0,37.188-8.608,45.664c8.18,44.764-2.252,89.244-29.164,123.1
		C321.696,395.656,286.9,414.016,250,415.82c1.996,0.096,3.996,0.18,6,0.18c39.1,0,76.368-18.672,102.228-51.236
		c26.912-33.868,37.344-78.336,29.164-123.1C396,233.188,396,213.696,396,196z"/>
	<path style="fill:#1A1A1A;" d="M140.292,156.684c0.664,0.14,1.376,0.244,1.992,0.428c0.172-0.304,0.356-0.584,0.528-0.888
		C141.968,156.34,141.124,156.484,140.292,156.684z"/>
</g>
<path style="fill:#242424;" d="M276,286c-5.528,0-10-4.472-10-10c0-4.492-5.508-10-10-10s-10,5.508-10,10c0,5.528-4.472,10-10,10
	s-10-4.472-10-10c0-15.42,14.58-30,30-30s30,14.58,30,30C286,281.528,281.528,286,276,286z"/>
<path style="fill:#F5F5F5;" d="M306,236c-11.024,0-20-8.964-20-20s8.976-20,20-20c11.036,0,20,8.964,20,20S317.036,236,306,236z"/>
<path style="fill:#242424;" d="M306,226c-5.508,0-10-4.484-10-10s4.492-10,10-10c5.528,0,10,4.484,10,10S311.528,226,306,226z"/>
<path style="fill:#F5F5F5;" d="M206,236c-11.036,0-20-8.964-20-20s8.964-20,20-20c11.024,0,20,8.964,20,20S217.024,236,206,236z"/>
<g>
	<path style="fill:#242424;" d="M205.992,226c-5.508,0-9.992-4.484-9.992-10s4.484-10,9.992-10c5.528,0,10.008,4.484,10.008,10
		S211.516,226,205.992,226z"/>
	<path style="fill:#242424;" d="M296,326h-80c-5.528,0-10-4.472-10-10s4.472-10,10-10h80c5.528,0,10,4.472,10,10
		S301.528,326,296,326z"/>
</g>
<g>
</g>
<g>
</g>
<g>
</g>
<g>
</g>
<g>
</g>
<g>
</g>
<g>
</g>
<g>
</g>
<g>
</g>
<g>
</g>
<g>
</g>
<g>
</g>
<g>
</g>
<g>
</g>
<g>
</g>
</svg>
