<?xml version="1.0" encoding="iso-8859-1"?>
<!-- Generator: Adobe Illustrator 19.0.0, SVG Export Plug-In . SVG Version: 6.00 Build 0)  -->
<svg version="1.1" id="Layer_1" xmlns="http://www.w3.org/2000/svg" xmlns:xlink="http://www.w3.org/1999/xlink" x="0px" y="0px"
	 viewBox="0 0 512 512" style="enable-background:new 0 0 512 512;" xml:space="preserve">
<circle style="fill:#C2D5D8;" cx="256" cy="256" r="256"/>
<path style="fill:#B7C9CC;" d="M476.28,386.404c-0.22-0.584-0.432-1.18-0.72-1.78c-0.28-0.808-0.6-1.624-0.992-2.456
	c-0.28-0.812-0.604-1.632-1-2.472c-0.272-0.796-0.596-1.608-0.984-2.436c-0.28-0.816-0.608-1.644-1.016-2.496
	c-0.268-0.788-0.588-1.592-0.976-2.416c-0.272-0.808-0.596-1.624-0.992-2.456c-0.276-0.812-0.6-1.632-1-2.472
	c-0.268-0.796-0.592-1.604-0.984-2.432c-0.272-0.808-0.596-1.624-0.992-2.456c-0.272-0.808-0.596-1.624-0.992-2.456
	c-0.276-0.812-0.6-1.632-0.996-2.468c-0.268-0.8-0.596-1.612-0.988-2.436c-0.272-0.808-0.592-1.624-0.992-2.456
	c-0.272-0.808-0.592-1.624-0.992-2.456c-0.272-0.812-0.6-1.628-0.996-2.472c-0.268-0.792-0.596-1.604-0.988-2.432
	c-0.272-0.808-0.592-1.624-0.992-2.456c-0.272-0.808-0.592-1.624-0.992-2.456c-0.272-0.808-0.592-1.62-0.992-2.456
	c-0.272-0.808-0.596-1.628-0.992-2.468c-0.272-0.796-0.596-1.608-0.992-2.436c-0.268-0.808-0.592-1.624-0.992-2.456
	c-0.268-0.808-0.592-1.62-0.992-2.456c-0.272-0.808-0.596-1.628-0.992-2.464c-0.272-0.804-0.596-1.616-0.992-2.44
	c-0.268-0.808-0.592-1.624-0.988-2.456c-0.272-0.808-0.596-1.62-0.992-2.452c-0.276-0.812-0.6-1.632-0.996-2.472
	c-0.28-0.812-0.604-1.636-1.004-2.476c-0.272-0.792-0.592-1.6-0.976-2.416c-0.276-0.808-0.596-1.62-0.992-2.452
	c-0.276-0.808-0.596-1.624-0.992-2.456c-0.276-0.812-0.604-1.632-1-2.472c-0.268-0.796-0.596-1.608-0.984-2.436
	c-0.276-0.808-0.596-1.62-0.992-2.452c-0.276-0.808-0.596-1.624-0.988-2.456c-0.28-0.812-0.608-1.632-1-2.468
	c-0.272-0.804-0.596-1.616-0.984-2.436c-0.276-0.808-0.6-1.624-0.992-2.456c-0.276-0.808-0.6-1.624-0.992-2.456
	c-0.28-0.812-0.604-1.632-1-2.472c-0.272-0.796-0.596-1.604-0.984-2.432c-0.276-0.808-0.6-1.624-0.992-2.456
	c-0.276-0.808-0.6-1.624-0.992-2.456c-0.276-0.808-0.6-1.624-0.992-2.456c-0.28-0.812-0.604-1.628-1-2.472
	c-0.272-0.792-0.596-1.604-0.984-2.432c-0.276-0.808-0.6-1.624-0.992-2.456c-0.272-0.808-0.6-1.624-0.992-2.456
	c-0.28-0.812-0.6-1.628-1-2.464c-0.272-0.804-0.592-1.616-0.984-2.44c-0.272-0.808-0.6-1.624-0.992-2.456
	c-0.272-0.808-0.6-1.624-0.992-2.456c-0.28-0.824-0.608-1.66-1.016-2.508c-0.272-0.784-0.592-1.584-0.976-2.404
	c-0.272-0.808-0.592-1.624-0.992-2.456c-0.268-0.808-0.592-1.62-0.992-2.456c-0.272-0.808-0.596-1.628-0.992-2.464
	c-0.272-0.804-0.596-1.616-0.992-2.44c-0.268-0.808-0.592-1.624-0.992-2.456c-0.268-0.808-0.592-1.62-0.992-2.452
	c-0.268-0.808-0.592-1.624-0.992-2.456c-0.272-0.812-0.596-1.632-0.992-2.468c-0.272-0.804-0.596-1.616-0.988-2.436
	c-0.272-0.808-0.596-1.624-0.992-2.456c-1.948-5.688-6.536-12.148-16.552-17.724c-5.632-3.12-11.8-4.708-18.36-4.708
	c-1.076,0-2.148,0.06-3.232,0.152c-20.164,1.524-40.94,16.948-64.836,34.712c-2.748,2.04-5.48,4.1-8.3,6.18
	c-1.608-0.92-3.312-1.728-5.08-2.436c-0.428-0.172-0.892-0.3-1.336-0.46c-1.352-0.504-2.72-0.984-4.144-1.384
	c-0.652-0.184-1.332-0.32-1.996-0.484c-1.204-0.292-2.4-0.588-3.636-0.824c-1.104-0.212-2.232-0.376-3.352-0.544
	c-0.752-0.108-1.488-0.244-2.252-0.332c-1.776-0.232-3.56-0.404-5.336-0.544c-0.076-0.008-0.148-0.016-0.224-0.02
	c-6.628-0.516-13.14-0.548-18.72-0.56c-0.068,0-0.12,0-0.184,0c-6.9-6.556-13.428-14.564-19.432-23.132
	c-0.024-0.056-0.048-0.108-0.076-0.164c-0.292-0.852-0.656-1.656-1-2.472c-0.288-0.836-0.64-1.628-0.984-2.424
	c-0.288-0.844-0.644-1.644-0.988-2.456c-0.292-0.844-0.648-1.644-0.992-2.456c-0.296-0.848-0.652-1.652-0.996-2.464
	c-0.292-0.84-0.648-1.636-0.988-2.44c-0.292-0.844-0.648-1.644-0.992-2.456c-0.292-0.844-0.648-1.644-0.992-2.456
	c-0.296-0.848-0.652-1.648-0.996-2.46c-0.288-0.844-0.648-1.636-0.988-2.444c-0.292-0.844-0.648-1.644-0.992-2.456
	c-0.292-0.844-0.644-1.644-0.992-2.456c-0.292-0.848-0.652-1.648-0.996-2.46c-0.288-0.84-0.648-1.636-0.984-2.444
	c-0.296-0.844-0.648-1.644-0.992-2.456c-0.296-0.844-0.648-1.644-0.992-2.456c-0.296-0.844-0.648-1.64-0.992-2.452
	c-0.296-0.848-0.656-1.652-1-2.464c-0.288-0.84-0.648-1.636-0.984-2.444c-0.292-0.844-0.648-1.644-0.992-2.452
	c-0.292-0.848-0.648-1.644-0.992-2.456c-0.296-0.848-0.652-1.648-0.996-2.464c-0.292-0.84-0.648-1.636-0.988-2.44
	c-0.292-0.848-0.648-1.644-0.992-2.456c-0.292-0.844-0.648-1.644-0.992-2.456c-0.296-0.856-0.66-1.672-1.012-2.496
	c-0.284-0.828-0.64-1.616-0.976-2.416c-0.292-0.844-0.652-1.64-0.992-2.452c-0.292-0.844-0.652-1.644-0.992-2.456
	c-0.292-0.848-0.652-1.648-0.996-2.464c-0.288-0.84-0.648-1.636-0.984-2.44c-0.296-0.848-0.656-1.644-0.992-2.456
	c-0.296-0.844-0.656-1.644-0.992-2.456c-0.296-0.844-0.656-1.644-0.992-2.456c-0.296-0.848-0.656-1.648-1-2.46
	c-0.288-0.84-0.648-1.636-0.984-2.444c-0.292-0.844-0.656-1.644-0.992-2.456c-1.524-4.38-3.752-8.328-6.572-11.752
	c-0.168-0.428-0.38-0.796-0.584-1.18c-0.256-0.9-0.588-1.716-0.984-2.444c-0.264-0.904-0.596-1.72-0.992-2.456
	c-0.264-0.904-0.592-1.72-0.992-2.452c-0.264-0.908-0.592-1.724-0.992-2.456c-0.264-0.912-0.592-1.728-0.996-2.464
	c-0.26-0.896-0.588-1.712-0.988-2.444c-0.264-0.904-0.592-1.72-0.992-2.452c-0.836-2.86-2.28-5.072-4.46-5.724
	c-0.844-0.252-1.632-0.352-2.404-0.392c-0.252-0.016-0.488-0.008-0.732-0.004c-0.524,0.012-1.024,0.06-1.508,0.144
	c-0.252,0.044-0.5,0.072-0.74,0.128c-0.596,0.144-1.176,0.328-1.74,0.548c-3.616,1.416-6.432,4.012-9.14,3.216
	c-0.964-0.284-1.744-0.824-2.476-1.46c-1.284-1.104-2.428-2.56-4.128-3.68c-0.012-0.012-0.032-0.02-0.044-0.028
	c-0.464-0.304-0.984-0.58-1.548-0.816c-0.164-0.072-0.328-0.128-0.5-0.192c-0.472-0.176-0.992-0.316-1.556-0.428
	c-0.212-0.044-0.416-0.088-0.64-0.12c-0.784-0.116-1.632-0.192-2.608-0.16c-0.84,0.024-1.54,0.148-2.196,0.312
	c-6.132,1.36-5.94,7.36-10.228,8.932c-2.492,0.92-4.936-0.784-7.796-1.416c-0.068-0.02-0.132-0.036-0.196-0.048
	c-1.608-0.324-3.356-0.26-5.312,0.784c0,0-0.008,0-0.016,0.004h0.008c-1.132,0.604-2.336,1.52-3.624,2.916
	c-2.916,3.156-2.808,6.212-1.12,9.14c0.192,0.828,0.524,1.644,0.992,2.452c0.192,0.828,0.528,1.648,0.992,2.46
	c0.196,0.824,0.528,1.644,0.988,2.448c0.196,0.828,0.528,1.648,0.992,2.456c0.196,0.828,0.528,1.644,0.992,2.452
	c0.116,0.504,0.276,1,0.5,1.496c-2.404,4.828-3.888,10.284-4.224,16.236l-19.064,38.124c-1.504,3.012-1.284,6.496,0.34,9.364
	c0.22,0.86,0.548,1.672,0.992,2.452c0.22,0.86,0.548,1.672,0.992,2.46c0.22,0.856,0.548,1.664,0.992,2.448
	c0.22,0.86,0.548,1.672,0.992,2.456c0.22,0.86,0.548,1.672,0.992,2.452c0.22,0.86,0.548,1.672,0.992,2.456
	c0.22,0.86,0.548,1.672,0.992,2.46c0.22,0.856,0.548,1.664,0.992,2.448c0.22,0.86,0.548,1.672,0.992,2.452
	c0.22,0.86,0.548,1.672,0.992,2.456c0.22,0.864,0.548,1.684,1,2.472c0.22,0.852,0.548,1.656,0.984,2.436
	c0.22,0.86,0.548,1.672,0.992,2.452c0.22,0.86,0.548,1.672,0.992,2.456c0.22,0.86,0.548,1.672,0.992,2.46
	c0.22,0.856,0.548,1.664,0.992,2.448c0.22,0.86,0.548,1.672,0.992,2.452c0.22,0.86,0.548,1.672,0.992,2.456
	c0.22,0.86,0.548,1.676,0.992,2.456c0.22,0.86,0.548,1.672,0.992,2.452c0.22,0.86,0.548,1.672,0.992,2.452
	c0.22,0.86,0.548,1.672,0.992,2.456c0.22,0.86,0.548,1.672,0.992,2.456c0.22,0.86,0.548,1.676,0.992,2.452
	c0.22,0.864,0.548,1.672,0.992,2.452c0.22,0.86,0.548,1.672,0.992,2.456c0.22,0.86,0.548,1.672,0.992,2.456
	c0.22,0.86,0.548,1.672,0.988,2.46c0.224,0.856,0.552,1.664,0.992,2.444c0.224,0.86,0.552,1.672,0.992,2.456
	c0.224,0.86,0.552,1.672,0.992,2.456c0.224,0.86,0.552,1.676,0.992,2.452c0.224,0.864,0.548,1.672,0.992,2.452
	c0.22,0.86,0.548,1.672,0.992,2.456c0.22,0.86,0.548,1.672,0.992,2.456c0.22,0.864,0.552,1.68,1,2.468
	c0.22,0.856,0.548,1.664,0.988,2.44c0.22,0.86,0.548,1.672,0.992,2.452c0.22,0.86,0.548,1.672,0.992,2.456
	c0.22,0.86,0.548,1.672,0.992,2.452c0.22,0.86,0.548,1.672,0.992,2.46c0.22,0.856,0.548,1.664,0.992,2.448
	c0.22,0.86,0.548,1.672,0.992,2.456c0.22,0.86,0.548,1.672,0.992,2.452c0.22,0.86,0.548,1.676,0.988,2.456
	c0.224,0.86,0.552,1.672,0.992,2.452c0.224,0.86,0.552,1.672,0.992,2.456c0.224,0.86,0.552,1.672,0.992,2.452
	c0.224,0.86,0.552,1.672,0.992,2.456c0.224,0.86,0.548,1.676,0.992,2.456c0.22,0.86,0.548,1.672,0.992,2.452
	c0.22,0.86,0.548,1.672,0.992,2.452c0.22,0.86,0.548,1.672,0.988,2.456c0.224,0.86,0.552,1.672,0.992,2.46
	c0.224,0.856,0.552,1.664,0.992,2.448c0.224,0.86,0.552,1.672,0.992,2.452c0.224,0.86,0.552,1.672,0.992,2.456
	c0.224,0.86,0.552,1.676,0.992,2.456c0.22,0.86,0.548,1.672,0.992,2.452c0.22,0.86,0.548,1.672,0.992,2.452
	c0.22,0.868,0.556,1.68,1,2.468c0.22,0.856,0.548,1.664,0.988,2.444c0.224,0.86,0.552,1.676,0.992,2.452
	c0.224,0.864,0.552,1.672,0.992,2.452c0.224,0.86,0.552,1.672,0.992,2.456c0.224,0.86,0.552,1.672,0.992,2.456
	c0.224,0.86,0.548,1.672,0.992,2.46c0.22,0.856,0.548,1.664,0.992,2.444c0.22,0.86,0.548,1.672,0.992,2.456
	c0.22,0.86,0.548,1.672,0.988,2.456c0.224,0.86,0.552,1.676,0.992,2.452c0.224,0.864,0.552,1.672,0.992,2.452
	c0.224,0.86,0.552,1.672,0.992,2.456c0.224,0.86,0.552,1.672,0.992,2.456c0.224,0.86,0.552,1.672,0.992,2.452
	c0.22,0.864,0.548,1.68,0.992,2.456c0.22,0.86,0.548,1.672,0.992,2.452c0.22,0.86,0.548,1.672,0.992,2.456
	c0.22,0.86,0.548,1.672,0.992,2.452c0.22,0.864,0.548,1.672,0.992,2.46c0.22,0.856,0.548,1.664,0.992,2.448
	c0.22,0.86,0.548,1.672,0.992,2.456c0.22,0.86,0.548,1.672,0.992,2.452c0.22,0.864,0.548,1.68,0.992,2.456
	c0.22,0.86,0.548,1.672,0.992,2.452c0.22,0.864,0.552,1.68,1,2.468c0.22,0.856,0.548,1.664,0.984,2.44
	c0.224,0.86,0.552,1.672,0.992,2.456c0.224,0.86,0.552,1.676,0.992,2.456c0.224,0.86,0.552,1.672,0.992,2.452
	c0.224,0.86,0.552,1.672,0.992,2.452c0.224,0.86,0.552,1.672,0.992,2.456c0.22,0.86,0.548,1.672,0.992,2.46
	c0.22,0.856,0.548,1.664,0.992,2.448c0.22,0.86,0.548,1.672,0.992,2.452c0.22,0.86,0.548,1.672,0.992,2.456
	c0.22,0.86,0.548,1.676,0.992,2.456c0.22,0.86,0.548,1.672,0.992,2.452c0.22,0.86,0.548,1.672,0.992,2.452
	c0.22,0.86,0.548,1.672,0.992,2.456c0.22,0.86,0.548,1.672,0.992,2.46c0.22,0.856,0.548,1.664,0.992,2.448
	c0.22,0.86,0.548,1.672,0.992,2.452c0.22,0.86,0.548,1.672,0.992,2.456c0.22,0.86,0.548,1.672,0.992,2.456
	c0.22,0.86,0.548,1.672,0.992,2.46c0.22,0.856,0.548,1.664,0.992,2.444c0.22,0.86,0.548,1.672,0.992,2.456
	c0.22,0.86,0.548,1.672,0.992,2.456c0.22,0.86,0.548,1.676,0.992,2.456c0.22,0.86,0.548,1.672,0.988,2.448
	c0.224,0.868,0.552,1.68,1,2.468c0.216,0.856,0.544,1.664,0.988,2.444c0.22,0.86,0.548,1.672,0.992,2.46
	c0.22,0.856,0.548,1.664,0.992,2.444c0.22,0.86,0.548,1.672,0.992,2.456c0.22,0.86,0.548,1.672,0.992,2.456
	c0.22,0.86,0.548,1.676,0.992,2.452c0.22,0.864,0.548,1.672,0.992,2.452c0.22,0.86,0.548,1.672,0.992,2.456
	c0.22,0.86,0.548,1.672,0.992,2.456c0.22,0.86,0.548,1.672,0.992,2.452c0.22,0.864,0.548,1.68,0.992,2.456
	c0.22,0.86,0.548,1.672,0.992,2.452c0.22,0.86,0.548,1.672,0.992,2.456c0.22,0.86,0.548,1.672,0.992,2.452
	c0.22,0.864,0.548,1.672,0.992,2.46c0.22,0.856,0.548,1.664,0.988,2.448c0.224,0.86,0.552,1.672,0.992,2.456
	c0.224,0.86,0.552,1.672,0.992,2.452c0.224,0.864,0.552,1.68,0.992,2.456c0.224,0.86,0.552,1.672,0.992,2.452
	c0.224,0.86,0.548,1.672,0.992,2.456c0.22,0.86,0.548,1.672,0.992,2.452c0.088,0.36,0.276,0.684,0.412,1.024
	c7.124,0.588,14.308,0.968,21.584,0.968C349.752,512,431.684,461.58,476.28,386.404z"/>
<path style="fill:#FFD464;" d="M109.64,186c-2.984,0-5.876-1.348-7.8-3.752c-2.44-3.044-2.896-7.232-1.144-10.728l20-40
	c2.484-4.936,8.476-6.952,13.42-4.472c4.936,2.468,6.936,8.476,4.468,13.416l8.632,15.82c5.352-1.372,10.776,1.928,12.116,7.28
	c1.348,5.352-1.916,10.78-7.272,12.128l-40,10C111.264,185.904,110.452,186,109.64,186z"/>
<path style="fill:#FFE399;" d="M110.544,173.712c-0.596,0-1.212-0.136-1.784-0.416c-1.976-0.988-2.772-3.396-1.784-5.372
	l6.528-13.052c0.992-1.98,3.4-2.764,5.368-1.784c1.976,0.984,2.776,3.392,1.788,5.368l-6.528,13.052
	C113.42,172.904,112.012,173.712,110.544,173.712z"/>
<path style="fill:#F2C95F;" d="M159.34,163.58c-1.34-5.352-6.768-8.648-12.12-7.28l-8.632-15.82
	c2.476-4.94,0.468-10.948-4.468-13.416c-4.416-2.212-9.636-0.832-12.48,2.996c2.176,2.932,2.7,6.932,0.948,10.42l8.632,15.82
	c5.352-1.368,10.78,1.928,12.12,7.28c1.348,5.356-1.916,10.78-7.276,12.128l-32.592,8.148c1.756,1.388,3.936,2.144,6.176,2.144
	c0.812,0,1.62-0.096,2.416-0.292l40-10C157.42,174.36,160.688,168.928,159.34,163.58z"/>
<path style="fill:#FFD464;" d="M269.64,396v-40c0-5.528-4.468-10-10-10c-5.524,0-10,4.472-10,10v40c-5.524,0-10,4.472-10,10
	s4.476,10,10,10h20c5.532,0,10-4.472,10-10S275.172,396,269.64,396z"/>
<path style="fill:#FFD599;" d="M253.712,236c16.916,0.04,33.812,0.548,46.072,7.584c2.82-2.084,5.564-4.14,8.304-6.184
	c25.164-18.712,46.888-34.864,68.068-34.864c6.56,0,12.724,1.584,18.36,4.712c19.096,10.62,18.528,24.512,17.396,30
	c-2.196,10.684-11.716,19.82-24.868,24.864c2.16,4.416,3.252,9.512,1.624,15.012c-3.028,10.212-13.736,17.148-34.456,22.156
	c0.052,0.84,0.076,1.672,0.076,2.5c0,35.412-42.452,64.22-94.632,64.22c-43.928,0-78.132-17.084-88.444-43.848L253.712,236z"/>
<g>
	<path style="fill:#F2CA91;" d="M295.42,247.004c1.508-1.108,2.888-2.316,4.36-3.416c-13.196-7.584-32.4-7.556-46.076-7.584
		l-0.184,0.192C266.28,236.644,286.036,241.612,295.42,247.004z"/>
	<path style="fill:#F2CA91;" d="M394.508,207.252c-5.636-3.12-11.804-4.708-18.36-4.708c-2.048,0-4.1,0.196-6.164,0.484
		c4.4,0.664,8.592,2.044,12.524,4.224c19.1,10.624,18.528,24.516,17.4,30c-2.196,10.688-11.72,19.828-24.872,24.868
		c2.16,4.416,3.252,9.512,1.624,15.012c-3.028,10.212-13.74,17.148-34.456,22.156c0.048,0.84,0.072,1.672,0.072,2.5
		c0,34.032-39.212,61.94-88.584,64.076c1.972,0.072,3.936,0.144,5.948,0.144c52.18,0,94.632-28.808,94.632-64.22
		c0-0.828-0.024-1.66-0.076-2.5c20.724-5.008,31.428-11.944,34.456-22.156c1.616-5.5,0.536-10.596-1.624-15.012
		c13.152-5.044,22.672-14.18,24.868-24.868C413.036,231.756,413.608,217.876,394.508,207.252z"/>
</g>
<path style="fill:#C23527;" d="M132.5,116.084c-8-6.328-20.332-13.752-12.86-21.836c7.664-8.284,12.192-0.5,16.936-2.252
	c4.752-1.752,3.916-9,12.416-9.252s9.252,5.636,13.5,6.892c4.248,1.252,8.752-5.892,16.252-3.64s6.752,22.5,0,26.5
	C171.996,116.5,132.5,116.084,132.5,116.084z"/>
<g>
	<path style="fill:#B33124;" d="M154.5,89.64c1.736,0.508,3.524-0.384,5.524-1.46c-2.504-2.164-4.452-5.624-11.024-5.428
		c-1.372,0.044-2.436,0.308-3.392,0.664C149.964,84.928,151.2,88.672,154.5,89.64z"/>
	<path style="fill:#B33124;" d="M178.752,86c-2.724-0.816-5.044-0.384-7.1,0.42c6.512,3.572,5.572,22.252-0.9,26.08
		c-4.82,2.86-26.352,3.46-38.26,3.572c0.008,0.004,0.012,0.008,0.016,0.016c0,0,39.5,0.416,46.252-3.584
		C185.508,108.5,186.252,88.252,178.752,86z"/>
	<path style="fill:#B33124;" d="M128.584,92c0.648-0.244,1.188-0.6,1.664-1.016c-2.064-0.68-4.32-1.084-6.984,0.348
		C125.116,91.996,126.836,92.644,128.584,92z"/>
</g>
<path style="fill:#F2CA91;" d="M239.64,326c-5.524,0-10-4.472-10-10s4.476-10,10-10c55.364,0,60-15.488,60-30
	c0-5.528,4.476-10,10-10c5.532,0,10,4.472,10,10C319.64,326,263.58,326,239.64,326z"/>
<path style="fill:#CC803D;" d="M253.532,236c-27.004-25.656-48.548-73.416-53.892-91.408V136c0-23.184-16.824-40-40-40
	c-23.172,0-40,16.816-40,40c0,16.796,8.372,30.756,22.148,37.54c0.196,0.468,0.404,0.936,0.616,1.444
	c3.392,7.892,9.072,21.108,7.252,50.392l-0.904,13.456c-2.664,38.672-4.304,62.46,22.428,83.32c0.108,0.284,0.304,0.528,0.42,0.8
	c9.508-3.516,17.384-9.836,22.32-17.832c17.564-3.28,31.328-15.644,34.828-31.328c17.868-5.272,30.844-20.088,30.876-37.752
	C257.608,236.02,255.572,236.008,253.532,236z"/>
<path style="fill:#BF7839;" d="M253.532,236c-27.004-25.656-48.548-73.416-53.892-91.408V136c0-23.184-16.824-40-40-40
	c-2.064,0-4.048,0.18-6,0.436c20.012,2.648,34,18.432,34,39.564v8.592c5.344,17.984,36.484,78.276,60,91.448
	c-0.032,17.656-13.008,32.472-30.876,37.752c-3.5,15.684-17.264,28.048-34.828,31.328c-3.476,5.628-8.432,10.404-14.368,13.976
	c1.164,1.024,2.328,2.048,3.62,3.056c0.108,0.284,0.304,0.528,0.416,0.8c9.512-3.516,17.388-9.836,22.32-17.832
	c17.568-3.28,31.328-15.644,34.828-31.328c17.872-5.272,30.852-20.088,30.88-37.752C257.608,236.02,255.572,236.008,253.532,236z"/>
<circle style="fill:#F5F5F5;" cx="157" cy="133.992" r="16"/>
<circle style="fill:#242424;" cx="157" cy="133.992" r="8"/>
<g>
</g>
<g>
</g>
<g>
</g>
<g>
</g>
<g>
</g>
<g>
</g>
<g>
</g>
<g>
</g>
<g>
</g>
<g>
</g>
<g>
</g>
<g>
</g>
<g>
</g>
<g>
</g>
<g>
</g>
</svg>
