<?xml version="1.0" encoding="iso-8859-1"?>
<!-- Generator: Adobe Illustrator 19.0.0, SVG Export Plug-In . SVG Version: 6.00 Build 0)  -->
<svg version="1.1" id="Layer_1" xmlns="http://www.w3.org/2000/svg" xmlns:xlink="http://www.w3.org/1999/xlink" x="0px" y="0px"
	 viewBox="0 0 512 512" style="enable-background:new 0 0 512 512;" xml:space="preserve">
<path style="fill:#4AB8A1;" d="M256,0c141.384,0,256,114.616,256,256S397.384,512,256,512S0,397.384,0,256S114.616,0,256,0z"/>
<path style="fill:#43A691;" d="M256,512c96.592,0,180.672-53.524,224.256-132.512c-0.54,0.084-1.076,0.196-1.604,0.292
	c0.396-0.804,0.776-1.604,1.204-2.416c-0.68,0.088-1.356,0.252-2.032,0.372c0.396-0.796,0.776-1.6,1.204-2.416
	c-0.68,0.084-1.356,0.252-2.032,0.372c0.396-0.8,0.776-1.604,1.204-2.416c-0.68,0.084-1.352,0.252-2.032,0.376
	c0.396-0.804,0.776-1.604,1.204-2.416c-0.68,0.084-1.356,0.252-2.032,0.376c0.396-0.804,0.776-1.608,1.208-2.42
	c-0.684,0.084-1.356,0.252-2.036,0.376c0.396-0.804,0.776-1.6,1.208-2.416c-0.684,0.084-1.36,0.248-2.036,0.372
	c0.396-0.804,0.776-1.6,1.208-2.416c-0.684,0.084-1.356,0.248-2.036,0.372c0.396-0.804,0.776-1.604,1.208-2.416
	c-0.68,0.084-1.356,0.252-2.032,0.376c0.392-0.804,0.776-1.604,1.204-2.416c-0.68,0.084-1.352,0.252-2.032,0.372
	c0.4-0.796,0.776-1.596,1.204-2.416c-0.68,0.084-1.352,0.252-2.032,0.372c0.392-0.804,0.772-1.604,1.204-2.416
	c-0.68,0.084-1.352,0.252-2.032,0.376c0.392-0.804,0.772-1.608,1.204-2.42c-0.68,0.084-1.352,0.252-2.032,0.376
	c0.4-0.8,0.776-1.6,1.204-2.416c-0.68,0.084-1.352,0.252-2.032,0.376c0.392-0.804,0.772-1.608,1.204-2.416
	c-0.68,0.084-1.352,0.248-2.032,0.372c0.404-0.804,0.776-1.6,1.204-2.416c-0.68,0.084-1.352,0.248-2.032,0.372
	c0.4-0.804,0.772-1.608,1.204-2.42c-0.68,0.084-1.352,0.252-2.032,0.38c0.404-0.804,0.776-1.604,1.204-2.416
	c-0.68,0.084-1.352,0.252-2.032,0.372c0.4-0.796,0.772-1.6,1.204-2.416c-0.68,0.084-1.352,0.248-2.032,0.372
	c0.404-0.804,0.776-1.596,1.204-2.416c-0.68,0.084-1.352,0.252-2.032,0.376c0.4-0.804,0.772-1.608,1.212-2.42
	c-0.688,0.084-1.36,0.252-2.04,0.376c0.4-0.804,0.772-1.604,1.212-2.416c-0.688,0.088-1.36,0.252-2.04,0.372
	c0.404-0.796,0.776-1.6,1.212-2.416c-0.688,0.084-1.36,0.248-2.04,0.372c0.4-0.804,0.772-1.604,1.212-2.416
	c-0.68,0.084-1.36,0.252-2.032,0.368c0.4-0.796,0.772-1.596,1.208-2.416c-0.68,0.084-1.356,0.252-2.036,0.376
	c0.396-0.804,0.772-1.604,1.208-2.416c-0.68,0.088-1.352,0.252-2.032,0.372c0.396-0.796,0.768-1.6,1.204-2.416
	c-0.68,0.084-1.356,0.248-2.032,0.372c0.392-0.804,0.768-1.608,1.204-2.416c-0.68,0.084-1.352,0.252-2.032,0.376
	c0.396-0.804,0.768-1.604,1.204-2.416c-0.68,0.084-1.356,0.252-2.032,0.38c0.392-0.804,0.768-1.608,1.204-2.42
	c-0.68,0.084-1.356,0.252-2.032,0.372c0.392-0.8,0.768-1.604,1.204-2.416c-0.68,0.084-1.352,0.252-2.032,0.376
	c0.404-0.804,0.768-1.6,1.204-2.416c-0.68,0.084-1.356,0.248-2.032,0.368c0.396-0.8,0.768-1.604,1.204-2.416
	c-0.68,0.088-1.352,0.252-2.032,0.38c0.404-0.804,0.768-1.608,1.204-2.416c-0.68,0.088-1.356,0.252-2.032,0.372
	c0.396-0.8,0.768-1.6,1.204-2.416c-0.68,0.084-1.352,0.248-2.032,0.372c0.404-0.804,0.768-1.604,1.208-2.416
	c-0.684,0.084-1.36,0.252-2.036,0.376c0.396-0.804,0.768-1.608,1.208-2.42c-0.684,0.084-1.356,0.252-2.036,0.376
	c0.404-0.804,0.768-1.6,1.208-2.416c-0.684,0.084-1.36,0.252-2.036,0.372c0.396-0.8,0.776-1.604,1.208-2.416
	c-0.68,0.084-1.356,0.252-2.032,0.372c0.4-0.804,0.776-1.604,1.212-2.416c-0.68,0.084-1.352,0.252-2.04,0.376
	c0.4-0.804,0.776-1.604,1.212-2.416c-0.68,0.088-1.36,0.252-2.04,0.376c0.4-0.8,0.772-1.604,1.212-2.416
	c-0.68,0.084-1.352,0.252-2.04,0.372c0.4-0.804,0.776-1.596,1.212-2.416c-0.68,0.084-1.36,0.252-2.032,0.376
	c0.392-0.804,0.764-1.608,1.204-2.416c-0.68,0.084-1.352,0.248-2.032,0.372c0.392-0.804,0.768-1.6,1.204-2.416
	c-0.68,0.084-1.36,0.252-2.032,0.376c0.392-0.804,0.764-1.608,1.204-2.42c-0.68,0.084-1.352,0.252-2.032,0.376
	c0.396-0.8,0.768-1.6,1.204-2.416c-0.68,0.084-1.36,0.248-2.032,0.368c0.392-0.8,0.764-1.604,1.204-2.416
	c-0.68,0.084-1.352,0.252-2.032,0.376c0.396-0.804,0.768-1.604,1.204-2.416c-0.68,0.088-1.36,0.252-2.032,0.376
	c0.392-0.8,0.764-1.604,1.204-2.416c-0.68,0.084-1.36,0.252-2.032,0.372c0.392-0.804,0.764-1.604,1.204-2.416
	c-0.68,0.084-1.352,0.252-2.032,0.376c0.396-0.804,0.768-1.604,1.204-2.416c-0.68,0.084-1.36,0.248-2.032,0.372
	c0.392-0.804,0.764-1.608,1.204-2.416c-0.68,0.084-1.352,0.252-2.032,0.376c0.396-0.804,0.772-1.604,1.204-2.416
	c-0.68,0.084-1.352,0.252-2.032,0.372c0.4-0.804,0.78-1.6,1.208-2.416c-0.68,0.084-1.352,0.252-2.036,0.376
	c0.4-0.804,0.78-1.604,1.208-2.416c-0.68,0.088-1.356,0.252-2.036,0.38c0.396-0.804,0.78-1.608,1.208-2.42
	c-0.68,0.084-1.352,0.252-2.036,0.376c0.4-0.804,0.78-1.6,1.208-2.416c-0.68,0.084-1.356,0.248-2.032,0.372
	c0.392-0.804,0.776-1.604,1.204-2.416c-0.68,0.084-1.356,0.252-2.032,0.376c0.392-0.804,0.776-1.608,1.204-2.42
	c-0.68,0.084-1.352,0.252-2.032,0.376c0.396-0.804,0.776-1.604,1.204-2.416c-0.68,0.084-1.356,0.252-2.032,0.372
	c0.396-0.8,0.776-1.604,1.204-2.416c-0.68,0.088-1.352,0.248-2.032,0.372c0.396-0.804,0.776-1.6,1.204-2.416
	c-0.68,0.084-1.356,0.252-2.032,0.372c0.396-0.804,0.776-1.608,1.204-2.416c-0.68,0.084-1.352,0.248-2.032,0.372
	c0.396-0.804,0.776-1.604,1.204-2.416c-0.68,0.084-1.356,0.252-2.032,0.376c0.396-0.804,0.776-1.608,1.208-2.42
	c-0.684,0.084-1.356,0.252-2.036,0.372c0.396-0.804,0.776-1.6,1.208-2.416c-0.684,0.084-1.36,0.248-2.036,0.372
	c0.396-0.804,0.776-1.608,1.208-2.42c-0.68,0.084-1.36,0.252-2.036,0.376c0.396-0.804,0.776-1.608,1.208-2.42
	c-0.68,0.084-1.352,0.252-2.032,0.368c0.4-0.796,0.776-1.596,1.204-2.416c-0.68,0.084-1.352,0.248-2.032,0.372
	c0.392-0.804,0.772-1.604,1.204-2.416c-0.68,0.084-1.352,0.248-2.032,0.372c0.4-0.804,0.776-1.604,1.204-2.416
	c-0.68,0.084-1.352,0.252-2.032,0.376c0.392-0.804,0.772-1.608,1.204-2.42c-0.68,0.088-1.352,0.252-2.032,0.372
	c0.4-0.8,0.776-1.6,1.204-2.416c-0.68,0.084-1.352,0.248-2.032,0.372c0.392-0.804,0.772-1.604,1.204-2.416
	c-0.68,0.084-1.352,0.248-2.032,0.372c0.404-0.804,0.776-1.604,1.204-2.416c-0.68,0.084-1.352,0.252-2.032,0.376
	c0.396-0.804,0.772-1.608,1.204-2.42c-0.68,0.088-1.352,0.252-2.032,0.372c0.396-0.8,0.772-1.604,1.204-2.416
	c-0.68,0.084-1.352,0.252-2.032,0.372c0.404-0.804,0.776-1.6,1.204-2.416c-0.68,0.084-1.352,0.248-2.032,0.372
	c0.4-0.804,0.772-1.608,1.204-2.42c-0.68,0.088-1.352,0.252-2.032,0.376c0.404-0.804,0.776-1.604,1.208-2.416
	c-0.684,0.088-1.356,0.252-2.036,0.372c0.4-0.8,0.772-1.604,1.208-2.416c-0.684,0.084-1.356,0.248-2.036,0.372
	c0.404-0.804,0.78-1.6,1.212-2.416c-0.684,0.084-1.36,0.248-2.04,0.372c0.4-0.804,0.772-1.608,1.212-2.42
	c-0.684,0.088-1.356,0.252-2.04,0.376c0.404-0.804,0.78-1.604,1.212-2.416c-0.68,0.084-1.356,0.252-2.032,0.372
	c0.4-0.804,0.772-1.604,1.208-2.416c-0.68,0.084-1.356,0.248-2.032,0.372c0.392-0.804,0.768-1.604,1.204-2.416
	c-0.68,0.084-1.352,0.248-2.032,0.372c0.396-0.804,0.768-1.604,1.204-2.416c-0.68,0.088-1.356,0.252-2.032,0.376
	c0.392-0.804,0.768-1.608,1.204-2.42c-0.68,0.084-1.352,0.252-2.032,0.372c0.396-0.8,0.768-1.6,1.204-2.416
	c-0.68,0.084-1.356,0.248-2.032,0.372c0.392-0.804,0.768-1.604,1.204-2.416c-0.68,0.084-1.352,0.248-2.032,0.372
	c0.396-0.804,0.768-1.604,1.204-2.416c-0.68,0.088-1.356,0.252-2.032,0.376c0.396-0.804,0.768-1.608,1.204-2.42
	c-0.68,0.084-1.352,0.252-2.032,0.372c0.404-0.8,0.768-1.6,1.204-2.416c-0.68,0.084-1.356,0.248-2.032,0.372
	c0.396-0.804,0.768-1.604,1.204-2.416c-0.68,0.084-1.352,0.248-2.032,0.372c0.404-0.804,0.768-1.604,1.208-2.416
	c-0.684,0.088-1.36,0.252-2.036,0.376c0.396-0.804,0.768-1.608,1.208-2.42c-0.684,0.084-1.36,0.252-2.036,0.372
	c0.396-0.8,0.772-1.604,1.208-2.416c-0.68,0.084-1.356,0.248-2.036,0.372c0.404-0.804,0.772-1.6,1.208-2.416
	c-0.68,0.084-1.36,0.248-2.036,0.372c0.396-0.804,0.776-1.608,1.208-2.42c-0.68,0.084-1.352,0.252-2.032,0.372
	c0.4-0.8,0.776-1.6,1.212-2.416c-0.68,0.084-1.36,0.252-2.04,0.372c0.4-0.8,0.772-1.604,1.212-2.416
	c-0.68,0.084-1.352,0.248-2.04,0.372c0.4-0.804,0.776-1.6,1.212-2.416c-0.68,0.084-1.36,0.248-2.04,0.372
	c0.4-0.804,0.772-1.608,1.212-2.42c-0.68,0.084-1.352,0.252-2.032,0.376c0.392-0.804,0.768-1.604,1.204-2.416
	c-0.68,0.084-1.36,0.252-2.032,0.372c0.392-0.8,0.764-1.604,1.204-2.416c-0.68,0.084-1.36,0.248-2.032,0.372
	c0.392-0.804,0.764-1.604,1.204-2.416c-0.68,0.084-1.352,0.248-2.032,0.372c0.392-0.804,0.768-1.604,1.204-2.416
	c-0.68,0.084-1.36,0.252-2.032,0.376c0.392-0.804,0.764-1.608,1.204-2.42c-0.68,0.088-1.352,0.252-2.032,0.372
	c0.396-0.8,0.768-1.6,1.204-2.416c-0.68,0.084-1.36,0.248-2.032,0.372c0.392-0.804,0.764-1.608,1.204-2.416
	c-0.68,0.084-1.352,0.248-2.032,0.372c0.396-0.804,0.768-1.604,1.204-2.416c-0.68,0.084-1.36,0.252-2.032,0.376
	c0.392-0.804,0.764-1.608,1.204-2.42c-0.68,0.088-1.352,0.252-2.032,0.372c0.396-0.8,0.772-1.6,1.204-2.416
	c-0.68,0.084-1.36,0.248-2.032,0.372c0.392-0.804,0.764-1.604,1.204-2.416c-0.68,0.084-1.352,0.248-2.032,0.368
	c0.4-0.804,0.78-1.604,1.208-2.416c-0.68,0.088-1.352,0.252-2.036,0.376c0.4-0.804,0.78-1.604,1.208-2.416
	c-0.68,0.088-1.356,0.252-2.036,0.372c0.396-0.8,0.78-1.604,1.208-2.416c-0.68,0.084-1.352,0.248-2.036,0.372
	c0.4-0.804,0.78-1.604,1.208-2.416c-0.68,0.084-1.356,0.248-2.032,0.372c0.392-0.804,0.776-1.608,1.204-2.42
	c-0.68,0.088-1.352,0.252-2.032,0.376c0.396-0.804,0.776-1.604,1.204-2.416c-0.68,0.088-1.356,0.252-2.032,0.372
	c0.396-0.804,0.776-1.604,1.204-2.416c-0.68,0.084-1.352,0.248-2.032,0.372c0.396-0.804,0.776-1.604,1.204-2.416
	c-0.68,0.084-1.356,0.248-2.032,0.372c0.396-0.804,0.776-1.608,1.204-2.42c-0.68,0.088-1.356,0.252-2.032,0.376
	c0.396-0.804,0.776-1.608,1.208-2.416c-0.684,0.084-1.356,0.252-2.036,0.372c0.396-0.804,0.776-1.6,1.208-2.416
	c-0.684,0.084-1.36,0.248-2.036,0.372c0.396-0.804,0.776-1.608,1.208-2.416c-0.684,0.084-1.356,0.248-2.036,0.372
	c0.396-0.804,0.776-1.604,1.208-2.416c-0.68,0.088-1.36,0.252-2.036,0.376c0.396-0.804,0.776-1.608,1.208-2.42
	c-0.68,0.084-1.352,0.252-2.036,0.372c0.396-0.8,0.776-1.6,1.208-2.416c-0.68,0.084-1.352,0.248-2.032,0.368
	c0.392-0.804,0.776-1.604,1.204-2.416c-0.68,0.088-1.352,0.252-2.032,0.376c0.4-0.804,0.776-1.604,1.204-2.416
	c-0.68,0.088-1.352,0.252-2.032,0.372c0.392-0.8,0.772-1.604,1.204-2.416c-0.68,0.084-1.352,0.248-2.032,0.372
	c0.4-0.804,0.776-1.6,1.204-2.416c-0.68,0.084-1.352,0.248-2.032,0.372c0.392-0.804,0.772-1.608,1.204-2.416
	c-0.68,0.084-1.352,0.248-2.032,0.372c0.396-0.804,0.772-1.608,1.204-2.42c-0.68,0.084-1.352,0.252-2.032,0.372
	c0.404-0.8,0.776-1.6,1.204-2.416c-1.444,0.188-2.9,0.468-4.336,0.788c-0.548,0.112-1.084,0.252-1.628,0.392
	c-0.844,0.22-1.692,0.452-2.536,0.712c-13.964,4.204-26.852,13.584-36.368,22.224C239.764,106.173,72.94,239.537,62.2,247.593
	c-7.152,5.36-8.204,10.736-5.324,16.648c0.224,0.672,0.492,1.352,0.824,2.04c0.224,0.676,0.492,1.356,0.824,2.048
	c0.152,0.456,0.276,0.916,0.484,1.392c-20.344,14.344-38.692,27.812-53.588,39.184C29.572,424.648,132.576,512,256,512z"/>
<path style="fill:#242424;" d="M64.948,274.212c-10.428-10.416-13.904-18.768-2.78-27.108
	C73.292,238.76,251.976,95.872,331.936,127.52c-12.868,33.72-49.368,54.232-49.368,54.232L64.948,274.212z"/>
<g>
	<path style="fill:#F2B255;" d="M228.804,425.52c-0.136,5.52-0.548,11.168-1.288,16.912
		C228.252,436.688,228.664,431.04,228.804,425.52z"/>
	<path style="fill:#F2B255;" d="M227.416,443.244c-2.676,19.948-9.444,41.02-23.088,61.76
		C217.972,484.264,224.744,463.192,227.416,443.244z"/>
	<path style="fill:#F2B255;" d="M192.9,504.144c30.228-46.628,25.828-94.828,18.92-128.072
		c8.696-28.156,50.984-97.716,63.848-114.404c-0.416,5.664,1.436,16.308,2.584,20.544c-0.644,0.904-1.356,1.924-2.056,2.92
		c0.776-1.04,1.532-2.048,2.204-2.92c6.608,17.724,29.896,36.852,49.028,35.812c3.816,3.824,37.18,27.468,54.916,35.112
		c-1.752,19.464,29.9,26.76,39.984,18.76c22.604-1.388,24.676-17.38,25.372-44.492c-11.472-25.724-81-155.74-103.252-178.684
		c13.556-10.424,13.22-28.16,23.64-47.976c-26.768,3.476-51.452,29.548-58.752,38.584c-50.96-9.408-225.584,109.284-303.952,169.06
		C25.296,404.132,98.676,480.256,192.9,504.144z"/>
</g>
<g>
	<path style="fill:#E6A951;" d="M276.196,285.132c-14.072,18.88-44.132,64.252-52.376,90.94
		C230.916,353.116,260.348,307.724,276.196,285.132z"/>
	<path style="fill:#E6A951;" d="M228.804,425.52c0.388-15.512-1.332-29.996-3.656-42.672
		C227.468,395.524,229.188,410.008,228.804,425.52z"/>
	<path style="fill:#E6A951;" d="M203.316,506.548L203.316,506.548c0.348-0.512,0.676-1.028,1.016-1.54
		C203.992,505.52,203.66,506.032,203.316,506.548z"/>
	<path style="fill:#E6A951;" d="M227.516,442.432c-0.036,0.272-0.06,0.54-0.096,0.812
		C227.452,442.972,227.48,442.704,227.516,442.432z"/>
	<path style="fill:#E6A951;" d="M275.668,261.668c-12.864,16.688-55.152,86.248-63.848,114.404
		c6.908,33.244,11.308,81.44-18.92,128.072c3.444,0.872,6.916,1.672,10.416,2.404c0.348-0.512,0.676-1.028,1.016-1.54
		c13.644-20.744,20.412-41.816,23.088-61.76c0.036-0.272,0.064-0.54,0.096-0.812c0.74-5.744,1.152-11.392,1.288-16.912
		c0.388-15.512-1.332-29.996-3.656-42.672c-0.424-2.32-0.872-4.58-1.328-6.776c8.24-26.684,38.304-72.06,52.376-90.94
		c0.7-0.996,1.412-2.016,2.056-2.92C277.104,277.976,275.252,267.332,275.668,261.668z"/>
	<path style="fill:#E6A951;" d="M344.444,148.72c13.564-10.424,13.22-28.16,23.648-47.976c-4.724,0.612-9.36,1.952-13.868,3.752
		c-8.584,18.288-9.084,34.456-21.78,44.224c22.252,22.944,91.78,152.96,103.252,178.684c-0.696,27.112-2.772,43.104-25.372,44.492
		c-1.576,1.252-3.7,2.084-6.096,2.588c7.132,1.276,14.22,0.488,18.096-2.588c22.588-1.388,24.676-17.38,25.372-44.492
		C436.236,301.68,366.7,171.664,344.444,148.72z"/>
</g>
<path style="fill:#A67C43;" d="M440.828,313.172c-25.7,1.004-47.752,17-58.524,39.936c0.012,0,0.028,0.016,0.04,0.02
	c-1.744,19.464,29.9,26.76,39.984,18.76c22.592-1.388,24.676-17.38,25.372-44.492C446.256,324.168,443.9,319.28,440.828,313.172z"/>
<path style="fill:#99723E;" d="M441.408,314.324c-0.188-0.372-0.352-0.704-0.548-1.084c-0.008-0.024-0.02-0.052-0.032-0.072
	c-3.852,0.148-7.6,0.676-11.264,1.472c2.704,5.404,4.82,9.792,6.136,12.752c-0.696,27.112-2.776,43.104-25.372,44.492
	c-1.572,1.252-3.7,2.084-6.1,2.588c0.68,0.12,1.36,0.208,2.04,0.292c0.328,0.04,0.664,0.084,0.992,0.104
	c0.624,0.068,1.252,0.104,1.88,0.132c0.396,0.016,0.776,0.02,1.172,0.024c0.568,0.008,1.128,0.02,1.684-0.008
	c0.864-0.04,1.712-0.096,2.528-0.22c0.348-0.052,0.672-0.124,1.008-0.184c0.584-0.104,1.14-0.228,1.68-0.36
	c0.32-0.084,0.624-0.188,0.932-0.28c0.544-0.172,1.064-0.376,1.56-0.584c0.248-0.1,0.484-0.208,0.724-0.32
	c0.696-0.352,1.352-0.744,1.916-1.196c22.584-1.388,24.676-17.38,25.372-44.492C446.352,324.384,444.18,319.88,441.408,314.324z"/>
<path style="fill:#242424;" d="M432.056,325.66c3.84,0,6.952,7.24,6.952,16.168s-3.112,16.168-6.952,16.168
	s-6.952-7.24-6.952-16.168S428.216,325.66,432.056,325.66z"/>
<path style="fill:#F5F5F5;" d="M363.608,230.132c-2.252,3.68-13.276,1.024-24.632-5.92c-11.344-6.94-18.72-15.568-16.464-19.252
	c2.248-3.68,13.268-1.024,24.628,5.916C358.484,217.832,365.872,226.452,363.608,230.132z"/>
<path style="fill:#242424;" d="M347.888,220.536c-1.636,2.676-5.096,3.536-7.732,1.924s-3.444-5.084-1.812-7.76
	c1.636-2.676,5.096-3.536,7.732-1.924S349.524,217.86,347.888,220.536z"/>
<g>
</g>
<g>
</g>
<g>
</g>
<g>
</g>
<g>
</g>
<g>
</g>
<g>
</g>
<g>
</g>
<g>
</g>
<g>
</g>
<g>
</g>
<g>
</g>
<g>
</g>
<g>
</g>
<g>
</g>
</svg>
