<?xml version="1.0" encoding="iso-8859-1"?>
<!-- Generator: Adobe Illustrator 19.0.0, SVG Export Plug-In . SVG Version: 6.00 Build 0)  -->
<svg version="1.1" id="Layer_1" xmlns="http://www.w3.org/2000/svg" xmlns:xlink="http://www.w3.org/1999/xlink" x="0px" y="0px"
	 viewBox="0 0 512 512" style="enable-background:new 0 0 512 512;" xml:space="preserve">
<circle style="fill:#C2D5D8;" cx="256" cy="256" r="256"/>
<path style="fill:#B7C9CC;" d="M505.164,314.684c-0.176-0.44-0.344-0.892-0.532-1.304c-0.26-0.708-0.54-1.392-0.82-2.036
	c-0.264-0.712-0.54-1.408-0.828-2.052c-0.264-0.716-0.548-1.416-0.836-2.068c-0.256-0.712-0.54-1.396-0.82-2.04
	c-0.264-0.716-0.548-1.416-0.836-2.064c-0.256-0.712-0.54-1.4-0.82-2.04c-0.264-0.72-0.544-1.416-0.836-2.068
	c-0.256-0.708-0.536-1.392-0.82-2.036c-0.264-0.72-0.544-1.416-0.836-2.064c-0.256-0.716-0.536-1.4-0.82-2.04
	c-0.256-0.704-0.532-1.384-0.812-2.02c-0.272-0.732-0.552-1.424-0.848-2.088c-0.26-0.712-0.536-1.396-0.816-2.04
	c-0.272-0.72-0.548-1.416-0.84-2.068c-0.26-0.708-0.536-1.396-0.816-2.036c-0.264-0.72-0.548-1.416-0.836-2.064
	c-0.256-0.712-0.54-1.4-0.82-2.04c-0.264-0.72-0.548-1.416-0.836-2.068c-0.256-0.708-0.54-1.396-0.82-2.036
	c-0.264-0.72-0.548-1.416-0.836-2.068c-0.256-0.712-0.54-1.396-0.82-2.04c-0.26-0.716-0.54-1.404-0.828-2.052
	c-0.264-0.72-0.548-1.416-0.836-2.068c-0.256-0.708-0.54-1.396-0.82-2.036c-0.264-0.72-0.548-1.416-0.836-2.072
	c-0.252-0.696-0.524-1.368-0.8-2c-0.272-0.732-0.56-1.424-0.856-2.088c-0.252-0.712-0.532-1.396-0.812-2.04
	c-0.268-0.716-0.548-1.412-0.836-2.064c-0.26-0.708-0.54-1.392-0.82-2.036c-0.264-0.712-0.548-1.408-0.828-2.052
	c-0.264-0.72-0.548-1.416-0.836-2.068c-0.256-0.708-0.54-1.392-0.82-2.036c-0.264-0.716-0.548-1.412-0.836-2.064
	c-0.256-0.712-0.54-1.396-0.82-2.04c-0.264-0.716-0.548-1.412-0.836-2.064c-0.256-0.708-0.536-1.392-0.82-2.036
	c-0.264-0.716-0.544-1.416-0.836-2.064c-0.256-0.712-0.536-1.396-0.82-2.04c-0.256-0.712-0.54-1.404-0.828-2.052
	c-0.256-0.704-0.532-1.388-0.82-2.028c-0.256-0.72-0.544-1.416-0.832-2.076c-0.26-0.716-0.544-1.412-0.836-2.064
	c-0.252-0.708-0.536-1.392-0.816-2.036c-0.264-0.72-0.548-1.416-0.836-2.068c-0.256-0.708-0.54-1.392-0.82-2.036
	c-0.264-0.716-0.548-1.412-0.836-2.064c-0.256-0.708-0.54-1.392-0.82-2.036c-0.26-0.716-0.544-1.408-0.828-2.056
	c-0.264-0.716-0.548-1.412-0.836-2.064c-0.256-0.708-0.54-1.392-0.82-2.036c-0.264-0.72-0.54-1.416-0.836-2.068
	c-0.256-0.708-0.532-1.392-0.82-2.036c-0.264-0.716-0.54-1.412-0.836-2.064c-0.256-0.708-0.532-1.392-0.82-2.036
	c-0.264-0.72-0.54-1.416-0.836-2.068c-0.252-0.696-0.524-1.368-0.8-2c-0.268-0.728-0.552-1.42-0.84-2.084
	c-0.268-0.716-0.548-1.416-0.836-2.068c-0.26-0.708-0.54-1.392-0.82-2.036c-0.264-0.716-0.548-1.412-0.836-2.064
	c-0.256-0.708-0.54-1.396-0.82-2.036c-0.264-0.72-0.548-1.416-0.836-2.068c-0.256-0.708-0.54-1.392-0.82-2.036
	c-0.264-0.716-0.548-1.412-0.836-2.064c-0.256-0.712-0.54-1.396-0.82-2.036c-0.264-0.72-0.544-1.416-0.836-2.068
	c-0.256-0.708-0.536-1.392-0.82-2.036c-0.264-0.712-0.54-1.404-0.828-2.052c-0.264-0.72-0.544-1.416-0.836-2.068
	c-0.256-0.708-0.536-1.392-0.82-2.036c-0.264-0.704-0.532-1.388-0.82-2.028c-0.264-0.72-0.544-1.416-0.828-2.076
	c-0.272-0.716-0.548-1.412-0.836-2.064c-0.264-0.708-0.54-1.392-0.82-2.036c-0.264-0.716-0.548-1.416-0.836-2.064
	c-0.256-0.712-0.54-1.396-0.82-2.04c-0.26-0.712-0.544-1.404-0.828-2.052c-0.264-0.716-0.548-1.412-0.836-2.064
	c-0.256-0.712-0.54-1.396-0.82-2.04c-0.264-0.716-0.548-1.412-0.836-2.064c-0.256-0.708-0.54-1.392-0.82-2.036
	c-0.264-0.716-0.548-1.416-0.836-2.064c-0.256-0.712-0.54-1.396-0.82-2.04c-0.264-0.716-0.548-1.412-0.836-2.064
	c-0.256-0.708-0.54-1.392-0.82-2.036c-0.256-0.7-0.532-1.38-0.808-2.016c-0.272-0.736-0.56-1.432-0.856-2.096
	c-0.252-0.708-0.532-1.392-0.812-2.036c-0.268-0.716-0.548-1.416-0.836-2.064c-0.256-0.712-0.54-1.396-0.82-2.04
	c-0.264-0.716-0.548-1.412-0.836-2.064c-0.256-0.708-0.54-1.392-0.82-2.036c-0.264-0.716-0.548-1.416-0.836-2.068
	c-0.256-0.708-0.54-1.392-0.82-2.036c-0.256-0.712-0.54-1.404-0.828-2.052c-0.264-0.716-0.544-1.416-0.836-2.064
	c-0.256-0.712-0.536-1.396-0.82-2.04c-0.264-0.716-0.544-1.412-0.836-2.064c-0.256-0.708-0.536-1.392-0.82-2.036
	c-0.264-0.716-0.544-1.416-0.836-2.068c-0.252-0.696-0.524-1.368-0.796-2c-0.272-0.732-0.56-1.428-0.852-2.092
	c-0.256-0.708-0.54-1.392-0.82-2.036c-0.264-0.72-0.548-1.416-0.836-2.068c-0.256-0.708-0.54-1.392-0.82-2.036
	c-0.26-0.712-0.544-1.404-0.828-2.052c-0.264-0.72-0.548-1.416-0.836-2.068c-1.404-3.752-3.116-6.68-5.132-8.464
	c-5.752-5.116-14.58-7.484-24.72-7.556c-0.132,0-0.252-0.012-0.396-0.012c-1.396,0-2.808,0.072-4.252,0.152
	c-0.544,0.032-1.084,0.068-1.632,0.108c-1.36,0.104-2.72,0.252-4.1,0.432c-0.648,0.084-1.3,0.2-1.944,0.296
	c-1.38,0.216-2.748,0.432-4.124,0.724c-0.592,0.116-1.196,0.272-1.788,0.416c-2.4,0.54-4.804,1.176-7.228,1.916
	c-0.992,0.3-1.984,0.588-2.976,0.92c-1.08,0.364-2.136,0.768-3.204,1.168c-1.124,0.416-2.252,0.852-3.372,1.312
	c-0.988,0.408-1.964,0.828-2.948,1.268c-1.252,0.564-2.492,1.152-3.736,1.764c-0.84,0.416-1.684,0.816-2.512,1.252
	c-1.904,1-3.76,2.06-5.596,3.176c-0.304,0.192-0.604,0.38-0.916,0.572c-1.824,1.14-3.596,2.344-5.336,3.596
	c-0.612,0.436-1.208,0.908-1.8,1.364c-1.288,0.984-2.572,1.992-3.788,3.044c-0.624,0.528-1.24,1.068-1.844,1.604
	c-1.216,1.084-2.38,2.22-3.516,3.376c-0.508,0.512-1.024,1.012-1.512,1.536c-1.584,1.688-3.084,3.42-4.472,5.236
	c-21.172,27.592-24.82,72.392-21.64,100.252c-10.664-4.828-22.404-7.516-34.736-7.516c-5.132,0-10.152,0.492-15.052,1.384
	c-0.084-0.212-0.18-0.416-0.256-0.624c-0.256-0.688-0.552-1.356-0.82-2.032c-0.264-0.7-0.56-1.38-0.836-2.072
	c-0.256-0.684-0.552-1.352-0.82-2.028c-0.256-0.692-0.556-1.368-0.828-2.056c-0.264-0.7-0.56-1.38-0.836-2.072
	c-0.256-0.684-0.552-1.352-0.82-2.028c-0.26-0.7-0.56-1.38-0.836-2.076c-0.256-0.684-0.552-1.352-0.82-2.028
	c-0.26-0.7-0.56-1.38-0.836-2.072c-0.256-0.684-0.552-1.352-0.82-2.028c-0.26-0.704-0.56-1.384-0.836-2.076
	c-0.256-0.684-0.552-1.352-0.82-2.028c-0.252-0.672-0.532-1.324-0.8-1.992c-0.268-0.72-0.576-1.416-0.856-2.128
	c-0.26-0.684-0.548-1.352-0.82-2.028c-0.264-0.7-0.564-1.38-0.836-2.072c-0.26-0.684-0.548-1.356-0.82-2.032
	c-0.264-0.7-0.564-1.38-0.836-2.072c-0.26-0.684-0.548-1.352-0.82-2.028c-0.264-0.7-0.564-1.38-0.836-2.08
	c-0.26-0.684-0.548-1.352-0.82-2.028c-0.256-0.692-0.556-1.368-0.828-2.052c-0.264-0.7-0.564-1.38-0.836-2.076
	c-0.256-0.684-0.548-1.352-0.82-2.028c-0.264-0.7-0.564-1.38-0.836-2.072c-0.256-0.684-0.548-1.352-0.82-2.028
	c-0.264-0.704-0.564-1.384-0.836-2.076c-0.252-0.664-0.532-1.312-0.796-1.968c-0.264-0.72-0.572-1.416-0.856-2.124
	c-0.26-0.684-0.552-1.356-0.82-2.032c-0.26-0.7-0.56-1.38-0.836-2.072c-0.26-0.684-0.552-1.352-0.816-2.028
	c-0.264-0.692-0.56-1.368-0.828-2.056c-0.264-0.7-0.564-1.38-0.836-2.072c-3.296-8.68-7.54-16.812-12.916-23.828
	c-1.396-1.808-2.904-3.544-4.472-5.232c-0.488-0.524-1.004-1.024-1.512-1.536c-1.136-1.156-2.3-2.284-3.516-3.38
	c-0.604-0.544-1.216-1.08-1.836-1.6c-1.24-1.056-2.504-2.064-3.796-3.048c-0.596-0.452-1.188-0.916-1.8-1.364
	c-1.732-1.252-3.504-2.444-5.324-3.584c-0.308-0.196-0.62-0.396-0.94-0.584c-1.828-1.112-3.696-2.168-5.584-3.168
	c-0.828-0.432-1.672-0.84-2.512-1.252c-1.236-0.612-2.472-1.208-3.728-1.768c-0.984-0.436-1.964-0.864-2.956-1.264
	c-1.116-0.46-2.24-0.896-3.364-1.312c-1.072-0.404-2.132-0.804-3.204-1.168c-0.992-0.332-1.984-0.62-2.984-0.92
	c-2.416-0.74-4.82-1.376-7.22-1.916c-0.592-0.136-1.2-0.292-1.788-0.416c-1.392-0.284-2.752-0.504-4.124-0.72
	c-0.652-0.1-1.304-0.212-1.952-0.296c-1.388-0.184-2.752-0.328-4.108-0.436c-0.552-0.048-1.084-0.08-1.632-0.104
	c-1.432-0.084-2.852-0.152-4.248-0.152c-0.128,0-0.252,0.012-0.392,0.012c-10.144,0.068-18.96,2.432-24.724,7.552
	c-11.416,10.148-14.008,54.976,4.224,99.376c0.268,0.676,0.54,1.348,0.816,2.02c0.264,0.684,0.548,1.368,0.828,2.052
	c0.272,0.696,0.556,1.388,0.836,2.08c0.272,0.68,0.544,1.352,0.82,2.024c0.268,0.692,0.556,1.388,0.836,2.084
	c0.256,0.644,0.52,1.288,0.78,1.932c0.284,0.724,0.584,1.436,0.876,2.16c0.264,0.676,0.54,1.348,0.812,2.02
	c0.272,0.692,0.56,1.388,0.844,2.084c0.264,0.672,0.54,1.344,0.812,2.016c0.272,0.7,0.56,1.392,0.844,2.084
	c0.264,0.676,0.54,1.348,0.812,2.02c0.268,0.684,0.548,1.368,0.828,2.052c0.272,0.696,0.556,1.392,0.844,2.084
	c0.264,0.676,0.54,1.348,0.812,2.02c0.272,0.692,0.556,1.388,0.844,2.084c0.264,0.672,0.54,1.344,0.812,2.02
	c0.272,0.696,0.556,1.388,0.84,2.08c0.268,0.676,0.544,1.348,0.816,2.02c0.272,0.692,0.556,1.388,0.84,2.084
	c0.252,0.644,0.516,1.284,0.78,1.928c0.276,0.712,0.568,1.42,0.86,2.132c0.268,0.692,0.56,1.388,0.84,2.084
	c0.264,0.676,0.54,1.348,0.816,2.02c0.268,0.696,0.56,1.388,0.84,2.08c0.264,0.676,0.54,1.348,0.816,2.02
	c0.268,0.692,0.556,1.392,0.84,2.084c0.264,0.672,0.54,1.344,0.816,2.016c0.268,0.696,0.556,1.388,0.84,2.08
	c0.264,0.676,0.54,1.348,0.816,2.024c0.268,0.684,0.548,1.368,0.824,2.052c0.272,0.696,0.56,1.388,0.844,2.08
	c0.264,0.676,0.54,1.348,0.812,2.02c0.272,0.696,0.56,1.392,0.844,2.084c0.264,0.672,0.54,1.344,0.812,2.016
	c0.264,0.668,0.536,1.332,0.812,2c0.268,0.7,0.56,1.4,0.844,2.092c0.268,0.696,0.556,1.392,0.836,2.084
	c0.268,0.672,0.544,1.344,0.82,2.016c0.264,0.684,0.548,1.368,0.828,2.056c0.268,0.696,0.556,1.392,0.836,2.084
	c0.268,0.672,0.54,1.344,0.82,2.016c0.268,0.696,0.556,1.388,0.836,2.084c0.268,0.672,0.54,1.344,0.82,2.016
	c0.268,0.696,0.556,1.392,0.836,2.084c0.268,0.672,0.54,1.344,0.816,2.016c0.272,0.704,0.56,1.392,0.84,2.084
	c0.268,0.672,0.54,1.348,0.816,2.02c0.272,0.692,0.56,1.388,0.84,2.084c0.268,0.672,0.54,1.344,0.816,2.016
	c0.26,0.656,0.524,1.312,0.792,1.968c0.28,0.728,0.58,1.436,0.872,2.164c0.268,0.672,0.544,1.344,0.816,2.016
	c0.272,0.696,0.556,1.392,0.84,2.084c0.268,0.676,0.54,1.348,0.816,2.02c0.272,0.692,0.556,1.392,0.84,2.084
	c0.268,0.672,0.54,1.344,0.816,2.016c0.272,0.696,0.556,1.388,0.84,2.08c0.268,0.676,0.54,1.348,0.816,2.02
	c0.264,0.688,0.548,1.372,0.828,2.06c0.272,0.696,0.556,1.384,0.84,2.08c0.268,0.676,0.54,1.348,0.816,2.02
	c0.272,0.696,0.556,1.396,0.836,2.084c0.272,0.672,0.544,1.344,0.82,2.016c0.268,0.7,0.556,1.392,0.836,2.084
	c0.268,0.676,0.544,1.348,0.82,2.02c0.26,0.668,0.532,1.332,0.804,2c0.272,0.7,0.564,1.404,0.844,2.092
	c0.268,0.684,0.552,1.368,0.828,2.056c0.272,0.692,0.56,1.388,0.844,2.084c0.264,0.672,0.54,1.344,0.812,2.016
	c0.272,0.7,0.556,1.396,0.844,2.084c0.264,0.676,0.54,1.352,0.812,2.024c0.272,0.688,0.556,1.384,0.844,2.084
	c0.032,0.084,0.068,0.172,0.096,0.252c0.676,15.568,4.112,30.248,9.748,43.336c0.236,0.584,0.452,1.164,0.696,1.74
	c0.276,0.68,0.548,1.38,0.828,2.052c0.28,0.696,0.556,1.4,0.844,2.084c0.272,0.672,0.536,1.352,0.812,2.016
	c0.28,0.692,0.556,1.396,0.844,2.08c0.532,1.384,1.08,2.752,1.656,4.1c0.268,0.672,0.532,1.352,0.812,2.016
	c0.276,0.696,0.548,1.4,0.844,2.084c0.268,0.672,0.532,1.352,0.812,2.008c0.276,0.696,0.548,1.404,0.844,2.084
	c0.268,0.672,0.532,1.352,0.808,2.016c0.276,0.68,0.544,1.376,0.828,2.048c0.28,0.696,0.552,1.404,0.844,2.084
	c0.272,0.676,0.536,1.356,0.812,2.02c0.28,0.692,0.552,1.396,0.844,2.084c0.272,0.672,0.536,1.352,0.812,2.016
	c0.28,0.696,0.552,1.4,0.844,2.084c0.272,0.672,0.536,1.352,0.812,2.016c0.276,0.692,0.552,1.396,0.844,2.076
	c0.524,1.376,1.068,2.744,1.636,4.084c0.28,0.692,0.552,1.396,0.844,2.084c0.272,0.672,0.532,1.352,0.812,2.016
	c0.28,0.696,0.552,1.404,0.844,2.084c0.272,0.672,0.532,1.356,0.812,2.016c0.28,0.692,0.552,1.396,0.844,2.084
	c0.272,0.672,0.532,1.352,0.812,2.012c0.28,0.7,0.552,1.404,0.844,2.084c0.272,0.672,0.532,1.352,0.812,2.016
	c0.272,0.68,0.544,1.376,0.828,2.048c0.28,0.7,0.552,1.404,0.844,2.084c0.272,0.676,0.532,1.356,0.812,2.02
	c0.276,0.688,0.552,1.392,0.844,2.084c0.268,0.672,0.532,1.356,0.812,2.016c0.264,0.664,0.524,1.344,0.804,2
	c0.28,0.704,0.556,1.412,0.844,2.096c0.28,0.688,0.556,1.396,0.844,2.084c0.272,0.672,0.532,1.352,0.812,2.012
	c0.276,0.684,0.548,1.384,0.828,2.056c0.28,0.696,0.556,1.4,0.844,2.084c0.272,0.676,0.532,1.356,0.812,2.012
	c0.28,0.7,0.556,1.404,0.844,2.084c0.272,0.672,0.532,1.352,0.812,2.016c0.28,0.696,0.556,1.404,0.844,2.084
	c0.272,0.672,0.532,1.352,0.812,2.012c0.28,0.7,0.556,1.404,0.844,2.084c0.272,0.672,0.532,1.356,0.812,2.02
	c0.28,0.692,0.556,1.4,0.844,2.084c0.264,0.672,0.532,1.352,0.812,2.008c0.532,1.4,1.084,2.772,1.668,4.14
	c0.268,0.672,0.532,1.352,0.812,2.012c0.276,0.7,0.552,1.404,0.844,2.084c0.268,0.672,0.532,1.352,0.812,2.016
	c0.276,0.696,0.552,1.4,0.844,2.084c0.268,0.672,0.532,1.352,0.808,2.016c0.28,0.696,0.556,1.4,0.848,2.084
	c0.268,0.672,0.532,1.356,0.808,2.02c0.28,0.68,0.548,1.376,0.828,2.048c0.28,0.696,0.556,1.404,0.844,2.084
	c0.272,0.672,0.536,1.352,0.812,2.016c0.28,0.696,0.556,1.4,0.844,2.084c0.272,0.672,0.536,1.352,0.812,2.008
	c0.236,0.58,0.46,1.148,0.696,1.724c8.296,0.808,16.708,1.252,25.22,1.252C377.18,512,478.624,427.764,505.164,314.684z"/>
<path style="fill:#E6C08A;" d="M344.64,298.736c0-51.94-39.688-94.06-88.64-94.06c-48.956,0-88.64,42.108-88.64,94.06
	c0,4.868,0.456,9.6,1.128,14.268c-0.672,5.292-1.128,10.676-1.128,16.2C167.36,388.188,207.044,436,256,436
	c48.952,0,88.64-47.812,88.64-106.796c0-5.524-0.456-10.908-1.128-16.2C344.184,308.336,344.64,303.592,344.64,298.736z"/>
<path style="fill:#D9B582;" d="M344.64,298.736c0-51.94-39.688-94.06-88.64-94.06c-2.02,0-4.016,0.096-6,0.24
	c46.156,3.276,82.64,44.016,82.64,93.82c0,4.868-0.456,9.6-1.128,14.268c0.672,5.292,1.128,10.676,1.128,16.2
	c0,56.556-36.484,102.804-82.64,106.532c1.984,0.156,3.98,0.264,6,0.264c48.952,0,88.64-47.812,88.64-106.796
	c0-5.524-0.456-10.908-1.128-16.2C344.184,308.336,344.64,303.592,344.64,298.736z"/>
<ellipse style="fill:#FFE0B3;" cx="256" cy="398.28" rx="32.64" ry="37.728"/>
<path style="fill:#E6C08A;" d="M219.512,222.404c5.624-25.508,4.328-79.56-19.888-111.112c-24.22-31.568-78.256-44.964-97.72-27.672
	c-19.46,17.288-13.408,135.336,77.828,180.292C196.164,248.348,219.512,222.404,219.512,222.404z"/>
<path style="fill:#D9B582;" d="M199.624,111.284c-19.4-25.284-57.9-38.864-82.468-34.4c22.056,3.188,47.22,15.5,61.716,34.4
	c24.216,31.56,28.272,98.148,22.648,123.656c0,0-2.22,5.316-5.748,12.92c12.416-12.892,23.74-25.464,23.74-25.464
	C225.136,196.896,223.84,142.844,199.624,111.284z"/>
<path style="fill:#E6C08A;" d="M292.488,222.404c-5.624-25.508-4.328-79.56,19.888-111.112c24.22-31.568,78.256-44.964,97.72-27.672
	c19.46,17.288,13.412,135.336-77.828,180.292C315.836,248.348,292.488,222.404,292.488,222.404z"/>
<g>
	<path style="fill:#D9B582;" d="M312.376,111.284c19.4-25.284,57.9-38.864,82.468-34.4c-22.056,3.188-47.22,15.5-61.716,34.4
		c-24.216,31.56-28.272,98.148-22.648,123.656c0,0,2.22,5.316,5.748,12.92c-12.416-12.892-23.74-25.464-23.74-25.464
		C286.864,196.896,288.16,142.844,312.376,111.284z"/>
	<path style="fill:#D9B582;" d="M256,204.028c-39.936,0-73.684,28.036-84.764,66.576c10.96,6.516,23.616,10.976,33.32,12.992
		c25.076,5.188,32.424,17.724,28.532,39.344c-3.892,21.616-6.484,67.444,22.916,58.804c29.404,8.64,26.804-37.188,22.916-58.804
		c-3.904-21.62,3.46-34.156,28.532-39.344c9.704-2.016,22.36-6.476,33.32-12.992C329.684,232.064,295.936,204.028,256,204.028z"/>
</g>
<path style="fill:#CCAA7A;" d="M329.96,276.14c3.624-1.62,7.228-3.432,10.668-5.468c-11.252-38.244-44.884-65.996-84.628-65.996
	c-2.02,0-4.016,0.096-6,0.24C288.92,207.68,320.876,237.12,329.96,276.14z"/>
<g>
	<path style="fill:#242424;" d="M273.084,373.792c-3.008,0-12.404,0-17.084,0s-14.084,0-17.084,0s-3.936,4.692-1.688,7.696
		c2.252,3.004,9.008,17.268,18.772,17.268s16.52-14.264,18.772-17.268C277.024,378.484,276.084,373.792,273.084,373.792z"/>
	<rect x="253.4" y="389.52" style="fill:#242424;" width="5.184" height="39.568"/>
	<path style="fill:#242424;" d="M256,436c8.852,0,17.384-1.608,25.452-4.52c-2.804-8.38-13.092-14.612-25.452-14.612
		s-22.648,6.244-25.452,14.612C238.616,434.392,247.148,436,256,436z"/>
	<ellipse style="fill:#242424;" cx="224.76" cy="303.08" rx="12" ry="19.512"/>
	<ellipse style="fill:#242424;" cx="287.236" cy="303.08" rx="12" ry="19.512"/>
</g>
<g>
</g>
<g>
</g>
<g>
</g>
<g>
</g>
<g>
</g>
<g>
</g>
<g>
</g>
<g>
</g>
<g>
</g>
<g>
</g>
<g>
</g>
<g>
</g>
<g>
</g>
<g>
</g>
<g>
</g>
</svg>
