<?xml version="1.0" encoding="iso-8859-1"?>
<!-- Generator: Adobe Illustrator 19.0.0, SVG Export Plug-In . SVG Version: 6.00 Build 0)  -->
<svg version="1.1" id="Layer_1" xmlns="http://www.w3.org/2000/svg" xmlns:xlink="http://www.w3.org/1999/xlink" x="0px" y="0px"
	 viewBox="0 0 512 512" style="enable-background:new 0 0 512 512;" xml:space="preserve">
<circle style="fill:#F2CF61;" cx="256" cy="256" r="256"/>
<path style="fill:#E6C45C;" d="M495.456,346.584c-0.272-0.748-0.564-1.476-0.892-2.196c-0.292-0.844-0.624-1.664-0.996-2.464
	c-0.292-0.832-0.62-1.648-0.984-2.44c-0.296-0.84-0.624-1.656-0.992-2.456c-0.296-0.84-0.624-1.656-0.992-2.456
	c-0.296-0.844-0.628-1.664-0.996-2.464c-0.296-0.832-0.624-1.648-0.988-2.44c-0.296-0.84-0.624-1.656-0.992-2.456
	c-0.296-0.84-0.624-1.656-0.992-2.456c-0.296-0.84-0.624-1.652-0.992-2.452c-0.296-0.844-0.628-1.664-0.996-2.468
	c-0.296-0.832-0.624-1.648-0.988-2.44c-0.296-0.84-0.624-1.656-0.992-2.452c-0.296-0.84-0.624-1.656-0.992-2.456
	c-0.296-0.844-0.628-1.664-0.996-2.468c-0.296-0.832-0.624-1.648-0.988-2.44c-0.296-0.84-0.624-1.656-0.992-2.452
	c-0.296-0.84-0.624-1.656-0.992-2.456c-0.296-0.844-0.624-1.664-0.996-2.468c-0.292-0.832-0.62-1.648-0.988-2.44
	c-0.296-0.852-0.632-1.68-1.008-2.488c-0.288-0.824-0.612-1.632-0.98-2.42c-0.288-0.84-0.62-1.656-0.992-2.456
	c-0.292-0.844-0.624-1.664-0.996-2.468c-0.292-0.832-0.62-1.644-0.984-2.436c-0.292-0.84-0.624-1.656-0.992-2.456
	c-0.292-0.84-0.624-1.656-0.992-2.456c-0.296-0.844-0.628-1.664-0.996-2.464c-0.296-0.836-0.624-1.648-0.988-2.44
	c-0.292-0.84-0.624-1.656-0.992-2.456c-0.292-0.84-0.624-1.656-0.992-2.456c-0.296-0.844-0.628-1.664-0.996-2.464
	c-0.296-0.832-0.624-1.648-0.988-2.44c-0.292-0.84-0.624-1.656-0.992-2.456c-0.292-0.84-0.624-1.656-0.992-2.456
	c-0.292-0.84-0.624-1.652-0.992-2.452c-0.296-0.844-0.628-1.664-0.996-2.468c-0.296-0.832-0.624-1.648-0.988-2.44
	c-0.292-0.84-0.624-1.656-0.992-2.452c-0.292-0.844-0.624-1.656-0.992-2.456c-0.296-0.844-0.624-1.664-0.996-2.468
	c-0.292-0.832-0.62-1.648-0.988-2.44c-0.288-0.84-0.62-1.656-0.992-2.452c-0.288-0.844-0.62-1.656-0.992-2.456
	c-0.292-0.844-0.624-1.664-0.996-2.468c-0.296-0.844-0.628-1.672-1.004-2.472c-0.288-0.828-0.612-1.636-0.976-2.42
	c-0.296-0.84-0.624-1.656-0.992-2.456c-0.296-0.84-0.624-1.656-0.992-2.456c-0.296-0.844-0.628-1.664-0.996-2.468
	c-0.296-0.832-0.624-1.648-0.988-2.436c-0.296-0.84-0.624-1.656-0.992-2.456c-0.296-0.84-0.624-1.656-0.992-2.456
	c-0.296-0.844-0.628-1.664-0.996-2.468c-0.296-0.832-0.624-1.648-0.988-2.436c-0.296-0.84-0.624-1.656-0.992-2.456
	c-0.296-0.84-0.624-1.656-0.992-2.456c-0.296-0.844-0.628-1.664-0.996-2.468c-0.296-0.832-0.624-1.644-0.988-2.436
	c-0.296-0.84-0.624-1.656-0.992-2.456c-0.296-0.84-0.624-1.656-0.992-2.456c-0.296-0.84-0.624-1.656-0.992-2.452
	c-0.292-0.844-0.624-1.664-0.996-2.468c-0.292-0.832-0.62-1.648-0.988-2.44c-0.292-0.84-0.62-1.656-0.992-2.456
	c-0.292-0.84-0.62-1.656-0.992-2.452c-0.292-0.844-0.624-1.664-0.992-2.468c-0.296-0.832-0.624-1.648-0.988-2.44
	c-0.296-0.84-0.624-1.656-0.992-2.456c-0.296-0.84-0.624-1.656-0.992-2.452c-0.3-0.856-0.636-1.688-1.012-2.504
	c-0.292-0.82-0.616-1.62-0.976-2.412c-0.292-0.84-0.624-1.656-0.992-2.452c-0.292-0.844-0.624-1.656-0.992-2.456
	c-0.296-0.844-0.628-1.664-0.996-2.468c-0.296-0.832-0.624-1.648-0.988-2.44c-0.292-0.84-0.624-1.656-0.992-2.452
	c-0.292-0.844-0.624-1.656-0.992-2.456c-0.292-0.84-0.624-1.656-0.992-2.456c-0.296-0.844-0.628-1.664-0.996-2.468
	c-0.296-0.832-0.624-1.648-0.988-2.436c-0.292-0.84-0.624-1.656-0.992-2.456c-4.088-11.584-14.848-19.444-28.192-19.444
	c-2.512,0-4.928,0.148-7.316,0.364c-0.008,0-0.016,0-0.024,0c-25.364,2.276-43.448,16.124-54.1,31.416
	c-1.08-1-2.196-1.96-3.356-2.888C301.336,138.708,275.356,136,256,136c-23.664,0-51.62,5.976-68.556,21.776
	c-0.868-1.248-1.796-2.468-2.756-3.692c-0.112-0.14-0.236-0.276-0.348-0.416c-0.712-0.888-1.44-1.764-2.204-2.632
	c-0.584-0.672-1.184-1.32-1.784-1.964c-0.196-0.208-0.388-0.416-0.584-0.62c-12.728-13.384-28.936-20.976-48.02-22.244
	c-0.156-0.008-0.312-0.028-0.472-0.04c-1.744-0.1-3.492-0.168-5.272-0.168c-1.584,0-3.12,0.144-4.628,0.36
	c-0.008,0.004-0.02,0.004-0.028,0.004c0.004,0,0.004,0,0.004,0c-14.728,2.112-25.348,14.12-25.348,29.636v69.552
	c0,5.128,1.04,9.792,2.896,13.872c0.296,0.848,0.628,1.66,0.992,2.456c0.296,0.848,0.632,1.668,0.996,2.468
	c0.296,0.836,0.628,1.648,0.988,2.44c0.296,0.844,0.628,1.66,0.992,2.452c0.296,0.844,0.628,1.66,0.992,2.456
	c0.296,0.844,0.628,1.66,0.992,2.456c0.296,0.848,0.632,1.668,0.996,2.468c0.296,0.836,0.628,1.648,0.988,2.436
	c0.296,0.844,0.628,1.66,0.992,2.456c0.296,0.844,0.628,1.66,0.992,2.456c0.3,0.86,0.64,1.692,1.012,2.504
	c0.292,0.824,0.62,1.624,0.976,2.408c0.296,0.844,0.628,1.66,0.992,2.456c0.292,0.844,0.628,1.66,0.992,2.456
	c0.292,0.848,0.628,1.668,0.996,2.468c0.292,0.836,0.624,1.644,0.988,2.436c0.292,0.844,0.624,1.66,0.992,2.456
	c0.292,0.844,0.624,1.66,0.988,2.456c0.296,0.848,0.632,1.668,1,2.468c0.292,0.836,0.624,1.644,0.984,2.436
	c0.296,0.844,0.628,1.66,0.992,2.456c0.296,0.844,0.628,1.66,0.992,2.456c0.296,0.844,0.628,1.66,0.992,2.452
	c0.296,0.848,0.632,1.668,0.996,2.468c0.296,0.836,0.628,1.648,0.988,2.44c0.296,0.844,0.628,1.66,0.992,2.456
	c0.296,0.844,0.628,1.66,0.992,2.452c0.296,0.848,0.632,1.668,0.996,2.468c0.296,0.836,0.628,1.648,0.988,2.44
	c0.296,0.844,0.628,1.66,0.992,2.456c0.296,0.844,0.628,1.66,0.992,2.452c0.296,0.848,0.632,1.668,0.996,2.468
	c0.296,0.836,0.628,1.648,0.988,2.44c0.296,0.844,0.628,1.66,0.992,2.452c0.296,0.848,0.624,1.66,0.992,2.456
	c0.296,0.856,0.632,1.684,1.008,2.492c0.288,0.836,0.624,1.644,0.984,2.432c0.292,0.836,0.624,1.648,0.988,2.436
	c0.292,0.844,0.624,1.66,0.988,2.456c0.296,0.844,0.628,1.66,0.992,2.456c0.296,0.848,0.632,1.668,0.996,2.468
	c0.296,0.836,0.628,1.648,0.988,2.436c0.296,0.844,0.628,1.66,0.992,2.456c0.296,0.844,0.628,1.66,0.992,2.456
	c0.296,0.848,0.632,1.668,0.996,2.468c0.296,0.836,0.628,1.648,0.988,2.436c0.296,0.844,0.628,1.66,0.992,2.456
	c0.296,0.844,0.628,1.66,0.992,2.456c0.296,0.844,0.628,1.66,0.992,2.452c0.296,0.852,0.632,1.672,0.996,2.468
	c0.296,0.836,0.628,1.648,0.988,2.44c0.296,0.844,0.628,1.66,0.992,2.456c0.296,0.844,0.628,1.66,0.992,2.452
	c0.296,0.852,0.632,1.668,0.996,2.468c0.296,0.836,0.628,1.648,0.988,2.44c0.296,0.844,0.624,1.66,0.992,2.456
	c0.292,0.844,0.624,1.66,0.992,2.452c0.292,0.848,0.628,1.668,0.996,2.468c0.292,0.836,0.624,1.648,0.988,2.44
	c0.292,0.844,0.624,1.66,0.992,2.456c0.296,0.856,0.632,1.684,1.008,2.492c0.288,0.828,0.616,1.632,0.976,2.416
	c0.296,0.848,0.632,1.668,0.996,2.468c0.296,0.836,0.628,1.648,0.988,2.436c0.296,0.848,0.628,1.66,0.992,2.456
	c0.296,0.844,0.628,1.66,0.992,2.456c0.296,0.848,0.632,1.668,0.996,2.468c0.296,0.836,0.628,1.648,0.988,2.436
	c0.296,0.844,0.628,1.66,0.992,2.456c0.296,0.844,0.628,1.66,0.992,2.456c0.296,0.848,0.632,1.668,0.996,2.468
	c0.296,0.836,0.628,1.648,0.988,2.436c0.296,0.844,0.628,1.66,0.992,2.456c0.296,0.844,0.628,1.66,0.992,2.456
	c0.296,0.844,0.628,1.66,0.992,2.456c0.296,0.848,0.632,1.668,0.996,2.464c0.296,0.836,0.628,1.648,0.988,2.44
	c0.296,0.844,0.624,1.66,0.992,2.456c0.292,0.844,0.624,1.66,0.992,2.456c0.292,0.848,0.628,1.664,0.996,2.464
	c0.292,0.836,0.624,1.648,0.988,2.44c0.292,0.844,0.624,1.66,0.992,2.456c0.292,0.844,0.624,1.66,0.988,2.452
	c0.296,0.848,0.632,1.668,0.996,2.468c0.296,0.836,0.628,1.648,0.988,2.44c0.3,0.856,0.636,1.684,1.008,2.492
	c0.292,0.832,0.62,1.636,0.98,2.416c0.296,0.844,0.628,1.66,0.992,2.456c0.296,0.848,0.632,1.668,0.996,2.468
	c0.296,0.836,0.628,1.648,0.988,2.436c0.296,0.848,0.628,1.66,0.992,2.456c0.296,0.844,0.628,1.66,0.992,2.456
	c0.296,0.848,0.632,1.668,0.996,2.468c0.296,0.836,0.628,1.648,0.988,2.436c0.296,0.844,0.628,1.66,0.992,2.456
	c0.296,0.844,0.628,1.66,0.992,2.456c0.296,0.848,0.632,1.668,0.996,2.468c0.296,0.836,0.628,1.648,0.988,2.436
	c0.296,0.844,0.628,1.66,0.992,2.456c0.296,0.844,0.624,1.66,0.992,2.456c0.292,0.848,0.632,1.668,0.996,2.468
	c0.292,0.836,0.624,1.648,0.988,2.436c0.292,0.844,0.624,1.66,0.992,2.456c0.292,0.844,0.624,1.66,0.992,2.456
	c0.292,0.844,0.624,1.66,0.988,2.456c0.296,0.848,0.632,1.668,0.996,2.464c0.296,0.836,0.628,1.648,0.988,2.44
	c0.296,0.844,0.628,1.66,0.992,2.456c0.296,0.844,0.628,1.66,0.992,2.452c0.016,0.052,0.044,0.092,0.064,0.14
	c15.828,3.068,32.16,4.724,48.884,4.724C365.48,512,458.868,443.252,495.456,346.584z"/>
<g>
	<path style="fill:#333333;" d="M320.504,163.332c1.388-1.988,2.416-3.632,4.052-5.556C304.336,139,276.46,136,256,136
		c-1.968,0-3.98,0.06-6,0.144C272.252,137.08,304.98,148.848,320.504,163.332z"/>
	<path style="fill:#333333;" d="M181,164c2.292-2.136,3.788-4.432,6.444-6.224C172.752,137,151.78,126,126,126
		c-1.592,0-3.14,0.148-4.656,0.364C146.708,128.644,170.344,148.712,181,164z"/>
	<path style="fill:#333333;" d="M386,126c-2.524,0-4.952,0.148-7.344,0.364C393.384,128.476,404,140.488,404,156v69.552
		C404,243.48,391.664,256,374,256h12c17.664,0,30-12.52,30-30.448V156C416,138.892,403.1,126,386,126z"/>
</g>
<path style="fill:#404040;" d="M386,126c-29.256,0-49.784,15.048-61.444,31.776C307.62,141.976,279.664,136,256,136
	s-51.62,5.976-68.556,21.776C175.784,141.044,155.256,126,126,126c-17.1,0-30,12.892-30,30v69.552C96,243.48,108.336,256,126,256
	h12.384C136,263.46,136,270.532,136,276c0,61.384,28.564,97.308,85.004,107.188v-6.52c0-18.964,16.032-34.996,34.996-34.996
	s34.996,16.032,34.996,34.996v6.52C347.436,373.308,376,337.384,376,276c0-5.468,0-12.54-2.384-20H386c17.664,0,30-12.52,30-30.448
	V156C416,138.892,403.1,126,386,126z"/>
<path style="fill:#B3B3B3;" d="M256,386c12.664,0,24.324-0.944,34.996-2.812v-38.52c0-18.964-16.032-34.996-34.996-34.996
	s-34.996,16.032-34.996,34.996v38.52C231.676,385.056,243.336,386,256,386z"/>
<path style="fill:#333333;" d="M291.58,383.08C347.632,373.056,376,337.168,376,276c0-5.468,0-12.54-2.384-20h-12
	C364,263.46,364,270.532,364,276c0,56.836-24.568,91.776-73.004,104.488v2.7L291.58,383.08z"/>
<g>
	<ellipse style="fill:#1A1A1A;" cx="256" cy="348" rx="24" ry="4.668"/>
	<path style="fill:#1A1A1A;" d="M256,346c-16.544,0-30-13.016-30-29.016V276c0-16.256,13.744-30,30-30s30,13.744,30,30v40.984
		C286,332.984,272.544,346,256,346z"/>
</g>
<path style="fill:#0D0D0D;" d="M256,246c-2.048,0-4.056,0.22-6,0.632c13.5,2.872,24,15.156,24,29.368v40.984
	c0,14.012-10.324,25.736-24,28.424c1.936,0.388,3.944,0.584,6,0.584c16.544,0,30-13.016,30-29.016V276
	C286,259.744,272.256,246,256,246z"/>
<path style="fill:#F5F5F5;" d="M206,256c-16.544,0-30-13.456-30-30s13.456-30,30-30s30,13.456,30,30S222.544,256,206,256z"/>
<path style="fill:#242424;" d="M206,216c-5.516,0-10,4.492-10,10s4.484,10,10,10s10-4.492,10-10S211.516,216,206,216z"/>
<path style="fill:#F5F5F5;" d="M306,256c-16.544,0-30-13.456-30-30s13.456-30,30-30s30,13.456,30,30S322.544,256,306,256z"/>
<path style="fill:#242424;" d="M306,216c-5.516,0-10,4.492-10,10s4.484,10,10,10s10-4.492,10-10S311.516,216,306,216z"/>
<g>
	<path style="fill:#B3B3B3;" d="M176.852,170.56l-2.532-3.628c-6.488-9.308-21.396-24.924-48.32-24.924c-8.244,0-14,5.756-14,14
		v69.552c0,9.052,5.236,14.448,14,14.448h15.584C149.152,215.904,163.568,188.62,176.852,170.56z"/>
	<path style="fill:#B3B3B3;" d="M335.148,170.56l2.532-3.628c6.488-9.308,21.396-24.924,48.32-24.924c8.244,0,14,5.756,14,14v69.552
		c0,9.052-5.236,14.448-14,14.448h-15.584C362.848,215.904,348.432,188.62,335.148,170.56z"/>
</g>
<g>
</g>
<g>
</g>
<g>
</g>
<g>
</g>
<g>
</g>
<g>
</g>
<g>
</g>
<g>
</g>
<g>
</g>
<g>
</g>
<g>
</g>
<g>
</g>
<g>
</g>
<g>
</g>
<g>
</g>
</svg>
