<?xml version="1.0" encoding="iso-8859-1"?>
<!-- Generator: Adobe Illustrator 19.0.0, SVG Export Plug-In . SVG Version: 6.00 Build 0)  -->
<svg version="1.1" id="Layer_1" xmlns="http://www.w3.org/2000/svg" xmlns:xlink="http://www.w3.org/1999/xlink" x="0px" y="0px"
	 viewBox="0 0 512 512" style="enable-background:new 0 0 512 512;" xml:space="preserve">
<circle style="fill:#2D4452;" cx="256" cy="256" r="256"/>
<path style="fill:#233540;" d="M491.004,357.584c-0.14-0.336-0.268-0.68-0.412-1.016c-0.312-0.836-0.656-1.64-0.992-2.452
	c-0.32-0.844-0.664-1.648-1-2.468c-0.308-0.832-0.656-1.628-0.984-2.44c-0.312-0.836-0.656-1.636-0.992-2.456
	c-0.32-0.852-0.672-1.664-1.016-2.5c-0.304-0.82-0.644-1.6-0.972-2.416c-0.316-0.84-0.66-1.648-1-2.468
	c-0.308-0.832-0.652-1.624-0.984-2.436c-0.312-0.836-0.656-1.636-0.992-2.452c-0.312-0.836-0.656-1.64-0.992-2.456
	c-0.316-0.84-0.66-1.648-1-2.464c-0.308-0.828-0.652-1.624-0.984-2.436c-0.312-0.836-0.656-1.64-0.992-2.456
	c-0.308-0.836-0.656-1.64-0.992-2.456c-0.316-0.84-0.66-1.648-1-2.468c-0.308-0.828-0.652-1.624-0.98-2.432
	c-0.312-0.836-0.656-1.64-0.992-2.456c-0.312-0.836-0.656-1.64-0.992-2.452c-0.312-0.836-0.656-1.64-0.992-2.452
	c-0.312-0.844-0.656-1.648-1-2.468c-0.304-0.832-0.648-1.628-0.984-2.44c-0.312-0.836-0.656-1.636-0.992-2.456
	c-0.312-0.836-0.656-1.64-0.992-2.448c-0.312-0.848-0.656-1.648-1-2.468c-0.304-0.832-0.648-1.628-0.984-2.44
	c-0.308-0.836-0.652-1.632-0.988-2.452c-0.312-0.836-0.656-1.64-0.992-2.452c-0.316-0.844-0.66-1.648-1-2.468
	c-0.308-0.832-0.652-1.624-0.984-2.436c-0.32-0.852-0.672-1.672-1.012-2.5c-0.308-0.82-0.648-1.604-0.976-2.416
	c-0.312-0.836-0.656-1.64-0.992-2.456c-0.316-0.84-0.66-1.648-1-2.468c-0.308-0.828-0.652-1.624-0.98-2.432
	c-0.308-0.836-0.656-1.64-0.992-2.456c-0.308-0.836-0.652-1.64-0.992-2.452c-0.316-0.844-0.66-1.648-1-2.468
	c-0.308-0.828-0.652-1.624-0.98-2.436c-0.312-0.836-0.656-1.64-0.992-2.456c-0.312-0.836-0.656-1.636-0.992-2.456
	c-0.32-0.836-0.664-1.648-1-2.468c-0.312-0.828-0.656-1.624-0.984-2.436c-0.312-0.836-0.656-1.64-0.992-2.456
	c-0.312-0.836-0.656-1.64-0.992-2.456c-0.312-0.836-0.656-1.64-0.992-2.452c-0.316-0.844-0.664-1.648-1-2.468
	c-0.308-0.832-0.652-1.628-0.984-2.44c-0.312-0.836-0.656-1.636-0.992-2.456c-0.312-0.836-0.66-1.64-0.992-2.452
	c-0.312-0.844-0.656-1.648-1-2.464c-0.304-0.836-0.648-1.632-0.98-2.444c-0.312-0.836-0.656-1.636-0.992-2.456
	c-0.312-0.836-0.66-1.64-0.992-2.452c-0.316-0.844-0.66-1.648-1-2.464c-0.312-0.848-0.664-1.664-1.004-2.488
	c-0.308-0.824-0.648-1.608-0.976-2.416c-0.312-0.836-0.66-1.64-0.996-2.456c-0.308-0.836-0.652-1.64-0.988-2.452
	c-0.312-0.844-0.656-1.652-0.992-2.464c-0.312-0.84-0.656-1.632-0.992-2.444c-0.312-0.836-0.656-1.64-0.992-2.456
	c-0.312-0.836-0.656-1.644-0.992-2.46c-0.312-0.836-0.656-1.636-0.992-2.456c-0.312-0.836-0.656-1.632-0.992-2.452
	c-0.312-0.836-0.656-1.632-0.992-2.448c-0.312-0.836-0.656-1.644-0.992-2.464c-0.312-0.836-0.656-1.64-0.992-2.456
	c-0.312-0.836-0.656-1.64-0.992-2.456c-0.312-0.836-0.656-1.636-0.988-2.452c-0.312-0.836-0.66-1.644-0.996-2.464
	c-0.308-0.832-0.656-1.636-0.988-2.448c-0.308-0.84-0.656-1.644-0.996-2.464c-0.308-0.836-0.652-1.64-0.988-2.456
	c-0.312-0.836-0.656-1.636-0.988-2.452c-0.312-0.836-0.66-1.644-0.996-2.464c-0.312-0.836-0.656-1.64-0.992-2.456
	c-0.312-0.836-0.656-1.64-0.992-2.456c-0.308-0.836-0.656-1.636-0.988-2.452c-0.312-0.84-0.656-1.648-0.992-2.464
	c-0.32-0.848-0.672-1.664-1.012-2.492c-0.308-0.828-0.644-1.616-0.98-2.42c-0.312-0.832-0.656-1.636-0.984-2.448
	c-0.312-0.84-0.664-1.648-1-2.464c-0.312-0.832-0.656-1.636-0.984-2.448c-0.312-0.836-0.656-1.64-0.992-2.456
	c-0.312-0.84-0.664-1.648-1-2.464c-0.312-0.832-0.656-1.636-0.984-2.448c-0.312-0.84-0.664-1.648-1-2.464
	c-0.308-0.832-0.656-1.636-0.984-2.448c-0.312-0.84-0.66-1.648-0.996-2.464c-0.312-0.832-0.656-1.636-0.988-2.448
	C392,110.852,375.476,96,356,96c-1.16,0-2.3,0.068-3.428,0.172c-22.328,1.744-40.232,20.292-45.196,45.524
	C289.836,136,272.688,136,256,136c-16.312,0-33.072,0.036-50.196,5.356c-0.208-0.504-0.416-1.008-0.624-1.5
	c-0.324-0.832-0.648-1.664-0.996-2.468c-0.32-0.824-0.644-1.648-0.988-2.444c-0.324-0.832-0.648-1.66-0.996-2.468
	c-0.308-0.8-0.62-1.596-0.956-2.372c-7.552-19.716-22.88-32.04-40.64-33.856c-0.068-0.004-0.12-0.02-0.188-0.028
	C158.956,96.08,157.484,96,156,96c-1.416,0-2.804,0.12-4.188,0.288C125.812,99.18,106,128.724,106,166
	c0,11.308,2.196,22.244,6.12,32.028c0.304,0.836,0.664,1.64,0.992,2.46c0.3,0.84,0.664,1.64,0.996,2.456
	c0.296,0.836,0.66,1.632,0.988,2.452c0.3,0.836,0.664,1.632,0.992,2.452c0.3,0.836,0.664,1.636,0.988,2.456
	c0.304,0.836,0.664,1.636,0.992,2.456c0.304,0.836,0.668,1.64,0.996,2.46c0.304,0.836,0.66,1.628,0.988,2.444
	c0.304,0.836,0.664,1.636,0.992,2.456c0.304,0.836,0.664,1.636,0.992,2.456c0.308,0.852,0.676,1.664,1.012,2.5
	c0.3,0.82,0.652,1.6,0.976,2.412c0.304,0.836,0.664,1.636,0.992,2.456c0.012,0.032,0.02,0.072,0.036,0.1
	c-1.208,19.5-1.268,56.584,1.104,67.74c3.484,19.02,8.844,35.812,15.972,50.356c0.232,0.584,0.488,1.136,0.724,1.712
	c0.324,0.828,0.66,1.644,0.992,2.456c0.328,0.836,0.664,1.656,1,2.476c0.324,0.82,0.652,1.624,0.984,2.424
	c0.324,0.828,0.66,1.644,0.992,2.456c0.324,0.828,0.66,1.644,0.992,2.452c0.336,0.856,0.68,1.692,1.024,2.528
	c0.316,0.8,0.64,1.588,0.964,2.388c0.324,0.828,0.66,1.644,0.992,2.456c0.324,0.828,0.66,1.644,0.992,2.448
	c0.328,0.836,0.664,1.656,1,2.476c0.324,0.82,0.652,1.632,0.984,2.432c0.32,0.828,0.656,1.644,0.988,2.456
	c0.324,0.828,0.66,1.64,0.992,2.452c0.328,0.836,0.664,1.656,1,2.476c0.324,0.82,0.652,1.624,0.984,2.428
	c0.324,0.828,0.66,1.644,0.992,2.452c0.324,0.828,0.66,1.64,0.992,2.452c0.324,0.828,0.66,1.648,0.992,2.46
	c0.328,0.836,0.664,1.652,1,2.472c0.324,0.82,0.652,1.628,0.984,2.432c0.324,0.828,0.66,1.64,0.992,2.452
	c0.324,0.828,0.66,1.644,0.992,2.452c0.328,0.836,0.664,1.656,1,2.476c0.324,0.82,0.652,1.624,0.984,2.428
	c0.324,0.828,0.66,1.64,0.992,2.452c0.324,0.828,0.66,1.644,0.992,2.456c0.324,0.836,0.664,1.656,1,2.476
	c0.324,0.816,0.652,1.628,0.98,2.432c0.324,0.828,0.66,1.636,0.992,2.448c0.324,0.828,0.66,1.644,0.992,2.456
	c0.332,0.844,0.672,1.676,1.016,2.508c0.32,0.816,0.652,1.616,0.98,2.42c0.324,0.82,0.652,1.624,0.984,2.428
	c0.324,0.828,0.66,1.644,0.992,2.456c0.324,0.824,0.66,1.644,0.992,2.456c0.328,0.836,0.664,1.656,1,2.476
	c0.324,0.816,0.652,1.62,0.984,2.424c0.324,0.828,0.66,1.644,0.992,2.456c0.324,0.828,0.66,1.64,0.992,2.452
	c0.328,0.836,0.664,1.656,1,2.476c0.324,0.82,0.652,1.624,0.984,2.428c0.324,0.828,0.66,1.64,0.992,2.452
	c0.324,0.828,0.66,1.648,0.992,2.46c0.324,0.824,0.66,1.636,0.988,2.448c0.328,0.836,0.664,1.656,1,2.476
	c0.324,0.82,0.652,1.628,0.984,2.432c0.324,0.82,0.66,1.64,0.992,2.452c0.324,0.828,0.66,1.64,0.992,2.452
	c0.328,0.836,0.664,1.656,1,2.476c0.324,0.82,0.652,1.624,0.984,2.428c0.324,0.828,0.66,1.644,0.992,2.456
	c0.324,0.828,0.66,1.64,0.992,2.452c0.328,0.836,0.664,1.652,1,2.472c0.324,0.82,0.652,1.632,0.984,2.428
	c0.324,0.828,0.66,1.648,0.992,2.46c0.332,0.844,0.672,1.672,1.016,2.508c0.316,0.804,0.644,1.6,0.972,2.408
	c0.328,0.836,0.664,1.656,1,2.476c0.324,0.82,0.652,1.624,0.984,2.428c0.324,0.828,0.66,1.644,0.992,2.452
	c0.324,0.828,0.66,1.648,0.988,2.46c0.328,0.836,0.664,1.656,1,2.472c0.324,0.82,0.652,1.624,0.984,2.428
	c0.324,0.828,0.66,1.644,0.992,2.456c0.012,0.036,0.032,0.068,0.048,0.092C222.46,510.308,239.032,512,256,512
	C361.28,512,451.68,448.42,491.004,357.584z"/>
<path style="fill:#F2B255;" d="M406,166c0-39.256-21.96-70-50-70c-23.916,0-43.408,19.18-48.624,45.696
	C289.836,136,272.688,136,256,136s-33.836,0-51.376,5.696C199.408,115.18,179.916,96,156,96c-28.04,0-50,30.744-50,70
	c0,21.064,7.404,40.956,20,54.212c-2,11.788-2.74,63.984,0.164,77.584C140.328,375.116,185.22,416,256,416
	s115.672-40.884,129.836-118.204C388.744,284.196,388,232,386,220.212C398.592,206.956,406,187.064,406,166z"/>
<g>
	<path style="fill:#E6A951;" d="M406,166c0-39.256-21.96-70-50-70c-2.1,0-4.152,0.2-6.18,0.488C375.016,100.408,398,129.508,398,166
		c0,21.064-11.408,40.956-24,54.212c2,11.788,2.744,63.984-0.164,77.584C360.08,372.904,317.316,413.624,250,415.888
		c1.98,0.068,3.976,0.1,6,0.1c70.78,0,115.672-40.884,129.836-118.204C388.744,284.196,388,232,386,220.212
		C398.592,206.956,406,187.064,406,166z"/>
	<path style="fill:#E6A951;" d="M194.836,147.332c3.252-3.252,6.032-4.884,9.788-5.64C198.916,113.332,179.024,96,156,96
		c-1.976,0-3.916,0.188-5.82,0.488C171.216,99.48,190.076,123.148,194.836,147.332z"/>
</g>
<path style="fill:#F2CB91;" d="M137.596,209.188C127.832,198.916,122,182.768,122,166c0-29.776,15.252-54,34-54
	c15.584,0,29.124,13.484,32.924,32.784C176,156,151.196,182.376,137.596,209.188z"/>
<path style="fill:#E6C18A;" d="M130,166c0-27.72,13.228-50.608,30.18-53.636c-1.376-0.216-2.764-0.364-4.18-0.364
	c-18.752,0-34,24.224-34,54c0,16.768,5.832,32.916,15.596,43.188c1.02-2.012,2.116-4.016,3.252-6.016
	C134.004,193.14,130,179.808,130,166z"/>
<path style="fill:#F2CB91;" d="M376.408,209.188C386.168,198.916,392,182.768,392,166c0-29.776-15.252-54-34-54
	c-15.584,0-29.124,13.484-32.92,32.784C338,156,362.804,182.376,376.408,209.188z"/>
<path style="fill:#E6C18A;" d="M333.08,144.784c3.452-17.552,14.968-30.252,28.752-32.42c-1.26-0.224-2.54-0.364-3.832-0.364
	c-15.584,0-29.124,13.484-32.92,32.784C338,156,362.808,182.372,376.408,209.188c1.728-1.812,3.272-3.868,4.748-6.016
	C367.132,178.508,345.032,155.16,333.08,144.784z"/>
<path style="fill:#FFD464;" d="M195.444,246.976c-11.184,0-20.988-8.072-23.32-19.172c-2.712-13.016,5.524-25.868,18.328-28.672
	c2.62-0.556,5.344-0.072,7.58,1.38c2.24,1.448,3.808,3.74,4.344,6.348l5.792,27.752c1.12,5.356-2.276,10.616-7.616,11.796
	C198.872,246.788,197.152,246.976,195.444,246.976z"/>
<circle style="fill:#242424;" cx="196" cy="226" r="10"/>
<path style="fill:#FFD464;" d="M316.556,246.976L316.556,246.976c-1.708,0-3.416-0.188-5.1-0.572
	c-5.336-1.18-8.744-6.44-7.612-11.796l5.792-27.752c0.536-2.608,2.1-4.904,4.344-6.348c2.236-1.44,4.96-1.932,7.58-1.38
	c12.804,2.804,21.04,15.656,18.344,28.64C337.548,238.916,327.744,246.976,316.556,246.976z"/>
<circle style="fill:#242424;" cx="316" cy="226" r="10"/>
<path style="fill:#F2CB91;" d="M330.472,198.584c4.944-2.556,5.528-9.272,5.528-19.644c0-3.612-7.96-23.272-28.868-37.316
	C289.68,136.008,272.608,136,256,136s-33.68,0.008-51.132,5.628C183.96,155.668,176,175.328,176,178.94
	c0,10.372,0.584,17.088,5.528,19.648c26.496,13.74,16.152,51.86,2.188,93.056c-1.108,3.292-2.188,6.448-3.152,9.412
	c-6.876,21.048-4.68,42.728,5.88,58c7.44,10.764,18.224,16.944,29.56,16.944c20.528,0,32.744-5.812,40-13.556
	c7.252,7.744,19.472,13.556,40,13.556c11.336,0,22.112-6.18,29.568-16.952c10.56-15.272,12.752-36.952,5.876-58
	c-0.96-2.952-2.04-6.1-3.148-9.408C314.32,250.444,303.976,212.324,330.472,198.584z"/>
<g>
	<path style="fill:#E6C18A;" d="M250.064,357.5c-6.296,6.72-22.416,16.916-38.384,18.192c1.424,0.2,2.868,0.308,4.32,0.308
		c15.712,0,29.564-2.688,40-13.556C253.708,360.9,251.764,359.316,250.064,357.5z"/>
	<path style="fill:#E6C18A;" d="M328.28,291.64c-13.96-41.196-24.304-79.316,2.192-93.056c4.944-2.556,5.528-9.272,5.528-19.644
		c0-3.612-7.96-23.272-28.868-37.316C289.68,136.008,272.608,136,256,136c-1.972,0-3.948,0-5.936,0.012
		c14.7,0.076,29.74,0.676,45.076,5.616c20.908,14.044,28.868,33.7,28.868,37.316c0,10.372-0.584,17.088-5.528,19.652
		c-26.496,13.736-16.152,51.86-2.188,93.052c1.104,3.296,2.188,6.444,3.152,9.416c6.876,21.048,4.68,42.728-5.884,58
		c-6.492,9.392-15.516,15.28-25.244,16.636c2.42,0.2,4.972,0.308,7.68,0.308c11.336,0,22.116-6.18,29.564-16.944
		c10.564-15.272,12.752-36.952,5.884-58C330.472,298.092,329.4,294.936,328.28,291.64z"/>
</g>
<g>
	<path style="fill:#242424;" d="M256,356c-3.144,0-6.112-1.484-8-4.004l-30-40c-2.272-3.028-2.632-7.084-0.944-10.468
		C218.752,298.14,222.212,296,226,296h60c3.788,0,7.252,2.14,8.944,5.528c1.688,3.388,1.328,7.44-0.944,10.468l-30,40
		C262.108,354.516,259.144,356,256,356z"/>
	<ellipse style="fill:#242424;" cx="142.964" cy="257.32" rx="5.568" ry="9.108"/>
	<ellipse style="fill:#242424;" cx="155.376" cy="303.752" rx="5.572" ry="9.108"/>
	<ellipse style="fill:#242424;" cx="142.964" cy="282.44" rx="3.704" ry="6.06"/>
	<ellipse style="fill:#242424;" cx="163.668" cy="275.084" rx="6.332" ry="11.416"/>
	<ellipse style="fill:#242424;" cx="369.04" cy="257.32" rx="5.576" ry="9.108"/>
	<ellipse style="fill:#242424;" cx="356.64" cy="303.752" rx="5.568" ry="9.108"/>
	<ellipse style="fill:#242424;" cx="369.04" cy="282.44" rx="3.708" ry="6.06"/>
	<ellipse style="fill:#242424;" cx="348.32" cy="275.084" rx="6.332" ry="11.416"/>
	<ellipse style="fill:#242424;" cx="216.28" cy="357.48" rx="3.704" ry="6.064"/>
	<ellipse style="fill:#242424;" cx="200.6" cy="347" rx="3.704" ry="6.064"/>
	<ellipse style="fill:#242424;" cx="193.56" cy="326" rx="3.708" ry="6.064"/>
	<ellipse style="fill:#242424;" cx="213" cy="330.68" rx="3.704" ry="6.06"/>
	<ellipse style="fill:#242424;" cx="295.704" cy="357.48" rx="3.704" ry="6.064"/>
	<ellipse style="fill:#242424;" cx="311.4" cy="347" rx="3.712" ry="6.064"/>
	<ellipse style="fill:#242424;" cx="318.44" cy="326" rx="3.708" ry="6.064"/>
	<ellipse style="fill:#242424;" cx="299" cy="330.68" rx="3.704" ry="6.06"/>
	
		<ellipse transform="matrix(0.2911 0.9567 -0.9567 0.2911 300.483 -110.9588)" style="fill:#242424;" cx="225.113" cy="147.278" rx="4.456" ry="8.376"/>
	
		<ellipse transform="matrix(0.2913 0.9566 -0.9566 0.2913 301.9635 -85.0293)" style="fill:#242424;" cx="208.37" cy="161.289" rx="2.788" ry="5.236"/>
	
		<ellipse transform="matrix(0.2911 0.9567 -0.9567 0.2911 322.5866 -119.0545)" style="fill:#242424;" cx="241.628" cy="158.145" rx="3.528" ry="6.632"/>
	
		<ellipse transform="matrix(0.2912 -0.9567 0.9567 0.2912 62.4253 378.8652)" style="fill:#242424;" cx="286.885" cy="147.306" rx="4.456" ry="8.376"/>
	
		<ellipse transform="matrix(0.2915 -0.9566 0.9566 0.2915 60.8413 404.74)" style="fill:#242424;" cx="303.645" cy="161.298" rx="2.788" ry="5.236"/>
	
		<ellipse transform="matrix(0.2912 -0.9567 0.9567 0.2912 40.3285 370.7602)" style="fill:#242424;" cx="270.368" cy="158.165" rx="3.528" ry="6.628"/>
</g>
<g>
</g>
<g>
</g>
<g>
</g>
<g>
</g>
<g>
</g>
<g>
</g>
<g>
</g>
<g>
</g>
<g>
</g>
<g>
</g>
<g>
</g>
<g>
</g>
<g>
</g>
<g>
</g>
<g>
</g>
</svg>
