<?xml version="1.0" encoding="iso-8859-1"?>
<!-- Generator: Adobe Illustrator 19.0.0, SVG Export Plug-In . SVG Version: 6.00 Build 0)  -->
<svg version="1.1" id="Layer_1" xmlns="http://www.w3.org/2000/svg" xmlns:xlink="http://www.w3.org/1999/xlink" x="0px" y="0px"
	 viewBox="0 0 512 512" style="enable-background:new 0 0 512 512;" xml:space="preserve">
<circle style="fill:#2D4452;" cx="256" cy="256" r="256"/>
<path style="fill:#233540;" d="M486.16,368.152c-0.104-0.26-0.208-0.528-0.32-0.788c-0.324-0.808-0.644-1.62-0.98-2.416
	c-0.328-0.824-0.652-1.648-0.992-2.46c-0.328-0.82-0.648-1.64-0.992-2.452c-0.328-0.832-0.656-1.664-1.004-2.484
	c-0.324-0.812-0.644-1.616-0.98-2.42c-0.328-0.82-0.648-1.64-0.992-2.452c-0.328-0.824-0.648-1.648-0.992-2.46
	c-0.328-0.828-0.656-1.656-1-2.476c-0.328-0.812-0.648-1.624-0.984-2.42c-0.328-0.824-0.648-1.648-0.992-2.46
	c-0.328-0.832-0.656-1.664-1.008-2.488c-0.32-0.808-0.64-1.62-0.976-2.416c-0.336-0.828-0.664-1.664-1.008-2.48
	c-0.32-0.812-0.636-1.624-0.972-2.424c-0.328-0.824-0.652-1.648-0.992-2.46c-0.328-0.812-0.652-1.632-0.992-2.444
	c-0.332-0.832-0.66-1.664-1.004-2.484c-0.324-0.812-0.644-1.624-0.98-2.428c-0.328-0.82-0.652-1.64-0.992-2.444
	c-0.328-0.828-0.652-1.648-0.992-2.46c-0.332-0.828-0.66-1.66-1.004-2.48c-0.324-0.812-0.644-1.624-0.98-2.424
	c-0.328-0.82-0.652-1.648-0.992-2.452c-0.332-0.836-0.66-1.664-1.008-2.488c-0.324-0.808-0.644-1.62-0.98-2.424
	c-0.328-0.828-0.656-1.66-1.004-2.476c-0.316-0.812-0.636-1.624-0.972-2.42c-0.328-0.824-0.656-1.648-0.992-2.46
	c-0.328-0.82-0.656-1.64-0.992-2.452c-0.336-0.828-0.664-1.664-1.008-2.484c-0.32-0.804-0.64-1.616-0.976-2.42
	c-0.328-0.82-0.656-1.64-0.992-2.452c-0.328-0.824-0.656-1.648-0.992-2.46c-0.336-0.828-0.664-1.656-1.008-2.476
	c-0.32-0.812-0.64-1.62-0.976-2.42c-0.328-0.824-0.652-1.648-0.992-2.46c-0.328-0.82-0.652-1.64-0.992-2.452
	c-0.332-0.836-0.66-1.664-1.008-2.492c-0.328-0.812-0.648-1.632-0.992-2.44c-0.324-0.812-0.644-1.624-0.98-2.424
	c-0.328-0.82-0.652-1.648-0.992-2.452c-0.328-0.82-0.652-1.64-0.992-2.452c-0.332-0.832-0.66-1.664-1.004-2.484
	c-0.324-0.812-0.644-1.624-0.98-2.428c-0.328-0.82-0.652-1.64-0.992-2.448c-0.328-0.82-0.652-1.644-0.992-2.456
	c-0.332-0.828-0.66-1.66-1.004-2.48c-0.32-0.812-0.64-1.624-0.976-2.424c-0.328-0.824-0.656-1.644-0.992-2.456
	c-0.328-0.82-0.656-1.64-0.992-2.452c-0.328-0.824-0.656-1.648-0.992-2.46c-0.336-0.84-0.672-1.684-1.024-2.516
	c-0.32-0.8-0.632-1.6-0.968-2.392c-0.328-0.824-0.648-1.648-0.992-2.46c-0.328-0.82-0.648-1.64-0.992-2.452
	c-0.328-0.832-0.656-1.664-1-2.484c-0.328-0.812-0.644-1.624-0.984-2.424c-0.324-0.82-0.644-1.64-0.988-2.452
	c-0.324-0.824-0.648-1.648-0.988-2.46c-0.332-0.828-0.66-1.66-1.004-2.48c-0.324-0.812-0.644-1.624-0.98-2.42
	c-0.328-0.824-0.652-1.648-0.992-2.46c-0.328-0.82-0.652-1.64-0.992-2.452c-0.328-0.824-0.652-1.648-0.992-2.46
	c-0.336-0.836-0.668-1.684-1.02-2.516c-0.32-0.796-0.636-1.596-0.968-2.392c-0.328-0.824-0.652-1.648-0.992-2.46
	c-0.328-0.82-0.652-1.64-0.988-2.452c-0.336-0.828-0.664-1.664-1.008-2.48c-0.32-0.812-0.64-1.624-0.976-2.428
	c-0.328-0.82-0.648-1.64-0.992-2.452c-0.328-0.824-0.648-1.648-0.992-2.456c-0.328-0.828-0.656-1.664-1-2.48
	c-0.328-0.812-0.648-1.624-0.984-2.424c-0.328-0.824-0.648-1.648-0.992-2.46c-0.328-0.82-0.648-1.64-0.992-2.448
	c-0.328-0.832-0.656-1.664-1-2.484c-0.328-0.812-0.648-1.624-0.984-2.428c-0.328-0.832-0.656-1.664-1.008-2.488
	c-0.32-0.808-0.64-1.616-0.976-2.42c-0.328-0.82-0.652-1.64-0.992-2.452c-0.332-0.832-0.66-1.664-1.008-2.484
	c-0.32-0.812-0.64-1.624-0.976-2.428c-0.328-0.816-0.652-1.636-0.992-2.448c-20.236-50.72-65.668-85.216-146.528-85.216
	c-116.34,0-159.396,71.368-159.396,159.404c0,14.764,2.804,27.808,7.72,39.688c0.316,0.828,0.656,1.644,0.992,2.456
	c0.32,0.836,0.664,1.652,1.004,2.48c0.312,0.812,0.648,1.616,0.98,2.42c0.316,0.828,0.656,1.644,0.992,2.456
	c0.32,0.84,0.664,1.668,1.008,2.496c0.312,0.812,0.648,1.608,0.98,2.416c0.32,0.836,0.664,1.664,1.004,2.484
	c0.312,0.816,0.648,1.62,0.98,2.42c0.316,0.828,0.656,1.64,0.992,2.452c0.316,0.828,0.656,1.648,0.992,2.46
	c0.32,0.836,0.664,1.656,1.004,2.48c0.312,0.816,0.648,1.62,0.98,2.42c0.316,0.824,0.656,1.644,0.992,2.456
	c0.316,0.828,0.656,1.64,0.992,2.452c0.32,0.836,0.664,1.66,1.004,2.484c0.312,0.816,0.648,1.616,0.98,2.42
	c0.316,0.828,0.656,1.64,0.992,2.452c0.316,0.828,0.656,1.644,0.992,2.456c0.324,0.852,0.672,1.688,1.02,2.524
	c0.308,0.804,0.64,1.588,0.968,2.388c0.316,0.828,0.656,1.648,0.992,2.46c0.316,0.824,0.656,1.64,0.992,2.452
	c0.316,0.828,0.656,1.644,0.992,2.456c0.32,0.836,0.664,1.652,1.004,2.48c0.312,0.812,0.648,1.616,0.98,2.42
	c0.316,0.828,0.656,1.644,0.992,2.456c0.316,0.828,0.656,1.644,0.992,2.448c0.32,0.836,0.664,1.664,1.004,2.484
	c0.312,0.82,0.648,1.62,0.98,2.424c0.316,0.828,0.656,1.644,0.992,2.452c0.316,0.828,0.656,1.644,0.992,2.456
	c0.324,0.852,0.672,1.688,1.02,2.524c0.308,0.804,0.64,1.588,0.968,2.392c0.316,0.828,0.656,1.644,0.992,2.456
	c0.316,0.828,0.656,1.636,0.992,2.448c0.316,0.828,0.656,1.648,0.992,2.456c0.32,0.836,0.664,1.66,1.004,2.484
	c0.312,0.816,0.648,1.62,0.98,2.416c0.316,0.828,0.656,1.648,0.992,2.46c0.316,0.828,0.656,1.64,0.992,2.452
	c0.32,0.836,0.664,1.66,1.004,2.484c0.312,0.816,0.648,1.62,0.98,2.42c0.316,0.828,0.656,1.64,0.992,2.452
	c0.316,0.828,0.656,1.644,0.992,2.456c0.32,0.836,0.664,1.66,1.004,2.484c0.32,0.828,0.656,1.644,0.996,2.456
	c0.312,0.812,0.648,1.616,0.98,2.416c0.316,0.828,0.656,1.644,0.992,2.456c0.316,0.828,0.656,1.644,0.992,2.452
	c0.32,0.836,0.664,1.656,1.004,2.484c0.312,0.812,0.648,1.616,0.98,2.42c0.316,0.828,0.656,1.644,0.992,2.452
	c0.316,0.828,0.656,1.64,0.992,2.452c0.32,0.836,0.664,1.664,1.004,2.484c0.312,0.82,0.648,1.62,0.98,2.424
	c0.316,0.828,0.656,1.64,0.992,2.448c0.316,0.828,0.656,1.648,0.992,2.46c0.32,0.836,0.664,1.656,1.004,2.484
	c0.312,0.812,0.648,1.616,0.98,2.42c0.32,0.836,0.664,1.664,1.008,2.492c0.312,0.812,0.648,1.616,0.98,2.416
	c0.316,0.828,0.656,1.644,0.992,2.456c0.32,0.836,0.664,1.66,1.004,2.484c0.312,0.812,0.648,1.612,0.98,2.416
	c0.316,0.828,0.656,1.648,0.992,2.456c0.316,0.828,0.656,1.644,0.992,2.456c0.32,0.836,0.664,1.66,1.004,2.484
	c0.312,0.812,0.648,1.616,0.98,2.42c0.316,0.828,0.656,1.64,0.992,2.452c0.316,0.828,0.656,1.644,0.992,2.456
	c0.32,0.836,0.664,1.656,1.004,2.48c0.312,0.812,0.648,1.616,0.98,2.42c0.324,0.844,0.664,1.672,1.008,2.496
	c0.312,0.812,0.648,1.616,0.98,2.416c0.316,0.828,0.656,1.64,0.992,2.452c0.32,0.836,0.664,1.664,1.004,2.484
	c0.312,0.82,0.648,1.62,0.98,2.42c0.316,0.828,0.656,1.644,0.992,2.452c0.316,0.828,0.656,1.648,0.992,2.46
	c0.32,0.836,0.664,1.656,1.004,2.484c0.312,0.812,0.648,1.616,0.98,2.416c0.316,0.828,0.656,1.644,0.992,2.456
	c0.316,0.828,0.656,1.64,0.992,2.452c0.32,0.836,0.664,1.66,1.004,2.484c0.312,0.816,0.648,1.616,0.98,2.42
	c0.316,0.828,0.656,1.64,0.992,2.452c0.32,0.844,0.664,1.672,1.008,2.5c0.312,0.812,0.648,1.612,0.98,2.416
	c0.32,0.836,0.664,1.664,1.004,2.484c0.312,0.812,0.648,1.616,0.98,2.42c0.316,0.828,0.656,1.644,0.992,2.456
	c0.316,0.828,0.656,1.64,0.992,2.452c0.32,0.836,0.664,1.66,1.004,2.48c0.208,0.552,0.432,1.084,0.656,1.616
	c18.864,4.428,38.504,6.852,58.724,6.852C357.156,512,444.58,453.316,486.16,368.152z"/>
<path style="fill:#CC803D;" d="M256,76C139.66,76,96.604,147.368,96.604,235.4c0,88.028,98.792,115.32,159.396,192.88
	c60.6-77.564,159.4-104.852,159.4-192.884S372.34,76,256,76z"/>
<path style="fill:#BF7839;" d="M256,76c-2.28,0-4.488,0.08-6.712,0.132c111.252,2.72,152.68,72.96,152.68,159.26
	c0,84.856-91.784,113.288-152.68,184.7c2.276,2.672,4.524,5.388,6.712,8.18c60.6-77.564,159.4-104.852,159.4-192.88
	S372.34,76,256,76z"/>
<g>
	<circle style="fill:#E6BF5A;" cx="337.04" cy="174.444" r="45.324"/>
	<circle style="fill:#E6BF5A;" cx="174.972" cy="174.444" r="45.324"/>
</g>
<g>
	<path style="fill:#D9B455;" d="M337.024,129.124c-1.508,0-3,0.084-4.476,0.228c22.932,2.248,40.852,21.58,40.852,45.092
		c0,23.524-17.916,42.856-40.852,45.096c1.472,0.144,2.964,0.232,4.476,0.232c25.032,0,45.328-20.292,45.328-45.328
		C382.352,149.416,362.064,129.124,337.024,129.124z"/>
	<path style="fill:#D9B455;" d="M174.972,129.124c-1.508,0-3,0.084-4.476,0.228c22.932,2.252,40.852,21.584,40.852,45.092
		c0,23.524-17.92,42.856-40.852,45.096c1.472,0.144,2.964,0.232,4.476,0.232c25.036,0,45.328-20.292,45.328-45.328
		C220.3,149.416,200.004,129.124,174.972,129.124z"/>
</g>
<g>
	<path style="fill:#CCA950;" d="M337.024,203.836c-16.204,0-29.384-13.188-29.384-29.392c0-16.208,13.18-29.388,29.384-29.388
		s29.392,13.184,29.392,29.388S353.228,203.836,337.024,203.836z"/>
	<path style="fill:#CCA950;" d="M174.972,203.836c-16.2,0-29.384-13.188-29.384-29.392c0-16.208,13.184-29.388,29.384-29.388
		c16.204,0,29.392,13.184,29.392,29.388S191.176,203.836,174.972,203.836z"/>
</g>
<path style="fill:#E6BF5A;" d="M256,141.408c-71.892,0-107.8,40.648-107.8,123.916c0,45.084,10.556,65.848,31.624,75.416
	c3,61.464,27.668,95.26,76.172,95.26s73.172-33.796,76.172-95.256c21.076-9.58,31.624-30.336,31.624-75.416
	C363.8,182.056,327.892,141.408,256,141.408z"/>
<g>
	<path style="fill:#D9B455;" d="M256,141.408c-2.308,0-4.476,0.164-6.712,0.252c67.344,2.528,101.084,43.08,101.084,123.664
		c0,45.084-10.552,65.848-31.62,75.416c-2.86,58.548-25.416,91.916-69.464,94.956c2.2,0.156,4.404,0.304,6.712,0.304
		c48.504,0,73.172-33.796,76.172-95.256c21.072-9.58,31.624-30.336,31.624-75.416C363.8,182.056,327.892,141.408,256,141.408z"/>
	<path style="fill:#D9B455;" d="M256,240.36c-22.224,0-41.58,4.512-51.984,11.196v12.724V274v63.66H307.98V274v-9.728v-12.72
		C297.58,244.872,278.228,240.36,256,240.36z"/>
</g>
<path style="fill:#E6BF5A;" d="M309.288,335.996c-24.344,0-45.048,15.348-53.12,36.872c-0.056,0-0.112-0.012-0.168-0.012
	s-0.112,0.012-0.168,0.012c-8.072-21.524-28.78-36.872-53.12-36.872c-8.144,0-15.884,1.732-22.88,4.816
	C182.848,402.228,207.516,436,256,436s73.156-33.764,76.168-95.188C325.172,337.728,317.436,335.996,309.288,335.996z"/>
<path style="fill:#D9B455;" d="M266.744,435.332c2.148-0.252,4.292-0.504,6.336-0.912c0.508-0.092,0.968-0.256,1.468-0.376
	c2.124-0.452,4.236-0.944,6.236-1.58c0.788-0.252,1.516-0.584,2.28-0.868c1.648-0.584,3.32-1.144,4.884-1.852
	c0.812-0.368,1.556-0.836,2.336-1.236c1.444-0.728,2.916-1.416,4.272-2.244c0.72-0.436,1.36-0.964,2.056-1.424
	c1.36-0.912,2.74-1.776,4.008-2.792c0.752-0.584,1.428-1.288,2.164-1.924c1.132-0.992,2.304-1.936,3.376-3.028
	c0.772-0.78,1.46-1.688,2.208-2.516c0.932-1.052,1.912-2.052,2.788-3.172c0.768-0.984,1.448-2.084,2.184-3.124
	c0.756-1.088,1.564-2.12,2.272-3.272c0.788-1.264,1.484-2.672,2.228-4.02c0.572-1.044,1.176-2.012,1.712-3.088
	c0.736-1.492,1.376-3.112,2.048-4.7c0.44-1.048,0.932-2.036,1.36-3.12c0.648-1.704,1.212-3.524,1.796-5.312
	c0.352-1.08,0.752-2.084,1.084-3.196c0.604-2.056,1.12-4.24,1.644-6.4c0.232-0.936,0.504-1.832,0.716-2.788
	c0.516-2.336,0.932-4.796,1.356-7.252c0.152-0.888,0.352-1.724,0.488-2.616c0.412-2.628,0.724-5.38,1.028-8.14
	c0.088-0.808,0.22-1.572,0.3-2.392c0.28-2.82,0.464-5.76,0.64-8.716c0.052-0.828,0.14-1.616,0.18-2.464
	c-2.644-1.164-5.416-2.068-8.252-2.828c-1.656,0.996-3.352,1.932-5.164,2.752c-2.86,58.54-25.416,91.912-69.456,94.952
	c2.2,0.152,4.404,0.3,6.712,0.3c3.036,0,5.968-0.132,8.816-0.396C265.48,435.548,266.084,435.408,266.744,435.332z"/>
<path style="fill:#242424;" d="M301.808,333.508c6.576,0,8.152,3.804,3.5,8.448l-40.864,40.864c-4.644,4.644-12.252,4.644-16.9,0
	l-40.86-40.864c-4.648-4.644-3.072-8.448,3.5-8.448H301.808z"/>
<circle style="fill:#F5F5F5;" cx="208.2" cy="272.24" r="19.924"/>
<circle style="fill:#242424;" cx="208.2" cy="272.24" r="7.972"/>
<circle style="fill:#F5F5F5;" cx="303.82" cy="272.24" r="19.924"/>
<g>
	<circle style="fill:#242424;" cx="303.82" cy="272.24" r="7.972"/>
	<path style="fill:#242424;" d="M288.048,383.9c-4.404,0-7.968,3.576-7.968,7.972c0,4.436-3.612,8.052-8.06,8.052
		c-4.44,0-8.052-3.604-8.052-8.052v-17.024c0-4.404-3.572-7.964-7.972-7.964c-4.4,0-7.972,3.576-7.972,7.964v17.024
		c0,4.436-3.608,8.052-8.052,8.052c-4.44,0-8.052-3.604-8.052-8.052c0-4.408-3.568-7.972-7.968-7.972
		c-4.404,0-7.972,3.576-7.972,7.972c0,13.232,10.76,23.988,23.992,23.988c6.164,0,11.768-2.356,16.02-6.184
		c4.252,3.828,9.86,6.184,16.02,6.184c13.232,0,23.992-10.756,23.992-23.988C296.012,387.464,292.444,383.9,288.048,383.9z"/>
</g>
<g>
</g>
<g>
</g>
<g>
</g>
<g>
</g>
<g>
</g>
<g>
</g>
<g>
</g>
<g>
</g>
<g>
</g>
<g>
</g>
<g>
</g>
<g>
</g>
<g>
</g>
<g>
</g>
<g>
</g>
</svg>
