<?xml version="1.0" encoding="iso-8859-1"?>
<!-- Generator: Adobe Illustrator 19.0.0, SVG Export Plug-In . SVG Version: 6.00 Build 0)  -->
<svg version="1.1" id="Layer_1" xmlns="http://www.w3.org/2000/svg" xmlns:xlink="http://www.w3.org/1999/xlink" x="0px" y="0px"
	 viewBox="0 0 512 512" style="enable-background:new 0 0 512 512;" xml:space="preserve">
<circle style="fill:#E16B5A;" cx="256" cy="256" r="256"/>
<path style="fill:#D16354;" d="M494.272,349.572c-0.024-0.06-0.04-0.116-0.076-0.18c-0.316-0.828-0.628-1.664-0.992-2.452
	c-0.316-0.828-0.628-1.664-0.988-2.452c-0.32-0.832-0.632-1.672-0.992-2.468c-0.328-0.82-0.632-1.652-0.992-2.436
	c-0.32-0.828-0.632-1.664-0.992-2.452c-0.32-0.828-0.632-1.664-0.992-2.456c-0.32-0.832-0.632-1.672-0.992-2.468
	c-0.328-0.816-0.632-1.652-0.992-2.432c-0.32-0.828-0.632-1.664-0.992-2.456c-0.32-0.828-0.632-1.664-0.992-2.456
	c-0.32-0.828-0.632-1.664-0.992-2.452c-0.32-0.836-0.632-1.672-0.992-2.468c-0.324-0.82-0.632-1.648-0.988-2.436
	c-0.324-0.828-0.636-1.664-0.992-2.456c-0.324-0.828-0.636-1.664-0.992-2.456c-0.324-0.828-0.636-1.672-0.996-2.46
	c-0.324-0.82-0.632-1.652-0.988-2.44c-0.324-0.828-0.636-1.664-0.992-2.456c-0.324-0.828-0.636-1.664-0.992-2.452
	c-0.324-0.836-0.636-1.672-0.996-2.464c-0.32-0.82-0.632-1.652-0.984-2.44c-0.328-0.836-0.648-1.684-1.012-2.484
	c-0.316-0.812-0.628-1.64-0.98-2.42c-0.32-0.828-0.632-1.664-0.992-2.456c-0.32-0.832-0.632-1.672-0.992-2.468
	c-0.328-0.82-0.632-1.652-0.992-2.44c-0.32-0.828-0.632-1.664-0.992-2.448c-0.32-0.828-0.624-1.664-0.992-2.456
	c-0.32-0.832-0.632-1.672-0.992-2.468c-0.328-0.82-0.628-1.648-0.992-2.436c-0.32-0.824-0.624-1.664-0.984-2.452
	c-0.328-0.828-0.632-1.664-0.992-2.456c-0.324-0.832-0.636-1.672-0.996-2.464c-0.324-0.82-0.632-1.656-0.988-2.436
	c-0.324-0.828-0.632-1.664-0.992-2.456c-0.324-0.828-0.632-1.664-0.992-2.456c-0.324-0.828-0.632-1.664-0.992-2.452
	c-0.324-0.832-0.636-1.672-0.996-2.464c-0.324-0.82-0.632-1.652-0.988-2.44c-0.324-0.828-0.624-1.664-0.992-2.456
	c-0.324-0.828-0.624-1.664-0.988-2.452c-0.328-0.832-0.636-1.672-1-2.468c-0.32-0.82-0.628-1.652-0.98-2.44
	c-0.328-0.828-0.632-1.664-0.992-2.452c-0.328-0.828-0.632-1.664-0.992-2.456c-0.328-0.832-0.64-1.672-1-2.468
	c-0.328-0.832-0.64-1.672-1-2.468c-0.32-0.816-0.632-1.644-0.984-2.424c-0.32-0.828-0.632-1.664-0.992-2.456
	c-0.32-0.828-0.632-1.664-0.992-2.456c-0.32-0.832-0.632-1.672-0.992-2.468c-0.328-0.82-0.632-1.648-0.992-2.436
	c-0.32-0.828-0.632-1.664-0.992-2.456c-0.32-0.828-0.632-1.664-0.988-2.456c-0.324-0.832-0.636-1.672-0.996-2.468
	c-0.324-0.816-0.632-1.648-0.988-2.436c-0.324-0.828-0.636-1.664-0.992-2.456c-0.324-0.828-0.636-1.664-0.992-2.456
	c-0.324-0.832-0.636-1.672-0.996-2.464c-0.324-0.82-0.632-1.652-0.988-2.44c-0.324-0.828-0.636-1.664-0.992-2.456
	c-0.324-0.828-0.636-1.664-0.992-2.456c-0.324-0.828-0.636-1.664-0.988-2.452c-0.328-0.832-0.64-1.672-1-2.468
	c-0.32-0.82-0.632-1.652-0.984-2.44c-0.328-0.828-0.64-1.664-0.992-2.452c-0.328-0.828-0.64-1.664-0.992-2.456
	c-0.328-0.832-0.64-1.672-1-2.468c-0.32-0.82-0.632-1.652-0.984-2.436c-0.328-0.828-0.632-1.664-0.992-2.456
	c-0.328-0.828-0.632-1.664-0.992-2.456c-0.328-0.84-0.648-1.692-1.016-2.496c-0.32-0.812-0.616-1.632-0.976-2.416
	c-0.32-0.828-0.624-1.664-0.984-2.452c-0.324-0.828-0.632-1.664-0.992-2.456c-0.324-0.832-0.636-1.672-0.996-2.468
	c-0.324-0.82-0.632-1.652-0.988-2.436c-0.324-0.828-0.632-1.664-0.992-2.456c-0.324-0.828-0.632-1.664-0.992-2.456
	c-0.324-0.828-0.632-1.664-0.992-2.456c-0.324-0.832-0.636-1.672-0.996-2.464c-0.324-0.82-0.632-1.652-0.988-2.44
	c-0.324-0.828-0.624-1.664-0.992-2.456c-8.86-22.7-31.04-32.416-57.084-32.416c-1.604,0-3.196,0.14-4.768,0.284
	c-12.528,1.144-23.988,6.728-33.26,15.448c-17.76-10.12-38.528-15.74-60.728-15.74c-22.196,0-42.956,5.608-60.72,15.74
	c-10.452-9.828-23.656-15.74-38.048-15.74c-2.444,0-4.844,0.108-7.216,0.28h-0.004C119.6,115.62,96,132.308,96,169.416
	c0,20.416,2.992,36.908,8.156,49.92c0.312,0.856,0.668,1.628,0.992,2.456c0.312,0.86,0.668,1.64,1,2.468
	c0.308,0.852,0.66,1.62,0.984,2.436c0.312,0.86,0.668,1.644,1,2.472c0.308,0.852,0.668,1.628,0.992,2.452
	c0.308,0.848,0.664,1.62,0.988,2.44c0.312,0.86,0.668,1.644,1,2.472c0.308,0.848,0.664,1.62,0.988,2.436
	c0.312,0.856,0.668,1.628,0.992,2.456c0.312,0.856,0.668,1.628,0.992,2.452c0.312,0.86,0.668,1.644,1,2.472
	c0.308,0.848,0.664,1.62,0.988,2.436c0.312,0.856,0.668,1.628,0.992,2.456c0.312,0.856,0.668,1.628,0.992,2.452
	c0.312,0.86,0.668,1.644,1,2.472c0.308,0.848,0.664,1.62,0.988,2.436c0.312,0.86,0.668,1.64,1,2.468
	c0.308,0.852,0.664,1.616,0.988,2.436c0.312,0.864,0.672,1.648,1,2.484c0.308,0.844,0.66,1.608,0.984,2.42
	c0.312,0.86,0.668,1.628,0.992,2.452c0.312,0.86,0.668,1.632,0.992,2.456c0.312,0.856,0.668,1.632,0.992,2.456
	c0.312,0.86,0.668,1.64,1,2.468c0.308,0.852,0.66,1.616,0.984,2.432c0.312,0.856,0.668,1.632,0.992,2.456
	c0.312,0.856,0.668,1.632,0.992,2.452c0.312,0.864,0.668,1.648,1,2.476c0.308,0.844,0.66,1.612,0.984,2.428
	c0.312,0.864,0.668,1.644,1,2.472c0.308,0.848,0.664,1.62,0.988,2.44c0.312,0.86,0.672,1.648,1,2.484
	c0.308,0.844,0.66,1.604,0.984,2.416c0.312,0.856,0.668,1.628,0.992,2.456c0.312,0.856,0.668,1.632,0.992,2.452
	c0.312,0.86,0.668,1.628,0.992,2.456c0.312,0.86,0.668,1.64,1,2.468c0.308,0.852,0.664,1.62,0.988,2.432
	c0.312,0.86,0.668,1.632,0.992,2.456c0.312,0.856,0.668,1.628,0.992,2.456c0.312,0.86,0.668,1.64,1,2.468
	c0.312,0.852,0.668,1.624,0.992,2.452c0.308,0.844,0.664,1.616,0.988,2.436c0.308,0.856,0.664,1.628,0.992,2.456
	c0.312,0.86,0.668,1.636,1,2.464c0.308,0.856,0.664,1.624,0.992,2.452c0.308,0.844,0.664,1.62,0.988,2.44
	c0.312,0.856,0.668,1.628,0.992,2.456c0.312,0.856,0.668,1.624,0.992,2.452c0.312,0.86,0.668,1.64,1,2.468
	c0.308,0.852,0.66,1.62,0.984,2.436c0.312,0.856,0.668,1.624,0.992,2.452c0.312,0.86,0.668,1.632,0.992,2.452
	c0.312,0.86,0.668,1.644,1,2.472c0.308,0.856,0.664,1.628,0.992,2.452c0.308,0.852,0.664,1.62,0.992,2.44
	c0.308,0.852,0.664,1.632,0.992,2.452c0.312,0.86,0.668,1.64,1,2.472c0.308,0.844,0.664,1.616,0.988,2.436
	c0.312,0.856,0.668,1.636,0.996,2.456c0.308,0.852,0.664,1.624,0.992,2.444c0.312,0.856,0.668,1.632,0.992,2.456
	c0.312,0.86,0.668,1.644,1,2.472c0.308,0.848,0.664,1.616,0.988,2.436c0.312,0.852,0.668,1.624,0.992,2.448
	c0.312,0.856,0.668,1.632,0.992,2.456c0.316,0.868,0.672,1.648,1.004,2.484c0.304,0.848,0.656,1.608,0.98,2.416
	c0.308,0.856,0.664,1.632,0.992,2.456c0.308,0.856,0.664,1.632,0.992,2.452c0.312,0.864,0.668,1.648,1,2.476
	c0.308,0.844,0.664,1.612,0.988,2.428c0.308,0.856,0.668,1.636,0.996,2.464c0.308,0.852,0.664,1.628,0.992,2.448
	c0.308,0.852,0.668,1.632,0.992,2.452c0.312,0.86,0.668,1.64,1,2.468c0.308,0.852,0.664,1.62,0.988,2.436
	c0.308,0.856,0.668,1.632,0.992,2.452c0.308,0.86,0.668,1.632,0.992,2.456c0.316,0.872,0.676,1.656,1.008,2.496
	c0.304,0.84,0.656,1.6,0.98,2.416c0.312,0.86,0.668,1.64,0.996,2.46c0.308,0.852,0.664,1.628,0.992,2.448
	c0.312,0.86,0.668,1.64,1,2.468c0.308,0.852,0.664,1.62,0.988,2.432c0.312,0.86,0.668,1.632,0.992,2.456
	c0.312,0.856,0.668,1.632,0.992,2.456c0.312,0.856,0.668,1.628,0.992,2.452c0.312,0.86,0.668,1.64,1,2.468
	c0.308,0.852,0.664,1.62,0.988,2.436c0.312,0.856,0.668,1.632,0.992,2.456c0.312,0.856,0.668,1.628,0.992,2.448
	c0.316,0.876,0.672,1.656,1.004,2.492c0.304,0.844,0.656,1.604,0.98,2.416c0.308,0.856,0.664,1.628,0.992,2.456
	c0.308,0.856,0.664,1.624,0.992,2.452c0.312,0.86,0.668,1.64,1,2.468c0.3,0.852,0.66,1.62,0.984,2.436
	c0.308,0.856,0.664,1.624,0.992,2.452c0.308,0.86,0.66,1.632,0.988,2.452c0.312,0.86,0.672,1.644,1,2.472
	c0.304,0.848,0.664,1.62,0.984,2.436c0.312,0.856,0.664,1.628,0.992,2.456c0.312,0.852,0.664,1.624,0.992,2.448
	c0.312,0.856,0.664,1.632,0.992,2.456c0.312,0.86,0.672,1.644,1,2.472c0.304,0.848,0.664,1.62,0.984,2.432
	c0.312,0.86,0.672,1.64,1,2.468c0.304,0.852,0.664,1.62,0.984,2.44c0.312,0.86,0.672,1.644,1,2.472
	c0.304,0.848,0.66,1.616,0.984,2.436c0.312,0.86,0.676,1.648,1.008,2.48c0.304,0.848,0.656,1.612,0.98,2.424
	c0.312,0.86,0.668,1.64,1,2.468c0.304,0.852,0.66,1.616,0.984,2.432c0.308,0.856,0.664,1.632,0.992,2.456
	c0.308,0.856,0.664,1.632,0.992,2.452c0.312,0.864,0.668,1.648,1,2.476c0.06,0.148,0.112,0.284,0.176,0.428
	c11.312,1.528,22.832,2.392,34.564,2.392C364.348,512,456.908,444.652,494.272,349.572z"/>
<path style="fill:#FFC066;" d="M218.468,185.544c0,40-27.416,72.428-61.236,72.428S96,231.636,96,169.416
	c0-40,27.416-56.292,61.236-56.292S218.468,145.544,218.468,185.544z"/>
<path style="fill:#F2B661;" d="M157.236,113.112c-2.448,0-4.848,0.112-7.224,0.284c31.58,2.896,56.456,34.052,56.456,72.14
	c0,37.764-24.448,68.752-55.644,72.092c2.108,0.22,4.244,0.336,6.412,0.336c33.82,0,61.236-32.428,61.236-72.428
	S191.056,113.112,157.236,113.112z"/>
<path style="fill:#BF8F4D;" d="M157.236,241.972c-39.36,0-45.236-45.46-45.236-72.56c0-26.74,15.22-40.296,45.236-40.296
	c24.94,0,45.236,25.312,45.236,56.424C202.468,216.66,182.176,241.972,157.236,241.972z"/>
<path style="fill:#FFC066;" d="M293.532,185.544c0,40,27.416,72.428,61.236,72.428s61.244-26.336,61.244-88.564
	c0-40-27.416-56.292-61.244-56.292C320.944,113.116,293.532,145.544,293.532,185.544z"/>
<path style="fill:#F2B661;" d="M354.764,113.112c-1.612,0-3.196,0.14-4.776,0.284C380.4,115.628,404,132.308,404,169.412
	c0,58.244-24.02,85.036-54.824,88.228c1.844,0.2,3.708,0.336,5.588,0.336c33.82,0,61.236-26.336,61.236-88.564
	C416,129.416,388.584,113.112,354.764,113.112z"/>
<path style="fill:#BF8F4D;" d="M354.764,241.972c-24.94,0-45.244-25.312-45.244-56.428c0-31.112,20.292-56.416,45.244-56.416
	c30.016,0,45.236,13.56,45.236,40.292C400,196.512,394.124,241.972,354.764,241.972z"/>
<path style="fill:#D9A357;" d="M374.52,231.636c0-69.82-53.068-118.524-118.52-118.524c-65.456,0-118.52,48.704-118.52,118.524
	c0,34.688,13.104,59.268,34.312,75.252c1.476,51.084,38.592,91.996,84.208,91.996s82.736-40.912,84.208-91.992
	C361.416,290.916,374.52,266.324,374.52,231.636z"/>
<path style="fill:#CC9952;" d="M256,113.112c-2.012,0-4.012,0.052-6,0.14c62.668,2.88,112.52,50.712,112.52,118.384
	c0,34.688-13.104,59.268-34.312,75.252c-1.408,48.824-35.384,88.324-78.208,91.728c1.984,0.156,3.98,0.264,6,0.264
	c45.608,0,82.736-40.916,84.208-92c21.208-15.968,34.312-40.564,34.312-75.252C374.52,161.816,321.452,113.112,256,113.112z"/>
<circle style="fill:#F5F5F5;" cx="212" cy="216" r="20"/>
<circle style="fill:#242424;" cx="212" cy="216" r="8"/>
<circle style="fill:#F5F5F5;" cx="300" cy="216" r="20"/>
<circle style="fill:#242424;" cx="300" cy="216" r="8"/>
<path style="fill:#FFE399;" d="M256,374.884c-33.244,0-60.272-31.916-60.272-71.14c0-39.232,27.04-71.144,60.272-71.144
	c33.236,0,60.272,31.916,60.272,71.144S289.244,374.884,256,374.884z"/>
<path style="fill:#F2D891;" d="M256,232.596c-2.024,0-4.024,0.128-6,0.36c30.428,3.572,54.272,33.94,54.272,70.776
	c0,36.844-23.844,67.224-54.272,70.784c1.976,0.232,3.976,0.36,6,0.36c33.244,0,60.272-31.916,60.272-71.144
	C316.272,264.508,289.244,232.596,256,232.596z"/>
<g>
	<path style="fill:#242424;" d="M256.004,264.752c-1.456,0-2.86-0.788-3.568-2.18c-1.352-2.64-3.892-3.584-5.784-3.916
		c-3.24-0.584-6.96,0.348-9,2.252c-1.616,1.508-4.148,1.42-5.652-0.196c-1.508-1.616-1.42-4.148,0.192-5.652
		c3.872-3.616,10.084-5.3,15.848-4.284c5.212,0.916,9.304,3.816,11.524,8.168c1.008,1.96,0.232,4.38-1.748,5.384
		C257.236,264.608,256.608,264.752,256.004,264.752z"/>
	<path style="fill:#242424;" d="M255.996,264.752c-0.604,0-1.232-0.14-1.812-0.428c-1.964-1.004-2.752-3.416-1.748-5.384
		c2.22-4.352,6.316-7.252,11.524-8.168c5.756-1.016,11.968,0.668,15.848,4.284c1.612,1.504,1.7,4.032,0.192,5.652
		c-1.504,1.616-4.036,1.704-5.652,0.196c-2.04-1.908-5.768-2.828-9-2.252c-1.896,0.332-4.432,1.276-5.784,3.916
		C258.856,263.944,257.452,264.752,255.996,264.752z"/>
	<path style="fill:#242424;" d="M256,281c-2.212,0-4-1.788-4-4v-16.832c0-2.212,1.788-4,4-4s4,1.788,4,4V277
		C260,279.212,258.212,281,256,281z"/>
	<ellipse style="fill:#242424;" cx="267.584" cy="339.836" rx="15.584" ry="4.832"/>
</g>
<g>
</g>
<g>
</g>
<g>
</g>
<g>
</g>
<g>
</g>
<g>
</g>
<g>
</g>
<g>
</g>
<g>
</g>
<g>
</g>
<g>
</g>
<g>
</g>
<g>
</g>
<g>
</g>
<g>
</g>
</svg>
