<?xml version="1.0" encoding="iso-8859-1"?>
<!-- Generator: Adobe Illustrator 19.0.0, SVG Export Plug-In . SVG Version: 6.00 Build 0)  -->
<svg version="1.1" id="Layer_1" xmlns="http://www.w3.org/2000/svg" xmlns:xlink="http://www.w3.org/1999/xlink" x="0px" y="0px"
	 viewBox="0 0 512 512" style="enable-background:new 0 0 512 512;" xml:space="preserve">
<circle style="fill:#E16B5A;" cx="256" cy="256" r="256"/>
<path style="fill:#D16354;" d="M182.34,501.192c23.332,7,48.052,10.808,73.66,10.808c106.012,0,196.976-64.436,235.852-156.288
	c-0.252-0.632-0.496-1.264-0.764-1.904c-0.32-0.824-0.64-1.644-0.992-2.456c-0.32-0.832-0.648-1.664-1-2.484
	c-0.32-0.812-0.632-1.624-0.984-2.42c-0.312-0.82-0.636-1.64-0.984-2.452c-0.32-0.824-0.644-1.644-0.992-2.456
	c-0.324-0.832-0.652-1.664-1-2.48c-0.32-0.812-0.64-1.624-0.984-2.42c-0.32-0.824-0.644-1.644-0.992-2.456
	c-0.32-0.824-0.644-1.644-0.992-2.456c-0.32-0.82-0.644-1.64-0.992-2.452c-0.324-0.828-0.652-1.664-1-2.484
	c-0.32-0.808-0.64-1.62-0.984-2.42c-0.316-0.824-0.644-1.64-0.992-2.452c-0.312-0.82-0.64-1.64-0.988-2.452
	c-0.324-0.832-0.652-1.664-1-2.484c-0.316-0.812-0.636-1.624-0.98-2.424c-0.32-0.824-0.648-1.644-0.992-2.448
	c-0.32-0.828-0.648-1.648-0.992-2.456c-0.328-0.832-0.656-1.664-1-2.484c-0.32-0.812-0.64-1.624-0.984-2.416
	c-0.328-0.856-0.664-1.7-1.024-2.532c-0.312-0.796-0.624-1.592-0.96-2.392c-0.328-0.824-0.648-1.644-0.992-2.456
	c-0.328-0.832-0.656-1.664-1.008-2.484c-0.32-0.808-0.636-1.62-0.976-2.416c-0.324-0.824-0.648-1.644-0.992-2.456
	c-0.324-0.824-0.648-1.644-0.992-2.456c-0.328-0.832-0.656-1.664-1.004-2.484c-0.32-0.804-0.64-1.616-0.98-2.416
	c-0.324-0.824-0.648-1.644-0.992-2.456c-0.324-0.824-0.648-1.644-0.992-2.452c-0.328-0.828-0.656-1.664-1.004-2.484
	c-0.316-0.812-0.636-1.624-0.98-2.42c-0.32-0.824-0.648-1.644-0.992-2.456c-0.32-0.824-0.648-1.644-0.992-2.448
	c-0.32-0.828-0.648-1.648-0.992-2.456c-0.328-0.832-0.656-1.664-1-2.484c-0.32-0.812-0.64-1.624-0.984-2.416
	c-0.32-0.828-0.648-1.648-0.992-2.46c-0.32-0.824-0.64-1.644-0.992-2.452c-0.32-0.832-0.648-1.664-1-2.484
	c-0.32-0.812-0.64-1.624-0.976-2.42c-0.328-0.824-0.648-1.644-0.992-2.456c-0.328-0.824-0.648-1.644-0.992-2.456
	c-0.328-0.832-0.656-1.664-1.008-2.484c-0.328-0.836-0.656-1.668-1.008-2.492c-0.32-0.796-0.628-1.596-0.968-2.392
	c-0.32-0.824-0.644-1.644-0.992-2.456c-0.32-0.824-0.644-1.644-0.992-2.456c-0.324-0.832-0.652-1.664-1-2.484
	c-0.32-0.808-0.636-1.62-0.984-2.42c-0.316-0.824-0.644-1.644-0.988-2.456c-0.32-0.824-0.648-1.644-0.992-2.456
	c-0.328-0.828-0.656-1.664-1-2.48c-0.32-0.812-0.64-1.624-0.984-2.424c-0.32-0.824-0.644-1.644-0.992-2.456
	c-0.316-0.824-0.644-1.644-0.988-2.452c-0.328-0.832-0.656-1.664-1-2.484c-0.32-0.812-0.64-1.624-0.984-2.424
	c-0.32-0.824-0.648-1.644-0.992-2.452c-0.32-0.828-0.648-1.644-0.992-2.456c-0.32-0.824-0.648-1.644-0.992-2.456
	c-0.328-0.832-0.656-1.664-1-2.484c-0.32-0.812-0.64-1.624-0.984-2.42c-0.32-0.824-0.648-1.644-0.992-2.456
	c-0.32-0.824-0.644-1.644-0.992-2.456c-0.328-0.832-0.652-1.664-1-2.484c-0.32-0.812-0.64-1.624-0.984-2.42
	c-0.32-0.824-0.64-1.644-0.992-2.456c-0.32-0.824-0.64-1.644-0.992-2.456c-0.328-0.856-0.672-1.708-1.032-2.552
	c-0.312-0.788-0.624-1.584-0.952-2.36c-0.32-0.824-0.648-1.644-0.992-2.456c-0.32-0.824-0.648-1.644-0.992-2.456
	c-0.328-0.832-0.656-1.664-1-2.48c-0.32-0.812-0.64-1.624-0.984-2.42c-0.32-0.824-0.64-1.644-0.992-2.456
	c-0.32-0.824-0.64-1.644-0.984-2.452c-0.328-0.828-0.648-1.644-0.992-2.456c-0.328-0.832-0.656-1.664-1.008-2.484
	c-0.32-0.812-0.64-1.624-0.976-2.424c-0.328-0.824-0.648-1.64-0.992-2.452c-13.064-33.36-45.196-56.412-83.728-56.412
	c-23.212,0-46.516,10.944-64.572,30.168c-1.796-0.1-3.6-0.168-5.428-0.168c-1.82,0-3.628,0.068-5.424,0.168
	c-18.056-19.224-41.356-30.168-64.576-30.168c-50.464,0-90,39.532-90,90c0,14.496,2.968,28.02,8.328,39.964
	c0.336,0.816,0.632,1.656,0.992,2.456c0.344,0.816,0.64,1.668,1,2.472c0.336,0.804,0.632,1.64,0.984,2.432
	c0.336,0.816,0.632,1.656,0.992,2.456c0.336,0.816,0.632,1.656,0.992,2.456c0.336,0.816,0.632,1.652,0.992,2.452
	c0.344,0.82,0.636,1.668,1,2.472c0.336,0.808,0.628,1.644,0.984,2.436c0.336,0.816,0.632,1.656,0.992,2.456
	c0.336,0.816,0.632,1.652,0.992,2.452c0.344,0.836,0.648,1.692,1.02,2.512c0.328,0.796,0.616,1.616,0.968,2.404
	c0.34,0.816,0.632,1.656,0.992,2.456c0.34,0.812,0.628,1.656,0.992,2.452c0.34,0.82,0.636,1.668,1,2.468
	c0.336,0.812,0.628,1.648,0.984,2.436c0.34,0.816,0.628,1.656,0.988,2.456c0.344,0.812,0.632,1.656,0.992,2.452
	c0.344,0.816,0.64,1.668,1,2.472c0.336,0.804,0.632,1.64,0.984,2.432c0.344,0.816,0.632,1.656,0.992,2.456
	c0.344,0.812,0.632,1.656,0.992,2.452c0.344,0.812,0.632,1.656,0.992,2.452c0.344,0.82,0.636,1.672,1,2.472
	c0.336,0.808,0.628,1.644,0.984,2.436c0.344,0.812,0.632,1.656,0.992,2.448c0.34,0.82,0.632,1.656,0.992,2.46
	c0.34,0.816,0.636,1.664,1,2.468c0.336,0.808,0.628,1.644,0.984,2.436c0.34,0.812,0.632,1.656,0.992,2.452
	c0.34,0.812,0.632,1.656,0.992,2.452c0.34,0.82,0.636,1.668,1,2.472c0.336,0.808,0.624,1.644,0.984,2.432
	c0.34,0.812,0.632,1.656,0.992,2.452c0.34,0.816,0.632,1.656,0.992,2.456c0.344,0.828,0.64,1.684,1.012,2.496
	c0.336,0.808,0.628,1.64,0.98,2.428c0.336,0.812,0.632,1.648,0.984,2.432c0.336,0.816,0.632,1.656,0.992,2.456
	c0.336,0.816,0.632,1.656,0.992,2.452c0.232,0.556,0.42,1.124,0.664,1.672l-23.752,6.592c-2.132,0.588-3.38,2.792-2.788,4.92
	L182.34,501.192z"/>
<path style="fill:#B3B3B3;" d="M176.008,276c-0.252,0-0.496-0.008-0.752-0.032C129.328,272.544,96,234.692,96,186
	c0-50.468,39.532-90,90-90c24.512,0,49.132,12.188,67.564,33.456c3.608,4.16,3.164,10.488-1.008,14.096
	c-4.172,3.604-66.172,117.672-66.584,123.188C185.58,271.996,181.196,276,176.008,276z"/>
<path style="fill:#A6A6A6;" d="M253.564,129.456C235.136,108.188,210.512,96,186,96c-2.144,0-4.256,0.096-6.368,0.244
	c22.616,1.708,44.916,13.58,61.92,33.22c3.612,4.16,3.164,10.488-1,14.1c-4.176,3.6-66.176,117.668-66.584,123.184
	c-0.28,3.772-2.644,6.888-5.876,8.344c2.36,0.376,4.736,0.704,7.164,0.884c0.252,0.024,0.5,0.032,0.752,0.032
	c5.188,0,9.572-4.004,9.96-9.252c0.416-5.508,62.416-119.584,66.584-123.184C256.728,139.944,257.172,133.616,253.564,129.456z"/>
<path style="fill:#999999;" d="M171.584,259.468C136.664,254.332,112,224.244,112,186c0-41.496,32.504-74,74-74
	c18.46,0,37.228,8.788,52.124,24.272c-4.18,6.18-12.984,21.128-34.344,60.54C181.828,237.328,174.264,252.636,171.584,259.468z"/>
<path style="fill:#B3B3B3;" d="M335.992,276c-5.188,0-9.572-4.004-9.96-9.256c-0.416-5.508-62.416-119.58-66.584-123.18
	c-4.164-3.608-4.608-9.936-1-14.096c18.42-21.268,43.052-33.456,67.564-33.456c50.468,0,90,39.532,90,90
	c0,48.692-33.328,86.548-79.252,89.968C336.488,275.992,336.244,276,335.992,276z"/>
<path style="fill:#A6A6A6;" d="M326,96c-1.884,0-3.756,0.096-5.632,0.244C367.752,99.408,404,137.676,404,186
	c0,46.116-29.916,82.456-72.092,89.084c1.252,0.572,2.632,0.916,4.084,0.916c0.252,0,0.496-0.008,0.752-0.032
	C382.672,272.544,416,234.692,416,186C416,135.532,376.468,96,326,96z"/>
<path style="fill:#999999;" d="M340.42,259.484c-2.688-6.832-10.248-22.14-32.216-62.672c-21.348-39.392-30.152-54.348-34.34-60.54
	C288.78,120.784,307.54,112,325.996,112c41.496,0,74,32.504,74,74C400,224.336,375.228,254.472,340.42,259.484z"/>
<path style="fill:#CCCCCC;" d="M256,416c-56.192,0-90-158.592-90-200c0-50.468,39.532-90,90-90s90,39.532,90,90
	C346,257.408,312.192,416,256,416z"/>
<path style="fill:#BFBFBF;" d="M256,126c-2.704,0-5.364,0.136-8,0.36c46.584,3.928,82,41.876,82,89.64
	c0,39.404-30.616,184.916-82,198.908c2.608,0.72,5.28,1.092,8,1.092c56.192,0,90-158.592,90-200C346,165.532,306.468,126,256,126z"
	/>
<path style="fill:#242424;" d="M256,416c16.972,0,31.884-14.512,44.46-35.86c-3.196-6.744-6.696-10.516-7.392-11.212
	C280.14,356,266.752,356,256,356c-10.752,0-24.14,0-37.072,12.928c-0.696,0.696-4.204,4.468-7.396,11.212
	C224.116,401.488,239.028,416,256,416z"/>
<path style="fill:#1A1A1A;" d="M259.812,415.728c0.68-0.084,1.36-0.192,2.036-0.32c0.32-0.068,0.644-0.14,0.964-0.216
	c0.668-0.156,1.336-0.332,2-0.536c0.28-0.084,0.564-0.164,0.844-0.256c0.796-0.256,1.584-0.56,2.372-0.884
	c0.132-0.056,0.264-0.1,0.396-0.156c1.96-0.84,3.888-1.864,5.764-3.064c0.024-0.016,0.048-0.032,0.072-0.048
	c0.932-0.596,1.872-1.248,2.788-1.92c0.016-0.012,0.04-0.028,0.056-0.048c8.492-6.312,16.296-16.148,23.368-28.14
	c-3.196-6.744-6.704-10.516-7.4-11.212c-0.572-0.58-1.14-1.084-1.72-1.608c-11.996,24.336-26.536,42.968-43.296,47.572
	c0.164,0.048,0.32,0.084,0.484,0.124c0.92,0.244,1.852,0.42,2.788,0.58c0.316,0.056,0.632,0.108,0.944,0.156
	C253.508,415.9,254.744,416,256,416c0.984,0,1.956-0.064,2.92-0.156C259.228,415.816,259.516,415.764,259.812,415.728z"/>
<path style="fill:#F5F5F5;" d="M216,246c-11.024,0-20-8.964-20-20s8.976-20,20-20s20,8.964,20,20S227.024,246,216,246z"/>
<circle style="fill:#242424;" cx="216" cy="226" r="8"/>
<path style="fill:#F5F5F5;" d="M296,246c-11.024,0-20-8.964-20-20s8.976-20,20-20s20,8.964,20,20S307.024,246,296,246z"/>
<circle style="fill:#242424;" cx="296" cy="226" r="8"/>
<g>
	<path style="fill:#E6E6E6;" d="M140,390c-1.368,0-2.696-0.7-3.444-1.96c-1.124-1.9-0.5-4.356,1.412-5.476l72-42.672
		c1.9-1.124,4.352-0.5,5.472,1.412c1.124,1.9,0.5,4.356-1.4,5.48l-72,42.664C141.4,389.82,140.696,390,140,390z"/>
	<path style="fill:#E6E6E6;" d="M131.664,365.664c-1.556,0-3.032-0.916-3.68-2.428c-0.868-2.032,0.08-4.38,2.108-5.252
		l80.336-34.332c2.008-0.86,4.376,0.076,5.252,2.104c0.868,2.036-0.08,4.384-2.108,5.252l-80.336,34.332
		C132.72,365.564,132.188,365.664,131.664,365.664z"/>
	<path style="fill:#E6E6E6;" d="M121.992,340.332c-1.752,0-3.36-1.16-3.852-2.924c-0.584-2.124,0.656-4.336,2.788-4.92l90-25
		c2.132-0.584,4.328,0.656,4.916,2.78s-0.656,4.336-2.776,4.92l-90,25C122.712,340.28,122.352,340.332,121.992,340.332z"/>
	<path style="fill:#E6E6E6;" d="M372,390c1.368,0,2.696-0.7,3.444-1.96c1.124-1.9,0.5-4.356-1.416-5.476l-72-42.672
		c-1.9-1.124-4.352-0.5-5.468,1.412c-1.124,1.9-0.5,4.356,1.4,5.48l72,42.664C370.6,389.82,371.304,390,372,390z"/>
	<path style="fill:#E6E6E6;" d="M380.336,365.664c1.556,0,3.032-0.916,3.68-2.428c0.868-2.032-0.08-4.38-2.108-5.252l-80.336-34.332
		c-2.008-0.86-4.376,0.076-5.252,2.104c-0.868,2.036,0.08,4.384,2.108,5.252l80.336,34.332
		C379.28,365.564,379.812,365.664,380.336,365.664z"/>
	<path style="fill:#E6E6E6;" d="M390.008,340.332c1.752,0,3.36-1.16,3.852-2.924c0.584-2.124-0.656-4.336-2.788-4.92l-90-25
		c-2.132-0.584-4.328,0.656-4.916,2.78s0.656,4.336,2.772,4.92l90,25C389.288,340.28,389.648,340.332,390.008,340.332z"/>
</g>
<g>
</g>
<g>
</g>
<g>
</g>
<g>
</g>
<g>
</g>
<g>
</g>
<g>
</g>
<g>
</g>
<g>
</g>
<g>
</g>
<g>
</g>
<g>
</g>
<g>
</g>
<g>
</g>
<g>
</g>
</svg>
