<?xml version="1.0" encoding="iso-8859-1"?>
<!-- Generator: Adobe Illustrator 19.0.0, SVG Export Plug-In . SVG Version: 6.00 Build 0)  -->
<svg version="1.1" id="Layer_1" xmlns="http://www.w3.org/2000/svg" xmlns:xlink="http://www.w3.org/1999/xlink" x="0px" y="0px"
	 viewBox="0 0 512 512" style="enable-background:new 0 0 512 512;" xml:space="preserve">
<circle style="fill:#88C5CC;" cx="256" cy="256" r="256"/>
<g>
	<path style="fill:#242424;" d="M256,512c83.688,0,157.98-40.164,204.692-102.26c-5.716-20.176-15.988-38.628-26.68-51.976
		c-16.544-20.644-49.628-50.852-73.352-63.908c-32.792-18.04-69.184-22.672-104.66-22.672s-71.868,4.632-104.66,22.676
		c-23.72,13.052-56.808,43.252-73.352,63.904c-10.696,13.344-20.968,31.796-26.68,51.976C98.016,471.832,172.312,512,256,512z"/>
	<path style="fill:#242424;" d="M139.3,97.92c-5.228,0-10.48,0.96-15.648,2.872c-12.784,4.724-23.048,14.856-28.892,28.512
		c-5.848,13.652-6.608,29.3-2.168,44.064c4.352,14.412,14.172,25.484,27.476,31.636c10.14-17.876,54.536-69.884,65.924-77.396
		C177.96,106.856,158.64,97.92,139.3,97.92z"/>
</g>
<path style="fill:#B3B3B3;" d="M123.864,190.7c-3.628-3.856-6.32-8.552-7.948-13.956c-3.364-11.164-2.808-22.936,1.56-33.132
	c4.096-9.588,11.104-16.62,19.728-19.804c3.38-1.252,6.78-1.884,10.104-1.884c5.772,0,18.08,1.196,26.324,10.424
	C158.808,147.028,137.192,172.592,123.864,190.7z"/>
<path style="fill:#242424;" d="M372.7,97.92c5.232,0,10.48,0.96,15.648,2.872c12.784,4.724,23.052,14.856,28.896,28.512
	c5.844,13.652,6.604,29.3,2.164,44.064c-4.352,14.412-14.172,25.484-27.476,31.636c-10.136-17.876-54.532-69.884-65.92-77.396
	C334.04,106.856,353.36,97.92,372.7,97.92z"/>
<path style="fill:#B3B3B3;" d="M388.136,190.7c-13.328-18.1-34.944-43.672-49.76-58.352c8.252-9.236,20.556-10.42,26.324-10.42
	c3.324,0,6.732,0.628,10.112,1.884c8.608,3.18,15.616,10.212,19.716,19.792c4.372,10.204,4.916,21.976,1.568,33.16
	C394.452,182.156,391.764,186.848,388.136,190.7z"/>
<path style="fill:#E6E6E6;" d="M390.5,184.004c-12.5-18-37.5-44.332-55.42-55.712c-24.776-15.732-52.272-19.768-79.08-19.768
	s-54.3,4.04-79.08,19.768C159,139.672,134,166.004,121.5,184.004c-12.172,17.528-23.664,45.128-23.664,72.796
	c0,80.376,72.428,148.268,158.164,148.268S414.164,337.164,414.164,256.8C414.164,229.132,402.672,201.532,390.5,184.004z"/>
<path style="fill:#242424;" d="M148.368,276.572L148.368,276.572c-12.68,0-20.876-7.568-20.876-19.292
	c0-23.456,32.024-69.2,59.312-69.2c34.548,0,56.728,32.672,57.648,34.064c1.476,2.22,2,4.936,1.432,7.548
	c-0.548,2.616-2.136,4.876-4.4,6.304C234.892,240.14,176.164,276.572,148.368,276.572z"/>
<path style="fill:#F5F5F5;" d="M186.804,247.148c-11.024,0-20.004-8.964-20.004-20.004c0-11.028,8.98-19.996,20.004-19.996
	c11.028,0,19.996,8.968,19.996,19.996C206.8,238.184,197.832,247.148,186.804,247.148z"/>
<g>
	<path style="fill:#242424;" d="M186.8,235.148c-4.412,0-8-3.584-8-8s3.588-8,8-8c4.416,0,8,3.584,8,8
		S191.216,235.148,186.8,235.148z"/>
	<path style="fill:#242424;" d="M363.648,276.572L363.648,276.572c12.664,0,20.868-7.568,20.868-19.292
		c0-23.456-32.032-69.2-59.312-69.2c-34.556,0-56.72,32.672-57.648,34.064c-1.484,2.22-2.008,4.936-1.436,7.548
		c0.556,2.616,2.132,4.876,4.4,6.304C277.108,240.14,335.844,276.572,363.648,276.572z"/>
</g>
<path style="fill:#F5F5F5;" d="M325.204,247.148c11.016,0,20.004-8.968,20.004-20.004c0-11.024-8.988-19.996-20.004-19.996
	c-11.036,0-19.996,8.972-19.996,19.996C305.208,238.18,314.168,247.148,325.204,247.148z"/>
<g>
	<path style="fill:#242424;" d="M325.208,235.148c4.412,0,8-3.584,8-8s-3.588-8-8-8c-4.416,0-8,3.584-8,8
		S320.792,235.148,325.208,235.148z"/>
	<path style="fill:#242424;" d="M265.72,325.176c19.132-3.196,29.572-16.088,38.664-34.296c1.572-3.128,1.36-6.856-0.54-9.784
		c-6.844-10.576-31.976-14.408-47.188-14.408h-1.312c-15.212,0-40.344,3.832-47.188,14.408c-1.9,2.928-2.1,6.656-0.54,9.784
		c9.096,18.208,19.532,31.1,38.664,34.296H248V337.7l-26.804,21.856c-3.42,2.784-3.932,7.824-1.144,11.252
		c2.788,3.42,7.828,3.928,11.252,1.14L256,351.82l24.696,20.124c1.484,1.216,3.272,1.796,5.056,1.796c2.32,0,4.62-1,6.204-2.936
		c2.788-3.424,2.28-8.464-1.14-11.252l-26.804-21.856v-12.524L265.72,325.176L265.72,325.176z"/>
</g>
<g>
</g>
<g>
</g>
<g>
</g>
<g>
</g>
<g>
</g>
<g>
</g>
<g>
</g>
<g>
</g>
<g>
</g>
<g>
</g>
<g>
</g>
<g>
</g>
<g>
</g>
<g>
</g>
<g>
</g>
</svg>
