<?xml version="1.0" encoding="iso-8859-1"?>
<!-- Generator: Adobe Illustrator 19.0.0, SVG Export Plug-In . SVG Version: 6.00 Build 0)  -->
<svg version="1.1" id="Layer_1" xmlns="http://www.w3.org/2000/svg" xmlns:xlink="http://www.w3.org/1999/xlink" x="0px" y="0px"
	 viewBox="0 0 512 512" style="enable-background:new 0 0 512 512;" xml:space="preserve">
<circle style="fill:#B2E3FF;" cx="256" cy="256" r="256"/>
<path style="fill:#A9D8F2;" d="M410.464,460.124c-0.076-0.188-0.148-0.368-0.224-0.556c-0.344-0.868-0.68-1.7-1.024-2.54
	c-0.32-0.804-0.64-1.584-0.96-2.376c-0.336-0.836-0.664-1.644-0.992-2.456c-0.336-0.836-0.664-1.644-0.992-2.448
	c-0.344-0.868-0.68-1.704-1.024-2.54c-0.32-0.804-0.64-1.584-0.96-2.38c-0.336-0.836-0.66-1.644-0.992-2.456
	c-0.332-0.836-0.66-1.64-0.992-2.452c-0.332-0.836-0.66-1.64-0.992-2.452c-0.34-0.86-0.68-1.696-1.024-2.532
	c-0.32-0.808-0.64-1.592-0.96-2.384c-0.332-0.836-0.66-1.648-0.992-2.452c-0.344-0.876-0.688-1.72-1.032-2.564
	c-0.328-0.828-0.656-1.624-0.984-2.428c-0.32-0.804-0.64-1.584-0.96-2.384c-0.332-0.836-0.66-1.64-0.992-2.452
	c-0.332-0.836-0.66-1.64-0.992-2.452c-0.34-0.86-0.68-1.696-1.024-2.532c-0.32-0.808-0.64-1.592-0.96-2.384
	c-0.328-0.836-0.656-1.648-0.992-2.452c-0.328-0.836-0.656-1.644-0.992-2.456c-0.336-0.864-0.68-1.696-1.024-2.536
	c-0.32-0.804-0.64-1.584-0.96-2.384c-0.328-0.836-0.656-1.64-0.992-2.452c-0.328-0.836-0.656-1.64-0.992-2.452
	c-0.328-0.836-0.656-1.644-0.992-2.452c-0.352-0.9-0.704-1.764-1.064-2.632c-0.304-0.768-0.616-1.524-0.916-2.272
	c-0.336-0.836-0.66-1.644-0.992-2.456c-0.332-0.836-0.66-1.644-0.992-2.456c-0.34-0.86-0.68-1.696-1.028-2.532
	c-0.316-0.804-0.636-1.592-0.956-2.38c-0.332-0.836-0.66-1.644-0.992-2.456c-0.332-0.836-0.66-1.64-0.992-2.452
	c-0.34-0.868-0.68-1.7-1.024-2.54c-0.32-0.804-0.64-1.584-0.96-2.376c-0.332-0.836-0.66-1.644-0.992-2.456
	c-0.332-0.836-0.66-1.644-0.988-2.456c-0.344-0.86-0.684-1.696-1.028-2.532c-0.32-0.804-0.636-1.584-0.956-2.38
	c-0.344-0.872-0.692-1.716-1.036-2.56c-0.316-0.8-0.628-1.584-0.948-2.36c-0.328-0.836-0.656-1.648-0.992-2.456
	c-0.336-0.864-0.68-1.7-1.024-2.536c-0.32-0.804-0.64-1.584-0.96-2.376c-0.328-0.836-0.656-1.648-0.992-2.46
	c-0.328-0.836-0.656-1.64-0.992-2.452c-0.336-0.86-0.68-1.696-1.024-2.532c-0.32-0.808-0.64-1.584-0.96-2.384
	c-0.328-0.836-0.656-1.64-0.988-2.452c-0.332-0.836-0.66-1.644-0.992-2.456c-0.34-0.86-0.684-1.7-1.028-2.536
	c-0.32-0.804-0.636-1.584-0.956-2.376c-0.332-0.836-0.66-1.648-0.992-2.46c-0.344-0.868-0.688-1.712-1.032-2.556
	c-0.32-0.796-0.636-1.584-0.956-2.36c-0.34-0.86-0.68-1.696-1.024-2.536c-0.32-0.808-0.64-1.584-0.96-2.38
	c-0.332-0.836-0.656-1.644-0.992-2.456c-0.328-0.836-0.656-1.644-0.992-2.452c-0.336-0.864-0.68-1.7-1.024-2.536
	c-0.32-0.804-0.64-1.584-0.96-2.38c-0.328-0.836-0.656-1.644-0.992-2.456c-0.328-0.836-0.656-1.64-0.992-2.452
	c-0.336-0.86-0.68-1.696-1.024-2.536c-0.32-0.808-0.64-1.584-0.96-2.38c-0.328-0.836-0.656-1.644-0.992-2.456
	c-0.344-0.868-0.688-1.712-1.032-2.556c-0.312-0.8-0.632-1.584-0.948-2.364c-0.336-0.86-0.684-1.696-1.028-2.532
	c-0.32-0.804-0.636-1.584-0.956-2.384c-0.328-0.836-0.656-1.644-0.988-2.452c-0.332-0.836-0.66-1.64-0.992-2.452
	c-0.34-0.86-0.684-1.696-1.028-2.532c-0.316-0.812-0.636-1.588-0.956-2.388c-0.332-0.836-0.66-1.64-0.992-2.448
	c-0.332-0.836-0.66-1.648-0.992-2.46c-0.34-0.86-0.68-1.696-1.024-2.532c-0.32-0.804-0.64-1.584-0.96-2.384
	c-0.328-0.836-0.656-1.64-0.992-2.452c-0.328-0.836-0.656-1.64-0.992-2.452c-0.344-0.868-0.688-1.712-1.032-2.556
	c-0.328-0.832-0.66-1.632-0.988-2.432c-0.316-0.808-0.636-1.588-0.956-2.38c-0.328-0.836-0.656-1.644-0.992-2.456
	c-0.328-0.836-0.656-1.644-0.992-2.456c-0.336-0.86-0.68-1.696-1.024-2.532c-0.32-0.808-0.64-1.588-0.96-2.38
	c-0.328-0.836-0.656-1.644-0.992-2.456c-0.328-0.836-0.656-1.644-0.992-2.456c-0.336-0.86-0.68-1.696-1.024-2.532
	c-0.32-0.808-0.64-1.588-0.96-2.38c-0.328-0.836-0.656-1.644-0.992-2.456c-0.328-0.836-0.656-1.644-0.988-2.456
	c-0.332-0.836-0.66-1.644-0.992-2.456c-0.356-0.896-0.708-1.756-1.068-2.628c-0.304-0.772-0.616-1.524-0.92-2.276
	c-0.332-0.836-0.66-1.644-0.992-2.456c-0.332-0.836-0.66-1.644-0.992-2.452c-0.34-0.864-0.68-1.7-1.024-2.536
	c-0.32-0.808-0.64-1.584-0.96-2.38c-0.328-0.836-0.656-1.644-0.992-2.456c-0.328-0.836-0.656-1.644-0.992-2.456
	c-0.336-0.86-0.68-1.696-1.024-2.532c-0.32-0.808-0.64-1.584-0.96-2.38c-0.328-0.836-0.656-1.644-0.992-2.456
	c-0.328-0.836-0.656-1.644-0.992-2.452c-0.328-0.836-0.656-1.644-0.992-2.456c-0.352-0.9-0.704-1.76-1.064-2.632
	c-0.304-0.772-0.616-1.52-0.92-2.276c-0.336-0.836-0.66-1.64-0.988-2.452c-0.336-0.836-0.664-1.644-0.992-2.456
	c-0.344-0.86-0.68-1.696-1.028-2.532c-0.316-0.808-0.636-1.588-0.956-2.384c-0.336-0.836-0.664-1.644-0.992-2.452
	c-0.336-0.836-0.66-1.644-0.992-2.456c-0.344-0.86-0.68-1.696-1.024-2.532c-0.32-0.808-0.64-1.588-0.96-2.384
	c-0.332-0.836-0.66-1.64-0.992-2.452c-0.332-0.836-0.66-1.644-0.992-2.456c-0.34-0.86-0.68-1.696-1.024-2.532
	c-0.32-0.808-0.64-1.588-0.956-2.384c-0.344-0.868-0.692-1.712-1.036-2.556c-0.316-0.8-0.636-1.584-0.948-2.36
	c-0.336-0.836-0.664-1.644-0.992-2.456c-0.344-0.86-0.68-1.696-1.024-2.532c-0.32-0.808-0.64-1.584-0.96-2.38
	c-0.328-0.836-0.656-1.644-0.992-2.456c-6.444-16.296-12.976-28.34-19.72-34.812c-9.532-9.136-23.108-14.38-37.904-14.38
	c-0.008,0-0.02,0-0.02,0c-26.932,0.312-46.58,22.472-47.408,23.412c-1.376,1.592-2.228,3.58-2.42,5.664
	c-0.168,1.812-0.292,3.56-0.448,5.348c-0.056,0.036-0.116,0.068-0.168,0.096c-0.24,0.136-0.476,0.272-0.724,0.416
	c-0.564,0.328-1.156,0.672-1.776,1.036c-0.108,0.064-0.204,0.112-0.312,0.18c-0.78,0.456-1.604,0.94-2.46,1.44
	c-0.124,0.076-0.252,0.148-0.376,0.228c-0.752,0.436-1.524,0.904-2.324,1.376c-0.096,0.064-0.18,0.104-0.276,0.164
	c-16.128,9.616-40.66,25.176-40.66,30.86c0,0.392,0.452,0.884,1.232,1.448c-0.136,0.36-0.24,0.704-0.24,1.008
	c0,0.388,0.452,0.88,1.232,1.448c-0.136,0.36-0.24,0.704-0.24,1.008c0,0.388,0.452,0.88,1.232,1.444
	c-0.136,0.36-0.24,0.708-0.24,1.008c0,0.388,0.452,0.88,1.232,1.444c-0.136,0.36-0.24,0.704-0.24,1.008
	c0,0.392,0.452,0.884,1.232,1.448c-0.136,0.36-0.24,0.704-0.24,1.008c0,0.388,0.452,0.88,1.232,1.452
	c-0.136,0.356-0.24,0.7-0.24,1.004c0,0.388,0.452,0.88,1.232,1.444c-0.136,0.364-0.24,0.708-0.24,1.008
	c0,0.392,0.452,0.884,1.232,1.448c-0.136,0.356-0.24,0.708-0.24,1.004c0,0.392,0.452,0.884,1.232,1.448
	c-0.136,0.36-0.24,0.704-0.24,1.008c0,0.388,0.452,0.88,1.232,1.448c-0.136,0.36-0.24,0.704-0.24,1.008
	c0,0.388,0.452,0.88,1.232,1.444c-0.136,0.364-0.24,0.708-0.24,1.008c0,0.392,0.452,0.884,1.232,1.448
	c-0.136,0.356-0.24,0.708-0.24,1.004c0,0.392,0.452,0.884,1.232,1.448c-0.136,0.36-0.24,0.704-0.24,1.008
	c0,0.388,0.452,0.88,1.232,1.448c-0.136,0.36-0.24,0.704-0.24,1.008c0,0.388,0.452,0.88,1.232,1.444
	c-0.136,0.364-0.24,0.708-0.24,1.008c0,0.392,0.452,0.884,1.232,1.448c-0.136,0.356-0.24,0.708-0.24,1.004
	c0,0.392,0.452,0.884,1.232,1.448c-0.136,0.36-0.24,0.704-0.24,1.008c0,0.388,0.452,0.88,1.232,1.448
	c-0.136,0.36-0.24,0.704-0.24,1.008c0,0.388,0.452,0.88,1.232,1.444c-0.136,0.364-0.24,0.708-0.24,1.008
	c0,0.392,0.452,0.884,1.232,1.452c-0.136,0.356-0.24,0.704-0.24,1c0,0.392,0.452,0.884,1.232,1.448
	c-0.136,0.36-0.24,0.704-0.24,1.008c0,0.388,0.452,0.88,1.232,1.448c-0.136,0.36-0.24,0.704-0.24,1.008
	c0,0.388,0.452,0.88,1.232,1.444c-0.136,0.364-0.24,0.708-0.24,1.008c0,0.392,0.452,0.884,1.232,1.448
	c-0.136,0.36-0.24,0.708-0.24,1.008c0,0.392,0.452,0.88,1.232,1.448c-0.136,0.356-0.24,0.704-0.24,1.004
	c0,0.388,0.452,0.88,1.232,1.448c-0.136,0.36-0.24,0.704-0.24,1.008c0,0.388,0.452,0.88,1.232,1.444
	c-0.136,0.364-0.24,0.708-0.24,1.008c0,0.392,0.452,0.884,1.232,1.448c-0.136,0.36-0.24,0.708-0.24,1.008
	c0,0.392,0.452,0.88,1.232,1.448c-0.136,0.356-0.24,0.704-0.24,1.004c0,0.388,0.452,0.88,1.232,1.448
	c-0.136,0.36-0.24,0.704-0.24,1.008c0,0.388,0.452,0.88,1.232,1.444c-0.136,0.364-0.24,0.708-0.24,1.008
	c0,0.392,0.452,0.884,1.232,1.448c-0.136,0.36-0.24,0.708-0.24,1.008c0,0.392,0.452,0.88,1.232,1.452c-0.136,0.356-0.24,0.7-0.24,1
	c0,0.388,0.452,0.88,1.232,1.448c-0.136,0.36-0.24,0.704-0.24,1.008c0,0.388,0.452,0.88,1.232,1.444
	c-0.136,0.364-0.24,0.708-0.24,1.008c0,0.392,0.452,0.884,1.232,1.448c-0.136,0.36-0.24,0.708-0.24,1.008
	c0,0.392,0.452,0.88,1.232,1.448c-0.136,0.36-0.24,0.704-0.24,1.008c0,0.388,0.452,0.88,1.232,1.448
	c-0.136,0.356-0.24,0.704-0.24,1.004c0,0.388,0.452,0.88,1.232,1.44c-0.136,0.368-0.24,0.712-0.24,1.008
	c0,0.396,0.452,0.888,1.232,1.452c-0.136,0.36-0.24,0.704-0.24,1.008c0,0.392,0.452,0.876,1.232,1.444
	c-0.136,0.36-0.24,0.704-0.24,1.008c0,0.392,0.452,0.884,1.232,1.448c-0.136,0.356-0.24,0.704-0.24,1.004
	c0,0.388,0.452,0.88,1.232,1.444c-0.136,0.36-0.24,0.704-0.24,1.008c0,0.392,0.452,0.884,1.232,1.444
	c-0.136,0.36-0.24,0.712-0.24,1.008c0,0.392,0.452,0.884,1.232,1.448c-0.136,0.36-0.24,0.704-0.24,1.008
	c0,0.388,0.452,0.88,1.232,1.448c-0.136,0.356-0.24,0.704-0.24,1c0,0.392,0.452,0.884,1.232,1.452c-0.136,0.36-0.24,0.704-0.24,1
	c0,0.396,0.452,0.884,1.232,1.448c-0.136,0.36-0.24,0.708-0.24,1.008c0,0.396,0.452,0.88,1.232,1.448
	c-0.136,0.36-0.24,0.704-0.24,1.008c0,0.388,0.452,0.88,1.232,1.444c-0.136,0.36-0.24,0.708-0.24,1.008
	c0,0.392,0.452,0.884,1.232,1.448c-0.136,0.356-0.24,0.708-0.24,1c0,0.396,0.452,0.888,1.232,1.448
	c-0.136,0.36-0.24,0.708-0.24,1.008c0,0.336,0.332,0.752,0.928,1.236c0.052,0.268,0.104,0.56,0.16,0.828
	c-0.02,0.124-0.092,0.272-0.092,0.404c0,0.176,0.112,0.376,0.28,0.588c3.38,16.964,7.888,32.08,13.6,45.252
	c0.336,0.804,0.648,1.66,0.992,2.452c0.34,0.82,0.656,1.68,1,2.484c0.332,0.792,0.64,1.64,0.984,2.42
	c0.336,0.808,0.648,1.66,0.992,2.456c0.34,0.816,0.656,1.68,1.004,2.48c0.332,0.804,0.64,1.648,0.984,2.424
	c0.34,0.82,0.656,1.68,1,2.48c0.332,0.8,0.64,1.644,0.984,2.428c0.336,0.804,0.648,1.656,0.992,2.452
	c0.336,0.812,0.648,1.664,0.992,2.452c0.34,0.816,0.656,1.68,1,2.48c0.332,0.8,0.64,1.644,0.984,2.424
	c0.336,0.812,0.648,1.664,0.992,2.456c0.336,0.808,0.648,1.66,0.992,2.452c0.116,0.284,0.224,0.584,0.344,0.868l-0.284,0.216l0,0
	l-26.94,20.212c-3.444,2.584-4.852,7.084-3.496,11.156c0.212,0.632,0.504,1.236,0.828,1.788c0.056,0.228,0.088,0.448,0.164,0.672
	c0.212,0.632,0.504,1.224,0.828,1.784c0.056,0.224,0.088,0.444,0.164,0.668c0.212,0.636,0.504,1.228,0.832,1.788
	c0.056,0.224,0.088,0.436,0.164,0.66c0.212,0.628,0.504,1.232,0.828,1.784c0.056,0.232,0.088,0.448,0.164,0.672
	c0.212,0.632,0.504,1.224,0.828,1.788c0.056,0.22,0.088,0.444,0.164,0.664c0.212,0.636,0.504,1.228,0.832,1.796
	c0.056,0.22,0.088,0.436,0.164,0.66c0.212,0.636,0.504,1.224,0.828,1.784c0.056,0.228,0.092,0.444,0.164,0.668
	c0.212,0.636,0.504,1.232,0.832,1.792c0.056,0.22,0.088,0.436,0.164,0.656c0.212,0.632,0.504,1.236,0.828,1.788
	c0.056,0.228,0.092,0.448,0.164,0.668c0.212,0.636,0.504,1.224,0.828,1.788c0.056,0.224,0.092,0.44,0.164,0.668
	c0.212,0.624,0.504,1.228,0.828,1.78c0.056,0.232,0.092,0.452,0.164,0.672c0.212,0.632,0.504,1.232,0.832,1.788
	c0.056,0.22,0.088,0.44,0.164,0.664c0.212,0.632,0.504,1.22,0.828,1.784c0.056,0.224,0.092,0.448,0.164,0.668
	c0.212,0.632,0.504,1.228,0.828,1.788c0.056,0.224,0.092,0.444,0.164,0.668c0.212,0.636,0.504,1.224,0.828,1.784
	c0.056,0.228,0.092,0.444,0.164,0.664c0.212,0.64,0.504,1.236,0.832,1.796c0.056,0.22,0.088,0.436,0.164,0.656
	c0.212,0.632,0.504,1.236,0.828,1.788c0.056,0.228,0.092,0.444,0.164,0.668c0.212,0.636,0.504,1.224,0.828,1.784
	c0.056,0.228,0.092,0.444,0.164,0.672c0.212,0.624,0.504,1.228,0.828,1.78c0.056,0.232,0.092,0.448,0.164,0.672
	c0.212,0.632,0.504,1.236,0.832,1.792c0.056,0.224,0.088,0.44,0.164,0.656c0.212,0.636,0.504,1.224,0.828,1.788
	c0.056,0.224,0.088,0.448,0.164,0.668c0.212,0.632,0.504,1.228,0.828,1.788c0.056,0.224,0.088,0.444,0.164,0.664
	c0.212,0.632,0.504,1.228,0.828,1.788c0.056,0.228,0.088,0.444,0.164,0.664c0.212,0.632,0.504,1.236,0.828,1.788
	c0.056,0.228,0.088,0.448,0.164,0.668c0.212,0.636,0.504,1.232,0.832,1.792c0.056,0.22,0.088,0.436,0.164,0.66
	c0.212,0.636,0.504,1.224,0.828,1.784c0.056,0.228,0.088,0.444,0.164,0.664c0.212,0.632,0.504,1.236,0.828,1.788
	c0.056,0.228,0.088,0.448,0.164,0.668c0.212,0.636,0.504,1.232,0.828,1.788c0.056,0.224,0.088,0.448,0.164,0.668
	c0.212,0.636,0.504,1.228,0.832,1.788c0.056,0.224,0.088,0.436,0.164,0.664c0.212,0.632,0.504,1.228,0.828,1.788
	c0.056,0.224,0.088,0.44,0.164,0.664c0.212,0.632,0.504,1.228,0.828,1.784c0.056,0.232,0.088,0.448,0.164,0.668
	c0.212,0.632,0.504,1.236,0.828,1.788c0.056,0.224,0.088,0.444,0.164,0.668c0.216,0.636,0.504,1.232,0.832,1.792
	c0.056,0.224,0.088,0.436,0.164,0.656c0.212,0.632,0.504,1.228,0.828,1.784c0.056,0.232,0.092,0.448,0.164,0.668
	c0.212,0.632,0.504,1.236,0.828,1.788c0.056,0.228,0.092,0.444,0.164,0.668c0.212,0.636,0.504,1.224,0.828,1.784
	c0.056,0.228,0.092,0.452,0.164,0.672c0.212,0.632,0.504,1.228,0.828,1.788c0.056,0.224,0.092,0.44,0.164,0.664
	c0.212,0.64,0.504,1.232,0.832,1.788c0.056,0.228,0.088,0.44,0.164,0.66c0.212,0.636,0.504,1.232,0.828,1.788
	c0.056,0.228,0.092,0.448,0.164,0.668c0.212,0.632,0.504,1.236,0.828,1.788c0.056,0.224,0.092,0.444,0.164,0.664
	c0.2,0.592,0.476,1.148,0.776,1.68c12.816,1.976,25.94,3.008,39.304,3.008C314.028,512,367.528,492.664,410.464,460.124z"/>
<path style="fill:#FFD464;" d="M175.72,185.972c-0.88,0-1.784-0.116-2.684-0.372c0,0-46.8-15.376-46.8-19.392
	c0-8.46,54.444-38.856,54.444-38.856c4.76-2.792,10.884-1.184,13.668,3.588c2.788,4.76,1.18,10.888-3.592,13.668l-12.352,21.736
	c5.324,1.48,8.424,6.988,6.94,12.308C184.112,183.084,180.092,185.972,175.72,185.972z"/>
<path style="fill:#E6BF5A;" d="M180.68,127.36c0,0-5.892,3.288-13.784,7.996c-1.356,16.56-2.268,32.252-2.784,47.232
	c5.268,1.812,8.924,3.02,8.924,3.02c0.9,0.252,1.804,0.372,2.684,0.372c4.376,0,8.396-2.892,9.624-7.312
	c1.484-5.32-1.616-10.828-6.94-12.308l12.352-21.736c4.772-2.78,6.384-8.908,3.592-13.668
	C191.564,126.176,185.44,124.568,180.68,127.36z"/>
<path style="fill:#FFD464;" d="M295.684,415.908H185.716c-4.304,0-8.12-2.752-9.488-6.836c-1.356-4.084,0.052-8.576,3.496-11.156
	l39.988-29.992l11.988,15.992l63.984,12L295.684,415.908L295.684,415.908z"/>
<path style="fill:#E6BF5A;" d="M219.712,367.916l-13.048,9.784c7.828,8.904,16.72,16.184,26.74,21.856
	C256.336,412.544,278.42,415.392,290,415.9h5.684v-19.992l-63.984-12L219.712,367.916z"/>
<path style="fill:#F5F5F5;" d="M302.28,416c-9.584,0-34.68-1.6-60.88-16.436c-50.392-28.556-72.832-97.104-69.46-212.504
	c0.232-7.876,48.972-17.056,79.228,28.444c56,54.5,76.496,200.408,76.496,200.408h-21.788C305.72,415.92,304.364,416,302.28,416z"/>
<path style="fill:#242424;" d="M380.252,396.92c-11.952-8.32-31.164-22.164-36.908-27.492c-3.108-6.416-10.496-38.32-17.028-66.568
	c-0.216-0.916-0.424-1.792-0.644-2.736c0.012,0.012,0.012,0.012,0.012,0.012c-1.844-7.936-3.66-15.728-5.476-23.416
	c-0.26-1.116-0.528-2.252-0.792-3.372c-18.852-79.724-36.516-144.372-55.912-162.988c-9.528-9.136-23.104-14.38-37.9-14.38
	c-0.008,0-0.02,0-0.02,0c-26.932,0.312-46.58,22.472-47.408,23.416c-1.376,1.588-2.228,3.576-2.42,5.664
	c-2.02,22.084-3.244,42.616-3.816,61.976c3.768-0.66,8.288-1.084,13.772-1.084c12.88,0,29.992,4.14,29.992,39.988
	c0,0.548,0.04,1.088,0.136,1.64c4.92,29.54,23.56,126.752,56.684,137.804c1.04,0.336,2.092,0.508,3.16,0.508
	c1.872,0,3.716-0.528,5.332-1.544c2.54-1.596,4.22-4.24,4.584-7.216c4.24-33.944,4.96-55.548,4.344-70.808
	c5.86,37.624,11.508,103.848,37.716,129.552h47.996c0.04,0,0.072,0,0.092,0c5.5,0.084,10.088-4.436,10.088-9.992
	C385.852,401.96,383.572,398.544,380.252,396.92z"/>
<g>
	<path style="fill:#1A1A1A;" d="M290,287.656c0.608,15.256-12.156,35.564-16.392,69.504c-0.352,2.82-1.912,5.3-4.22,6.916
		c1.032,0.532,2.076,0.968,3.132,1.328c1.04,0.328,2.092,0.508,3.16,0.508c1.872,0,3.716-0.532,5.332-1.548
		c2.548-1.592,4.228-4.24,4.584-7.216C286.132,352.96,294.672,319.12,290,287.656z"/>
	<path style="fill:#1A1A1A;" d="M380.252,396.92c-11.952-8.32-31.164-22.164-36.908-27.492c-3.108-6.416-10.496-38.32-17.028-66.568
		c-0.216-0.916-0.424-1.792-0.644-2.736c0.012,0.012,0.012,0.012,0.012,0.012c-1.844-7.936-3.66-15.728-5.476-23.416
		c-0.26-1.116-0.528-2.252-0.792-3.372c-18.852-79.724-36.516-144.372-55.912-162.988c-9.528-9.136-23.104-14.38-37.9-14.38
		c-0.008,0-0.02,0-0.02,0c-1.86,0.024-3.672,0.168-5.46,0.384c12.224,1.304,23.272,6.228,31.376,13.996
		c19.392,18.616,37.064,83.264,55.916,162.988c0.26,1.112,0.524,2.252,0.788,3.372c1.816,7.696,3.632,15.472,5.476,23.416
		c0,0,0,0-0.012-0.012c0.216,0.932,0.424,1.816,0.644,2.736c6.532,28.248,13.916,60.148,17.028,66.568
		c5.748,5.328,24.94,19.172,36.904,27.492c3.32,1.612,5.604,5.04,5.604,8.976c0,5.564-4.596,10.084-10.088,10h11.908
		c0.04,0,0.072,0,0.092,0c5.492,0.084,10.088-4.436,10.088-10C385.852,401.96,383.572,398.544,380.252,396.92z"/>
</g>
<path style="fill:#F5F5F5;" d="M205.712,158.052c-3.236,0-6.24-1.2-8.52-3.496c-2.284-2.188-3.48-5.32-3.48-8.584
	c0-3.14,1.196-6.268,3.48-8.584c4.436-4.464,12.6-4.464,17.04,0.124c2.168,2.192,3.48,5.32,3.48,8.46
	c0,3.26-1.312,6.276-3.596,8.584C211.94,156.852,208.828,158.052,205.712,158.052z"/>
<path style="fill:#242424;" d="M205.712,154.052c-2.156,0-4.16-0.8-5.68-2.332c-1.524-1.452-2.32-3.548-2.32-5.724
	c0-2.092,0.796-4.18,2.32-5.724c2.96-2.976,8.4-2.976,11.36,0.084c1.444,1.46,2.32,3.548,2.32,5.64c0,2.176-0.876,4.188-2.4,5.724
	C209.864,153.252,207.788,154.052,205.712,154.052z"/>
<g>
</g>
<g>
</g>
<g>
</g>
<g>
</g>
<g>
</g>
<g>
</g>
<g>
</g>
<g>
</g>
<g>
</g>
<g>
</g>
<g>
</g>
<g>
</g>
<g>
</g>
<g>
</g>
<g>
</g>
</svg>
