<?xml version="1.0" encoding="iso-8859-1"?>
<!-- Generator: Adobe Illustrator 19.0.0, SVG Export Plug-In . SVG Version: 6.00 Build 0)  -->
<svg version="1.1" id="Layer_1" xmlns="http://www.w3.org/2000/svg" xmlns:xlink="http://www.w3.org/1999/xlink" x="0px" y="0px"
	 viewBox="0 0 512 512" style="enable-background:new 0 0 512 512;" xml:space="preserve">
<circle style="fill:#4AB8A1;" cx="256" cy="256" r="256"/>
<path style="fill:#43A691;" d="M490.384,364.108c-0.072,0.02-0.14,0.032-0.212,0.04c-0.028-0.876-0.056-1.736-0.084-2.592
	c-0.304,0.032-0.596,0.104-0.912,0.14c-0.028-0.868-0.052-1.728-0.084-2.592c-0.312,0.032-0.604,0.1-0.916,0.14
	c-0.028-0.872-0.052-1.736-0.084-2.592c-0.304,0.028-0.604,0.1-0.916,0.14c-0.028-0.876-0.052-1.736-0.084-2.596
	c-0.3,0.028-0.6,0.104-0.916,0.14c-0.028-0.868-0.052-1.732-0.084-2.588c-0.3,0.024-0.6,0.1-0.916,0.14
	c-0.028-0.872-0.052-1.736-0.084-2.592c-0.296,0.028-0.596,0.1-0.912,0.132c-0.028-0.868-0.052-1.728-0.084-2.588
	c-0.304,0.028-0.604,0.096-0.916,0.14c-0.028-0.872-0.052-1.74-0.084-2.596c-0.3,0.032-0.6,0.104-0.916,0.14
	c-0.028-0.868-0.052-1.728-0.084-2.584c-0.3,0.028-0.6,0.096-0.916,0.132c-0.028-0.868-0.052-1.728-0.084-2.588
	c-0.3,0.028-0.6,0.096-0.912,0.136c-0.032-0.868-0.056-1.736-0.084-2.592c-0.304,0.028-0.604,0.104-0.916,0.14
	c-0.028-0.868-0.052-1.728-0.084-2.592c-0.304,0.024-0.604,0.1-0.916,0.136c-0.032-0.868-0.056-1.732-0.084-2.596
	c-0.3,0.036-0.6,0.104-0.916,0.14c-0.028-0.868-0.052-1.728-0.084-2.584c-0.3,0.028-0.6,0.1-0.912,0.14
	c-0.032-0.876-0.056-1.736-0.084-2.596c-0.304,0.028-0.6,0.104-0.916,0.14c-0.024-0.868-0.052-1.732-0.084-2.596
	c-0.304,0.032-0.604,0.104-0.916,0.14c-0.032-0.868-0.056-1.728-0.084-2.588c-0.3,0.028-0.596,0.096-0.916,0.136
	c-0.024-0.868-0.052-1.732-0.084-2.588c-0.3,0.028-0.6,0.104-0.912,0.14c-0.032-0.872-0.056-1.732-0.084-2.596
	c-0.304,0.032-0.6,0.104-0.916,0.14c-0.024-0.868-0.048-1.728-0.084-2.592c-0.3,0.032-0.604,0.1-0.916,0.14
	c-0.032-0.872-0.056-1.736-0.084-2.592c-0.304,0.028-0.6,0.1-0.916,0.14c-0.024-0.876-0.048-1.736-0.084-2.592
	c-0.3,0.032-0.604,0.104-0.912,0.14c-0.036-0.868-0.06-1.728-0.084-2.592c-0.304,0.032-0.6,0.1-0.916,0.136
	c-0.028-0.868-0.052-1.732-0.084-2.588c-0.3,0.028-0.604,0.1-0.916,0.14c-0.032-0.876-0.056-1.736-0.084-2.596
	c-0.304,0.028-0.6,0.104-0.912,0.14c-0.032-0.872-0.056-1.732-0.084-2.592c-0.304,0.028-0.608,0.104-0.916,0.14
	c-0.036-0.868-0.06-1.732-0.084-2.596c-0.304,0.032-0.6,0.104-0.916,0.14c-0.028-0.868-0.052-1.728-0.084-2.588
	c-0.304,0.028-0.608,0.096-0.916,0.136c-0.028-0.868-0.052-1.736-0.084-2.592c-0.304,0.028-0.608,0.1-0.916,0.14
	c-0.032-0.868-0.056-1.736-0.084-2.592c-0.304,0.024-0.6,0.1-0.912,0.136c-0.032-0.868-0.056-1.728-0.084-2.588
	c-0.304,0.032-0.604,0.1-0.916,0.14c-0.032-0.872-0.06-1.736-0.084-2.592c-0.304,0.028-0.6,0.1-0.916,0.14
	c-0.028-0.868-0.052-1.736-0.084-2.596c-0.304,0.028-0.604,0.104-0.916,0.14c-0.028-0.868-0.056-1.732-0.084-2.596
	c-0.304,0.032-0.596,0.104-0.912,0.14c-0.032-0.868-0.056-1.728-0.084-2.584c-0.304,0.028-0.6,0.1-0.916,0.14
	c-0.032-0.876-0.056-1.736-0.084-2.596c-0.304,0.028-0.6,0.104-0.916,0.14c-0.024-0.872-0.052-1.74-0.084-2.596
	c-0.304,0.032-0.604,0.104-0.916,0.14c-0.024-0.868-0.052-1.728-0.084-2.592c-0.3,0.032-0.596,0.1-0.912,0.14
	c-0.032-0.872-0.056-1.732-0.084-2.588c-0.304,0.028-0.6,0.104-0.916,0.136c-0.032-0.868-0.056-1.736-0.084-2.592
	c-0.3,0.032-0.6,0.104-0.916,0.14c-0.024-0.868-0.052-1.728-0.084-2.592c-0.304,0.024-0.604,0.1-0.916,0.136
	c-0.024-0.868-0.052-1.732-0.084-2.588c-0.304,0.028-0.604,0.096-0.912,0.132c-0.032-0.868-0.06-1.728-0.084-2.588
	c-0.304,0.028-0.6,0.096-0.916,0.14c-0.032-0.868-0.056-1.732-0.084-2.592c-0.304,0.028-0.6,0.104-0.916,0.14
	c-0.032-0.868-0.056-1.732-0.084-2.592c-0.304,0.028-0.604,0.1-0.916,0.136c-0.024-0.868-0.052-1.728-0.084-2.592
	c-0.304,0.028-0.604,0.1-0.912,0.14c-0.032-0.872-0.06-1.736-0.084-2.596c-0.304,0.028-0.6,0.104-0.916,0.14
	c-0.032-0.868-0.056-1.728-0.084-2.592c-0.304,0.032-0.6,0.104-0.916,0.14c-0.032-0.868-0.056-1.728-0.084-2.592
	c-0.3,0.028-0.596,0.1-0.916,0.14c-0.024-0.872-0.048-1.736-0.084-2.596c-0.3,0.028-0.604,0.104-0.912,0.14
	c-0.032-0.872-0.056-1.732-0.084-2.596c-0.304,0.028-0.6,0.104-0.916,0.14c-0.024-0.868-0.056-1.728-0.084-2.592
	c-0.304,0.032-0.6,0.104-0.916,0.14c-0.032-0.868-0.056-1.732-0.084-2.592c-0.308,0.028-0.596,0.1-0.916,0.14
	c-0.032-0.872-0.056-1.732-0.084-2.596c-0.3,0.028-0.596,0.104-0.916,0.14c-0.024-0.868-0.048-1.732-0.084-2.596
	c-0.3,0.028-0.604,0.104-0.912,0.14c-0.032-0.868-0.056-1.728-0.084-2.592c-0.304,0.028-0.6,0.1-0.916,0.136
	c-0.024-0.868-0.048-1.728-0.084-2.588c-0.296,0.028-0.6,0.1-0.916,0.14c-0.032-0.868-0.056-1.736-0.084-2.596
	c-0.3,0.028-0.596,0.104-0.916,0.14c-0.024-0.868-0.048-1.728-0.084-2.596c-0.3,0.032-0.604,0.104-0.912,0.14
	c-0.032-0.868-0.056-1.732-0.084-2.592c-0.304,0.028-0.6,0.1-0.916,0.14c-0.024-0.872-0.048-1.732-0.084-2.592
	c-0.296,0.028-0.6,0.104-0.916,0.14c-0.032-0.868-0.056-1.728-0.084-2.596c-0.3,0.028-0.596,0.104-0.916,0.14
	c-0.024-0.868-0.048-1.732-0.084-2.596c-0.3,0.032-0.604,0.104-0.912,0.14c-0.032-0.868-0.056-1.728-0.084-2.592
	c-0.304,0.028-0.6,0.1-0.912,0.14c-0.028-0.872-0.052-1.732-0.084-2.592c-0.304,0.028-0.608,0.104-0.916,0.14
	c-0.036-0.868-0.06-1.732-0.084-2.596c-0.304,0.028-0.6,0.104-0.916,0.14c-0.032-0.868-0.056-1.728-0.084-2.592
	c-0.304,0.028-0.608,0.1-0.916,0.136c-0.032-0.868-0.056-1.732-0.084-2.592c-0.304,0.028-0.6,0.1-0.912,0.14
	c-0.028-0.868-0.052-1.732-0.084-2.596c-0.304,0.028-0.608,0.104-0.916,0.14c-0.036-0.868-0.06-1.728-0.084-2.588
	c-0.304,0.028-0.6,0.1-0.916,0.136c-0.032-0.868-0.056-1.732-0.084-2.588c-0.304,0.028-0.6,0.1-0.916,0.14
	c-0.032-0.872-0.056-1.732-0.084-2.596c-0.304,0.028-0.6,0.104-0.912,0.14c-0.028-0.868-0.052-1.736-0.084-2.596
	c-0.304,0.028-0.608,0.104-0.916,0.14c-0.028-0.868-0.06-1.728-0.084-2.588c-0.304,0.028-0.6,0.1-0.916,0.14
	c-0.032-0.872-0.056-1.732-0.084-2.596c-0.304,0.028-0.6,0.104-0.916,0.14c-0.032-0.872-0.056-1.736-0.084-2.596
	c-0.304,0.028-0.596,0.104-0.912,0.14c-0.028-0.868-0.052-1.728-0.084-2.596c-0.304,0.028-0.604,0.104-0.916,0.14
	c-0.028-0.868-0.052-1.728-0.084-2.588c-0.304,0.028-0.604,0.1-0.916,0.14c-0.028-0.872-0.052-1.736-0.084-2.596
	c-0.304,0.028-0.6,0.104-0.916,0.14c-0.028-0.868-0.056-1.732-0.084-2.596c-0.304,0.028-0.6,0.104-0.916,0.14
	c-0.028-0.868-0.056-1.732-0.084-2.592c-0.296,0.028-0.596,0.1-0.912,0.136c-0.028-0.868-0.052-1.728-0.084-2.592
	c-0.304,0.028-0.604,0.1-0.916,0.14c-0.028-0.872-0.052-1.732-0.084-2.592c-0.304,0.028-0.6,0.104-0.916,0.14
	c-0.028-0.868-0.056-1.732-0.084-2.596c-0.304,0.032-0.6,0.104-0.916,0.14c-0.028-0.868-0.056-1.728-0.084-2.592
	c-0.296,0.028-0.596,0.1-0.912,0.14c-0.028-0.872-0.052-1.736-0.084-2.596c-0.304,0.028-0.604,0.104-0.916,0.14
	c-0.028-0.872-0.052-1.732-0.084-2.592c-0.304,0.028-0.604,0.104-0.916,0.14c-0.032-0.868-0.056-1.728-0.084-2.596
	c-0.304,0.032-0.6,0.104-0.916,0.14c-0.028-0.868-0.056-1.732-0.084-2.588c-0.304,0.028-0.6,0.1-0.912,0.14
	c-0.032-0.872-0.06-1.732-0.084-2.596c-0.304,0.028-0.604,0.104-0.916,0.14c-0.028-0.868-0.052-1.732-0.084-2.592
	c-0.304,0.028-0.604,0.104-0.916,0.14c-0.032-0.868-0.056-1.732-0.084-2.592c-0.3,0.028-0.596,0.1-0.916,0.136
	c-0.028-0.868-0.052-1.728-0.084-2.592c-0.3,0.028-0.6,0.1-0.912,0.14c-0.032-0.868-0.056-1.736-0.084-2.596
	c-0.304,0.028-0.6,0.104-0.916,0.14c-0.024-0.868-0.052-1.728-0.084-2.596c-0.304,0.032-0.604,0.104-0.916,0.14
	c-0.032-0.868-0.056-1.728-0.084-2.588c-0.3,0.028-0.596,0.1-0.916,0.14c-0.024-0.872-0.052-1.736-0.084-2.596
	c-0.3,0.028-0.6,0.104-0.912,0.14c-0.032-0.868-0.056-1.728-0.084-2.596c-0.304,0.028-0.6,0.104-0.916,0.14
	c-0.024-0.868-0.052-1.732-0.084-2.596c-0.304,0.032-0.604,0.104-0.916,0.14c-0.032-0.868-0.056-1.728-0.084-2.588
	c-0.3,0.028-0.596,0.104-0.916,0.14c-0.024-0.872-0.048-1.732-0.084-2.596c-0.296,0.028-0.6,0.104-0.912,0.14
	c-0.032-0.868-0.056-1.732-0.084-2.596c-0.304,0.028-0.6,0.104-0.916,0.14c-0.024-0.868-0.048-1.728-0.084-2.592
	c-0.308,0.028-0.604,0.1-0.916,0.136c-0.024-0.864-0.048-1.728-0.084-2.588c-0.3,0.028-0.604,0.104-0.916,0.14
	c-0.032-0.868-0.056-1.732-0.084-2.596c-0.3,0.028-0.596,0.104-0.916,0.14c-0.024-0.868-0.048-1.728-0.084-2.592
	c-0.296,0.028-0.6,0.1-0.912,0.136c-0.032-0.868-0.056-1.732-0.084-2.592c-0.304,0.028-0.6,0.1-0.916,0.14
	c-0.024-0.872-0.048-1.732-0.084-2.592c-0.3,0.028-0.604,0.104-0.916,0.14c-0.032-0.868-0.056-1.728-0.084-2.596
	c-0.304,0.032-0.6,0.104-0.912,0.14c-0.032-0.868-0.056-1.732-0.084-2.592c-0.304,0.028-0.608,0.1-0.916,0.14
	c-0.036-0.872-0.06-1.732-0.084-2.596c-0.304,0.028-0.6,0.104-0.916,0.14c-0.028-0.872-0.052-1.736-0.084-2.596
	c-0.304,0.028-0.608,0.104-0.916,0.14c-0.032-0.868-0.056-1.728-0.084-2.592c-0.304,0.032-0.6,0.104-0.912,0.14
	c-0.032-0.868-0.056-1.728-0.084-2.592c-0.304,0.028-0.604,0.1-0.916,0.14c-0.036-0.872-0.06-1.736-0.084-2.596
	c-1.812,0.156-3.604,0.46-5.4,0.832c-0.404,0.084-0.796,0.168-1.196,0.256c-1.788,0.416-3.568,0.904-5.312,1.508
	c-0.008,0-0.016,0-0.016,0c-27.78,9.568-51.856,41.52-62.252,57.076c-13.084-10.748-27.584-17.372-43.492-17.372
	s-30.416,6.624-43.484,17.372c-11.868-17.748-41.524-56.844-74.176-59.672c-2.668,70.644,8.516,132.292,13.108,154.164
	c-15.86,38.328-24.372,72.524-25.164,75.764c-5.316,21.82-4.032,42.368,3.484,59.532c0.324,0.82,0.64,1.648,0.992,2.452
	c0.328,0.828,0.644,1.664,1,2.476c0.324,0.812,0.632,1.632,0.984,2.428c0.328,0.832,0.648,1.668,1.004,2.484
	c0.324,0.812,0.632,1.632,0.984,2.42c0.324,0.824,0.64,1.652,0.992,2.46c0.328,0.828,0.644,1.664,1,2.476
	c0.324,0.812,0.632,1.632,0.984,2.428c0.324,0.82,0.64,1.648,0.992,2.452c0.324,0.82,0.64,1.648,0.992,2.452
	c0.328,0.832,0.644,1.664,1,2.48c0.324,0.808,0.632,1.628,0.984,2.432c0.324,0.82,0.64,1.648,0.992,2.444
	c0.324,0.824,0.64,1.652,0.992,2.46c0.328,0.828,0.644,1.664,1,2.476c0.324,0.812,0.632,1.632,0.984,2.424
	c0.328,0.832,0.648,1.668,1.004,2.48c0.324,0.812,0.632,1.632,0.984,2.428c0.328,0.828,0.644,1.664,1,2.476
	c0.324,0.812,0.632,1.632,0.984,2.432c0.324,0.82,0.64,1.648,0.992,2.448c0.324,0.824,0.64,1.652,0.992,2.46
	c0.324,0.82,0.64,1.648,0.992,2.452c0.328,0.828,0.644,1.664,1,2.476c0.324,0.812,0.632,1.632,0.984,2.428
	c0.324,0.82,0.64,1.648,0.992,2.452c0.324,0.82,0.64,1.648,0.992,2.456c0.328,0.828,0.644,1.664,1,2.476
	c0.324,0.812,0.632,1.632,0.984,2.424c0.328,0.828,0.648,1.664,1.004,2.484c0.324,0.812,0.632,1.632,0.984,2.424
	c0.328,0.832,0.644,1.664,1,2.48c0.324,0.812,0.632,1.632,0.984,2.428c0.324,0.82,0.64,1.648,0.992,2.452
	c0.324,0.82,0.64,1.648,0.992,2.456c0.324,0.82,0.64,1.648,0.992,2.452c0.328,0.832,0.644,1.664,1,2.472
	c0.324,0.812,0.632,1.632,0.984,2.432c0.324,0.82,0.64,1.648,0.992,2.452c0.324,0.824,0.64,1.652,0.992,2.456
	c0.328,0.828,0.644,1.664,1,2.476c0.328,0.82,0.64,1.648,0.996,2.452c0.324,0.812,0.632,1.632,0.984,2.432
	c0.324,0.82,0.64,1.648,0.992,2.448c0.328,0.836,0.644,1.664,1,2.476c0.324,0.812,0.632,1.632,0.984,2.432
	c0.324,0.82,0.64,1.648,0.992,2.452c0.324,0.824,0.64,1.652,0.992,2.456c0.324,0.82,0.64,1.648,0.992,2.448
	c0.328,0.832,0.644,1.664,1,2.48c0.324,0.812,0.632,1.632,0.984,2.428c0.324,0.82,0.64,1.648,0.992,2.452
	c0.004,0.016,0.012,0.032,0.016,0.04c23.612,7.192,48.66,11.084,74.62,11.084C361.2,509.852,449.18,450.3,490.384,364.108z"/>
<path style="fill:#CC803D;" d="M218,152.032c0,0-37.332-64.664-79.664-68.332c-3.336,88.332,15,162.668,15,162.668L218,152.032z"/>
<path style="fill:#BF7839;" d="M138.336,83.7c-0.032,0.872-0.052,1.736-0.08,2.6C175.432,99.088,206,152.032,206,152.032
	l-55.54,81.024c1.7,8.54,2.876,13.312,2.876,13.312L218,152.032C218,152.032,180.668,87.368,138.336,83.7z"/>
<path style="fill:#B37035;" d="M165.892,213.584c-3.884-24.98-7.944-60.532-7.96-100.06c18.084,10.4,35.364,32.016,44.916,46.144
	L165.892,213.584z"/>
<path style="fill:#CC803D;" d="M294,152.032c0,0,37.336-64.664,79.664-68.332c3.344,88.332-15,162.668-15,162.668L294,152.032z"/>
<path style="fill:#BF7839;" d="M373.664,83.7c-4.028,0.348-8.012,1.256-11.92,2.6c2.156,64.908-7.252,121.876-12.204,146.752
	l9.124,13.308C358.664,246.368,377.008,172.032,373.664,83.7z"/>
<path style="fill:#B37035;" d="M346.108,213.584c3.884-24.98,7.944-60.532,7.96-100.06c-18.084,10.4-35.376,32.016-44.916,46.144
	L346.108,213.584z"/>
<path style="fill:#CC803D;" d="M316,416c-23.464,0-47.084-3.012-60-18.148C243.084,412.988,219.464,416,196,416
	c-22.588,0-43.312-9.892-56.848-27.108c-15.36-19.552-19.928-46.272-12.872-75.252c1.868-7.664,46.7-187.636,129.72-187.636
	S383.852,305.976,385.72,313.64c7.064,28.968,2.488,55.704-12.872,75.252C359.312,406.108,338.584,416,316,416z"/>
<g>
	<path style="fill:#BF7839;" d="M256,314.816h27.092c0-22.116-18.108-121.28,16.396-171.444C286.416,132.628,271.908,126,256,126
		s-30.416,6.628-43.488,17.372c34.504,50.164,16.396,149.328,16.396,171.444L256,314.816L256,314.816z"/>
	<path style="fill:#BF7839;" d="M385.72,313.636C383.852,305.972,339.02,126,256,126c-2.024,0-4.02,0.136-6,0.348
		c79.176,8.36,121.9,179.812,123.72,187.288c7.064,28.972,2.488,55.704-12.872,75.252c-12.66,16.108-31.604,25.792-52.488,26.976
		c2.54,0.084,5.084,0.128,7.64,0.128c22.584,0,43.312-9.888,56.848-27.104C388.208,369.34,392.772,342.608,385.72,313.636z"/>
</g>
<path style="fill:#F5F5F5;" d="M256,310.2c-50.256,0-91,46.5-91,94c0,1.752,0.156,3.46,0.264,5.192
	C174.684,413.688,185.12,416,196,416c23.464,0,47.084-3.012,60-18.148C268.916,412.988,292.536,416,316,416
	c10.884,0,21.316-2.312,30.736-6.608c0.112-1.732,0.264-3.436,0.264-5.192C347,356.7,306.256,310.2,256,310.2z"/>
<path style="fill:#CCCCCC;" d="M324.124,415.564c2.6-0.272,5.164-0.696,7.684-1.24c0.052-0.016,0.096-0.024,0.152-0.036
	c2.552-0.556,5.056-1.244,7.508-2.056c0.012,0,0.02-0.008,0.032-0.008c2.46-0.82,4.868-1.764,7.212-2.836
	c0.008,0,0.016-0.008,0.024-0.008c0.112-1.732,0.264-3.436,0.264-5.192c0-0.68-0.04-1.36-0.056-2.036
	c-11.064,8.064-24.344,12.9-38.584,13.708c2.54,0.084,5.084,0.128,7.64,0.128c2.668,0,5.304-0.148,7.916-0.416
	C323.984,415.58,324.056,415.572,324.124,415.564z"/>
<path style="fill:#242424;" d="M261.684,335.984c7.916-8.04,11.916-11.884,19.688-18.112c3.076-2.456,2.036-5.276-2.324-6.228
	c-18.22-3.944-27.876-3.944-46.092,0c-4.352,0.94-5.392,3.752-2.32,6.22c7.772,6.248,11.772,10.084,19.688,18.112
	c0.504,0.512,1.084,0.916,1.676,1.256c0,4.796-0.008,7.188-0.008,11.992c-10.252,2.136-17.992,11.932-17.98,22.904
	c0.004,2.252,1.78,4.072,3.996,4.072s4.004-1.86,4-4.156c-0.008-8.024,6.268-14.816,14.008-14.816
	c7.744,0,14.004,6.792,13.992,14.816c-0.004,2.296,1.784,4.156,4,4.156c2.22,0,3.996-1.82,4-4.072
	c0.012-10.96-7.744-20.752-17.988-22.904c0.004-4.804,0.004-7.196,0.008-11.992C260.608,336.892,261.18,336.496,261.684,335.984z"/>
<circle style="fill:#EDEDED;" cx="296" cy="247.7" r="20"/>
<circle style="fill:#242424;" cx="296" cy="247.7" r="8"/>
<circle style="fill:#EDEDED;" cx="216" cy="247.7" r="20"/>
<circle style="fill:#242424;" cx="216" cy="247.7" r="8"/>
<g>
</g>
<g>
</g>
<g>
</g>
<g>
</g>
<g>
</g>
<g>
</g>
<g>
</g>
<g>
</g>
<g>
</g>
<g>
</g>
<g>
</g>
<g>
</g>
<g>
</g>
<g>
</g>
<g>
</g>
</svg>
