<?xml version="1.0" encoding="iso-8859-1"?>
<!-- Generator: Adobe Illustrator 19.0.0, SVG Export Plug-In . SVG Version: 6.00 Build 0)  -->
<svg version="1.1" id="Layer_1" xmlns="http://www.w3.org/2000/svg" xmlns:xlink="http://www.w3.org/1999/xlink" x="0px" y="0px"
	 viewBox="0 0 512 512" style="enable-background:new 0 0 512 512;" xml:space="preserve">
<circle style="fill:#2D4452;" cx="256" cy="256" r="256"/>
<path style="fill:#233540;" d="M475.464,387.824c-0.044-0.084-0.076-0.188-0.112-0.272c-0.016-0.064-0.02-0.116-0.04-0.18
	c-0.252-0.82-0.584-1.572-0.952-2.28c-0.016-0.06-0.02-0.104-0.04-0.172c-0.252-0.82-0.584-1.572-0.952-2.268
	c-0.016-0.068-0.02-0.12-0.04-0.18c-0.252-0.824-0.584-1.584-0.956-2.288c-0.02-0.06-0.02-0.104-0.04-0.168
	c-0.252-0.82-0.584-1.58-0.948-2.272c-0.02-0.064-0.024-0.116-0.044-0.18c-0.252-0.82-0.584-1.576-0.948-2.272
	c-0.02-0.072-0.024-0.116-0.044-0.188c-0.252-0.812-0.584-1.572-0.948-2.272c-0.016-0.064-0.024-0.112-0.044-0.172
	c-0.252-0.82-0.584-1.58-0.948-2.276c-0.016-0.06-0.024-0.12-0.044-0.18c-0.252-0.82-0.584-1.572-0.948-2.276
	c-0.016-0.064-0.024-0.108-0.044-0.18c-0.252-0.82-0.584-1.572-0.948-2.268c-0.016-0.068-0.024-0.12-0.04-0.18
	c-0.252-0.828-0.584-1.58-0.952-2.28c-0.016-0.068-0.024-0.112-0.04-0.172c-0.252-0.82-0.584-1.576-0.952-2.276
	c-0.016-0.064-0.024-0.108-0.04-0.18c-0.252-0.82-0.584-1.572-0.952-2.272c-0.016-0.064-0.024-0.112-0.04-0.18
	c-0.252-0.82-0.584-1.576-0.952-2.272c-0.016-0.072-0.024-0.116-0.04-0.18c-0.252-0.82-0.584-1.58-0.948-2.28
	c-0.02-0.06-0.028-0.108-0.044-0.172c-0.252-0.82-0.584-1.572-0.948-2.272c-0.02-0.064-0.028-0.112-0.044-0.18
	c-0.252-0.82-0.584-1.576-0.948-2.272c-0.016-0.072-0.028-0.116-0.044-0.188c-0.252-0.812-0.584-1.572-0.948-2.268
	c-0.016-0.068-0.02-0.112-0.044-0.18c-0.252-0.82-0.584-1.576-0.948-2.276c-0.016-0.064-0.02-0.116-0.044-0.18
	c-0.252-0.82-0.584-1.572-0.948-2.28c-0.016-0.06-0.02-0.104-0.04-0.172c-0.252-0.812-0.584-1.572-0.952-2.268
	c-0.016-0.068-0.02-0.116-0.04-0.18c-0.252-0.82-0.584-1.576-0.952-2.276c-0.016-0.064-0.02-0.116-0.04-0.18
	c-0.252-0.82-0.584-1.572-0.952-2.272c-0.016-0.064-0.02-0.112-0.04-0.18c-0.252-0.82-0.584-1.576-0.952-2.28
	c-0.016-0.064-0.02-0.108-0.04-0.172c-0.252-0.82-0.584-1.576-0.952-2.272c-0.016-0.072-0.02-0.116-0.04-0.18
	c-0.252-0.82-0.584-1.58-0.948-2.276c-0.02-0.06-0.024-0.112-0.044-0.18c-0.252-0.82-0.584-1.572-0.948-2.276
	c-0.02-0.064-0.024-0.108-0.044-0.18c-0.252-0.82-0.584-1.572-0.948-2.272c-0.016-0.064-0.024-0.112-0.044-0.172
	c-0.252-0.824-0.584-1.584-0.948-2.288c-0.016-0.056-0.024-0.108-0.048-0.168c-0.252-0.82-0.584-1.576-0.944-2.276
	c-0.016-0.064-0.024-0.116-0.048-0.18c-0.252-0.82-0.584-1.572-0.944-2.272c-0.016-0.064-0.024-0.112-0.048-0.18
	c-0.252-0.82-0.584-1.576-0.944-2.272c-0.016-0.072-0.024-0.116-0.04-0.18c-0.252-0.82-0.584-1.58-0.952-2.28
	c-0.016-0.06-0.024-0.108-0.04-0.172c-0.252-0.82-0.584-1.572-0.952-2.272c-0.016-0.064-0.024-0.112-0.04-0.18
	c-0.252-0.82-0.584-1.576-0.952-2.272c-0.016-0.072-0.024-0.116-0.04-0.18c-0.252-0.82-0.584-1.58-0.952-2.276
	c-0.016-0.06-0.024-0.112-0.04-0.18c-0.252-0.82-0.584-1.576-0.952-2.28c-0.016-0.06-0.024-0.112-0.04-0.172
	c-0.252-0.816-0.584-1.572-0.952-2.276c-0.016-0.064-0.024-0.108-0.04-0.18c-0.252-0.82-0.584-1.572-0.952-2.268
	c-0.016-0.068-0.02-0.116-0.04-0.18c-0.252-0.82-0.584-1.576-0.952-2.276c-0.016-0.064-0.02-0.116-0.04-0.18
	c-0.252-0.82-0.584-1.58-0.952-2.28c-0.016-0.06-0.02-0.108-0.04-0.172c-0.252-0.82-0.584-1.572-0.952-2.272
	c-0.016-0.064-0.02-0.112-0.04-0.18c-0.252-0.82-0.584-1.576-0.952-2.272c-0.016-0.064-0.02-0.116-0.04-0.18
	c-0.252-0.82-0.584-1.58-0.952-2.276c-0.016-0.06-0.02-0.112-0.04-0.18c-0.252-0.82-0.584-1.572-0.952-2.276
	c-0.016-0.064-0.02-0.108-0.04-0.18c-0.252-0.82-0.584-1.572-0.952-2.272c-0.016-0.064-0.02-0.112-0.04-0.172
	c-0.252-0.82-0.584-1.58-0.952-2.276c-0.016-0.06-0.02-0.112-0.04-0.18c-0.252-0.82-0.584-1.576-0.952-2.276
	c-0.016-0.064-0.02-0.108-0.04-0.18c-0.252-0.82-0.584-1.572-0.952-2.272c-0.016-0.064-0.02-0.112-0.04-0.18
	c-0.252-0.82-0.584-1.576-0.952-2.276c-0.016-0.068-0.016-0.112-0.04-0.172c-0.252-0.82-0.584-1.576-0.952-2.276
	c-0.016-0.064-0.016-0.116-0.04-0.18c-0.252-0.82-0.584-1.572-0.952-2.272c-0.016-0.064-0.016-0.112-0.04-0.18
	c-0.252-0.82-0.584-1.576-0.952-2.272c-0.016-0.072-0.016-0.116-0.04-0.188c-0.252-0.828-0.584-1.58-0.96-2.28
	c-0.016-0.06-0.016-0.108-0.032-0.164c-0.252-0.82-0.584-1.576-0.952-2.276c-0.016-0.06-0.024-0.116-0.04-0.18
	c-0.252-0.82-0.584-1.572-0.952-2.276c-0.016-0.064-0.024-0.112-0.04-0.18c-0.252-0.82-0.584-1.572-0.952-2.272
	c-0.016-0.064-0.024-0.116-0.04-0.184c-0.252-0.816-0.584-1.572-0.948-2.276c-0.02-0.06-0.028-0.112-0.044-0.172
	c-0.252-0.82-0.584-1.576-0.948-2.276c-0.02-0.064-0.028-0.116-0.044-0.18c-0.252-0.82-0.584-1.572-0.948-2.272
	c-0.016-0.064-0.028-0.116-0.044-0.184c-0.252-0.816-0.584-1.572-0.948-2.272c-0.016-0.068-0.02-0.116-0.044-0.18
	c-0.252-0.82-0.584-1.576-0.948-2.276c-0.016-0.06-0.02-0.116-0.044-0.18c-0.252-0.82-0.584-1.572-0.948-2.28
	c-0.016-0.06-0.02-0.108-0.04-0.172c-0.252-0.82-0.584-1.572-0.952-2.272c-0.016-0.068-0.02-0.116-0.04-0.18
	c-0.252-0.82-0.584-1.576-0.952-2.276c-0.016-0.06-0.02-0.116-0.04-0.18c-3.576-11.528-19.084-11.528-25.708-11.528h-16h-39.344
	c-5.112,0-10.68-2.208-15.94-5.844c-0.036-0.068-0.06-0.124-0.084-0.192c-0.312-0.868-0.664-1.644-0.992-2.452
	c-0.312-0.872-0.664-1.644-0.992-2.456c-0.32-0.876-0.664-1.656-1-2.468c-0.32-0.88-0.664-1.664-1-2.48
	c-0.312-0.856-0.656-1.612-0.984-2.416c-0.308-0.872-0.656-1.644-0.992-2.456c-0.304-0.868-0.656-1.644-0.992-2.456
	c-0.308-0.876-0.652-1.656-0.988-2.464c-0.312-0.868-0.656-1.636-0.988-2.44c-0.312-0.868-0.66-1.644-0.992-2.456
	c-0.312-0.868-0.66-1.644-0.992-2.456c-0.316-0.876-0.66-1.652-0.996-2.464c-0.312-0.868-0.656-1.636-0.988-2.44
	c-0.312-0.868-0.66-1.644-0.992-2.456c-0.312-0.868-0.66-1.644-0.992-2.452c-0.316-0.88-0.66-1.656-0.996-2.468
	c-0.308-0.864-0.656-1.636-0.988-2.44c-0.304-0.868-0.66-1.644-0.992-2.456c-0.304-0.868-0.656-1.64-0.992-2.452
	c-0.304-0.872-0.656-1.644-0.984-2.456c-0.32-0.876-0.664-1.656-1-2.468c-0.312-0.864-0.656-1.636-0.984-2.44
	c-0.312-0.868-0.664-1.64-0.992-2.452c-0.312-0.868-0.664-1.644-0.992-2.456c-0.32-0.876-0.664-1.656-1-2.468
	c-0.312-0.864-0.656-1.636-0.984-2.436c-0.312-0.872-0.664-1.644-0.992-2.456c-0.312-0.868-0.664-1.644-0.992-2.456
	c-0.32-0.888-0.672-1.684-1.016-2.508c-0.304-0.852-0.648-1.604-0.972-2.404c-0.312-0.868-0.66-1.644-0.992-2.456
	c-0.312-0.868-0.66-1.644-0.992-2.456c-0.316-0.876-0.66-1.656-0.996-2.468c-0.312-0.864-0.656-1.632-0.988-2.436
	c-0.312-0.868-0.66-1.644-0.992-2.456c-0.312-0.868-0.66-1.644-0.992-2.456c-0.312-0.868-0.66-1.64-0.992-2.452
	c-0.316-0.88-0.66-1.656-0.996-2.468c-0.312-0.864-0.656-1.636-0.988-2.44c-0.308-0.868-0.66-1.644-0.988-2.456
	c-4.396-12.18-10.764-18.376-19.012-18.376c-0.948,0-1.872,0.124-2.768,0.3c-0.408,0.076-0.804,0.168-1.196,0.272
	c-0.328,0.084-0.656,0.224-0.976,0.34c-1.052,0.368-2.064,0.856-3.032,1.46c-0.008,0.004-0.02,0.008-0.028,0.016
	c-5.38,3.38-9.636,10.38-12.664,21.148l-17.092,63.86c-5.172,18.392-22.812,35.148-37.004,35.148h-55.372
	c-6.044,0-22.108,0-25.732,11.568c-1.196,3.824-0.576,7.364,0.984,10.544c0.256,0.844,0.6,1.66,0.992,2.452
	c0.26,0.844,0.6,1.664,0.996,2.46c0.256,0.84,0.6,1.656,0.992,2.448c0.26,0.848,0.604,1.664,0.996,2.464
	c0.256,0.84,0.6,1.656,0.992,2.444c0.256,0.844,0.6,1.66,0.992,2.456c0.256,0.844,0.6,1.664,0.992,2.46
	c0.256,0.84,0.6,1.656,0.992,2.448c0.256,0.844,0.6,1.66,0.992,2.452c0.256,0.844,0.6,1.656,0.992,2.452
	c0.256,0.844,0.6,1.664,0.992,2.46c0.256,0.84,0.6,1.652,0.992,2.448c0.256,0.844,0.6,1.66,0.992,2.448
	c0.256,0.844,0.6,1.664,0.992,2.46c0.256,0.844,0.6,1.66,0.992,2.456c0.256,0.84,0.6,1.656,0.992,2.448
	c0.256,0.848,0.6,1.664,0.996,2.46c0.256,0.836,0.6,1.656,0.992,2.444c0.26,0.844,0.6,1.66,0.996,2.46
	c0.256,0.84,0.6,1.652,0.992,2.444c0.256,0.844,0.6,1.664,0.992,2.452c0.256,0.844,0.6,1.664,0.992,2.456
	c0.256,0.844,0.6,1.66,0.992,2.456c0.26,0.844,0.6,1.66,0.996,2.46c0.256,0.836,0.6,1.648,0.992,2.44
	c0.256,0.848,0.6,1.66,0.992,2.456c0.256,0.844,0.6,1.66,0.992,2.452c0.26,0.848,0.6,1.664,0.996,2.46
	c0.256,0.844,0.6,1.656,0.992,2.444c0.26,0.852,0.604,1.664,0.996,2.464c0.256,0.84,0.6,1.656,0.992,2.448
	c0.256,0.844,0.6,1.656,0.992,2.46c0.256,0.836,0.6,1.644,0.992,2.44c0.256,0.844,0.6,1.66,0.992,2.456
	c0.256,0.844,0.6,1.656,0.992,2.452c0.256,0.844,0.6,1.664,0.992,2.456c0.256,0.844,0.6,1.66,0.992,2.456
	c0.256,0.84,0.6,1.652,0.992,2.444c0.256,0.844,0.6,1.664,0.992,2.46c0.256,0.844,0.6,1.656,0.992,2.452
	c0.256,0.844,0.6,1.664,0.992,2.456c0.256,0.844,0.604,1.66,0.996,2.456c0.256,0.836,0.6,1.648,0.992,2.444
	c0.256,0.844,0.6,1.66,0.992,2.456c0.26,0.844,0.6,1.66,0.996,2.456c0.256,0.84,0.6,1.648,0.992,2.444
	c0.256,0.844,0.6,1.664,0.992,2.456c0.256,0.844,0.6,1.66,0.992,2.456c0.256,0.844,0.6,1.66,0.992,2.452
	c0.26,0.844,0.6,1.656,0.996,2.46c0.256,0.836,0.6,1.648,0.992,2.444c0.256,0.844,0.6,1.66,0.992,2.456
	c0.256,0.844,0.6,1.66,0.992,2.448c0.26,0.852,0.6,1.664,0.996,2.46c0.26,0.844,0.604,1.66,0.996,2.456
	c0.076,0.248,0.176,0.484,0.264,0.732c-3.364,11.04-3.572,19.376-0.568,25.328c0.284,0.852,0.6,1.68,0.992,2.452
	c0.284,0.86,0.604,1.688,0.996,2.464c0.284,0.852,0.6,1.676,0.988,2.44c0.284,0.86,0.604,1.688,1,2.46
	c0.28,0.852,0.6,1.68,0.988,2.448c0.284,0.856,0.6,1.684,0.992,2.456c0.284,0.86,0.604,1.688,0.996,2.46
	c0.284,0.852,0.6,1.672,0.988,2.44c0.284,0.856,0.6,1.684,0.992,2.456c0.284,0.856,0.6,1.684,0.992,2.452
	c0.284,0.86,0.604,1.688,0.996,2.46c0.284,0.852,0.6,1.68,0.988,2.444c0.284,0.856,0.6,1.684,0.992,2.452
	c0.284,0.86,0.6,1.688,0.992,2.452c0.284,0.868,0.604,1.696,0.996,2.464c0.284,0.856,0.6,1.676,0.988,2.444
	c0.284,0.86,0.604,1.692,1,2.456c0.28,0.86,0.6,1.688,0.988,2.452c0.284,0.86,0.604,1.688,0.996,2.46
	c0.284,0.852,0.6,1.676,0.988,2.444c0.284,0.856,0.6,1.684,0.992,2.452c0.284,0.86,0.6,1.688,0.992,2.452
	c0.284,0.86,0.6,1.688,0.992,2.456c0.284,0.86,0.604,1.688,0.996,2.464c0.284,0.852,0.6,1.676,0.988,2.436
	c0.284,0.86,0.6,1.688,0.992,2.456c0.284,0.856,0.6,1.684,0.992,2.456c0.284,0.86,0.604,1.688,0.996,2.46
	c0.284,0.852,0.6,1.68,0.988,2.44c0.284,0.864,0.604,1.692,1,2.464c0.28,0.852,0.6,1.68,0.988,2.444
	c0.284,0.864,0.604,1.692,0.996,2.46c0.284,0.852,0.6,1.68,0.988,2.444c0.284,0.86,0.6,1.684,0.992,2.456
	c0.284,0.856,0.6,1.684,0.992,2.456c0.284,0.856,0.6,1.68,0.992,2.452c0.284,0.86,0.604,1.688,0.996,2.46
	c0.284,0.852,0.6,1.676,0.988,2.444c0.284,0.856,0.604,1.688,0.996,2.452c0.284,0.852,0.6,1.68,0.992,2.448
	c0.284,0.864,0.604,1.692,1,2.464c0.28,0.852,0.596,1.68,0.988,2.452c0.008,0.024,0.02,0.044,0.028,0.068
	c18.9,4.44,38.572,6.872,58.82,6.872C349.16,512,430.684,462.224,475.464,387.824z"/>
<path style="fill:#FFD464;" d="M343.52,416c-5.984,0-12.544-3.192-20.04-9.776l-45.684-40.18
	c-11.448-10.016-32.796-10.484-44.484-0.9l-44.316,36.312c-13.696,11.244-25.788,11.384-32.084,2.804
	c-4.52-6.156-4.736-15.436-0.664-28.4l14.776-47c5.412-17.152-1.248-39.428-14.516-48.68l-40.9-25.136
	c-6.024-4.16-19.036-13.2-15.396-24.836c3.62-11.568,19.688-11.568,25.732-11.568h55.34c14.192,0,31.832-16.756,37.004-35.148
	l17.076-63.96c4.404-15.664,11.344-23.544,20.664-23.544c9.312,0,16.252,7.88,20.628,23.412l17.116,64.216
	c5.148,18.268,22.78,35.032,36.976,35.032H386.1c6.616,0,22.124,0,25.7,11.528c3.588,11.584-9.468,20.56-15.044,24.388
	l-41.416,26.74c-13.22,9.072-19.992,30.58-14.876,47.756l15.936,52.972c3.852,12.916,3.564,22.084-0.9,28.044
	C352.668,413.896,348.416,416,343.52,416z"/>
<path style="fill:#E6BF5A;" d="M248.028,98.392c2.44-1.532,5.088-2.392,8-2.392c9.312,0,16.252,7.88,20.628,23.412l17.116,64.212
	c5.148,18.272,22.78,35.036,36.976,35.036h-16c-14.196,0-31.828-16.756-36.976-35.036l-17.116-64.212
	C257.648,108.732,253.4,101.76,248.028,98.392z M411.8,230.18c-3.576-11.528-19.084-11.528-25.7-11.528h-16
	c6.616,0,22.124,0,25.7,11.528c3.588,11.58-9.468,20.56-15.044,24.388l-41.416,26.74c-13.22,9.072-19.992,30.576-14.876,47.756
	l15.936,52.968c3.852,12.916,3.564,22.084-0.9,28.044c-1.244,1.664-2.788,2.932-4.5,3.916c2.972,1.324,5.8,2.012,8.504,2.012
	c4.896,0,9.148-2.108,11.996-5.92c4.452-5.96,4.752-15.124,0.9-28.048l-15.928-52.96c-5.116-17.196,1.656-38.7,14.876-47.76
	l41.416-26.74C402.332,250.74,415.4,241.756,411.8,230.18z M217.312,365.144l-44.316,36.312c-3.968,3.252-7.792,5.556-11.388,7
	c6.752,3.804,16.564,1.888,27.388-7l44.316-36.312c3.72-3.056,8.416-5.08,13.452-6.1C236.428,356.98,224.86,358.948,217.312,365.144
	z"/>
<g>
	<path style="fill:#E78244;" d="M273.916,238.644c-2.708,0-5.304-1.1-7.088-3.016c-1.808-1.816-2.912-4.432-2.912-7.052
		c0-2.716,1.092-5.332,2.912-7.136c3.688-3.72,10.388-3.72,14.192,0c1.796,1.908,2.908,4.42,2.908,7.136
		c0,2.612-1.1,5.236-2.908,7.052C279.1,237.544,276.508,238.644,273.916,238.644z"/>
	<path style="fill:#E78244;" d="M233.928,238.644c-2.704,0-5.3-1.1-7.096-3.016c-1.804-1.816-2.904-4.432-2.904-7.052
		c0-2.716,1.092-5.332,2.904-7.136c3.692-3.72,10.388-3.72,14.192,0c1.796,1.908,2.908,4.42,2.908,7.136
		c0,2.612-1.104,5.236-2.908,7.052C239.116,237.544,236.524,238.644,233.928,238.644z"/>
	<path style="fill:#E78244;" d="M213.936,278.612c-2.696,0-5.196-1-7.096-2.92c-1.792-1.816-2.904-4.428-2.904-7.06
		c0-2.732,1-5.252,2.904-7.168c3.796-3.836,10.496-3.744,14.196,0c1.792,1.828,2.904,4.436,2.904,7.168c0,2.62-1.104,5.244-3,7.06
		C219.14,277.612,216.536,278.612,213.936,278.612z"/>
	<path style="fill:#E78244;" d="M233.928,318.66c-2.596,0-5.196-1.112-7.096-2.916c-1.796-1.912-2.904-4.524-2.904-7.132
		c0-2.596,1.1-5.22,2.904-7.124c3.808-3.808,10.504-3.72,14.192,0c1.908,1.916,2.908,4.42,2.908,7.124c0,2.608-1,5.232-2.908,7.04
		C239.132,317.548,236.536,318.66,233.928,318.66z"/>
	<path style="fill:#E78244;" d="M283.908,318.68c-2.584,0-5.188-1.112-7.084-3.028c-1.796-1.816-2.908-4.428-2.908-7.04
		c0-2.732,1.1-5.24,3.008-7.144c3.588-3.724,10.4-3.724,14.084,0c1.908,1.916,2.908,4.416,2.908,7.144c0,2.6-1,5.224-2.908,7.132
		C289.208,317.568,286.608,318.68,283.908,318.68z"/>
	<path style="fill:#E78244;" d="M293.908,278.716c-2.7,0-5.196-1.108-7.092-2.928c-1.792-1.804-2.908-4.42-2.908-7.144
		c0-2.628,1.104-5.248,2.908-7.156c3.704-3.632,10.504-3.744,14.204,0.088c1.796,1.82,2.9,4.428,2.9,7.068
		c0,2.724-1.092,5.34-2.9,7.152C299.1,277.596,296.6,278.716,293.908,278.716z"/>
	<path style="fill:#E78244;" d="M253.928,288.62c-11.032,0-20-8.96-20-19.98c0-11.036,8.968-20,20-20c11.008,0,19.98,8.964,19.98,20
		C273.916,279.66,264.936,288.62,253.928,288.62z"/>
</g>
<g>
</g>
<g>
</g>
<g>
</g>
<g>
</g>
<g>
</g>
<g>
</g>
<g>
</g>
<g>
</g>
<g>
</g>
<g>
</g>
<g>
</g>
<g>
</g>
<g>
</g>
<g>
</g>
<g>
</g>
</svg>
