<?xml version="1.0" encoding="iso-8859-1"?>
<!-- Generator: Adobe Illustrator 19.0.0, SVG Export Plug-In . SVG Version: 6.00 Build 0)  -->
<svg version="1.1" id="Layer_1" xmlns="http://www.w3.org/2000/svg" xmlns:xlink="http://www.w3.org/1999/xlink" x="0px" y="0px"
	 viewBox="0 0 512.156 512.156" style="enable-background:new 0 0 512.156 512.156;" xml:space="preserve">
<circle style="fill:#E16B5A;" cx="256.078" cy="256" r="256"/>
<path style="fill:#CC6152;" d="M482.754,374.948c-0.252-0.648-0.504-1.304-0.784-1.944c-0.26-0.688-0.532-1.368-0.82-2.04
	c-0.264-0.696-0.54-1.384-0.836-2.064c-0.26-0.688-0.532-1.368-0.82-2.04c-0.264-0.688-0.54-1.384-0.836-2.064
	c-0.26-0.688-0.532-1.372-0.82-2.044c-0.264-0.688-0.532-1.376-0.828-2.048c-0.264-0.696-0.54-1.388-0.836-2.068
	c-0.26-0.688-0.532-1.376-0.82-2.04c-0.26-0.68-0.532-1.368-0.82-2.032c-0.26-0.696-0.54-1.392-0.828-2.072
	c-0.268-0.688-0.54-1.384-0.844-2.068c-0.256-0.688-0.524-1.368-0.812-2.04c-0.268-0.688-0.54-1.384-0.836-2.068
	c-0.264-0.68-0.532-1.368-0.82-2.032c-0.268-0.688-0.54-1.384-0.828-2.056c-0.264-0.696-0.54-1.384-0.836-2.064
	c-0.256-0.688-0.532-1.368-0.82-2.04c-0.264-0.688-0.54-1.388-0.836-2.068c-0.256-0.688-0.528-1.368-0.82-2.04
	c-0.264-0.688-0.536-1.388-0.836-2.068c-0.256-0.68-0.528-1.368-0.82-2.032c-0.264-0.696-0.536-1.392-0.836-2.072
	c-0.256-0.68-0.528-1.368-0.82-2.032c-0.256-0.68-0.524-1.352-0.804-2.016c-0.272-0.704-0.552-1.416-0.856-2.1
	c-0.26-0.68-0.528-1.368-0.816-2.032c-0.264-0.696-0.54-1.384-0.84-2.064c-0.26-0.692-0.528-1.38-0.816-2.044
	c-0.264-0.696-0.54-1.384-0.836-2.064c-0.264-0.692-0.532-1.372-0.82-2.044c-0.264-0.688-0.54-1.384-0.836-2.064
	c-0.26-0.688-0.532-1.368-0.82-2.04c-0.264-0.688-0.54-1.384-0.836-2.064c-0.26-0.68-0.524-1.368-0.82-2.044
	c-0.264-0.688-0.532-1.376-0.828-2.048c-0.264-0.696-0.532-1.388-0.836-2.068c-0.26-0.688-0.524-1.368-0.82-2.04
	c-0.264-0.696-0.532-1.384-0.836-2.064c-0.256-0.672-0.516-1.344-0.8-2c-0.272-0.704-0.544-1.408-0.848-2.092
	c-0.264-0.688-0.532-1.376-0.82-2.04c-0.268-0.696-0.54-1.384-0.836-2.064c-0.264-0.688-0.532-1.368-0.82-2.04
	c-0.268-0.688-0.532-1.376-0.828-2.06c-0.264-0.688-0.54-1.384-0.836-2.064c-0.264-0.68-0.532-1.372-0.82-2.036
	c-0.264-0.696-0.54-1.384-0.836-2.072c-0.264-0.68-0.528-1.368-0.82-2.032c-0.264-0.696-0.536-1.384-0.836-2.064
	c-0.264-0.688-0.528-1.368-0.82-2.04c-0.264-0.7-0.536-1.388-0.836-2.068c-0.264-0.688-0.528-1.368-0.82-2.04
	c-0.264-0.692-0.532-1.38-0.828-2.052c-0.264-0.68-0.524-1.368-0.82-2.032c-0.264-0.696-0.536-1.392-0.832-2.072
	c-0.268-0.696-0.536-1.384-0.836-2.064c-0.26-0.688-0.528-1.372-0.816-2.04c-0.272-0.696-0.54-1.388-0.836-2.068
	c-0.264-0.684-0.532-1.372-0.82-2.04c-0.264-0.692-0.54-1.384-0.836-2.064c-0.26-0.688-0.532-1.372-0.82-2.04
	c-0.264-0.688-0.536-1.376-0.828-2.056c-0.264-0.692-0.54-1.384-0.836-2.064c-0.26-0.684-0.532-1.372-0.82-2.036
	c-0.264-0.696-0.54-1.388-0.836-2.072c-0.26-0.684-0.532-1.368-0.82-2.036c-0.264-0.692-0.54-1.384-0.836-2.064
	c-0.26-0.688-0.532-1.372-0.82-2.04c-0.264-0.696-0.54-1.388-0.836-2.068c-0.256-0.672-0.516-1.344-0.8-2
	c-0.268-0.7-0.544-1.408-0.84-2.084c-0.268-0.692-0.54-1.388-0.836-2.068c-0.264-0.684-0.532-1.368-0.82-2.036
	c-0.268-0.692-0.54-1.388-0.836-2.068c-0.264-0.684-0.532-1.368-0.82-2.036c-0.264-0.696-0.54-1.388-0.836-2.068
	c-0.256-0.684-0.532-1.372-0.82-2.036c-0.264-0.696-0.536-1.388-0.836-2.068c-0.256-0.688-0.528-1.372-0.82-2.04
	c-0.264-0.692-0.536-1.384-0.836-2.064c-0.256-0.688-0.528-1.372-0.82-2.04c-0.264-0.688-0.532-1.38-0.828-2.056
	c-0.264-0.692-0.536-1.384-0.836-2.064c-0.256-0.684-0.528-1.372-0.82-2.04c-0.256-0.68-0.524-1.364-0.812-2.028
	c-0.264-0.7-0.544-1.396-0.836-2.076c-0.264-0.692-0.54-1.384-0.836-2.064c-0.264-0.688-0.532-1.372-0.82-2.04
	c-0.264-0.696-0.54-1.388-0.836-2.068c-0.264-0.684-0.532-1.368-0.82-2.036c-0.264-0.692-0.536-1.38-0.828-2.056
	c-0.264-0.696-0.54-1.388-0.836-2.068c-0.26-0.684-0.532-1.368-0.82-2.036c-0.264-0.692-0.532-1.384-0.836-2.068
	c-0.26-0.688-0.524-1.372-0.82-2.04c-0.264-0.692-0.532-1.384-0.836-2.064c-0.26-0.684-0.524-1.368-0.82-2.04
	c-0.264-0.692-0.532-1.388-0.836-2.068c-0.26-0.684-0.524-1.368-0.82-2.036c-0.256-0.676-0.516-1.352-0.808-2.016
	c-0.272-0.708-0.544-1.412-0.848-2.096c-0.264-0.684-0.532-1.368-0.82-2.036c-0.268-0.692-0.54-1.384-0.836-2.068
	c-0.264-0.684-0.532-1.368-0.82-2.036c-0.264-0.692-0.54-1.388-0.836-2.068c-0.264-0.684-0.532-1.368-0.82-2.036
	c-0.264-0.696-0.54-1.388-0.836-2.068c-0.264-0.684-0.528-1.372-0.82-2.04c-0.264-0.688-0.532-1.376-0.828-2.052
	c-0.264-0.692-0.536-1.388-0.836-2.068c-0.264-0.684-0.528-1.368-0.82-2.036c-0.264-0.696-0.536-1.388-0.836-2.068
	c-0.264-0.684-0.528-1.372-0.82-2.036c-0.264-0.696-0.536-1.388-0.836-2.068c-0.256-0.676-0.516-1.348-0.804-2
	c-0.272-0.708-0.544-1.412-0.844-2.096c-0.264-0.684-0.532-1.368-0.82-2.036c-0.272-0.692-0.54-1.388-0.836-2.068
	c-0.26-0.684-0.532-1.368-0.82-2.036c-0.264-0.688-0.536-1.38-0.828-2.056c-0.264-0.692-0.54-1.388-0.836-2.068
	c-6.688-17.292-23.424-29.588-43.084-29.588c-1.548,0-3.072,0.084-4.572,0.236c-12.932,1.264-24.276,7.904-31.868,17.608
	L296.078,108h-12h-28h-40l-6.196,5.312c-8.46-10.844-21.616-17.844-36.432-17.844c-1.54,0-3.064,0.084-4.564,0.236
	c-23.38,2.288-41.656,22.004-41.656,45.988c0,6.508,1.392,12.68,3.824,18.284c0.256,0.688,0.532,1.372,0.824,2.04
	c0.26,0.692,0.536,1.376,0.828,2.052c0.26,0.696,0.54,1.384,0.832,2.068c0.256,0.688,0.532,1.368,0.82,2.036
	c0.26,0.7,0.544,1.388,0.836,2.068c0.252,0.676,0.524,1.34,0.804,2c0.264,0.712,0.552,1.416,0.852,2.092
	c0.148,0.408,0.272,0.816,0.432,1.216L132.078,180v61.884v10.208v13.46v10.212v12.248l0.676,0.68l0.152,0.148v1.22l0.676,0.68
	l0.152,0.148v1.228l0.676,0.672l0.152,0.156v1.228l0.676,0.672L135.39,295v1.224l0.676,0.672l0.152,0.156v1.22l0.676,0.684
	l0.152,0.144v1.224l0.676,0.68l0.148,0.148v1.228l0.676,0.68l0.148,0.148v1.22l0.68,0.68l0.148,0.148v1.212l0.68,0.672l0.148,0.156
	v1.22l0.68,0.676l0.148,0.152v1.232l0.68,0.672l0.148,0.156v1.224l0.68,0.672l0.148,0.152v1.224l0.68,0.68l0.148,0.148v1.228
	l0.68,0.672l0.148,0.156v1.22l0.68,0.68l0.148,0.148v1.228l0.68,0.672l0.148,0.156v1.224l0.68,0.672l0.148,0.156v1.22l0.68,0.68
	l0.148,0.148v1.232l0.68,0.672l0.148,0.156v1.22l0.68,0.68l0.148,0.148v1.22l0.68,0.68l0.144,0.148v1.228l0.676,0.672l0.152,0.156
	v1.232l0.676,0.672l0.152,0.152v1.224l0.676,0.672l0.152,0.156v1.224l0.676,0.68l0.152,0.144v1.224l0.676,0.68l0.152,0.148v1.228
	l0.676,0.68l0.152,0.148v1.22l0.676,0.68l0.152,0.112v1.228l0.676,0.672l0.152,0.156v1.224l0.676,0.672l0.152,0.156v1.228
	l0.676,0.672l0.152,0.156v1.224l0.676,0.68l0.152,0.148v1.22l0.676,0.68l0.152,0.148v1.228l0.676,0.672l0.152,0.156v1.22l0.676,0.68
	l0.152,0.148v1.232l0.676,0.672l0.148,0.144v1.232l0.676,0.672l0.152,0.156v1.224l0.676,0.68l0.152,0.144v1.232l0.676,0.672
	l0.152,0.156v1.22l0.672,0.68l0.156,0.148v1.188l0.672,0.672l0.156,0.156v1.22l0.672,0.672l0.156,0.156v1.228l0.672,0.672
	l0.156,0.156v1.224l0.672,0.672l0.156,0.156v1.22l0.672,0.684l0.156,0.144v1.224l0.672,0.68l0.156,0.148v1.228l0.672,0.68
	l0.156,0.148v1.22l0.672,0.68l0.156,0.148v1.22l0.672,0.672l0.156,0.156v1.22l0.672,0.672l0.156,0.156v1.232l0.672,0.672
	l0.148,0.148v1.232l0.68,0.68l0.148,0.148v1.22l0.68,0.68l0.148,0.148v1.228l0.676,0.672l0.152,0.156v1.22l0.676,0.68l0.152,0.148
	v1.228l0.676,0.672l0.152,0.156v1.224l0.676,0.672l0.152,0.12v1.22l0.676,0.68l0.152,0.148v1.232l0.676,0.672l0.152,0.156v1.22
	l0.676,0.68l0.152,0.148v1.228l0.676,0.672l0.152,0.156v1.22l0.676,0.672l0.152,0.156v1.228l0.676,0.676l0.152,0.152v1.224
	l0.676,0.672l0.152,0.156v1.224l0.676,0.68l0.152,0.148v1.22l0.676,0.68l0.152,0.148v1.228l0.676,0.68l0.144,0.148v1.22l0.68,0.68
	l0.148,0.148v1.228l0.68,0.672l0.148,0.156v1.224l0.68,0.68l0.148,0.148v1.228l0.68,0.672l0.148,0.156v1.224l0.68,0.68l0.148,0.148
	v1.22l0.68,0.68l0.148,0.148v1.228l0.68,0.672l0.148,0.156v1.22l0.68,0.68l0.148,0.148v1.228l0.68,0.676l0.148,0.152v1.224
	l0.68,0.672l0.148,0.156v1.224l0.68,0.68l0.148,0.144v1.232l0.68,0.68l0.148,0.148v1.22l0.68,0.68l0.148,0.148v1.228l0.68,0.672
	l0.148,0.156v1.22l0.68,0.672l0.144,0.148v1.24l0.676,0.672l0.152,0.156v1.22l0.676,0.672l0.152,0.156v1.224l0.676,0.68l0.152,0.148
	v1.22l0.676,0.68l0.152,0.112v1.228l0.676,0.68l0.152,0.148v1.228l0.676,0.672l0.152,0.156v1.22l0.676,0.676l0.152,0.152v1.224
	l0.676,0.68l0.152,0.148v1.232l0.688,0.612l0.152,0.156v1.22l0.676,0.68l0.152,0.148v1.22l0.676,0.68l0.152,0.148v1.232l0.676,0.672
	l0.152,0.156v1.22l0.676,0.684l0.152,0.144v1.232l0.676,0.672l0.152,0.156v1.22l0.676,0.672l0.148,0.148v1.228l0.676,0.68
	l0.152,0.148v1.228l0.676,0.68l0.152,0.148v1.224l0.672,0.68l0.156,0.144v1.232l0.672,0.672l0.156,0.156v1.224l0.672,0.672
	l0.156,0.156v1.228l0.672,0.672l0.156,0.156v1.22l0.672,0.672l0.156,0.156v1.22l0.672,0.68l0.156,0.148v1.22l0.672,0.68l0.156,0.148
	v1.232l0.672,0.68l0.156,0.148v1.228l0.352,0.364c11.212,1.492,22.616,2.344,34.24,2.344
	C354.506,512,439.918,456.416,482.754,374.948z"/>
<g>
	<circle style="fill:#FFC066;" cx="338.718" cy="141.692" r="46.22"/>
	<circle style="fill:#FFC066;" cx="173.438" cy="141.692" r="46.22"/>
</g>
<g>
	<path style="fill:#F2B661;" d="M338.702,95.472c-1.548,0-3.064,0.084-4.564,0.236c23.384,2.288,41.656,22.004,41.656,45.988
		c0,23.992-18.272,43.704-41.656,45.996c1.5,0.136,3.016,0.232,4.564,0.232c25.528,0,46.224-20.696,46.224-46.228
		S364.23,95.472,338.702,95.472z"/>
	<path style="fill:#F2B661;" d="M173.45,95.472c-1.54,0-3.064,0.084-4.564,0.236c23.384,2.288,41.66,22.004,41.66,45.988
		c0,23.992-18.276,43.704-41.66,45.996c1.5,0.136,3.024,0.232,4.564,0.232c25.528,0,46.224-20.696,46.224-46.228
		C219.67,116.164,198.978,95.472,173.45,95.472z"/>
</g>
<g>
	<path style="fill:#99733D;" d="M338.702,171.66c-16.524,0-29.964-13.444-29.964-29.968c0-16.528,13.44-29.96,29.964-29.96
		s29.968,13.432,29.968,29.96C368.67,158.216,355.226,171.66,338.702,171.66z"/>
	<path style="fill:#99733D;" d="M173.45,171.66c-16.52,0-29.964-13.444-29.964-29.968c0-16.528,13.444-29.96,29.964-29.96
		c16.528,0,29.968,13.432,29.968,29.96C203.418,158.216,189.978,171.66,173.45,171.66z"/>
</g>
<polygon style="fill:#FFC066;" points="296.078,108 256.078,108 216.078,108 132.078,180 132.078,288 192.078,348 192.078,392 
	212.078,412 256.078,412 300.078,412 320.078,392 320.078,348 380.078,288 380.078,180 "/>
<polygon style="fill:#F2B661;" points="296.078,108 284.078,108 368.078,180 368.078,288 308.078,348 308.078,392 288.078,412 
	300.078,412 320.078,392 320.078,348 380.078,288 380.078,180 "/>
<polygon style="fill:#F5F5F5;" points="320.078,348 346.306,321.784 304.078,304 256.078,304 208.078,304 165.85,321.784 
	192.078,348 192.078,392 212.078,412 256.078,412 300.078,412 320.078,392 "/>
<polygon style="fill:#E6E6E6;" points="308.078,348 308.078,392 288.078,412 300.078,412 320.078,392 320.078,348 346.306,321.784 
	337.85,318.228 "/>
<path style="fill:#F2B661;" d="M256.078,208.904c-22.664,0-44,4.592-52,11.416v12.964v9.916v64.26h104v-64.252v-9.916v-12.964
	C300.078,213.5,278.742,208.904,256.078,208.904z"/>
<path style="fill:#242424;" d="M264.694,354.212l41.664-41.648c4.744-4.736,3.132-8.564-3.576-8.564h-93.424
	c-6.704,0-8.304,3.836-3.564,8.572l41.664,41.624c0.188,0.188,0.416,0.328,0.612,0.5v8.712c0,4.524-3.748,8.212-8.268,8.212
	c-4.528,0-8.252-3.688-8.252-8.212c0-4.492-3.648-8.124-8.136-8.124s-8.136,3.632-8.136,8.124c0,13.492,10.972,24.46,24.464,24.46
	c6.28,0,11.996-2.4,16.332-6.296c4.344,3.908,10.06,6.296,16.336,6.296c13.492,0,24.468-10.968,24.468-24.46
	c0-4.492-3.64-8.124-8.128-8.124s-8.116,3.632-8.116,8.124c0,4.524-3.752,8.212-8.28,8.212c-4.532,0-8.268-3.688-8.268-8.212v-8.696
	C264.282,354.532,264.498,354.4,264.694,354.212z"/>
<circle style="fill:#F5F5F5;" cx="207.314" cy="241.428" r="20.316"/>
<circle style="fill:#242424;" cx="207.314" cy="241.428" r="8.128"/>
<circle style="fill:#F5F5F5;" cx="304.838" cy="241.428" r="20.316"/>
<g>
	<circle style="fill:#242424;" cx="304.838" cy="241.428" r="8.128"/>
	<path style="fill:#242424;" d="M256.078,135.384c-5.188,0-10.064-1.236-14.772-2.42c-6.304-1.588-11.752-2.956-16.704-1.208
		c-2.364,0.852-4.984-0.392-5.828-2.756c-0.852-2.372,0.392-4.976,2.76-5.828c7.544-2.712,14.904-0.848,22.008,0.94
		c4.364,1.104,8.48,2.144,12.536,2.144c4.056,0,8.172-1.04,12.536-2.144c7.104-1.788,14.456-3.652,22.012-0.94
		c2.376,0.852,3.608,3.456,2.756,5.828c-0.84,2.376-3.46,3.608-5.828,2.756c-4.948-1.752-10.392-0.392-16.704,1.208
		C266.142,134.152,261.266,135.384,256.078,135.384z"/>
	<path style="fill:#242424;" d="M256.078,153.632c-6.236,0-12.208-1.208-17.976-2.372c-7.868-1.584-15.296-3.1-22.052-1.172
		c-2.404,0.672-4.948-0.704-5.644-3.132c-0.688-2.416,0.716-4.94,3.136-5.64c8.876-2.532,17.768-0.744,26.364,1
		c5.336,1.084,10.852,2.192,16.172,2.192c5.32,0,10.836-1.108,16.172-2.192c8.584-1.744,17.488-3.532,26.364-1
		c2.416,0.7,3.824,3.224,3.136,5.64c-0.696,2.428-3.244,3.804-5.644,3.132c-6.752-1.928-14.184-0.416-22.052,1.172
		C268.286,152.424,262.314,153.632,256.078,153.632z"/>
	<path style="fill:#242424;" d="M350.586,218.484c-1.728-1.38-4.244-1.084-5.616,0.648c-1.376,1.736-1.08,4.252,0.648,5.616
		l34.46,27.34v-10.212L350.586,218.484z"/>
	<path style="fill:#242424;" d="M350.586,242.152c-1.728-1.38-4.244-1.084-5.616,0.648c-1.372,1.736-1.08,4.252,0.648,5.612
		l34.46,27.34V265.54L350.586,242.152z"/>
	<path style="fill:#242424;" d="M350.586,265.82c-1.728-1.376-4.244-1.084-5.616,0.648c-1.372,1.736-1.08,4.252,0.648,5.612
		l28.088,22.28l5.696-5.7L350.586,265.82z"/>
	<path style="fill:#242424;" d="M166.538,272.088c1.728-1.376,2.024-3.892,0.648-5.616s-3.892-2.024-5.616-0.648l-28.816,22.864
		l5.696,5.696L166.538,272.088z"/>
	<path style="fill:#242424;" d="M166.538,248.416c1.728-1.372,2.024-3.888,0.648-5.612c-1.376-1.732-3.892-2.028-5.616-0.648
		l-29.492,23.392v10.212L166.538,248.416z"/>
	<path style="fill:#242424;" d="M167.186,219.136c-1.376-1.74-3.892-2.028-5.616-0.648l-29.492,23.396v10.208l34.46-27.336
		C168.266,223.384,168.562,220.868,167.186,219.136z"/>
</g>
<g>
</g>
<g>
</g>
<g>
</g>
<g>
</g>
<g>
</g>
<g>
</g>
<g>
</g>
<g>
</g>
<g>
</g>
<g>
</g>
<g>
</g>
<g>
</g>
<g>
</g>
<g>
</g>
<g>
</g>
</svg>
