<?xml version="1.0" encoding="iso-8859-1"?>
<!-- Generator: Adobe Illustrator 19.0.0, SVG Export Plug-In . SVG Version: 6.00 Build 0)  -->
<svg version="1.1" id="Layer_1" xmlns="http://www.w3.org/2000/svg" xmlns:xlink="http://www.w3.org/1999/xlink" x="0px" y="0px"
	 viewBox="0 0 512 512" style="enable-background:new 0 0 512 512;" xml:space="preserve">
<circle style="fill:#C2D5D8;" cx="256" cy="256" r="256"/>
<path style="fill:#B7C9CC;" d="M486.36,367.756c-0.004-0.016-0.004-0.016-0.008-0.024c-0.332-0.82-0.616-1.664-0.992-2.452
	c-0.332-0.82-0.616-1.66-0.992-2.456c-0.332-0.82-0.608-1.66-0.992-2.456c-0.336-0.824-0.616-1.668-0.992-2.468
	c-0.336-0.812-0.608-1.648-0.992-2.432c-0.328-0.82-0.608-1.66-0.992-2.456c-0.328-0.82-0.608-1.66-0.992-2.452
	c-0.336-0.828-0.616-1.664-0.992-2.468c-0.336-0.812-0.608-1.648-0.984-2.436c-0.336-0.82-0.616-1.66-0.992-2.456
	c-0.336-0.82-0.616-1.66-0.992-2.456c-0.336-0.82-0.62-1.664-1-2.468c-0.328-0.804-0.608-1.64-0.984-2.432
	c-0.336-0.828-0.624-1.676-1.008-2.488c-0.328-0.808-0.608-1.636-0.976-2.42c-0.336-0.82-0.62-1.664-0.992-2.452
	c-0.336-0.824-0.624-1.668-1-2.468c-0.332-0.812-0.612-1.648-0.984-2.436c-0.336-0.82-0.616-1.664-0.992-2.46
	c-0.336-0.812-0.616-1.656-0.992-2.448c-0.336-0.824-0.624-1.664-1-2.468c-0.332-0.812-0.608-1.648-0.984-2.44
	c-0.336-0.82-0.616-1.656-0.992-2.448c-0.336-0.82-0.616-1.66-0.992-2.456c-0.336-0.824-0.616-1.668-1-2.468
	c-0.328-0.812-0.608-1.648-0.976-2.436c-0.336-0.82-0.624-1.664-0.992-2.452c-0.336-0.82-0.624-1.66-0.992-2.456
	c-0.336-0.82-0.62-1.66-0.992-2.456c-0.336-0.82-0.624-1.664-1-2.468c-0.336-0.808-0.612-1.644-0.984-2.432
	c-0.336-0.82-0.62-1.66-0.992-2.456c-0.336-0.82-0.62-1.656-0.992-2.452c-0.336-0.828-0.624-1.664-1-2.468
	c-0.336-0.812-0.612-1.648-0.984-2.436c-0.336-0.82-0.62-1.66-0.992-2.452c-0.336-0.82-0.62-1.664-0.992-2.46
	c-0.336-0.82-0.624-1.664-1-2.464c-0.336-0.824-0.624-1.668-1-2.468c-0.332-0.808-0.608-1.636-0.984-2.424
	c-0.332-0.82-0.608-1.656-0.992-2.452c-0.332-0.82-0.608-1.66-0.992-2.452c-0.336-0.824-0.616-1.672-0.996-2.468
	c-0.332-0.812-0.604-1.648-0.988-2.436c-0.328-0.82-0.608-1.664-0.988-2.456c-0.332-0.82-0.612-1.66-0.988-2.452
	c-0.336-0.824-0.624-1.664-1-2.468c-0.328-0.812-0.608-1.648-0.984-2.44c-0.336-0.82-0.616-1.66-0.992-2.456
	c-0.336-0.82-0.616-1.66-0.992-2.452c-0.336-0.824-0.62-1.668-1-2.468c-0.328-0.812-0.608-1.648-0.984-2.44
	c-0.336-0.82-0.616-1.66-0.992-2.456c-0.336-0.816-0.616-1.66-0.992-2.452c-0.336-0.82-0.616-1.66-0.992-2.456
	c-0.336-0.824-0.62-1.668-1-2.468c-0.328-0.812-0.608-1.648-0.984-2.44c-0.332-0.816-0.616-1.656-0.992-2.452
	c-0.332-0.82-0.612-1.66-0.992-2.456c-0.336-0.824-0.62-1.664-0.996-2.468c-0.332-0.812-0.604-1.648-0.988-2.436
	c-0.332-0.82-0.608-1.66-0.992-2.456c-0.332-0.82-0.608-1.66-0.992-2.456c-0.336-0.832-0.624-1.684-1.012-2.496
	c-0.328-0.804-0.596-1.628-0.968-2.416c-0.336-0.82-0.62-1.66-0.988-2.456c-0.34-0.82-0.624-1.66-0.992-2.456
	c-0.336-0.824-0.624-1.664-1-2.468c-0.336-0.812-0.616-1.648-0.984-2.436c-0.336-0.82-0.624-1.66-0.992-2.456
	c-0.336-0.82-0.624-1.66-0.992-2.456c-0.336-0.82-0.62-1.66-0.992-2.456c-0.336-0.824-0.624-1.664-1-2.464
	c-0.336-0.812-0.612-1.648-0.984-2.44c-0.336-0.82-0.62-1.66-0.992-2.456c-1.836-4.492-4.212-8.752-7.236-12.564
	c-11.892-14.992-28.116-23.936-43.404-23.936c-9.068,0-21.976,3.132-32.084,18.04c-5.084,7.512-7.768,15.06-10.384,22.364
	c-1.084,3.036-2.176,6.084-3.46,9.176c-0.156,0.38-0.336,0.756-0.5,1.14c-16.008-22.94-50.252-43.548-90.252-43.548
	c-2.68,0-5.356,0.12-8.032,0.304c-0.004,0-0.012,0-0.02,0c-15.6,1.08-31.076,5.236-46.1,12.468
	c-52.74,25.32-73.932,72.476-56.58,124.196c-7.596,4.76-13.528,10.876-17.1,19.164c-1.228,2.884-0.944,6.092,0.576,8.756
	c0.216,0.86,0.548,1.672,0.992,2.452c0.216,0.86,0.548,1.68,0.996,2.452c0.216,0.868,0.544,1.672,0.988,2.452
	c0.216,0.86,0.548,1.672,0.988,2.452c0.22,0.86,0.552,1.672,0.992,2.46c0.22,0.86,0.552,1.672,0.992,2.448
	c0.22,0.864,0.552,1.676,0.996,2.456c0.22,0.86,0.548,1.672,0.988,2.452c0.22,0.86,0.552,1.672,0.992,2.452
	c0.22,0.86,0.552,1.672,0.992,2.452c0.22,0.864,0.556,1.684,1,2.472c0.22,0.852,0.548,1.66,0.988,2.432
	c0.216,0.86,0.548,1.672,0.992,2.456c0.216,0.864,0.548,1.672,0.992,2.452c0.216,0.86,0.548,1.676,0.992,2.456
	c0.22,0.86,0.548,1.672,0.992,2.452c0.216,0.86,0.548,1.672,0.992,2.448c0.216,0.86,0.548,1.676,0.992,2.456
	c0.216,0.86,0.548,1.676,0.992,2.452c0.22,0.86,0.548,1.672,0.992,2.452c0.216,0.86,0.548,1.672,0.992,2.452
	c0.216,0.864,0.548,1.672,0.988,2.452c0.22,0.86,0.552,1.672,0.992,2.46c0.22,0.86,0.552,1.672,0.992,2.452
	c0.224,0.86,0.552,1.672,0.992,2.448c0.22,0.86,0.552,1.672,0.992,2.456c0.22,0.86,0.552,1.672,0.992,2.452
	c0.22,0.86,0.548,1.68,0.992,2.456c0.22,0.86,0.548,1.672,0.992,2.448c0.216,0.864,0.548,1.672,0.992,2.452
	c0.216,0.86,0.548,1.672,0.992,2.456c0.216,0.864,0.548,1.676,0.992,2.456c0.22,0.86,0.548,1.672,0.992,2.444
	c0.216,0.864,0.548,1.672,0.992,2.46c0.216,0.86,0.548,1.672,0.992,2.452c0.22,0.864,0.552,1.684,1,2.468
	c0.216,0.856,0.548,1.668,0.992,2.436c0.216,0.868,0.544,1.672,0.988,2.452c0.216,0.86,0.548,1.672,0.988,2.456
	c0.22,0.86,0.552,1.672,0.992,2.456c0.22,0.86,0.552,1.676,0.996,2.452c0.22,0.86,0.548,1.672,0.988,2.448
	c0.22,0.86,0.552,1.672,0.992,2.456c0.22,0.856,0.552,1.672,0.992,2.452c0.22,0.864,0.552,1.68,0.996,2.452
	c0.22,0.86,0.544,1.672,0.988,2.452c0.22,0.856,0.548,1.672,0.992,2.456c0.216,0.86,0.548,1.672,0.992,2.448
	c0.216,0.86,0.548,1.68,0.992,2.456c0.216,0.864,0.548,1.676,0.996,2.456c0.216,0.86,0.544,1.672,0.988,2.452
	c0.216,0.856,0.548,1.672,0.992,2.452c0.216,0.86,0.548,1.672,0.992,2.452c0.216,0.86,0.548,1.676,0.996,2.456
	c0.216,0.86,0.544,1.672,0.988,2.448c0.216,0.86,0.548,1.672,0.992,2.452c0.216,0.86,0.548,1.672,0.992,2.456
	c0.216,0.86,0.548,1.676,0.996,2.456c0.216,0.86,0.544,1.672,0.988,2.452c0.216,0.852,0.548,1.672,0.992,2.448
	c0.22,0.872,0.552,1.688,1,2.468c0.216,0.856,0.544,1.664,0.984,2.44c0.22,0.864,0.552,1.68,0.992,2.46
	c0.224,0.86,0.552,1.672,0.992,2.444c0.22,0.856,0.552,1.672,0.992,2.456c0.22,0.86,0.552,1.672,0.992,2.456
	c0.22,0.86,0.548,1.672,0.992,2.452c0.22,0.86,0.548,1.672,0.992,2.448c0.216,0.86,0.548,1.672,0.992,2.456
	c0.216,0.856,0.548,1.672,0.992,2.452c0.216,0.86,0.548,1.68,0.992,2.456c0.22,0.86,0.548,1.672,0.992,2.448
	c0.08,0.312,0.252,0.592,0.364,0.9c27.108,9.772,56.336,15.124,86.816,15.124C357.308,512,444.86,453.136,486.36,367.756z"/>
<path style="fill:#45998B;" d="M323.032,363.636c-31.584,0-43.08-10.788-47.176-19.756c-24.3-0.228-54.028-3.196-83.304-8.292
	c-4.948,12.248-18.028,20.096-35.1,20.096c-5.32,0-10.612-0.852-15.288-2.456c-3.508-1.2-12.812-4.388-14.632-13.008
	c-1.628-7.7,3.46-13.148,8.532-17.916c-8.42-0.092-17.872,0.448-29.016,1.776c-3.48,0.404-6.968-1.068-9.084-3.904
	c-2.108-2.82-2.548-6.556-1.156-9.804c10.508-24.376,40.944-30.164,76.192-36.86c27.444-5.22,58.54-11.12,87.536-26.236
	c45.396-23.672,51.956-42.068,58.312-59.86c2.608-7.304,5.3-14.856,10.38-22.364c10.1-14.908,23.024-18.04,32.084-18.04
	c15.272,0,31.512,8.944,43.4,23.936c10,12.584,13.656,29.704,9.792,45.776c-2.956,12.312-9.916,21.756-19.048,25.936
	c-5.872,2.664-11.952,4.024-18.112,4.024l0,0c-7.572,0-14.816-2.096-20.584-5.784c-12.796,12.62-18.712,26.84-24.428,40.656
	c-2.244,5.368-4.344,10.456-6.824,15.416c-0.596,12.704,7.396,23.86,13.872,32.9c6.032,8.408,11.72,16.344,7.4,24.752
	C342.688,362.556,332.944,363.636,323.032,363.636z"/>
<g>
	<path style="fill:#3A8074;" d="M329.624,228.652c1.484-2.476,1.812-5.46,0.896-8.204c-2.676-8.028-7.94-16.224-15.144-23.848
		c-6.256,15.048-17.192,31.048-54.848,50.684c-28.996,15.108-60.084,21.016-87.536,26.236c-20.768,3.944-39.832,7.604-54.168,14.916
		c1.38,5.86,3.228,11.78,5.62,17.764c1.504,3.752,5.124,6.204,9.168,6.204C171.076,312.416,296.648,283.6,329.624,228.652z"/>
	<path style="fill:#3A8074;" d="M176.552,335.584c-4.152,10.26-14.064,17.384-27.208,19.424c2.64,0.432,5.368,0.672,8.1,0.672
		c15.916,0,28.268-6.888,33.9-17.74C186.416,337.22,181.48,336.436,176.552,335.584z"/>
	<path style="fill:#3A8074;" d="M325.488,296.988c2.48-4.952,4.584-10.052,6.824-15.416c5.028-12.116,10.204-24.564,20.052-35.956
		c-4.224-0.964-8.196-2.508-11.612-4.696c-12.796,12.62-18.712,26.844-24.428,40.652c-2.244,5.376-4.344,10.46-6.824,15.416
		c-0.596,12.704,7.396,23.86,13.872,32.904c6.032,8.404,11.72,16.344,7.4,24.752c-3.032,5.888-9.196,7.988-16.24,8.684
		c2.672,0.184,5.468,0.312,8.508,0.312c9.916,0,19.656-1.084,23.728-9c4.32-8.416-1.368-16.352-7.4-24.752
		C332.884,320.848,324.892,309.692,325.488,296.988z"/>
	<path style="fill:#3A8074;" d="M404.696,170.964c-11.884-14.992-28.116-23.936-43.396-23.936c-2.448,0-5.184,0.248-8.068,0.872
		c12.788,2.476,25.612,10.652,35.452,23.072c10,12.584,13.66,29.704,9.796,45.776c-2.96,12.312-9.916,21.756-19.048,25.936
		c-3.252,1.476-6.576,2.508-9.92,3.172c2.54,0.504,5.136,0.852,7.808,0.852c6.16,0,12.252-1.36,18.112-4.024
		c9.132-4.18,16.084-13.624,19.048-25.936C418.356,200.668,414.696,183.552,404.696,170.964z"/>
</g>
<path style="fill:#99602E;" d="M125.612,304.416c-4.044,0-7.664-2.448-9.168-6.208c-21.772-54.432-1.076-104.728,54.024-131.236
	c17.604-8.476,35.828-12.772,54.152-12.772c48.476,0,88.568,30.248,97.9,58.252c0.916,2.744,0.588,5.728-0.896,8.204
	C288.648,275.6,163.076,304.416,125.612,304.416z"/>
<path style="fill:#BF7839;" d="M133.06,240.52c-5.576,3.532-9.6,1.052-8.952-5.516c0,0,2.2-22.308,20.008-38.812
	c9.008-8.352,18.924-14.236,29.496-17.492c14.86-4.58,27.252-2.516,27.252-2.516c6.512,1.084,7.776,5.532,2.816,9.884L133.06,240.52
	z"/>
<path style="fill:#805026;" d="M322.52,212.448c-9.332-28.008-49.416-58.252-97.9-58.252c-2.692,0-5.38,0.12-8.064,0.304
	c44.864,3.064,81.14,31.484,89.956,57.944c0.916,2.744,0.588,5.728-0.896,8.204c-29.964,49.92-136.36,78.264-183.656,83.032
	c1.14,0.456,2.368,0.728,3.644,0.728c37.456,0,163.036-28.796,196.012-83.752C323.108,218.176,323.436,215.192,322.52,212.448z"/>
<path style="fill:#EDEDED;" d="M378.196,191.588c0,6.636-5.388,12.008-12,12.008c-6.632,0-12-5.372-12-12.008
	c0-6.62,5.368-11.992,12-11.992C372.808,179.596,378.196,184.968,378.196,191.588z"/>
<circle style="fill:#242424;" cx="366.2" cy="191.592" r="4"/>
<g>
</g>
<g>
</g>
<g>
</g>
<g>
</g>
<g>
</g>
<g>
</g>
<g>
</g>
<g>
</g>
<g>
</g>
<g>
</g>
<g>
</g>
<g>
</g>
<g>
</g>
<g>
</g>
<g>
</g>
</svg>
