<?xml version="1.0" encoding="iso-8859-1"?>
<!-- Generator: Adobe Illustrator 19.0.0, SVG Export Plug-In . SVG Version: 6.00 Build 0)  -->
<svg version="1.1" id="Layer_1" xmlns="http://www.w3.org/2000/svg" xmlns:xlink="http://www.w3.org/1999/xlink" x="0px" y="0px"
	 viewBox="0 0 512 512" style="enable-background:new 0 0 512 512;" xml:space="preserve">
<circle style="fill:#88C5CC;" cx="256" cy="256" r="256"/>
<g>
	<path style="fill:#1A1A1A;" d="M106.784,337.428c-19.804-10.584-55.26-24.408-41.912-54.336s92.476-108.86,116.96-128.936
		c39.028-32.008,108.616-41.98,156.58-16.58c58.252,30.856,87.484,84.268,29.92,108.224
		C297.888,242.568,106.784,337.428,106.784,337.428z"/>
</g>
<g>
	<g>
		<path style="fill:#F5F5F5;" d="M204.74,186.476c14.608,10.972,33.584,16.916,51.756,17.58c0.996,0.04,1.86-0.116,2.608-0.424
			c7.524,2.512,16.54,2.4,23.532-0.948c4.372-2.084,3.836-6.76,1.164-9.468c-0.728-2.584-2.796-4.848-5.892-4.828
			c-7.204,0.06-15.288,1.148-21.916-2.272c-1.452-0.752-2.876-0.892-4.152-0.62c-14.02-5.836-23.652-19.144-32.112-31.164
			c-3.852-5.46-7.652-10.952-11.388-16.488c-4.124,1.912-8.096,3.988-11.912,6.24c9.232,15.092,19.956,30.568,33.008,41.672
			c-5.424-2.144-10.652-4.808-15.544-7.952c-10.236-6.584-15.884-19.816-20.564-31.772c-3.64,2.292-7.144,4.716-10.408,7.316
			C188.068,165.852,194.108,178.5,204.74,186.476z"/>
		<path style="fill:#F5F5F5;" d="M212.34,274.868c-5.96-5.428-14.852,3.416-8.872,8.868c2.48,2.26,5.024,4.5,7.58,6.72
			c4.256-1.752,8.58-3.508,12.916-5.252C220.088,281.792,216.184,278.384,212.34,274.868z"/>
		<path style="fill:#F5F5F5;" d="M138.748,195.724c6.4,10.416,9.648,23.256,17.7,32.62c11.916,13.872,28.828,20.24,45.68,26.156
			c16.564,5.816,34.392,10.712,48.96,20.188c4.824-1.796,9.66-3.572,14.464-5.272c-2.46-2.14-5.116-4.204-8.028-6.132
			c-18.304-12.204-42.496-17.188-62.924-24.792c-22.9-8.528-37.888-29.328-48.128-51.468c-2.64,2.62-5.364,5.332-8.092,8.092
			C138.5,195.312,138.612,195.516,138.748,195.724z"/>
		<path style="fill:#F5F5F5;" d="M106.784,337.428c0,0,1.548-0.764,4.36-2.136c-1.168-1.976-2.392-3.916-3.756-5.784
			c-10.744-14.6-27.852-23.952-45.104-30.004c1.252,7.708,6.188,14.012,12.688,19.34c4.244,2.368,8.244,5.048,11.916,8.076
			C93.784,330.916,100.956,334.312,106.784,337.428z"/>
		<path style="fill:#F5F5F5;" d="M171.292,269.04c7.24,3.548,13.588-7.256,6.328-10.828c-22.664-11.116-39.06-29.32-51.864-50.184
			c-2.976,3.108-5.956,6.252-8.916,9.404C130.46,238.888,147.924,257.576,171.292,269.04z"/>
		<path style="fill:#F5F5F5;" d="M211.008,218.352c7.084,3.92,13.412-6.908,6.328-10.828c-18.928-10.492-33.312-27.34-43.812-46.18
			c-2.832,2.536-5.972,5.432-9.348,8.588C175.6,189.676,190.852,207.184,211.008,218.352z"/>
		<path style="fill:#F5F5F5;" d="M312.416,160.164c0.836,7.956,13.392,8.036,12.54,0c-1.18-11.044-5.836-21-8.92-31.444
			c-4.484-1.28-9.048-2.348-13.696-3.172C304.888,137.328,311.12,148.096,312.416,160.164z"/>
		<path style="fill:#F5F5F5;" d="M393.44,186.792c-1.952-3.652-4.352-7.3-7.14-10.916c-17.568,20.252-55.472,28.32-76.156,8.804
			c-11.116-10.5-13.76-26.784-26.72-36.344c-10.552-7.76-20.888-15.208-30.796-23.384c-5.268,0.752-10.508,1.708-15.628,2.948
			c14.092,12.116,29.6,21.948,43.416,34.424c15.252,13.796,16.188,32.796,36.564,41.524
			C341.388,214.316,375.192,206.132,393.44,186.792z"/>
		<path style="fill:#F5F5F5;" d="M115.224,327.132c0.964,1.636,1.928,3.228,2.896,4.792c3.224-1.552,7.052-3.372,11.416-5.42
			c-4.416-7.02-8.54-14.324-13.06-21.584c-10.152-16.284-22.084-31.304-35.28-45.212c-0.208-0.22-0.416-0.372-0.616-0.544
			c-2.776,3.584-5.316,6.992-7.532,10.192C89.572,286.928,103.052,306.344,115.224,327.132z"/>
		<path style="fill:#F5F5F5;" d="M144.208,287.996c5.068,7.752,8.988,16.848,12.612,25.916c3.34-1.508,6.78-3.064,10.344-4.632
			c-1.064-2.42-2.084-4.808-3.112-7.148c0.228,0.124,0.424,0.272,0.656,0.408c2.692,1.584,5.46,2.916,8.28,4.164
			c5.86-2.584,11.944-5.236,18.244-7.916c-14.312-5.812-27.18-11.796-39.828-20.828c-3.508-5.108-7.696-10.012-13.04-14.728
			c-8.964-7.88-13.532-18.4-20.92-27.424c-2.772-3.396-5.784-6.456-8.936-9.34c-3.704,4.06-7.316,8.084-10.78,12.064
			C113.06,255.988,126.66,273.34,144.208,287.996z"/>
		<path style="fill:#F5F5F5;" d="M262.144,230.348c14.056-0.532,28.28-3.672,42.216-4.228c21.668-0.856,36.792,6.156,46.896,20.452
			c5.376-0.616,10.36-0.916,14.908-0.836c-6.188-11.952-15.696-23.196-27.756-27.684c-13.476-5.016-26.484-4.768-40.728-4.212
			c-17.668,0.7-36.28,6.94-53.6,2.448c-3.316-0.86-5.804,0.812-7,3.176c-4.036,2.04-4.66,9.752,1.056,12.052
			c17.916,7.192,31.748,18.64,42.432,32.724c4.06-1.352,8.076-2.656,12.044-3.908C284.356,248.752,274.396,238.496,262.144,230.348z
			"/>
	</g>
</g>
<g>
	<path style="fill:#E6E6E6;" d="M418.552,300.252c4.276-2.132,8.736-3.632,13.276-4.352c-25.968-33.472-65.668-68.54-80.628-91.584
		c0-8.288,1.984-40.084-0.812-41.884c-1.16-0.752-3.288-0.604-6.116,0.252c2.416,13.916-9.632,34.976-9.632,41.624
		C350.236,228.368,392.776,265.496,418.552,300.252z"/>
</g>
<g>
	<path style="fill:#CCCCCC;" d="M311.12,181.784c2.54-2.76,6.712-5.176,8.872-6.448c-16.916-8.812-34.912-9.82-47.252-8.648
		C282.932,167.648,301.232,175.1,311.12,181.784z"/>
</g>
<g>
	<path style="fill:#242424;" d="M432.368,296.612c-21.364,3.128-41.868,24.084-49.644,53.248c-3.18,11.884-3.78,23.6-2.316,34.264
		c29.804,12.984,55.864-2.608,69.44-19.984C463.54,346.624,452.012,322.108,432.368,296.612z"/>
</g>
<path style="fill:#CCCCCC;" d="M270.244,323.616c-1.368-3.624-1.368-10.132,0.016-17.032
	c-56.592,38.712-43.456,132.6-84.156,195.676c4.68,1.328,9.412,2.528,14.196,3.592C244.208,442.344,229.264,344.696,270.244,323.616
	z"/>
<g>
	<path style="fill:#F5F5F5;" d="M215.876,324.46c-16.112-10.076-35.08-12.468-51.176-21.928c-0.232-0.136-0.428-0.284-0.66-0.408
		c2.18,4.976,4.38,10.132,6.904,15.512c17.468,37.26,34.232,71.76,61.62,100.54c1.728-8.452,3.308-16.756,4.896-24.732
		c-3.776-6.52-7.46-13.104-11.696-19.408c-8.556-12.716-20.836-22.116-29.016-35.132c-4.32-6.868,6.532-13.156,10.824-6.328
		c7.264,11.544,18.552,19.56,26.12,30.816c2.684,3.996,5.164,8.132,7.576,12.304c1.004-4.292,2.072-8.428,3.22-12.376
		C238.556,348.092,231.4,334.164,215.876,324.46z"/>
	<path style="fill:#F5F5F5;" d="M326.952,366.064c-1.876-0.264-3.76-0.544-5.644-0.84C323.192,365.52,325.076,365.8,326.952,366.064
		z"/>
	<path style="fill:#F5F5F5;" d="M320.912,365.16c-2.064-0.332-4.124-0.688-6.172-1.084
		C316.788,364.472,318.848,364.832,320.912,365.16z"/>
	<path style="fill:#F5F5F5;" d="M358.54,372.056c-0.016-0.004-0.032-0.012-0.048-0.016
		C358.504,372.048,358.524,372.052,358.54,372.056z"/>
	<path style="fill:#F5F5F5;" d="M232.276,179.248c1.684-0.868,3.368-1.688,5.06-2.48
		C235.644,177.556,233.956,178.38,232.276,179.248z"/>
	<path style="fill:#F5F5F5;" d="M361.476,373.244c-0.124-0.056-0.256-0.104-0.38-0.156
		C361.22,373.14,361.352,373.188,361.476,373.244z"/>
	<path style="fill:#F5F5F5;" d="M364.136,374.592c-0.176-0.1-0.372-0.188-0.552-0.284
		C363.764,374.408,363.96,374.492,364.136,374.592z"/>
	<path style="fill:#F5F5F5;" d="M360.94,266.792c-8.828-27.86-26.376-41.868-56.576-40.672c-13.936,0.556-28.16,3.696-42.216,4.228
		c43.532,28.972,59.072,83.72,65.252,135.78c3.692,0.516,7.344,0.996,10.888,1.508c-1.112-31.936-6.256-62.064-21.88-91.44
		c-3.804-7.132,7.016-13.468,10.816-6.328c17.116,32.16,22.696,64.932,23.684,100.008c1.556,0.356,3.068,0.736,4.516,1.164
		C363.34,336.616,372.048,301.876,360.94,266.792z"/>
	<path style="fill:#F5F5F5;" d="M223.96,453.716c-1.184,4.036-2.448,8.072-3.84,12.056
		C221.512,461.784,222.772,457.76,223.96,453.716z"/>
	<path style="fill:#F5F5F5;" d="M217.644,472.5c-0.528,1.368-1.096,2.72-1.66,4.072C216.544,475.216,217.116,473.864,217.644,472.5z
		"/>
	<path style="fill:#F5F5F5;" d="M208.252,492.88c-1.072,1.98-2.192,3.932-3.36,5.86C206.06,496.812,207.18,494.86,208.252,492.88z"
		/>
	<path style="fill:#F5F5F5;" d="M203.152,501.588c-0.74,1.164-1.508,2.312-2.284,3.452
		C201.644,503.896,202.412,502.748,203.152,501.588z"/>
	<path style="fill:#F5F5F5;" d="M249.236,349.6c-0.052,0.128-0.104,0.256-0.156,0.384
		C249.132,349.856,249.184,349.728,249.236,349.6z"/>
	<path style="fill:#F5F5F5;" d="M232.144,420.188c-0.72,3.46-1.468,6.94-2.252,10.432
		C230.68,427.124,231.428,423.648,232.144,420.188z"/>
	<path style="fill:#F5F5F5;" d="M287.776,354.204c-0.984-0.66-1.936-1.364-2.856-2.104
		C285.84,352.84,286.796,353.544,287.776,354.204z"/>
	<path style="fill:#F5F5F5;" d="M125.284,451.532c-1.804-1.924-3.56-3.908-5.216-6.016C100.68,420.872,84.024,396.02,76.076,366.6
		c2.78-5.136,5.692-10.376,8.68-15.656c-12.252,21.676-22.832,42.208-31.392,59.604c1.24,2.408,2.54,4.668,3.936,6.816
		c2.66,3.268,5.388,6.476,8.204,9.608c3.448,3.008,7.552,5.584,12.724,7.656C93.812,440.876,109.54,446.116,125.284,451.532z"/>
	<path style="fill:#F5F5F5;" d="M94.628,333.864c2.208-3.736,4.448-7.464,6.748-11.232
		C99.084,326.388,96.836,330.136,94.628,333.864z"/>
	<path style="fill:#F5F5F5;" d="M132.012,276.284c2.612-3.64,5.256-7.244,7.944-10.8
		C137.272,269.04,134.624,272.648,132.012,276.284z"/>
	<path style="fill:#F5F5F5;" d="M151.492,457.812c18.956,11.576,39.724,20.396,58.212,32.368c0.912-1.768,1.784-3.556,2.632-5.352
		c-11.732-7.596-23.736-14.776-34.132-24.084c-17.504-15.696-24.084-37.324-34.752-57.58c-3.768-7.148,7.056-13.484,10.824-6.328
		c12.048,22.884,18.424,46.664,41.704,61.256c7.208,4.512,14.572,9.176,21.78,14.088c0.78-2.032,1.536-4.076,2.256-6.128
		c-7.792-5.148-14.824-11.392-20.704-18.928c-14.732-18.904-21.136-45.36-40.252-60.452c-6.348-5.008,2.588-13.82,8.868-8.868
		c17.296,13.656,22.28,35.056,34.416,52.476c6.368,9.128,13.68,16.544,21.86,22.612c1.94-6.668,3.664-13.38,5.204-20.064
		c-27.984-26.9-45.072-58.616-62.572-94.776C159.556,323.02,154,302.972,144.212,288c-4.368-3.644-8.456-7.48-12.416-11.416
		c-10.776,15.012-20.948,30.572-30.388,46.012c2.132,2.172,4.164,4.468,5.976,6.92c17.048,23.2,17.272,55.82,30.688,81.444
		c3.756,7.156-7.072,13.492-10.824,6.32c-10.156-19.392-14.904-40.728-20.956-61.524c-2.436-8.424-6.564-15.532-11.864-21.544
		c-3.152,5.332-6.216,10.628-9.18,15.86c3.304,22.152,11.956,43.22,25.136,61.396C122.284,427.896,133.74,446.96,151.492,457.812z
		 M115.22,327.148c-2.668-4.584-5.428-9.076-8.252-13.508c2.456-3.92,4.956-7.816,7.504-11.724c0.652,1.016,1.368,1.992,2,3.016
		c11.324,18.192,20.052,36.832,37.636,49.952c6.408,4.772,0.164,15.664-6.328,10.82C133.364,354.944,124.256,342.556,115.22,327.148
		z"/>
	<path style="fill:#F5F5F5;" d="M214.968,479.016c-0.724,1.672-1.476,3.332-2.244,4.988
		C213.492,482.352,214.248,480.692,214.968,479.016z"/>
	<path style="fill:#F5F5F5;" d="M93.268,453.628c28.108,23.172,61.256,40.44,97.54,49.968
		C167.768,475.848,128.004,465.684,93.268,453.628z"/>
	<path style="fill:#F5F5F5;" d="M151.388,277.944c16.436,11.736,33.208,18.328,53.088,26.08c13.96,5.436,28.908,15.62,38.084,27.6
		c3.376,4.416,6.064,9.14,8.416,14.032c-0.012,0.024-0.02,0.048-0.032,0.072c1.26-2.672,2.612-5.192,4.088-7.516
		c-11.492-22.704-33.048-37.568-51.564-54.476c-5.98-5.452,2.912-14.296,8.872-8.868c18.66,17.036,38.56,31.876,51.244,53.332
		c2.06-1.76,4.24-3.344,6.668-4.592c1.624,13.432,7.048,22.352,14.624,28.46c-0.936-0.752-1.836-1.552-2.7-2.396
		c0.12-19.94-1.544-40.12-12.1-56.4c-15.18-23.44-43.028-30.024-67.944-38.776c-13.488-4.736-26.972-9.836-37.944-18.76
		c3.08-3.48,6.188-6.86,9.332-10.152c6.168,5.464,13.144,9.936,21.084,12.896c20.428,7.612,44.62,12.596,62.924,24.792
		c33.164,22.096,36.34,58.44,36.564,94.508c-2.208-1.052-4.32-2.232-6.316-3.576c7.668,5.156,17.092,7.956,26.872,9.852
		c-6.584-53.496-23.868-111.388-76.536-132.536c-5.716-2.3-5.092-10.012-1.056-12.052c1.196-2.364,3.684-4.036,7-3.176
		c17.32,4.492,35.932-1.748,53.6-2.448c14.248-0.556,27.26-0.804,40.728,4.212c16.336,6.084,28.012,24.528,33.048,40.388
		c12.932,40.84,3.916,78.54-4.544,117.928c-0.128-0.092-0.252-0.172-0.38-0.256c0,0-0.004,0-0.004-0.004
		c4.692,3.412,9.328,6.068,13.872,8.052c20.596-21.828,34.088-60.332,51.996-87.556c-5.364-6.96-11.344-13.992-17.576-20.98
		c0.212,9.804-1.756,19.292-8.08,27.444c-4.952,6.384-13.776-2.572-8.868-8.868c6.92-8.916,5.436-22.124,2.54-34.264
		c4.652,4.944,9.28,9.964,13.796,15.008c-23.772-26.568-51.132-52.364-62.988-70.62c0-8.296,1.984-40.084-0.812-41.884
		c-3.58-2.296-16.08,3.804-30.396,12.9c-27.74-13.304-55.384-11.116-81.984,1.108c9.74,14.092,32.708,11.988,39.912,11.928
		c3.092-0.02,5.156,2.244,5.884,4.828c2.672,2.712,3.212,7.384-1.156,9.468c-6.992,3.348-25.148,1.412-26.176,1.38
		c-15.18-0.548-30.872-4.84-44.156-12.608c-2.972,2.1-5.924,4.32-8.86,6.632c4.332,3.528,8.948,6.712,13.896,9.444
		c7.084,3.92,0.756,14.748-6.328,10.828c-6.26-3.464-12.016-7.568-17.368-12.132c-12.82,11.212-25.224,24.236-37.084,38.364
		c6.372,5.24,13.348,9.86,21.056,13.632c7.268,3.56,0.912,14.372-6.328,10.828c-8.28-4.068-15.816-9.032-22.704-14.7
		c-2.8,3.516-5.568,7.08-8.3,10.696C144.708,269.188,148.332,273.476,151.388,277.944z"/>
	<path style="fill:#F5F5F5;" d="M149.044,253.756c2.396-2.996,4.812-5.944,7.256-8.864
		C153.86,247.808,151.44,250.76,149.044,253.756z"/>
	<path style="fill:#F5F5F5;" d="M214.36,190.04c1.148-0.788,2.296-1.58,3.452-2.332C216.656,188.46,215.508,189.248,214.36,190.04z"
		/>
	<path style="fill:#F5F5F5;" d="M226.112,182.62c-0.52,0.3-1.044,0.604-1.564,0.912c1.628,0.76,3.216,1.556,4.88,2.208
		C228.284,184.768,227.212,183.66,226.112,182.62z"/>
	<path style="fill:#F5F5F5;" d="M226.552,182.36c1.636-0.932,3.276-1.824,4.916-2.688
		C229.828,180.536,228.188,181.428,226.552,182.36z"/>
	<path style="fill:#F5F5F5;" d="M219.772,186.46c1.364-0.864,2.728-1.72,4.096-2.536
		C222.496,184.744,221.132,185.596,219.772,186.46z"/>
	<path style="fill:#F5F5F5;" d="M193.78,206.096c3.124-2.728,6.284-5.348,9.456-7.852
		C200.06,200.748,196.908,203.364,193.78,206.096z"/>
</g>
<g>
	<path style="fill:#1A1A1A;" d="M53.36,410.54c-0.188,0.384-0.36,0.74-0.544,1.12l0,0c0.18-0.368,0.368-0.744,0.548-1.112
		C53.364,410.544,53.36,410.54,53.36,410.54z"/>
	<path style="fill:#1A1A1A;" d="M85.244,350.06c-0.168,0.3-0.32,0.584-0.488,0.884c0.164-0.292,0.328-0.58,0.492-0.872
		C85.244,350.068,85.244,350.064,85.244,350.06z"/>
	<path style="fill:#1A1A1A;" d="M200.296,505.852c0.008,0.004,0.02,0.004,0.028,0.008c0.188-0.268,0.356-0.548,0.54-0.82
		C200.68,505.312,200.484,505.58,200.296,505.852z"/>
	<path style="fill:#1A1A1A;" d="M204.896,498.74c-0.576,0.952-1.148,1.908-1.744,2.844
		C203.748,500.648,204.32,499.692,204.896,498.74z"/>
	<path style="fill:#1A1A1A;" d="M209.716,490.188c-0.004-0.004-0.008-0.004-0.012-0.008c-0.468,0.908-0.96,1.804-1.448,2.7
		C208.74,491.984,209.248,491.096,209.716,490.188z"/>
	<path style="fill:#1A1A1A;" d="M52.816,411.66c1.472,1.92,2.956,3.828,4.484,5.704c-1.396-2.148-2.696-4.408-3.936-6.816
		C53.18,410.916,52.996,411.292,52.816,411.66z"/>
	<path style="fill:#1A1A1A;" d="M203.152,501.588c0.596-0.94,1.168-1.892,1.744-2.844c1.164-1.928,2.284-3.884,3.36-5.86
		c0.488-0.896,0.98-1.792,1.448-2.7c-18.488-11.972-39.256-20.792-58.212-32.368c-17.752-10.852-29.208-29.916-41.112-46.344
		c-13.176-18.176-21.828-39.244-25.136-61.396c-0.164,0.292-0.328,0.58-0.492,0.872c-2.988,5.284-5.9,10.524-8.68,15.656
		c7.948,29.42,24.604,54.272,43.992,78.916c1.656,2.108,3.412,4.092,5.216,6.016c-15.744-5.416-31.472-10.656-47.06-16.908
		c-5.172-2.068-9.276-4.648-12.724-7.656c8.584,9.556,17.852,18.48,27.768,26.656c34.736,12.056,74.5,22.22,97.54,49.968
		c3.136,0.824,6.308,1.548,9.484,2.252c0.188-0.272,0.384-0.54,0.572-0.812C201.644,503.896,202.412,502.748,203.152,501.588z"/>
	<path style="fill:#1A1A1A;" d="M231.468,179.676c0.268-0.14,0.536-0.288,0.804-0.428
		C232.008,179.388,231.736,179.532,231.468,179.676z"/>
	<path style="fill:#1A1A1A;" d="M226.1,182.608c0.004,0.004,0.008,0.008,0.012,0.012c0.148-0.084,0.292-0.172,0.44-0.256
		C226.4,182.448,226.252,182.52,226.1,182.608z"/>
	<path style="fill:#1A1A1A;" d="M224.524,183.52c-0.22,0.128-0.436,0.276-0.656,0.408c0.228-0.136,0.452-0.264,0.68-0.396
		C224.54,183.528,224.532,183.524,224.524,183.52z"/>
	<path style="fill:#1A1A1A;" d="M212.292,191.436c0.008,0.004,0.012,0.008,0.02,0.012c0.68-0.48,1.368-0.94,2.052-1.408
		C213.672,190.508,212.98,190.952,212.292,191.436z"/>
	<path style="fill:#1A1A1A;" d="M217.812,187.708c0.652-0.428,1.304-0.828,1.96-1.244
		C219.116,186.876,218.464,187.28,217.812,187.708z"/>
	<path style="fill:#1A1A1A;" d="M238,176.444c-0.224,0.104-0.444,0.22-0.664,0.324c0.224-0.104,0.448-0.216,0.672-0.316
		C238.004,176.448,238,176.448,238,176.444z"/>
	<path style="fill:#1A1A1A;" d="M282.644,202.676c4.368-2.084,3.828-6.756,1.156-9.468c-0.728-2.584-2.792-4.848-5.884-4.828
		c-7.204,0.06-30.172,2.164-39.912-11.928c-0.224,0.104-0.448,0.212-0.672,0.316c-1.692,0.788-3.38,1.608-5.06,2.48
		c-0.268,0.14-0.536,0.284-0.804,0.428c-1.64,0.86-3.28,1.756-4.916,2.688c-0.148,0.084-0.292,0.172-0.44,0.256
		c1.1,1.04,2.172,2.148,3.316,3.12c-1.664-0.652-3.252-1.448-4.88-2.208c-0.228,0.132-0.452,0.26-0.68,0.396
		c-1.368,0.816-2.732,1.672-4.096,2.536c-0.652,0.416-1.308,0.82-1.96,1.244c-1.156,0.752-2.304,1.544-3.452,2.332
		c-0.684,0.468-1.368,0.928-2.052,1.408c13.284,7.768,28.976,12.064,44.156,12.608C257.496,204.088,275.652,206.024,282.644,202.676
		z"/>
	<path style="fill:#1A1A1A;" d="M361.096,373.088c-0.824-0.364-1.672-0.708-2.556-1.028
		C359.424,372.376,360.268,372.724,361.096,373.088z"/>
	<path style="fill:#1A1A1A;" d="M355.424,371.044c1.052,0.308,2.076,0.64,3.064,0.996C357.5,371.684,356.48,371.352,355.424,371.044
		C355.424,371.04,355.424,371.044,355.424,371.044z"/>
	<path style="fill:#1A1A1A;" d="M363.584,374.308c-0.684-0.372-1.376-0.732-2.108-1.064
		C362.208,373.576,362.9,373.94,363.584,374.308z"/>
	<path style="fill:#1A1A1A;" d="M327.4,366.132L327.4,366.132c-0.148-0.024-0.3-0.048-0.448-0.068
		C327.1,366.088,327.252,366.112,327.4,366.132z"/>
	<path style="fill:#1A1A1A;" d="M321.308,365.224c-0.132-0.02-0.264-0.04-0.396-0.064
		C321.044,365.184,321.176,365.204,321.308,365.224z"/>
	<path style="fill:#1A1A1A;" d="M314.648,364.06c0.032,0.004,0.06,0.012,0.092,0.016C314.708,364.072,314.68,364.064,314.648,364.06
		L314.648,364.06z"/>
	<path style="fill:#1A1A1A;" d="M364.136,374.592c0.832,0.476,1.624,0.98,2.368,1.52c-0.004,0-0.004-0.004-0.008-0.004
		C365.752,375.568,364.964,375.064,364.136,374.592z"/>
	<path style="fill:#1A1A1A;" d="M366.888,376.372c8.46-39.388,17.476-77.088,4.544-117.928
		c-5.036-15.86-16.712-34.304-33.048-40.388c-13.468-5.016-26.48-4.768-40.728-4.212c-17.668,0.7-36.28,6.94-53.6,2.448
		c-3.316-0.86-5.804,0.812-7,3.176c-4.036,2.04-4.66,9.752,1.056,12.052c52.668,21.148,69.952,79.04,76.536,132.536
		c0.032,0.008,0.06,0.012,0.092,0.02c2.048,0.396,4.108,0.752,6.172,1.084c0.132,0.02,0.264,0.04,0.396,0.064
		c1.884,0.3,3.768,0.576,5.644,0.84c0.148,0.02,0.3,0.044,0.448,0.064c-6.18-52.064-21.72-106.812-65.252-135.78
		c14.056-0.532,28.28-3.672,42.216-4.228c30.2-1.196,47.748,12.812,56.576,40.672c11.108,35.084,2.4,69.824-5.516,104.248
		c1.052,0.312,2.076,0.644,3.064,1c0.016,0.004,0.032,0.012,0.048,0.016c0.884,0.32,1.732,0.664,2.556,1.028
		c0.124,0.056,0.256,0.1,0.38,0.156c0.732,0.332,1.428,0.692,2.108,1.064c0.18,0.096,0.376,0.184,0.552,0.284
		c0.828,0.472,1.616,0.976,2.36,1.516c0.004,0,0.004,0.004,0.008,0.004c0,0,0.004,0,0.004,0.004
		C366.636,376.2,366.76,376.28,366.888,376.372z"/>
	<path style="fill:#1A1A1A;" d="M414.796,275.612c-0.2-0.224-0.412-0.444-0.612-0.668c0.204,0.228,0.408,0.456,0.612,0.684
		C414.796,275.624,414.796,275.616,414.796,275.612z"/>
	<path style="fill:#1A1A1A;" d="M397.848,294.204c-4.908,6.296,3.916,15.252,8.868,8.868c6.324-8.152,8.292-17.636,8.08-27.444
		c-0.204-0.228-0.408-0.456-0.612-0.684c-4.516-5.04-9.144-10.06-13.796-15.008C403.284,272.08,404.768,285.288,397.848,294.204z"/>
	<path style="fill:#1A1A1A;" d="M287.776,354.204L287.776,354.204L287.776,354.204z"/>
	<path style="fill:#1A1A1A;" d="M284.92,352.1c-0.016-0.012-0.028-0.02-0.044-0.032C284.888,352.08,284.904,352.088,284.92,352.1z"
		/>
	<path style="fill:#1A1A1A;" d="M257.528,263.272c-18.304-12.196-42.496-17.18-62.924-24.792c-7.94-2.96-14.916-7.432-21.084-12.896
		c-3.144,3.292-6.252,6.672-9.332,10.152c10.972,8.924,24.456,14.024,37.944,18.76c24.916,8.752,52.764,15.336,67.944,38.776
		c10.556,16.28,12.22,36.46,12.1,56.4c0.864,0.844,1.764,1.64,2.7,2.396c0.016,0.012,0.028,0.02,0.044,0.032
		c0.92,0.74,1.876,1.444,2.856,2.104l0,0c1.996,1.344,4.108,2.524,6.316,3.576C293.868,321.712,290.692,285.368,257.528,263.272z"/>
	<path style="fill:#1A1A1A;" d="M193.644,206.212L193.644,206.212c0.048-0.036,0.092-0.076,0.136-0.112
		C193.736,206.136,193.688,206.172,193.644,206.212z"/>
	<path style="fill:#1A1A1A;" d="M203.444,198.072c-0.068,0.056-0.136,0.116-0.208,0.172c0.072-0.056,0.144-0.112,0.212-0.168
		C203.448,198.076,203.448,198.072,203.444,198.072z"/>
	<path style="fill:#1A1A1A;" d="M217.344,207.52c-4.944-2.732-9.564-5.916-13.896-9.444c-0.072,0.056-0.14,0.112-0.212,0.168
		c-3.172,2.504-6.332,5.124-9.456,7.852c-0.044,0.04-0.088,0.08-0.132,0.116c5.352,4.568,11.108,8.668,17.368,12.132
		C218.1,222.268,224.428,211.44,217.344,207.52z"/>
	<path style="fill:#1A1A1A;" d="M338.288,367.64c4.424,0.64,8.68,1.344,12.62,2.252c0-0.004,0-0.012,0-0.016
		C346.964,368.98,342.72,368.276,338.288,367.64C338.288,367.636,338.288,367.64,338.288,367.64z"/>
	<path style="fill:#1A1A1A;" d="M316.408,276.196c15.624,29.376,20.768,59.504,21.88,91.44c4.432,0.64,8.676,1.344,12.62,2.24
		c-0.988-35.076-6.564-67.848-23.684-100.008C323.424,262.728,312.604,269.064,316.408,276.196z"/>
	<path style="fill:#1A1A1A;" d="M237.472,393.46c1.228-6.14,2.472-12.064,3.804-17.752c-0.004-0.004-0.004-0.008-0.008-0.016
		c-1.332,5.684-2.58,11.604-3.808,17.748C237.464,393.448,237.468,393.452,237.472,393.46z"/>
	<path style="fill:#1A1A1A;" d="M207.572,332.572c-4.292-6.828-15.144-0.54-10.824,6.328c8.18,13.016,20.46,22.416,29.016,35.132
		c4.236,6.308,7.92,12.892,11.696,19.408c1.224-6.144,2.476-12.064,3.808-17.748c-2.412-4.176-4.892-8.312-7.576-12.304
		C226.124,352.132,214.836,344.116,207.572,332.572z"/>
	<path style="fill:#1A1A1A;" d="M215.984,476.568c-0.336,0.816-0.668,1.636-1.02,2.448
		C215.32,478.208,215.644,477.384,215.984,476.568z"/>
	<path style="fill:#1A1A1A;" d="M217.772,472.188c-0.004-0.004-0.008-0.004-0.012-0.008c-0.04,0.104-0.076,0.212-0.116,0.316
		C217.684,472.396,217.732,472.292,217.772,472.188z"/>
	<path style="fill:#1A1A1A;" d="M212.348,484.836c0.128-0.276,0.248-0.556,0.376-0.832c-0.128,0.276-0.26,0.548-0.388,0.824
		C212.34,484.832,212.344,484.832,212.348,484.836z"/>
	<path style="fill:#1A1A1A;" d="M154.276,396.836c-3.768-7.156-14.592-0.82-10.824,6.328c10.668,20.256,17.248,41.884,34.752,57.58
		c10.396,9.308,22.4,16.488,34.132,24.084c0.128-0.276,0.26-0.548,0.388-0.824c0.768-1.652,1.52-3.312,2.244-4.988
		c0.348-0.812,0.68-1.632,1.02-2.448c0.564-1.352,1.132-2.704,1.66-4.072c0.04-0.104,0.076-0.212,0.116-0.316
		c-7.208-4.912-14.572-9.576-21.78-14.088C172.7,443.5,166.324,419.72,154.276,396.836z"/>
	<path style="fill:#1A1A1A;" d="M255.032,338.212c0.004,0.004,0.004,0.008,0.008,0.016c2.472-3.904,5.304-7.252,8.552-10.016
		c-0.004-0.004-0.004-0.008-0.008-0.012C260.344,330.972,257.508,334.316,255.032,338.212z"/>
	<path style="fill:#1A1A1A;" d="M212.34,274.868c-5.96-5.428-14.852,3.416-8.872,8.868c18.516,16.908,40.072,31.772,51.564,54.476
		c2.476-3.896,5.312-7.244,8.552-10.016C250.9,306.744,231,291.904,212.34,274.868z"/>
	<path style="fill:#1A1A1A;" d="M224.22,452.904c-0.004-0.004-0.012-0.008-0.016-0.012c-0.08,0.276-0.16,0.552-0.24,0.824
		C224.04,453.444,224.14,453.176,224.22,452.904z"/>
	<path style="fill:#1A1A1A;" d="M220.028,466.06c0.032-0.096,0.06-0.192,0.092-0.288c-0.032,0.096-0.072,0.188-0.104,0.28
		C220.02,466.056,220.024,466.056,220.028,466.06z"/>
	<path style="fill:#1A1A1A;" d="M202.344,430.28c-12.136-17.42-17.12-38.82-34.416-52.476c-6.28-4.952-15.216,3.86-8.868,8.868
		c19.116,15.092,25.52,41.548,40.252,60.452c5.88,7.536,12.912,13.78,20.704,18.928c0.032-0.096,0.072-0.188,0.104-0.28
		c1.396-3.984,2.656-8.02,3.84-12.056c0.08-0.276,0.16-0.552,0.24-0.824C216.024,446.824,208.712,439.408,202.344,430.28z"/>
	<path style="fill:#1A1A1A;" d="M101.404,322.592l-0.024,0.04L101.404,322.592z"/>
	<path style="fill:#1A1A1A;" d="M94.424,334.208L94.424,334.208c0.068-0.112,0.136-0.228,0.204-0.344
		C94.564,333.98,94.492,334.096,94.424,334.208z"/>
	<path style="fill:#1A1A1A;" d="M127.244,417.276c3.752,7.172,14.58,0.836,10.824-6.32c-13.416-25.624-13.64-58.244-30.688-81.444
		c-1.812-2.452-3.844-4.748-5.976-6.92c-0.008,0.012-0.016,0.028-0.024,0.04c-2.3,3.768-4.544,7.496-6.748,11.232
		c-0.068,0.116-0.136,0.228-0.204,0.344c5.3,6.012,9.428,13.12,11.864,21.544C112.34,376.548,117.088,397.884,127.244,417.276z"/>
	<path style="fill:#1A1A1A;" d="M131.792,276.58L131.792,276.58c0.072-0.1,0.148-0.196,0.22-0.296
		C131.94,276.384,131.864,276.48,131.792,276.58z"/>
	<path style="fill:#1A1A1A;" d="M140.284,265.032c-0.112,0.148-0.22,0.3-0.332,0.448
		C140.064,265.332,140.176,265.184,140.284,265.032L140.284,265.032z"/>
	<path style="fill:#1A1A1A;" d="M232.576,418.188c-0.004-0.004-0.008-0.008-0.012-0.012c-0.136,0.668-0.28,1.34-0.42,2.012
		C232.284,419.524,232.44,418.848,232.576,418.188z"/>
	<path style="fill:#1A1A1A;" d="M244.488,363.32c1.38-4.74,2.892-9.2,4.592-13.336C247.384,354.124,245.868,358.576,244.488,363.32
		L244.488,363.32z"/>
	<path style="fill:#1A1A1A;" d="M250.944,345.728c-0.592,1.252-1.16,2.548-1.708,3.872
		C249.784,348.276,250.352,346.984,250.944,345.728z"/>
	<path style="fill:#1A1A1A;" d="M229.416,432.836c0.168-0.744,0.312-1.472,0.48-2.216c-0.164,0.736-0.32,1.468-0.488,2.204
		C229.408,432.828,229.412,432.832,229.416,432.836z"/>
	<path style="fill:#1A1A1A;" d="M166.832,338.048c17.5,36.16,34.588,67.876,62.572,94.776c0.168-0.736,0.324-1.468,0.488-2.204
		c0.78-3.496,1.532-6.972,2.252-10.432c0.14-0.672,0.284-1.344,0.42-2.012c-27.388-28.776-44.152-63.28-61.62-100.54
		c-2.524-5.38-4.724-10.536-6.904-15.512c0.232,0.124,0.428,0.272,0.66,0.408c16.096,9.46,35.064,11.852,51.176,21.928
		c15.524,9.704,22.68,23.632,28.612,38.856c1.38-4.74,2.896-9.196,4.592-13.332c0.052-0.128,0.104-0.256,0.156-0.384
		c0.548-1.324,1.12-2.62,1.708-3.872c0.012-0.024,0.02-0.048,0.032-0.072c-2.352-4.892-5.04-9.616-8.416-14.032
		c-9.176-11.98-24.124-22.164-38.084-27.6c-19.88-7.752-36.652-14.344-53.088-26.08c-3.056-4.468-6.68-8.756-11.1-12.908
		c-0.112,0.148-0.22,0.3-0.332,0.448c-2.688,3.56-5.328,7.164-7.944,10.8c-0.072,0.1-0.144,0.2-0.216,0.3
		c3.96,3.936,8.048,7.772,12.416,11.416C153.996,302.968,159.552,323.016,166.832,338.048z"/>
	<path style="fill:#1A1A1A;" d="M156.56,244.576c-0.088,0.104-0.172,0.212-0.26,0.316c0.088-0.104,0.176-0.208,0.264-0.312
		C156.564,244.58,156.56,244.576,156.56,244.576z"/>
	<path style="fill:#1A1A1A;" d="M148.576,254.332c0.004,0.004,0.008,0.004,0.012,0.008c0.152-0.192,0.304-0.388,0.46-0.584
		C148.892,253.952,148.732,254.136,148.576,254.332z"/>
	<path style="fill:#1A1A1A;" d="M177.62,258.212c-7.708-3.772-14.684-8.392-21.056-13.632c-0.088,0.104-0.176,0.208-0.264,0.312
		c-2.44,2.92-4.86,5.868-7.256,8.864c-0.152,0.192-0.304,0.388-0.46,0.584c6.888,5.668,14.424,10.636,22.704,14.7
		C178.532,272.584,184.888,261.772,177.62,258.212z"/>
	<path style="fill:#1A1A1A;" d="M154.108,354.884c-17.584-13.12-26.312-31.76-37.636-49.952c-0.632-1.024-1.348-2-2-3.016
		c-2.548,3.908-5.048,7.804-7.504,11.724c2.824,4.432,5.584,8.924,8.252,13.508c9.036,15.408,18.144,27.796,32.56,38.556
		C154.272,370.548,160.516,359.656,154.108,354.884z"/>
</g>
<g>
	<circle style="fill:#242424;" cx="323.672" cy="237.04" r="5.524"/>
</g>
<g>
</g>
<g>
</g>
<g>
</g>
<g>
</g>
<g>
</g>
<g>
</g>
<g>
</g>
<g>
</g>
<g>
</g>
<g>
</g>
<g>
</g>
<g>
</g>
<g>
</g>
<g>
</g>
<g>
</g>
</svg>
