<?xml version="1.0" encoding="iso-8859-1"?>
<!-- Generator: Adobe Illustrator 19.0.0, SVG Export Plug-In . SVG Version: 6.00 Build 0)  -->
<svg version="1.1" id="Layer_1" xmlns="http://www.w3.org/2000/svg" xmlns:xlink="http://www.w3.org/1999/xlink" x="0px" y="0px"
	 viewBox="0 0 512.001 512.001" style="enable-background:new 0 0 512.001 512.001;" xml:space="preserve">
<path style="fill:#E6E1D7;" d="M115.613,99.097c8.258,156.904,107.355,198.194,107.355,198.194h66.065
	c0,0,99.097-41.29,107.355-198.194H115.613z"/>
<path style="fill:#F0EBE1;" d="M256.001,0c-54.71,0-148.645,36.129-148.645,99.097l90.839,33.032l57.807-24.774l57.807,24.774
	l90.839-33.032C404.646,36.129,310.71,0,256.001,0z"/>
<path style="fill:#595966;" d="M107.355,99.097c74.323-74.323,99.097,24.774,99.097,24.774v57.807c0,0-66.065,8.258-82.581-74.323
	L107.355,99.097z"/>
<path style="fill:#FFC891;" d="M256.001,132.129h-57.807c0,33.032,8.258,181.678,57.807,297.291
	c49.548-115.613,57.807-264.259,57.807-297.291H256.001z"/>
<g>
	<circle style="fill:#464655;" cx="227.097" cy="185.807" r="12.387"/>
	<circle style="fill:#464655;" cx="284.904" cy="185.807" r="12.387"/>
	<circle style="fill:#464655;" cx="156.904" cy="99.097" r="16.516"/>
</g>
<path style="fill:#595966;" d="M404.646,99.097c-74.323-74.323-99.097,24.774-99.097,24.774v57.807c0,0,66.065,8.258,82.581-74.323
	L404.646,99.097z"/>
<circle style="fill:#464655;" cx="355.098" cy="99.097" r="16.516"/>
<path style="fill:#FFD7BE;" d="M256.001,90.839c-24.774,0-57.807,16.516-57.807,41.29c0,41.29,33.032,33.032,33.032,66.065
	s-8.258,272.517,24.774,313.807c33.032-41.29,24.774-280.775,24.774-313.807s33.032-24.774,33.032-66.065
	C313.807,107.355,280.775,90.839,256.001,90.839z"/>
<g>
</g>
<g>
</g>
<g>
</g>
<g>
</g>
<g>
</g>
<g>
</g>
<g>
</g>
<g>
</g>
<g>
</g>
<g>
</g>
<g>
</g>
<g>
</g>
<g>
</g>
<g>
</g>
<g>
</g>
</svg>
