<?xml version="1.0" encoding="iso-8859-1"?>
<!-- Generator: Adobe Illustrator 19.0.0, SVG Export Plug-In . SVG Version: 6.00 Build 0)  -->
<svg version="1.1" id="Layer_1" xmlns="http://www.w3.org/2000/svg" xmlns:xlink="http://www.w3.org/1999/xlink" x="0px" y="0px"
	 viewBox="0 0 512.001 512.001" style="enable-background:new 0 0 512.001 512.001;" xml:space="preserve">
<path style="fill:#B4AA5A;" d="M377.511,183.315c-1.539,0-3.094-0.427-4.48-1.329c-3.827-2.481-4.915-7.589-2.433-11.408
	c25.525-39.358,52.894-59.147,54.046-59.968c3.698-2.65,8.846-1.788,11.497,1.91c2.65,3.698,1.797,8.855-1.902,11.505
	c-0.258,0.194-26.089,18.967-49.8,55.529C382.861,181.993,380.21,183.315,377.511,183.315z"/>
<g>
	<path style="fill:#E6D7B9;" d="M400.594,301.664l-16.017-10.885c-3.779-2.562-8.903-1.579-11.465,2.183
		c-2.562,3.77-1.579,8.903,2.183,11.465l16.017,10.885c1.426,0.967,3.037,1.426,4.633,1.426c2.643,0,5.237-1.265,6.832-3.61
		C405.339,309.358,404.357,304.225,400.594,301.664z"/>
	<path style="fill:#E6D7B9;" d="M429.446,265.826c-2.683,0-5.317-1.306-6.905-3.722l-22.688-34.548
		c-2.498-3.811-1.442-8.919,2.369-11.425c3.811-2.498,8.927-1.45,11.425,2.369l22.688,34.548c2.498,3.811,1.442,8.919-2.369,11.425
		C432.573,265.391,431.001,265.826,429.446,265.826z"/>
	<path style="fill:#E6D7B9;" d="M412.938,290.577c-2.086,0-4.165-0.782-5.769-2.352l-24.751-24.235
		c-3.263-3.191-3.311-8.411-0.129-11.666c3.199-3.255,8.419-3.303,11.667-0.129l24.751,24.235c3.263,3.191,3.311,8.411,0.129,11.667
		C417.216,289.747,415.081,290.577,412.938,290.577z"/>
	<path style="fill:#E6D7B9;" d="M489.108,344.205c-3.352,0-6.494-2.054-7.735-5.374c-0.089-0.241-5.06-13.012-21.125-32.115
		c-2.933-3.489-2.481-8.694,1.008-11.626c3.489-2.941,8.686-2.481,11.626,1.008c18.217,21.681,23.743,36.393,23.969,37.014
		c1.571,4.278-0.621,9.016-4.899,10.587C491.017,344.044,490.051,344.205,489.108,344.205z"/>
	<path style="fill:#E6D7B9;" d="M465.026,367.924c-2.965,0-5.825-1.595-7.299-4.391l-19.079-36.095
		c-2.135-4.028-0.596-9.024,3.432-11.15c4.045-2.143,9.032-0.588,11.151,3.432l19.079,36.095c2.135,4.028,0.596,9.024-3.432,11.151
		C467.644,367.618,466.323,367.924,465.026,367.924z"/>
	<path style="fill:#E6D7B9;" d="M434.49,373.081c-2.739,0-5.423-1.361-6.993-3.859l-13.294-21.142
		c-2.426-3.859-1.265-8.952,2.595-11.376c3.859-2.409,8.952-1.265,11.376,2.595l13.294,21.142c2.426,3.859,1.265,8.952-2.595,11.376
		C437.512,372.669,435.988,373.081,434.49,373.081z"/>
</g>
<g>
	<path style="fill:#B19D5A;" d="M264.432,199.824c-2.672-5.518-41.251-49.178-57.752-49.308
		c-24.751-0.194-99.004,57.559-99.004,57.559l99.004,24.751L264.432,199.824z"/>
	<path style="fill:#B19D5A;" d="M223.18,290.577c0,0-115.505,24.751-123.755,16.501c-16.501-16.501-16.501-49.502-16.501-49.502
		h123.755L223.18,290.577z"/>
</g>
<path style="fill:#B4AA5A;" d="M181.928,224.575c0,0-103.816-50.19-123.755-49.502c-56.411,1.946-59.802,74.019-57.752,74.253
	c31.712,3.61,189.758,24.751,189.758,24.751L181.928,224.575z"/>
<path style="fill:#AF915A;" d="M272.682,183.323c0,0-103.704,22.241-114.527,52.664l-93.198-25.053
	c-4.383-1.16-8.927,1.426-10.112,5.825c-1.184,4.399,1.426,8.927,5.825,10.112l103.162,27.733
	c23.542,35.296,102.508,119.803,117.099,134.979c17.189,17.875,44.689,3.437,49.502,0L272.682,183.323z"/>
<path style="fill:#968C5A;" d="M511.942,340.079c0-8.25-8.25-17.189-8.25-17.189c-13.407,10.313-69.44,42.455-115.505,42.455
	c0,0-8.25-101.067,37.029-146.444c0,0-37.029-76.831-103.031-76.831c-33.001,0-50.727,10.701-57.752,24.751
	c-16.501,33.001-16.501,189.758,66.003,239.26c20.768,12.461,89.417-0.219,132.006-13.407
	C515.723,376.175,511.942,346.267,511.942,340.079z"/>
<path style="fill:#B4AA5A;" d="M272.682,175.072c-6.703-11.86-89.306,12.439-90.754,24.751c-0.688,5.843,4.109,37.12,16.501,41.252
	c24.751,8.25,66.003,8.25,74.253,8.25C280.932,249.326,290.916,207.334,272.682,175.072z"/>
<path style="fill:#968C5A;" d="M272.682,257.576c-2.111,0-4.23-0.805-5.841-2.426c-0.266-0.266-27.144-27.103-48.012-40.068
	c-3.876-2.409-5.06-7.493-2.659-11.361c2.401-3.876,7.493-5.06,11.361-2.659c22.511,13.986,49.84,41.275,50.992,42.436
	c3.215,3.223,3.215,8.444-0.016,11.666C276.896,256.771,274.793,257.576,272.682,257.576z"/>
<circle style="fill:#464655;" cx="351.062" cy="236.95" r="20.626"/>
<circle style="fill:#B9EB5A;" cx="429.441" cy="117.32" r="16.501"/>
<g>
</g>
<g>
</g>
<g>
</g>
<g>
</g>
<g>
</g>
<g>
</g>
<g>
</g>
<g>
</g>
<g>
</g>
<g>
</g>
<g>
</g>
<g>
</g>
<g>
</g>
<g>
</g>
<g>
</g>
</svg>
