<?xml version="1.0" encoding="iso-8859-1"?>
<!-- Generator: Adobe Illustrator 19.0.0, SVG Export Plug-In . SVG Version: 6.00 Build 0)  -->
<svg version="1.1" id="Layer_1" xmlns="http://www.w3.org/2000/svg" xmlns:xlink="http://www.w3.org/1999/xlink" x="0px" y="0px"
	 viewBox="0 0 512.001 512.001" style="enable-background:new 0 0 512.001 512.001;" xml:space="preserve">
<g>
	<circle style="fill:#BEA591;" cx="189.936" cy="33.033" r="33.032"/>
	<circle style="fill:#BEA591;" cx="322.065" cy="33.033" r="33.032"/>
</g>
<path style="fill:#9F8976;" d="M256.001,512c18.243,0,28.608-15.334,33.032-33.032c24.774-99.097,49.548-288,49.548-396.387
	C338.581,49.548,313.807,0,256.001,0S173.42,49.548,173.42,82.581c0,108.387,24.774,297.29,49.548,396.387
	C227.393,496.667,237.757,512,256.001,512z"/>
<g>
	<circle style="fill:#464655;" cx="214.71" cy="140.388" r="16.516"/>
	<circle style="fill:#464655;" cx="297.291" cy="140.388" r="16.516"/>
</g>
<path style="fill:#64555A;" d="M220.961,470.711c0.669,2.806,1.339,5.579,2.008,8.258c4.425,17.698,14.789,33.032,33.032,33.032
	s28.608-15.334,33.032-33.032c0.669-2.679,1.339-5.452,2.008-8.258H220.961z"/>
<path style="fill:#74666B;" d="M297.291,462.453c0,13.683-27.608,33.032-41.29,33.032s-41.29-19.35-41.29-33.032
	s18.487-24.774,41.29-24.774S297.291,448.77,297.291,462.453z"/>
<g>
</g>
<g>
</g>
<g>
</g>
<g>
</g>
<g>
</g>
<g>
</g>
<g>
</g>
<g>
</g>
<g>
</g>
<g>
</g>
<g>
</g>
<g>
</g>
<g>
</g>
<g>
</g>
<g>
</g>
</svg>
