<?xml version="1.0" encoding="iso-8859-1"?>
<!-- Generator: Adobe Illustrator 19.0.0, SVG Export Plug-In . SVG Version: 6.00 Build 0)  -->
<svg version="1.1" id="Layer_1" xmlns="http://www.w3.org/2000/svg" xmlns:xlink="http://www.w3.org/1999/xlink" x="0px" y="0px"
	 viewBox="0 0 512.001 512.001" style="enable-background:new 0 0 512.001 512.001;" xml:space="preserve">
<path style="fill:#7C665D;" d="M456.481,200.991c5.458-105.745-49.178-152.659-68.342-163.199l-8.258,16.516
	c0,0-16.525-26.034-57.807-33.032v16.516c0,0-24.784-26.034-66.065-33.032h-0.009h-0.009c-41.281,6.999-66.065,33.032-66.065,33.032
	V21.275c-41.281,6.999-57.807,33.032-57.807,33.032l-8.258-16.516c-19.164,10.54-73.8,57.455-68.342,163.199
	C20.797,242.949,0,293.087,0,340.623c0,111.74,114.615,166.619,256.001,166.619s256.001-54.879,256.001-166.619
	C512,293.087,491.204,242.949,456.481,200.991z"/>
<path style="fill:#9A8C88;" d="M379.872,222.339c0,66.132-55.459,119.742-123.871,119.742s-123.871-53.61-123.871-119.742
	s37.216-119.742,123.871-119.742S379.872,156.207,379.872,222.339z"/>
<path style="fill:#C0C0C6;" d="M355.088,408.145c-3.441,37.936-10.888,74.324-99.097,74.324s-95.656-36.387-99.097-74.324v-26.208
	h198.203L355.088,408.145z"/>
<ellipse style="fill:#878791;" cx="256.001" cy="399.888" rx="74.323" ry="33.032"/>
<g>
	<path style="fill:#FFFFFF;" d="M235.355,408.145L235.355,408.145c-11.355,0-20.645-9.29-20.645-20.645v-74.323
		c0-11.355,9.29-20.645,20.645-20.645l0,0c11.355,0,20.645,9.29,20.645,20.645V387.5
		C256.001,398.855,246.71,408.145,235.355,408.145z"/>
	<path style="fill:#FFFFFF;" d="M276.646,408.145L276.646,408.145c-11.355,0-20.645-9.29-20.645-20.645v-74.323
		c0-11.355,9.29-20.645,20.645-20.645l0,0c11.355,0,20.645,9.29,20.645,20.645V387.5
		C297.291,398.855,288.001,408.145,276.646,408.145z"/>
</g>
<path style="fill:#D3D3D7;" d="M256.008,152.145h-0.007h-0.007c-77.53,0.005-140.38,78.158-140.38,174.562
	c0,31.038,2.001,56.521,5.713,77.485c2.253,12.731,14.12,21.671,26.959,20.148c60.295-7.155,72.62-45.087,72.62-59.313
	c0-39.462,17.548-51.093,35.097-51.093s35.097,11.629,35.097,51.093c0,14.226,12.324,52.158,72.62,59.314
	c12.838,1.524,24.705-7.418,26.958-20.148c3.711-20.963,5.713-46.447,5.713-77.485C396.388,230.303,333.538,152.151,256.008,152.145
	z"/>
<ellipse style="fill:#878791;" cx="256.001" cy="234.726" rx="74.323" ry="41.29"/>
<g>
	<ellipse style="fill:#464655;" cx="90.839" cy="185.178" rx="16.516" ry="24.774"/>
	<ellipse style="fill:#464655;" cx="421.162" cy="185.178" rx="16.516" ry="24.774"/>
	<path style="fill:#464655;" d="M181.687,244.135L181.687,244.135c0,7.861,5.207,14.682,12.728,16.961
		c13.242,4.013,34.057,12.376,48.755,28.072c6.953,7.425,18.709,7.426,25.662,0.002c14.701-15.698,35.524-24.06,48.77-28.074
		c7.522-2.279,12.729-9.1,12.729-16.961l0,0c0-9.758-7.91-17.667-17.667-17.667H199.354
		C189.596,226.468,181.687,234.377,181.687,244.135z"/>
</g>
<g>
</g>
<g>
</g>
<g>
</g>
<g>
</g>
<g>
</g>
<g>
</g>
<g>
</g>
<g>
</g>
<g>
</g>
<g>
</g>
<g>
</g>
<g>
</g>
<g>
</g>
<g>
</g>
<g>
</g>
</svg>
