<?xml version="1.0" encoding="iso-8859-1"?>
<!-- Generator: Adobe Illustrator 19.0.0, SVG Export Plug-In . SVG Version: 6.00 Build 0)  -->
<svg version="1.1" id="Layer_1" xmlns="http://www.w3.org/2000/svg" xmlns:xlink="http://www.w3.org/1999/xlink" x="0px" y="0px"
	 viewBox="0 0 512 512" style="enable-background:new 0 0 512 512;" xml:space="preserve">
<g>
	<path style="fill:#7D5A55;" d="M214.711,243.611h-34.21c-7.895,0-15.097-6.105-16.387-13.887l-12.637-75.822
		c-1.089-6.557-7.283-15.637-12.984-19.065l-27.129-16.274c-3.911-2.346-5.178-7.419-2.83-11.331
		c2.346-3.911,7.419-5.185,11.331-2.83l27.129,16.274c9.944,5.967,18.871,19.088,20.774,30.515l12.637,75.822l34.306,0.082
		c4.565,0,8.258,3.693,8.258,8.258S219.276,243.611,214.711,243.611z"/>
	<path style="fill:#7D5A55;" d="M121.797,337.532c-1.081,0-2.137-0.065-3.145-0.21l-49.628-7.088
		c-4.516-0.645-7.653-4.831-7.008-9.347s4.846-7.629,9.347-7.008l49.629,7.088c2.274,0.323,6.524-0.846,8.298-2.266l28.387-22.71
		c4.492-3.589,12.064-7.338,17.629-8.726l25.016-6.25c4.411-1.138,8.903,1.58,10.008,6.008c1.113,4.419-1.58,8.903-6.008,10.008
		l-25.024,6.259c-3.274,0.823-8.662,3.484-11.298,5.605l-28.387,22.71C135.047,335.25,127.982,337.532,121.797,337.532z"/>
	<path style="fill:#7D5A55;" d="M161.039,512c-0.524,0-1.056-0.049-1.589-0.153c-4.476-0.871-7.395-5.21-6.524-9.686
		c6.177-31.669,16.089-83.951,16.363-89.402c-0.242-4.065-7.484-35.927-14.339-64.209c-1.049-4.33-0.258-8.911,2.17-12.573
		c2.42-3.653,6.323-6.17,10.71-6.895l16.621-2.775c4.508-0.782,8.742,2.291,9.5,6.79c0.75,4.492-2.291,8.75-6.79,9.5l-16.008,2.669
		c4.523,18.686,14.652,61.226,14.652,67.637c0,6.306-11.653,66.733-16.669,92.418C168.369,509.267,164.91,512,161.039,512z"/>
</g>
<g>
	<path style="fill:#64555A;" d="M148.651,326.186c-3.637,0-7.234-1.589-9.677-4.645c-4.275-5.347-3.412-13.137,1.927-17.411
		l14.193-11.355c4.975-3.976,13.049-7.976,19.209-9.508l25.008-6.258c6.646-1.637,13.371,2.371,15.024,9.008
		c1.661,6.637-2.371,13.362-9.008,15.024l-25.024,6.259c-2.678,0.669-7.581,3.097-9.726,4.814l-14.193,11.355
		C154.095,325.299,151.361,326.186,148.651,326.186z"/>
	<path style="fill:#64555A;" d="M214.711,247.74h-33.032c-6.839,0-12.387-5.548-12.387-12.387s5.548-12.387,12.387-12.387h33.032
		c6.839,0,12.387,5.548,12.387,12.387S221.55,247.74,214.711,247.74z"/>
	<path style="fill:#64555A;" d="M177.547,425.291c-6.839,0-12.387-5.548-12.387-12.387c-0.379-4.379-7.532-35.79-14.225-63.378
		c-1.314-5.451-0.315-11.217,2.742-15.831c3.048-4.605,7.96-7.774,13.476-8.685l16.613-2.775
		c6.766-1.138,13.137,3.427,14.257,10.177c1.129,6.75-3.435,13.129-10.177,14.257l-11.645,1.944
		c6.524,27.065,13.734,58.314,13.734,64.29C189.934,419.743,184.386,425.291,177.547,425.291z"/>
</g>
<g>
	<path style="fill:#7D5A55;" d="M297.289,243.611h34.21c7.895,0,15.097-6.105,16.387-13.887l12.637-75.822
		c1.089-6.557,7.283-15.637,12.984-19.065l27.129-16.274c3.911-2.346,5.178-7.419,2.83-11.331c-2.346-3.911-7.42-5.185-11.331-2.83
		l-27.129,16.274c-9.944,5.967-18.871,19.088-20.774,30.515l-12.637,75.822l-34.306,0.082c-4.565,0-8.258,3.693-8.258,8.258
		S292.724,243.611,297.289,243.611z"/>
	<path style="fill:#7D5A55;" d="M390.203,337.532c1.081,0,2.137-0.065,3.145-0.21l49.629-7.088c4.516-0.645,7.653-4.831,7.008-9.347
		c-0.645-4.516-4.846-7.629-9.347-7.008l-49.629,7.088c-2.274,0.323-6.524-0.846-8.298-2.266l-28.387-22.71
		c-4.492-3.589-12.064-7.338-17.629-8.726l-25.016-6.25c-4.411-1.138-8.903,1.58-10.008,6.008c-1.113,4.419,1.58,8.903,6.008,10.008
		l25.024,6.259c3.274,0.823,8.662,3.484,11.298,5.605l28.387,22.71C376.953,335.25,384.018,337.532,390.203,337.532z"/>
	<path style="fill:#7D5A55;" d="M350.961,512c0.524,0,1.056-0.049,1.589-0.153c4.476-0.871,7.395-5.21,6.524-9.686
		c-6.177-31.669-16.089-83.951-16.363-89.402c0.242-4.065,7.484-35.927,14.339-64.209c1.049-4.33,0.258-8.911-2.17-12.573
		c-2.42-3.653-6.323-6.17-10.71-6.895l-16.621-2.775c-4.508-0.782-8.742,2.291-9.5,6.79c-0.75,4.492,2.291,8.75,6.79,9.5
		l16.008,2.669c-4.524,18.686-14.653,61.225-14.653,67.636c0,6.306,11.653,66.733,16.669,92.418
		C343.631,509.267,347.09,512,350.961,512z"/>
</g>
<g>
	<path style="fill:#64555A;" d="M363.349,326.186c3.637,0,7.234-1.589,9.677-4.645c4.275-5.347,3.412-13.137-1.927-17.411
		l-14.193-11.355c-4.975-3.976-13.049-7.976-19.209-9.508l-25.008-6.258c-6.645-1.637-13.371,2.371-15.024,9.008
		c-1.661,6.637,2.371,13.362,9.008,15.024l25.024,6.259c2.678,0.669,7.581,3.097,9.726,4.814l14.193,11.355
		C357.905,325.299,360.639,326.186,363.349,326.186z"/>
	<path style="fill:#64555A;" d="M297.289,247.74h33.032c6.839,0,12.387-5.548,12.387-12.387s-5.548-12.387-12.387-12.387h-33.032
		c-6.839,0-12.387,5.548-12.387,12.387S290.45,247.74,297.289,247.74z"/>
	<path style="fill:#64555A;" d="M334.453,425.291c6.839,0,12.387-5.548,12.387-12.387c0.379-4.379,7.532-35.79,14.225-63.378
		c1.314-5.451,0.315-11.217-2.742-15.831c-3.048-4.605-7.96-7.774-13.476-8.685l-16.613-2.775
		c-6.766-1.138-13.137,3.427-14.258,10.177c-1.129,6.75,3.435,13.129,10.177,14.257l11.645,1.944
		c-6.524,27.065-13.734,58.314-13.734,64.29C322.066,419.743,327.614,425.291,334.453,425.291z"/>
	<path style="fill:#64555A;" d="M247.742,161.031c-14.451-10.322-41.29-33.032-41.29-82.58S239.484,0,239.484,0
		c-33.032,0-90.838,78.451-41.29,169.289h49.548V161.031z"/>
	<path style="fill:#64555A;" d="M264.258,161.031c14.452-10.322,41.29-33.032,41.29-82.58S272.516,0,272.516,0
		c33.032,0,90.838,78.451,41.29,169.289h-49.548V161.031z"/>
	<path style="fill:#64555A;" d="M305.548,284.901c-16.516,0-16.516-9.806-16.516-24.774h-66.064c0,14.968,0,24.774-16.516,24.774
		L256,317.933L305.548,284.901z"/>
</g>
<g>
	<path style="fill:#7D5A55;" d="M312.626,276.643H293.75c-18.876,0-23.594,33.032-37.75,33.032
		c-14.156,0-18.876-33.032-37.75-33.032h-18.876c-5.213,0-9.438,4.314-9.438,9.635v52.987c0,61.191,29.578,110.796,66.064,110.796
		l0,0c36.486,0,66.064-45.476,66.064-106.666v-57.117C322.064,280.957,317.839,276.643,312.626,276.643z"/>
	<path style="fill:#7D5A55;" d="M304.172,218.837c0,0,9.634,13.213,9.634,29.729c0,16.516-12.445,19.819-18.064,19.819s0,0-39.742,0
		s-34.122,0-39.742,0s-18.064-3.303-18.064-19.819c0-16.516,9.634-29.729,9.634-29.729"/>
</g>
<path style="fill:#64555A;" d="M256,309.675c-3.134,0-5.793-1.673-8.258-4.194v143.623c2.711,0.568,5.455,0.957,8.258,0.957
	c2.803,0,5.547-0.357,8.258-0.882V305.481C261.793,308.002,259.134,309.675,256,309.675z"/>
<path style="fill:#8C645A;" d="M256,152.773c-8.258,0-15.14,5.85-24.774,8.258c-12.758,3.19-23.482,3.037-30.8,2.169
	c-7.436-0.883-13.345,6.213-10.879,13.284c0.122,0.348,0.251,0.702,0.389,1.063c6.846,17.905-4.473,28.903,0,33.032
	c16.993,15.685,50.237,16.516,66.064,16.516s49.071-0.831,66.064-16.516c4.473-4.129-6.846-15.127,0-33.032
	c0.138-0.361,0.267-0.715,0.389-1.063c2.467-7.071-3.443-14.167-10.879-13.284c-7.319,0.868-18.043,1.021-30.8-2.169
	C271.14,158.623,264.258,152.773,256,152.773z"/>
<g>
</g>
<g>
</g>
<g>
</g>
<g>
</g>
<g>
</g>
<g>
</g>
<g>
</g>
<g>
</g>
<g>
</g>
<g>
</g>
<g>
</g>
<g>
</g>
<g>
</g>
<g>
</g>
<g>
</g>
</svg>
