<?xml version="1.0" encoding="iso-8859-1"?>
<!-- Generator: Adobe Illustrator 19.0.0, SVG Export Plug-In . SVG Version: 6.00 Build 0)  -->
<svg version="1.1" id="Layer_1" xmlns="http://www.w3.org/2000/svg" xmlns:xlink="http://www.w3.org/1999/xlink" x="0px" y="0px"
	 viewBox="0 0 512.001 512.001" style="enable-background:new 0 0 512.001 512.001;" xml:space="preserve">
<path style="fill:#74666B;" d="M371.614,33.032l8.258-16.516c-24.087-11.011-86.71-9.634-123.871,8.258V0
	c-36.473,0-72.258,14.452-99.097,33.032l-8.258-16.516c-43.355,23.742-57.807,55.847-57.807,90.839l12.47,149.639
	c2.827,33.926,12.174,66.94,27.527,97.325c25.321,50.114,65.564,122.282,92.132,132.909h33.032h33.032
	c26.567-10.627,66.811-82.794,92.131-132.909c15.353-30.386,24.702-63.398,27.528-97.325l12.47-149.639
	C421.162,80.925,401.204,44.042,371.614,33.032z"/>
<path style="fill:#464655;" d="M297.291,470.711c0,25.655-9.365,41.29-41.29,41.29s-41.29-15.636-41.29-41.29H297.291z"/>
<path style="fill:#64555A;" d="M313.807,432.723c0,22.576-1.032,54.503-57.807,54.503c-57.807,0-57.807-31.927-57.807-54.503
	s25.881-36.336,57.807-36.336S313.807,410.147,313.807,432.723z"/>
<g>
	<path style="fill:#9E9EA6;" d="M115.613,165.162c0,0-74.323-20.809-74.323-49.548c0-50.503,22.689-89.661,34.429-106.543
		c1.591-2.287,5.153-0.78,4.63,1.957c-3.999,20.928-11.48,66.257-6.026,88.069c3.255,13.019,41.29,16.516,41.29,16.516V165.162z"/>
	<path style="fill:#9E9EA6;" d="M396.388,165.162c0,0,74.323-20.809,74.323-49.548c0-50.502-22.689-89.661-34.429-106.543
		c-1.591-2.287-5.153-0.78-4.63,1.957c3.998,20.928,11.479,66.257,6.026,88.069c-3.255,13.019-41.29,16.516-41.29,16.516V165.162z"
		/>
</g>
<g>
	<circle style="fill:#464655;" cx="156.904" cy="214.71" r="16.516"/>
	<circle style="fill:#464655;" cx="355.098" cy="214.71" r="16.516"/>
	<path style="fill:#464655;" d="M199.972,423.115c3.692,7.816,10.585,12.449,15.528,15.7c5.073,3.339,7.468,5.129,7.468,7.122
		c0,4.565,3.693,8.258,8.258,8.258c4.565,0,8.258-3.693,8.258-8.258c0-11.113-8.621-16.782-14.911-20.92
		c-8.602-5.655-12.31-8.577-10.07-18.514C207.542,410.817,202.469,416.424,199.972,423.115z"/>
	<path style="fill:#464655;" d="M311.27,421.147c-2.938-6.329-8.324-11.575-15.398-15.6c0.03,0.274-0.051,0.534,0.007,0.808
		c2.259,10.629-2.121,13.709-9.379,18.807c-5.902,4.145-13.983,9.822-13.983,20.774c0,4.565,3.693,8.258,8.258,8.258
		c4.565,0,8.258-3.693,8.258-8.258c0-2.048,1.654-3.532,6.96-7.258C300.983,435.172,308.082,430.068,311.27,421.147z"/>
</g>
<g>
</g>
<g>
</g>
<g>
</g>
<g>
</g>
<g>
</g>
<g>
</g>
<g>
</g>
<g>
</g>
<g>
</g>
<g>
</g>
<g>
</g>
<g>
</g>
<g>
</g>
<g>
</g>
<g>
</g>
</svg>
