<?xml version="1.0" encoding="iso-8859-1"?>
<!-- Generator: Adobe Illustrator 19.0.0, SVG Export Plug-In . SVG Version: 6.00 Build 0)  -->
<svg version="1.1" id="Layer_1" xmlns="http://www.w3.org/2000/svg" xmlns:xlink="http://www.w3.org/1999/xlink" x="0px" y="0px"
	 viewBox="0 0 512.001 512.001" style="enable-background:new 0 0 512.001 512.001;" xml:space="preserve">
<g>
	<path style="fill:#64555A;" d="M162.714,41.29C141.38,10.666,96.305,0,71.875,0c-8.77,0-13.741,7.809-12.171,16.438
		c8.017,44.063-10.778,87.228,3.913,115.692c18.938,36.692,77.42,35.097,82.581,66.065l51.997-90.802L162.714,41.29z"/>
	<path style="fill:#64555A;" d="M349.288,41.29C370.622,10.666,415.697,0,440.127,0c8.77,0,13.741,7.809,12.171,16.438
		c-8.017,44.063,10.778,87.227-3.913,115.692c-18.938,36.692-77.42,35.097-82.581,66.065l-51.997-90.802L349.288,41.29z"/>
</g>
<path style="fill:#74666B;" d="M365.805,198.194c0-26.15,33.032-74.323,33.032-74.323s-42.666,3.441-57.807-24.774l24.774-8.258
	c-20.645-18.581-16.516-49.548-16.516-49.548s-28.478-16.479-93.287-16.479S162.714,41.29,162.714,41.29s4.129,30.968-16.516,49.548
	l24.774,8.258c-15.139,28.215-57.807,24.774-57.807,24.774s33.032,48.172,33.032,74.323c0,51.613-49.548,78.452-49.548,140.387
	c0,24.811,10.707,123.908,109.804,132.166h49.548h49.548c99.097-8.258,109.804-107.355,109.804-132.166
	C415.353,276.646,365.805,249.807,365.805,198.194z"/>
<path style="fill:#64555A;" d="M322.702,467.549c0,34.37-29.862,44.452-66.699,44.452s-66.699-10.082-66.699-44.452
	s29.862-71.124,66.699-71.124S322.702,433.178,322.702,467.549z"/>
<g>
	<path style="fill:#FFDEB7;" d="M164.17,459.543c0,0-12.699-66.027-33.031-66.027c-25.498,0-63.298-7.403-84.912-35.469
		c-4.702-6.105-14.416-1.847-13.066,5.739C39.755,400.879,66.446,453.794,164.17,459.543"/>
	<path style="fill:#FFDEB7;" d="M347.831,459.543c0,0,12.699-66.027,33.031-66.027c25.498,0,63.298-7.403,84.912-35.469
		c4.702-6.105,14.415-1.847,13.066,5.739C472.246,400.879,445.555,453.794,347.831,459.543"/>
</g>
<g>
	<circle style="fill:#464655;" cx="189.936" cy="223.009" r="16.516"/>
	<circle style="fill:#464655;" cx="322.066" cy="223.009" r="16.516"/>
	<circle style="fill:#464655;" cx="227.098" cy="450.107" r="12.387"/>
	<circle style="fill:#464655;" cx="284.904" cy="450.107" r="12.387"/>
</g>
<g>
</g>
<g>
</g>
<g>
</g>
<g>
</g>
<g>
</g>
<g>
</g>
<g>
</g>
<g>
</g>
<g>
</g>
<g>
</g>
<g>
</g>
<g>
</g>
<g>
</g>
<g>
</g>
<g>
</g>
</svg>
