<?xml version="1.0" encoding="iso-8859-1"?>
<!-- Generator: Adobe Illustrator 19.0.0, SVG Export Plug-In . SVG Version: 6.00 Build 0)  -->
<svg version="1.1" id="Layer_1" xmlns="http://www.w3.org/2000/svg" xmlns:xlink="http://www.w3.org/1999/xlink" x="0px" y="0px"
	 viewBox="0 0 512.001 512.001" style="enable-background:new 0 0 512.001 512.001;" xml:space="preserve">
<path style="fill:#FF8C78;" d="M66.065,177.549C24.774,218.839,0,252.904,0,342.71C0,429.366,114.615,474.84,256.001,474.84
	s256.001-45.474,256.001-132.129c0-89.807-24.774-123.871-66.065-165.162H66.065z"/>
<path style="fill:#6B676E;" d="M256.001,37.161c-173.42,0-198.194,74.323-198.194,123.871s17.852,65.82,24.774,107.355
	c8.258,49.548,41.29,57.807,84.305,53.958l89.115,7.977l89.115-7.977c43.014,3.848,76.047-4.41,84.305-53.958
	c6.922-41.535,24.774-57.807,24.774-107.355S429.42,37.161,256.001,37.161z"/>
<path style="fill:#464655;" d="M363.356,194.065c-41.29,24.774-90.839-8.258-107.355-8.258s-66.065,33.032-107.355,8.258
	c-33.663-20.197-78.278-34.875-89.147-8.294c4.616,31.796,17.458,48.866,23.082,82.617c8.258,49.548,41.29,57.807,84.305,53.958
	l89.115,7.977l89.115-7.977c43.014,3.848,76.047-4.41,84.305-53.958c5.625-33.75,18.466-50.82,23.082-82.617
	C441.634,159.19,397.019,173.867,363.356,194.065z"/>
<g>
	<ellipse style="fill:#6B676E;" cx="123.871" cy="251.871" rx="33.032" ry="41.29"/>
	<ellipse style="fill:#6B676E;" cx="388.13" cy="251.871" rx="33.032" ry="41.29"/>
	<path style="fill:#6B676E;" d="M346.839,342.71c0,59.291-45.231,82.581-90.839,82.581s-90.839-23.29-90.839-82.581
		s45.231-132.129,90.839-132.129S346.839,283.419,346.839,342.71z"/>
</g>
<g>
	<ellipse style="fill:#464655;" cx="123.871" cy="251.871" rx="16.516" ry="24.774"/>
	<ellipse style="fill:#464655;" cx="388.13" cy="251.871" rx="16.516" ry="24.774"/>
	<path style="fill:#464655;" d="M346.839,342.71c0-6.655-0.647-13.49-1.724-20.364c-18.082-5.722-45.898-8.213-52.964,3.848
		c-9.603,16.391-27.113,41.29-36.151,41.29c-9.037,0-26.549-24.899-36.151-41.29c-7.066-12.061-34.882-9.569-52.965-3.848
		c-1.076,6.874-1.724,13.708-1.724,20.364c0,59.29,45.231,82.581,90.839,82.581S346.839,402,346.839,342.71z"/>
</g>
<g>
</g>
<g>
</g>
<g>
</g>
<g>
</g>
<g>
</g>
<g>
</g>
<g>
</g>
<g>
</g>
<g>
</g>
<g>
</g>
<g>
</g>
<g>
</g>
<g>
</g>
<g>
</g>
<g>
</g>
</svg>
