<?xml version="1.0" encoding="iso-8859-1"?>
<!-- Generator: Adobe Illustrator 19.0.0, SVG Export Plug-In . SVG Version: 6.00 Build 0)  -->
<svg version="1.1" id="Layer_1" xmlns="http://www.w3.org/2000/svg" xmlns:xlink="http://www.w3.org/1999/xlink" x="0px" y="0px"
	 viewBox="0 0 512.001 512.001" style="enable-background:new 0 0 512.001 512.001;" xml:space="preserve">
<path style="fill:#4687D2;" d="M502.67,175.484c5.586,23.709,8.563,48.62,8.563,74.317c0,159.198-114.271,262.2-255.233,262.2
	S0.768,408.998,0.768,249.8c0-25.183,2.859-49.611,8.231-72.894L502.67,175.484z"/>
<path style="fill:#466693;" d="M8.048,316.591c9.504,42.169,27.984,78.726,53.155,108.45
	c45.411-20.103,70.927-102.976,70.927-102.976l-33.032-49.548C99.097,272.517,56.594,314.869,8.048,316.591z"/>
<g>
	<ellipse style="fill:#2D6EC8;" cx="256.001" cy="284.904" rx="66.065" ry="45.419"/>
	<path style="fill:#2D6EC8;" d="M8.999,176.906c-4.674,20.258-7.315,41.419-7.956,63.155
		c62.996,36.208,82.272-24.937,213.667,48.972v-112.72L8.999,176.906z"/>
	<path style="fill:#2D6EC8;" d="M503.002,176.906c4.674,20.258,7.315,41.419,7.956,63.155
		c-62.997,36.208-82.273-24.937-213.667,48.972v-112.72L503.002,176.906z"/>
</g>
<path style="fill:#46B8BE;" d="M284.736,297.291c58.07,0,68.482-64.598,143.677-74.323c83.811-10.839,91.745-65.605,76.628-90.839
	C462.526,61.167,355.703,0,256.001,0S49.474,61.167,6.961,132.128c-15.118,25.235-7.183,80,76.628,90.839
	c75.195,9.724,85.607,74.323,143.677,74.323h57.47V297.291z"/>
<g>
	<path style="fill:#464655;" d="M256.001,470.711c14.452,0,28.215-140.387,33.032-165.162c0-15.14-19.35-24.774-33.032-24.774
		c-13.683,0-33.032,9.634-33.032,24.774C227.785,330.323,241.549,470.711,256.001,470.711z"/>
	<ellipse style="fill:#464655;" cx="111.484" cy="301.42" rx="28.903" ry="37.161"/>
</g>
<path style="fill:#466693;" d="M503.953,316.591c-9.504,42.169-27.984,78.726-53.155,108.45
	c-45.411-20.103-70.926-102.976-70.926-102.976l33.032-49.548C412.904,272.517,455.407,314.869,503.953,316.591z"/>
<ellipse style="fill:#464655;" cx="400.517" cy="301.42" rx="28.903" ry="37.161"/>
<path style="fill:#469FC8;" d="M391.862,34.323C349.746,13.21,302.148,0,256.001,0s-93.746,13.21-135.862,34.323
	c56.059,32.107,82.499,188.646,135.862,188.646S335.804,66.43,391.862,34.323z"/>
<g>
</g>
<g>
</g>
<g>
</g>
<g>
</g>
<g>
</g>
<g>
</g>
<g>
</g>
<g>
</g>
<g>
</g>
<g>
</g>
<g>
</g>
<g>
</g>
<g>
</g>
<g>
</g>
<g>
</g>
</svg>
