<?xml version="1.0" encoding="iso-8859-1"?>
<!-- Generator: Adobe Illustrator 19.0.0, SVG Export Plug-In . SVG Version: 6.00 Build 0)  -->
<svg version="1.1" id="Layer_1" xmlns="http://www.w3.org/2000/svg" xmlns:xlink="http://www.w3.org/1999/xlink" x="0px" y="0px"
	 viewBox="0 0 512 512" style="enable-background:new 0 0 512 512;" xml:space="preserve">
<g>
	<path style="fill:#C85A41;" d="M283.701,313.501c3.476-2.936,8.694-2.517,11.637,0.975c8.33,9.847,17.878,18.58,21.565,21.846
		h76.063c4.347,0,8.605,1.766,11.678,4.839l44.709,44.709c3.073,3.073,4.839,7.331,4.839,11.678v37.87
		c0,4.565-3.693,8.258-8.258,8.258s-8.258-3.693-8.258-8.258v-37.87l-44.709-44.709h-76.063c-4.048,0-7.928-1.468-10.919-4.129
		c-3.992-3.532-14.234-12.903-23.258-23.572C279.782,321.662,280.217,316.453,283.701,313.501z"/>
	<path style="fill:#C85A41;" d="M327.628,327.251c-5.242,0.887-10.637-0.846-14.411-4.613l-13.508-13.508
		c-3.226-3.226-3.226-8.452,0-11.678s8.452-3.226,11.678,0l13.516,13.508l92.612-15.435c2.927-0.492,6.024-0.169,8.855,0.952
		l37.08,14.839c2.646,1.04,5,2.775,6.815,5.032l30.242,37.814c1.855,2.306,3.048,5.064,3.476,8l7.935,55.572
		c0.645,4.516-2.492,8.702-7.008,9.347c-0.395,0.057-0.791,0.081-1.178,0.081c-4.048,0-7.581-2.968-8.169-7.088l-7.943-55.572
		l-30.257-37.83l-37.129-14.855L327.628,327.251z"/>
	<path style="fill:#C85A41;" d="M508.173,227.68l-89.281,56.814c-1.984,1.274-4.275,2.129-6.855,2.484l-72.556,8.008
		c-0.307,0.032-0.613,0.049-0.911,0.049c-4.153,0-7.734-3.129-8.201-7.355c-0.5-4.533,2.775-8.613,7.306-9.113l0.939-0.104
		c0.026-3.142,1.815-6.138,4.875-7.493l72.782-32.274l38.572-38.572l7.766-38.838c0.887-4.476,5.201-7.419,9.718-6.475
		c4.468,0.895,7.371,5.242,6.475,9.718l-7.766,38.855c-0.653,3.202-2.21,6.113-4.516,8.419l-38.572,38.572
		c-1.274,1.274-2.726,2.314-4.645,3.258l-46.474,20.615l33.136-3.655l89.338-56.846c3.847-2.428,8.96-1.307,11.403,2.532
		C513.158,220.123,512.021,225.228,508.173,227.68z"/>
</g>
<path style="fill:#FFBE7D;" d="M377.805,227.164c0,0,5.935,24.774-17.032,12.645l-3.269,32.516c0,0,24.774-1.032,44.301-21.161
	C414.661,237.909,377.805,227.164,377.805,227.164z"/>
<path style="fill:#C85A41;" d="M410.837,184.71c0,0,9.29-12.17,2.064-30.062c-5.249-12.998-60.736-93.598-105.859-85.793
	c-3.529,0.61-4.152,5.385-0.939,6.97c32.407,15.987,40.736,45.791,40.736,45.791c-15.824,3.517-38.386-4.197-52.623-10.23
	c-3.605-1.528-6.773,2.887-4.182,5.822c19.938,22.573,65.35,64.364,89.835,73.447L410.837,184.71z"/>
<path style="fill:#E6785A;" d="M294.215,111.387c14.237,6.032,36.798,13.745,52.623,10.23c6.602,13.204,7.935,42.203,12.421,57.537
	c-24.213-16.56-54.069-44.788-69.224-61.946C287.441,114.274,290.61,109.858,294.215,111.387z"/>
<g>
	<path style="fill:#585661;" d="M330.738,94.456c-6.009-6.678-14.041-13.407-24.672-18.648c-3.236-1.596-2.512-6.356,1.045-6.961
		c14.077-2.398,29.157,3.812,43.406,13.859C342.827,84.984,334.304,88.902,330.738,94.456z"/>
	<path style="fill:#585661;" d="M294.216,111.377c6.091,2.578,13.706,5.464,21.666,7.649c-3.006,4.149-5.552,10.862-3.714,20.894
		c-8.72-8.333-16.461-16.311-22.138-22.73C287.427,114.245,290.597,109.845,294.216,111.377z"/>
</g>
<path style="fill:#E6785A;" d="M371.611,204.196c0-11.355,6.618-18.377,14.451-20.989c16.516-5.505,26.838-3.785,35.096,12.731
	c6.35,12.701-12.691,57.806-24.774,57.806C382.966,253.744,371.611,226.906,371.611,204.196z"/>
<g>
	<path style="fill:#C85A41;" d="M228.299,313.501c-3.476-2.936-8.694-2.517-11.637,0.975c-8.33,9.847-17.878,18.58-21.565,21.846
		h-76.063c-4.347,0-8.605,1.766-11.677,4.839L62.649,385.87c-3.073,3.073-4.838,7.331-4.838,11.678v37.87
		c0,4.565,3.693,8.258,8.258,8.258c4.565,0,8.258-3.693,8.258-8.258v-37.87l44.709-44.709h76.063c4.048,0,7.928-1.468,10.919-4.129
		c3.992-3.532,14.234-12.903,23.258-23.572C232.218,321.662,231.783,316.453,228.299,313.501z"/>
	<path style="fill:#C85A41;" d="M184.372,327.251c5.242,0.887,10.637-0.846,14.411-4.613l13.508-13.508
		c3.226-3.226,3.226-8.452,0-11.678c-3.226-3.226-8.451-3.226-11.677,0l-13.516,13.508l-92.612-15.435
		c-2.927-0.492-6.024-0.169-8.855,0.952l-37.08,14.839c-2.646,1.04-5,2.775-6.815,5.032l-30.242,37.814
		c-1.855,2.306-3.048,5.064-3.476,8l-7.935,55.572c-0.645,4.516,2.492,8.702,7.008,9.347c0.395,0.057,0.791,0.081,1.178,0.081
		c4.048,0,7.581-2.968,8.169-7.088l7.943-55.572l30.257-37.83l37.129-14.855L184.372,327.251z"/>
	<path style="fill:#C85A41;" d="M3.826,227.68l89.281,56.814c1.984,1.274,4.275,2.129,6.855,2.484l72.555,8.008
		c0.307,0.032,0.613,0.049,0.911,0.049c4.153,0,7.734-3.129,8.201-7.355c0.5-4.533-2.775-8.613-7.306-9.113l-0.939-0.104
		c-0.026-3.142-1.815-6.138-4.875-7.493l-72.782-32.274l-38.572-38.572l-7.766-38.838c-0.887-4.476-5.201-7.419-9.718-6.475
		c-4.468,0.895-7.371,5.242-6.475,9.718l7.766,38.855c0.653,3.202,2.21,6.113,4.516,8.419l38.572,38.572
		c1.274,1.274,2.726,2.314,4.645,3.258l46.474,20.615l-33.136-3.655l-89.337-56.846c-3.847-2.428-8.96-1.307-11.403,2.532
		C-1.158,220.123-0.021,225.228,3.826,227.68z"/>
</g>
<path style="fill:#FFBE7D;" d="M134.195,227.164c0,0-5.935,24.774,17.032,12.645l3.269,32.516c0,0-24.774-1.032-44.301-21.161
	C97.339,237.909,134.195,227.164,134.195,227.164z"/>
<path style="fill:#C85A41;" d="M101.163,184.71c0,0-9.29-12.17-2.064-30.062c5.249-12.998,60.736-93.598,105.859-85.793
	c3.529,0.61,4.152,5.385,0.939,6.97c-32.407,15.987-40.736,45.791-40.736,45.791c15.824,3.517,38.386-4.197,52.623-10.23
	c3.605-1.528,6.773,2.887,4.182,5.822c-19.938,22.573-65.35,64.364-89.835,73.447L101.163,184.71z"/>
<path style="fill:#E6785A;" d="M217.785,111.387c-14.237,6.032-36.799,13.745-52.623,10.23
	c-6.602,13.204-7.935,42.203-12.421,57.537c24.213-16.56,54.069-44.788,69.224-61.946
	C224.559,114.274,221.39,109.858,217.785,111.387z"/>
<g>
	<path style="fill:#585661;" d="M181.262,94.456c6.009-6.678,14.041-13.407,24.672-18.648c3.236-1.596,2.512-6.356-1.045-6.961
		c-14.077-2.398-29.157,3.812-43.406,13.859C169.173,84.984,177.696,88.902,181.262,94.456z"/>
	<path style="fill:#585661;" d="M217.784,111.377c-6.091,2.578-13.706,5.464-21.666,7.649c3.006,4.149,5.552,10.862,3.714,20.894
		c8.72-8.333,16.461-16.311,22.138-22.73C224.573,114.245,221.403,109.845,217.784,111.377z"/>
</g>
<path style="fill:#E6785A;" d="M140.389,204.196c0-11.355-6.618-18.377-14.451-20.989c-16.516-5.505-26.838-3.785-35.096,12.731
	c-6.35,12.701,12.691,57.806,24.774,57.806C129.034,253.744,140.389,226.906,140.389,204.196z"/>
<g>
	<path style="fill:#C85A41;" d="M214.71,204.196c-4.565,0-8.258-3.693-8.258-8.258v-16.516c0-4.565,3.693-8.258,8.258-8.258
		s8.258,3.693,8.258,8.258v16.516C222.968,200.503,219.275,204.196,214.71,204.196z"/>
	<path style="fill:#C85A41;" d="M297.29,204.196c-4.565,0-8.258-3.693-8.258-8.258v-16.516c0-4.565,3.693-8.258,8.258-8.258
		c4.565,0,8.258,3.693,8.258,8.258v16.516C305.548,200.503,301.854,204.196,297.29,204.196z"/>
</g>
<path style="fill:#E6785A;" d="M371.611,262.002c0-45.608-51.761-82.58-115.611-82.58s-115.611,36.972-115.611,82.58
	c0,23.154,26.272,44.078,53.93,59.072c2.725,1.477,4.862,3.911,5.978,6.918l0,0c3.713,10.005,12.872,16.589,23.076,16.589h65.256
	c10.204,0,19.363-6.585,23.076-16.589l0,0c1.116-3.006,3.253-5.44,5.978-6.918C345.34,306.08,371.611,285.156,371.611,262.002z"/>
<g>
</g>
<g>
</g>
<g>
</g>
<g>
</g>
<g>
</g>
<g>
</g>
<g>
</g>
<g>
</g>
<g>
</g>
<g>
</g>
<g>
</g>
<g>
</g>
<g>
</g>
<g>
</g>
<g>
</g>
</svg>
