<?xml version="1.0" encoding="iso-8859-1"?>
<!-- Generator: Adobe Illustrator 19.0.0, SVG Export Plug-In . SVG Version: 6.00 Build 0)  -->
<svg version="1.1" id="Layer_1" xmlns="http://www.w3.org/2000/svg" xmlns:xlink="http://www.w3.org/1999/xlink" x="0px" y="0px"
	 viewBox="0 0 512.001 512.001" style="enable-background:new 0 0 512.001 512.001;" xml:space="preserve">
<path style="fill:#F0EBE1;" d="M355.098,107.355h-99.097h-99.097c0,16.516-16.516,33.032-16.516,66.065
	s33.032,123.871,107.355,123.871h8.258h8.258c74.323,0,107.355-90.839,107.355-123.871S355.098,123.871,355.098,107.355z"/>
<ellipse style="fill:#595966;" cx="256.001" cy="74.323" rx="94.968" ry="74.323"/>
<path style="fill:#FF695F;" d="M355.098,74.323c-8.258-74.323-66.065-41.29-99.097-41.29S165.162,0,156.904,74.323
	c-7.295,65.66,57.807,148.645,57.807,148.645h41.29h41.29C297.291,222.968,362.392,139.983,355.098,74.323z"/>
<path style="fill:#C3554B;" d="M355.098,74.323c-0.357-3.218-0.84-6.165-1.377-8.991c-7.563-3.15-16.251-1.729-23.397,8.991
	c-16.516,24.774-41.29,123.871-74.323,123.871s-57.807-99.097-74.323-123.871c-7.146-10.72-15.834-12.141-23.396-8.991
	c-0.538,2.826-1.02,5.773-1.377,8.991c-7.295,65.66,57.807,148.645,57.807,148.645h41.29h41.29
	C297.291,222.968,362.392,139.983,355.098,74.323z"/>
<ellipse style="fill:#FFA52D;" cx="346.839" cy="107.355" rx="16.516" ry="24.774"/>
<ellipse style="fill:#464655;" cx="346.839" cy="107.355" rx="8.258" ry="12.387"/>
<ellipse style="fill:#FFA52D;" cx="165.162" cy="107.355" rx="16.516" ry="24.774"/>
<g>
	<ellipse style="fill:#464655;" cx="165.162" cy="107.355" rx="8.258" ry="12.387"/>
	<path style="fill:#464655;" d="M289.033,198.194c-6.155-12.311,0-49.548-33.032-49.548s-26.877,37.238-33.032,49.548
		c-8.258,16.516-23.112,9.946-16.516,33.032c33.031,115.612,32.585,280.772,49.548,280.775
		c16.963-0.003,16.516-165.163,49.548-280.775C312.144,208.14,297.291,214.71,289.033,198.194z"/>
</g>
<g>
</g>
<g>
</g>
<g>
</g>
<g>
</g>
<g>
</g>
<g>
</g>
<g>
</g>
<g>
</g>
<g>
</g>
<g>
</g>
<g>
</g>
<g>
</g>
<g>
</g>
<g>
</g>
<g>
</g>
</svg>
