<?xml version="1.0" encoding="iso-8859-1"?>
<!-- Generator: Adobe Illustrator 19.0.0, SVG Export Plug-In . SVG Version: 6.00 Build 0)  -->
<svg version="1.1" id="Layer_1" xmlns="http://www.w3.org/2000/svg" xmlns:xlink="http://www.w3.org/1999/xlink" x="0px" y="0px"
	 viewBox="0 0 512.001 512.001" style="enable-background:new 0 0 512.001 512.001;" xml:space="preserve">
<path style="fill:#F0EBE1;" d="M426.668,170.667c0,0,8.127-170.667-170.667-170.667S85.334,170.667,85.334,170.667
	s-32.508,16.254-16.254,81.27s48.762,162.54,48.762,162.54s65.016,48.762,138.159,48.762s138.159-48.762,138.159-48.762
	s32.508-97.524,48.762-162.54S426.668,170.667,426.668,170.667z"/>
<path style="fill:#CFCAC4;" d="M295.895,268.703h-79.79c-0.566,24.452-81.391,115.644-126.725,55.715
	c14.303,47.577,28.462,90.059,28.462,90.059s65.016,48.762,138.159,48.762s138.159-48.762,138.159-48.762
	s14.159-42.482,28.462-90.059C377.286,384.347,296.461,293.155,295.895,268.703z"/>
<path style="fill:#ADA9A7;" d="M304.763,333.207h-97.524c0,32.508-32.508,97.524-89.397,81.27c0,0,65.016,48.762,138.159,48.762
	s138.159-48.762,138.159-48.762C337.271,430.731,304.763,365.715,304.763,333.207z"/>
<path style="fill:#6B676E;" d="M256.001,0c-71.124,0-112.606,27.027-136.85,59.556c80.929-8.743,96.954,175.929,96.954,209.147
	h79.79c0-33.218,16.025-217.89,96.954-209.147C368.605,27.027,327.124,0,256.001,0z"/>
<path style="fill:#E6E1D7;" d="M322.909,349.461c2.259-46.511-38.056-203.175-66.909-203.175s-69.168,156.664-66.909,203.175
	H322.909z"/>
<g>
	<circle style="fill:#FFC850;" cx="207.239" cy="365.715" r="32.508"/>
	<circle style="fill:#FFC850;" cx="304.763" cy="365.715" r="32.508"/>
</g>
<path style="fill:#6B676E;" d="M256.001,503.873c20.318,0,37.926-130.032,48.762-146.286s-24.381-178.794-48.762-178.794
	s-59.598,162.54-48.762,178.794C218.074,373.842,235.683,503.873,256.001,503.873z"/>
<g>
	<path style="fill:#FF8C5A;" d="M272.066,347.509c-4.899-45.167-9.97-91.874-9.97-136.206c0-4.492-2.727-8.127-6.095-8.127
		c-3.369,0-6.095,3.635-6.095,8.127c0,44.334-5.071,91.04-9.97,136.206c-4.275,39.405-8.316,76.626-8.316,107.604
		c0,26.055,13.214,56.889,24.381,56.889s24.381-30.834,24.381-56.889C280.382,424.135,276.339,386.913,272.066,347.509z"/>
	<path style="fill:#FF8C5A;" d="M109.715,186.921c0,0,16.254,32.508,40.635,40.635c0,0,0-113.778-16.254-113.778
		S109.715,186.921,109.715,186.921z"/>
</g>
<g>
	<path style="fill:#464655;" d="M148.643,175.516c-0.758-11.886-1.855-24.036-3.436-34.394c-3.722-6.747-9.107-11.089-15.175-11.089
		c-3.643,0-7.014,1.659-9.97,4.345c-4.194,13.183-7.127,29.742-8.765,40.74c3.072,11.707,10.301,19.931,18.735,19.931
		C138.365,195.048,145.51,187.002,148.643,175.516z"/>
	<path style="fill:#464655;" d="M130.032,211.302c-1.169,0-2.315-0.157-3.448-0.393c6.463,6.986,14.527,13.567,23.765,16.647
		c0,0-0.003-12.849-0.619-29.891C144.618,206.094,137.686,211.302,130.032,211.302z"/>
</g>
<path style="fill:#FF8C5A;" d="M402.287,186.921c0,0-16.254,32.508-40.635,40.635c0,0,0-113.778,16.254-113.778
	S402.287,186.921,402.287,186.921z"/>
<g>
	<path style="fill:#464655;" d="M363.357,175.516c0.758-11.886,1.855-24.036,3.436-34.394c3.723-6.747,9.107-11.089,15.176-11.089
		c3.643,0,7.014,1.659,9.97,4.345c4.194,13.183,7.127,29.742,8.765,40.74c-3.073,11.707-10.302,19.931-18.735,19.931
		C373.635,195.048,366.491,187.002,363.357,175.516z"/>
	<path style="fill:#464655;" d="M381.969,211.302c1.169,0,2.315-0.157,3.448-0.393c-6.463,6.986-14.527,13.567-23.765,16.647
		c0,0,0.003-12.849,0.619-29.891C367.382,206.094,374.315,211.302,381.969,211.302z"/>
</g>
<g>
</g>
<g>
</g>
<g>
</g>
<g>
</g>
<g>
</g>
<g>
</g>
<g>
</g>
<g>
</g>
<g>
</g>
<g>
</g>
<g>
</g>
<g>
</g>
<g>
</g>
<g>
</g>
<g>
</g>
</svg>
