<?xml version="1.0" encoding="iso-8859-1"?>
<!-- Generator: Adobe Illustrator 19.0.0, SVG Export Plug-In . SVG Version: 6.00 Build 0)  -->
<svg version="1.1" id="Layer_1" xmlns="http://www.w3.org/2000/svg" xmlns:xlink="http://www.w3.org/1999/xlink" x="0px" y="0px"
	 viewBox="0 0 512.001 512.001" style="enable-background:new 0 0 512.001 512.001;" xml:space="preserve">
<path style="fill:#575778;" d="M445.936,272.517c0-24.774-173.42-99.097-189.936-99.097S66.065,247.742,66.065,272.517
	S33.032,437.678,49.548,462.453c16.516,24.774,66.065,49.548,206.452,49.548s189.936-24.774,206.452-49.548
	C478.969,437.678,445.936,297.291,445.936,272.517z"/>
<path style="fill:#5F5F7D;" d="M437.678,165.162l-181.678,24.774L74.323,165.162c-41.29,107.355-24.774,198.194,82.581,239.484
	c45.723,17.586,49.548,57.807,99.097,57.807s53.374-40.221,99.097-57.807C462.453,363.356,478.969,272.517,437.678,165.162z"/>
<path style="fill:#6E6987;" d="M256.001,0C115.613,0,57.807,49.548,57.807,123.871c0,107.355,74.323,99.097,116.564,184.853
	l81.63,5.083l81.63-5.082c42.241-85.757,116.564-77.499,116.564-184.854C454.194,49.548,396.388,0,256.001,0z"/>
<path style="fill:#646464;" d="M90.839,231.226c-14.371,0-16.516-25.871-16.516-41.29s2.145-41.29,16.516-41.29
	s16.516,25.87,16.516,41.29S105.21,231.226,90.839,231.226z"/>
<g>
	<ellipse style="fill:#464655;" cx="90.839" cy="189.936" rx="16.516" ry="41.29"/>
	<ellipse style="fill:#464655;" cx="421.162" cy="189.936" rx="16.516" ry="41.29"/>
	<path style="fill:#464655;" d="M256.001,470.711c13.758,0,12.979-11.785,24.774-49.139c16.516-52.302,57.807-81.549,57.807-123.871
		c0-26.495-38.598-46.05-73.257-23.682c-5.748,3.709-12.898,3.709-18.646,0c-34.66-22.369-73.258-2.813-73.258,23.681
		c0,42.323,41.29,71.57,57.807,123.871C243.022,458.924,242.243,470.711,256.001,470.711z"/>
</g>
<path style="fill:#E6E1D7;" d="M265.323,274.018c-5.748,3.709-12.899,3.709-18.646,0c-34.659-22.368-73.257-2.812-73.257,23.682
	c0,1.617,0.169,3.181,0.286,4.762c5.163,44.387,82.295,44.93,82.295,60.894c0-15.963,77.132-16.507,82.295-60.894
	c0.117-1.58,0.286-3.145,0.286-4.762C338.581,271.206,299.982,251.65,265.323,274.018z"/>
<g>
</g>
<g>
</g>
<g>
</g>
<g>
</g>
<g>
</g>
<g>
</g>
<g>
</g>
<g>
</g>
<g>
</g>
<g>
</g>
<g>
</g>
<g>
</g>
<g>
</g>
<g>
</g>
<g>
</g>
</svg>
