<?xml version="1.0" encoding="iso-8859-1"?>
<!-- Generator: Adobe Illustrator 19.0.0, SVG Export Plug-In . SVG Version: 6.00 Build 0)  -->
<svg version="1.1" id="Layer_1" xmlns="http://www.w3.org/2000/svg" xmlns:xlink="http://www.w3.org/1999/xlink" x="0px" y="0px"
	 viewBox="0 0 512.001 512.001" style="enable-background:new 0 0 512.001 512.001;" xml:space="preserve">
<path style="fill:#465F8C;" d="M371.614,74.323c0-34.575-80.383-33.032-115.613-33.032s-115.613-1.542-115.613,33.032
	c0,57.807-41.082,111.782-41.082,174.289c0,53.191,62.678,114.744,156.695,114.744s156.695-61.553,156.695-114.744
	C412.695,186.105,371.614,132.129,371.614,74.323z"/>
<path style="fill:#4687A0;" d="M370.884,66.065C363.224,24.774,324.931,0,256.001,0S148.776,24.774,141.117,66.065
	c-7.658,41.29,45.953,206.452,114.883,206.452S378.542,107.355,370.884,66.065z"/>
<g>
	<ellipse style="fill:#464655;" cx="152.775" cy="115.613" rx="12.387" ry="24.774"/>
	<ellipse style="fill:#464655;" cx="359.227" cy="115.613" rx="12.387" ry="24.774"/>
</g>
<path style="fill:#FFE150;" d="M256.006,512c-43.355,0-90.844-19.957-90.844-66.065c0-143.808,22.867-237.31,38.465-302.032
	c1.285-5.333,7.571-7.636,11.977-4.37c9.849,7.301,26.038,17.37,40.396,17.37s30.547-10.07,40.396-17.37
	c4.407-3.266,10.692-0.963,11.977,4.37c15.6,64.721,38.47,158.224,38.47,302.033C346.844,492.043,299.355,512,256.006,512z"/>
<g>
	<path style="fill:#464655;" d="M222.968,239.484c-4.565,0-8.258-3.693-8.258-8.258v-8.258c0-4.565,3.693-8.258,8.258-8.258
		s8.258,3.693,8.258,8.258v8.258C231.226,235.791,227.533,239.484,222.968,239.484z"/>
	<path style="fill:#464655;" d="M289.033,239.484c-4.565,0-8.258-3.693-8.258-8.258v-8.258c0-4.565,3.693-8.258,8.258-8.258
		c4.565,0,8.258,3.693,8.258,8.258v8.258C297.291,235.791,293.598,239.484,289.033,239.484z"/>
</g>
<path style="fill:#595966;" d="M256.005,462.453c-16.94,0-21.369,35.878-28.287,46.598c9.278,1.947,18.87,2.95,28.287,2.95
	c9.414,0,19.003-1.004,28.279-2.949C277.367,498.333,272.945,462.453,256.005,462.453z"/>
<g>
</g>
<g>
</g>
<g>
</g>
<g>
</g>
<g>
</g>
<g>
</g>
<g>
</g>
<g>
</g>
<g>
</g>
<g>
</g>
<g>
</g>
<g>
</g>
<g>
</g>
<g>
</g>
<g>
</g>
</svg>
