<?xml version="1.0" encoding="iso-8859-1"?>
<!-- Generator: Adobe Illustrator 19.0.0, SVG Export Plug-In . SVG Version: 6.00 Build 0)  -->
<svg version="1.1" id="Layer_1" xmlns="http://www.w3.org/2000/svg" xmlns:xlink="http://www.w3.org/1999/xlink" x="0px" y="0px"
	 viewBox="0 0 512.001 512.001" style="enable-background:new 0 0 512.001 512.001;" xml:space="preserve">
<path style="fill:#AFAA8C;" d="M462.453,313.807c-2.681,11.608-61.936,102.194-217.807,102.194
	c-108.387,0-98.317-134.41-128.126-134.41v-51.18C146.329,230.41,136.258,96,244.646,96c146.246,0,218.839,83.613,221.52,95.22
	L462.453,313.807z"/>
<g>
	<path style="fill:#968769;" d="M272.517,97.06c-5.388-0.408-10.9-0.69-16.516-0.859v319.593c5.624-0.163,11.156-0.409,16.516-0.802
		V97.06z"/>
	<path style="fill:#968769;" d="M206.452,102.934c-6.038,2.43-11.541,5.398-16.516,8.851v288.432
		c4.976,3.454,10.478,6.421,16.516,8.851V102.934z"/>
	<path style="fill:#968769;" d="M239.484,96.203c-5.853,0.243-11.361,0.872-16.516,1.882v315.831
		c5.155,1.011,10.663,1.639,16.516,1.882V96.203z"/>
	<path style="fill:#968769;" d="M173.42,126.619c-6.572,7.506-11.966,15.878-16.516,24.537v209.688
		c4.55,8.66,9.944,17.031,16.516,24.537V126.619z"/>
	<path style="fill:#968769;" d="M454.194,328.245c5.062-6.949,7.739-12.189,8.258-14.438l3.713-122.587
		c-0.589-2.554-4.573-8.598-11.971-16.466V328.245z"/>
	<path style="fill:#968769;" d="M140.387,320.702V191.297c-5.684,16.304-10.225,29.926-16.516,35.876v57.653
		C130.163,290.776,134.704,304.398,140.387,320.702z"/>
	<path style="fill:#968769;" d="M404.646,136.559c-5.18-3.01-10.675-5.976-16.516-8.855V383.21
		c5.882-3.149,11.396-6.397,16.516-9.705V136.559z"/>
	<path style="fill:#968769;" d="M305.549,101.161c-5.363-0.933-10.881-1.734-16.516-2.43v314.617
		c5.669-0.69,11.162-1.513,16.516-2.442V101.161z"/>
	<path style="fill:#968769;" d="M437.678,159.408c-4.875-4.03-10.38-8.212-16.516-12.427v214.716
		c6.252-4.924,11.767-9.813,16.516-14.495V159.408z"/>
	<path style="fill:#968769;" d="M371.614,120.218c-5.277-2.197-10.792-4.291-16.516-6.283v283.971
		c5.765-2.092,11.266-4.317,16.516-6.642V120.218z"/>
	<path style="fill:#968769;" d="M338.581,108.7c-5.334-1.523-10.844-2.93-16.516-4.222v303.155
		c5.721-1.316,11.188-2.797,16.516-4.359V108.7z"/>
</g>
<path style="fill:#A59673;" d="M0,256.001c0,37.161,24.774,57.807,24.774,57.807s19.613-33.032,82.581-33.032
	s60.903,99.097,165.162,99.097c120.711,0,206.099-77.541,233.336-108.259c3.357-3.786,2.463-9.65-1.806-12.364
	c-7.245-4.608-16.82-10.825-16.82-11.506c0-18.065,24.774-24.774,24.774-24.774c-13.421-8.26-107.356-90.839-239.483-90.839
	c-104.258,0-102.194,99.097-165.162,99.097s-82.581-33.032-82.581-33.032S0,218.839,0,256.001"/>
<path style="fill:#968769;" d="M512,222.968c-9.83-6.049-62.888-51.94-142.474-76.079c25.599,13.143,76.41,47.46,76.41,113.117
	v6.939c0,41.138-25.551,68.313-49.554,84.831c55.428-25.722,93.972-62.502,110.18-80.972c2.971-3.386,2.191-8.569-1.611-10.982
	c-7.324-4.647-17.725-11.371-17.725-12.081C487.227,229.678,512,222.968,512,222.968z"/>
<g>
	<circle style="fill:#464655;" cx="454.194" cy="214.71" r="8.258"/>
	<circle style="fill:#464655;" cx="462.453" cy="247.742" r="8.258"/>
</g>
<path style="fill:#AFAA8C;" d="M82.581,256.001c0-9.099,1.416-17.865,4.015-26.105c-46.588-6.131-61.822-31.702-61.822-31.702
	S0,218.839,0,256.001s24.774,57.807,24.774,57.807s15.234-25.571,61.822-31.702C83.997,273.865,82.581,265.099,82.581,256.001z"/>
<g>
	<path style="fill:#968769;" d="M33.032,256.001c0-12.338,23.031-20.068,34.689-30.075c-31.871-9.313-42.947-27.732-42.947-27.732
		S0,218.839,0,256.001s24.774,57.807,24.774,57.807s11.076-18.42,42.947-27.732C56.063,276.069,33.032,268.338,33.032,256.001z"/>
	<path style="fill:#968769;" d="M371.533,271.363c-0.637-4.492-4.798-7.645-9.29-7.032c-4.524,0.621-7.685,4.782-7.073,9.299
		c0.105,0.766,2.718,18.919,17.411,37.992c8.11,10.534,21.058,22.631,41.071,31.527c6.446-3.459,12.619-7.035,18.512-10.684
		C378.844,315.595,371.836,273.447,371.533,271.363z"/>
	<path style="fill:#968769;" d="M395.339,247.806c-4.524,0.581-7.718,4.717-7.145,9.242c0.075,0.554,6.934,47.127,58.364,66.018
		c5.867-4.036,11.428-8.091,16.597-12.097c-51.671-12.435-58.288-53.922-58.581-56.042
		C403.984,250.419,399.872,247.315,395.339,247.806z"/>
	<circle style="fill:#968769;" cx="280.775" cy="305.549" r="16.516"/>
	<circle style="fill:#968769;" cx="309.678" cy="202.323" r="12.387"/>
	<circle style="fill:#968769;" cx="202.323" cy="235.355" r="12.387"/>
</g>
<g>
</g>
<g>
</g>
<g>
</g>
<g>
</g>
<g>
</g>
<g>
</g>
<g>
</g>
<g>
</g>
<g>
</g>
<g>
</g>
<g>
</g>
<g>
</g>
<g>
</g>
<g>
</g>
<g>
</g>
</svg>
