<?xml version="1.0" encoding="iso-8859-1"?>
<!-- Generator: Adobe Illustrator 19.0.0, SVG Export Plug-In . SVG Version: 6.00 Build 0)  -->
<svg version="1.1" id="Layer_1" xmlns="http://www.w3.org/2000/svg" xmlns:xlink="http://www.w3.org/1999/xlink" x="0px" y="0px"
	 viewBox="0 0 512.001 512.001" style="enable-background:new 0 0 512.001 512.001;" xml:space="preserve">
<g>
	<path style="fill:#FFC878;" d="M156.904,111.484c-12.387-20.645-43.355-49.548-74.323-49.548c0,0,16.516,16.516,16.516,66.065
		h24.774L156.904,111.484z"/>
	<path style="fill:#FFC878;" d="M67.649,242.44c-8.354,8.611-12.254,10.361-18.101,1.174c-7.226-11.355-38.194-69.161-41.29-66.065
		S0,180.646,0,194.065c0,13.419,16.516,58.839,16.516,74.323C16.516,283.831,0,329.13,0,342.514c0,13.383,5.161,13.383,8.258,16.472
		s34.065-54.564,41.29-65.89c5.852-9.171,9.754-7.415,18.122,1.192L67.649,242.44z"/>
</g>
<path style="fill:#FFEBD2;" d="M512,227.097l-12.083-24.165c-4.672-9.345-5.728-19.846-4.615-30.234
	c0.246-2.296,0.247-4.667-0.029-7.099c-1.211-10.68-8.319-19.848-17.681-25.128c-4.267-2.406-8.325-3.647-12.182-4.057
	c-9.703-1.03-18.785-4.856-25.384-12.023c-3.817-4.22-7.834-8.252-11.972-12.157c-0.096-0.09-0.19-0.182-0.286-0.273
	c-38.419-36.117-90.103-58.285-146.994-58.285c-118.581,0-214.71,96.129-214.71,214.71s96.129,214.71,214.71,214.71
	s214.71-96.129,214.71-214.71c0-0.548-0.037-1.087-0.041-1.633l0.122,0.25C495.999,248.115,504.951,234.148,512,227.097z"/>
<path style="fill:#FFD77D;" d="M512,227.097l-12.083-24.165c-4.672-9.345-5.728-19.846-4.615-30.234
	c0.246-2.296,0.247-4.667-0.029-7.099c-1.211-10.68-8.319-19.848-17.681-25.128c-4.267-2.406-8.325-3.647-12.182-4.057
	c-9.703-1.03-18.785-4.856-25.384-12.023c-3.817-4.22-7.834-8.252-11.972-12.157c-0.096-0.09-0.19-0.182-0.286-0.273
	c-38.419-36.117-90.103-58.285-146.994-58.285c-118.581,0-214.71,96.129-214.71,214.71c0,25.718,4.536,50.373,12.827,73.226
	c53.238-15.42,30.898-145.21,160.593-180.582c90.839-24.774,165.162,8.258,198.194,82.581c22.499,50.622,41.29,49.548,57.605,32.727
	c0.096-2.645,0.201-5.285,0.201-7.953c0-0.548-0.037-1.087-0.041-1.633l0.122,0.25C495.999,248.115,504.951,234.148,512,227.097z"/>
<circle style="fill:#FFC878;" cx="462.453" cy="169.291" r="33.032"/>
<path style="fill:#FAB45F;" d="M470.711,243.613c-2.137,0-4.275-0.823-5.895-2.468c-3.194-3.258-3.145-8.484,0.105-11.685
	c7.282-7.145,15.927-10.621,26.435-10.621h12.387c4.565,0,8.258,3.693,8.258,8.258s-3.693,8.258-8.258,8.258h-12.387
	c-6.21,0-10.653,1.758-14.855,5.895C474.887,242.823,472.799,243.613,470.711,243.613z"/>
<path style="fill:#FFC878;" d="M346.839,28.903c-11.011,0,0,74.323,0,74.323l24.774,16.516l24.774-74.323
	C396.388,45.419,371.955,28.903,346.839,28.903z"/>
<path style="fill:#FFD77D;" d="M146.251,262.524c-0.831-0.742-1.654-1.322-2.726-1.734c-1.484-0.662-3.137-0.831-4.791-0.5
	c-0.492,0.089-0.992,0.25-1.484,0.5c-0.5,0.161-0.992,0.411-1.492,0.742c-0.411,0.25-0.823,0.662-1.234,0.992
	c-0.742,0.823-1.322,1.654-1.734,2.726c-0.5,0.992-0.662,2.065-0.662,3.137c0,2.226,0.823,4.29,2.395,5.863
	c1.565,1.565,3.629,2.395,5.863,2.395c2.226,0,4.29-0.831,5.863-2.395c1.565-1.572,2.395-3.637,2.395-5.863
	c0-1.073-0.25-2.145-0.662-3.137C147.573,264.178,146.992,263.347,146.251,262.524z"/>
<path style="fill:#FFC878;" d="M96.702,262.524c-0.411-0.33-0.831-0.742-1.322-0.992c-0.411-0.33-0.911-0.581-1.403-0.742
	c-0.5-0.25-0.992-0.411-1.484-0.5c-1.654-0.33-3.306-0.161-4.791,0.5c-1.073,0.411-1.984,0.992-2.726,1.734
	c-0.742,0.823-1.322,1.654-1.734,2.726c-0.411,0.992-0.662,2.065-0.662,3.137c0,2.226,0.823,4.29,2.395,5.863
	c0.823,0.742,1.734,1.322,2.726,1.815c0.992,0.411,2.065,0.581,3.137,0.581c2.226,0,4.29-0.831,5.863-2.395
	c1.565-1.572,2.395-3.637,2.395-5.863c0-1.073-0.25-2.145-0.662-3.137C98.024,264.178,97.443,263.347,96.702,262.524z"/>
<g>
	<path style="fill:#FFD77D;" d="M195.798,262.524c-1.903-1.903-4.791-2.807-7.516-2.234c-0.492,0.089-0.992,0.25-1.484,0.5
		c-0.5,0.161-0.992,0.411-1.492,0.742c-0.411,0.25-0.823,0.662-1.234,0.992c-0.742,0.823-1.322,1.734-1.734,2.726
		c-0.411,0.992-0.662,2.065-0.662,3.137c0,2.226,0.823,4.29,2.395,5.863c0.823,0.742,1.734,1.322,2.726,1.815
		c0.992,0.411,2.065,0.581,3.137,0.581c1.073,0,2.145-0.169,3.137-0.581c0.992-0.492,1.895-1.073,2.726-1.815
		c1.565-1.572,2.395-3.637,2.395-5.863c0-1.073-0.25-2.145-0.662-3.137C197.121,264.178,196.54,263.347,195.798,262.524z"/>
	<path style="fill:#FFD77D;" d="M245.347,262.524c-2.314-2.314-6.033-2.976-9-1.734c-1.073,0.411-1.903,0.992-2.726,1.734
		c-0.742,0.823-1.322,1.654-1.734,2.726c-0.5,0.992-0.662,2.065-0.662,3.137c0,2.226,0.823,4.29,2.395,5.863
		c0.823,0.742,1.734,1.322,2.726,1.815c0.992,0.411,2.065,0.581,3.137,0.581s2.145-0.169,3.137-0.581
		c0.992-0.492,1.895-1.073,2.726-1.815c1.565-1.572,2.395-3.637,2.395-5.863c0-1.073-0.25-2.145-0.662-3.137
		C246.67,264.178,246.089,263.347,245.347,262.524z"/>
	<path style="fill:#FFD77D;" d="M294.895,262.524c-1.984-1.903-4.791-2.807-7.516-2.234c-0.492,0.089-0.992,0.25-1.484,0.5
		c-0.5,0.161-0.992,0.411-1.492,0.742c-0.411,0.25-0.823,0.662-1.234,0.992c-0.742,0.823-1.322,1.654-1.734,2.726
		c-0.5,0.992-0.662,2.065-0.662,3.137c0,2.226,0.823,4.29,2.395,5.863c1.565,1.565,3.629,2.395,5.863,2.395
		c2.226,0,4.29-0.831,5.863-2.395c1.565-1.572,2.395-3.637,2.395-5.863c0-1.073-0.25-2.145-0.662-3.137
		C296.218,264.178,295.637,263.347,294.895,262.524z"/>
	<path style="fill:#FFD77D;" d="M344.444,262.524c-0.411-0.33-0.831-0.742-1.242-0.992c-0.492-0.33-0.992-0.581-1.484-0.742
		c-0.5-0.25-0.992-0.411-1.572-0.5c-1.565-0.33-3.218-0.161-4.702,0.5c-1.073,0.411-1.904,0.992-2.726,1.734
		c-0.742,0.823-1.322,1.654-1.734,2.726c-0.411,0.992-0.662,2.065-0.662,3.137c0,2.226,0.823,4.29,2.395,5.863
		c1.565,1.565,3.629,2.395,5.863,2.395c2.226,0,4.29-0.831,5.863-2.395c1.565-1.572,2.395-3.637,2.395-5.863
		c0-1.073-0.25-2.145-0.662-3.137C345.767,264.178,345.186,263.347,344.444,262.524z"/>
	<path style="fill:#FFD77D;" d="M393.992,262.524c-0.411-0.33-0.831-0.742-1.322-0.992c-0.411-0.33-0.911-0.581-1.403-0.742
		c-0.5-0.25-0.992-0.411-1.572-0.5c-1.073-0.242-2.145-0.242-3.137,0c-0.573,0.089-1.073,0.25-1.565,0.5
		c-0.5,0.161-0.992,0.411-1.492,0.742c-0.411,0.25-0.823,0.662-1.234,0.992c-0.742,0.823-1.322,1.654-1.734,2.726
		c-0.5,0.992-0.662,2.065-0.662,3.137c0,2.226,0.823,4.29,2.395,5.863c1.565,1.565,3.629,2.395,5.863,2.395
		c1.073,0,2.145-0.169,3.137-0.581c0.992-0.492,1.895-1.073,2.726-1.815c1.565-1.572,2.395-3.637,2.395-5.863
		c0-1.073-0.25-2.145-0.662-3.137C395.315,264.178,394.734,263.347,393.992,262.524z"/>
	<path style="fill:#FFD77D;" d="M443.54,262.524c-0.831-0.742-1.734-1.322-2.726-1.734c-1.484-0.662-3.137-0.831-4.791-0.5
		c-0.492,0.089-0.992,0.25-1.484,0.5c-0.5,0.161-0.992,0.411-1.492,0.742c-0.411,0.25-0.823,0.662-1.234,0.992
		c-0.742,0.823-1.322,1.654-1.734,2.726c-0.411,0.992-0.662,2.065-0.662,3.137c0,2.226,0.823,4.29,2.395,5.863
		c1.565,1.565,3.629,2.395,5.863,2.395c2.226,0,4.29-0.831,5.863-2.395c1.565-1.572,2.395-3.637,2.395-5.863
		c0-1.073-0.25-2.145-0.662-3.137C444.864,264.178,444.283,263.347,443.54,262.524z"/>
</g>
<path style="fill:#FFC878;" d="M494.823,265.251c-0.411-1.073-0.992-1.903-1.734-2.726c-0.411-0.33-0.831-0.742-1.322-0.992
	c-0.411-0.33-0.911-0.581-1.403-0.742c-0.5-0.25-0.992-0.411-1.572-0.5c-1.565-0.33-3.218-0.161-4.702,0.5
	c-1.073,0.411-1.903,0.992-2.726,1.734c-0.742,0.823-1.322,1.654-1.734,2.726c-0.411,0.992-0.662,2.065-0.662,3.137
	c0,2.226,0.823,4.29,2.395,5.863c1.565,1.565,3.629,2.395,5.863,2.395c2.226,0,4.29-0.831,5.863-2.395
	c1.565-1.572,2.395-3.637,2.395-5.863C495.485,267.315,495.315,266.243,494.823,265.251z"/>
<path style="fill:#FFD77D;" d="M169.702,228.5c-0.411-0.33-0.911-0.581-1.403-0.742c-0.5-0.25-0.992-0.411-1.484-0.5
	c-1.654-0.33-3.306-0.161-4.791,0.5c-1.073,0.411-1.903,0.992-2.726,1.734c-1.492,1.565-2.395,3.718-2.395,5.863
	c0,1.073,0.25,2.145,0.662,3.137c0.412,0.992,0.992,1.895,1.734,2.726c0.823,0.742,1.734,1.322,2.726,1.734
	c0.992,0.411,2.065,0.662,3.137,0.662c2.226,0,4.29-0.831,5.863-2.395c0.742-0.831,1.322-1.734,1.734-2.726
	c0.412-0.992,0.662-2.065,0.662-3.137c0-2.145-0.911-4.298-2.395-5.863C170.613,229.162,170.194,228.75,169.702,228.5z"/>
<path style="fill:#FFC878;" d="M121.476,229.492c-1.903-1.903-4.791-2.807-7.516-2.234c-0.492,0.089-0.992,0.25-1.484,0.5
	c-0.5,0.161-0.992,0.411-1.492,0.742c-0.411,0.25-0.823,0.662-1.234,0.992c-1.492,1.565-2.395,3.718-2.395,5.863
	c0,1.073,0.161,2.145,0.573,3.137c0.419,0.992,1.081,1.895,1.823,2.726c1.565,1.565,3.629,2.395,5.863,2.395
	c1.073,0,2.145-0.25,3.137-0.662c0.992-0.412,1.895-0.992,2.726-1.734c0.742-0.831,1.322-1.734,1.734-2.726s0.662-2.065,0.662-3.137
	c0-1.073-0.25-2.145-0.662-3.137C122.799,231.146,122.218,230.315,121.476,229.492z"/>
<g>
	<path style="fill:#FFD77D;" d="M217.847,227.758c-1.484-0.662-3.137-0.831-4.791-0.5c-0.492,0.089-0.992,0.25-1.484,0.5
		c-0.5,0.161-0.992,0.411-1.492,0.742c-0.411,0.25-0.823,0.662-1.234,0.992c-1.492,1.565-2.395,3.718-2.395,5.863
		c0,1.073,0.161,2.145,0.573,3.137c0.5,0.992,1.081,1.895,1.823,2.726c0.823,0.742,1.654,1.322,2.726,1.734
		c0.992,0.411,2.065,0.662,3.137,0.662c2.226,0,4.29-0.831,5.863-2.395c0.742-0.831,1.322-1.734,1.734-2.726
		c0.412-0.992,0.662-2.065,0.662-3.137c0-2.145-0.911-4.298-2.395-5.863C219.742,228.75,218.839,228.17,217.847,227.758z"/>
	<path style="fill:#FFD77D;" d="M268.798,228.5c-0.411-0.33-0.911-0.581-1.403-0.742c-0.5-0.25-0.992-0.411-1.572-0.5
		c-0.992-0.242-2.145-0.242-3.218,0c-0.492,0.089-0.992,0.25-1.484,0.5c-0.5,0.161-0.992,0.411-1.492,0.742
		c-0.411,0.25-0.823,0.662-1.234,0.992c-1.492,1.565-2.395,3.718-2.395,5.863c0,1.073,0.25,2.145,0.662,3.137
		c0.412,0.992,0.992,1.895,1.734,2.726c1.565,1.565,3.629,2.395,5.863,2.395c2.226,0,4.29-0.831,5.863-2.395
		c0.742-0.831,1.322-1.734,1.734-2.726c0.412-0.992,0.662-2.065,0.662-3.137c0-2.145-0.911-4.298-2.395-5.863
		C269.71,229.162,269.291,228.75,268.798,228.5z"/>
	<path style="fill:#FFD77D;" d="M307.944,229.492c-1.492,1.565-2.395,3.718-2.395,5.863c0,1.073,0.161,2.145,0.573,3.137
		c0.5,0.992,1.081,1.895,1.823,2.726c1.565,1.565,3.629,2.395,5.863,2.395c2.226,0,4.29-0.831,5.863-2.395
		c0.742-0.831,1.322-1.734,1.734-2.726c0.412-0.992,0.662-2.065,0.662-3.137c0-2.145-0.911-4.298-2.395-5.863
		C316.532,226.436,311,226.436,307.944,229.492z"/>
	<path style="fill:#FFD77D;" d="M367.895,228.5c-0.411-0.33-0.911-0.581-1.403-0.742c-0.5-0.25-0.992-0.411-1.572-0.5
		c-2.637-0.573-5.532,0.33-7.427,2.234c-0.742,0.823-1.322,1.654-1.734,2.726c-0.411,0.992-0.662,2.065-0.662,3.137
		c0,1.073,0.25,2.145,0.662,3.137c0.412,0.992,0.992,1.895,1.734,2.726c0.823,0.742,1.734,1.322,2.726,1.734
		c0.992,0.412,2.065,0.662,3.137,0.662c2.226,0,4.29-0.831,5.863-2.395c0.742-0.831,1.322-1.734,1.734-2.726
		c0.412-0.992,0.662-2.065,0.662-3.137c0-2.145-0.911-4.298-2.395-5.863C368.807,229.162,368.388,228.75,367.895,228.5z"/>
	<path style="fill:#FFD77D;" d="M417.444,228.5c-0.411-0.33-0.911-0.581-1.403-0.742c-0.5-0.25-0.992-0.411-1.572-0.5
		c-1.073-0.242-2.145-0.242-3.137,0c-0.573,0.089-1.073,0.25-1.565,0.5c-0.5,0.161-0.992,0.411-1.403,0.742
		c-0.5,0.25-0.911,0.662-1.322,0.992c-1.492,1.565-2.395,3.718-2.395,5.863c0,1.073,0.25,2.145,0.662,3.137
		c0.412,0.992,0.992,1.895,1.734,2.726c1.565,1.565,3.629,2.395,5.863,2.395c1.073,0,2.145-0.25,3.137-0.662
		c0.992-0.412,1.895-0.992,2.645-1.734c0.823-0.831,1.403-1.734,1.815-2.726s0.662-2.065,0.662-3.137
		c0-2.145-0.911-4.298-2.475-5.863C418.355,229.162,417.936,228.75,417.444,228.5z"/>
	<path style="fill:#FFD77D;" d="M144.927,327.597c-0.411-0.33-0.911-0.581-1.403-0.742c-0.5-0.25-0.992-0.411-1.572-0.5
		c-2.637-0.492-5.532,0.33-7.427,2.234c-0.33,0.411-0.742,0.823-0.992,1.234c-0.33,0.5-0.581,0.992-0.742,1.492
		c-0.25,0.492-0.411,0.992-0.5,1.484c-0.162,0.581-0.162,1.153-0.162,1.654c0,1.073,0.161,2.145,0.573,3.137
		c0.419,0.992,1.081,1.895,1.823,2.726c1.565,1.565,3.629,2.395,5.863,2.395c2.226,0,4.29-0.831,5.863-2.395
		c0.742-0.831,1.322-1.734,1.734-2.726c0.412-0.992,0.662-2.065,0.662-3.137c0-2.234-0.911-4.298-2.395-5.863
		C145.839,328.259,145.42,327.847,144.927,327.597z"/>
	<path style="fill:#FFD77D;" d="M98.435,331.315c-0.169-0.5-0.411-0.992-0.742-1.492c-0.33-0.411-0.662-0.823-0.992-1.234
		c-2.314-2.234-5.944-2.976-9-1.734c-1.073,0.411-1.903,0.992-2.726,1.734c-1.491,1.564-2.394,3.628-2.394,5.862
		c0,1.073,0.161,2.145,0.573,3.137c0.5,0.992,1.081,1.895,1.823,2.726c0.823,0.742,1.654,1.322,2.726,1.815
		c0.992,0.411,2.065,0.581,3.137,0.581s2.145-0.169,3.137-0.581c0.992-0.492,1.895-1.073,2.726-1.815
		c0.742-0.831,1.322-1.734,1.734-2.726c0.412-0.992,0.66-2.065,0.66-3.137c0-0.5-0.081-1.073-0.169-1.654
		C98.847,332.307,98.685,331.807,98.435,331.315z"/>
	<path style="fill:#FFD77D;" d="M193.073,326.855c-3.057-1.242-6.693-0.5-9,1.734c-0.33,0.411-0.742,0.823-0.992,1.234
		c-0.33,0.5-0.581,0.992-0.742,1.492c-0.25,0.492-0.411,0.992-0.5,1.484c-0.081,0.581-0.161,1.153-0.161,1.654
		c0,1.073,0.25,2.145,0.662,3.137c0.412,0.992,0.992,1.895,1.734,2.726c1.565,1.565,3.629,2.395,5.863,2.395
		c1.073,0,2.145-0.169,3.137-0.581c0.992-0.492,1.895-1.073,2.726-1.815c0.742-0.831,1.322-1.734,1.734-2.726
		c0.412-0.992,0.662-2.065,0.662-3.137c0-2.234-0.911-4.298-2.395-5.863C194.968,327.847,194.145,327.267,193.073,326.855z"/>
	<path style="fill:#FFD77D;" d="M247.081,331.315c-0.169-0.5-0.411-0.992-0.742-1.492c-0.33-0.411-0.662-0.823-1.073-1.234
		c-0.75-0.742-1.654-1.322-2.646-1.734c-3.057-1.242-6.774-0.5-9,1.734c-0.33,0.411-0.742,0.823-0.992,1.234
		c-0.33,0.5-0.581,0.992-0.742,1.492c-0.25,0.492-0.411,0.992-0.5,1.484c-0.079,0.58-0.16,1.152-0.16,1.653
		c0,1.073,0.25,2.145,0.662,3.137c0.412,0.992,0.992,1.895,1.734,2.726c0.823,0.742,1.734,1.322,2.726,1.815
		c0.992,0.411,2.065,0.581,3.137,0.581c2.226,0,4.29-0.831,5.783-2.395c0.823-0.831,1.403-1.734,1.815-2.726
		c0.412-0.992,0.662-2.065,0.662-3.137c0-0.5-0.081-1.073-0.169-1.654C247.493,332.307,247.331,331.807,247.081,331.315z"/>
	<path style="fill:#FFD77D;" d="M296.629,331.315c-0.169-0.5-0.411-0.992-0.742-1.492c-0.33-0.411-0.662-0.823-0.992-1.234
		c-2.314-2.234-5.944-2.976-9-1.734c-1.073,0.411-1.903,0.992-2.726,1.734c-0.33,0.411-0.662,0.823-0.992,1.234
		c-0.33,0.5-0.581,0.992-0.742,1.492c-0.25,0.492-0.411,0.992-0.5,1.484c-0.08,0.58-0.16,1.152-0.16,1.653
		c0,1.073,0.161,2.145,0.573,3.137c0.5,0.992,1.081,1.895,1.823,2.726c1.565,1.565,3.629,2.395,5.863,2.395
		c1.073,0,2.145-0.169,3.137-0.581c0.992-0.492,1.895-1.073,2.726-1.815c0.742-0.831,1.322-1.734,1.734-2.726
		c0.412-0.992,0.662-2.065,0.662-3.137c0-0.5-0.081-1.073-0.169-1.654C297.041,332.307,296.879,331.807,296.629,331.315z"/>
	<path style="fill:#FFD77D;" d="M343.202,327.597c-0.492-0.33-0.992-0.581-1.484-0.742c-0.5-0.25-0.992-0.411-1.484-0.5
		c-1.654-0.33-3.306-0.161-4.791,0.5c-1.073,0.411-1.904,0.992-2.726,1.734c-1.492,1.565-2.395,3.629-2.395,5.863
		c0,1.073,0.161,2.145,0.573,3.137c0.5,0.992,1.081,1.895,1.823,2.726c1.565,1.565,3.629,2.395,5.863,2.395
		c1.073,0,2.145-0.169,3.137-0.581c1.073-0.492,1.895-1.073,2.726-1.815c0.742-0.831,1.322-1.734,1.734-2.726
		c0.412-0.992,0.662-2.065,0.662-3.137c0-2.234-0.911-4.298-2.395-5.863C344.033,328.259,343.614,327.847,343.202,327.597z"/>
	<path style="fill:#FFD77D;" d="M395.726,331.315c-0.169-0.5-0.411-0.992-0.742-1.492c-0.33-0.411-0.662-0.823-0.992-1.234
		c-0.411-0.33-0.831-0.742-1.322-0.992c-0.411-0.33-0.911-0.581-1.403-0.742c-0.5-0.25-0.992-0.411-1.572-0.5
		c-2.637-0.492-5.532,0.33-7.427,2.234c-1.492,1.565-2.395,3.629-2.395,5.863c0,1.073,0.25,2.145,0.662,3.137
		c0.412,0.992,0.992,1.895,1.734,2.726c1.565,1.565,3.629,2.395,5.863,2.395c1.073,0,2.145-0.169,3.137-0.581
		c0.992-0.492,1.895-1.073,2.726-1.815c0.742-0.831,1.322-1.734,1.815-2.726c0.411-0.992,0.581-2.065,0.581-3.137
		c0-0.5-0.081-1.073-0.169-1.654C396.137,332.307,395.976,331.807,395.726,331.315z"/>
	<path style="fill:#FFD77D;" d="M440.815,326.855c-3.057-1.242-6.693-0.5-9,1.734c-0.33,0.411-0.742,0.823-0.992,1.234
		c-0.33,0.5-0.581,0.992-0.742,1.492c-0.25,0.492-0.411,0.992-0.5,1.484c-0.081,0.581-0.161,1.153-0.161,1.654
		c0,1.073,0.25,2.145,0.662,3.137c0.412,0.992,0.992,1.895,1.734,2.726c0.823,0.742,1.734,1.322,2.726,1.815
		c0.992,0.411,2.065,0.581,3.137,0.581c2.226,0,4.29-0.831,5.863-2.395c0.742-0.831,1.322-1.734,1.734-2.726
		c0.412-0.992,0.662-2.065,0.662-3.137c0-2.234-0.911-4.298-2.395-5.863C442.711,327.847,441.888,327.267,440.815,326.855z"/>
	<path style="fill:#FFD77D;" d="M159.298,295.557c-1.492,1.565-2.395,3.629-2.395,5.863c0,1.073,0.25,2.145,0.662,3.137
		c0.412,0.992,0.992,1.895,1.734,2.726c1.565,1.565,3.629,2.395,5.863,2.395c1.073,0,2.145-0.25,3.137-0.662
		c0.992-0.412,1.895-0.992,2.646-1.734c0.823-0.831,1.403-1.734,1.815-2.726c0.412-0.992,0.662-2.065,0.662-3.137
		c0-2.145-0.911-4.298-2.475-5.863C167.968,292.5,162.355,292.5,159.298,295.557z"/>
	<path style="fill:#FFD77D;" d="M120.153,294.565c-0.411-0.33-0.911-0.58-1.403-0.742c-0.5-0.25-0.992-0.411-1.572-0.5
		c-2.637-0.573-5.532,0.33-7.427,2.234c-1.492,1.565-2.395,3.718-2.395,5.863c0,1.073,0.161,2.145,0.573,3.137
		c0.5,0.992,1.081,1.895,1.823,2.726c0.823,0.742,1.734,1.322,2.726,1.734c0.992,0.411,2.065,0.662,3.137,0.662
		c2.226,0,4.29-0.831,5.863-2.395c0.742-0.831,1.322-1.734,1.815-2.726c0.411-0.992,0.581-2.065,0.581-3.137
		c0-2.145-0.911-4.298-2.395-5.863C121.065,295.226,120.645,294.815,120.153,294.565z"/>
	<path style="fill:#FFD77D;" d="M208.847,295.557c-1.492,1.565-2.395,3.718-2.395,5.863c0,1.073,0.25,2.145,0.662,3.137
		c0.412,0.992,0.992,1.895,1.734,2.726c0.823,0.742,1.734,1.322,2.726,1.734c0.992,0.412,2.065,0.662,3.137,0.662
		c1.073,0,2.145-0.25,3.137-0.662c0.992-0.412,1.895-0.992,2.726-1.734c0.742-0.831,1.322-1.734,1.734-2.726
		c0.412-0.992,0.662-2.065,0.662-3.137c0-2.145-0.911-4.298-2.395-5.863C217.517,292.5,211.903,292.5,208.847,295.557z"/>
	<path style="fill:#FFD77D;" d="M258.395,295.557c-1.492,1.565-2.395,3.718-2.395,5.863c0,1.073,0.161,2.145,0.573,3.137
		c0.5,0.992,1.081,1.895,1.823,2.726c0.823,0.742,1.734,1.322,2.726,1.734c0.992,0.412,2.065,0.662,3.137,0.662
		s2.145-0.25,3.137-0.662c0.992-0.412,1.895-0.992,2.726-1.734c0.742-0.831,1.322-1.734,1.734-2.726
		c0.412-0.992,0.662-2.065,0.662-3.137c0-2.234-0.911-4.298-2.395-5.863C267.064,292.5,261.452,292.5,258.395,295.557z"/>
	<path style="fill:#FFD77D;" d="M318.347,294.565c-0.411-0.33-0.911-0.58-1.403-0.742c-0.5-0.25-0.992-0.411-1.572-0.5
		c-2.637-0.573-5.532,0.33-7.427,2.234c-1.492,1.565-2.395,3.718-2.395,5.863c0,1.073,0.161,2.145,0.573,3.137
		c0.5,0.992,1.081,1.895,1.823,2.726c1.565,1.565,3.629,2.395,5.863,2.395c1.073,0,2.145-0.25,3.137-0.662
		c0.992-0.412,1.895-0.992,2.726-1.734c0.742-0.831,1.322-1.734,1.734-2.726s0.662-2.065,0.662-3.137
		c0-2.145-0.911-4.298-2.395-5.863C319.258,295.226,318.839,294.815,318.347,294.565z"/>
	<path style="fill:#FFD77D;" d="M366.493,293.823c-3.057-1.322-6.693-0.581-9,1.734c-1.492,1.565-2.395,3.718-2.395,5.863
		c0,1.073,0.25,2.145,0.662,3.137c0.412,0.992,0.992,1.895,1.734,2.726c0.823,0.742,1.734,1.322,2.726,1.734
		s2.065,0.662,3.137,0.662c2.226,0,4.29-0.831,5.863-2.395c0.742-0.831,1.322-1.734,1.734-2.726s0.662-2.065,0.662-3.137
		c0-2.145-0.911-4.298-2.395-5.863C368.388,294.815,367.485,294.234,366.493,293.823z"/>
	<path style="fill:#FFD77D;" d="M409.767,293.823c-1.073,0.411-1.984,0.992-2.726,1.734c-1.492,1.565-2.395,3.718-2.395,5.863
		c0,1.073,0.161,2.145,0.662,3.137c0.411,0.992,0.992,1.895,1.734,2.726c1.565,1.565,3.629,2.395,5.863,2.395
		c1.073,0,2.145-0.25,3.137-0.662s1.895-0.992,2.726-1.734c0.742-0.831,1.322-1.734,1.734-2.726s0.662-2.065,0.662-3.137
		c0-2.145-0.911-4.298-2.395-5.863C416.452,293.242,412.823,292.5,409.767,293.823z"/>
	<path style="fill:#FFD77D;" d="M466.992,294.565c-0.411-0.33-0.911-0.58-1.403-0.742c-0.5-0.25-0.992-0.411-1.572-0.5
		c-2.637-0.573-5.532,0.33-7.427,2.234c-1.492,1.565-2.395,3.718-2.395,5.863c0,1.073,0.161,2.145,0.573,3.137
		c0.5,0.992,1.081,1.895,1.823,2.726c0.823,0.742,1.734,1.322,2.726,1.734s2.061,0.661,3.135,0.661c2.226,0,4.29-0.831,5.863-2.395
		c0.742-0.831,1.322-1.734,1.734-2.726s0.662-2.065,0.662-3.137c0-2.145-0.911-4.298-2.395-5.863
		C467.904,295.226,467.485,294.815,466.992,294.565z"/>
</g>
<g>
	<path style="fill:#FFC878;" d="M146.251,130.395c-3.137-3.057-8.669-3.057-11.725,0c-0.742,0.823-1.322,1.654-1.734,2.726
		c-0.5,0.992-0.662,2.065-0.662,3.137c0,2.226,0.823,4.29,2.395,5.863c1.565,1.565,3.629,2.395,5.863,2.395
		c1.073,0,2.145-0.25,3.137-0.662c0.992-0.412,1.895-0.992,2.726-1.734c1.565-1.572,2.395-3.637,2.395-5.863
		c0-1.073-0.25-2.145-0.662-3.137C147.573,132.129,146.992,131.218,146.251,130.395z"/>
	<path style="fill:#FFC878;" d="M195.798,130.395c-3.057-3.057-8.588-3.057-11.725,0c-0.742,0.823-1.322,1.734-1.734,2.726
		c-0.411,0.992-0.662,2.065-0.662,3.137c0,2.226,0.823,4.29,2.395,5.863c0.823,0.742,1.654,1.322,2.726,1.734
		c0.992,0.411,2.065,0.662,3.137,0.662c2.226,0,4.29-0.831,5.863-2.395c1.565-1.572,2.395-3.637,2.395-5.863
		c0-1.073-0.25-2.145-0.662-3.137C197.121,132.049,196.54,131.218,195.798,130.395z"/>
	<path style="fill:#FFC878;" d="M245.347,130.395c-0.831-0.742-1.734-1.322-2.726-1.734c-3.057-1.322-6.693-0.581-9,1.734
		c-0.742,0.823-1.322,1.734-1.823,2.726c-0.411,0.992-0.573,2.065-0.573,3.137c0,1.073,0.161,2.145,0.573,3.137
		c0.5,0.992,1.081,1.895,1.823,2.726c0.823,0.742,1.734,1.322,2.726,1.734c0.992,0.412,2.065,0.662,3.137,0.662
		c2.226,0,4.29-0.831,5.863-2.395c0.742-0.831,1.322-1.734,1.734-2.726c0.492-0.992,0.662-2.065,0.662-3.137
		s-0.169-2.145-0.662-3.137C246.67,132.129,246.089,131.218,245.347,130.395z"/>
	<path style="fill:#FFC878;" d="M294.895,130.395c-3.137-3.057-8.669-3.057-11.725,0c-0.742,0.823-1.322,1.654-1.734,2.726
		c-0.5,0.992-0.662,2.065-0.662,3.137c0,2.226,0.823,4.29,2.395,5.863c1.565,1.565,3.629,2.395,5.863,2.395
		c1.073,0,2.145-0.25,3.137-0.662c0.992-0.412,1.895-0.992,2.726-1.734c1.565-1.572,2.395-3.637,2.395-5.863
		c0-1.073-0.25-2.145-0.662-3.137C296.218,132.129,295.637,131.218,294.895,130.395z"/>
	<path style="fill:#FFC878;" d="M344.444,130.395c-3.057-3.057-8.588-3.057-11.725,0c-0.742,0.823-1.322,1.734-1.734,2.726
		c-0.411,0.992-0.662,2.065-0.662,3.137c0,2.226,0.823,4.29,2.395,5.863c0.823,0.742,1.654,1.322,2.726,1.734
		c0.992,0.411,2.065,0.662,3.137,0.662c2.226,0,4.29-0.831,5.863-2.395c1.565-1.572,2.395-3.637,2.395-5.863
		c0-1.073-0.25-2.145-0.662-3.137C345.767,132.049,345.186,131.218,344.444,130.395z"/>
	<path style="fill:#FFC878;" d="M393.992,130.395c-0.831-0.742-1.734-1.322-2.726-1.734c-3.057-1.322-6.693-0.581-9,1.734
		c-0.742,0.823-1.322,1.654-1.734,2.726c-0.5,0.992-0.662,2.065-0.662,3.137c0,1.073,0.161,2.145,0.662,3.137
		c0.411,0.992,0.992,1.895,1.734,2.726c0.823,0.742,1.734,1.322,2.726,1.734c0.992,0.412,2.065,0.662,3.137,0.662
		c2.226,0,4.29-0.831,5.863-2.395c0.742-0.831,1.322-1.734,1.734-2.726c0.492-0.992,0.662-2.065,0.662-3.137
		s-0.169-2.145-0.662-3.137C395.315,132.049,394.734,131.218,393.992,130.395z"/>
	<path style="fill:#FFC878;" d="M293.653,63.338c-0.492-0.33-0.992-0.581-1.484-0.742c-0.5-0.25-0.992-0.411-1.484-0.5
		c-2.726-0.573-5.621,0.33-7.516,2.234c-1.491,1.565-2.394,3.718-2.394,5.863c0,1.073,0.25,2.145,0.662,3.137
		c0.411,0.992,0.992,1.895,1.734,2.726c0.823,0.742,1.654,1.322,2.726,1.734c0.992,0.411,2.065,0.662,3.137,0.662
		c2.226,0,4.29-0.831,5.863-2.395c0.742-0.831,1.322-1.734,1.734-2.726c0.411-0.992,0.662-2.065,0.662-3.137
		c0-2.145-0.911-4.298-2.395-5.863C294.484,64,294.065,63.589,293.653,63.338z"/>
	<path style="fill:#FFC878;" d="M244.105,63.338c-0.492-0.33-0.992-0.581-1.484-0.742c-0.5-0.25-0.992-0.411-1.484-0.5
		c-2.726-0.573-5.621,0.33-7.516,2.234c-1.491,1.565-2.394,3.718-2.394,5.863c0,1.073,0.161,2.145,0.573,3.137
		c0.5,0.992,1.081,1.895,1.823,2.726c0.823,0.742,1.734,1.322,2.726,1.734s2.063,0.661,3.136,0.661s2.145-0.25,3.137-0.662
		c1.073-0.411,1.895-0.992,2.726-1.734c0.742-0.831,1.322-1.734,1.734-2.726c0.411-0.992,0.662-2.065,0.662-3.137
		c0-2.145-0.911-4.298-2.395-5.863C244.936,64,244.517,63.589,244.105,63.338z"/>
	<path style="fill:#FFC878;" d="M343.202,63.338c-0.492-0.33-0.992-0.581-1.484-0.742c-0.5-0.25-0.992-0.411-1.484-0.5
		c-2.726-0.573-5.621,0.33-7.516,2.234c-1.491,1.565-2.394,3.718-2.394,5.863c0,1.073,0.25,2.145,0.662,3.137
		c0.411,0.992,0.992,1.895,1.734,2.726c0.823,0.742,1.654,1.322,2.726,1.734c0.992,0.411,2.065,0.662,3.137,0.662
		c2.226,0,4.29-0.831,5.863-2.395c0.742-0.831,1.322-1.734,1.734-2.726c0.411-0.992,0.662-2.065,0.662-3.137
		c0-2.145-0.911-4.298-2.395-5.863C344.033,64,343.614,63.589,343.202,63.338z"/>
	<path style="fill:#FFC878;" d="M171.025,97.363c-0.411-0.33-0.831-0.742-1.242-0.992c-0.492-0.33-0.992-0.581-1.484-0.742
		c-0.5-0.25-0.992-0.411-1.484-0.5c-2.726-0.573-5.621,0.33-7.516,2.234c-0.742,0.823-1.322,1.654-1.734,2.726
		c-0.5,0.992-0.662,2.065-0.662,3.137c0,2.226,0.823,4.29,2.395,5.863c0.823,0.742,1.734,1.322,2.726,1.815
		c0.992,0.411,2.065,0.581,3.137,0.581c2.226,0,4.29-0.831,5.863-2.395c1.565-1.572,2.395-3.637,2.395-5.863
		c0-1.073-0.25-2.145-0.662-3.137C172.347,99.016,171.766,98.185,171.025,97.363z"/>
	<path style="fill:#FFC878;" d="M213.056,95.129c-0.492,0.089-0.992,0.25-1.484,0.5c-0.5,0.161-0.992,0.411-1.492,0.742
		c-0.411,0.25-0.823,0.662-1.234,0.992c-0.742,0.823-1.322,1.654-1.734,2.726c-0.411,0.992-0.662,2.065-0.662,3.137
		c0,2.226,0.823,4.29,2.395,5.863c1.565,1.565,3.629,2.395,5.863,2.395c1.073,0,2.145-0.169,3.137-0.581
		c0.992-0.492,1.895-1.073,2.726-1.815c1.565-1.572,2.395-3.637,2.395-5.863c0-2.145-0.911-4.298-2.395-5.863
		C218.67,95.459,215.783,94.556,213.056,95.129z"/>
	<path style="fill:#FFC878;" d="M270.121,97.363c-0.411-0.33-0.831-0.742-1.322-0.992c-0.411-0.33-0.911-0.581-1.403-0.742
		c-0.5-0.25-0.992-0.411-1.572-0.5c-2.637-0.573-5.532,0.33-7.427,2.234c-0.742,0.823-1.322,1.734-1.734,2.726
		c-0.412,0.992-0.662,2.065-0.662,3.137c0,2.226,0.823,4.29,2.395,5.863c1.565,1.565,3.629,2.395,5.863,2.395
		c2.226,0,4.29-0.831,5.863-2.395c1.565-1.572,2.395-3.637,2.395-5.863c0-1.073-0.25-2.145-0.662-3.137
		C271.444,99.016,270.863,98.185,270.121,97.363z"/>
	<path style="fill:#FFC878;" d="M319.669,97.363c-2.314-2.314-5.944-3.057-9-1.734c-1.073,0.411-1.903,0.992-2.726,1.734
		c-0.742,0.823-1.322,1.654-1.734,2.726c-0.5,0.992-0.662,2.065-0.662,3.137c0,2.145,0.823,4.29,2.395,5.863
		c1.565,1.565,3.629,2.395,5.863,2.395c2.226,0,4.29-0.831,5.863-2.395c1.565-1.572,2.395-3.637,2.395-5.863
		c0-1.073-0.25-2.145-0.662-3.137C320.993,99.016,320.411,98.185,319.669,97.363z"/>
	<path style="fill:#FFC878;" d="M138.734,194.226c-0.492,0.089-0.992,0.25-1.484,0.5c-0.5,0.161-0.992,0.411-1.492,0.742
		c-0.411,0.33-0.823,0.662-1.234,0.992c-1.492,1.565-2.395,3.718-2.395,5.863c0,2.226,0.823,4.29,2.395,5.863
		c1.565,1.565,3.629,2.395,5.863,2.395c1.073,0,2.145-0.25,3.137-0.662c0.992-0.412,1.895-0.992,2.726-1.734
		c0.742-0.831,1.322-1.734,1.734-2.726c0.492-0.992,0.662-2.065,0.662-3.137c0-2.145-0.911-4.298-2.395-5.863
		C144.347,194.556,141.46,193.653,138.734,194.226z"/>
	<path style="fill:#FFC878;" d="M95.379,195.468c-0.411-0.33-0.911-0.581-1.403-0.742c-0.5-0.25-0.992-0.411-1.484-0.5
		c-1.654-0.33-3.306-0.161-4.791,0.5c-1.073,0.411-1.903,0.992-2.726,1.734c-1.491,1.565-2.394,3.718-2.394,5.863
		c0,2.226,0.823,4.29,2.395,5.863c0.823,0.742,1.734,1.322,2.726,1.734c0.992,0.412,2.065,0.661,3.137,0.661
		c1.073,0,2.145-0.25,3.137-0.662c0.992-0.412,1.895-0.992,2.646-1.734c1.644-1.572,2.475-3.637,2.475-5.862
		c0-2.145-0.911-4.298-2.475-5.863C96.29,196.129,95.871,195.798,95.379,195.468z"/>
</g>
<g>
	<path style="fill:#FFD77D;" d="M194.476,195.468c-0.411-0.33-0.911-0.581-1.403-0.742c-0.5-0.25-0.992-0.411-1.484-0.5
		c-1.654-0.33-3.306-0.161-4.791,0.5c-1.073,0.411-1.903,0.992-2.726,1.734c-1.492,1.565-2.395,3.718-2.395,5.863
		c0,2.226,0.823,4.29,2.395,5.863c0.823,0.742,1.734,1.322,2.726,1.734c0.992,0.412,2.065,0.662,3.137,0.662
		c1.073,0,2.145-0.25,3.137-0.662c0.992-0.411,1.895-0.992,2.645-1.734c1.645-1.572,2.475-3.637,2.475-5.863
		c0-2.145-0.911-4.298-2.475-5.863C195.387,196.129,194.968,195.798,194.476,195.468z"/>
	<path style="fill:#FFD77D;" d="M237.831,194.226c-0.492,0.089-0.992,0.25-1.484,0.5c-0.5,0.161-0.992,0.411-1.492,0.742
		c-0.411,0.33-0.823,0.662-1.234,0.992c-1.492,1.565-2.395,3.718-2.395,5.863c0,2.226,0.823,4.29,2.395,5.863
		c1.565,1.565,3.629,2.395,5.863,2.395c1.073,0,2.145-0.25,3.137-0.662c0.992-0.412,1.895-0.992,2.726-1.734
		c0.742-0.831,1.322-1.734,1.734-2.726c0.492-0.992,0.662-2.065,0.662-3.137c0-2.145-0.911-4.298-2.395-5.863
		C243.444,194.556,240.557,193.653,237.831,194.226z"/>
	<path style="fill:#FFD77D;" d="M293.573,195.468c-0.411-0.33-0.911-0.581-1.403-0.742c-0.5-0.25-0.992-0.411-1.484-0.5
		c-1.654-0.33-3.306-0.161-4.791,0.5c-1.073,0.411-1.903,0.992-2.726,1.734c-1.492,1.565-2.395,3.718-2.395,5.863
		c0,2.226,0.823,4.29,2.395,5.863c0.823,0.742,1.734,1.322,2.726,1.734c0.992,0.412,2.065,0.662,3.137,0.662
		c1.073,0,2.145-0.25,3.137-0.662c0.992-0.412,1.895-0.992,2.645-1.734c1.645-1.572,2.475-3.637,2.475-5.863
		c0-2.145-0.911-4.298-2.475-5.863C294.484,196.129,294.065,195.798,293.573,195.468z"/>
	<path style="fill:#FFD77D;" d="M336.928,194.226c-0.492,0.089-0.992,0.25-1.484,0.5c-0.5,0.161-0.992,0.411-1.492,0.742
		c-0.411,0.33-0.823,0.662-1.234,0.992c-1.492,1.565-2.395,3.718-2.395,5.863c0,2.226,0.823,4.29,2.395,5.863
		c1.565,1.565,3.629,2.395,5.863,2.395c1.073,0,2.145-0.25,3.137-0.662c0.992-0.412,1.895-0.992,2.726-1.734
		c0.742-0.831,1.322-1.734,1.734-2.726c0.492-0.992,0.662-2.065,0.662-3.137c0-2.145-0.911-4.298-2.395-5.863
		C342.541,194.556,339.654,193.653,336.928,194.226z"/>
	<path style="fill:#FFD77D;" d="M392.67,195.468c-0.411-0.33-0.911-0.581-1.403-0.742c-0.5-0.25-0.992-0.411-1.484-0.5
		c-1.654-0.33-3.306-0.161-4.791,0.5c-1.073,0.411-1.904,0.992-2.726,1.734c-1.492,1.565-2.395,3.718-2.395,5.863
		c0,2.226,0.823,4.29,2.395,5.863c0.823,0.742,1.734,1.322,2.726,1.734c0.992,0.412,2.065,0.662,3.137,0.662s2.145-0.25,3.137-0.662
		c0.992-0.412,1.895-0.992,2.646-1.734c1.645-1.572,2.475-3.637,2.475-5.863c0-2.145-0.911-4.298-2.475-5.863
		C393.581,196.129,393.162,195.798,392.67,195.468z"/>
</g>
<g>
	<path style="fill:#FFC878;" d="M168.299,161.693c-1.984-0.911-4.298-0.831-6.274,0c-1.073,0.411-1.903,0.992-2.726,1.734
		c-1.492,1.565-2.395,3.629-2.395,5.863c0,2.226,0.823,4.29,2.395,5.863c1.565,1.565,3.629,2.395,5.863,2.395
		c2.226,0,4.29-0.831,5.863-2.395c1.565-1.572,2.395-3.637,2.395-5.863c0-2.145-0.911-4.298-2.395-5.863
		C170.194,162.685,169.371,162.105,168.299,161.693z"/>
	<path style="fill:#FFC878;" d="M109.75,163.427c-1.492,1.565-2.395,3.718-2.395,5.863c0,2.226,0.823,4.29,2.395,5.863
		c1.565,1.565,3.629,2.395,5.863,2.395c2.226,0,4.29-0.831,5.863-2.395c1.565-1.572,2.395-3.637,2.395-5.863
		c0-2.145-0.911-4.298-2.395-5.863C118.42,160.371,112.806,160.371,109.75,163.427z"/>
</g>
<g>
	<path style="fill:#FFD77D;" d="M219.25,162.435c-0.411-0.33-0.911-0.581-1.403-0.742c-0.5-0.25-0.992-0.411-1.572-0.5
		c-0.992-0.242-2.145-0.242-3.218,0c-0.492,0.089-0.992,0.25-1.484,0.5c-0.5,0.161-0.992,0.411-1.492,0.742
		c-0.411,0.33-0.823,0.662-1.234,0.992c-1.492,1.565-2.395,3.718-2.395,5.863c0,2.226,0.823,4.29,2.395,5.863
		c1.565,1.565,3.629,2.395,5.863,2.395c2.226,0,4.29-0.831,5.863-2.395c1.565-1.572,2.395-3.637,2.395-5.863
		c0-2.145-0.911-4.298-2.395-5.863C220.161,163.097,219.742,162.767,219.25,162.435z"/>
	<path style="fill:#FFD77D;" d="M267.396,161.693c-2.065-0.911-4.298-0.831-6.274,0c-1.073,0.411-1.903,0.992-2.726,1.734
		c-1.492,1.565-2.395,3.718-2.395,5.863c0,2.226,0.823,4.29,2.395,5.863c1.565,1.565,3.629,2.395,5.863,2.395
		c2.226,0,4.29-0.831,5.863-2.395c1.565-1.572,2.395-3.637,2.395-5.863c0-2.234-0.911-4.298-2.395-5.863
		C269.291,162.685,268.388,162.105,267.396,161.693z"/>
	<path style="fill:#FFD77D;" d="M307.944,163.427c-1.492,1.565-2.395,3.718-2.395,5.863c0,2.226,0.823,4.29,2.395,5.863
		c1.565,1.565,3.629,2.395,5.863,2.395c2.226,0,4.29-0.831,5.863-2.395c1.565-1.572,2.395-3.637,2.395-5.863
		c0-2.145-0.911-4.298-2.395-5.863C316.613,160.371,311,160.371,307.944,163.427z"/>
	<path style="fill:#FFD77D;" d="M357.492,163.427c-1.492,1.565-2.395,3.718-2.395,5.863c0,2.226,0.823,4.29,2.395,5.863
		c0.823,0.742,1.734,1.322,2.726,1.734c0.992,0.412,2.065,0.662,3.137,0.662c1.073,0,2.145-0.25,3.137-0.662
		c0.992-0.412,1.895-0.992,2.726-1.734c1.565-1.572,2.395-3.637,2.395-5.863c0-2.145-0.911-4.298-2.395-5.863
		C366.161,160.371,360.549,160.371,357.492,163.427z"/>
</g>
<path style="fill:#FFC878;" d="M409.767,161.693c-1.073,0.411-1.984,0.992-2.726,1.734c-1.572,1.565-2.395,3.718-2.395,5.863
	c0,1.073,0.161,2.145,0.573,3.137c0.5,0.992,1.081,1.895,1.823,2.726c1.565,1.565,3.629,2.395,5.863,2.395
	c1.073,0,2.145-0.25,3.137-0.662c0.992-0.412,1.895-0.992,2.726-1.734c1.565-1.572,2.395-3.718,2.395-5.863
	c0-2.145-0.911-4.298-2.395-5.863C416.452,161.113,412.735,160.451,409.767,161.693z"/>
<g>
	<path style="fill:#FFD77D;" d="M145.008,393.662c-0.492-0.33-0.992-0.581-1.484-0.742c-0.5-0.25-0.992-0.411-1.572-0.5
		c-2.637-0.573-5.532,0.33-7.427,2.234c-1.492,1.565-2.395,3.718-2.395,5.863c0,1.073,0.25,2.145,0.662,3.137
		c0.412,0.992,0.992,1.895,1.734,2.726c1.565,1.565,3.629,2.395,5.863,2.395c1.073,0,2.145-0.169,3.137-0.581
		c0.992-0.492,1.895-1.073,2.726-1.815c0.742-0.831,1.322-1.734,1.734-2.726c0.412-0.992,0.662-2.065,0.662-3.137
		c0-2.145-0.911-4.298-2.395-5.863C145.839,394.323,145.42,393.992,145.008,393.662z"/>
	<path style="fill:#FFD77D;" d="M194.556,393.662c-0.492-0.33-0.992-0.581-1.483-0.742c-0.5-0.25-0.992-0.411-1.572-0.5
		c-2.637-0.573-5.532,0.33-7.427,2.234c-1.492,1.565-2.395,3.718-2.395,5.863c0,1.073,0.25,2.145,0.662,3.137
		s0.992,1.895,1.734,2.726c1.565,1.565,3.629,2.395,5.863,2.395c1.073,0,2.145-0.169,3.137-0.581
		c0.992-0.492,1.895-1.073,2.726-1.815c0.742-0.831,1.322-1.734,1.734-2.726c0.412-0.992,0.662-2.065,0.662-3.137
		c0-2.145-0.911-4.298-2.395-5.863C195.387,394.323,194.968,393.992,194.556,393.662z"/>
	<path style="fill:#FFD77D;" d="M244.105,393.662c-0.492-0.33-0.992-0.581-1.484-0.742c-0.5-0.25-0.992-0.411-1.572-0.5
		c-2.637-0.573-5.532,0.33-7.427,2.234c-1.492,1.565-2.395,3.718-2.395,5.863c0,1.073,0.25,2.145,0.662,3.137
		c0.412,0.992,0.992,1.895,1.734,2.726c0.823,0.742,1.734,1.322,2.726,1.815c0.992,0.411,2.065,0.581,3.137,0.581
		c2.226,0,4.29-0.831,5.863-2.395c0.742-0.831,1.322-1.734,1.734-2.726c0.412-0.992,0.662-2.065,0.662-3.137
		c0-2.145-0.911-4.298-2.395-5.863C244.936,394.323,244.517,393.992,244.105,393.662z"/>
	<path style="fill:#FFD77D;" d="M294.895,394.654c-0.411-0.33-0.831-0.662-1.322-0.992c-0.411-0.33-0.911-0.581-1.403-0.742
		c-0.5-0.25-0.992-0.411-1.572-0.5c-2.637-0.573-5.532,0.33-7.427,2.234c-1.492,1.565-2.395,3.718-2.395,5.863
		c0,1.073,0.161,2.145,0.662,3.137c0.411,0.992,0.992,1.895,1.734,2.726c0.823,0.742,1.734,1.322,2.726,1.815
		c0.992,0.411,2.065,0.581,3.137,0.581c1.073,0,2.145-0.169,3.137-0.581c0.992-0.492,1.895-1.073,2.726-1.815
		c0.742-0.831,1.322-1.734,1.734-2.726c0.412-0.992,0.662-2.065,0.662-3.137c0-1.073-0.25-2.145-0.662-3.137
		C296.218,396.306,295.637,395.476,294.895,394.654z"/>
	<path style="fill:#FFD77D;" d="M341.718,392.92c-1.484-0.662-3.137-0.831-4.791-0.5c-0.492,0.089-0.992,0.25-1.484,0.5
		c-0.5,0.161-0.992,0.411-1.492,0.742c-0.411,0.33-0.823,0.662-1.234,0.992c-1.492,1.565-2.395,3.718-2.395,5.863
		c0,1.073,0.161,2.145,0.573,3.137c0.5,0.992,1.081,1.895,1.823,2.726c0.823,0.742,1.734,1.322,2.726,1.815
		c0.992,0.411,2.065,0.581,3.137,0.581c1.073,0,2.145-0.169,3.137-0.581c0.992-0.492,1.895-1.073,2.726-1.815
		c0.742-0.831,1.322-1.734,1.734-2.726c0.412-0.992,0.662-2.065,0.662-3.137c0-2.234-0.911-4.298-2.395-5.863
		C343.614,393.912,342.71,393.331,341.718,392.92z"/>
	<path style="fill:#FFD77D;" d="M393.992,394.654c-0.831-0.742-1.734-1.322-2.726-1.734c-1.984-0.831-4.298-0.911-6.274,0
		c-1.073,0.411-1.904,0.992-2.726,1.734c-1.492,1.565-2.395,3.718-2.395,5.863c0,1.073,0.161,2.145,0.573,3.137
		c0.419,0.992,1.081,1.895,1.823,2.726c0.823,0.742,1.734,1.322,2.726,1.815c0.992,0.411,2.065,0.581,3.137,0.581
		s2.145-0.169,3.137-0.581c0.992-0.492,1.895-1.073,2.726-1.815c1.484-1.572,2.395-3.637,2.395-5.863
		c0-1.073-0.25-2.145-0.662-3.137C395.315,396.306,394.734,395.476,393.992,394.654z"/>
	<path style="fill:#FFD77D;" d="M440.815,392.92c-3.057-1.322-6.693-0.581-9,1.734c-1.492,1.565-2.395,3.629-2.395,5.863
		c0,1.073,0.161,2.145,0.573,3.137c0.5,0.992,1.081,1.895,1.823,2.726c0.823,0.742,1.734,1.322,2.726,1.815
		c0.992,0.411,2.065,0.581,3.137,0.581s2.145-0.169,3.137-0.581c0.992-0.492,1.895-1.073,2.726-1.815
		c0.742-0.831,1.322-1.734,1.734-2.726c0.492-0.992,0.662-2.065,0.662-3.137c0-2.145-0.911-4.298-2.395-5.863
		C442.711,393.912,441.807,393.331,440.815,392.92z"/>
	<path style="fill:#FFD77D;" d="M170.943,361.621c-2.976-3.057-8.588-3.057-11.645,0c-0.742,0.823-1.322,1.654-1.734,2.726
		c-0.5,0.992-0.662,2.065-0.662,3.137s0.161,2.145,0.573,3.137c0.5,0.992,1.081,1.895,1.823,2.726
		c0.823,0.742,1.734,1.322,2.726,1.734c0.992,0.411,2.065,0.662,3.137,0.662c1.073,0,2.145-0.25,3.137-0.662
		c0.992-0.412,1.895-0.992,2.646-1.734c0.823-0.831,1.403-1.734,1.815-2.726s0.662-2.065,0.662-3.137s-0.25-2.145-0.662-3.137
		C172.347,363.275,171.766,362.444,170.943,361.621z"/>
	<path style="fill:#FFD77D;" d="M121.476,361.621c-1.984-1.903-4.791-2.807-7.516-2.234c-0.492,0.089-0.992,0.25-1.484,0.5
		c-0.5,0.161-0.992,0.411-1.492,0.742c-0.411,0.25-0.823,0.662-1.234,0.992c-0.742,0.823-1.322,1.734-1.734,2.726
		c-0.5,0.992-0.662,2.065-0.662,3.137s0.161,2.145,0.573,3.137c0.5,0.992,1.081,1.895,1.823,2.726
		c0.823,0.742,1.734,1.322,2.726,1.734c0.992,0.411,2.065,0.662,3.137,0.662c1.073,0,2.145-0.25,3.137-0.662
		c0.992-0.412,1.895-0.992,2.726-1.734c0.742-0.831,1.322-1.734,1.734-2.726s0.662-2.065,0.662-3.137s-0.25-2.145-0.662-3.137
		C122.799,363.275,122.218,362.444,121.476,361.621z"/>
	<path style="fill:#FFD77D;" d="M220.572,361.621c-0.831-0.742-1.734-1.322-2.726-1.734c-3.057-1.322-6.693-0.581-9,1.734
		c-0.742,0.823-1.322,1.654-1.734,2.726c-0.5,0.992-0.662,2.065-0.662,3.137s0.161,2.145,0.573,3.137
		c0.5,0.992,1.081,1.895,1.823,2.726c0.823,0.742,1.734,1.322,2.726,1.734c0.992,0.412,2.065,0.662,3.137,0.662
		s2.145-0.25,3.137-0.662c0.992-0.412,1.895-0.992,2.726-1.734c0.742-0.831,1.322-1.734,1.734-2.726
		c0.412-0.992,0.662-2.065,0.662-3.137s-0.25-2.145-0.662-3.137C221.895,363.356,221.315,362.444,220.572,361.621z"/>
	<path style="fill:#FFD77D;" d="M270.121,361.621c-0.411-0.33-0.831-0.742-1.242-0.992c-0.492-0.33-0.992-0.581-1.484-0.742
		c-0.5-0.25-0.992-0.411-1.484-0.5c-1.654-0.33-3.306-0.161-4.791,0.5c-1.073,0.411-1.903,0.992-2.726,1.734
		c-0.742,0.823-1.322,1.654-1.734,2.726c-0.5,0.992-0.662,2.065-0.662,3.137s0.161,2.145,0.573,3.137
		c0.419,0.992,1.081,1.895,1.823,2.726c1.565,1.565,3.629,2.395,5.863,2.395c1.073,0,2.145-0.25,3.137-0.662
		c0.992-0.412,1.895-0.992,2.726-1.734c0.742-0.831,1.322-1.734,1.734-2.726s0.662-2.065,0.662-3.137s-0.25-2.145-0.662-3.137
		C271.444,363.275,270.863,362.444,270.121,361.621z"/>
	<path style="fill:#FFD77D;" d="M319.669,361.621c-0.411-0.33-0.831-0.742-1.242-0.992c-0.492-0.33-0.992-0.581-1.484-0.742
		c-0.5-0.25-0.992-0.411-1.572-0.5c-0.992-0.242-2.065-0.242-3.218,0c-0.492,0.089-0.992,0.25-1.484,0.5
		c-0.5,0.161-0.992,0.411-1.492,0.742c-0.411,0.25-0.823,0.662-1.234,0.992c-0.742,0.823-1.322,1.654-1.734,2.726
		c-0.411,0.992-0.662,2.065-0.662,3.137s0.25,2.145,0.662,3.137c0.412,0.992,0.992,1.895,1.734,2.726
		c0.823,0.742,1.734,1.322,2.726,1.734c0.992,0.412,2.065,0.662,3.137,0.662s2.145-0.25,3.137-0.662
		c0.992-0.412,1.895-0.992,2.726-1.734c0.742-0.831,1.322-1.734,1.734-2.726s0.662-2.065,0.662-3.137s-0.25-2.145-0.662-3.137
		C320.993,363.356,320.411,362.444,319.669,361.621z"/>
	<path style="fill:#FFD77D;" d="M369.218,361.621c-0.411-0.33-0.831-0.742-1.322-0.992c-0.411-0.33-0.911-0.581-1.403-0.742
		c-3.057-1.322-6.693-0.5-9,1.734c-0.742,0.823-1.322,1.654-1.734,2.726c-0.411,0.992-0.662,2.065-0.662,3.137
		s0.25,2.145,0.662,3.137c0.412,0.992,0.992,1.895,1.734,2.726c1.565,1.565,3.629,2.395,5.863,2.395c1.073,0,2.145-0.25,3.137-0.662
		c0.992-0.412,1.895-0.992,2.726-1.734c0.742-0.831,1.322-1.734,1.734-2.726s0.662-2.065,0.662-3.137s-0.25-2.145-0.662-3.137
		C370.541,363.275,369.96,362.444,369.218,361.621z"/>
	<path style="fill:#FFD77D;" d="M418.766,361.621c-0.831-0.742-1.734-1.322-2.726-1.734c-3.057-1.322-6.693-0.5-9,1.734
		c-0.742,0.823-1.322,1.654-1.734,2.726c-0.411,0.992-0.662,2.065-0.662,3.137s0.25,2.145,0.662,3.137
		c0.412,0.992,0.992,1.895,1.734,2.726c0.823,0.742,1.734,1.322,2.726,1.734c0.992,0.412,2.065,0.662,3.137,0.662
		c1.073,0,2.145-0.25,3.137-0.662c0.992-0.412,1.895-0.992,2.726-1.734c0.742-0.831,1.322-1.734,1.815-2.726
		c0.411-0.992,0.581-2.065,0.581-3.137s-0.169-2.145-0.662-3.137C420.09,363.275,419.508,362.444,418.766,361.621z"/>
	<path style="fill:#FFD77D;" d="M245.347,460.718c-0.411-0.33-0.831-0.742-1.242-0.992c-0.492-0.33-0.992-0.581-1.484-0.742
		c-0.5-0.25-0.992-0.411-1.484-0.5c-1.161-0.242-2.153-0.242-3.306,0c-0.492,0.089-0.992,0.25-1.484,0.5
		c-0.5,0.161-0.992,0.411-1.492,0.742c-0.411,0.25-0.823,0.662-1.234,0.992c-0.742,0.823-1.322,1.734-1.734,2.726
		c-0.5,0.992-0.662,2.065-0.662,3.137c0,2.226,0.823,4.29,2.395,5.783c0.823,0.823,1.734,1.403,2.726,1.815s2.065,0.662,3.137,0.662
		s2.145-0.25,3.137-0.662s1.895-0.992,2.726-1.815c1.565-1.492,2.395-3.556,2.395-5.783c0-1.073-0.25-2.145-0.662-3.137
		C246.667,462.453,246.089,461.541,245.347,460.718z"/>
	<path style="fill:#FFD77D;" d="M294.895,460.718c-1.984-1.904-4.791-2.807-7.516-2.234c-0.492,0.089-0.992,0.25-1.484,0.5
		c-0.5,0.161-0.992,0.411-1.492,0.742c-0.411,0.25-0.823,0.662-1.234,0.992c-0.742,0.823-1.322,1.734-1.734,2.726
		c-0.5,0.992-0.662,2.065-0.662,3.137c0,2.226,0.823,4.29,2.395,5.783c0.823,0.823,1.734,1.403,2.726,1.815s2.065,0.662,3.137,0.662
		c1.073,0,2.145-0.25,3.137-0.662s1.895-0.992,2.726-1.815c1.565-1.492,2.395-3.556,2.395-5.783c0-1.073-0.25-2.145-0.662-3.137
		C296.216,462.453,295.637,461.541,294.895,460.718z"/>
	<path style="fill:#FFD77D;" d="M344.363,460.718c-3.057-3.057-8.588-3.057-11.645,0c-0.742,0.823-1.322,1.734-1.734,2.726
		c-0.5,0.992-0.662,2.065-0.662,3.137c0,2.226,0.823,4.29,2.395,5.783c0.823,0.823,1.734,1.403,2.726,1.815s2.065,0.662,3.137,0.662
		c2.226,0,4.29-0.831,5.783-2.475c1.645-1.492,2.475-3.556,2.475-5.783c0-1.073-0.25-2.145-0.662-3.137
		C345.767,462.371,345.186,461.541,344.363,460.718z"/>
	<path style="fill:#FFD77D;" d="M170.943,427.686c-2.976-3.057-8.588-3.057-11.645,0c-1.492,1.565-2.395,3.718-2.395,5.863
		c0,1.073,0.25,2.145,0.662,3.137s0.992,1.895,1.734,2.726c0.823,0.742,1.654,1.322,2.726,1.734
		c0.992,0.411,2.065,0.662,3.137,0.662c1.073,0,2.145-0.25,3.137-0.662c0.992-0.412,1.895-0.992,2.646-1.734
		c0.823-0.831,1.403-1.734,1.815-2.726c0.412-0.992,0.662-2.065,0.662-3.137c0-1.073-0.25-2.145-0.662-3.137
		C172.347,429.339,171.766,428.509,170.943,427.686z"/>
	<path style="fill:#FFD77D;" d="M220.492,427.686c-1.823-1.903-4.71-2.807-7.435-2.234c-0.492,0.089-0.992,0.25-1.484,0.5
		c-0.5,0.161-0.992,0.411-1.492,0.742c-0.411,0.25-0.823,0.662-1.234,0.992c-1.492,1.565-2.395,3.718-2.395,5.863
		c0,1.073,0.25,2.145,0.662,3.137c0.412,0.992,0.992,1.895,1.734,2.726c1.565,1.565,3.629,2.395,5.863,2.395
		c1.073,0,2.145-0.25,3.137-0.662c0.992-0.412,1.895-0.992,2.646-1.734c0.823-0.831,1.403-1.734,1.815-2.726
		c0.412-0.992,0.662-2.065,0.662-3.137c0-1.073-0.25-2.145-0.662-3.137C221.896,429.339,221.315,428.509,220.492,427.686z"/>
	<path style="fill:#FFD77D;" d="M270.04,427.686c-0.75-0.742-1.654-1.322-2.646-1.734c-1.484-0.662-3.137-0.831-4.791-0.5
		c-0.492,0.089-0.992,0.25-1.484,0.5c-0.5,0.161-0.992,0.411-1.492,0.742c-0.411,0.25-0.823,0.662-1.234,0.992
		c-1.492,1.565-2.395,3.718-2.395,5.863c0,1.073,0.25,2.145,0.662,3.137c0.412,0.992,0.992,1.895,1.734,2.726
		c1.565,1.565,3.629,2.395,5.863,2.395c1.073,0,2.145-0.25,3.137-0.662c0.992-0.412,1.895-0.992,2.646-1.734
		c0.823-0.831,1.403-1.734,1.815-2.726s0.662-2.065,0.662-3.137c0-1.073-0.25-2.145-0.662-3.137
		C271.444,429.339,270.863,428.509,270.04,427.686z"/>
	<path style="fill:#FFD77D;" d="M319.589,427.686c-0.75-0.742-1.654-1.322-2.646-1.734c-1.484-0.662-3.137-0.831-4.791-0.5
		c-0.492,0.089-0.992,0.25-1.484,0.5c-0.5,0.161-0.992,0.411-1.492,0.742c-0.411,0.25-0.823,0.662-1.234,0.992
		c-1.492,1.565-2.395,3.718-2.395,5.863c0,1.073,0.25,2.145,0.662,3.137c0.412,0.992,0.992,1.895,1.734,2.726
		c1.565,1.565,3.629,2.395,5.863,2.395c1.073,0,2.145-0.25,3.137-0.662c0.992-0.412,1.895-0.992,2.646-1.734
		c0.823-0.831,1.403-1.734,1.815-2.726s0.662-2.065,0.662-3.137c0-1.073-0.25-2.145-0.662-3.137
		C320.993,429.339,320.411,428.509,319.589,427.686z"/>
	<path style="fill:#FFD77D;" d="M366.493,425.952c-1.484-0.662-3.137-0.831-4.791-0.5c-0.492,0.089-0.992,0.25-1.484,0.5
		c-0.5,0.161-0.992,0.411-1.492,0.742c-0.411,0.25-0.823,0.662-1.234,0.992c-1.492,1.565-2.395,3.718-2.395,5.863
		c0,1.073,0.25,2.145,0.662,3.137c0.412,0.992,0.992,1.895,1.734,2.726c1.565,1.565,3.629,2.395,5.863,2.395
		c1.073,0,2.145-0.25,3.137-0.662s1.895-0.992,2.726-1.734c0.742-0.831,1.322-1.734,1.734-2.726s0.662-2.065,0.662-3.137
		c0-2.145-0.911-4.298-2.395-5.863C368.388,426.944,367.485,426.364,366.493,425.952z"/>
</g>
<circle style="fill:#464655;" cx="462.453" cy="169.291" r="16.516"/>
<g>
	<path style="fill:#FFD77D;" d="M418.766,427.686c-3.137-3.137-8.669-3.057-11.725,0c-1.492,1.565-2.395,3.718-2.395,5.863
		c0,1.073,0.25,2.145,0.662,3.137c0.412,0.992,0.992,1.895,1.734,2.726c0.55,0.55,1.225,0.889,1.884,1.254
		c4.042-3.012,7.939-6.2,11.755-9.482C420.283,429.893,419.693,428.663,418.766,427.686z"/>
	<path style="fill:#FFD77D;" d="M470.711,367.485c0-1.073-0.25-2.145-0.662-3.137c-0.411-1.073-0.992-1.904-1.734-2.726
		c-2.314-2.234-5.944-3.057-9-1.734c-1.073,0.411-1.903,0.992-2.726,1.734c-0.742,0.823-1.322,1.734-1.734,2.726
		c-0.5,0.992-0.662,2.065-0.662,3.137s0.161,2.145,0.573,3.137c0.419,0.992,1.081,1.895,1.823,2.726
		c0.823,0.742,1.734,1.322,2.726,1.734c0.992,0.412,2.064,0.661,3.138,0.661c2.058,0,3.938-0.782,5.46-2.128
		c0.822-1.459,1.644-2.917,2.433-4.397C470.483,368.639,470.711,368.077,470.711,367.485z"/>
</g>
<path style="fill:#FFC878;" d="M412.904,111.484c3.719,0,6.745-2.505,7.779-5.885c-3.819-3.287-7.784-6.403-11.83-9.418
	c-2.47,1.428-4.208,3.988-4.208,7.045C404.646,107.787,408.342,111.484,412.904,111.484z"/>
<g>
	<path style="fill:#FFD77D;" d="M481.364,328.589c-0.33,0.411-0.742,0.823-0.992,1.234c-0.33,0.5-0.58,0.992-0.742,1.492
		c-0.25,0.492-0.411,0.992-0.5,1.484c-0.081,0.581-0.161,1.153-0.161,1.654c0,1.073,0.25,2.145,0.662,3.137
		c0.412,0.992,0.992,1.895,1.734,2.726c0.427,0.385,0.941,0.633,1.415,0.941c1.766-4.895,3.321-9.889,4.734-14.943
		C485.249,326.246,482.979,327.024,481.364,328.589z"/>
	<path style="fill:#FFD77D;" d="M195.798,460.718c-0.411-0.33-0.831-0.742-1.242-0.992c-0.492-0.33-0.992-0.581-1.483-0.742
		c-0.5-0.25-0.992-0.411-1.484-0.5c-1.161-0.242-2.153-0.242-3.306,0c-0.492,0.089-0.992,0.25-1.484,0.5
		c-0.5,0.161-0.992,0.411-1.492,0.742c-0.248,0.151-0.495,0.383-0.743,0.597c4.461,2.241,8.992,4.359,13.624,6.291
		c0-0.011,0.006-0.021,0.006-0.032c0-1.073-0.25-2.145-0.662-3.137C197.119,462.453,196.54,461.541,195.798,460.718z"/>
</g>
<path style="fill:#FFC878;" d="M186.799,77.79c0.992,0.411,2.065,0.662,3.137,0.662c1.073,0,2.145-0.25,3.137-0.662
	c1.073-0.411,1.895-0.992,2.726-1.734c0.742-0.831,1.322-1.734,1.734-2.726c0.411-0.992,0.662-2.065,0.662-3.137
	c0-0.011-0.006-0.022-0.006-0.032c-4.607,1.921-9.115,4.026-13.552,6.253C185.316,76.95,186.011,77.464,186.799,77.79z"/>
<g>
</g>
<g>
</g>
<g>
</g>
<g>
</g>
<g>
</g>
<g>
</g>
<g>
</g>
<g>
</g>
<g>
</g>
<g>
</g>
<g>
</g>
<g>
</g>
<g>
</g>
<g>
</g>
<g>
</g>
</svg>
