<?xml version="1.0" encoding="iso-8859-1"?>
<!-- Generator: Adobe Illustrator 19.0.0, SVG Export Plug-In . SVG Version: 6.00 Build 0)  -->
<svg version="1.1" id="Layer_1" xmlns="http://www.w3.org/2000/svg" xmlns:xlink="http://www.w3.org/1999/xlink" x="0px" y="0px"
	 viewBox="0 0 512.001 512.001" style="enable-background:new 0 0 512.001 512.001;" xml:space="preserve">
<g>
	<path style="fill:#96695F;" d="M215.366,89.397C190.985,40.635,182.858,0,166.604,0c-8.127,0-32.508,24.381-32.508,56.889
		c0,16.254,8.127,81.27,24.381,105.651L215.366,89.397z"/>
	<path style="fill:#96695F;" d="M296.636,89.397C321.017,40.635,329.144,0,345.398,0c8.127,0,32.508,24.381,32.508,56.889
		c0,16.254-8.127,81.27-24.381,105.651L296.636,89.397z"/>
</g>
<path style="fill:#CD916E;" d="M360.92,162.54c-8.07-40.635-56.495-97.524-104.92-97.524c-48.762,0-97.524,56.889-105.651,97.524
	c-4.508,22.54,33.75,175.637,48.762,235.683c8.127,32.508,8.127,56.889,8.127,56.889h97.187c0,0,0-24.381,8.071-56.889
	C327.403,338.177,365.397,185.08,360.92,162.54z"/>
<path style="fill:#E1A178;" d="M256.001,268.191L256.001,268.191c-17.954,0-32.508,14.554-32.508,32.508v138.159h65.016V300.699
	C288.509,282.745,273.954,268.191,256.001,268.191z"/>
<path style="fill:#96695F;" d="M301.217,423.99c-2.742-13.104-19.065-19.032-28.717-9.755c-0.083,0.08-0.165,0.161-0.246,0.242
	c-8.127,8.127-16.254,8.127-16.254,8.127s-8.127,0-16.254-8.127c-0.081-0.081-0.164-0.162-0.246-0.242
	c-9.652-9.277-25.975-3.348-28.717,9.755c-1.846,8.819-3.545,19.97-3.545,31.122c0,24.381,8.127,56.889,48.762,56.889
	s48.762-32.508,48.762-56.889C304.763,443.96,303.062,432.809,301.217,423.99z"/>
<g>
	<path style="fill:#6E575A;" d="M239.738,471.366c-1.222,0-2.46-0.277-3.627-0.857c-20.167-10.08-20.746-36.77-20.746-39.778
		c0-4.492,3.635-8.127,8.127-8.127s8.127,3.635,8.127,8.127c0,0.191,0.135,19.429,11.762,25.238
		c4.016,2.008,5.643,6.889,3.635,10.904C245.588,469.722,242.722,471.366,239.738,471.366z"/>
	<path style="fill:#6E575A;" d="M272.263,471.366c1.222,0,2.46-0.277,3.627-0.857c20.166-10.08,20.746-36.77,20.746-39.778
		c0-4.492-3.635-8.127-8.127-8.127c-4.492,0-8.127,3.635-8.127,8.127c0,0.191-0.135,19.429-11.762,25.238
		c-4.016,2.008-5.643,6.889-3.635,10.904C266.413,469.722,269.278,471.366,272.263,471.366z"/>
</g>
<g>
	<circle style="fill:#464655;" cx="329.144" cy="203.175" r="16.254"/>
	<circle style="fill:#464655;" cx="182.858" cy="203.175" r="16.254"/>
</g>
<path style="fill:#6E575A;" d="M256.001,495.747c-19.89,0-33.898-4.404-43.713-11.156c6.077,15.121,18.743,27.41,43.713,27.41
	c24.97,0,37.636-12.289,43.713-27.41C289.897,491.342,275.89,495.747,256.001,495.747z"/>
<path style="fill:#96695F;" d="M173.207,137.651c0,0,25.905-2.54,60.952-43.175l-6.603,23.365c0,0,50.794-4.063,69.587-23.365
	l-3.048,14.73c24.381-4.063,32-11.683,32-11.683s-19.302-34.54-69.587-41.143l-0.508,8.635c0,0-17.27-11.683-44.191-9.651
	l3.556,9.651l-24.381,8.127L173.207,137.651z"/>
<g>
</g>
<g>
</g>
<g>
</g>
<g>
</g>
<g>
</g>
<g>
</g>
<g>
</g>
<g>
</g>
<g>
</g>
<g>
</g>
<g>
</g>
<g>
</g>
<g>
</g>
<g>
</g>
<g>
</g>
</svg>
