<?xml version="1.0" encoding="iso-8859-1"?>
<!-- Generator: Adobe Illustrator 19.0.0, SVG Export Plug-In . SVG Version: 6.00 Build 0)  -->
<svg version="1.1" id="Layer_1" xmlns="http://www.w3.org/2000/svg" xmlns:xlink="http://www.w3.org/1999/xlink" x="0px" y="0px"
	 viewBox="0 0 512.001 512.001" style="enable-background:new 0 0 512.001 512.001;" xml:space="preserve">
<g>
	<path style="fill:#C39B6E;" d="M33.032,34.024C9.028,40.153-16.516,91.359,16.516,173.94l90.839-106.883
		C97.72,53.293,65.376,25.766,33.032,34.024z"/>
	<path style="fill:#C39B6E;" d="M478.969,34.024c24.004,6.129,49.548,57.335,16.516,139.916L404.646,67.057
		C414.28,53.293,446.624,25.766,478.969,34.024z"/>
</g>
<path style="fill:#7C665D;" d="M490.063,137.346c12.515-46.016-2.936-74.226-17.613-77.974c-17.124-4.372-34.22,5.787-44.267,15.045
	c-45.468-27.775-105.881-40.865-172.182-40.865S129.286,46.643,83.818,74.419C73.771,65.16,56.676,55.001,39.551,59.373
	C24.873,63.121,9.422,91.33,21.938,137.347C7.874,162.522,0,192.489,0,227.617c0,134.544,114.615,243.613,256.001,243.613
	s256.001-109.07,256.001-243.613C512,192.489,504.126,162.522,490.063,137.346z"/>
<ellipse style="fill:#896F60;" cx="256.001" cy="421.686" rx="107.355" ry="57.807"/>
<path style="fill:#957863;" d="M301.42,347.36c-16.946,0-73.893,0-90.839,0c-43.328,0-78.452,20.335-78.452,45.419
	c0,25.085,30.995,45.419,74.323,45.419c10.382,0,24.407-3.698,33.464-7.779c10.114-4.557,22.054-4.557,32.168,0
	c9.057,4.081,23.081,7.779,33.464,7.779c43.328,0,74.323-20.335,74.323-45.419C379.871,367.694,344.747,347.36,301.42,347.36z"/>
<path style="fill:#AB8389;" d="M256.001,341.795c15.263,0,25.268-6.06,36.631,0c18.315,9.768,17.705,28.694,7.326,36.631
	c-13.988,10.697-28.084,29.305-43.957,29.305s-29.969-18.608-43.957-29.305c-10.378-7.937-10.989-26.863,7.326-36.631
	C230.733,335.734,240.738,341.795,256.001,341.795z"/>
<g>
	<circle style="fill:#464655;" cx="144.516" cy="268.912" r="20.645"/>
	<circle style="fill:#464655;" cx="367.485" cy="268.912" r="20.645"/>
</g>
<g>
</g>
<g>
</g>
<g>
</g>
<g>
</g>
<g>
</g>
<g>
</g>
<g>
</g>
<g>
</g>
<g>
</g>
<g>
</g>
<g>
</g>
<g>
</g>
<g>
</g>
<g>
</g>
<g>
</g>
</svg>
