<?xml version="1.0" encoding="iso-8859-1"?>
<!-- Generator: Adobe Illustrator 19.0.0, SVG Export Plug-In . SVG Version: 6.00 Build 0)  -->
<svg version="1.1" id="Layer_1" xmlns="http://www.w3.org/2000/svg" xmlns:xlink="http://www.w3.org/1999/xlink" x="0px" y="0px"
	 viewBox="0 0 511.999 511.999" style="enable-background:new 0 0 511.999 511.999;" xml:space="preserve">
<g>
	<path style="fill:#585661;" d="M362.348,245.46c-9.597-3.073-18.653-5.967-23.766-5.967c-9.654,0-23.387,10.613-27.435,14.331
		c-3.371,3.097-8.588,2.862-11.67-0.484c-3.089-3.355-2.879-8.565,0.468-11.653c2.081-1.919,20.791-18.71,38.637-18.71
		c7.685,0,17.468,3.129,28.798,6.75c14.306,4.58,30.524,9.766,45.525,9.766c16.621,0,23.412-3.033,25.612-4.379l7.67-30.653
		c1.105-4.427,5.605-7.129,10.008-6.008c4.427,1.105,7.121,5.589,6.008,10.008l-8.258,33.032c-0.186,0.758-0.484,1.484-0.871,2.162
		c-2.17,3.71-10.42,12.355-40.169,12.355C395.324,256.008,377.041,250.161,362.348,245.46z M439.404,234.484L439.404,234.484
		L439.404,234.484z"/>
	<path style="fill:#585661;" d="M448.275,309.839c8.444,0,16.992-1.436,25.525-4.887c2.065-0.831,2.234-0.903,27.573-26.637
		c3.194-3.25,3.154-8.476-0.097-11.678c-3.242-3.202-8.468-3.161-11.678,0.097c-9.436,9.58-20.064,20.298-23.306,23.419
		c-27.371,10.137-58.323-6.991-80.992-19.564c-3.467-1.919-6.75-3.742-9.83-5.371c-15.403-8.121-28.927-10.403-40.186-6.79
		c-8.782,2.822-15.911,9.274-20.605,18.661c-2.041,4.081-0.387,9.041,3.693,11.08c4.089,2.024,9.032,0.387,11.08-3.693
		c2.733-5.476,6.299-8.855,10.879-10.323c6.79-2.185,16.258-0.21,27.427,5.677c2.984,1.572,6.17,3.338,9.532,5.202
		C396.912,295.912,422.025,309.839,448.275,309.839z"/>
	<path style="fill:#585661;" d="M445.944,511.999c1.572,0,3.161-0.444,4.565-1.379c3.799-2.532,4.831-7.653,2.306-11.452
		c-14.363-21.58-38.041-58.162-40.459-64.459c-8.629-22.435-15.016-43.331-20.645-61.774
		c-14.879-48.709-25.629-83.903-61.387-83.903c-4.565,0-8.258,3.693-8.258,8.258c0,4.565,3.693,8.258,8.258,8.258
		c22.532,0,30.693,23.444,45.589,72.218c5.709,18.693,12.186,39.895,21.024,62.879c3.79,9.838,35.758,58.096,42.121,67.67
		C440.654,510.709,443.275,511.999,445.944,511.999z"/>
	<path style="fill:#585661;" d="M289.041,247.759c1.726,0,3.46-0.54,4.943-1.654c23.04-17.274,29.758-40.201,34.661-56.935
		c2.291-7.831,4.459-15.234,7.379-18.016l8.113-7.702c46.968-44.476,79.266-75.975,84.275-85.161
		c1.234-2.259,3.105-6.073,5.411-10.774c5.806-11.839,23.476-47.854,30.919-51.323c4.419-1.105,6.968-5.54,5.863-9.967
		s-5.75-7.113-10.153-5.959C448.855,3.163,437.395,22.736,419,60.244c-2.17,4.427-3.928,8.017-5.089,10.145
		c-3.177,5.815-30.468,33.096-81.129,81.073l-8.161,7.742c-6.121,5.847-8.766,14.871-11.831,25.322
		c-4.484,15.323-10.073,34.387-28.709,48.371c-3.653,2.733-4.395,7.911-1.654,11.556
		C284.049,246.621,286.526,247.759,289.041,247.759z"/>
	<path style="fill:#585661;" d="M99.095,256.008c-29.75,0-37.999-8.645-40.169-12.355c-0.387-0.677-0.685-1.403-0.871-2.162
		l-8.258-33.032c-1.113-4.419,1.58-8.903,6.008-10.008c4.404-1.121,8.903,1.58,10.008,6.008l7.67,30.653
		c2.202,1.347,8.992,4.379,25.612,4.379c15,0,31.218-5.185,45.525-9.766c11.331-3.621,21.113-6.75,28.798-6.75
		c17.847,0,36.556,16.791,38.637,18.71c3.347,3.089,3.556,8.298,0.468,11.653c-3.08,3.347-8.298,3.581-11.67,0.484
		c-4.049-3.718-17.783-14.331-27.435-14.331c-5.113,0-14.17,2.895-23.766,5.967C134.958,250.161,116.676,256.008,99.095,256.008z
		 M72.595,234.484L72.595,234.484L72.595,234.484z"/>
	<path style="fill:#585661;" d="M63.724,309.839c-8.444,0-16.992-1.436-25.525-4.887c-2.065-0.831-2.234-0.903-27.573-26.637
		c-3.194-3.25-3.154-8.476,0.097-11.678c3.242-3.202,8.468-3.161,11.677,0.097c9.436,9.58,20.064,20.298,23.306,23.419
		c27.371,10.137,58.323-6.991,80.992-19.564c3.467-1.919,6.75-3.742,9.83-5.371c15.403-8.121,28.927-10.403,40.186-6.79
		c8.782,2.822,15.911,9.274,20.605,18.661c2.041,4.081,0.387,9.041-3.693,11.08c-4.089,2.024-9.032,0.387-11.08-3.693
		c-2.733-5.476-6.299-8.855-10.879-10.323c-6.79-2.185-16.258-0.21-27.427,5.677c-2.984,1.572-6.17,3.338-9.533,5.202
		C115.087,295.912,89.974,309.839,63.724,309.839z"/>
	<path style="fill:#585661;" d="M66.055,511.999c-1.572,0-3.161-0.444-4.565-1.379c-3.799-2.532-4.831-7.653-2.306-11.452
		c14.363-21.58,38.041-58.162,40.459-64.459c8.629-22.435,15.016-43.331,20.645-61.774c14.879-48.709,25.629-83.903,61.387-83.903
		c4.565,0,8.258,3.693,8.258,8.258c0,4.565-3.693,8.258-8.258,8.258c-22.532,0-30.693,23.444-45.589,72.218
		c-5.709,18.693-12.186,39.895-21.024,62.879c-3.79,9.838-35.758,58.096-42.121,67.67C71.345,510.709,68.724,511.999,66.055,511.999
		z"/>
	<path style="fill:#585661;" d="M222.958,247.759c-1.726,0-3.46-0.54-4.943-1.654c-23.04-17.274-29.758-40.201-34.661-56.935
		c-2.291-7.831-4.459-15.234-7.379-18.016l-8.113-7.702c-46.968-44.476-79.266-75.975-84.275-85.161
		c-1.234-2.259-3.105-6.073-5.411-10.774C72.369,55.678,54.7,19.662,47.256,16.194c-4.419-1.105-6.968-5.54-5.863-9.967
		s5.75-7.113,10.153-5.959c11.596,2.895,23.057,22.468,41.451,59.976c2.17,4.427,3.928,8.017,5.089,10.145
		c3.177,5.815,30.468,33.096,81.129,81.073l8.161,7.742c6.121,5.847,8.766,14.871,11.831,25.322
		c4.484,15.323,10.073,34.387,28.709,48.371c3.653,2.733,4.395,7.911,1.654,11.556C227.95,246.621,225.474,247.759,222.958,247.759z
		"/>
</g>
<path style="fill:#464655;" d="M282.181,181.244c2.395-51.886-17.925-65.623-17.925-65.623v59.871l-8.258-2.065l-8.258,2.065
	v-59.871c0,0-20.32,13.737-17.925,65.623c-4.186,3.036-6.849,7.922-6.849,13.337v20.137h66.064v-20.137
	C289.031,189.166,286.368,184.28,282.181,181.244z"/>
<path style="fill:#FF8C5A;" d="M346.837,355.104c0,68.412-40.67,99.097-90.839,99.097s-90.839-30.685-90.839-99.097
	s40.67-148.645,90.839-148.645S346.837,286.693,346.837,355.104z"/>
<path style="fill:#6B676E;" d="M330.321,280.782c0,41.047-33.275,66.065-74.323,66.065s-74.323-25.017-74.323-66.065
	s42.397-82.581,74.323-82.581S330.321,239.735,330.321,280.782z"/>
<path style="fill:#585661;" d="M189.934,297.298c0-41.048,37.686-74.323,66.065-74.323s66.065,33.275,66.065,74.323
	c0,7.075-0.934,13.637-2.577,19.714c6.829-9.957,10.835-22.118,10.835-36.23c0-41.048-42.397-82.581-74.323-82.581
	s-74.323,41.533-74.323,82.581c0,14.112,4.004,26.273,10.835,36.23C190.868,310.935,189.934,304.374,189.934,297.298z"/>
<g>
</g>
<g>
</g>
<g>
</g>
<g>
</g>
<g>
</g>
<g>
</g>
<g>
</g>
<g>
</g>
<g>
</g>
<g>
</g>
<g>
</g>
<g>
</g>
<g>
</g>
<g>
</g>
<g>
</g>
</svg>
