<?xml version="1.0" encoding="iso-8859-1"?>
<!-- Generator: Adobe Illustrator 19.0.0, SVG Export Plug-In . SVG Version: 6.00 Build 0)  -->
<svg version="1.1" id="Layer_1" xmlns="http://www.w3.org/2000/svg" xmlns:xlink="http://www.w3.org/1999/xlink" x="0px" y="0px"
	 viewBox="0 0 512 512" style="enable-background:new 0 0 512 512;" xml:space="preserve">
<path style="fill:#6E5550;" d="M276.155,462.452h-40.311c-11.608,0-21.017-9.41-21.017-21.017l0,0
	c0-11.608,9.41-21.017,21.017-21.017h40.311c11.608,0,21.017,9.41,21.017,21.017l0,0
	C297.172,453.042,287.762,462.452,276.155,462.452z"/>
<g>
	<path style="fill:#877364;" d="M224.803,156.904c-0.516,0-3.507-59.272-24.774-76.45c-8.724-7.046-27.044-11.747-38.797-14.174
		c-6.145-1.269-11.891,3.246-12.329,9.505c-1.474,20.993,1.913,66.854,51.128,103.765L224.803,156.904z"/>
	<path style="fill:#877364;" d="M289.032,156.904c0.516,0,3.507-59.272,24.774-76.45c8.724-7.046,27.044-11.747,38.797-14.174
		c6.145-1.269,11.891,3.246,12.329,9.505c1.474,20.993-1.913,66.854-51.128,103.765L289.032,156.904z"/>
	<path style="fill:#877364;" d="M90.96,158.075c-17.679-10.605-25.014-34.278-27.915-55.876c1.512-2.6,7.492-11.914,20.262-21.205
		c3.693-2.678,4.508-7.847,1.823-11.532c-2.678-3.693-7.839-4.5-11.532-1.823c-4.887,3.553-8.924,7.125-12.294,10.494
		c-0.162-11.358,0.567-19.273,0.593-19.519c0.452-4.533-2.862-8.58-7.403-9.032c-4.459-0.404-8.573,2.855-9.032,7.395
		c-0.355,3.589-8.258,88.104,37,115.258c1.331,0.798,2.798,1.178,4.242,1.178c2.807,0,5.54-1.428,7.089-4.008
		C96.138,165.494,94.873,160.422,90.96,158.075z"/>
	<path style="fill:#877364;" d="M144.517,82.575c-1.557,0-38.346,0.427-56.935,37.597c-2.041,4.081-0.387,9.041,3.693,11.08
		c1.185,0.588,2.443,0.871,3.685,0.871c3.033,0,5.944-1.669,7.395-4.565c13.919-27.839,41.056-28.451,42.162-28.468
		c4.565,0,8.258-3.693,8.258-8.258S149.082,82.575,144.517,82.575z"/>
</g>
<path style="fill:#6E5550;" d="M151.38,193.285c-28.275,0-61.701-5.097-90.452-23.452C27.945,148.792,7.501,114.527,0.155,67.995
	c-1.073-6.758,3.548-13.105,10.299-14.17c6.782-1.089,13.105,3.541,14.17,10.299c6.185,39.177,22.855,67.702,49.532,84.766
	c1.54,0.984,3.089,1.919,4.662,2.807c-1.363-31.831,21.612-76.379,30.097-91.653c3.323-5.976,10.871-8.121,16.838-4.814
	c5.984,3.323,8.137,10.862,4.823,16.846c-18.153,32.726-32.653,75.177-25.299,86.21c6.428,9.645,54.669,11,103.274,2.911
	c6.516-1.056,12.677,3.097,14.113,9.5c1.443,6.403-2.363,12.823-8.677,14.629C212.001,185.89,185.42,193.285,151.38,193.285z"/>
<g>
	<path style="fill:#877364;" d="M421.038,158.075c17.68-10.605,25.014-34.278,27.915-55.876c-1.512-2.6-7.492-11.914-20.262-21.205
		c-3.693-2.678-4.508-7.847-1.823-11.532c2.678-3.693,7.839-4.5,11.532-1.823c4.887,3.553,8.924,7.125,12.294,10.494
		c0.162-11.358-0.567-19.273-0.593-19.519c-0.452-4.533,2.862-8.58,7.403-9.032c4.459-0.404,8.573,2.855,9.032,7.395
		c0.355,3.589,8.258,88.104-37,115.258c-1.331,0.798-2.798,1.178-4.242,1.178c-2.807,0-5.54-1.428-7.089-4.008
		C415.861,165.494,417.127,160.422,421.038,158.075z"/>
	<path style="fill:#877364;" d="M367.483,82.575c1.557,0,38.346,0.427,56.935,37.597c2.041,4.081,0.387,9.041-3.693,11.08
		c-1.185,0.588-2.443,0.871-3.685,0.871c-3.033,0-5.944-1.669-7.395-4.565c-13.919-27.839-41.056-28.451-42.162-28.468
		c-4.565,0-8.258-3.693-8.258-8.258S362.918,82.575,367.483,82.575z"/>
</g>
<path style="fill:#6E5550;" d="M360.619,193.285c28.275,0,61.701-5.097,90.452-23.452c32.984-21.041,53.428-55.306,60.774-101.838
	c1.073-6.758-3.548-13.105-10.299-14.17c-6.782-1.089-13.105,3.541-14.17,10.299c-6.185,39.177-22.855,67.702-49.532,84.766
	c-1.54,0.984-3.089,1.919-4.662,2.807c1.363-31.831-21.612-76.379-30.097-91.653c-3.323-5.976-10.871-8.121-16.838-4.814
	c-5.984,3.323-8.137,10.862-4.823,16.846c18.153,32.726,32.653,75.177,25.299,86.21c-6.428,9.645-54.669,11-103.274,2.911
	c-6.517-1.056-12.677,3.097-14.113,9.5c-1.443,6.403,2.363,12.823,8.677,14.629C299.999,185.89,326.579,193.285,360.619,193.285z"/>
<path style="fill:#9F8976;" d="M307.632,379.872c0-22.021,22.69-49.548,22.69-115.613c0-20.645,8.258-21.677,8.258-41.29
	c0-26.495-24.774-33.032-24.774-33.032c0-24.086-8.947-41.29-41.29-41.29h-33.032c-32.344,0-41.29,17.205-41.29,41.29
	c0,0-24.774,6.537-24.774,33.032c0,19.613,8.258,20.645,8.258,41.29c0,66.065,23.564,93.592,23.564,115.613H307.632z"/>
<g>
	<ellipse style="fill:#464655;" cx="202.322" cy="222.968" rx="12.387" ry="16.516"/>
	<ellipse style="fill:#464655;" cx="309.677" cy="222.968" rx="12.387" ry="16.516"/>
</g>
<path style="fill:#877364;" d="M297.29,357.719c-15.111-25.185-20.04-39.057-21.587-49.199c-1.484-9.734-9.857-16.865-19.704-16.865
	l0,0c-9.847,0-18.219,7.132-19.704,16.865c-1.546,10.142-6.475,24.013-21.587,49.199c-15.319,25.532-36.781,73.659,0.118,87.057
	c5.666,2.057,15.309,1.208,23.97-1.211c4.722-1.319,9.563-2.13,14.465-2.13H256h2.738c4.902,0,9.743,0.811,14.465,2.13
	c8.661,2.419,18.304,3.268,23.97,1.211C334.072,431.378,312.609,383.251,297.29,357.719z"/>
<g>
</g>
<g>
</g>
<g>
</g>
<g>
</g>
<g>
</g>
<g>
</g>
<g>
</g>
<g>
</g>
<g>
</g>
<g>
</g>
<g>
</g>
<g>
</g>
<g>
</g>
<g>
</g>
<g>
</g>
</svg>
