<?xml version="1.0" encoding="iso-8859-1"?>
<!-- Generator: Adobe Illustrator 19.0.0, SVG Export Plug-In . SVG Version: 6.00 Build 0)  -->
<svg version="1.1" id="Layer_1" xmlns="http://www.w3.org/2000/svg" xmlns:xlink="http://www.w3.org/1999/xlink" x="0px" y="0px"
	 viewBox="0 0 512 512" style="enable-background:new 0 0 512 512;" xml:space="preserve">
<g>
	<path style="fill:#8D674E;" d="M41.29,224.179L8.258,257.211l27.886,7.27l0.039,0.035c5.107-40.338,100.013-10.773,128.978-7.305
		c6.836,0.818,33.703-14.693,41.29-24.774L41.29,224.179z"/>
	<path style="fill:#8D674E;" d="M322.065,174.63C137.979,177.382,0,149.856,0,229.856l355.097-30.452
		C351.966,193.145,331.411,174.49,322.065,174.63z"/>
</g>
<path style="fill:#AF874B;" d="M404.645,191.146c-85.809,10.801-291.784,0-322.065,0C30.968,191.146,0,207.663,0,232.437
	s33.032,41.29,33.032,41.29c-8.258-16.516,1.046-37.423,16.516-41.29c39.226-9.806,163.784,16.516,264.258,16.516
	c172.731,0,188.589-24.006,198.194-41.29C512,207.663,503.053,178.759,404.645,191.146z"/>
<path style="fill:#96735A;" d="M410.079,222.25C474.865,216.943,512,207.663,512,207.663s-8.947-28.903-107.355-16.516
	c-85.809,10.801-291.784,0-322.065,0C30.968,191.146,0,207.663,0,232.437c0,14.417,11.171,26.004,20.523,33.199
	c-12.265-24.941-4.139-50.511,29.026-55.588c45.934-7.031,123.573,9.768,206.451,14.131c52.972,2.788,99.344,1.809,137.549-0.709
	c1.096,8.192,4.331,15.736,9.659,22.581c7.666-0.588,14.798-1.254,21.368-1.994C416.318,237.564,411.447,230.265,410.079,222.25z"/>
<path style="fill:#8D674E;" d="M36.125,264.473C15.488,255.32,0,245.704,0,232.437c0,49.548,35.784,67.097,78.881,75.899
	c32.967,6.733,60.989,31.456,60.989,31.456c0-40.421-62.283-56.931-103.726-75.31C36.145,264.481,34.404,263.397,36.125,264.473z"/>
<circle style="fill:#464655;" cx="457.29" cy="204.047" r="8.258"/>
<path style="fill:#8D674E;" d="M340.3,210.759c0,0,2.065,22.366,16.172,25.806l44.731-10.666l-2.065-11.011L340.3,210.759z"/>
<g>
</g>
<g>
</g>
<g>
</g>
<g>
</g>
<g>
</g>
<g>
</g>
<g>
</g>
<g>
</g>
<g>
</g>
<g>
</g>
<g>
</g>
<g>
</g>
<g>
</g>
<g>
</g>
<g>
</g>
</svg>
