<?xml version="1.0" encoding="iso-8859-1"?>
<!-- Generator: Adobe Illustrator 19.0.0, SVG Export Plug-In . SVG Version: 6.00 Build 0)  -->
<svg version="1.1" id="Layer_1" xmlns="http://www.w3.org/2000/svg" xmlns:xlink="http://www.w3.org/1999/xlink" x="0px" y="0px"
	 viewBox="0 0 512.003 512.003" style="enable-background:new 0 0 512.003 512.003;" xml:space="preserve">
<g>
	<path style="fill:#ADA9A7;" d="M238.555,172.243c-5.33,0-30.455-6.771-52.627-12.754c-34.824-9.394-70.833-19.099-85.198-19.099
		c-20.638,0-34.815,6.501-38.871,17.834c-1.22,3.391-3.186,12.287,4.809,21.526c13.056,15.097,78.882,34.963,107.569,34.963
		c29.933,0,65.153-10.514,66.643-10.959c4.038-1.223,6.865-5.443,6.865-10.275v-10.618
		C247.743,176.992,243.634,172.243,238.555,172.243z"/>
	<path style="fill:#ADA9A7;" d="M273.447,172.243c5.33,0,30.455-6.771,52.627-12.754c34.824-9.394,70.833-19.099,85.198-19.099
		c20.638,0,34.815,6.501,38.871,17.834c1.22,3.391,3.186,12.287-4.809,21.526c-13.056,15.097-78.882,34.963-107.569,34.963
		c-29.933,0-65.153-10.514-66.643-10.959c-4.038-1.223-6.865-5.443-6.865-10.275v-10.618
		C264.259,176.992,268.369,172.243,273.447,172.243z"/>
</g>
<g>
	<path style="fill:#A79179;" d="M186.864,88.013c1.58,2.629,3.073,8.017,3.073,11.089v33.032c0,7.492,4.662,15.734,11.089,19.589
		l34.21,20.524c1.331,0.798,2.798,1.178,4.242,1.178c2.807,0,5.54-1.428,7.089-4.008c2.346-3.911,1.081-8.984-2.83-11.331
		l-34.21-20.524c-1.403-0.846-3.073-3.79-3.073-5.428V99.101c0-6.016-2.331-14.435-5.428-19.589L155.727,4.013
		c-2.346-3.903-7.419-5.185-11.331-2.83c-3.911,2.346-5.178,7.419-2.83,11.331L186.864,88.013z"/>
	<path style="fill:#A79179;" d="M272.528,173.424c1.443,0,2.911-0.379,4.242-1.178l34.21-20.524
		c6.428-3.854,11.089-12.097,11.089-19.589V99.1c0-3.073,1.492-8.459,3.073-11.089l45.299-75.5c2.346-3.911,1.081-8.984-2.83-11.331
		c-3.911-2.355-8.984-1.073-11.331,2.83l-45.299,75.501c-3.097,5.153-5.428,13.572-5.428,19.589v33.032
		c0,1.637-1.669,4.581-3.073,5.428l-34.21,20.524c-3.911,2.346-5.178,7.42-2.83,11.331
		C266.988,171.996,269.721,173.424,272.528,173.424z"/>
	<path style="fill:#A79179;" d="M427.842,383.276l-61.21-84.161c-2.306-3.177-5.741-9.121-7.338-12.726l-26.323-59.226
		c-2.363-5.307-7.5-12.113-11.96-15.831l-43.202-36c-1.557-1.291-3.43-1.874-5.292-1.848v-0.064h-33.032v0.064
		c-1.861-0.025-3.735,0.556-5.29,1.848l-43.202,36c-4.459,3.718-9.597,10.524-11.96,15.831l-26.323,59.226
		c-1.597,3.605-5.032,9.548-7.338,12.726l-61.21,84.161c-2.686,3.685-1.871,8.855,1.823,11.532c1.468,1.064,3.162,1.58,4.846,1.58
		c2.557,0,5.073-1.178,6.686-3.403l61.21-84.161c3.008-4.129,6.991-11.04,9.081-15.725l26.323-59.226
		c1.322-2.976,4.935-7.766,7.444-9.847l20.612-17.176l-18.563,29.563c-3.097,5.153-5.428,13.572-5.428,19.589v66.064
		c0,3.427-1.234,9.436-2.581,12.597l-71.072,165.83c-1.798,4.186,0.146,9.04,4.339,10.839c1.056,0.459,2.162,0.669,3.25,0.669
		c3.202,0,6.25-1.871,7.589-5.008l71.08-165.838c2.225-5.217,3.91-13.427,3.91-19.089v-66.065c0-3.073,1.492-8.459,2.984-10.944
		l34.615-55.121h7.386l34.615,55.122c1.492,2.484,2.984,7.871,2.984,10.944v66.065c0,5.661,1.686,13.871,3.911,19.089l71.08,165.838
		c1.339,3.137,4.387,5.008,7.589,5.008c1.089,0,2.194-0.21,3.25-0.669c4.194-1.798,6.137-6.653,4.339-10.839l-71.073-165.83
		c-1.347-3.162-2.581-9.17-2.581-12.597v-66.065c0-6.016-2.331-14.435-5.428-19.589l-18.563-29.563l20.612,17.176
		c2.508,2.081,6.121,6.871,7.444,9.847l26.323,59.226c2.088,4.685,6.073,11.596,9.081,15.725l61.21,84.161
		c1.613,2.226,4.129,3.403,6.686,3.403c1.686,0,3.379-0.516,4.846-1.58C429.713,392.131,430.527,386.961,427.842,383.276z"/>
</g>
<path style="fill:#DCB478;" d="M272.517,198.197h-16.516h-16.516c0,16.516-16.516,82.581,16.516,123.871
	C289.034,280.777,272.517,214.713,272.517,198.197z"/>
<path style="fill:#967D6E;" d="M256.001,156.907c-4.565,0-8.258-3.693-8.258-8.258V74.326c0-4.565,3.693-8.258,8.258-8.258
	s8.258,3.693,8.258,8.258v74.323C264.259,153.212,260.566,156.907,256.001,156.907z"/>
<g>
	<path style="fill:#D2A564;" d="M256.001,214.713L256.001,214.713c-13.683,0-24.774-11.092-24.774-24.774v-24.774
		c0-13.683,11.092-24.774,24.774-24.774l0,0c13.683,0,24.774,11.092,24.774,24.774v24.774
		C280.775,203.621,269.684,214.713,256.001,214.713z"/>
	<path style="fill:#D2A564;" d="M256.001,272.519c-6.714,0-13.239-0.713-19.542-1.976c0.657,5.741,1.62,11.511,3.064,17.199
		c5.386,0.772,10.86,1.292,16.478,1.292s11.092-0.52,16.478-1.292c1.444-5.689,2.407-11.459,3.064-17.199
		C269.24,271.805,262.715,272.519,256.001,272.519z"/>
	<path style="fill:#D2A564;" d="M276.145,236.321c-6.283,2.012-13.052,3.166-20.143,3.166s-13.86-1.154-20.143-3.166
		c-0.34,5.43-0.517,11.142-0.443,17.05c6.547,1.682,13.439,2.633,20.586,2.633s14.041-0.952,20.586-2.633
		C276.662,247.463,276.484,241.75,276.145,236.321z"/>
</g>
<g>
</g>
<g>
</g>
<g>
</g>
<g>
</g>
<g>
</g>
<g>
</g>
<g>
</g>
<g>
</g>
<g>
</g>
<g>
</g>
<g>
</g>
<g>
</g>
<g>
</g>
<g>
</g>
<g>
</g>
</svg>
