<?xml version="1.0" encoding="iso-8859-1"?>
<!-- Generator: Adobe Illustrator 19.0.0, SVG Export Plug-In . SVG Version: 6.00 Build 0)  -->
<svg version="1.1" id="Layer_1" xmlns="http://www.w3.org/2000/svg" xmlns:xlink="http://www.w3.org/1999/xlink" x="0px" y="0px"
	 viewBox="0 0 512 512" style="enable-background:new 0 0 512 512;" xml:space="preserve">
<path style="fill:#585661;" d="M360.929,338.622c0,0,89.293-5.134,117.423-8.252c37.218-4.126,33.549-16.504,33.549-16.504
	c0-7.221-24.463-47.45-58.711-66.018c-28.033-15.197-71.991-29.57-117.423-33.009c-37.863-2.866-36.17-56.218-67.099-82.521
	c-11.988-10.196-30.404-13.41-25.162,0s30.404,71.174,0,82.521S134.471,230.311,42.21,305.612c0,0-31.752-12.525-41.937,0
	c-2.795,3.438,16.775,24.757,16.775,24.757S0.273,362.001,0.273,379.882c0,0.688,34.947-14.441,41.937-41.261
	c2.951-11.324,86.938-30.793,150.972-16.504c67.798,15.129,109.035,16.504,109.035,16.504"/>
<g>
	<path style="fill:#F0EBE1;" d="M436.415,289.109c-5.242-10.659-25.861-25.788-67.099-24.757c0,0,7.688,17.879,25.162,24.757
		C411.951,295.986,436.415,289.109,436.415,289.109z"/>
	<path style="fill:#F0EBE1;" d="M347.258,338.622h13.67c0,0,89.293-5.134,117.423-8.252c29.783-3.301,33.372-11.873,33.623-15.171
		C462.876,318.38,394.11,284.6,347.258,338.622z"/>
</g>
<path style="fill:#6B676E;" d="M305.599,322.553c0,0-8.274,60.081-3.381,65.582c4.893,5.501,63.642-41.86,67.099-66.018
	C371.615,306.048,322.102,306.048,305.599,322.553z"/>
<path style="fill:#F0EBE1;" d="M273.236,336.055c-25.402-30.008-65.532-46.512-91.42-46.512c-33.009,0-49.513,8.252-24.757,16.504
	c14.695,4.899,32.265,9.825,45.872,18.177C232.374,330.463,256.291,334.044,273.236,336.055z"/>
<path style="fill:#6B676E;" d="M239.581,248.283c206.304-24.757,272.392,66.916,272.392,66.916l0,0
	c0.063-0.824-0.073-1.334-0.073-1.334c0-7.221-24.464-47.45-58.711-66.018c-28.033-15.196-71.991-29.57-117.423-33.009
	c-37.863-2.865-36.17-56.218-67.099-82.521c-11.988-10.195-30.404-13.41-25.162,0s30.404,71.174,0,82.521
	S134.47,230.311,42.209,305.612C75.899,321.684,91.193,266.09,239.581,248.283z"/>
<g>
</g>
<g>
</g>
<g>
</g>
<g>
</g>
<g>
</g>
<g>
</g>
<g>
</g>
<g>
</g>
<g>
</g>
<g>
</g>
<g>
</g>
<g>
</g>
<g>
</g>
<g>
</g>
<g>
</g>
</svg>
