<?xml version="1.0" encoding="iso-8859-1"?>
<!-- Generator: Adobe Illustrator 19.0.0, SVG Export Plug-In . SVG Version: 6.00 Build 0)  -->
<svg version="1.1" id="Layer_1" xmlns="http://www.w3.org/2000/svg" xmlns:xlink="http://www.w3.org/1999/xlink" x="0px" y="0px"
	 viewBox="0 0 512.001 512.001" style="enable-background:new 0 0 512.001 512.001;" xml:space="preserve">
<g>
	<path style="fill:#F0EBE1;" d="M256.001,70.194c-99.097,0-239.484,41.29-239.484,82.581c0,33.032,24.774,66.065,24.774,66.065
		h214.71h214.71c0,0,24.774-33.032,24.774-66.065C495.485,111.484,355.098,70.194,256.001,70.194z"/>
	<path style="fill:#F0EBE1;" d="M346.839,177.549h-90.839h-90.839c0,0-165.162,33.032-165.162,140.387
		c0,115.613,231.226,99.097,256.001,123.871c24.774-24.774,256.001-8.258,256.001-123.871
		C512,210.581,346.839,177.549,346.839,177.549z"/>
</g>
<g>
	<path style="fill:#E6E1D7;" d="M70.194,169.291c28.903,0,94.968,24.774,94.968,82.581c0,52.228-90.839,49.548-115.613-16.516
		C43.473,219.153,52.89,169.291,70.194,169.291z"/>
	<path style="fill:#E6E1D7;" d="M441.807,169.291c-28.903,0-94.968,24.774-94.968,82.581c0,52.228,90.839,49.548,115.613-16.516
		C468.527,219.153,459.111,169.291,441.807,169.291z"/>
	<path style="fill:#E6E1D7;" d="M256.001,441.807c16.376-16.376,122.925-14.74,193.303-45.119
		c-63.243-50.663-141.521-37.462-193.303-37.462s-130.06-13.202-193.303,37.461C133.076,427.068,239.625,425.431,256.001,441.807z"
		/>
</g>
<circle style="fill:#74666B;" cx="61.936" cy="206.452" r="37.161"/>
<circle style="fill:#464655;" cx="61.936" cy="206.452" r="20.645"/>
<circle style="fill:#74666B;" cx="450.065" cy="206.452" r="37.161"/>
<circle style="fill:#464655;" cx="450.065" cy="206.452" r="20.645"/>
<path style="fill:#FFD2B9;" d="M66.065,317.936v8.258c0,0,49.548,41.29,74.323,41.29c12.176,0,219.051,0,231.226,0
	c24.774,0,74.323-41.29,74.323-41.29v-8.258H66.065z"/>
<path style="fill:#EBB4A0;" d="M437.678,293.162H74.323l-24.774,16.516c0,16.516,8.258,24.774,24.774,16.516
	s107.355,33.032,181.678,33.032s165.162-41.29,181.678-33.032s24.774,0,24.774-16.516L437.678,293.162z"/>
<path style="fill:#FFD2B9;" d="M478.969,293.162c-24.774-24.774-132.129-49.548-165.162-90.839
	c-18.6-23.251-24.773,0.773-57.807,0.773s-39.206-24.024-57.807-0.773c-33.032,41.29-140.387,66.065-165.162,90.839
	c-8.258,8.258,0,24.774,8.258,24.774s16.516-16.516,41.29-16.516c26.114,0,140.387,33.032,173.42,33.032l0,0
	c33.032,0,147.306-33.032,173.42-33.032c24.774,0,33.032,16.516,41.29,16.516C478.969,317.936,487.227,301.42,478.969,293.162z"/>
<path style="fill:#E3BCA9;" d="M256.001,243.613c-44.751,0-89.502,53.736-134.254,64.172
	c44.782,9.598,110.508,26.667,134.254,26.667l0,0c23.745,0,89.472-17.069,134.253-26.667
	C345.503,297.349,300.751,243.613,256.001,243.613z"/>
<g>
	<path style="fill:#74666B;" d="M165.162,276.646c0,2.486,0.477,4.837,1.158,7.1c2.264,0.681,4.615,1.158,7.1,1.158
		c13.683,0,24.774-11.092,24.774-24.774c0-2.486-0.477-4.837-1.158-7.1c-2.264-0.681-4.615-1.158-7.1-1.158
		C176.253,251.871,165.162,262.963,165.162,276.646z"/>
	<path style="fill:#74666B;" d="M346.839,276.646c0,2.486-0.477,4.837-1.158,7.1c-2.264,0.681-4.615,1.158-7.1,1.158
		c-13.683,0-24.774-11.092-24.774-24.774c0-2.486,0.477-4.837,1.158-7.1c2.264-0.681,4.615-1.158,7.1-1.158
		C335.748,251.871,346.839,262.963,346.839,276.646z"/>
</g>
<g>
</g>
<g>
</g>
<g>
</g>
<g>
</g>
<g>
</g>
<g>
</g>
<g>
</g>
<g>
</g>
<g>
</g>
<g>
</g>
<g>
</g>
<g>
</g>
<g>
</g>
<g>
</g>
<g>
</g>
</svg>
