<?xml version="1.0" encoding="iso-8859-1"?>
<!-- Generator: Adobe Illustrator 19.0.0, SVG Export Plug-In . SVG Version: 6.00 Build 0)  -->
<svg version="1.1" id="Layer_1" xmlns="http://www.w3.org/2000/svg" xmlns:xlink="http://www.w3.org/1999/xlink" x="0px" y="0px"
	 viewBox="0 0 512.001 512.001" style="enable-background:new 0 0 512.001 512.001;" xml:space="preserve">
<g>
	<path style="fill:#9B9673;" d="M371.645,136.385c-24.776,0-99.105-8.259-132.14,66.07h181.693
		C421.198,185.937,394.78,136.385,371.645,136.385z"/>
	<path style="fill:#9B9673;" d="M189.953,169.42c-13.077,0-51.617,11.012-57.811,41.294l66.07,8.259l33.035-16.518
		C231.246,202.455,198.211,169.42,189.953,169.42z"/>
</g>
<g>
	<path style="fill:#D7BC84;" d="M305.575,326.336c0,0,7.584,49.688,8.259,49.553c41.294-8.259,66.07-49.553,66.07-49.553H305.575z"
		/>
	<path style="fill:#D7BC84;" d="M222.988,301.56h-57.811c0,0,4.818,49.553,8.259,49.553c23.399,0,58.844-22.712,66.07-42.326
		L222.988,301.56z"/>
</g>
<path style="fill:#AFAA8C;" d="M503.786,252.007c-17.894-13.077-54.101-38.774-74.329-57.811
	c-23.399-22.024-66.07-24.776-107.364-24.776c-39.917,0-45.423,17.205-90.846,24.776c-42.09,7.015-66.933,37.379-99.105,49.553
	c-50.929,19.27-110.116-2.065-132.14,24.776c0,0,49.553,24.088,49.553,33.035c0,8.946-8.259,57.123-8.259,57.811
	c0,6.541,35.155-21.311,57.811-57.811c12.388-19.959,39.917-30.283,74.329-16.518c21.857,8.743,40.208,21.893,74.329,33.035
	c67.446,22.023,152.134,15.648,181.693,8.259c21.794-5.449,57.39-18.662,69.91-31.442c3.573-3.647,0.666-9.852-4.44-9.852h-32.435
	c4.818-4.818,9.98-8.259,16.518-8.259c0,0,13.421,0,19.356,0C505.85,276.784,521.679,265.083,503.786,252.007z"/>
<path style="fill:#FFCD7D;" d="M406.865,330.276c-11.552-7.797-26.961-12.198-43.478-45.233c0,0-115.623-24.776-224.778-6.106
	c10.401-0.749,22.141,1.031,34.826,6.106c21.857,8.743,40.208,21.893,74.329,33.035
	C302.283,335.879,368.037,335.122,406.865,330.276z"/>
<path style="fill:#87966E;" d="M503.786,252.007c-8.523-6.228-21.222-15.348-34.348-25.22c-13.776,0.272-39.254,4.408-54.692,29.35
	c0,0,22.97,20.647,80.781,20.647c1.121,0,2.08-0.022,3.158-0.028C506.282,276.448,521.441,264.908,503.786,252.007z"/>
<circle style="fill:#464655;" cx="462.492" cy="252.006" r="8.259"/>
<path style="fill:#87966E;" d="M397.01,254.402c6.285-8.731,24.188-35.43,56.523-39.864c-8.927-7.042-17.399-14.057-24.077-20.342
	c-23.399-22.024-66.07-24.776-107.364-24.776c-39.917,0-45.423,17.205-90.846,24.776c-42.09,7.015-66.933,37.379-99.105,49.553
	C81.212,263.018,22.024,241.684,0,268.525c0,0,49.553,24.088,49.553,33.035c79.453-71.509,322.092-49.553,322.092-49.553
	c0.088,0.638,8.259,49.553,60.395,73.652c7.551-1.997,16.428-4.796,25.359-8.132C412.018,306.845,399.738,266.722,397.01,254.402z"
	/>
<path style="fill:#9B9673;" d="M94.026,251.872c-39.498,3.58-77.378-3.635-94.025,16.653c0,0,49.553,24.088,49.553,33.035
	c0,8.946-8.259,57.123-8.259,57.811c0,6.541,35.155-21.311,57.811-57.811c2.257-3.635,5.028-6.94,8.238-9.849
	C92.028,276.97,91.468,262.998,94.026,251.872z"/>
<g>
	<path style="fill:#5C6661;" d="M270.592,279.65l16.435-104.089c-12.489,4.742-23.565,11.245-42.967,15.987l13.911,88.102
		C259.106,286.84,269.457,286.84,270.592,279.65z"/>
	<path style="fill:#5C6661;" d="M322.093,169.42c-5.759,0-10.745,0.391-15.294,1.026l17.243,109.204
		c1.136,7.19,11.486,7.19,12.621,0l17.27-109.377C343.458,169.623,332.736,169.42,322.093,169.42z"/>
	<path style="fill:#5C6661;" d="M204.522,279.65l12.973-82.17c-13.341,4.094-24.954,10.403-35.847,17.239l10.252,64.929
		C193.036,286.84,203.386,286.84,204.522,279.65z"/>
	<path style="fill:#5C6661;" d="M145.063,237.775c-4.214,2.256-8.495,4.298-12.923,5.973c-3.763,1.424-7.578,2.568-11.414,3.585
		l5.103,32.317c0.092,0.58,0.328,1.035,0.53,1.522c3.823-1.141,7.886-1.919,12.203-2.234L145.063,237.775z"/>
	<path style="fill:#5C6661;" d="M397.01,254.402c2.357-3.275,6.348-9.075,12.121-15.282l8.443-53.47
		c-12.372-7.156-27.707-11.213-44.43-13.458l16.968,107.457c1.136,7.19,11.486,7.19,12.621,0l0.958-6.065
		C399.881,265.546,397.908,258.458,397.01,254.402z"/>
</g>
<path style="fill:#D7BC84;" d="M378.982,273.557c-16.843-2.964-41.681-6.896-54.871-6.896c0,0-8.259,24.776,8.636,37.814
	c11.164,8.615,43.377-0.873,65.677-2.639C389.199,292.187,383.039,282.108,378.982,273.557z"/>
<g>
</g>
<g>
</g>
<g>
</g>
<g>
</g>
<g>
</g>
<g>
</g>
<g>
</g>
<g>
</g>
<g>
</g>
<g>
</g>
<g>
</g>
<g>
</g>
<g>
</g>
<g>
</g>
<g>
</g>
</svg>
