<?xml version="1.0" encoding="iso-8859-1"?>
<!-- Generator: Adobe Illustrator 19.0.0, SVG Export Plug-In . SVG Version: 6.00 Build 0)  -->
<svg version="1.1" id="Layer_1" xmlns="http://www.w3.org/2000/svg" xmlns:xlink="http://www.w3.org/1999/xlink" x="0px" y="0px"
	 viewBox="0 0 512.001 512.001" style="enable-background:new 0 0 512.001 512.001;" xml:space="preserve">
<g>
	<path style="fill:#A0AF64;" d="M404.646,272.517l-33.032,49.548c0,0-19.613-13.419-12.971-33.034
		c0.962-2.842,2.556-5.594,4.714-8.256C378.839,261.678,404.646,272.517,404.646,272.517z"/>
	<path style="fill:#A0AF64;" d="M247.742,289.033c-24.774,8.258-24.774,41.29,0,41.29c12.651,0,49.548-41.29,49.548-41.29H247.742z"
		/>
	<path style="fill:#A0AF64;" d="M148.645,264.259c-33.032,8.258-33.032,17.032-33.032,24.774c0,7.742,21.434,16.516,33.032,16.516
		c16.516,0,57.807-33.032,57.807-33.032L148.645,264.259z"/>
	<path style="fill:#A0AF64;" d="M206.452,214.71c0,0-24.774-33.032-49.548-33.032c-16.516,0-49.548,10.323-49.548,16.516
		s57.807,41.29,57.807,41.29L206.452,214.71z"/>
</g>
<path style="fill:#B9D778;" d="M355.098,289.033c-41.119,0-105.91,0-115.613,0c-33.032,0-110.796-24.774-132.129-24.774
	s-91.527,24.774-99.097,24.774S0,287.657,0,280.775c0-6.882,33.032-26.15,33.032-33.032C33.032,240.86,0,221.591,0,214.71
	c0-6.881,0.689-8.258,8.258-8.258s77.763,24.774,99.097,24.774s99.097-24.774,132.129-24.774c12.387,0,128,0,148.645,0
	c23.772,0,92.975,23.448,116.238,30.833c4.553,1.445,7.634,5.681,7.634,10.458l0,0c0,4.777-3.079,9.012-7.634,10.458
	c-20.971,6.657-79.278,26.369-107.978,30.188"/>
<path style="fill:#DCEB87;" d="M0,280.73c0-1.925,2.628-4.837,6.353-8.158c0.309-0.032,0.605-0.058,0.888-0.072
	c3.395-0.615,15.425-4.21,25.148-7.116c33.532-10.02,60.344-17.686,74.966-17.686c10.887,0,28.749,4.11,56.993,10.819
	c26.177,6.216,58.756,13.955,75.136,13.955h148.645c18.307,0,76.203-18.737,100.927-26.738c4.001-1.296,7.492-2.426,10.313-3.321
	c1.788-0.568,4.886-1.601,8.784-2.93c2.345,2.041,3.847,4.964,3.847,8.214c0,4.778-3.079,9.012-7.634,10.458
	c-23.264,7.385-92.467,30.833-116.238,30.833c-20.645,0-136.258,0-148.645,0c-33.032,0-110.796-24.774-132.129-24.774
	s-91.526,24.774-99.097,24.774S0,287.612,0,280.73z"/>
<path style="fill:#ACC36E;" d="M0,214.71c0,1.925,2.628,4.837,6.353,8.158c0.309,0.032,0.605,0.058,0.888,0.072
	c3.395,0.615,15.425,4.21,25.148,7.116c33.533,10.02,60.345,17.686,74.967,17.686c10.887,0,28.749-4.11,56.993-10.819
	c26.177-6.217,58.756-13.955,75.136-13.955H388.13c18.307,0,76.204,18.737,100.927,26.738c4.001,1.295,7.492,2.426,10.313,3.321
	c1.788,0.568,4.886,1.601,8.784,2.93c2.345-2.041,3.847-4.964,3.847-8.214c0-4.778-3.079-9.012-7.634-10.458
	c-23.264-7.385-92.467-30.833-116.238-30.833c-20.645,0-136.258,0-148.645,0c-33.032,0-110.796,24.774-132.129,24.774
	s-91.526-24.774-99.097-24.774S0,207.828,0,214.71z"/>
<circle style="fill:#464655;" cx="445.936" cy="239.484" r="8.258"/>
<g>
	<path style="fill:#A0AF64;" d="M85.565,227.724c-29.176-6.818-71.519-21.272-77.307-21.272c-7.57,0-8.258,1.376-8.258,8.258
		c0,6.881,33.032,26.15,33.032,33.032c0,6.881-33.032,26.15-33.032,33.032c0,6.881,0.689,8.258,8.258,8.258
		c5.788,0,48.13-14.454,77.307-21.272c-6.724-4.152-11.242-11.536-11.242-20.019C74.323,239.259,78.841,231.876,85.565,227.724z"/>
	<path style="fill:#A0AF64;" d="M411.093,209.815c-7.261-1.597-13.716-2.72-18.841-3.143c-6.35,8.777-11.784,20.328-13.341,33.74
		c-1.475,12.721,0.336,30.224,13.986,48.03l3.492-0.055c4.573-0.609,9.953-1.654,15.758-2.951
		c-12.989-13.002-18.646-27.472-16.834-43.121C397.004,227.744,404.759,216.02,411.093,209.815z"/>
</g>
<g>
</g>
<g>
</g>
<g>
</g>
<g>
</g>
<g>
</g>
<g>
</g>
<g>
</g>
<g>
</g>
<g>
</g>
<g>
</g>
<g>
</g>
<g>
</g>
<g>
</g>
<g>
</g>
<g>
</g>
</svg>
