<?xml version="1.0" encoding="iso-8859-1"?>
<!-- Generator: Adobe Illustrator 19.0.0, SVG Export Plug-In . SVG Version: 6.00 Build 0)  -->
<svg version="1.1" id="Layer_1" xmlns="http://www.w3.org/2000/svg" xmlns:xlink="http://www.w3.org/1999/xlink" x="0px" y="0px"
	 viewBox="0 0 512.001 512.001" style="enable-background:new 0 0 512.001 512.001;" xml:space="preserve">
<path style="fill:#D28C64;" d="M331.286,219.823c3.758,0,7.508-1.138,10.604-3.46l19.823-14.871
	c5.742-4.315,9.904-12.645,9.904-19.814v-16.516c0-1.411,1.557-3.935,2.822-4.565l9.129-4.565c4.081-2.041,5.734-7,3.693-11.08
	c-2.048-4.081-6.992-5.726-11.08-3.693l-9.129,4.565c-6.815,3.412-11.952,11.718-11.952,19.338v16.516
	c0,1.927-1.758,5.443-3.306,6.604l-19.822,14.871c-0.323,0.242-1.339,0.186-1.645-0.121l-13.096-13.096
	c-5.734-5.726-15.508-7.298-22.758-3.693l-25.645,12.823c-4.081,2.041-5.734,7-3.693,11.08s7,5.726,11.08,3.693l25.645-12.823
	c0.879-0.436,2.991-0.097,3.693,0.597l13.097,13.097C322.028,218.089,326.657,219.823,331.286,219.823z"/>
<path style="fill:#E19669;" d="M280.243,500.823c-18.46-48.879-7.758-153.024-7.725-153.983h-33.032
	c-0.113,4.057,5.694,107.888,25.307,159.823c1.25,3.306,4.387,5.339,7.725,5.339c0.968,0,1.959-0.169,2.919-0.533
	C279.703,509.855,281.856,505.089,280.243,500.823z"/>
<g>
	<path style="fill:#D28C64;" d="M180.718,219.823c-3.758,0-7.508-1.138-10.604-3.46l-19.822-14.871
		c-5.742-4.315-9.904-12.645-9.904-19.814v-16.516c0-1.411-1.557-3.935-2.822-4.565l-9.129-4.565c-4.081-2.041-5.734-7-3.693-11.08
		c2.048-4.081,6.992-5.726,11.08-3.693l9.129,4.565c6.814,3.411,11.952,11.717,11.952,19.338v16.516
		c0,1.927,1.758,5.443,3.306,6.604l19.823,14.871c0.323,0.242,1.339,0.186,1.645-0.121l13.096-13.096
		c5.734-5.726,15.508-7.298,22.758-3.693l25.645,12.823c4.081,2.041,5.734,7,3.693,11.08c-2.041,4.081-7,5.726-11.08,3.693
		l-25.645-12.823c-0.879-0.436-2.991-0.097-3.693,0.597l-13.097,13.097C189.977,218.089,185.348,219.823,180.718,219.823z"/>
	<path style="fill:#D28C64;" d="M165.154,322.065c-1.242,0-2.5-0.282-3.685-0.871c-4.081-2.041-5.734-7-3.693-11.08l4.565-9.129
		c4.081-8.153,14.033-11.467,22.162-7.387l1.742,0.871c0.895,0.452,2.991,0.105,3.693-0.597l35.452-35.452
		c3.226-3.226,8.452-3.226,11.678,0c3.226,3.226,3.226,8.451,0,11.677l-35.454,35.452c-5.726,5.734-15.5,7.323-22.758,3.693
		l-1.741-0.871l-4.565,9.129C171.098,320.396,168.187,322.065,165.154,322.065z"/>
</g>
<path style="fill:#FFB469;" d="M297.291,289.033c0,61.571-18.487,82.581-41.29,82.581s-41.29-21.01-41.29-82.581
	s18.487-148.645,41.29-148.645S297.291,227.462,297.291,289.033z"/>
<path style="fill:#C87D5D;" d="M376.182,277.952l-18.259-9.129c-3.298-1.645-8.476-5.379-11.08-7.983l-13.097-13.096
	c-2.815-2.815-7.202-8.161-9.379-11.444l-7.363-11.04c-3.234-4.863-9.258-10.549-15.581-10.549h-11.236
	c-2.156-11.751-4.745-22.947-7.682-32.92l11.096-5.548c2.097-1.056,6.693-1.371,8.911-0.637l9.121,3.04
	c6.274,2.105,15.323,1.565,20.404-3.516l4.129-4.129c3.226-3.226,3.226-8.452,0-11.678c-3.226-3.226-8.451-3.226-11.677,0
	l-4.129,4.129c-0.008-0.161-1.895,0.057-3.508-0.476l-9.121-3.04c-6.403-2.137-15.46-1.5-21.516,1.532l-9.074,4.537
	c-1.802-4.552-3.694-8.624-5.661-12.113l22.177-18.582l36.161,10.599c0.521,0.151,0.934,0.236,1.625,0.305
	c3.109,0.274,24.477,0.787,51.161-32.332c2.855-3.553,2.301-8.752-1.252-11.614c-3.537-2.861-8.742-2.308-11.614,1.252
	c-19.069,23.677-33.4,25.994-36.399,26.208l-39.279-11.513c-2.662-0.753-5.513-0.178-7.629,1.595l-25.913,21.72
	c-1.483-0.745-2.99-1.142-4.517-1.142c-1.527,0-3.034,0.396-4.517,1.144l-25.913-21.72c-2.115-1.773-4.967-2.347-7.629-1.595
	l-39.279,11.513c-2.998-0.214-17.329-2.53-36.397-26.208c-2.872-3.56-8.077-4.114-11.614-1.252
	c-3.553,2.862-4.107,8.061-1.252,11.614c26.684,33.118,48.053,32.606,51.161,32.332c0.691-0.069,1.103-0.154,1.625-0.305
	l36.161-10.599l22.177,18.582c-1.966,3.489-3.859,7.559-5.66,12.111l-9.07-4.536c-6.056-3.033-15.113-3.67-21.516-1.532l-9.121,3.04
	c-1.613,0.533-3.5,0.315-3.508,0.476l-4.129-4.129c-3.226-3.226-8.452-3.226-11.677,0c-3.226,3.226-3.226,8.452,0,11.678
	l4.129,4.129c5.081,5.081,14.13,5.621,20.404,3.516l9.121-3.04c2.217-0.734,6.815-0.419,8.911,0.637l11.093,5.546
	c-2.937,9.974-5.526,21.17-7.683,32.921h-11.235c-6.323,0-12.347,5.686-15.581,10.549l-7.363,11.04
	c-2.177,3.283-6.564,8.629-9.379,11.444l-13.096,13.095c-2.604,2.604-7.782,6.339-11.08,7.983l-18.259,9.129
	c-6.815,3.412-11.952,11.718-11.952,19.339v8.258c0,4.565,3.693,8.258,8.258,8.258s8.258-3.693,8.258-8.258v-8.258
	c0-1.411,1.557-3.936,2.822-4.565l18.259-9.129c4.895-2.452,11.5-7.209,15.371-11.08l13.096-13.097
	c3.613-3.613,8.645-9.758,11.452-13.968l7.363-11.04c0.992-1.5,2.25-2.653,3-3.186h7.369c-1.18,8.216-2.146,16.542-2.868,24.774
	h79.497c-0.722-8.232-1.687-16.558-2.868-24.774h7.372c0.75,0.533,2.008,1.686,3,3.186l7.363,11.04
	c2.807,4.21,7.839,10.355,11.452,13.968l13.095,13.097c3.871,3.871,10.475,8.629,15.371,11.08l18.259,9.129
	c1.267,0.629,2.822,3.154,2.822,4.565v8.258c0,4.565,3.693,8.258,8.258,8.258c4.565,0,8.258-3.693,8.258-8.258v-8.258
	C388.133,289.67,382.996,281.363,376.182,277.952z"/>
<path style="fill:#E19669;" d="M135.753,120.976c-5.355,0-11.25-2.226-16.855-7.75C75.939,70.839,116.004,6.54,117.73,3.822
	c2.452-3.854,7.556-4.967,11.387-2.54c3.847,2.435,4.992,7.541,2.557,11.387c-0.137,0.218-5.282,8.5-9.661,20.5
	c-3.782,19.548,2.572,24.685,13.976,33.895c3.42,2.766,7.298,5.904,11.065,9.669c12.613,12.613,11.137,29.783,2.524,38.443
	C146.124,118.661,141.214,120.976,135.753,120.976z"/>
<path style="fill:#D28C64;" d="M346.85,322.065c1.242,0,2.5-0.282,3.685-0.871c4.081-2.041,5.734-7,3.693-11.08l-4.565-9.129
	c-4.081-8.153-14.033-11.467-22.162-7.387l-1.742,0.871c-0.895,0.452-2.991,0.105-3.693-0.597l-35.452-35.452
	c-3.226-3.226-8.452-3.226-11.678,0c-3.226,3.226-3.226,8.451,0,11.677l35.454,35.452c5.726,5.734,15.5,7.323,22.758,3.693
	l1.742-0.871l4.565,9.129C340.907,320.396,343.818,322.065,346.85,322.065z"/>
<path style="fill:#FAA064;" d="M295.518,318.761c1.144-8.649,1.773-18.498,1.773-29.728c0-1.361-0.021-2.747-0.038-4.131
	c-13.331,2.703-27.125,4.131-41.252,4.131c-14.128,0-27.922-1.428-41.252-4.131c-0.018,1.384-0.038,2.77-0.038,4.131
	c0,11.23,0.629,21.079,1.773,29.729c12.861,2.136,26.05,3.303,39.517,3.303S282.656,320.898,295.518,318.761z"/>
<path style="fill:#E19669;" d="M297.253,284.902c-0.105-8.078-0.507-16.529-1.185-25.131c-12.897,2.905-26.294,4.488-40.067,4.488
	s-27.17-1.583-40.067-4.488c-0.678,8.603-1.08,17.053-1.185,25.131c13.33,2.703,27.124,4.131,41.252,4.131
	C270.129,289.033,283.923,287.605,297.253,284.902z"/>
<path style="fill:#D28C64;" d="M296.068,259.77c-0.436-5.532-0.989-11.118-1.642-16.705c-12.351,2.949-25.172,4.677-38.425,4.677
	s-26.075-1.728-38.425-4.676c-0.653,5.586-1.207,11.172-1.642,16.705c12.896,2.904,26.293,4.487,40.067,4.487
	S283.171,262.675,296.068,259.77z"/>
<path style="fill:#B46446;" d="M256.001,165.162l18.106-6.036c-5.47-11.549-11.604-18.739-18.106-18.739s-12.636,7.19-18.106,18.739
	L256.001,165.162z"/>
<path style="fill:#E19669;" d="M362.425,115.178c-8.613-8.662-10.088-25.83,2.524-38.443c3.766-3.766,7.645-6.903,11.065-9.669
	c11.403-9.21,17.758-14.346,13.976-33.895c-4.379-12-9.525-20.282-9.661-20.5c-2.435-3.847-1.29-8.952,2.557-11.387
	c3.831-2.428,8.935-1.314,11.387,2.54c1.726,2.718,41.79,67.016-1.17,109.403c-5.605,5.525-11.5,7.75-16.855,7.75
	C370.788,120.976,365.877,118.661,362.425,115.178z"/>
<g>
</g>
<g>
</g>
<g>
</g>
<g>
</g>
<g>
</g>
<g>
</g>
<g>
</g>
<g>
</g>
<g>
</g>
<g>
</g>
<g>
</g>
<g>
</g>
<g>
</g>
<g>
</g>
<g>
</g>
</svg>
