<?xml version="1.0" encoding="iso-8859-1"?>
<!-- Generator: Adobe Illustrator 19.0.0, SVG Export Plug-In . SVG Version: 6.00 Build 0)  -->
<svg version="1.1" id="Layer_1" xmlns="http://www.w3.org/2000/svg" xmlns:xlink="http://www.w3.org/1999/xlink" x="0px" y="0px"
	 viewBox="0 0 512.002 512.002" style="enable-background:new 0 0 512.002 512.002;" xml:space="preserve">
<path style="fill:#C3D2E1;" d="M512.001,272.695c0-6.194-88.774-57.807-123.871-57.807s-61.936,4.129-74.323-8.258
	c-12.387-12.387-34.408-45.419-41.29-41.29c-6.882,4.129,0,50.924-8.258,57.807c-8.258,6.881-108.731,24.774-123.871,24.774
	s-13.425-8.258-24.774-8.258c-3.613,0-18.323,16.516-24.774,16.516c-2.065,0-12.645,0-16.516,0C61.936,256.178,0,191.49,0,198.372
	c0,6.881,41.29,72.258,41.29,82.581s-13.763,49.548-8.258,49.548s32.344-49.548,49.548-49.548c21.333,0,25.118-1.032,16.516,16.516
	c-0.677,1.381,24.086-8.258,33.032-8.258s24.774,10.405,24.774,24.774c0,3.441,33.032-16.516,33.032-16.516
	s33.832,6.089,74.324,12.231l41.288,5.88c28.8,3.789,56.511,6.663,74.324,6.663c43.355,0,99.097-8.258,99.097-24.774l0,0
	C512.001,297.469,512.001,272.695,512.001,272.695z"/>
<path style="fill:#F0EBE1;" d="M38.644,272.735c1.614,3.708,2.648,6.651,2.648,8.218c0,10.323-13.763,49.548-8.258,49.548
	s32.344-49.548,49.548-49.548c21.333,0,25.118-1.032,16.516,16.516c-0.677,1.381,24.086-8.258,33.032-8.258
	s24.774,10.405,24.774,24.774c0,3.441,33.032-16.516,33.032-16.516s33.832,6.089,74.324,12.231l41.288,5.88
	c28.8,3.789,56.511,6.663,74.324,6.663c43.355,0,99.097-8.258,99.097-24.774c33.032,0,33.032-24.774,33.032-24.774
	s-41.29,16.516-165.162,16.516C282.5,289.211,208.141,273.552,38.644,272.735z"/>
<g>
	<path style="fill:#B4C3D2;" d="M280.776,280.953c-24.774,33.032-33.72,66.065-33.032,66.065c49.548,0,90.839-66.065,107.355-74.323
		L280.776,280.953z"/>
	<path style="fill:#B4C3D2;" d="M388.131,214.888c-35.097,0-61.936,4.129-74.323-8.258c-12.387-12.387-34.408-45.419-41.29-41.29
		c-6.882,4.129,0,50.924-8.258,57.807c-8.258,6.881-108.731,24.774-123.871,24.774s-13.425-8.258-24.774-8.258
		c-3.613,0-18.323,16.516-24.774,16.516c-2.065,0-12.645,0-16.516,0c-12.387,0-74.323-64.689-74.323-57.807
		c0,5.496,26.288,48.238,36.894,70.513c1.058,2.149,1.749,3.85,1.749,3.85c82.581,0,242.338-28.964,283.423-33.073
		c82.581-8.258,115.613,33.032,189.936,33.032C512.001,266.501,423.228,214.888,388.131,214.888z"/>
</g>
<circle style="fill:#464655;" cx="445.937" cy="264.434" r="8.258"/>
<path style="fill:#DFDAD2;" d="M398.466,321.749c39.167-1.974,80.503-10.056,80.503-24.28c-16.516,0-41.29,0-57.807,8.258
	C416.592,308.011,408.177,314.148,398.466,321.749z"/>
<g>
</g>
<g>
</g>
<g>
</g>
<g>
</g>
<g>
</g>
<g>
</g>
<g>
</g>
<g>
</g>
<g>
</g>
<g>
</g>
<g>
</g>
<g>
</g>
<g>
</g>
<g>
</g>
<g>
</g>
</svg>
