<?xml version="1.0" encoding="iso-8859-1"?>
<!-- Generator: Adobe Illustrator 19.0.0, SVG Export Plug-In . SVG Version: 6.00 Build 0)  -->
<svg version="1.1" id="Layer_1" xmlns="http://www.w3.org/2000/svg" xmlns:xlink="http://www.w3.org/1999/xlink" x="0px" y="0px"
	 viewBox="0 0 511.999 511.999" style="enable-background:new 0 0 511.999 511.999;" xml:space="preserve">
<g>
	<path style="fill:#C8504B;" d="M412.386,154.858c-0.942,0-1.893-0.161-2.826-0.499c-41.61-15.181-100.753-10.203-101.34-10.171
		c-4.405,0.483-8.536-2.955-8.931-7.497c-0.395-4.533,2.955-8.536,7.497-8.931c2.569-0.226,63.426-5.307,108.427,11.105
		c4.276,1.563,6.483,6.297,4.92,10.574C418.91,152.78,415.753,154.858,412.386,154.858z"/>
	<path style="fill:#C8504B;" d="M432.447,194.028c-3.825-1.852-19.328-16.332-31.488-28.685c-1.176-1.183-2.674-1.989-4.309-2.303
		l-82.344-15.929c-1.151-0.226-2.343-0.194-3.495,0.08c-0.775,0.188-75.317,17.943-123.234,7.824
		c-3.068-2.109-19.702-18.446-24.203-17.52c-4.461,0.894-7.361,5.234-6.466,9.704c8.842,44.212,74.507,64.353,131.782,64.353
		c4.736,0,7.836,3.261,9.269,5.211c3.511,4.776,4.582,11.315,2.666,17.532l-19.046,76.159c-5.38,2.593-12.644,4.905-16.243,3.737
		c-0.684-0.217-1.136-0.524-1.578-1.522c-1.844-4.163-6.7-6.056-10.88-4.195c-4.163,1.844-6.039,6.717-4.195,10.88
		c2.303,5.194,6.314,8.834,11.597,10.534c2.368,0.765,4.864,1.087,7.368,1.087c11.162,0,22.621-6.33,25.214-7.852
		c1.909-1.119,3.293-2.964,3.825-5.114l19.811-79.259c3.326-10.671,1.312-22.847-5.251-31.762
		c-5.581-7.578-13.803-11.926-22.557-11.926c-19.659,0-40.322-2.655-58.687-7.808c36.469,5.795,73.297,1.232,83.088-0.18
		l35.071,14.512c42.199,75.941,42.263,75.941,48.416,75.941c4.558,0,8.246-3.688,8.246-8.246c0-2.222-0.878-4.244-2.311-5.726
		c-3.938-5.701-27.219-47.111-41.329-72.494c-0.902-1.635-2.336-2.907-4.059-3.616l-39.863-16.493
		c-1.409-0.588-2.98-0.757-4.493-0.515c-0.512,0.087-28.344,4.542-59.811,2.711c28.645-2.62,53.132-7.942,59.948-9.508l78.1,15.107
		c18.732,18.901,30.908,29.297,36.215,30.908c0.813,0.249,1.643,0.363,2.465,0.363c3.568,0,6.966-2.231,8.037-5.775
		C439.043,199.875,436.804,195.357,432.447,194.028z"/>
	<path style="fill:#C8504B;" d="M173.248,219.798c-3.027,0-5.935-1.667-7.385-4.558c-15.221-30.449-38.212-46.16-38.446-46.314
		c-3.769-2.545-4.784-7.659-2.255-11.436c2.537-3.777,7.642-4.799,11.419-2.279c1.087,0.725,26.761,18.103,44.035,52.651
		c2.038,4.075,0.387,9.028-3.688,11.065C175.745,219.517,174.489,219.798,173.248,219.798z"/>
	<path style="fill:#C8504B;" d="M148.493,236.291c-3.793,0-7.207-2.625-8.045-6.483c-6.225-28.436-36.529-43.697-36.835-43.849
		c-4.083-2.013-5.758-6.958-3.737-11.049c2.013-4.075,6.958-5.75,11.049-3.737c1.53,0.757,37.729,19.013,45.63,55.108
		c0.974,4.453-1.844,8.842-6.29,9.816C149.668,236.227,149.081,236.291,148.493,236.291z"/>
	<path style="fill:#C8504B;" d="M123.754,252.784c-3.849,0-7.296-2.706-8.077-6.628c-7.224-36.127-51.798-51.371-52.248-51.524
		c-4.316-1.434-6.652-6.104-5.211-10.429c1.441-4.317,6.072-6.677,10.429-5.211c2.207,0.733,54.125,18.522,63.201,63.926
		c0.894,4.47-2.005,8.81-6.466,9.704C124.833,252.735,124.286,252.784,123.754,252.784z"/>
	<path style="fill:#C8504B;" d="M90.785,261.03c-3.029,0-5.935-1.667-7.385-4.558c-14.077-28.162-46.329-30.538-47.698-30.626
		c-4.533-0.29-7.997-4.195-7.715-8.73c0.274-4.533,4.212-7.908,8.69-7.731c1.747,0.097,43.06,2.875,61.478,39.71
		c2.038,4.075,0.387,9.028-3.688,11.065C93.28,260.749,92.025,261.03,90.785,261.03z"/>
	<path style="fill:#C8504B;" d="M41.298,401.22c-2.279,0-4.558-0.942-6.185-2.794c-18.49-20.986-33.501-79.75-33.501-106.986
		c0-4.558,3.688-8.246,8.246-8.246s8.246,3.688,8.246,8.246c0,25.915,15.196,79.984,29.378,96.082
		c3.012,3.415,2.682,8.633-0.733,11.637C45.179,400.543,43.239,401.22,41.298,401.22z"/>
</g>
<path style="fill:#DC645A;" d="M52.98,182.689c0,0-30.237,110.639-36.421,119.573c-6.185,8.934-15.119,6.185-16.493-8.246
	c-1.374-14.431,19.242-147.748,19.242-147.748l29.55,15.805L52.98,182.689z"/>
<path style="fill:#FF7D73;" d="M148.501,120.841c-3.092-9.277-2.523-24.739-24.739-24.739c-15.462,0-86.072-3.092-98.957,16.493
	c-7.695,11.697-11.844,22.342-14.055,29.884c-1.632,5.565,1.453,11.499,6.985,13.243c8.214,2.59,19.44,8.67,23.563,22.845
	c8.246,28.347,53.602,18.554,82.464,8.246c34.543-12.337,39.686-22.162,32.986-41.232L148.501,120.841z"/>
<g>
	<path style="fill:#DC645A;" d="M276.699,453.903c-51.918,0.008-107.172-3.978-154.249-11.556c-4.493-0.725-7.554-4.953-6.829-9.455
		c0.725-4.493,4.937-7.61,9.455-6.829c122.497,19.706,287.134,12.233,314.564-14.279c38.414-37.125,68.339-209.397,48.545-236.618
		c-25.303-34.79-123.229-56.026-180.68-39.194c-4.373,1.297-8.955-1.216-10.236-5.597c-1.28-4.373,1.225-8.955,5.597-10.236
		c59.618-17.483,166.676,1.361,198.655,45.332c26.752,36.779-8.585,217.741-50.412,258.168
		C429.725,444.312,357.231,453.903,276.699,453.903z"/>
	<path style="fill:#DC645A;" d="M503.749,148.802c-3.519,0-6.772-2.263-7.876-5.798c-5.718-18.402-92.675-36.416-181.518-26.342
		c-4.558,0.621-8.609-2.746-9.116-7.264c-0.515-4.526,2.738-8.609,7.264-9.116c48.504-5.517,185.971-4.445,199.122,37.825
		c1.353,4.349-1.079,8.971-5.428,10.325C505.384,148.681,504.554,148.802,503.749,148.802z"/>
	<path style="fill:#DC645A;" d="M140.383,179.969c-1.574-24.162-7.861-35.409-13.505-45.445c-5.417-9.628-10.14-18.188-11.14-38.514
		c-4.52-0.062-10.218-0.108-16.484-0.049c1.116,24.843,7.248,35.988,13.249,46.649c5.649,10.042,10.941,19.758,11.636,44.063
		C130.531,184.379,135.913,182.169,140.383,179.969z"/>
	<path style="fill:#DC645A;" d="M92.796,195.293c-8.867-2.456-16.239-9.085-20.236-18.24c-5.106-11.709-4.131-25.891,2.689-38.905
		c8.803-16.808,11.968-31.013,9.731-41.82c-5.547,0.235-11.214,0.607-16.818,1.165c3.31,7.219-1.315,21.151-7.521,33.005
		c-9.157,17.459-10.316,36.835-3.198,53.15c2.11,4.831,4.906,9.17,8.196,12.974C73.869,197.7,83.288,197.013,92.796,195.293z"/>
</g>
<g>
	<path style="fill:#C8504B;" d="M28.969,266.565L5.56,240.847c-1.016,7.582-1.95,14.828-2.759,21.463l20.451,22.464
		C24.999,279.448,26.939,273.247,28.969,266.565z"/>
	<path style="fill:#C8504B;" d="M13.447,185.2c-0.796,5.4-1.63,11.103-2.481,16.996c4.899,3.415,6.87,10.007,9.233,19.431
		c2.206,8.777,5.171,20.217,14.883,24.395c1.654-5.661,3.3-11.355,4.884-16.893c-1.235-2.061-2.324-5.757-3.766-11.513
		C33.313,206.12,29.285,190.819,13.447,185.2z"/>
</g>
<path style="fill:#FF7D73;" d="M511.343,63.116c-1.787-4.195-6.636-6.128-10.815-4.373c-55.47,23.507-132.974,32.204-245.339,32.204
	c0,0-43.522-0.329-65.456,5.154c-24.676,6.168-40.764,11.246-41.232,24.739c-0.226,6.515,5.621,16.861,8.246,24.739
	c8.246,24.739,49.479,32.986,90.711,24.739c34.493-6.898,56.219-15.746,66.708-20.774c3.811-1.827,5.26-6.291,3.725-10.229
	c-2.646-6.791-3.496-18.712,10.971-33.816c78.907-4.322,133.636-12.729,178.108-31.569
	C511.159,72.152,513.115,67.312,511.343,63.116z"/>
<circle style="fill:#464655;" cx="325.795" cy="108.471" r="12.37"/>
<g>
</g>
<g>
</g>
<g>
</g>
<g>
</g>
<g>
</g>
<g>
</g>
<g>
</g>
<g>
</g>
<g>
</g>
<g>
</g>
<g>
</g>
<g>
</g>
<g>
</g>
<g>
</g>
<g>
</g>
</svg>
