<?xml version="1.0" encoding="iso-8859-1"?>
<!-- Generator: Adobe Illustrator 19.0.0, SVG Export Plug-In . SVG Version: 6.00 Build 0)  -->
<svg version="1.1" id="Layer_1" xmlns="http://www.w3.org/2000/svg" xmlns:xlink="http://www.w3.org/1999/xlink" x="0px" y="0px"
	 viewBox="0 0 512 512" style="enable-background:new 0 0 512 512;" xml:space="preserve">
<path style="fill:#F0EBE1;" d="M332.935,454.622c-44.919-14.976-60.757-52.435-61.015-53.063c-1.709-4.226-6.532-6.266-10.726-4.581
	c-0.405,0.161-0.684,0.471-1.048,0.685c-1.236-0.736-2.6-1.274-4.145-1.274c-1.548,0-2.916,0.54-4.154,1.28
	c-0.353-0.207-0.623-0.509-1.015-0.667c-4.266-1.726-9.032,0.339-10.75,4.556c-0.153,0.379-15.951,38.04-61.015,53.063
	c-4.322,1.436-6.661,6.113-5.218,10.443c1.153,3.46,4.37,5.645,7.831,5.645c0.863,0,1.742-0.137,2.613-0.427
	c34.414-11.471,53.866-33.899,63.451-48.574v82.033c0,4.565,3.693,8.258,8.258,8.258c4.565,0,8.258-3.693,8.258-8.258v-82.033
	c9.584,14.675,29.037,37.102,63.451,48.574c0.871,0.29,1.75,0.427,2.613,0.427c3.46,0,6.678-2.185,7.831-5.645
	C339.596,460.735,337.258,456.057,332.935,454.622z"/>
<path style="fill:#CFCAC4;" d="M230.551,281.454c0,0,0,156.226,25.45,156.226s25.45-156.226,25.45-156.226L230.551,281.454
	L230.551,281.454z"/>
<path style="fill:#ADA9A7;" d="M231.194,313.81h49.613c0.638-18.931,0.643-32.357,0.643-32.357h-50.9
	C230.551,281.454,230.556,294.879,231.194,313.81z"/>
<g>
	<path style="fill:#F0EBE1;" d="M222.969,247.746c-0.863,0-1.741-0.137-2.613-0.427c-1.145-0.379-28.129-9.556-37.806-28.911
		c-2.041-4.08-0.387-9.04,3.693-11.08c4.08-2.024,9.032-0.387,11.08,3.693c5.516,11.04,22.265,18.637,28.258,20.637
		c4.323,1.436,6.661,6.113,5.218,10.443C229.646,245.561,226.428,247.746,222.969,247.746z"/>
	<path style="fill:#F0EBE1;" d="M194.76,301.956c-5.726,0-11.475-0.927-17.072-2.798l-6.871-2.282
		c-4.33-1.443-6.669-6.121-5.233-10.443c1.443-4.33,6.121-6.637,10.443-5.233l6.879,2.291c9.468,3.177,19.564,2.443,28.467-2.016
		l16.161-8.08c4.072-2.032,9.04-0.387,11.08,3.693c2.041,4.08,0.387,9.04-3.693,11.08l-16.161,8.08
		C211.179,300.037,202.993,301.956,194.76,301.956z"/>
	<path style="fill:#F0EBE1;" d="M289.035,247.746c0.863,0,1.742-0.137,2.613-0.427c1.145-0.379,28.129-9.556,37.806-28.911
		c2.041-4.08,0.387-9.04-3.693-11.08c-4.08-2.024-9.032-0.387-11.08,3.693c-5.516,11.04-22.265,18.637-28.258,20.637
		c-4.323,1.436-6.661,6.113-5.218,10.443C282.358,245.561,285.575,247.746,289.035,247.746z"/>
	<path style="fill:#F0EBE1;" d="M317.245,301.956c5.726,0,11.475-0.927,17.072-2.798l6.871-2.282
		c4.33-1.443,6.669-6.121,5.233-10.443c-1.443-4.33-6.121-6.637-10.443-5.233l-6.879,2.291c-9.468,3.177-19.564,2.443-28.467-2.016
		l-16.161-8.08c-4.072-2.032-9.04-0.387-11.08,3.693c-2.041,4.08-0.387,9.04,3.693,11.08l16.161,8.08
		C300.826,300.037,309.01,301.956,317.245,301.956z"/>
	<path style="fill:#F0EBE1;" d="M247.734,173.423c-3.693,0-7.065-2.5-8-6.25c-0.242-0.968-24.992-97.329-88.265-152.691
		c-3.435-3.008-3.782-8.226-0.782-11.653c3.008-3.452,8.226-3.782,11.653-0.782c67.241,58.838,92.377,156.965,93.41,161.118
		c1.113,4.419-1.58,8.903-5.999,10.008C249.073,173.341,248.403,173.423,247.734,173.423z"/>
	<path style="fill:#F0EBE1;" d="M264.267,173.423c-0.669,0-1.339-0.081-2.016-0.25c-4.419-1.105-7.113-5.589-6-10.008
		c1.032-4.153,26.169-102.281,93.41-161.118c3.412-3,8.637-2.669,11.653,0.782c3,3.427,2.653,8.645-0.782,11.653
		c-63.273,55.362-88.022,151.723-88.265,152.691C271.33,170.923,267.96,173.423,264.267,173.423z"/>
</g>
<path style="fill:#ADA9A7;" d="M264.259,148.651h-16.516c-9.122,0-16.516,7.394-16.516,16.516l0,0
	c0,9.122,7.394,16.516,16.516,16.516h16.516c9.122,0,16.516-7.394,16.516-16.516l0,0
	C280.774,156.046,273.379,148.651,264.259,148.651z"/>
<path style="fill:#CFCAC4;" d="M297.29,245.912c0,52.702-18.486,51.383-41.29,51.383s-41.29,1.319-41.29-51.383
	s13.925-80.744,41.29-80.744C283.365,165.168,297.29,193.21,297.29,245.912z"/>
<g>
	<path style="fill:#ADA9A7;" d="M216.438,269.337c1.165,6.614,2.891,11.68,5.095,15.532c9.937-2.676,21.352-4.091,34.468-4.091
		c13.116,0,24.53,1.415,34.468,4.091c2.204-3.851,3.93-8.919,5.095-15.532c-11.615-3.319-24.787-5.074-39.563-5.074
		C241.225,264.262,228.053,266.019,216.438,269.337z"/>
	<path style="fill:#ADA9A7;" d="M218.549,204.956c-1.348,6.023-2.33,12.73-2.965,20.067c10.314-6.811,23.68-10.316,40.416-10.316
		s30.103,3.505,40.416,10.316c-0.635-7.337-1.617-14.044-2.965-20.067c-10.719-4.424-23.197-6.765-37.452-6.765
		C241.744,198.192,229.267,200.532,218.549,204.956z"/>
	<path style="fill:#ADA9A7;" d="M214.846,237.974c-0.074,2.594-0.135,5.213-0.135,7.938c0,3.444,0.088,6.632,0.242,9.631
		c10.926-5.208,24.581-7.805,41.048-7.805s30.121,2.597,41.048,7.805c0.154-2.999,0.242-6.187,0.242-9.631
		c0-2.726-0.061-5.345-0.135-7.938c-11.764-4.431-25.49-6.751-41.154-6.751S226.611,233.543,214.846,237.974z"/>
	<path style="fill:#ADA9A7;" d="M277.94,363.357h-43.879c0.484,5.571,1.032,11.11,1.66,16.516h40.559
		C276.908,374.467,277.455,368.929,277.94,363.357z"/>
	<path style="fill:#ADA9A7;" d="M232.806,346.842h46.388c0.368-5.637,0.681-11.182,0.939-16.516h-48.267
		C232.125,335.659,232.438,341.204,232.806,346.842z"/>
	<path style="fill:#ADA9A7;" d="M274.024,396.389h-36.047c0.951,5.933,2.019,11.511,3.229,16.516h29.589
		C272.006,407.901,273.073,402.322,274.024,396.389z"/>
</g>
<g>
</g>
<g>
</g>
<g>
</g>
<g>
</g>
<g>
</g>
<g>
</g>
<g>
</g>
<g>
</g>
<g>
</g>
<g>
</g>
<g>
</g>
<g>
</g>
<g>
</g>
<g>
</g>
<g>
</g>
</svg>
