<?xml version="1.0" encoding="iso-8859-1"?>
<!-- Generator: Adobe Illustrator 19.0.0, SVG Export Plug-In . SVG Version: 6.00 Build 0)  -->
<svg version="1.1" id="Layer_1" xmlns="http://www.w3.org/2000/svg" xmlns:xlink="http://www.w3.org/1999/xlink" x="0px" y="0px"
	 viewBox="0 0 512.001 512.001" style="enable-background:new 0 0 512.001 512.001;" xml:space="preserve">
<path style="fill:#7D6E69;" d="M330.323,433.549c0,13.683-33.275,24.774-74.323,24.774s-74.323-11.092-74.323-24.774
	s33.275-33.032,74.323-33.032S330.323,419.867,330.323,433.549z"/>
<path style="fill:#FFEBD2;" d="M355.098,78.452v16.516c0,0-66.065-16.516-99.097-41.29c-33.032,24.774-99.097,41.29-99.097,41.29
	V78.452c-41.29,8.258-74.323,41.29-74.323,66.065l173.42,74.323l173.42-74.323C429.42,119.742,396.388,86.71,355.098,78.452z"/>
<g>
	<path style="fill:#464655;" d="M57.807,260.13c0,0-57.807-24.774-57.807-74.323S49.548,128,74.323,144.516L57.807,260.13z"/>
	<path style="fill:#464655;" d="M454.194,260.13c0,0,57.807-24.774,57.807-74.323s-49.548-57.807-74.323-41.29L454.194,260.13z"/>
</g>
<path style="fill:#6B676E;" d="M495.485,285.573c-8.258-60.931-49.548-78.34-41.29-174.089c0,0-41.29,26.113-80.277,28.887
	c-3.49,0.248,5.954-20.183,5.954-20.183c-46.107,19.585-91.526-1.451-123.871,34.818c-32.344-36.268-77.763-15.233-123.871-34.818
	c0,0,9.444,20.43,5.954,20.183c-38.986-2.774-80.277-28.887-80.277-28.887c8.258,95.749-33.032,113.158-41.29,174.089
	C9.509,337.275,41.29,398.731,173.42,433.549h82.581h82.581C470.711,398.731,502.492,337.275,495.485,285.573z"/>
<path style="fill:#897670;" d="M271.471,289.009c-8.61-9.006-22.331-9.006-30.941,0c-29.72,31.086-91.885,60.745-91.885,100.485
	c0,40.912,43.785,66.439,97.057,47.66c6.652-2.344,13.945-2.344,20.597,0c53.27,18.779,97.056-6.749,97.056-47.66
	C363.356,349.755,301.191,320.095,271.471,289.009z"/>
<path style="fill:#AB8389;" d="M297.291,382.1c0,14.731-10.885,26.675-41.29,26.675s-41.29-11.942-41.29-26.675
	s-0.517-26.675,41.29-26.675S297.291,367.368,297.291,382.1z"/>
<g>
	<circle style="fill:#464655;" cx="144.516" cy="289.033" r="20.645"/>
	<circle style="fill:#464655;" cx="367.485" cy="289.033" r="20.645"/>
</g>
<g>
</g>
<g>
</g>
<g>
</g>
<g>
</g>
<g>
</g>
<g>
</g>
<g>
</g>
<g>
</g>
<g>
</g>
<g>
</g>
<g>
</g>
<g>
</g>
<g>
</g>
<g>
</g>
<g>
</g>
</svg>
