<?xml version="1.0" encoding="iso-8859-1"?>
<!-- Generator: Adobe Illustrator 19.0.0, SVG Export Plug-In . SVG Version: 6.00 Build 0)  -->
<svg version="1.1" id="Layer_1" xmlns="http://www.w3.org/2000/svg" xmlns:xlink="http://www.w3.org/1999/xlink" x="0px" y="0px"
	 viewBox="0 0 512.001 512.001" style="enable-background:new 0 0 512.001 512.001;" xml:space="preserve">
<path style="fill:#BBA386;" d="M454.194,222.968H57.807c0,0-57.807,49.548-57.807,99.097s24.774,140.387,256.001,140.387
	s256.001-90.839,256.001-140.387S454.194,222.968,454.194,222.968z"/>
<path style="fill:#595966;" d="M454.194,156.904H57.807c-39.703,79.406-21.045,158.763,68.658,148.933
	c17.463-1.914,31.835,12.28,30.673,29.808c-0.155,2.334-0.233,4.69-0.233,7.066c0,57.01,44.367,103.226,99.097,103.226
	s99.097-46.215,99.097-103.226c0-2.375-0.078-4.731-0.233-7.065c-1.162-17.529,13.21-31.721,30.673-29.808
	C475.239,315.666,493.897,236.31,454.194,156.904z"/>
<g>
	<ellipse style="fill:#464655;" cx="119.742" cy="247.742" rx="20.645" ry="24.774"/>
	<ellipse style="fill:#464655;" cx="392.259" cy="247.742" rx="20.645" ry="24.774"/>
</g>
<path style="fill:#9F8976;" d="M256.001,49.548c-82.581,0-206.452,32.575-206.452,107.355c0,33.032,16.516,41.29,33.032,41.29
	c82.581,0,99.097,49.548,173.42,49.548s90.839-49.548,173.42-49.548c16.516,0,33.032-8.258,33.032-41.29
	C462.453,82.124,338.581,49.548,256.001,49.548z"/>
<path style="fill:#BBA386;" d="M330.323,313.807c-9.634,49.548-56.431,49.548-74.323,49.548s-64.689,0-74.323-49.548
	c0-52.927,58.219-90.839,74.323-90.839S330.323,260.88,330.323,313.807z"/>
<path style="fill:#9F8976;" d="M256.001,363.356c17.892,0,64.688,0,74.323-49.548c-7.361,0-17.863,0-33.032,0
	c-27.355,0-26.323,16.516-41.29,16.516s-13.936-16.516-41.29-16.516c0,0-7.112,0-33.032,0
	C191.312,363.356,238.107,363.356,256.001,363.356z"/>
<g>
</g>
<g>
</g>
<g>
</g>
<g>
</g>
<g>
</g>
<g>
</g>
<g>
</g>
<g>
</g>
<g>
</g>
<g>
</g>
<g>
</g>
<g>
</g>
<g>
</g>
<g>
</g>
<g>
</g>
</svg>
