<?xml version="1.0" encoding="iso-8859-1"?>
<!-- Generator: Adobe Illustrator 19.0.0, SVG Export Plug-In . SVG Version: 6.00 Build 0)  -->
<svg version="1.1" id="Layer_1" xmlns="http://www.w3.org/2000/svg" xmlns:xlink="http://www.w3.org/1999/xlink" x="0px" y="0px"
	 viewBox="0 0 512 512" style="enable-background:new 0 0 512 512;" xml:space="preserve">
<path style="fill:#6E5550;" d="M276.211,133.007c-4.081-2.024-9.032-0.387-11.08,3.693c-2.001,4.008-0.444,8.871,3.484,10.976
	c0.533,0.323,3.903,2.669,3.903,9.234v22.946c-4.39-3.955-10.142-6.43-16.516-6.43c-6.374,0-12.126,2.474-16.516,6.43V156.91
	c0-6.564,3.371-8.911,3.903-9.234c3.928-2.105,5.484-6.968,3.484-10.976c-2.048-4.081-7-5.718-11.08-3.693
	c-4.766,2.379-12.823,10.097-12.823,23.903v49.548c0,4.565,3.693,8.258,8.258,8.258h49.548c4.565,0,8.258-3.693,8.258-8.258V156.91
	C289.033,143.103,280.977,135.386,276.211,133.007z"/>
<g>
	<path style="fill:#7A645A;" d="M238.377,260.14c1.186-2.054,1.482-4.603,0.591-7.004c-0.163-0.441-0.367-0.855-0.594-1.249
		c2.101-3.621,1.156-8.319-2.309-10.831l-84.089-60.814c-2.589-2.016-6.428-6.701-7.895-9.637l-45.855-91.71
		c-2.048-4.081-7.008-5.726-11.08-3.693c-4.081,2.041-5.734,7-3.693,11.08l45.855,91.71c2.581,5.161,7.96,11.725,12.758,15.46
		l79.342,57.389l-75.406,27.949c-6.274,1.83-13.451,7.113-17.064,12.54l-23.879,35.814c-3.661,5.508-5.645,14.259-4.71,20.791
		l7.089,49.629c0.588,4.121,4.121,7.089,8.169,7.089c0.387,0,0.782-0.024,1.178-0.081c4.516-0.645,7.653-4.831,7.008-9.347
		l-7.089-49.629c-0.363-2.5,0.702-7.194,2.105-9.299l23.879-35.814c1.436-2.162,5.443-5.113,8.5-6.024l63.086-23.366l-41.861,47.836
		c-4.121,4.726-7.315,10.088-9.476,15.96l-28.089,75.992c-1.694,5.637-2.097,14.242-0.935,20l14.895,74.484
		c0.782,3.928,4.234,6.637,8.089,6.637c0.533,0,1.081-0.049,1.629-0.161c4.468-0.895,7.37-5.242,6.475-9.718l-14.894-74.492
		c-0.629-3.113-0.355-8.952,0.395-11.516l27.927-75.499c1.468-3.976,3.629-7.621,6.42-10.815l52.597-60.105
		C239.829,266.97,240.092,263.118,238.377,260.14z"/>
	<path style="fill:#7A645A;" d="M382.692,177.991l45.855-91.71c2.041-4.081,0.387-9.041-3.693-11.08
		c-4.072-2.033-9.032-0.387-11.08,3.693l-45.855,91.71c-1.468,2.936-5.307,7.621-7.895,9.637l-84.089,60.814
		c-3.465,2.511-4.41,7.21-2.309,10.831c-0.226,0.395-0.43,0.808-0.594,1.249c-0.891,2.401-0.595,4.95,0.591,7.004
		c-1.715,2.978-1.452,6.829,0.932,9.555l52.597,60.105c2.79,3.194,4.952,6.839,6.42,10.815l27.928,75.499
		c0.75,2.564,1.024,8.404,0.395,11.516l-14.895,74.492c-0.895,4.476,2.008,8.823,6.475,9.718c0.548,0.113,1.097,0.161,1.629,0.161
		c3.854,0,7.306-2.71,8.089-6.637l14.895-74.484c1.161-5.758,0.758-14.363-0.935-20l-28.089-75.992
		c-2.162-5.871-5.355-11.234-9.476-15.96l-41.861-47.836l63.086,23.366c3.057,0.911,7.065,3.863,8.5,6.024l23.879,35.814
		c1.403,2.105,2.468,6.798,2.105,9.299l-7.089,49.629c-0.645,4.516,2.492,8.702,7.008,9.347c0.395,0.057,0.791,0.081,1.178,0.081
		c4.049,0,7.581-2.968,8.169-7.089l7.089-49.629c0.935-6.532-1.049-15.283-4.71-20.791l-23.879-35.814
		c-3.613-5.428-10.79-10.71-17.064-12.54l-75.408-27.949l79.342-57.389C374.732,189.717,380.111,183.152,382.692,177.991z"/>
</g>
<ellipse style="fill:#877364;" cx="256" cy="251.882" rx="41.29" ry="45.419"/>
<path style="fill:#9F8976;" d="M206.453,355.103c0-38.766,22.183-74.323,49.548-74.323s49.548,35.555,49.548,74.323
	s-22.183,66.065-49.548,66.065S206.453,393.871,206.453,355.103z"/>
<path style="fill:#7A645A;" d="M365.087,0.199c-4.484-1-8.846,1.879-9.806,6.339l-23.04,107.541
	c-0.871,4.04-2.83,10.742-4.298,14.636l-18.968,50.604c-1.185,3.162-4.452,8.234-6.847,10.629l-23.769,23.769
	c-6.445-4.581-14.112-7.259-22.357-7.259c-8.246,0-15.913,2.679-22.359,7.26l-23.77-23.77c-2.395-2.395-5.661-7.467-6.847-10.629
	l-18.968-50.604c-1.468-3.895-3.427-10.596-4.298-14.636L156.72,6.538c-0.96-4.459-5.322-7.338-9.806-6.339
	c-4.459,0.952-7.298,5.347-6.339,9.806l23.04,107.541c1.041,4.839,3.226,12.298,4.975,16.967l18.968,50.604
	c2.008,5.355,6.581,12.459,10.637,16.508l24.081,24.081c-0.918,1.429-1.775,2.906-2.541,4.449
	c7.003,15.401,20.616,25.851,36.266,25.851c15.65,0,29.263-10.45,36.266-25.851c-0.766-1.544-1.624-3.022-2.542-4.451l24.078-24.078
	c4.057-4.049,8.629-11.154,10.637-16.508l18.968-50.604c1.75-4.669,3.936-12.129,4.975-16.967l23.04-107.541
	C372.386,5.546,369.547,1.15,365.087,0.199z"/>
<path style="fill:#B59E83;" d="M279.523,290.138c-6.999-5.91-15.008-9.356-23.521-9.356s-16.521,3.448-23.52,9.355
	c-5.877,10.473-9.512,24.539-9.512,39.221c0,29.645,14.789,50.52,33.032,50.52c18.243,0,33.032-20.875,33.032-50.52
	C289.034,314.677,285.399,300.609,279.523,290.138z"/>
<g>
</g>
<g>
</g>
<g>
</g>
<g>
</g>
<g>
</g>
<g>
</g>
<g>
</g>
<g>
</g>
<g>
</g>
<g>
</g>
<g>
</g>
<g>
</g>
<g>
</g>
<g>
</g>
<g>
</g>
</svg>
