<?xml version="1.0" encoding="iso-8859-1"?>
<!-- Generator: Adobe Illustrator 19.0.0, SVG Export Plug-In . SVG Version: 6.00 Build 0)  -->
<svg version="1.1" id="Layer_1" xmlns="http://www.w3.org/2000/svg" xmlns:xlink="http://www.w3.org/1999/xlink" x="0px" y="0px"
	 viewBox="0 0 511.999 511.999" style="enable-background:new 0 0 511.999 511.999;" xml:space="preserve">
<path style="fill:#FB968B;" d="M503.188,318.311c-0.595-1.349-15.119-33.087-81.039-29.23c-41.707,2.342-64.35-12.072-86.31-26
	c-11.761-7.454-23.82-15.066-38.228-19.379c33.37-12.002,66.217-5.968,98.078-0.058c17.262,3.198,34.088,6.318,50.167,6.318
	c19.786,0,38.429-4.73,55.309-19.857c3.349-3,3.627-8.135,0.635-11.476c-3.016-3.349-8.15-3.62-11.476-0.635
	c-24.643,22.087-55.698,16.333-91.675,9.667c-15.917-2.953-32.787-6.065-50.266-6.905c26.981-15.617,39.788-33.953,35.21-52.167
	c-11.635-46.302-127.69-56.389-295.659-25.674c-4.413,0.802-7.342,5.04-6.532,9.453c0.81,4.413,5.079,7.405,9.453,6.532
	c190.548-34.825,271.008-10.103,276.976,13.65c0.978,3.891-0.15,8.546-3.48,13.591c-11.031-30.49-92.662-41.147-210.901-27.052
	c-4.461,0.531-7.642,4.58-7.111,9.032s4.5,7.603,9.032,7.111c140.389-16.785,191.389,4.238,194.103,17.039
	c1.044,4.963-6.773,14.671-30.215,24.603c-0.561,0.234-1.083,0.47-1.654,0.704c-0.94,0.386-1.96,0.772-2.948,1.159
	c-1.27,0.497-2.574,0.992-3.893,1.482c-3.83,1.406-7.94,2.806-12.449,4.186c-1.875,0.572-3.3,1.828-4.302,3.343
	c-4.327,1.477-8.663,3.157-13.015,5.196c-2.939,1.377-4.612,4.296-4.624,7.338c-2.818-0.098-5.667-0.152-8.678,0.036
	c-4.484,0.27-7.889,4.128-7.619,8.603c0.277,4.492,4.174,7.952,8.603,7.619c24.119-1.428,40.056,8.595,58.461,20.262
	c22.992,14.587,49.024,31.19,95.913,28.5c53.5-2.96,65.199,19.46,65.247,19.532c1.341,3.048,4.317,4.865,7.452,4.865
	c1.087,0,2.19-0.222,3.254-0.683C503.117,327.215,504.989,322.422,503.188,318.311z"/>
<path style="fill:#FA7364;" d="M503.873,272.9c-35.524,0-55.54-21.762-74.889-42.81c-17.389-18.904-35.373-38.46-63.27-38.46
	c-21.564,0-36.468,11.151-48.444,20.111c-8.889,6.651-16.564,12.397-24.699,12.397c-4.301,0-13.658-4.405-21.912-8.285
	c-18.589-8.75-37.768-21.573-65.209-13.242v60.543c18.708,7.116,40.76,3.743,48.86,1.263c16.404-4.992,20.682,0.285,23.809,4.167
	l1.786,2.223c19.214,23.85,34.389,42.69,90.778,66.476c15.936,6.714,20.095,16.476,18.817,22.793
	c-1.27,6.286-7.413,10.35-15.659,10.35c-4.492,0-8.127,3.635-8.127,8.127c0,4.492,3.635,8.127,8.127,8.127
	c16.071,0,28.761-9.397,31.596-23.381c2.492-12.326-3.46-30.468-28.436-41c-52.619-22.183-65.961-38.754-84.436-61.691l-1.794-2.23
	c-0.545-0.677-1.186-1.47-1.94-2.319c81.82,5.25,108.131,41.603,127.655,68.732c11.341,15.762,21.143,29.381,38.627,29.381
	c4.492,0,8.127-3.635,8.127-8.127s-3.635-8.127-8.127-8.127c-8.746,0-14.738-7.754-25.436-22.619
	c-19.903-27.659-49.272-68.097-135.073-75.052c12.567-0.754,22.663-8.2,32.405-15.488c11.087-8.294,22.547-16.873,38.707-16.873
	c20.761,0,34.913,15.388,51.302,33.214c20.715,22.524,44.199,48.056,86.857,48.056c4.492,0,8.127-3.635,8.127-8.127
	C511.999,276.535,508.365,272.9,503.873,272.9z"/>
<path style="fill:#DC5550;" d="M205.451,202.61v60.543c8.918,3.392,18.564,4.362,27.129,4.221
	c-7.432-33.502-2.721-54.044,3.39-65.961C226.854,199.368,216.875,199.142,205.451,202.61z"/>
<path style="fill:#FFA082;" d="M217.475,202.68c1.272-2.746-0.202-6.065-3.152-6.738c-4.794-1.095-14.037-1.746-31.804,0.151
	c-39.733,4.243-82.963,28.044-109.376,28.044c0,0-23.873-14.922-48.762-2.691C14.057,226.52,0,235.425,0,235.425
	s14.057,8.906,24.381,13.979c24.889,12.23,40.635-1.054,40.635-1.054c30.936-1.07,61.873,20.96,136.005,19.589
	c5.379-0.1,9.595-4.976,8.499-10.242c-1.775-8.531-2.825-22.527,1.781-41.685L217.475,202.68z"/>
<circle style="fill:#FFDCC3;" cx="227.556" cy="230.968" r="20.318"/>
<circle style="fill:#464655;" cx="227.556" cy="230.968" r="8.127"/>
<path style="fill:#FA7364;" d="M65.016,248.349c30.971-1.071,61.943,21.009,136.254,19.584c5.265-0.102,9.385-4.878,8.295-10.03
	c-0.625-2.954-1.147-6.621-1.394-10.9c-61.885,8.349-102.52-16.032-135.028-7.905C49.49,245.012,40.635,256.133,0,235.425
	c0,0,14.057,8.906,24.381,13.979C49.27,261.634,65.016,248.349,65.016,248.349z"/>
<g>
</g>
<g>
</g>
<g>
</g>
<g>
</g>
<g>
</g>
<g>
</g>
<g>
</g>
<g>
</g>
<g>
</g>
<g>
</g>
<g>
</g>
<g>
</g>
<g>
</g>
<g>
</g>
<g>
</g>
</svg>
