<?xml version="1.0" encoding="iso-8859-1"?>
<!-- Generator: Adobe Illustrator 19.0.0, SVG Export Plug-In . SVG Version: 6.00 Build 0)  -->
<svg version="1.1" id="Layer_1" xmlns="http://www.w3.org/2000/svg" xmlns:xlink="http://www.w3.org/1999/xlink" x="0px" y="0px"
	 viewBox="0 0 512.001 512.001" style="enable-background:new 0 0 512.001 512.001;" xml:space="preserve">
<path style="fill:#FF9150;" d="M500.406,189.987l-146.006,7.608c-23.102,1.204-43.901-13.908-49.895-36.251L266.622,20.132
	c-2.914-10.862-18.328-10.862-21.242,0l-37.884,141.211c-5.994,22.343-26.793,37.454-49.895,36.251l-146.006-7.608
	C0.363,189.4-4.4,204.06,5.031,210.187l122.593,79.666c19.397,12.605,27.341,37.056,19.059,58.655L94.328,485.02
	c-4.027,10.501,8.442,19.56,17.185,12.485l113.651-91.974c17.982-14.553,43.691-14.553,61.673,0l113.652,91.974
	c8.742,7.075,21.212-1.985,17.185-12.485L365.32,348.51c-8.284-21.599-0.34-46.05,19.059-58.655l122.593-79.666
	C516.401,204.061,511.638,189.402,500.406,189.987z"/>
<path style="fill:#FF7841;" d="M332.952,300.104l-63.49-21.336l39.595-52.794c2.742-3.645,2.001-8.823-1.654-11.556
	c-3.645-2.726-8.814-2.001-11.556,1.654L256.001,269.2l-39.847-53.129c-2.742-3.661-7.911-4.395-11.556-1.654
	c-3.653,2.733-4.395,7.911-1.654,11.556l39.595,52.794l-63.49,21.336c-4.323,1.451-6.653,6.137-5.202,10.46
	c1.161,3.452,4.379,5.629,7.831,5.629c0.871,0,1.758-0.137,2.629-0.427l63.435-21.316v62.833c0,4.565,3.693,8.258,8.258,8.258
	s8.258-3.693,8.258-8.258v-62.833l63.435,21.316c0.871,0.29,1.758,0.427,2.629,0.427c3.452,0,6.669-2.177,7.831-5.629
	C339.605,306.241,337.274,301.555,332.952,300.104z"/>
<path style="fill:#FFC387;" d="M500.406,189.987l-5.513,0.286l-213.908,71.3c-3.412-3.98-7.661-7.196-12.598-9.197V26.717
	l-1.766-6.585c-2.914-10.862-18.327-10.862-21.242,0l-1.766,6.583v225.661c-4.936,2.002-9.186,5.217-12.598,9.197L17.107,190.274
	l-5.513-0.286c-11.231-0.585-15.995,14.073-6.564,20.201l6.863,4.459l211.288,70.428c0.359,5.57,2.039,10.752,4.821,15.232
	c-0.032,0.044-0.074,0.074-0.106,0.119L95.792,481.202l-1.464,3.816c-4.027,10.502,8.442,19.56,17.184,12.486l7.452-6.03
	l128.931-176.436c0.033-0.045,0.051-0.097,0.084-0.143c2.581,0.648,5.239,1.095,8.021,1.095s5.44-0.447,8.022-1.095
	c0.033,0.046,0.051,0.098,0.084,0.143l128.932,176.436l7.451,6.03c8.743,7.075,21.212-1.984,17.185-12.486l-1.464-3.816
	L284.105,300.426c-0.032-0.044-0.074-0.074-0.106-0.119c2.782-4.48,4.461-9.661,4.821-15.232l211.287-70.428l6.863-4.459
	C516.401,204.06,511.638,189.402,500.406,189.987z"/>
<circle style="fill:#FFA263;" cx="256.001" cy="282.963" r="41.29"/>
<g>
</g>
<g>
</g>
<g>
</g>
<g>
</g>
<g>
</g>
<g>
</g>
<g>
</g>
<g>
</g>
<g>
</g>
<g>
</g>
<g>
</g>
<g>
</g>
<g>
</g>
<g>
</g>
<g>
</g>
</svg>
