<?xml version="1.0" encoding="iso-8859-1"?>
<!-- Generator: Adobe Illustrator 19.0.0, SVG Export Plug-In . SVG Version: 6.00 Build 0)  -->
<svg version="1.1" id="Layer_1" xmlns="http://www.w3.org/2000/svg" xmlns:xlink="http://www.w3.org/1999/xlink" x="0px" y="0px"
	 viewBox="0 0 512.001 512.001" style="enable-background:new 0 0 512.001 512.001;" xml:space="preserve">
<path style="fill:#E6E1D7;" d="M322.07,346.839c2.691-14.183,53.667-10.065,90.829-99.097
	c27.512-65.913-20.645-180.301-41.29-211.957C350.963,4.129,292.344,0,255.995,0h0.01c-36.349,0-94.968,4.129-115.613,35.785
	S71.59,181.83,99.102,247.742c37.161,89.032,88.148,84.914,90.839,99.097H322.07z"/>
<g>
	<path style="fill:#F0EBE1;" d="M400.323,97.528c-9.881-27.385-21.144-50.136-28.714-61.744C350.964,4.131,292.351,0,256.001,0
		c-36.349,0-94.964,4.131-115.608,35.784c-7.568,11.605-18.826,34.344-28.706,61.72c-0.908,30.502,27.695,36.696,49.351,42.883
		v20.645h189.936v-20.645C372.623,134.202,401.214,128.009,400.323,97.528z"/>
	<polygon style="fill:#F0EBE1;" points="255.995,0 256.001,0 256.004,0 	"/>
</g>
<path style="fill:#595966;" d="M350.973,140.387c0,0-64.688,15.484-94.968,15.484s-94.968-15.484-94.968-15.484l4.129,33.032
	c55.851,55.851-27.025,104.002,41.789,181.678h98.099c68.814-77.676-14.062-125.825,41.789-181.678L350.973,140.387z"/>
<path style="fill:#FFAA55;" d="M330.328,272.517c-16.516-41.29-49.548-79.484-49.548-57.768c0,41.227,24.799,86.081,14.142,119.825
	c-1.234,3.906-6.748,3.65-7.949-0.266c-4.274-13.923-15.036-28.759-30.967-28.759s-26.693,14.836-30.967,28.759
	c-1.202,3.916-6.716,4.172-7.949,0.266c-10.657-33.744,14.142-78.598,14.142-119.825c0-21.716-33.032,16.478-49.548,57.768
	c-11.159,27.897,8.258,37.161,8.258,173.42c0,46.107,22.71,66.065,66.065,66.065s66.065-19.958,66.065-66.065
	C322.07,309.678,341.487,300.414,330.328,272.517z"/>
<path style="fill:#595966;" d="M256.006,479.098c-14.432,0-18.78,31.331-29.133,28.871c8.347,2.71,18.056,4.032,29.133,4.032
	c11.076,0,20.787-1.322,29.133-4.032C274.786,510.428,270.438,479.098,256.006,479.098z"/>
<g>
	<ellipse style="fill:#464655;" cx="161.033" cy="161.033" rx="12.387" ry="20.645"/>
	<ellipse style="fill:#464655;" cx="350.968" cy="161.033" rx="12.387" ry="20.645"/>
</g>
<g>
</g>
<g>
</g>
<g>
</g>
<g>
</g>
<g>
</g>
<g>
</g>
<g>
</g>
<g>
</g>
<g>
</g>
<g>
</g>
<g>
</g>
<g>
</g>
<g>
</g>
<g>
</g>
<g>
</g>
</svg>
