<?xml version="1.0" encoding="iso-8859-1"?>
<!-- Generator: Adobe Illustrator 19.0.0, SVG Export Plug-In . SVG Version: 6.00 Build 0)  -->
<svg version="1.1" id="Layer_1" xmlns="http://www.w3.org/2000/svg" xmlns:xlink="http://www.w3.org/1999/xlink" x="0px" y="0px"
	 viewBox="0 0 512 512" style="enable-background:new 0 0 512 512;" xml:space="preserve">
<path style="fill:#D7BE96;" d="M512,293.161c0,84.375-114.615,165.162-256.001,165.162S0,377.536,0,293.161
	C0,185.741,46.203,70.193,256.001,70.193S512,185.741,512,293.161z"/>
<path style="fill:#BBA386;" d="M49.548,280.774c0,79.814,151.07,144.516,206.452,144.516s206.452-64.702,206.452-144.516H49.548z"/>
<path style="fill:#9F8976;" d="M256.001,53.677c231.759,0,247.742,123.871,247.742,181.678s-23.975,99.097-55.941,90.839
	c0,0-11.322-8.258-55.942-8.258c-53.944,0-78.585,41.29-135.859,41.29s-81.915-41.29-135.859-41.29
	c-44.62,0-55.941,8.258-55.941,8.258c-31.967,8.258-55.942-33.032-55.942-90.839S24.242,53.677,256.001,53.677z"/>
<g>
	<path style="fill:#464655;" d="M231.226,260.129c-4.565,0-8.258-3.693-8.258-8.258v-8.258c0-4.565,3.693-8.258,8.258-8.258
		c4.565,0,8.258,3.693,8.258,8.258v8.258C239.484,256.436,235.791,260.129,231.226,260.129z"/>
	<path style="fill:#464655;" d="M280.775,260.129c-4.565,0-8.258-3.693-8.258-8.258v-8.258c0-4.565,3.693-8.258,8.258-8.258
		c4.565,0,8.258,3.693,8.258,8.258v8.258C289.033,256.436,285.339,260.129,280.775,260.129z"/>
	<circle style="fill:#464655;" cx="140.387" cy="210.581" r="24.774"/>
	<circle style="fill:#464655;" cx="371.614" cy="210.581" r="24.774"/>
</g>
<g>
</g>
<g>
</g>
<g>
</g>
<g>
</g>
<g>
</g>
<g>
</g>
<g>
</g>
<g>
</g>
<g>
</g>
<g>
</g>
<g>
</g>
<g>
</g>
<g>
</g>
<g>
</g>
<g>
</g>
</svg>
