<?xml version="1.0" encoding="iso-8859-1"?>
<!-- Generator: Adobe Illustrator 19.0.0, SVG Export Plug-In . SVG Version: 6.00 Build 0)  -->
<svg version="1.1" id="Layer_1" xmlns="http://www.w3.org/2000/svg" xmlns:xlink="http://www.w3.org/1999/xlink" x="0px" y="0px"
	 viewBox="0 0 512.001 512.001" style="enable-background:new 0 0 512.001 512.001;" xml:space="preserve">
<g>
	<path style="fill:#DCAA46;" d="M186.1,200.376c-21.533,0-39.908-9.801-51.688-21.581c-13.653-13.653-26.764-14.104-27.314-14.113
		c-4.53-0.105-8.179-3.835-8.13-8.365c0.049-4.53,3.689-8.17,8.219-8.17c0.815,0,20.176,0.218,38.915,18.957
		c5.28,5.273,33.587,30.421,72.574,7.024c3.924-2.357,8.994-1.082,11.344,2.834c2.349,3.916,1.082,8.994-2.834,11.344
		C212.855,196.904,198.912,200.376,186.1,200.376z"/>
	<path style="fill:#DCAA46;" d="M214.672,139.879c-0.355,0-0.711-0.024-1.074-0.072c-3.593-0.468-35.395-4.989-46.795-19.652
		c-6.177-7.937-9.43-16.64-12.046-23.64c-1.203-3.221-2.85-7.63-3.819-8.672c-5.014-5.006-20.959-11.569-29.832-14.532
		c-4.327-1.438-6.669-6.12-5.224-10.455c1.445-4.327,6.088-6.677,10.455-5.224c2.729,0.904,26.926,9.155,36.299,18.53
		c3.456,3.456,5.385,8.606,7.613,14.565c2.333,6.249,4.981,13.338,9.6,19.272c5.191,6.677,24.116,11.861,35.888,13.418
		c4.53,0.597,7.71,4.748,7.121,9.269C222.31,136.852,218.766,139.879,214.672,139.879z"/>
</g>
<path style="fill:#6B676E;" d="M239.458,65.472c-3.916,0-7.387-2.785-8.122-6.766c-0.113-0.557-5.458-26.91-28.476-37.526
	c-21.783-10.076-52.593-3.859-91.572,18.4c-3.973,2.268-9.019,0.88-11.279-3.077c-2.268-3.964-0.888-9.011,3.077-11.279
	C147.095,0.075,183.04-6.312,209.998,6.259c30.898,14.388,37.341,48.038,37.6,49.468c0.824,4.489-2.156,8.792-6.653,9.608
	C240.444,65.431,239.951,65.472,239.458,65.472z"/>
<g>
	<path style="fill:#DCAA46;" d="M189.861,511.917c-0.888,0-1.792-0.146-2.681-0.444c-4.32-1.486-6.62-6.184-5.143-10.504
		c4.642-13.532-23.099-98.895-65.962-202.982c-4.642-11.287,13.087-63.952,21.395-76.353c1.219-1.817,4.925-7.347,11.053-7.347
		c10.398,0,24.245,7.863,41.789,17.81c18.464,10.472,39.383,22.348,53.286,22.348c4.57,0,8.268,3.698,8.268,8.268
		s-3.698,8.267-8.268,8.267c-18.263,0-41.208-13.015-61.449-24.504c-11.457-6.499-24.278-13.774-31.245-15.349
		c-6.887,10.044-19.667,52.245-19.256,61.248c28.532,69.346,74.738,188.594,66.035,213.954
		C196.506,509.761,193.293,511.917,189.861,511.917z M131.675,292.771L131.675,292.771L131.675,292.771z"/>
	<path style="fill:#DCAA46;" d="M325.902,200.376c21.533,0,39.908-9.801,51.688-21.581c13.653-13.653,26.764-14.104,27.314-14.113
		c4.53-0.105,8.179-3.835,8.13-8.365c-0.049-4.53-3.689-8.17-8.219-8.17c-0.815,0-20.176,0.218-38.915,18.957
		c-5.28,5.273-33.587,30.421-72.574,7.024c-3.924-2.357-8.994-1.082-11.344,2.834c-2.349,3.916-1.082,8.994,2.834,11.344
		C299.145,196.904,313.088,200.376,325.902,200.376z"/>
	<path style="fill:#DCAA46;" d="M297.329,139.879c0.355,0,0.711-0.024,1.074-0.072c3.593-0.468,35.395-4.989,46.795-19.652
		c6.177-7.937,9.43-16.64,12.046-23.64c1.203-3.221,2.85-7.63,3.819-8.672c5.014-5.006,20.959-11.569,29.832-14.532
		c4.328-1.438,6.669-6.12,5.224-10.455c-1.445-4.327-6.088-6.677-10.455-5.224c-2.729,0.904-26.926,9.155-36.299,18.53
		c-3.456,3.456-5.385,8.606-7.613,14.565c-2.333,6.249-4.981,13.338-9.6,19.272c-5.191,6.677-24.116,11.861-35.888,13.418
		c-4.53,0.597-7.71,4.748-7.121,9.269C289.691,136.852,293.235,139.879,297.329,139.879z"/>
</g>
<path style="fill:#6B676E;" d="M272.543,65.472c3.916,0,7.387-2.785,8.122-6.766c0.113-0.557,5.458-26.91,28.476-37.526
	c21.783-10.076,52.593-3.859,91.572,18.4c3.973,2.268,9.019,0.88,11.279-3.077c2.268-3.964,0.888-9.011-3.077-11.279
	C364.906,0.075,328.962-6.312,302.004,6.259c-30.898,14.388-37.341,48.038-37.6,49.468c-0.824,4.489,2.156,8.792,6.653,9.608
	C271.558,65.431,272.05,65.472,272.543,65.472z"/>
<path style="fill:#DCAA46;" d="M314.316,506.33c-8.704-25.36,37.502-144.609,66.035-213.954
	c0.411-9.002-12.369-51.204-19.256-61.248c-6.967,1.574-19.788,8.849-31.245,15.349c-20.241,11.489-43.186,24.504-61.449,24.504
	c-4.57,0-8.267-3.698-8.267-8.267s3.698-8.268,8.267-8.268c13.903,0,34.822-11.876,53.286-22.348
	c17.545-9.947,31.391-17.81,41.789-17.81c6.128,0,9.834,5.531,11.053,7.347c8.308,12.401,26.037,65.066,21.395,76.353
	c-42.864,104.087-70.604,189.45-65.962,202.982c1.478,4.32-0.824,9.019-5.143,10.504c-0.888,0.299-1.792,0.444-2.681,0.444
	C318.708,511.917,315.494,509.761,314.316,506.33z M380.327,292.771L380.327,292.771L380.327,292.771z"/>
<g>
	<path style="fill:#585661;" d="M284.938,90.274h-57.872c-11.415,0-20.669-9.253-20.669-20.669l0,0
		c0-11.415,9.253-20.669,20.669-20.669h57.872c11.415,0,20.669,9.253,20.669,20.669l0,0
		C305.606,81.021,296.353,90.274,284.938,90.274z"/>
	<path style="fill:#585661;" d="M313.874,156.414c0-41.095-25.91-74.407-57.872-74.407c-31.962,0-57.872,33.313-57.872,74.407
		c0,35.615,19.475,65.346,45.471,72.652v34.826h24.803v-34.826C294.399,221.762,313.874,192.03,313.874,156.414z"/>
</g>
<path style="fill:#6B676E;" d="M256.001,82.007c-31.962,0-57.872,33.313-57.872,74.407c0,8.068,1.029,15.819,2.877,23.093
	c16.104,6.294,34.87,9.977,54.995,9.977c20.125,0,38.891-3.683,54.995-9.977c1.848-7.274,2.877-15.025,2.877-23.093
	C313.874,115.321,287.964,82.007,256.001,82.007z"/>
<path style="fill:#FFD750;" d="M213.511,85.096c3.686-9.193,8.652-17.084,14.532-23.122c5.102-5.24,0.62-14.184-6.449-12.308
	c-0.267,0.07-0.534,0.147-0.802,0.228c-6.4,1.948-11.623,7.158-13.498,13.579C204.771,72.115,207.801,80.095,213.511,85.096z"/>
<path style="fill:#6B676E;" d="M322.141,313.497c0,90.943-29.612,165.35-66.14,165.35s-66.14-73.374-66.14-165.35
	c0-45.66,29.612-57.872,66.14-57.872S322.141,267.836,322.141,313.497z"/>
<path style="fill:#FFDEB7;" d="M180.746,157.262c-6.201,16.535-99.963,318.243-66.14,347.235c19.29,16.535,29.97,2.067,33.07-8.267
	c3.1-10.334,57.872-338.967,57.872-338.967S186.947,140.727,180.746,157.262z"/>
<path style="fill:#FFD750;" d="M298.492,85.096c5.71-5.001,8.74-12.981,6.217-21.623c-1.875-6.422-7.098-11.63-13.498-13.579
	c-0.269-0.082-0.535-0.158-0.802-0.228c-7.069-1.876-11.552,7.069-6.45,12.308C289.841,68.012,294.806,75.901,298.492,85.096z"/>
<ellipse transform="matrix(-0.5453 -0.8383 0.8383 -0.5453 176.5215 401.9924)" style="fill:#D2B49B;" cx="197.294" cy="153.118" rx="12.402" ry="16.536"/>
<path style="fill:#FFDEB7;" d="M331.341,157.178c6.201,16.535,99.963,318.243,66.14,347.235c-19.29,16.535-29.97,2.067-33.07-8.267
	s-57.872-338.967-57.872-338.967S325.14,140.643,331.341,157.178z"/>
<ellipse transform="matrix(-0.5453 0.8383 -0.8383 -0.5453 614.7396 -27.4184)" style="fill:#D2B49B;" cx="314.807" cy="153.029" rx="12.402" ry="16.536"/>
<g>
	<path style="fill:#FFD750;" d="M189.926,311.938c-0.008,0.535-0.065,1.014-0.065,1.558c0,11.22,0.456,22.153,1.296,32.72
		c19.429,5.402,41.356,8.618,64.844,8.618c23.405,0,45.428-3.054,64.814-8.415c0.866-10.649,1.326-21.656,1.326-32.922
		c0-0.569-0.059-1.073-0.068-1.633c-28.246,6.788-51.518,18.358-66.072,32.778C241.457,330.231,218.151,318.725,189.926,311.938z"/>
	<path style="fill:#FFD750;" d="M256.001,296.962c-22.801,0-43.271-6.574-58.202-17.033c-3.522,5.83-5.908,13.006-7.08,21.573
		c18.102,7.492,40.684,11.995,65.282,11.995c24.588,0,47.175-4.495,65.285-11.975c-1.16-8.492-3.518-15.608-6.986-21.408
		C299.351,290.523,278.754,296.962,256.001,296.962z"/>
	<path style="fill:#FFD750;" d="M216.587,446.247c11.015,20.422,24.625,32.6,39.414,32.6c14.713,0,28.258-12.219,39.244-32.581
		c-17.008,1.495-31.358,6.659-39.244,13.779C248.089,452.9,233.671,447.724,216.587,446.247z"/>
	<path style="fill:#FFD750;" d="M256.001,435.539c-11.669-12.164-30.886-21.645-54.087-26.776
		c3.078,10.92,6.674,20.817,10.696,29.548c13.233,3.353,27.887,5.273,43.391,5.273c15.421,0,30.019-1.882,43.206-5.198
		c4.047-8.768,7.661-18.72,10.761-29.666C286.824,413.882,267.655,423.392,256.001,435.539z"/>
	<path style="fill:#FFD750;" d="M256.001,394.246c-13.881-14.669-36.239-26.366-63.347-33.093
		c1.515,12.704,3.648,24.685,6.265,35.875c17.262,4.723,36.593,7.412,57.082,7.412c20.431,0,39.72-2.668,56.958-7.357
		c2.651-11.244,4.82-23.259,6.356-35.981C292.208,367.835,269.885,379.576,256.001,394.246z"/>
</g>
<g>
</g>
<g>
</g>
<g>
</g>
<g>
</g>
<g>
</g>
<g>
</g>
<g>
</g>
<g>
</g>
<g>
</g>
<g>
</g>
<g>
</g>
<g>
</g>
<g>
</g>
<g>
</g>
<g>
</g>
</svg>
