<?xml version="1.0" encoding="iso-8859-1"?>
<!-- Generator: Adobe Illustrator 19.0.0, SVG Export Plug-In . SVG Version: 6.00 Build 0)  -->
<svg version="1.1" id="Layer_1" xmlns="http://www.w3.org/2000/svg" xmlns:xlink="http://www.w3.org/1999/xlink" x="0px" y="0px"
	 viewBox="0 0 512.002 512.002" style="enable-background:new 0 0 512.002 512.002;" xml:space="preserve">
<g>
	<path style="fill:#E6D7B9;" d="M371.689,301.388c0,16.504-8.252,33.009-33.009,41.261c0,0-8.252,0-16.504-16.504l33.009-24.756
		H371.689z"/>
	<path style="fill:#E6D7B9;" d="M190.141,293.136c-74.269,16.504-10.845,49.513,8.252,49.513c8.252,0,36.447-23.381,49.513-33.009
		L190.141,293.136z"/>
	<path style="fill:#E6D7B9;" d="M355.184,169.353c0,0-90.774,0-107.278,57.765l123.782-16.504
		C371.689,194.11,355.184,169.353,355.184,169.353z"/>
	<path style="fill:#E6D7B9;" d="M214.898,194.11c-8.813,0-66.017,16.504-90.774,33.009l13.887,15.124l118.147-6.872
		C256.158,235.37,231.402,194.11,214.898,194.11z"/>
	<path style="fill:#E6D7B9;" d="M33.35,268.379c0,5.673-9.284,11.347-16.504,16.504c-20.65,14.751-16.504,33.009-16.504,33.009
		c32.321,0,72.206-24.756,115.53-24.756c74.269,0,86.679,22.92,140.287,24.756c121.009,4.144,218.042-35.665,251.504-51.47
		c5.73-2.707,5.812-10.84,0.088-13.559c-33.189-15.76-122.59-50.501-144.314-50.501c-68.768,0-185.674,41.261-247.565,41.261
		c-43.324,0-83.21-24.756-115.53-24.756c0,0-4.146,18.258,16.504,33.009C24.066,257.032,33.35,262.706,33.35,268.379z"/>
</g>
<path style="fill:#EBE6CD;" d="M256.158,317.892c60.487,2.071,114.982-6.839,158.544-18.245
	c-43.013-47.772-224.561-23.015-307.082-6.512c-0.777,0.156-1.439,0.339-2.198,0.511c3.463-0.299,6.941-0.511,10.45-0.511
	C190.141,293.136,202.55,316.056,256.158,317.892z"/>
<g>
	<path style="fill:#BEB4A0;" d="M507.749,252.863c-33.189-15.76-122.59-50.501-144.314-50.501
		c-68.767,0-185.674,41.261-247.565,41.261c-21.788,0-42.702-6.259-62.225-12.486c-3.129,10.77,0.334,21.609,20.965,28.99
		c63.438,22.693,213.009-37.135,288.826-37.135c13.512,0,25.683,5.883,36.937,13.881c-5.806,6.824-12.18,15.936-12.18,23.254
		c0,2.192,0.871,4.287,2.418,5.834c1.052,1.052,16.525,16.374,36.242,30.323c7.155-2.041,13.992-4.114,20.44-6.211
		c-17.851-10.935-34.55-25.888-41.549-32.462c1.45-2.689,4.301-6.554,7.61-10.447c21.523,18.681,39.737,40.443,57.672,34.635
		c15.802-5.922,28.231-11.41,36.636-15.379C513.392,263.715,513.474,255.58,507.749,252.863z"/>
	<path style="fill:#BEB4A0;" d="M313.923,260.127c0,41.261,57.765,28.367,57.765,28.367c-8.252-11.862,0-28.367,0-28.367
		L313.923,260.127L313.923,260.127z"/>
</g>
<circle style="fill:#464655;" cx="454.21" cy="251.877" r="8.252"/>
<path style="fill:#BEB4A0;" d="M86.995,240.344c-32.132-6.713-61.66-21.478-86.654-21.478c0,0-4.147,18.258,16.504,33.009
	c7.221,5.158,16.504,10.831,16.504,16.504s-9.284,11.347-16.504,16.504c-20.651,14.75-16.504,33.009-16.504,33.009
	c24.948,0,54.417-14.715,86.483-21.443C72.016,277.12,77.628,253.608,86.995,240.344z"/>
<g>
	<path style="fill:#9B8C7D;" d="M346.932,235.37c4.561,0,8.252-3.691,8.252-8.252v-24.473c-5.295,0.224-10.776,0.61-16.504,1.209
		v23.264C338.68,231.68,342.371,235.37,346.932,235.37z"/>
	<path style="fill:#9B8C7D;" d="M313.923,239.843c4.561,0,8.252-3.691,8.252-8.252v-25.664c-5.392,0.794-10.891,1.683-16.504,2.679
		v22.985C305.671,236.151,309.362,239.843,313.923,239.843z"/>
	<path style="fill:#9B8C7D;" d="M148.88,274.222c4.561,0,8.252-3.691,8.252-8.252v-26.384c-5.695,0.923-11.211,1.714-16.504,2.346
		v24.039C140.628,270.531,144.319,274.222,148.88,274.222z"/>
	<path style="fill:#9B8C7D;" d="M124.124,268.379V243.31c-2.8,0.14-5.64,0.313-8.252,0.313c-2.766,0-5.516-0.106-8.252-0.294v25.05
		c0,4.561,3.691,8.252,8.252,8.252S124.124,272.939,124.124,268.379z"/>
	<path style="fill:#9B8C7D;" d="M371.689,203.374v23.745c0,4.561,3.691,8.252,8.252,8.252s8.252-3.691,8.252-8.252V207.4
		C381.84,205.587,376.281,204.222,371.689,203.374z"/>
	<path style="fill:#9B8C7D;" d="M289.167,238.118v-26.407c-5.448,1.082-10.957,2.22-16.504,3.403v23.004
		c0,4.561,3.691,8.252,8.252,8.252C285.476,246.371,289.167,242.68,289.167,238.118z"/>
	<path style="fill:#9B8C7D;" d="M181.889,268.379c4.561,0,8.252-3.691,8.252-8.252v-26.77c-5.602,1.17-11.109,2.271-16.504,3.299
		v23.471C173.637,264.687,177.328,268.379,181.889,268.379z"/>
	<path style="fill:#9B8C7D;" d="M256.158,218.709c-5.498,1.22-11.002,2.457-16.504,3.702v21.21c0,4.561,3.691,8.252,8.252,8.252
		c4.561,0,8.252-3.691,8.252-8.252V218.709z"/>
	<path style="fill:#9B8C7D;" d="M214.898,260.127c4.561,0,8.252-3.691,8.252-8.252V226.14c-5.546,1.251-11.047,2.476-16.504,3.676
		v22.057C206.645,256.436,210.336,260.127,214.898,260.127z"/>
	<path style="fill:#9B8C7D;" d="M16.435,314.237c-0.018-0.075-1.027-8.046,10.003-15.925l2.636-1.854
		c9.258-6.466,20.78-14.51,20.78-28.081c0-13.57-11.522-21.616-20.78-28.081l-2.636-1.854c-9.858-7.041-10.104-14.062-9.927-16.136
		l0.334-0.943v-0.628c-5.679-1.107-11.214-1.871-16.504-1.871c0,0-4.147,18.258,16.504,33.009
		c7.221,5.158,16.504,10.831,16.504,16.504c0,5.673-9.284,11.347-16.504,16.504C-3.806,299.632,0.34,317.891,0.34,317.891
		c5.29,0,10.823-0.763,16.5-1.87L16.435,314.237z"/>
</g>
<g>
</g>
<g>
</g>
<g>
</g>
<g>
</g>
<g>
</g>
<g>
</g>
<g>
</g>
<g>
</g>
<g>
</g>
<g>
</g>
<g>
</g>
<g>
</g>
<g>
</g>
<g>
</g>
<g>
</g>
</svg>
